<svg xmlns="http://www.w3.org/2000/svg" width="614.4" height="460.8" viewBox="0 0 460.8 345.6" xmlns:v="https://vecta.io/nano"><style><![CDATA[.B{fill:#fff}.C{stroke-width:.8}.D{clip-path:url(#j)}.E{fill:none}.F{stroke:#fff}.G{stroke-width:.6}.H{stroke-dasharray:2.96,1.28}.I{stroke:#333}.J{stroke-linecap:square}.K{stroke:#555}.L{stroke-width:1.5}.M{stroke-dasharray:5.55,2.4}]]></style><path d="M0 345.6h460.8V0H0z" fill="#333"/><path d="M36.47 304.54H450V38.713H36.47z" fill="#1f2023"/><path d="M46.044 304.54V38.713" class="C D E J K"/><defs><path id="A" d="M0 0v3.5" class="C F"/></defs><g class="B"><use href="#A" x="46.044" y="304.54" class="C F"/><g transform="matrix(.1 0 0 -.1 43.543551 318.369687)"><defs><path id="B" d="M3046 2112q0-429-83-810-83-380-246-700-163-320-451-506-288-186-666-186-390 0-685 198-294 199-454 532-160 333-234 710-73 378-73 800 0 596 147 1072 147 477 489 790 343 314 836 314 627 0 1023-614 397-614 397-1600zm-614-32q0 1011-215 1545-214 535-630 535-397 0-608-538-211-537-211-1516 0-986 211-1508 211-521 621-521 403 0 617 521 215 522 215 1482z" transform="scale(.015625)"/></defs><use href="#B"/></g></g><g class="C"><path d="M94.189 304.54V38.713" class="D E J K"/><use href="#A" x="94.189" y="304.54" class="B F"/></g><g transform="matrix(.1 0 0 -.1 91.688505 318.369687)" class="B"><defs><path id="C" d="M2803 4358l-230-544q-39-83-173-83H1158l-256-544q704-134 1018-291 314-157 582-528 224-307 224-813 0-461-150-775-150-313-477-556Q1664-90 1011-90 646-90 422 19 198 128 198 307q0 243 288 243 231 0 474-198 250-205 454-205 333 0 598 333 266 333 266 749 0 614-428 960-557 448-1364 448-76 0-76 51l6 32 698 1517h1324q109 0 170 32 61 32 138 134l57-45z" transform="scale(.015625)"/></defs><use href="#C"/></g><g class="C"><path d="M142.333 304.54V38.713" class="D E J K"/><use href="#A" x="142.333" y="304.54" class="B F"/></g><g transform="matrix(.1 0 0 -.1 137.333459 318.369687)" class="B"><defs><path id="D" d="M2522 0H755v96q352 19 480 131 128 112 128 381v2874q0 313-192 313-89 0-288-77l-173-64v90l1146 582 58-19V486q0-211 128-301 128-89 480-89V0z" transform="scale(.015625)"/></defs><use href="#D"/><use href="#B" x="50"/></g><g class="C"><path d="M190.478 304.54V38.713" class="D E J K"/><use href="#A" x="190.478" y="304.54" class="B F"/></g><g transform="matrix(.1 0 0 -.1 185.478413 318.369687)" class="B"><use href="#D"/><use href="#C" x="50"/></g><g class="C"><path d="M238.623 304.54V38.713" class="D E J K"/><use href="#A" x="238.623" y="304.54" class="B F"/></g><g transform="matrix(.1 0 0 -.1 233.623366 318.369687)" class="B"><defs><path id="E" d="M3034 877L2688 0H186v77l1139 1209q448 468 640 858 192 390 192 806 0 429-237 666-237 237-653 237-345 0-547-180-202-179-394-652l-134 32q109 595 438 934 330 339 893 339 531 0 857-320 327-320 327-806 0-723-819-1587L832 486h1498q211 0 335 83 125 84 279 346l90-38z" transform="scale(.015625)"/></defs><use href="#E"/><use href="#B" x="50"/></g><g class="C"><path d="M286.768 304.54V38.713" class="D E J K"/><use href="#A" x="286.768" y="304.54" class="B F"/></g><g transform="matrix(.1 0 0 -.1 281.76832 318.369687)" class="B"><use href="#E"/><use href="#C" x="50"/></g><g class="C"><path d="M334.913 304.54V38.713" class="D E J K"/><use href="#A" x="334.913" y="304.54" class="B F"/></g><g transform="matrix(.1 0 0 -.1 329.913274 318.369687)" class="B"><defs><path id="F" d="M390 3264l-102 26q147 480 460 758 314 278 794 278 448 0 723-243 276-243 276-633 0-525-595-884 352-153 531-339 281-313 281-825 0-512-294-896-218-295-624-446Q1434-90 979-90q-717 0-717 365 0 103 77 167 77 64 186 64 160 0 390-167 282-198 551-198 352 0 592 284 240 285 240 695 0 736-666 928-198 64-653 64v90q359 121 538 230 518 294 518 858 0 320-183 486-182 166-508 166-576 0-954-678z" transform="scale(.015625)"/></defs><use href="#F"/><use href="#B" x="50"/></g><g class="C"><path d="M383.058 304.54V38.713" class="D E J K"/><use href="#A" x="383.058" y="304.54" class="B F"/></g><g transform="matrix(.1 0 0 -.1 378.058228 318.369687)" class="B"><use href="#F"/><use href="#C" x="50"/></g><g class="C"><path d="M431.203 304.54V38.713" class="D E J K"/><use href="#A" x="431.203" y="304.54" class="B F"/></g><g transform="matrix(.1 0 0 -.1 426.203182 318.369687)" class="B"><defs><path id="G" d="M3027 1069h-659V0h-499v1069H77v409l2009 2848h282V1478h659v-409zm-1158 409v2196L333 1478h1536z" transform="scale(.015625)"/></defs><use href="#G"/><use href="#B" x="50"/></g><path d="M55.673 304.54V38.713" class="C D E H I"/><defs><path id="H" d="M0 0v2" class="F G"/></defs><use href="#H" x="55.673" y="304.54" class="B F G"/><path d="M65.302 304.54V38.713" class="C D E H I"/><use href="#H" x="65.302" y="304.54" class="B F G"/><path d="M74.931 304.54V38.713" class="C D E H I"/><use href="#H" x="74.931" y="304.54" class="B F G"/><path d="M84.56 304.54V38.713" class="C D E H I"/><use href="#H" x="84.56" y="304.54" class="B F G"/><path d="M103.817 304.54V38.713" class="C D E H I"/><use href="#H" x="103.817" y="304.54" class="B F G"/><path d="M113.446 304.54V38.713" class="C D E H I"/><use href="#H" x="113.446" y="304.54" class="B F G"/><path d="M123.075 304.54V38.713" class="C D E H I"/><use href="#H" x="123.075" y="304.54" class="B F G"/><path d="M132.704 304.54V38.713" class="C D E H I"/><use href="#H" x="132.704" y="304.54" class="B F G"/><path d="M151.962 304.54V38.713" class="C D E H I"/><use href="#H" x="151.962" y="304.54" class="B F G"/><path d="M161.591 304.54V38.713" class="C D E H I"/><use href="#H" x="161.591" y="304.54" class="B F G"/><path d="M171.22 304.54V38.713" class="C D E H I"/><use href="#H" x="171.22" y="304.54" class="B F G"/><path d="M180.849 304.54V38.713" class="C D E H I"/><use href="#H" x="180.849" y="304.54" class="B F G"/><path d="M200.107 304.54V38.713" class="C D E H I"/><use href="#H" x="200.107" y="304.54" class="B F G"/><path d="M209.736 304.54V38.713" class="C D E H I"/><use href="#H" x="209.736" y="304.54" class="B F G"/><path d="M219.365 304.54V38.713" class="C D E H I"/><use href="#H" x="219.365" y="304.54" class="B F G"/><path d="M228.994 304.54V38.713" class="C D E H I"/><use href="#H" x="228.994" y="304.54" class="B F G"/><path d="M248.252 304.54V38.713" class="C D E H I"/><use href="#H" x="248.252" y="304.54" class="B F G"/><path d="M257.881 304.54V38.713" class="C D E H I"/><use href="#H" x="257.881" y="304.54" class="B F G"/><path d="M267.51 304.54V38.713" class="C D E H I"/><use href="#H" x="267.51" y="304.54" class="B F G"/><path d="M277.139 304.54V38.713" class="C D E H I"/><use href="#H" x="277.139" y="304.54" class="B F G"/><path d="M296.397 304.54V38.713" class="C D E H I"/><use href="#H" x="296.397" y="304.54" class="B F G"/><path d="M306.026 304.54V38.713" class="C D E H I"/><use href="#H" x="306.026" y="304.54" class="B F G"/><path d="M315.655 304.54V38.713" class="C D E H I"/><use href="#H" x="315.655" y="304.54" class="B F G"/><path d="M325.284 304.54V38.713" class="C D E H I"/><use href="#H" x="325.284" y="304.54" class="B F G"/><path d="M344.542 304.54V38.713" class="C D E H I"/><use href="#H" x="344.542" y="304.54" class="B F G"/><path d="M354.171 304.54V38.713" class="C D E H I"/><use href="#H" x="354.171" y="304.54" class="B F G"/><path d="M363.8 304.54V38.713" class="C D E H I"/><use href="#H" x="363.8" y="304.54" class="B F G"/><path d="M373.429 304.54V38.713" class="C D E H I"/><use href="#H" x="373.429" y="304.54" class="B F G"/><path d="M392.687 304.54V38.713" class="C D E H I"/><use href="#H" x="392.687" y="304.54" class="B F G"/><path d="M402.316 304.54V38.713" class="C D E H I"/><use href="#H" x="402.316" y="304.54" class="B F G"/><path d="M411.945 304.54V38.713" class="C D E H I"/><use href="#H" x="411.945" y="304.54" class="B F G"/><path d="M421.574 304.54V38.713" class="C D E H I"/><use href="#H" x="421.574" y="304.54" class="B F G"/><path d="M440.832 304.54V38.713" class="C D E H I"/><g class="B"><use href="#H" x="440.832" y="304.54" class="F G"/><g transform="matrix(.1 0 0 -.1 226.845156 331.369687)"><defs><path id="I" d="M2675 870L2579 0H173v96l1702 2592h-864q-301 0-407-106-105-105-150-457H339l26 755h2214v-96L858 192h851q537 0 678 173 90 109 173 531l115-26z" transform="scale(.015625)"/><path id="J" d="M1152 4045q0-141-96-234-96-93-237-93-134 0-227 93-93 93-93 234 0 134 96 230 96 96 231 96 140 0 233-96 93-96 93-230zM1619 0H102v96q333 19 419 115 87 96 87 455v1452q0 224-45 314-45 90-166 90-154 0-269-32v102l992 352 26-26V672q0-358 80-454 80-96 393-122V0z" transform="scale(.015625)"/><path id="K" d="M3104 0H1773l6 96q237 19 317 137 80 119 80 439v1274q0 646-467 646-160 0-301-77-141-77-358-288V461q0-192 86-269 86-77 330-96V0H115v96q243 19 320 118 77 100 77 388v1555q0 237-45 326-45 90-179 90-128 0-186-26v109q448 128 877 288l51-19v-499h7q454 518 921 518 365 0 560-256 196-256 196-730V544q0-256 76-339 77-83 314-109V0z" transform="scale(.015625)"/><path id="L" d="M4960 0H3565v96q269 26 342 112 74 86 74 368v1318q0 384-112 550-112 167-381 167-224 0-381-90-157-89-304-300V608q0-307 93-407 93-99 368-105V0H1830v96q282 19 359 92 77 74 77 362v1351q0 710-416 710-180 0-382-80-201-80-297-195-83-96-83-109V448q0-205 89-272 90-67 346-80V0H102v96q269 6 358 99 90 93 90 368v1587q0 237-51 330-51 93-173 93-96 0-204-26v109q435 122 889 288l51-19v-474h13q288 301 509 397 221 96 470 96 506 0 679-538 499 538 1043 538 742 0 742-1152V493q0-211 64-291 64-80 212-93l166-13V0z" transform="scale(.015625)"/></defs><use href="#I"/><use href="#Bu" x="44.4"/><use href="#J" x="69.4"/><use href="#K" x="97.2"/><use href="#Bu" x="147.2"/><use href="#L" x="172.2"/><use href="#L" x="250"/></g></g><path d="M36.47 298.39H450" class="C D E J K"/><defs><path id="M" d="M0 0h-3.5" class="C F"/></defs><g class="B"><use href="#M" x="36.47" y="298.39" class="C F"/><use href="#B" transform="matrix(.1 0 0 -.1 24.47 301.804421)"/></g><g class="C"><path d="M36.47 241.803H450" class="D E J K"/><use href="#M" x="36.47" y="241.803" class="B F"/></g><use href="#D" transform="matrix(.1 0 0 -.1 24.47 245.218003)" class="B"/><g class="C"><path d="M36.47 185.217H450" class="D E J K"/><use href="#M" x="36.47" y="185.217" class="B F"/></g><use href="#E" transform="matrix(.1 0 0 -.1 24.47 188.631585)" class="B"/><g class="C"><path d="M36.47 128.63H450" class="D E J K"/><use href="#M" x="36.47" y="128.63" class="B F"/></g><use href="#F" transform="matrix(.1 0 0 -.1 24.47 132.045167)" class="B"/><g class="C"><path d="M36.47 72.044H450" class="D E J K"/><use href="#M" x="36.47" y="72.044" class="B F"/></g><use href="#G" transform="matrix(.1 0 0 -.1 24.47 75.458749)" class="B"/><path d="M36.47 287.072H450" class="C D E H I"/><defs><path id="N" d="M0 0h-2" class="F G"/></defs><use href="#N" x="36.47" y="287.072" class="B F G"/><path d="M36.47 275.755H450" class="C D E H I"/><use href="#N" x="36.47" y="275.755" class="B F G"/><path d="M36.47 264.438H450" class="C D E H I"/><use href="#N" x="36.47" y="264.438" class="B F G"/><path d="M36.47 253.12H450" class="C D E H I"/><use href="#N" x="36.47" y="253.12" class="B F G"/><path d="M36.47 230.486H450" class="C D E H I"/><use href="#N" x="36.47" y="230.486" class="B F G"/><path d="M36.47 219.169H450" class="C D E H I"/><use href="#N" x="36.47" y="219.169" class="B F G"/><path d="M36.47 207.851H450" class="C D E H I"/><use href="#N" x="36.47" y="207.851" class="B F G"/><path d="M36.47 196.534H450" class="C D E H I"/><use href="#N" x="36.47" y="196.534" class="B F G"/><path d="M36.47 173.899H450" class="C D E H I"/><use href="#N" x="36.47" y="173.899" class="B F G"/><path d="M36.47 162.582H450" class="C D E H I"/><use href="#N" x="36.47" y="162.582" class="B F G"/><path d="M36.47 151.265H450" class="C D E H I"/><use href="#N" x="36.47" y="151.265" class="B F G"/><path d="M36.47 139.948H450" class="C D E H I"/><use href="#N" x="36.47" y="139.948" class="B F G"/><path d="M36.47 117.313H450" class="C D E H I"/><use href="#N" x="36.47" y="117.313" class="B F G"/><path d="M36.47 105.996H450" class="C D E H I"/><use href="#N" x="36.47" y="105.996" class="B F G"/><path d="M36.47 94.678H450" class="C D E H I"/><use href="#N" x="36.47" y="94.678" class="B F G"/><path d="M36.47 83.361H450" class="C D E H I"/><use href="#N" x="36.47" y="83.361" class="B F G"/><path d="M36.47 60.727H450" class="C D E H I"/><use href="#N" x="36.47" y="60.727" class="B F G"/><path d="M36.47 49.409H450" class="C D E H I"/><g class="B"><use href="#N" x="36.47" y="49.409" class="F G"/><g transform="matrix(0 -.1 -.1 0 18.299688 179.681844)"><defs><path id="O" d="M2547 998l90-57q-275-538-525-736-326-269-736-269-531 0-874 400-342 400-342 1021 0 813 538 1261 396 326 864 326 403 0 694-195 291-195 291-464 0-109-90-189-89-80-211-80-224 0-307 294l-38 141q-51 179-128 243-77 64-250 64-390 0-630-307-240-307-240-806 0-551 275-900 275-348 717-348 275 0 473 131 199 131 429 470z" transform="scale(.015625)"/><path id="P" d="M3008 1478q0-672-400-1107Q2208-64 1568-64q-589 0-986 432-396 432-396 1091 0 666 396 1075 397 410 1044 410 595 0 988-407 394-406 394-1059zm-576-172q0 729-320 1139-256 320-608 320-333 0-538-272-204-272-204-746 0-819 339-1312 217-320 576-320 352 0 553 317 202 317 202 874z" transform="scale(.015625)"/><path id="Q" d="M998 1926l666-403q320-192 441-359 122-166 122-428 0-320-266-560-265-240-630-240-301 0-467 58-173 57-294 57-109 0-154-77h-83V979h102q103-467 295-685Q922 77 1248 77q237 0 384 134 147 135 147 339 0 295-339 480l-346 192q-768 429-768 928 0 372 240 580 240 208 644 208 281 0 428-71 116-51 180-51 44 0 102 64h70l32-870h-96q-108 435-272 611-163 176-451 176-217 0-349-109-131-109-131-326 0-109 73-234 74-125 202-202z" transform="scale(.015625)"/><path id="R" d="M1702 493l84-71Q1478-64 1011-64q-563 0-563 813v1926H109q-26 19-26 45 0 51 109 122 243 140 621 684 13 20 61 80 48 61 67 100 45 0 45-84v-742h646v-205H986V845q0-307 76-442 77-134 256-134 192 0 384 224z" transform="scale(.015625)"/></defs><use href="#O"/><use href="#P" x="44.4"/><use href="#Q" x="94.4"/><use href="#R" x="133.3"/></g></g><path d="M55.267 172.404l80.847 80.049 21.682 21.196 9.187 8.708 5.145 4.59 2.94 2.37 2.205 1.52 1.47.805 1.47.561 1.102.217 1.102.021 1.102-.178 1.47-.517 1.47-.773 1.837-1.219 2.572-2.002 3.675-3.18 5.512-5.091 9.555-9.169 18.007-17.636 40.423-39.966L383.43 98.226l47.773-47.43" stroke="#8dd3c7" class="D E J L"/><defs><path id="S" d="M0 1.5a1.5 1.5 0 0 0 1.061-.439A1.5 1.5 0 0 0 1.5 0a1.5 1.5 0 0 0-.439-1.061A1.5 1.5 0 0 0 0-1.5a1.5 1.5 0 0 0-1.061.439A1.5 1.5 0 0 0-1.5 0a1.5 1.5 0 0 0 .439 1.061A1.5 1.5 0 0 0 0 1.5z" stroke="red"/></defs><g fill="red" stroke="red" class="D"><use href="#S" x="55.267" y="172.404"/><use href="#S" x="55.634" y="172.769"/><use href="#S" x="56.002" y="173.133"/><use href="#S" x="56.369" y="173.498"/><use href="#S" x="56.737" y="173.863"/><use href="#S" x="57.104" y="174.227"/><use href="#S" x="57.472" y="174.592"/><use href="#S" x="57.839" y="174.956"/><use href="#S" x="58.207" y="175.321"/><use href="#S" x="58.574" y="175.685"/><use href="#S" x="58.942" y="176.05"/><use href="#S" x="59.309" y="176.414"/><use href="#S" x="59.677" y="176.779"/><use href="#S" x="60.044" y="177.143"/><use href="#S" x="60.412" y="177.508"/><use href="#S" x="60.779" y="177.873"/><use href="#S" x="61.147" y="178.237"/><use href="#S" x="61.514" y="178.602"/><use href="#S" x="61.882" y="178.966"/><use href="#S" x="62.249" y="179.331"/><use href="#S" x="62.617" y="179.695"/><use href="#S" x="62.984" y="180.06"/><use href="#S" x="63.351" y="180.424"/><use href="#S" x="63.719" y="180.789"/><use href="#S" x="64.086" y="181.153"/><use href="#S" x="64.454" y="181.518"/><use href="#S" x="64.821" y="181.882"/><use href="#S" x="65.189" y="182.247"/><use href="#S" x="65.556" y="182.611"/><use href="#S" x="65.924" y="182.976"/><use href="#S" x="66.291" y="183.34"/><use href="#S" x="66.659" y="183.705"/><use href="#S" x="67.026" y="184.069"/><use href="#S" x="67.394" y="184.434"/><use href="#S" x="67.761" y="184.798"/><use href="#S" x="68.129" y="185.163"/><use href="#S" x="68.496" y="185.527"/><use href="#S" x="68.864" y="185.892"/><use href="#S" x="69.231" y="186.256"/><use href="#S" x="69.599" y="186.62"/><use href="#S" x="69.966" y="186.985"/><use href="#S" x="70.334" y="187.349"/><use href="#S" x="70.701" y="187.714"/><use href="#S" x="71.069" y="188.078"/><use href="#S" x="71.436" y="188.443"/><use href="#S" x="71.804" y="188.807"/><use href="#S" x="72.171" y="189.172"/><use href="#S" x="72.539" y="189.536"/><use href="#S" x="72.906" y="189.9"/><use href="#S" x="73.274" y="190.265"/><use href="#S" x="73.641" y="190.629"/><use href="#S" x="74.009" y="190.994"/><use href="#S" x="74.376" y="191.358"/><use href="#S" x="74.743" y="191.723"/><use href="#S" x="75.111" y="192.087"/><use href="#S" x="75.478" y="192.451"/><use href="#S" x="75.846" y="192.816"/><use href="#S" x="76.213" y="193.18"/><use href="#S" x="76.581" y="193.545"/><use href="#S" x="76.948" y="193.909"/><use href="#S" x="77.316" y="194.273"/><use href="#S" x="77.683" y="194.638"/><use href="#S" x="78.051" y="195.002"/><use href="#S" x="78.418" y="195.366"/><use href="#S" x="78.786" y="195.731"/><use href="#S" x="79.153" y="196.095"/><use href="#S" x="79.521" y="196.46"/><use href="#S" x="79.888" y="196.824"/><use href="#S" x="80.256" y="197.188"/><use href="#S" x="80.623" y="197.553"/><use href="#S" x="80.991" y="197.917"/><use href="#S" x="81.358" y="198.281"/><use href="#S" x="81.726" y="198.646"/><use href="#S" x="82.093" y="199.01"/><use href="#S" x="82.461" y="199.374"/><use href="#S" x="82.828" y="199.739"/><use href="#S" x="83.196" y="200.103"/><use href="#S" x="83.563" y="200.467"/><use href="#S" x="83.931" y="200.831"/><use href="#S" x="84.298" y="201.196"/><use href="#S" x="84.666" y="201.56"/><use href="#S" x="85.033" y="201.924"/><use href="#S" x="85.401" y="202.289"/><use href="#S" x="85.768" y="202.653"/><use href="#S" x="86.135" y="203.017"/><use href="#S" x="86.503" y="203.381"/><use href="#S" x="86.87" y="203.746"/><use href="#S" x="87.238" y="204.11"/><use href="#S" x="87.605" y="204.474"/><use href="#S" x="87.973" y="204.838"/><use href="#S" x="88.34" y="205.203"/><use href="#S" x="88.708" y="205.567"/><use href="#S" x="89.075" y="205.931"/><use href="#S" x="89.443" y="206.295"/><use href="#S" x="89.81" y="206.66"/><use href="#S" x="90.178" y="207.024"/><use href="#S" x="90.545" y="207.388"/><use href="#S" x="90.913" y="207.752"/><use href="#S" x="91.28" y="208.116"/><use href="#S" x="91.648" y="208.481"/><use href="#S" x="92.015" y="208.845"/><use href="#S" x="92.383" y="209.209"/><use href="#S" x="92.75" y="209.573"/><use href="#S" x="93.118" y="209.937"/><use href="#S" x="93.485" y="210.301"/><use href="#S" x="93.853" y="210.665"/><use href="#S" x="94.22" y="211.03"/><use href="#S" x="94.588" y="211.394"/><use href="#S" x="94.955" y="211.758"/><use href="#S" x="95.323" y="212.122"/><use href="#S" x="95.69" y="212.486"/><use href="#S" x="96.058" y="212.85"/><use href="#S" x="96.425" y="213.214"/><use href="#S" x="96.793" y="213.578"/><use href="#S" x="97.16" y="213.942"/><use href="#S" x="97.528" y="214.307"/><use href="#S" x="97.895" y="214.671"/><use href="#S" x="98.262" y="215.035"/><use href="#S" x="98.63" y="215.399"/><use href="#S" x="98.997" y="215.763"/><use href="#S" x="99.365" y="216.127"/><use href="#S" x="99.732" y="216.491"/><use href="#S" x="100.1" y="216.855"/><use href="#S" x="100.467" y="217.219"/><use href="#S" x="100.835" y="217.583"/><use href="#S" x="101.202" y="217.947"/><use href="#S" x="101.57" y="218.311"/><use href="#S" x="101.937" y="218.675"/><use href="#S" x="102.305" y="219.039"/><use href="#S" x="102.672" y="219.403"/><use href="#S" x="103.04" y="219.767"/><use href="#S" x="103.407" y="220.13"/><use href="#S" x="103.775" y="220.494"/><use href="#S" x="104.142" y="220.858"/><use href="#S" x="104.51" y="221.222"/><use href="#S" x="104.877" y="221.586"/><use href="#S" x="105.245" y="221.95"/><use href="#S" x="105.612" y="222.314"/><use href="#S" x="105.98" y="222.678"/><use href="#S" x="106.347" y="223.042"/><use href="#S" x="106.715" y="223.405"/><use href="#S" x="107.082" y="223.769"/><use href="#S" x="107.45" y="224.133"/><use href="#S" x="107.817" y="224.497"/><use href="#S" x="108.185" y="224.861"/><use href="#S" x="108.552" y="225.224"/><use href="#S" x="108.92" y="225.588"/><use href="#S" x="109.287" y="225.952"/><use href="#S" x="109.654" y="226.316"/><use href="#S" x="110.022" y="226.679"/><use href="#S" x="110.389" y="227.043"/><use href="#S" x="110.757" y="227.407"/><use href="#S" x="111.124" y="227.77"/><use href="#S" x="111.492" y="228.134"/><use href="#S" x="111.859" y="228.498"/><use href="#S" x="112.227" y="228.861"/><use href="#S" x="112.594" y="229.225"/><use href="#S" x="112.962" y="229.589"/><use href="#S" x="113.329" y="229.952"/><use href="#S" x="113.697" y="230.316"/><use href="#S" x="114.064" y="230.679"/><use href="#S" x="114.432" y="231.043"/><use href="#S" x="114.799" y="231.407"/><use href="#S" x="115.167" y="231.77"/><use href="#S" x="115.534" y="232.134"/><use href="#S" x="115.902" y="232.497"/><use href="#S" x="116.269" y="232.861"/><use href="#S" x="116.637" y="233.224"/><use href="#S" x="117.004" y="233.588"/><use href="#S" x="117.372" y="233.951"/><use href="#S" x="117.739" y="234.314"/><use href="#S" x="118.107" y="234.678"/><use href="#S" x="118.474" y="235.041"/><use href="#S" x="118.842" y="235.405"/><use href="#S" x="119.209" y="235.768"/><use href="#S" x="119.577" y="236.131"/><use href="#S" x="119.944" y="236.494"/><use href="#S" x="120.312" y="236.858"/><use href="#S" x="120.679" y="237.221"/><use href="#S" x="121.046" y="237.584"/><use href="#S" x="121.414" y="237.948"/><use href="#S" x="121.781" y="238.311"/><use href="#S" x="122.149" y="238.674"/><use href="#S" x="122.516" y="239.037"/><use href="#S" x="122.884" y="239.4"/><use href="#S" x="123.251" y="239.763"/><use href="#S" x="123.619" y="240.126"/><use href="#S" x="123.986" y="240.489"/><use href="#S" x="124.354" y="240.852"/><use href="#S" x="124.721" y="241.216"/><use href="#S" x="125.089" y="241.578"/><use href="#S" x="125.456" y="241.941"/><use href="#S" x="125.824" y="242.304"/><use href="#S" x="126.191" y="242.667"/><use href="#S" x="126.559" y="243.03"/><use href="#S" x="126.926" y="243.393"/><use href="#S" x="127.294" y="243.756"/><use href="#S" x="127.661" y="244.119"/><use href="#S" x="128.029" y="244.481"/><use href="#S" x="128.396" y="244.844"/><use href="#S" x="128.764" y="245.207"/><use href="#S" x="129.131" y="245.57"/><use href="#S" x="129.499" y="245.932"/><use href="#S" x="129.866" y="246.295"/><use href="#S" x="130.234" y="246.657"/><use href="#S" x="130.601" y="247.02"/><use href="#S" x="130.969" y="247.383"/><use href="#S" x="131.336" y="247.745"/><use href="#S" x="131.704" y="248.107"/><use href="#S" x="132.071" y="248.47"/><use href="#S" x="132.439" y="248.832"/><use href="#S" x="132.806" y="249.195"/><use href="#S" x="133.173" y="249.557"/><use href="#S" x="133.541" y="249.919"/><use href="#S" x="133.908" y="250.281"/><use href="#S" x="134.276" y="250.643"/><use href="#S" x="134.643" y="251.006"/><use href="#S" x="135.011" y="251.368"/><use href="#S" x="135.378" y="251.73"/><use href="#S" x="135.746" y="252.092"/><use href="#S" x="136.113" y="252.454"/><use href="#S" x="136.481" y="252.816"/><use href="#S" x="136.848" y="253.177"/><use href="#S" x="137.216" y="253.539"/><use href="#S" x="137.583" y="253.901"/><use href="#S" x="137.951" y="254.263"/><use href="#S" x="138.318" y="254.624"/><use href="#S" x="138.686" y="254.986"/><use href="#S" x="139.053" y="255.347"/><use href="#S" x="139.421" y="255.709"/><use href="#S" x="139.788" y="256.07"/><use href="#S" x="140.156" y="256.432"/><use href="#S" x="140.523" y="256.793"/><use href="#S" x="140.891" y="257.154"/><use href="#S" x="141.258" y="257.515"/><use href="#S" x="141.626" y="257.876"/><use href="#S" x="141.993" y="258.237"/><use href="#S" x="142.361" y="258.598"/><use href="#S" x="142.728" y="258.959"/><use href="#S" x="143.096" y="259.32"/><use href="#S" x="143.463" y="259.681"/><use href="#S" x="143.831" y="260.041"/><use href="#S" x="144.198" y="260.402"/><use href="#S" x="144.565" y="260.762"/><use href="#S" x="144.933" y="261.122"/><use href="#S" x="145.3" y="261.483"/><use href="#S" x="145.668" y="261.843"/><use href="#S" x="146.035" y="262.203"/><use href="#S" x="146.403" y="262.563"/><use href="#S" x="146.77" y="262.923"/><use href="#S" x="147.138" y="263.283"/><use href="#S" x="147.505" y="263.642"/><use href="#S" x="147.873" y="264.002"/><use href="#S" x="148.24" y="264.361"/><use href="#S" x="148.608" y="264.721"/><use href="#S" x="148.975" y="265.08"/><use href="#S" x="149.343" y="265.439"/><use href="#S" x="149.71" y="265.798"/><use href="#S" x="150.078" y="266.157"/><use href="#S" x="150.445" y="266.515"/><use href="#S" x="150.813" y="266.874"/><use href="#S" x="151.18" y="267.232"/><use href="#S" x="151.548" y="267.59"/><use href="#S" x="151.915" y="267.949"/><use href="#S" x="152.283" y="268.306"/><use href="#S" x="152.65" y="268.664"/><use href="#S" x="153.018" y="269.022"/><use href="#S" x="153.385" y="269.379"/><use href="#S" x="153.753" y="269.736"/><use href="#S" x="154.12" y="270.093"/><use href="#S" x="154.488" y="270.45"/><use href="#S" x="154.855" y="270.806"/><use href="#S" x="155.223" y="271.163"/><use href="#S" x="155.59" y="271.519"/><use href="#S" x="155.957" y="271.875"/><use href="#S" x="156.325" y="272.23"/><use href="#S" x="156.692" y="272.586"/><use href="#S" x="157.06" y="272.941"/><use href="#S" x="157.427" y="273.296"/><use href="#S" x="157.795" y="273.65"/><use href="#S" x="158.162" y="274.004"/><use href="#S" x="158.53" y="274.358"/><use href="#S" x="158.897" y="274.712"/><use href="#S" x="159.265" y="275.065"/><use href="#S" x="159.632" y="275.417"/><use href="#S" x="160" y="275.77"/><use href="#S" x="160.367" y="276.122"/><use href="#S" x="160.735" y="276.473"/><use href="#S" x="161.102" y="276.825"/><use href="#S" x="161.47" y="277.175"/><use href="#S" x="161.837" y="277.525"/><use href="#S" x="162.205" y="277.875"/><use href="#S" x="162.572" y="278.224"/><use href="#S" x="162.94" y="278.573"/><use href="#S" x="163.307" y="278.921"/><use href="#S" x="163.675" y="279.268"/><use href="#S" x="164.042" y="279.614"/><use href="#S" x="164.41" y="279.96"/><use href="#S" x="164.777" y="280.306"/><use href="#S" x="165.145" y="280.65"/><use href="#S" x="165.512" y="280.993"/><use href="#S" x="165.88" y="281.336"/><use href="#S" x="166.247" y="281.678"/><use href="#S" x="166.615" y="282.019"/><use href="#S" x="166.982" y="282.358"/><use href="#S" x="167.35" y="282.697"/><use href="#S" x="167.717" y="283.034"/><use href="#S" x="168.084" y="283.37"/><use href="#S" x="168.452" y="283.704"/><use href="#S" x="168.819" y="284.038"/><use href="#S" x="169.187" y="284.369"/><use href="#S" x="169.554" y="284.699"/><use href="#S" x="169.922" y="285.027"/><use href="#S" x="170.289" y="285.353"/><use href="#S" x="170.657" y="285.677"/><use href="#S" x="171.024" y="285.998"/><use href="#S" x="171.392" y="286.318"/><use href="#S" x="171.759" y="286.634"/><use href="#S" x="172.127" y="286.948"/><use href="#S" x="172.494" y="287.258"/><use href="#S" x="172.862" y="287.565"/><use href="#S" x="173.229" y="287.869"/><use href="#S" x="173.597" y="288.168"/><use href="#S" x="173.964" y="288.463"/><use href="#S" x="174.332" y="288.753"/><use href="#S" x="174.699" y="289.038"/><use href="#S" x="175.067" y="289.317"/><use href="#S" x="175.434" y="289.59"/><use href="#S" x="175.802" y="289.856"/><use href="#S" x="176.169" y="290.115"/><use href="#S" x="176.537" y="290.365"/><use href="#S" x="176.904" y="290.606"/><use href="#S" x="177.272" y="290.837"/><use href="#S" x="177.639" y="291.057"/><use href="#S" x="178.007" y="291.266"/><use href="#S" x="178.374" y="291.461"/><use href="#S" x="178.742" y="291.642"/><use href="#S" x="179.109" y="291.809"/><use href="#S" x="179.476" y="291.958"/><use href="#S" x="179.844" y="292.09"/><use href="#S" x="180.211" y="292.203"/><use href="#S" x="180.579" y="292.297"/><use href="#S" x="180.946" y="292.37"/><use href="#S" x="181.314" y="292.421"/><use href="#S" x="181.681" y="292.45"/><use href="#S" x="182.049" y="292.457"/><use href="#S" x="182.416" y="292.441"/><use href="#S" x="182.784" y="292.404"/><use href="#S" x="183.151" y="292.344"/><use href="#S" x="183.519" y="292.263"/><use href="#S" x="183.886" y="292.162"/><use href="#S" x="184.254" y="292.041"/><use href="#S" x="184.621" y="291.902"/><use href="#S" x="184.989" y="291.746"/><use href="#S" x="185.356" y="291.574"/><use href="#S" x="185.724" y="291.387"/><use href="#S" x="186.091" y="291.187"/><use href="#S" x="186.459" y="290.974"/><use href="#S" x="186.826" y="290.749"/><use href="#S" x="187.194" y="290.514"/><use href="#S" x="187.561" y="290.269"/><use href="#S" x="187.929" y="290.016"/><use href="#S" x="188.296" y="289.754"/><use href="#S" x="188.664" y="289.486"/><use href="#S" x="189.031" y="289.21"/><use href="#S" x="189.399" y="288.929"/><use href="#S" x="189.766" y="288.642"/><use href="#S" x="190.134" y="288.35"/><use href="#S" x="190.501" y="288.053"/><use href="#S" x="190.868" y="287.752"/><use href="#S" x="191.236" y="287.447"/><use href="#S" x="191.603" y="287.139"/><use href="#S" x="191.971" y="286.827"/><use href="#S" x="192.338" y="286.512"/><use href="#S" x="192.706" y="286.195"/><use href="#S" x="193.073" y="285.875"/><use href="#S" x="193.441" y="285.552"/><use href="#S" x="193.808" y="285.227"/><use href="#S" x="194.176" y="284.901"/><use href="#S" x="194.543" y="284.572"/><use href="#S" x="194.911" y="284.241"/><use href="#S" x="195.278" y="283.909"/><use href="#S" x="195.646" y="283.575"/><use href="#S" x="196.013" y="283.24"/><use href="#S" x="196.381" y="282.904"/><use href="#S" x="196.748" y="282.566"/><use href="#S" x="197.116" y="282.227"/><use href="#S" x="197.483" y="281.887"/><use href="#S" x="197.851" y="281.546"/><use href="#S" x="198.218" y="281.204"/><use href="#S" x="198.586" y="280.861"/><use href="#S" x="198.953" y="280.517"/><use href="#S" x="199.321" y="280.172"/><use href="#S" x="199.688" y="279.827"/><use href="#S" x="200.056" y="279.481"/><use href="#S" x="200.423" y="279.134"/><use href="#S" x="200.791" y="278.786"/><use href="#S" x="201.158" y="278.438"/><use href="#S" x="201.526" y="278.089"/><use href="#S" x="201.893" y="277.74"/><use href="#S" x="202.261" y="277.39"/><use href="#S" x="202.628" y="277.04"/><use href="#S" x="202.995" y="276.689"/><use href="#S" x="203.363" y="276.338"/><use href="#S" x="203.73" y="275.986"/><use href="#S" x="204.098" y="275.634"/><use href="#S" x="204.465" y="275.281"/><use href="#S" x="204.833" y="274.928"/><use href="#S" x="205.2" y="274.575"/><use href="#S" x="205.568" y="274.221"/><use href="#S" x="205.935" y="273.867"/><use href="#S" x="206.303" y="273.513"/><use href="#S" x="206.67" y="273.159"/><use href="#S" x="207.038" y="272.804"/><use href="#S" x="207.405" y="272.449"/><use href="#S" x="207.773" y="272.093"/><use href="#S" x="208.14" y="271.737"/><use href="#S" x="208.508" y="271.381"/><use href="#S" x="208.875" y="271.025"/><use href="#S" x="209.243" y="270.669"/><use href="#S" x="209.61" y="270.312"/><use href="#S" x="209.978" y="269.955"/><use href="#S" x="210.345" y="269.598"/><use href="#S" x="210.713" y="269.241"/><use href="#S" x="211.08" y="268.884"/><use href="#S" x="211.448" y="268.526"/><use href="#S" x="211.815" y="268.168"/><use href="#S" x="212.183" y="267.81"/><use href="#S" x="212.55" y="267.452"/><use href="#S" x="212.918" y="267.094"/><use href="#S" x="213.285" y="266.736"/><use href="#S" x="213.653" y="266.377"/><use href="#S" x="214.02" y="266.018"/><use href="#S" x="214.387" y="265.659"/><use href="#S" x="214.755" y="265.3"/><use href="#S" x="215.122" y="264.941"/><use href="#S" x="215.49" y="264.582"/><use href="#S" x="215.857" y="264.223"/><use href="#S" x="216.225" y="263.863"/><use href="#S" x="216.592" y="263.504"/><use href="#S" x="216.96" y="263.144"/><use href="#S" x="217.327" y="262.784"/><use href="#S" x="217.695" y="262.424"/><use href="#S" x="218.062" y="262.064"/><use href="#S" x="218.43" y="261.704"/><use href="#S" x="218.797" y="261.344"/><use href="#S" x="219.165" y="260.983"/><use href="#S" x="219.532" y="260.623"/><use href="#S" x="219.9" y="260.263"/><use href="#S" x="220.267" y="259.902"/><use href="#S" x="220.635" y="259.541"/><use href="#S" x="221.002" y="259.181"/><use href="#S" x="221.37" y="258.82"/><use href="#S" x="221.737" y="258.459"/><use href="#S" x="222.105" y="258.098"/><use href="#S" x="222.472" y="257.737"/><use href="#S" x="222.84" y="257.376"/><use href="#S" x="223.207" y="257.015"/><use href="#S" x="223.575" y="256.653"/><use href="#S" x="223.942" y="256.292"/><use href="#S" x="224.31" y="255.931"/><use href="#S" x="224.677" y="255.569"/><use href="#S" x="225.045" y="255.208"/><use href="#S" x="225.412" y="254.846"/><use href="#S" x="225.779" y="254.485"/><use href="#S" x="226.147" y="254.123"/><use href="#S" x="226.514" y="253.761"/><use href="#S" x="226.882" y="253.4"/><use href="#S" x="227.249" y="253.038"/><use href="#S" x="227.617" y="252.676"/><use href="#S" x="227.984" y="252.314"/><use href="#S" x="228.352" y="251.952"/><use href="#S" x="228.719" y="251.59"/><use href="#S" x="229.087" y="251.228"/><use href="#S" x="229.454" y="250.866"/><use href="#S" x="229.822" y="250.504"/><use href="#S" x="230.189" y="250.141"/><use href="#S" x="230.557" y="249.779"/><use href="#S" x="230.924" y="249.417"/><use href="#S" x="231.292" y="249.055"/><use href="#S" x="231.659" y="248.692"/><use href="#S" x="232.027" y="248.33"/><use href="#S" x="232.394" y="247.968"/><use href="#S" x="232.762" y="247.605"/><use href="#S" x="233.129" y="247.243"/><use href="#S" x="233.497" y="246.88"/><use href="#S" x="233.864" y="246.518"/><use href="#S" x="234.232" y="246.155"/><use href="#S" x="234.599" y="245.792"/><use href="#S" x="234.967" y="245.43"/><use href="#S" x="235.334" y="245.067"/><use href="#S" x="235.702" y="244.704"/><use href="#S" x="236.069" y="244.341"/><use href="#S" x="236.437" y="243.979"/><use href="#S" x="236.804" y="243.616"/><use href="#S" x="237.172" y="243.253"/><use href="#S" x="237.539" y="242.89"/><use href="#S" x="237.906" y="242.527"/><use href="#S" x="238.274" y="242.164"/><use href="#S" x="238.641" y="241.801"/><use href="#S" x="239.009" y="241.438"/><use href="#S" x="239.376" y="241.075"/><use href="#S" x="239.744" y="240.712"/><use href="#S" x="240.111" y="240.349"/><use href="#S" x="240.479" y="239.986"/><use href="#S" x="240.846" y="239.623"/><use href="#S" x="241.214" y="239.26"/><use href="#S" x="241.581" y="238.897"/><use href="#S" x="241.949" y="238.534"/><use href="#S" x="242.316" y="238.171"/><use href="#S" x="242.684" y="237.807"/><use href="#S" x="243.051" y="237.444"/><use href="#S" x="243.419" y="237.081"/><use href="#S" x="243.786" y="236.718"/><use href="#S" x="244.154" y="236.354"/><use href="#S" x="244.521" y="235.991"/><use href="#S" x="244.889" y="235.628"/><use href="#S" x="245.256" y="235.264"/><use href="#S" x="245.624" y="234.901"/><use href="#S" x="245.991" y="234.538"/><use href="#S" x="246.359" y="234.174"/><use href="#S" x="246.726" y="233.811"/><use href="#S" x="247.094" y="233.447"/><use href="#S" x="247.461" y="233.084"/><use href="#S" x="247.829" y="232.72"/><use href="#S" x="248.196" y="232.357"/><use href="#S" x="248.564" y="231.993"/><use href="#S" x="248.931" y="231.63"/><use href="#S" x="249.298" y="231.266"/><use href="#S" x="249.666" y="230.903"/><use href="#S" x="250.033" y="230.539"/><use href="#S" x="250.401" y="230.176"/><use href="#S" x="250.768" y="229.812"/><use href="#S" x="251.136" y="229.448"/><use href="#S" x="251.503" y="229.085"/><use href="#S" x="251.871" y="228.721"/><use href="#S" x="252.238" y="228.357"/><use href="#S" x="252.606" y="227.994"/><use href="#S" x="252.973" y="227.63"/><use href="#S" x="253.341" y="227.266"/><use href="#S" x="253.708" y="226.903"/><use href="#S" x="254.076" y="226.539"/><use href="#S" x="254.443" y="226.175"/><use href="#S" x="254.811" y="225.811"/><use href="#S" x="255.178" y="225.448"/><use href="#S" x="255.546" y="225.084"/><use href="#S" x="255.913" y="224.72"/><use href="#S" x="256.281" y="224.356"/><use href="#S" x="256.648" y="223.993"/><use href="#S" x="257.016" y="223.629"/><use href="#S" x="257.383" y="223.265"/><use href="#S" x="257.751" y="222.901"/><use href="#S" x="258.118" y="222.537"/><use href="#S" x="258.486" y="222.173"/><use href="#S" x="258.853" y="221.809"/><use href="#S" x="259.221" y="221.446"/><use href="#S" x="259.588" y="221.082"/><use href="#S" x="259.956" y="220.718"/><use href="#S" x="260.323" y="220.354"/><use href="#S" x="260.691" y="219.99"/><use href="#S" x="261.058" y="219.626"/><use href="#S" x="261.425" y="219.262"/><use href="#S" x="261.793" y="218.898"/><use href="#S" x="262.16" y="218.534"/><use href="#S" x="262.528" y="218.17"/><use href="#S" x="262.895" y="217.806"/><use href="#S" x="263.263" y="217.442"/><use href="#S" x="263.63" y="217.078"/><use href="#S" x="263.998" y="216.714"/><use href="#S" x="264.365" y="216.35"/><use href="#S" x="264.733" y="215.986"/><use href="#S" x="265.1" y="215.622"/><use href="#S" x="265.468" y="215.258"/><use href="#S" x="265.835" y="214.894"/><use href="#S" x="266.203" y="214.53"/><use href="#S" x="266.57" y="214.166"/><use href="#S" x="266.938" y="213.802"/><use href="#S" x="267.305" y="213.438"/><use href="#S" x="267.673" y="213.074"/><use href="#S" x="268.04" y="212.71"/><use href="#S" x="268.408" y="212.346"/><use href="#S" x="268.775" y="211.981"/><use href="#S" x="269.143" y="211.617"/><use href="#S" x="269.51" y="211.253"/><use href="#S" x="269.878" y="210.889"/><use href="#S" x="270.245" y="210.525"/><use href="#S" x="270.613" y="210.161"/><use href="#S" x="270.98" y="209.797"/><use href="#S" x="271.348" y="209.432"/><use href="#S" x="271.715" y="209.068"/><use href="#S" x="272.083" y="208.704"/><use href="#S" x="272.45" y="208.34"/><use href="#S" x="272.817" y="207.976"/><use href="#S" x="273.185" y="207.612"/><use href="#S" x="273.552" y="207.247"/><use href="#S" x="273.92" y="206.883"/><use href="#S" x="274.287" y="206.519"/><use href="#S" x="274.655" y="206.155"/><use href="#S" x="275.022" y="205.791"/><use href="#S" x="275.39" y="205.426"/><use href="#S" x="275.757" y="205.062"/><use href="#S" x="276.125" y="204.698"/><use href="#S" x="276.492" y="204.334"/><use href="#S" x="276.86" y="203.969"/><use href="#S" x="277.227" y="203.605"/><use href="#S" x="277.595" y="203.241"/><use href="#S" x="277.962" y="202.877"/><use href="#S" x="278.33" y="202.512"/><use href="#S" x="278.697" y="202.148"/><use href="#S" x="279.065" y="201.784"/><use href="#S" x="279.432" y="201.419"/><use href="#S" x="279.8" y="201.055"/><use href="#S" x="280.167" y="200.691"/><use href="#S" x="280.535" y="200.327"/><use href="#S" x="280.902" y="199.962"/><use href="#S" x="281.27" y="199.598"/><use href="#S" x="281.637" y="199.234"/><use href="#S" x="282.005" y="198.869"/><use href="#S" x="282.372" y="198.505"/><use href="#S" x="282.74" y="198.141"/><use href="#S" x="283.107" y="197.776"/><use href="#S" x="283.475" y="197.412"/><use href="#S" x="283.842" y="197.048"/><use href="#S" x="284.209" y="196.683"/><use href="#S" x="284.577" y="196.319"/><use href="#S" x="284.944" y="195.955"/><use href="#S" x="285.312" y="195.59"/><use href="#S" x="285.679" y="195.226"/><use href="#S" x="286.047" y="194.861"/><use href="#S" x="286.414" y="194.497"/><use href="#S" x="286.782" y="194.133"/><use href="#S" x="287.149" y="193.768"/><use href="#S" x="287.517" y="193.404"/><use href="#S" x="287.884" y="193.04"/><use href="#S" x="288.252" y="192.675"/><use href="#S" x="288.619" y="192.311"/><use href="#S" x="288.987" y="191.946"/><use href="#S" x="289.354" y="191.582"/><use href="#S" x="289.722" y="191.218"/><use href="#S" x="290.089" y="190.853"/><use href="#S" x="290.457" y="190.489"/><use href="#S" x="290.824" y="190.124"/><use href="#S" x="291.192" y="189.76"/><use href="#S" x="291.559" y="189.395"/><use href="#S" x="291.927" y="189.031"/><use href="#S" x="292.294" y="188.667"/><use href="#S" x="292.662" y="188.302"/><use href="#S" x="293.029" y="187.938"/><use href="#S" x="293.397" y="187.573"/><use href="#S" x="293.764" y="187.209"/><use href="#S" x="294.132" y="186.844"/><use href="#S" x="294.499" y="186.48"/><use href="#S" x="294.867" y="186.115"/><use href="#S" x="295.234" y="185.751"/><use href="#S" x="295.602" y="185.386"/><use href="#S" x="295.969" y="185.022"/><use href="#S" x="296.336" y="184.657"/><use href="#S" x="296.704" y="184.293"/><use href="#S" x="297.071" y="183.929"/><use href="#S" x="297.439" y="183.564"/><use href="#S" x="297.806" y="183.2"/><use href="#S" x="298.174" y="182.835"/><use href="#S" x="298.541" y="182.471"/><use href="#S" x="298.909" y="182.106"/><use href="#S" x="299.276" y="181.742"/><use href="#S" x="299.644" y="181.377"/><use href="#S" x="300.011" y="181.013"/><use href="#S" x="300.379" y="180.648"/><use href="#S" x="300.746" y="180.284"/><use href="#S" x="301.114" y="179.919"/><use href="#S" x="301.481" y="179.554"/><use href="#S" x="301.849" y="179.19"/><use href="#S" x="302.216" y="178.825"/><use href="#S" x="302.584" y="178.461"/><use href="#S" x="302.951" y="178.096"/><use href="#S" x="303.319" y="177.732"/><use href="#S" x="303.686" y="177.367"/><use href="#S" x="304.054" y="177.003"/><use href="#S" x="304.421" y="176.638"/><use href="#S" x="304.789" y="176.274"/><use href="#S" x="305.156" y="175.909"/><use href="#S" x="305.524" y="175.545"/><use href="#S" x="305.891" y="175.18"/><use href="#S" x="306.259" y="174.816"/><use href="#S" x="306.626" y="174.451"/><use href="#S" x="306.994" y="174.086"/><use href="#S" x="307.361" y="173.722"/><use href="#S" x="307.728" y="173.357"/><use href="#S" x="308.096" y="172.993"/><use href="#S" x="308.463" y="172.628"/><use href="#S" x="308.831" y="172.264"/><use href="#S" x="309.198" y="171.899"/><use href="#S" x="309.566" y="171.534"/><use href="#S" x="309.933" y="171.17"/><use href="#S" x="310.301" y="170.805"/><use href="#S" x="310.668" y="170.441"/><use href="#S" x="311.036" y="170.076"/><use href="#S" x="311.403" y="169.712"/><use href="#S" x="311.771" y="169.347"/><use href="#S" x="312.138" y="168.982"/><use href="#S" x="312.506" y="168.618"/><use href="#S" x="312.873" y="168.253"/><use href="#S" x="313.241" y="167.889"/><use href="#S" x="313.608" y="167.524"/><use href="#S" x="313.976" y="167.159"/><use href="#S" x="314.343" y="166.795"/><use href="#S" x="314.711" y="166.43"/><use href="#S" x="315.078" y="166.066"/><use href="#S" x="315.446" y="165.701"/><use href="#S" x="315.813" y="165.336"/><use href="#S" x="316.181" y="164.972"/><use href="#S" x="316.548" y="164.607"/><use href="#S" x="316.916" y="164.243"/><use href="#S" x="317.283" y="163.878"/><use href="#S" x="317.651" y="163.513"/><use href="#S" x="318.018" y="163.149"/><use href="#S" x="318.386" y="162.784"/><use href="#S" x="318.753" y="162.419"/><use href="#S" x="319.12" y="162.055"/><use href="#S" x="319.488" y="161.69"/><use href="#S" x="319.855" y="161.326"/><use href="#S" x="320.223" y="160.961"/><use href="#S" x="320.59" y="160.596"/><use href="#S" x="320.958" y="160.232"/><use href="#S" x="321.325" y="159.867"/><use href="#S" x="321.693" y="159.502"/><use href="#S" x="322.06" y="159.138"/><use href="#S" x="322.428" y="158.773"/><use href="#S" x="322.795" y="158.408"/><use href="#S" x="323.163" y="158.044"/><use href="#S" x="323.53" y="157.679"/><use href="#S" x="323.898" y="157.314"/><use href="#S" x="324.265" y="156.95"/><use href="#S" x="324.633" y="156.585"/><use href="#S" x="325" y="156.221"/><use href="#S" x="325.368" y="155.856"/><use href="#S" x="325.735" y="155.491"/><use href="#S" x="326.103" y="155.127"/><use href="#S" x="326.47" y="154.762"/><use href="#S" x="326.838" y="154.397"/><use href="#S" x="327.205" y="154.033"/><use href="#S" x="327.573" y="153.668"/><use href="#S" x="327.94" y="153.303"/><use href="#S" x="328.308" y="152.939"/><use href="#S" x="328.675" y="152.574"/><use href="#S" x="329.043" y="152.209"/><use href="#S" x="329.41" y="151.845"/><use href="#S" x="329.778" y="151.48"/><use href="#S" x="330.145" y="151.115"/><use href="#S" x="330.513" y="150.75"/><use href="#S" x="330.88" y="150.386"/><use href="#S" x="331.247" y="150.021"/><use href="#S" x="331.615" y="149.656"/><use href="#S" x="331.982" y="149.292"/><use href="#S" x="332.35" y="148.927"/><use href="#S" x="332.717" y="148.562"/><use href="#S" x="333.085" y="148.198"/><use href="#S" x="333.452" y="147.833"/><use href="#S" x="333.82" y="147.468"/><use href="#S" x="334.187" y="147.104"/><use href="#S" x="334.555" y="146.739"/><use href="#S" x="334.922" y="146.374"/><use href="#S" x="335.29" y="146.01"/><use href="#S" x="335.657" y="145.645"/><use href="#S" x="336.025" y="145.28"/><use href="#S" x="336.392" y="144.915"/><use href="#S" x="336.76" y="144.551"/><use href="#S" x="337.127" y="144.186"/><use href="#S" x="337.495" y="143.821"/><use href="#S" x="337.862" y="143.457"/><use href="#S" x="338.23" y="143.092"/><use href="#S" x="338.597" y="142.727"/><use href="#S" x="338.965" y="142.363"/><use href="#S" x="339.332" y="141.998"/><use href="#S" x="339.7" y="141.633"/><use href="#S" x="340.067" y="141.268"/><use href="#S" x="340.435" y="140.904"/><use href="#S" x="340.802" y="140.539"/><use href="#S" x="341.17" y="140.174"/><use href="#S" x="341.537" y="139.81"/><use href="#S" x="341.905" y="139.445"/><use href="#S" x="342.272" y="139.08"/><use href="#S" x="342.639" y="138.715"/><use href="#S" x="343.007" y="138.351"/><use href="#S" x="343.374" y="137.986"/><use href="#S" x="343.742" y="137.621"/><use href="#S" x="344.109" y="137.256"/><use href="#S" x="344.477" y="136.892"/><use href="#S" x="344.844" y="136.527"/><use href="#S" x="345.212" y="136.162"/><use href="#S" x="345.579" y="135.798"/><use href="#S" x="345.947" y="135.433"/><use href="#S" x="346.314" y="135.068"/><use href="#S" x="346.682" y="134.703"/><use href="#S" x="347.049" y="134.339"/><use href="#S" x="347.417" y="133.974"/><use href="#S" x="347.784" y="133.609"/><use href="#S" x="348.152" y="133.244"/><use href="#S" x="348.519" y="132.88"/><use href="#S" x="348.887" y="132.515"/><use href="#S" x="349.254" y="132.15"/><use href="#S" x="349.622" y="131.785"/><use href="#S" x="349.989" y="131.421"/><use href="#S" x="350.357" y="131.056"/><use href="#S" x="350.724" y="130.691"/><use href="#S" x="351.092" y="130.326"/><use href="#S" x="351.459" y="129.962"/><use href="#S" x="351.827" y="129.597"/><use href="#S" x="352.194" y="129.232"/><use href="#S" x="352.562" y="128.867"/><use href="#S" x="352.929" y="128.503"/><use href="#S" x="353.297" y="128.138"/><use href="#S" x="353.664" y="127.773"/><use href="#S" x="354.031" y="127.408"/><use href="#S" x="354.399" y="127.044"/><use href="#S" x="354.766" y="126.679"/><use href="#S" x="355.134" y="126.314"/><use href="#S" x="355.501" y="125.949"/><use href="#S" x="355.869" y="125.585"/><use href="#S" x="356.236" y="125.22"/><use href="#S" x="356.604" y="124.855"/><use href="#S" x="356.971" y="124.49"/><use href="#S" x="357.339" y="124.126"/><use href="#S" x="357.706" y="123.761"/><use href="#S" x="358.074" y="123.396"/><use href="#S" x="358.441" y="123.031"/><use href="#S" x="358.809" y="122.667"/><use href="#S" x="359.176" y="122.302"/><use href="#S" x="359.544" y="121.937"/><use href="#S" x="359.911" y="121.572"/><use href="#S" x="360.279" y="121.207"/><use href="#S" x="360.646" y="120.843"/><use href="#S" x="361.014" y="120.478"/><use href="#S" x="361.381" y="120.113"/><use href="#S" x="361.749" y="119.748"/><use href="#S" x="362.116" y="119.384"/><use href="#S" x="362.484" y="119.019"/><use href="#S" x="362.851" y="118.654"/><use href="#S" x="363.219" y="118.289"/><use href="#S" x="363.586" y="117.925"/><use href="#S" x="363.954" y="117.56"/><use href="#S" x="364.321" y="117.195"/><use href="#S" x="364.689" y="116.83"/><use href="#S" x="365.056" y="116.465"/><use href="#S" x="365.424" y="116.101"/><use href="#S" x="365.791" y="115.736"/><use href="#S" x="366.158" y="115.371"/><use href="#S" x="366.526" y="115.006"/><use href="#S" x="366.893" y="114.642"/><use href="#S" x="367.261" y="114.277"/><use href="#S" x="367.628" y="113.912"/><use href="#S" x="367.996" y="113.547"/><use href="#S" x="368.363" y="113.182"/><use href="#S" x="368.731" y="112.818"/><use href="#S" x="369.098" y="112.453"/><use href="#S" x="369.466" y="112.088"/><use href="#S" x="369.833" y="111.723"/><use href="#S" x="370.201" y="111.358"/><use href="#S" x="370.568" y="110.994"/><use href="#S" x="370.936" y="110.629"/><use href="#S" x="371.303" y="110.264"/><use href="#S" x="371.671" y="109.899"/><use href="#S" x="372.038" y="109.534"/><use href="#S" x="372.406" y="109.17"/><use href="#S" x="372.773" y="108.805"/><use href="#S" x="373.141" y="108.44"/><use href="#S" x="373.508" y="108.075"/><use href="#S" x="373.876" y="107.711"/><use href="#S" x="374.243" y="107.346"/><use href="#S" x="374.611" y="106.981"/><use href="#S" x="374.978" y="106.616"/><use href="#S" x="375.346" y="106.251"/><use href="#S" x="375.713" y="105.887"/><use href="#S" x="376.081" y="105.522"/><use href="#S" x="376.448" y="105.157"/><use href="#S" x="376.816" y="104.792"/><use href="#S" x="377.183" y="104.427"/><use href="#S" x="377.55" y="104.062"/><use href="#S" x="377.918" y="103.698"/><use href="#S" x="378.285" y="103.333"/><use href="#S" x="378.653" y="102.968"/><use href="#S" x="379.02" y="102.603"/><use href="#S" x="379.388" y="102.238"/><use href="#S" x="379.755" y="101.874"/><use href="#S" x="380.123" y="101.509"/><use href="#S" x="380.49" y="101.144"/><use href="#S" x="380.858" y="100.779"/><use href="#S" x="381.225" y="100.414"/><use href="#S" x="381.593" y="100.05"/><use href="#S" x="381.96" y="99.685"/><use href="#S" x="382.328" y="99.32"/><use href="#S" x="382.695" y="98.955"/><use href="#S" x="383.063" y="98.59"/><use href="#S" x="383.43" y="98.226"/><use href="#S" x="383.798" y="97.861"/><use href="#S" x="384.165" y="97.496"/><use href="#S" x="384.533" y="97.131"/><use href="#S" x="384.9" y="96.766"/><use href="#S" x="385.268" y="96.401"/><use href="#S" x="385.635" y="96.037"/><use href="#S" x="386.003" y="95.672"/><use href="#S" x="386.37" y="95.307"/><use href="#S" x="386.738" y="94.942"/><use href="#S" x="387.105" y="94.577"/><use href="#S" x="387.473" y="94.213"/><use href="#S" x="387.84" y="93.848"/><use href="#S" x="388.208" y="93.483"/><use href="#S" x="388.575" y="93.118"/><use href="#S" x="388.942" y="92.753"/><use href="#S" x="389.31" y="92.388"/><use href="#S" x="389.677" y="92.024"/><use href="#S" x="390.045" y="91.659"/><use href="#S" x="390.412" y="91.294"/><use href="#S" x="390.78" y="90.929"/><use href="#S" x="391.147" y="90.564"/><use href="#S" x="391.515" y="90.2"/><use href="#S" x="391.882" y="89.835"/><use href="#S" x="392.25" y="89.47"/><use href="#S" x="392.617" y="89.105"/><use href="#S" x="392.985" y="88.74"/><use href="#S" x="393.352" y="88.375"/><use href="#S" x="393.72" y="88.011"/><use href="#S" x="394.087" y="87.646"/><use href="#S" x="394.455" y="87.281"/><use href="#S" x="394.822" y="86.916"/><use href="#S" x="395.19" y="86.551"/><use href="#S" x="395.557" y="86.186"/><use href="#S" x="395.925" y="85.822"/><use href="#S" x="396.292" y="85.457"/><use href="#S" x="396.66" y="85.092"/><use href="#S" x="397.027" y="84.727"/><use href="#S" x="397.395" y="84.362"/><use href="#S" x="397.762" y="83.997"/><use href="#S" x="398.13" y="83.633"/><use href="#S" x="398.497" y="83.268"/><use href="#S" x="398.865" y="82.903"/><use href="#S" x="399.232" y="82.538"/><use href="#S" x="399.6" y="82.173"/><use href="#S" x="399.967" y="81.808"/><use href="#S" x="400.335" y="81.444"/><use href="#S" x="400.702" y="81.079"/><use href="#S" x="401.069" y="80.714"/><use href="#S" x="401.437" y="80.349"/><use href="#S" x="401.804" y="79.984"/><use href="#S" x="402.172" y="79.619"/><use href="#S" x="402.539" y="79.255"/><use href="#S" x="402.907" y="78.89"/><use href="#S" x="403.274" y="78.525"/><use href="#S" x="403.642" y="78.16"/><use href="#S" x="404.009" y="77.795"/><use href="#S" x="404.377" y="77.43"/><use href="#S" x="404.744" y="77.065"/><use href="#S" x="405.112" y="76.701"/><use href="#S" x="405.479" y="76.336"/><use href="#S" x="405.847" y="75.971"/><use href="#S" x="406.214" y="75.606"/><use href="#S" x="406.582" y="75.241"/><use href="#S" x="406.949" y="74.876"/><use href="#S" x="407.317" y="74.512"/><use href="#S" x="407.684" y="74.147"/><use href="#S" x="408.052" y="73.782"/><use href="#S" x="408.419" y="73.417"/><use href="#S" x="408.787" y="73.052"/><use href="#S" x="409.154" y="72.687"/><use href="#S" x="409.522" y="72.322"/><use href="#S" x="409.889" y="71.958"/><use href="#S" x="410.257" y="71.593"/><use href="#S" x="410.624" y="71.228"/><use href="#S" x="410.992" y="70.863"/><use href="#S" x="411.359" y="70.498"/><use href="#S" x="411.727" y="70.133"/><use href="#S" x="412.094" y="69.769"/><use href="#S" x="412.461" y="69.404"/><use href="#S" x="412.829" y="69.039"/><use href="#S" x="413.196" y="68.674"/><use href="#S" x="413.564" y="68.309"/><use href="#S" x="413.931" y="67.944"/><use href="#S" x="414.299" y="67.579"/><use href="#S" x="414.666" y="67.215"/><use href="#S" x="415.034" y="66.85"/><use href="#S" x="415.401" y="66.485"/><use href="#S" x="415.769" y="66.12"/><use href="#S" x="416.136" y="65.755"/><use href="#S" x="416.504" y="65.39"/><use href="#S" x="416.871" y="65.025"/><use href="#S" x="417.239" y="64.661"/><use href="#S" x="417.606" y="64.296"/><use href="#S" x="417.974" y="63.931"/><use href="#S" x="418.341" y="63.566"/><use href="#S" x="418.709" y="63.201"/><use href="#S" x="419.076" y="62.836"/><use href="#S" x="419.444" y="62.471"/><use href="#S" x="419.811" y="62.107"/><use href="#S" x="420.179" y="61.742"/><use href="#S" x="420.546" y="61.377"/><use href="#S" x="420.914" y="61.012"/><use href="#S" x="421.281" y="60.647"/><use href="#S" x="421.649" y="60.282"/><use href="#S" x="422.016" y="59.917"/><use href="#S" x="422.384" y="59.553"/><use href="#S" x="422.751" y="59.188"/><use href="#S" x="423.119" y="58.823"/><use href="#S" x="423.486" y="58.458"/><use href="#S" x="423.853" y="58.093"/><use href="#S" x="424.221" y="57.728"/><use href="#S" x="424.588" y="57.363"/><use href="#S" x="424.956" y="56.999"/><use href="#S" x="425.323" y="56.634"/><use href="#S" x="425.691" y="56.269"/><use href="#S" x="426.058" y="55.904"/><use href="#S" x="426.426" y="55.539"/><use href="#S" x="426.793" y="55.174"/><use href="#S" x="427.161" y="54.809"/><use href="#S" x="427.528" y="54.444"/><use href="#S" x="427.896" y="54.08"/><use href="#S" x="428.263" y="53.715"/><use href="#S" x="428.631" y="53.35"/><use href="#S" x="428.998" y="52.985"/><use href="#S" x="429.366" y="52.62"/><use href="#S" x="429.733" y="52.255"/><use href="#S" x="430.101" y="51.89"/><use href="#S" x="430.468" y="51.526"/><use href="#S" x="430.836" y="51.161"/><use href="#S" x="431.203" y="50.796"/></g><g class="E"><g stroke="#bfbf00" class="L M"><path d="M181.978 304.54V38.713" class="D"/><path d="M36.47 292.457H450" class="D"/></g><g class="C J K"><path d="M36.47 304.54V38.713M450 304.54V38.713M36.47 304.54H450"/><path d="M36.47 38.713H450"/></g></g><g class="B"><g transform="matrix(.12 0 0 -.12 165.059687 20.273625)"><defs><path id="T" d="M102 4237h1658q909 0 1389-403 320-269 320-762 0-512-365-838-269-244-551-318-281-73-819-73-185 0-441 19V717q0-365 105-471 106-105 496-124V0H102v122q372 25 455 134 83 109 83 525v2745q0 359-93 461-93 103-445 128v122zm1191-467V2118q217-19 390-19 519 0 803 253 285 253 285 688 0 518-295 739-294 221-959 221-135 0-180-48-44-48-44-182z" transform="scale(.015625)"/><path id="U" d="M4461 4237v-122q-199-6-327-125-128-118-262-457L2451-70h-96L794 3411q-205 455-327 576-121 122-365 128v122h1696v-122l-179-13q-288-19-288-198 0-128 250-685l973-2189 940 2362q122 307 122 461 0 45-10 80-9 35-22 60-13 26-48 45-35 20-55 29-19 10-70 19-51 10-74 13-22 3-89 9-67 7-93 7v122h1306z" transform="scale(.015625)"/><path id="V" d="M2829 422V243Q2586-64 2253-64q-365 0-410 467h-6Q1427-64 909-64q-301 0-487 176-185 176-185 490 0 448 448 748 307 205 1152 519v345q0 288-138 432-137 144-361 144-192 0-320-93-128-92-128-220 0-58 19-129 19-70 19-140 0-96-87-179-86-83-207-83-109 0-193 83-83 83-83 211 0 307 327 512 301 192 736 192 518 0 755-288 115-134 147-272 32-138 32-438V723q0-422 199-422 128 0 275 121zm-992 391v902q-589-205-819-422-218-199-218-493 0-243 121-368 122-125 321-125 211 0 371 103 134 96 179 179 45 83 45 224z" transform="scale(.015625)"/><path id="W" d="M1024 2931v-589q243 346 406 474 164 128 362 128 166 0 259-90 93-89 93-249 0-135-67-212-67-76-183-76-121 0-256 128-102 96-166 96-134 0-291-186-157-185-157-339V576q0-275 109-371 109-96 435-109V0H32v96q307 58 380 128 74 70 74 314v1600q0 211-48 297-48 87-169 87-103 0-224-26v102q403 128 947 346l32-13z" transform="scale(.015625)"/><path id="X" d="M2611 1050l103-45Q2330-64 1376-64q-563 0-890 393-326 394-326 1060 0 685 365 1120 365 435 960 435 576 0 889-442 186-256 218-729H621q25-403 79-615 55-211 215-428 269-352 711-352 313 0 527 153 215 154 458 519zM634 1978h1305q-57 403-189 569-131 167-438 167-269 0-448-189-179-189-230-547z" transform="scale(.015625)"/><path id="Y" d="M3930 838l121-115Q3482-90 2304-90q-928 0-1510 570-615 602-615 1600 0 934 576 1581 602 665 1555 665 410 0 762-96 403-115 442-115 211 0 268 211h128l58-1452h-147q-103 460-333 710-454 486-1030 486-711 0-1124-522-412-521-412-1366 0-1030 460-1529 429-461 1140-461 422 0 729 147 307 147 679 499z" transform="scale(.015625)"/><path id="Z" d="M3494 3322h-160q-70 435-240 553-169 119-745 119h-845q-134 0-176-48-42-48-42-202V2355h909q403 0 541 115 138 116 182 493h148V1472h-148q-38 390-173 505-134 116-550 116h-909V717q0-365 106-471 106-105 477-124V0H70v122q365 25 464 137 100 112 100 528v2739q0 352-96 458-96 106-461 131v122h3385l32-915z" transform="scale(.015625)"/><path id="a" d="M3072 320v-90Q2573 96 2195-58l-32 20v524h-13Q1747-64 1235-64q-365 0-573 224-208 224-208 595v1607q0 236-83 326-83 90-313 102v90h934V813q0-218 131-362 131-144 323-144 314 0 538 199 83 76 115 143 32 68 32 228v1478q0 250-90 323-89 74-383 93v109h1011V685q0-224 73-295 74-70 292-70h38z" transform="scale(.015625)"/></defs><use href="#T"/><use href="#P" x="55.7"/><use href="#Q" x="105.7"/><use href="#J" x="144.6"/><use href="#R" x="172.4"/><use href="#J" x="200.2"/><use href="#P" x="228"/><use href="#K" x="278"/><use href="#Bu" x="328"/><use href="#U" x="353"/><use href="#V" x="425.2"/><use href="#W" x="469.6"/><use href="#J" x="502.9"/><use href="#V" x="530.7"/><use href="#K" x="575.1"/><use href="#O" x="625.1"/><use href="#X" x="669.5"/><use href="#Bu" x="713.9"/><use href="#Y" x="738.9"/><use href="#P" x="805.6"/><use href="#Q" x="855.6"/><use href="#R" x="894.5"/><use href="#Bu" x="922.3"/><use href="#Z" x="947.3"/><use href="#a" x="1002.9"/><use href="#K" x="1052.9"/><use href="#O" x="1102.9"/><use href="#R" x="1147.3"/><use href="#J" x="1175.1"/><use href="#P" x="1202.9"/><use href="#K" x="1252.9"/></g><g transform="matrix(.12 0 0 -.12 179.287187 32.71275)"><defs><path id="b" d="M5530 0H3738v122q377 25 476 143 100 119 100 522v2874L2682 0h-90L979 3514V966q0-518 109-672 109-153 486-172V0H77v122q281 19 403 83 122 64 170 227 48 163 48 534v2548q0 364-109 470-109 106-499 131v122h1267l1478-3213 1415 3213h1273v-122q-345-6-451-122-106-115-106-473V717q0-339 106-455 106-115 458-140V0z" transform="scale(.015625)"/><path id="c" d="M4077 2048H307v422h3770v-422zm0-1280H307v422h3770V768z" transform="scale(.015625)"/><path id="d" d="M1158 275q0-141-106-243Q947-70 800-70 653-70 550 32 448 134 448 281q0 148 105 253 106 106 253 106 141 0 246-109 106-109 106-256z" transform="scale(.015625)"/><path id="e" d="M2874 4134L1517-51h-416l1267 3814H992q-275 0-410-96-134-96-339-429l-115 58 384 941h2362v-103z" transform="scale(.015625)"/></defs><use href="#b"/><use href="#J" x="88.9"/><use href="#K" x="116.7"/><use href="#J" x="166.7"/><use href="#L" x="194.5"/><use href="#a" x="272.3"/><use href="#L" x="322.3"/><use href="#Bu" x="400.1"/><use href="#V" x="425.1"/><use href="#R" x="469.5"/><use href="#Bu" x="497.3"/><use href="#I" x="522.3"/><use href="#c" x="566.7"/><use href="#D" x="635.2"/><use href="#G" x="685.2"/><use href="#d" x="735.2"/><use href="#D" x="760.2"/><use href="#D" x="810.2"/><use href="#e" x="860.2"/><use href="#L" x="910.2"/><use href="#L" x="988"/></g></g><path d="M43.47 89.224h96.728q2 0 2-2V45.713q0-2-2-2H43.47q-2 0-2 2v41.511q0 2 2 2z" fill="#333" opacity=".8" stroke="#ccc"/><path d="M45.47 51.213h20" stroke="#8dd3c7" class="E J L"/><g transform="matrix(.1 0 0 -.1 73.47 54.71275)" class="B"><use href="#O"/><use href="#P" x="44.4"/><use href="#Q" x="94.4"/><use href="#R" x="133.3"/><use href="#Bu" x="161.1"/><use href="#X" x="186.1"/><use href="#Q" x="230.5"/><use href="#R" x="269.4"/><use href="#J" x="297.2"/><use href="#L" x="325"/><use href="#V" x="402.8"/><use href="#R" x="447.2"/><use href="#J" x="475"/><use href="#P" x="502.8"/><use href="#K" x="552.8"/></g><use href="#S" x="55.47" y="65.383" fill="red" stroke="red"/><g transform="matrix(.1 0 0 -.1 73.47 68.883062)" class="B"><defs><path id="f" d="M3053 2880v-96q-147-13-218-96-70-83-198-403L1818 230Q1690-90 1638-90q-51 0-115 167-13 19-26 64-12 45-25 70L704 2048q-205 486-301 604-96 119-281 132v96h1254v-96q-166-13-230-52-64-38-64-121 0-102 57-243l653-1638 634 1657q38 96 38 192 0 179-301 205v96h890z" transform="scale(.015625)"/><path id="g" d="M1645 0H134v96q301 26 397 125 96 99 96 368v3001q0 231-58 320-57 90-211 90-134 0-236-13v103q608 147 1011 281l32-25V557q0-269 89-356 90-86 391-105V0z" transform="scale(.015625)"/></defs><use href="#O"/><use href="#P" x="44.4"/><use href="#Q" x="94.4"/><use href="#R" x="133.3"/><use href="#Bu" x="161.1"/><use href="#f" x="186.1"/><use href="#V" x="236.1"/><use href="#g" x="280.5"/><use href="#a" x="308.3"/><use href="#X" x="358.3"/><use href="#Q" x="402.7"/></g><path d="M45.47 79.553h20" stroke="#bfbf00" class="E L M"/><g transform="matrix(.1 0 0 -.1 73.47 83.053375)" class="B"><defs><path id="h" d="M134 2880h525q7 384 51 598 45 215 173 432 269 461 903 461 288 0 476-112 189-112 189-285 0-108-77-185-76-77-192-77-153 0-288 230-153 250-339 250-358 0-358-570v-742h781v-205h-781V666q0-359 102-458 103-99 493-112V0H128v96q346 19 438 118 93 100 93 452v2009H134v205z" transform="scale(.015625)"/><path id="i" d="M3142 269L2202-64l-26 19v410Q1869-64 1357-64q-531 0-858 381-326 381-326 995 0 678 390 1155 391 477 941 477 346 0 672-275v998q0 199-58 263-57 64-236 64-90 0-141-7v103q582 153 941 281l32-13V730q0-224 54-295 54-70 227-70 39 0 147 6V269zm-966 384v1472q0 256-195 448-195 192-458 192-365 0-583-327-217-326-217-870 0-589 240-944 240-355 643-355 301 0 474 205 96 108 96 179z" transform="scale(.015625)"/></defs><use href="#h"/><use href="#P" x="33.3"/><use href="#a" x="83.3"/><use href="#K" x="133.3"/><use href="#i" x="183.3"/><use href="#Bu" x="233.3"/><use href="#L" x="258.3"/><use href="#J" x="336.1"/><use href="#K" x="363.9"/><use href="#J" x="413.9"/><use href="#L" x="441.7"/><use href="#a" x="519.5"/><use href="#L" x="569.5"/></g><defs><clipPath id="j"><path d="M36.47 38.713H450V304.54H36.47z"/></clipPath></defs></svg>