<?xml version="1.0" encoding="UTF-8" standalone="no"?>
<!DOCTYPE svg PUBLIC "-//W3C//DTD SVG 1.1//EN"
 "http://www.w3.org/Graphics/SVG/1.1/DTD/svg11.dtd">
<!-- Generated by graphviz version 2.50.0 (0)
 -->
<!-- Title: G Pages: 1 -->
<svg width="994pt" height="731pt"
 viewBox="0.00 0.00 993.83 730.56" xmlns="http://www.w3.org/2000/svg" xmlns:xlink="http://www.w3.org/1999/xlink">
<g id="graph0" class="graph" transform="scale(1 1) rotate(0) translate(4 726.56)">
<title>G</title><style>.edge>path:hover{stroke-width:8}</style>
<polygon fill="white" stroke="transparent" points="-4,4 -4,-726.56 989.83,-726.56 989.83,4 -4,4"/>
<!-- Backend -->
<g id="node1" class="node">
<title>Backend</title><style>.edge>path:hover{stroke-width:8}</style>
<ellipse fill="#9f0404" stroke="black" cx="339.17" cy="-18" rx="32.25" ry="18"/>
<text text-anchor="middle" x="339.17" y="-15.5" font-family="Helvetica,sans-Serif" font-size="10.00" fill="#ffffff">Backend</text>
</g>
<!-- Backend_Color -->
<g id="node2" class="node">
<title>Backend_Color</title><style>.edge>path:hover{stroke-width:8}</style>
<ellipse fill="#b62020" stroke="black" cx="434.17" cy="-406.92" rx="47.86" ry="18"/>
<text text-anchor="middle" x="434.17" y="-404.42" font-family="Helvetica,sans-Serif" font-size="10.00" fill="#ffffff">Backend.Color</text>
</g>
<!-- Backend_Filter -->
<g id="node4" class="node">
<title>Backend_Filter</title><style>.edge>path:hover{stroke-width:8}</style>
<ellipse fill="#ac2b2b" stroke="black" cx="889.17" cy="-250.07" rx="47.19" ry="18"/>
<text text-anchor="middle" x="889.17" y="-247.57" font-family="Helvetica,sans-Serif" font-size="10.00" fill="#ffffff">Backend.Filter</text>
</g>
<!-- Backend_Color&#45;&gt;Backend_Filter -->
<g id="edge1" class="edge">
<title>Backend_Color&#45;&gt;Backend_Filter</title><style>.edge>path:hover{stroke-width:8}</style>
<path fill="none" stroke="black" d="M473.77,-396.67C490.76,-392.91 510.88,-388.75 529.17,-385.71 660.77,-363.8 704.83,-402.89 827.17,-349.71 839.96,-344.15 840.59,-338.57 851.17,-329.49"/>
<path fill="none" stroke="black" d="M851.17,-327.49C866.27,-314.55 875.98,-294.19 881.8,-277.73"/>
<polygon fill="#b62020" stroke="black" points="885.17,-278.68 884.94,-268.09 878.51,-276.52 885.17,-278.68"/>
</g>
<!-- Backend_Image -->
<g id="node5" class="node">
<title>Backend_Image</title><style>.edge>path:hover{stroke-width:8}</style>
<ellipse fill="#ac2b2b" stroke="black" cx="134.17" cy="-328.49" rx="50.07" ry="18"/>
<text text-anchor="middle" x="134.17" y="-325.99" font-family="Helvetica,sans-Serif" font-size="10.00" fill="#ffffff">Backend.Image</text>
</g>
<!-- Backend_Color&#45;&gt;Backend_Image -->
<g id="edge2" class="edge">
<title>Backend_Color&#45;&gt;Backend_Image</title><style>.edge>path:hover{stroke-width:8}</style>
<path fill="none" stroke="black" d="M395.87,-396.16C341.82,-382.39 243.12,-357.25 183.6,-342.08"/>
<polygon fill="#b62020" stroke="black" points="184.23,-338.63 173.67,-339.56 182.5,-345.42 184.23,-338.63"/>
</g>
<!-- Backend_RaySource -->
<g id="node8" class="node">
<title>Backend_RaySource</title><style>.edge>path:hover{stroke-width:8}</style>
<ellipse fill="#821717" stroke="black" cx="358.17" cy="-250.07" rx="45.92" ry="21.43"/>
<text text-anchor="middle" x="358.17" y="-253.07" font-family="Helvetica,sans-Serif" font-size="10.00" fill="#ffffff">Backend.</text>
<text text-anchor="middle" x="358.17" y="-242.07" font-family="Helvetica,sans-Serif" font-size="10.00" fill="#ffffff">RaySource</text>
</g>
<!-- Backend_Color&#45;&gt;Backend_RaySource -->
<g id="edge3" class="edge">
<title>Backend_Color&#45;&gt;Backend_RaySource</title><style>.edge>path:hover{stroke-width:8}</style>
<path fill="none" stroke="black" d="M406.31,-392.15C384.62,-379.26 358.17,-357.75 358.17,-329.49"/>
</g>
<!-- Backend_Detector -->
<g id="node3" class="node">
<title>Backend_Detector</title><style>.edge>path:hover{stroke-width:8}</style>
<ellipse fill="#ac2b2b" stroke="black" cx="783.17" cy="-250.07" rx="41.02" ry="21.43"/>
<text text-anchor="middle" x="783.17" y="-253.07" font-family="Helvetica,sans-Serif" font-size="10.00" fill="#ffffff">Backend.</text>
<text text-anchor="middle" x="783.17" y="-242.07" font-family="Helvetica,sans-Serif" font-size="10.00" fill="#ffffff">Detector</text>
</g>
<!-- Backend_Detector&#45;&gt;Backend -->
<g id="edge4" class="edge">
<title>Backend_Detector&#45;&gt;Backend</title><style>.edge>path:hover{stroke-width:8}</style>
<path fill="none" stroke="black" d="M812.53,-235.05C844.57,-218.75 891.1,-191.66 889.17,-172.64"/>
</g>
<!-- Backend_Raytracer -->
<g id="node10" class="node">
<title>Backend_Raytracer</title><style>.edge>path:hover{stroke-width:8}</style>
<ellipse fill="#732626" stroke="black" cx="339.17" cy="-93.21" rx="41.94" ry="21.43"/>
<text text-anchor="middle" x="339.17" y="-96.21" font-family="Helvetica,sans-Serif" font-size="10.00" fill="#ffffff">Backend.</text>
<text text-anchor="middle" x="339.17" y="-85.21" font-family="Helvetica,sans-Serif" font-size="10.00" fill="#ffffff">Raytracer</text>
</g>
<!-- Backend_Detector&#45;&gt;Backend_Raytracer -->
<g id="edge5" class="edge">
<title>Backend_Detector&#45;&gt;Backend_Raytracer</title><style>.edge>path:hover{stroke-width:8}</style>
<path fill="none" stroke="black" d="M751.37,-236.41C744.72,-233.85 737.73,-231.22 731.17,-228.85 656.71,-202.01 632.53,-208.91 562.17,-172.64"/>
</g>
<!-- Backend_Filter&#45;&gt;Backend -->
<g id="edge6" class="edge">
<title>Backend_Filter&#45;&gt;Backend</title><style>.edge>path:hover{stroke-width:8}</style>
<path fill="none" stroke="black" d="M890.15,-232.02C890.81,-216.5 891.23,-192.97 889.17,-172.64"/>
</g>
<!-- Backend_Filter&#45;&gt;Backend_Raytracer -->
<g id="edge7" class="edge">
<title>Backend_Filter&#45;&gt;Backend_Raytracer</title><style>.edge>path:hover{stroke-width:8}</style>
<path fill="none" stroke="black" d="M856.4,-236.93C848.8,-234.2 840.73,-231.37 833.17,-228.85 719.86,-191.14 691.44,-181.65 576.17,-150.43 511.01,-132.78 434.96,-115.28 386.93,-104.61"/>
<polygon fill="#ac2b2b" stroke="black" points="387.64,-101.18 377.12,-102.44 386.13,-108.02 387.64,-101.18"/>
</g>
<!-- Backend_Image&#45;&gt;Backend -->
<g id="edge8" class="edge">
<title>Backend_Image&#45;&gt;Backend</title><style>.edge>path:hover{stroke-width:8}</style>
<path fill="none" stroke="black" d="M126.34,-310.55C112,-276.73 85.97,-199.88 120.17,-150.43 160.43,-92.21 221.68,-146.69 269.17,-94.21"/>
<path fill="none" stroke="black" d="M269.17,-92.21C284.24,-74.45 302.46,-55.46 316.53,-41.28"/>
<polygon fill="#ac2b2b" stroke="black" points="319.28,-43.48 323.88,-33.93 314.33,-38.53 319.28,-43.48"/>
</g>
<!-- Backend_Image&#45;&gt;Backend_Raytracer -->
<g id="edge9" class="edge">
<title>Backend_Image&#45;&gt;Backend_Raytracer</title><style>.edge>path:hover{stroke-width:8}</style>
<path fill="none" stroke="black" d="M131.17,-310.31C129.09,-294.5 127.74,-270.6 134.17,-251.07"/>
</g>
<!-- Backend_Lens -->
<g id="node6" class="node">
<title>Backend_Lens</title><style>.edge>path:hover{stroke-width:8}</style>
<ellipse fill="#ac2b2b" stroke="black" cx="675.17" cy="-250.07" rx="46.51" ry="18"/>
<text text-anchor="middle" x="675.17" y="-247.57" font-family="Helvetica,sans-Serif" font-size="10.00" fill="#ffffff">Backend.Lens</text>
</g>
<!-- Backend_Lens&#45;&gt;Backend -->
<g id="edge10" class="edge">
<title>Backend_Lens&#45;&gt;Backend</title><style>.edge>path:hover{stroke-width:8}</style>
<path fill="none" stroke="black" d="M708.63,-237.35C768.86,-216.22 889.29,-173.82 889.17,-172.64"/>
<path fill="none" stroke="black" d="M889.17,-170.64C883.82,-117.75 831.71,-134.62 797.17,-94.21"/>
</g>
<!-- Backend_Lens&#45;&gt;Backend_Raytracer -->
<g id="edge11" class="edge">
<title>Backend_Lens&#45;&gt;Backend_Raytracer</title><style>.edge>path:hover{stroke-width:8}</style>
<path fill="none" stroke="black" d="M655.26,-233.44C633.36,-216.8 596.7,-190.44 562.17,-172.64"/>
</g>
<!-- Backend_Misc -->
<g id="node7" class="node">
<title>Backend_Misc</title><style>.edge>path:hover{stroke-width:8}</style>
<ellipse fill="#d10505" stroke="black" cx="245.17" cy="-485.35" rx="46.51" ry="18"/>
<text text-anchor="middle" x="245.17" y="-482.85" font-family="Helvetica,sans-Serif" font-size="10.00" fill="#ffffff">Backend.Misc</text>
</g>
<!-- Backend_Misc&#45;&gt;Backend_Color -->
<g id="edge12" class="edge">
<title>Backend_Misc&#45;&gt;Backend_Color</title><style>.edge>path:hover{stroke-width:8}</style>
<path fill="none" stroke="black" d="M276.38,-471.72C308.39,-458.78 358.33,-438.59 393.44,-424.39"/>
<polygon fill="#d10505" stroke="black" points="394.96,-427.55 402.92,-420.56 392.34,-421.06 394.96,-427.55"/>
</g>
<!-- Backend_Misc&#45;&gt;Backend_Image -->
<g id="edge13" class="edge">
<title>Backend_Misc&#45;&gt;Backend_Image</title><style>.edge>path:hover{stroke-width:8}</style>
<path fill="none" stroke="black" d="M247.38,-467.3C248.85,-451.58 249.63,-427.75 244.17,-407.92"/>
<path fill="none" stroke="black" d="M244.17,-405.92C235.99,-376.16 206.73,-356.72 180.45,-344.89"/>
<polygon fill="#d10505" stroke="black" points="181.52,-341.55 170.94,-340.88 178.79,-347.99 181.52,-341.55"/>
</g>
<!-- Backend_Misc&#45;&gt;Backend_RaySource -->
<g id="edge14" class="edge">
<title>Backend_Misc&#45;&gt;Backend_RaySource</title><style>.edge>path:hover{stroke-width:8}</style>
<path fill="none" stroke="black" d="M244.17,-405.92C235.14,-373.07 230.22,-357.11 250.17,-329.49"/>
</g>
<!-- Backend_RaySourceList -->
<g id="node9" class="node">
<title>Backend_RaySourceList</title><style>.edge>path:hover{stroke-width:8}</style>
<ellipse fill="#a13535" stroke="black" cx="219.17" cy="-171.64" rx="57.05" ry="21.43"/>
<text text-anchor="middle" x="219.17" y="-174.64" font-family="Helvetica,sans-Serif" font-size="10.00" fill="#ffffff">Backend.</text>
<text text-anchor="middle" x="219.17" y="-163.64" font-family="Helvetica,sans-Serif" font-size="10.00" fill="#ffffff">RaySourceList</text>
</g>
<!-- Backend_Misc&#45;&gt;Backend_RaySourceList -->
<g id="edge15" class="edge">
<title>Backend_Misc&#45;&gt;Backend_RaySourceList</title><style>.edge>path:hover{stroke-width:8}</style>
<path fill="none" stroke="black" d="M244.17,-405.92C225.54,-338.16 197.63,-319.82 212.17,-251.07"/>
</g>
<!-- Backend_Misc&#45;&gt;Backend_Raytracer -->
<g id="edge16" class="edge">
<title>Backend_Misc&#45;&gt;Backend_Raytracer</title><style>.edge>path:hover{stroke-width:8}</style>
<path fill="none" stroke="black" d="M204.41,-476.55C132.89,-460.49 -5.51,-417.6 18.17,-329.49"/>
<path fill="none" stroke="black" d="M18.17,-327.49C29.5,-266.8 114.85,-309.7 134.17,-251.07"/>
<path fill="none" stroke="black" d="M134.17,-249.07C144.81,-216.81 107.17,-193.24 134.17,-172.64"/>
</g>
<!-- Backend_Surface -->
<g id="node13" class="node">
<title>Backend_Surface</title><style>.edge>path:hover{stroke-width:8}</style>
<ellipse fill="#d10505" stroke="black" cx="757.17" cy="-406.92" rx="41.02" ry="21.43"/>
<text text-anchor="middle" x="757.17" y="-409.92" font-family="Helvetica,sans-Serif" font-size="10.00" fill="#ffffff">Backend.</text>
<text text-anchor="middle" x="757.17" y="-398.92" font-family="Helvetica,sans-Serif" font-size="10.00" fill="#ffffff">Surface</text>
</g>
<!-- Backend_Misc&#45;&gt;Backend_Surface -->
<g id="edge17" class="edge">
<title>Backend_Misc&#45;&gt;Backend_Surface</title><style>.edge>path:hover{stroke-width:8}</style>
<path fill="none" stroke="black" d="M289.64,-479.84C367.09,-471.69 531.62,-452.99 669.17,-428.13 682.82,-425.67 697.54,-422.49 710.97,-419.39"/>
<polygon fill="#d10505" stroke="black" points="712,-422.74 720.94,-417.05 710.4,-415.93 712,-422.74"/>
</g>
<!-- Backend_RaySource&#45;&gt;Backend -->
<g id="edge18" class="edge">
<title>Backend_RaySource&#45;&gt;Backend</title><style>.edge>path:hover{stroke-width:8}</style>
<path fill="none" stroke="black" d="M339.93,-230.51C327.11,-216.07 311.07,-194.82 304.17,-172.64"/>
<path fill="none" stroke="black" d="M304.17,-170.64C293.08,-134.97 244.11,-121.91 269.17,-94.21"/>
</g>
<!-- Backend_RaySource&#45;&gt;Backend_RaySourceList -->
<g id="edge19" class="edge">
<title>Backend_RaySource&#45;&gt;Backend_RaySourceList</title><style>.edge>path:hover{stroke-width:8}</style>
<path fill="none" stroke="black" d="M329.37,-233.23C309.11,-222.09 281.71,-207.02 259.3,-194.7"/>
<polygon fill="#821717" stroke="black" points="260.8,-191.53 250.35,-189.78 257.43,-197.67 260.8,-191.53"/>
</g>
<!-- Backend_RaySource&#45;&gt;Backend_Raytracer -->
<g id="edge20" class="edge">
<title>Backend_RaySource&#45;&gt;Backend_Raytracer</title><style>.edge>path:hover{stroke-width:8}</style>
<path fill="none" stroke="black" d="M304.17,-170.64C298.9,-153.68 306.55,-135.56 316.04,-121.23"/>
<polygon fill="#821717" stroke="black" points="319.08,-123 322.08,-112.84 313.39,-118.91 319.08,-123"/>
</g>
<!-- Backend_RaySourceList&#45;&gt;Backend_Raytracer -->
<g id="edge21" class="edge">
<title>Backend_RaySourceList&#45;&gt;Backend_Raytracer</title><style>.edge>path:hover{stroke-width:8}</style>
<path fill="none" stroke="black" d="M247.01,-152.91C264.38,-141.85 286.86,-127.53 305.27,-115.8"/>
<polygon fill="#a13535" stroke="black" points="307.39,-118.61 313.95,-110.28 303.63,-112.7 307.39,-118.61"/>
</g>
<!-- Backend_Raytracer&#45;&gt;Backend -->
<g id="edge22" class="edge">
<title>Backend_Raytracer&#45;&gt;Backend</title><style>.edge>path:hover{stroke-width:8}</style>
<path fill="none" stroke="black" d="M339.17,-71.82C339.17,-63.97 339.17,-54.86 339.17,-46.45"/>
<polygon fill="#732626" stroke="black" points="342.67,-46.31 339.17,-36.31 335.67,-46.31 342.67,-46.31"/>
</g>
<!-- Backend_RefractionIndex -->
<g id="node11" class="node">
<title>Backend_RefractionIndex</title><style>.edge>path:hover{stroke-width:8}</style>
<ellipse fill="#bf2121" stroke="black" cx="599.17" cy="-406.92" rx="60.62" ry="21.43"/>
<text text-anchor="middle" x="599.17" y="-409.92" font-family="Helvetica,sans-Serif" font-size="10.00" fill="#ffffff">Backend.</text>
<text text-anchor="middle" x="599.17" y="-398.92" font-family="Helvetica,sans-Serif" font-size="10.00" fill="#ffffff">RefractionIndex</text>
</g>
<!-- Backend_RefractionIndex&#45;&gt;Backend -->
<g id="edge23" class="edge">
<title>Backend_RefractionIndex&#45;&gt;Backend</title><style>.edge>path:hover{stroke-width:8}</style>
<path fill="none" stroke="black" d="M599.17,-327.49C602.94,-282.92 595.35,-266.71 619.17,-228.85 672,-144.9 861.62,-169.62 797.17,-94.21"/>
<path fill="none" stroke="black" d="M797.17,-92.21C741.73,-31.75 484.41,-21.16 381.69,-19.35"/>
<polygon fill="#bf2121" stroke="black" points="381.72,-15.85 371.67,-19.19 381.61,-22.85 381.72,-15.85"/>
</g>
<!-- Backend_RefractionIndex&#45;&gt;Backend_Lens -->
<g id="edge24" class="edge">
<title>Backend_RefractionIndex&#45;&gt;Backend_Lens</title><style>.edge>path:hover{stroke-width:8}</style>
<path fill="none" stroke="black" d="M599.17,-327.49C601.23,-303.08 621.07,-283.64 639.96,-270.48"/>
<polygon fill="#bf2121" stroke="black" points="642.06,-273.29 648.51,-264.88 638.22,-267.44 642.06,-273.29"/>
</g>
<!-- Backend_RefractionIndex&#45;&gt;Backend_Raytracer -->
<g id="edge25" class="edge">
<title>Backend_RefractionIndex&#45;&gt;Backend_Raytracer</title><style>.edge>path:hover{stroke-width:8}</style>
<path fill="none" stroke="black" d="M598.24,-385.44C597.77,-370.03 597.58,-348.4 599.17,-329.49"/>
<path fill="none" stroke="black" d="M599.17,-327.49C602.35,-289.89 572.69,-287.31 562.17,-251.07"/>
</g>
<!-- Backend_SObject -->
<g id="node12" class="node">
<title>Backend_SObject</title><style>.edge>path:hover{stroke-width:8}</style>
<ellipse fill="#d31717" stroke="black" cx="744.17" cy="-328.49" rx="41.02" ry="21.43"/>
<text text-anchor="middle" x="744.17" y="-331.49" font-family="Helvetica,sans-Serif" font-size="10.00" fill="#ffffff">Backend.</text>
<text text-anchor="middle" x="744.17" y="-320.49" font-family="Helvetica,sans-Serif" font-size="10.00" fill="#ffffff">SObject</text>
</g>
<!-- Backend_SObject&#45;&gt;Backend_Detector -->
<g id="edge26" class="edge">
<title>Backend_SObject&#45;&gt;Backend_Detector</title><style>.edge>path:hover{stroke-width:8}</style>
<path fill="none" stroke="black" d="M754.22,-307.81C758.58,-299.25 763.79,-289.06 768.57,-279.69"/>
<polygon fill="#d31717" stroke="black" points="771.74,-281.18 773.16,-270.68 765.5,-278 771.74,-281.18"/>
</g>
<!-- Backend_SObject&#45;&gt;Backend_Filter -->
<g id="edge27" class="edge">
<title>Backend_SObject&#45;&gt;Backend_Filter</title><style>.edge>path:hover{stroke-width:8}</style>
<path fill="none" stroke="black" d="M772.13,-312.76C795.44,-300.47 828.77,-282.9 853.91,-269.65"/>
<polygon fill="#d31717" stroke="black" points="855.55,-272.74 862.77,-264.98 852.29,-266.55 855.55,-272.74"/>
</g>
<!-- Backend_SObject&#45;&gt;Backend_Lens -->
<g id="edge28" class="edge">
<title>Backend_SObject&#45;&gt;Backend_Lens</title><style>.edge>path:hover{stroke-width:8}</style>
<path fill="none" stroke="black" d="M727.47,-308.99C718.23,-298.75 706.64,-285.92 696.72,-274.93"/>
<polygon fill="#d31717" stroke="black" points="699.15,-272.4 689.85,-267.32 693.95,-277.09 699.15,-272.4"/>
</g>
<!-- Backend_SObject&#45;&gt;Backend_RaySource -->
<g id="edge29" class="edge">
<title>Backend_SObject&#45;&gt;Backend_RaySource</title><style>.edge>path:hover{stroke-width:8}</style>
<path fill="none" stroke="black" d="M712.79,-314.83C705.15,-312.06 696.94,-309.35 689.17,-307.28 593.34,-281.76 478.68,-265.33 412.55,-257.18"/>
<polygon fill="#d31717" stroke="black" points="412.71,-253.68 402.36,-255.95 411.87,-260.63 412.71,-253.68"/>
</g>
<!-- Backend_Surface&#45;&gt;Backend -->
<g id="edge30" class="edge">
<title>Backend_Surface&#45;&gt;Backend</title><style>.edge>path:hover{stroke-width:8}</style>
<path fill="none" stroke="black" d="M798.15,-405.79C849.54,-403.04 934.51,-389.19 964.17,-329.49"/>
<path fill="none" stroke="black" d="M964.17,-327.49C984.04,-287.51 966.06,-268.31 945.17,-228.85 928.67,-197.69 892.73,-207.73 889.17,-172.64"/>
</g>
<!-- Backend_Surface&#45;&gt;Backend_Detector -->
<g id="edge31" class="edge">
<title>Backend_Surface&#45;&gt;Backend_Detector</title><style>.edge>path:hover{stroke-width:8}</style>
<path fill="none" stroke="black" d="M780.82,-389.41C797.87,-375.29 817.21,-353.5 813.17,-329.49"/>
<path fill="none" stroke="black" d="M813.17,-327.49C810.43,-311.16 803.99,-293.91 797.79,-279.94"/>
<polygon fill="#d10505" stroke="black" points="800.95,-278.45 793.57,-270.84 794.6,-281.39 800.95,-278.45"/>
</g>
<!-- Backend_Surface&#45;&gt;Backend_Filter -->
<g id="edge32" class="edge">
<title>Backend_Surface&#45;&gt;Backend_Filter</title><style>.edge>path:hover{stroke-width:8}</style>
<path fill="none" stroke="black" d="M778.72,-388.83C792.62,-377.75 811.04,-362.97 827.17,-349.71 837.94,-340.85 840.59,-338.57 851.17,-329.49"/>
</g>
<!-- Backend_Surface&#45;&gt;Backend_Lens -->
<g id="edge33" class="edge">
<title>Backend_Surface&#45;&gt;Backend_Lens</title><style>.edge>path:hover{stroke-width:8}</style>
<path fill="none" stroke="black" d="M675.17,-327.49C660.32,-316.62 661.57,-295.08 665.83,-277.63"/>
<polygon fill="#d10505" stroke="black" points="669.21,-278.51 668.58,-267.94 662.48,-276.6 669.21,-278.51"/>
</g>
<!-- Backend_Surface&#45;&gt;Backend_RaySource -->
<g id="edge34" class="edge">
<title>Backend_Surface&#45;&gt;Backend_RaySource</title><style>.edge>path:hover{stroke-width:8}</style>
<path fill="none" stroke="black" d="M736.62,-388.39C724.1,-377.51 707.93,-363.11 694.17,-349.71 685.34,-341.1 685.12,-336.78 675.17,-329.49"/>
<path fill="none" stroke="black" d="M675.17,-327.49C597.18,-270.4 482.22,-255.47 414.29,-251.85"/>
<polygon fill="#d10505" stroke="black" points="414.36,-248.35 404.21,-251.38 414.04,-255.34 414.36,-248.35"/>
</g>
<!-- Backend_Surface&#45;&gt;Backend_Raytracer -->
<g id="edge35" class="edge">
<title>Backend_Surface&#45;&gt;Backend_Raytracer</title><style>.edge>path:hover{stroke-width:8}</style>
<path fill="none" stroke="black" d="M675.17,-327.49C626.25,-291.68 579.06,-309.3 562.17,-251.07"/>
</g>
<!-- Backend_Surface&#45;&gt;Backend_SObject -->
<g id="edge36" class="edge">
<title>Backend_Surface&#45;&gt;Backend_SObject</title><style>.edge>path:hover{stroke-width:8}</style>
<path fill="none" stroke="black" d="M753.69,-385.44C752.35,-377.58 750.8,-368.44 749.34,-359.84"/>
<polygon fill="#d10505" stroke="black" points="752.75,-359.04 747.62,-349.76 745.85,-360.21 752.75,-359.04"/>
</g>
<!-- Backend_SurfaceFunction -->
<g id="node14" class="node">
<title>Backend_SurfaceFunction</title><style>.edge>path:hover{stroke-width:8}</style>
<ellipse fill="#cc3333" stroke="black" cx="885.17" cy="-485.35" rx="62.45" ry="21.43"/>
<text text-anchor="middle" x="885.17" y="-488.35" font-family="Helvetica,sans-Serif" font-size="10.00" fill="#ffffff">Backend.</text>
<text text-anchor="middle" x="885.17" y="-477.35" font-family="Helvetica,sans-Serif" font-size="10.00" fill="#ffffff">SurfaceFunction</text>
</g>
<!-- Backend_SurfaceFunction&#45;&gt;Backend -->
<g id="edge37" class="edge">
<title>Backend_SurfaceFunction&#45;&gt;Backend</title><style>.edge>path:hover{stroke-width:8}</style>
<path fill="none" stroke="black" d="M896.47,-464.19C912.59,-435 942.62,-379.03 964.17,-329.49"/>
</g>
<!-- Backend_SurfaceFunction&#45;&gt;Backend_Surface -->
<g id="edge38" class="edge">
<title>Backend_SurfaceFunction&#45;&gt;Backend_Surface</title><style>.edge>path:hover{stroke-width:8}</style>
<path fill="none" stroke="black" d="M855.49,-466.62C836.53,-455.3 811.87,-440.58 791.99,-428.71"/>
<polygon fill="#cc3333" stroke="black" points="793.61,-425.6 783.23,-423.48 790.02,-431.61 793.61,-425.6"/>
</g>
<!-- PIL -->
<g id="node15" class="node">
<title>PIL</title><style>.edge>path:hover{stroke-width:8}</style>
<polygon fill="#cccc33" stroke="black" points="330.17,-578.56 327.17,-582.56 306.17,-582.56 303.17,-578.56 276.17,-578.56 276.17,-542.56 330.17,-542.56 330.17,-578.56"/>
<text text-anchor="middle" x="303.17" y="-558.06" font-family="Helvetica,sans-Serif" font-size="10.00" fill="#000000">PIL</text>
</g>
<!-- PIL&#45;&gt;Backend_RaySource -->
<g id="edge39" class="edge">
<title>PIL&#45;&gt;Backend_RaySource</title><style>.edge>path:hover{stroke-width:8}</style>
<path fill="none" stroke="black" d="M315.65,-542.26C322.22,-532.29 329.8,-519.26 334.17,-506.56 360.06,-431.48 358.17,-408.91 358.17,-329.49"/>
</g>
<!-- colorio -->
<g id="node16" class="node">
<title>colorio</title><style>.edge>path:hover{stroke-width:8}</style>
<polygon fill="#40c040" stroke="black" points="516.17,-578.56 513.17,-582.56 492.17,-582.56 489.17,-578.56 462.17,-578.56 462.17,-542.56 516.17,-542.56 516.17,-578.56"/>
<text text-anchor="middle" x="489.17" y="-558.06" font-family="Helvetica,sans-Serif" font-size="10.00" fill="#000000">colorio</text>
</g>
<!-- colorio&#45;&gt;Backend_Color -->
<g id="edge40" class="edge">
<title>colorio&#45;&gt;Backend_Color</title><style>.edge>path:hover{stroke-width:8}</style>
<path fill="none" stroke="black" d="M482.97,-542.46C473.48,-516.29 455.27,-466.09 443.98,-434.95"/>
<polygon fill="#40c040" stroke="black" points="447.14,-433.4 440.44,-425.19 440.56,-435.78 447.14,-433.4"/>
</g>
<!-- numexpr -->
<g id="node17" class="node">
<title>numexpr</title><style>.edge>path:hover{stroke-width:8}</style>
<polygon fill="#06f9f9" stroke="black" points="618.17,-650.56 615.17,-654.56 594.17,-654.56 591.17,-650.56 564.17,-650.56 564.17,-614.56 618.17,-614.56 618.17,-650.56"/>
<text text-anchor="middle" x="591.17" y="-630.06" font-family="Helvetica,sans-Serif" font-size="10.00" fill="#000000">numexpr</text>
</g>
<!-- numexpr&#45;&gt;Backend_Color -->
<g id="edge41" class="edge">
<title>numexpr&#45;&gt;Backend_Color</title><style>.edge>path:hover{stroke-width:8}</style>
<path fill="none" stroke="black" d="M593.49,-614.3C594.87,-599.95 595.6,-579.12 591.17,-561.56"/>
<path fill="none" stroke="black" d="M591.17,-559.56C579.31,-512.5 539.03,-525.36 510.17,-486.35"/>
<path fill="none" stroke="black" d="M510.17,-484.35C495.58,-464.62 476,-445.04 460.36,-430.65"/>
<polygon fill="#06f9f9" stroke="black" points="462.36,-427.73 452.59,-423.61 457.66,-432.92 462.36,-427.73"/>
</g>
<!-- numexpr&#45;&gt;Backend_Detector -->
<g id="edge42" class="edge">
<title>numexpr&#45;&gt;Backend_Detector</title><style>.edge>path:hover{stroke-width:8}</style>
<path fill="none" stroke="black" d="M617.41,-614.45C676.4,-575.35 816.28,-478.89 840.17,-428.13 848.21,-411.07 844.36,-404.09 840.17,-385.71 834.02,-358.68 817.77,-356.82 813.17,-329.49"/>
</g>
<!-- numexpr&#45;&gt;Backend_Image -->
<g id="edge43" class="edge">
<title>numexpr&#45;&gt;Backend_Image</title><style>.edge>path:hover{stroke-width:8}</style>
<path fill="none" stroke="black" d="M563.89,-624.17C529.86,-614.72 470.07,-597.31 420.17,-578.56 383.3,-564.7 376.48,-555.21 339.17,-542.56 274.24,-520.54 239.22,-553.42 189.17,-506.56 146.97,-467.04 136.91,-395.81 134.67,-356.82"/>
<polygon fill="#06f9f9" stroke="black" points="138.16,-356.57 134.22,-346.73 131.17,-356.88 138.16,-356.57"/>
</g>
<!-- numexpr&#45;&gt;Backend_Misc -->
<g id="edge44" class="edge">
<title>numexpr&#45;&gt;Backend_Misc</title><style>.edge>path:hover{stroke-width:8}</style>
<path fill="none" stroke="black" d="M564.17,-624.37C535.34,-615.98 488.98,-600.43 453.17,-578.56 443.5,-572.65 443.83,-567.49 434.17,-561.56"/>
<path fill="none" stroke="black" d="M434.17,-559.56C388.99,-531.79 331.49,-511.34 291.85,-499.22"/>
<polygon fill="#06f9f9" stroke="black" points="292.75,-495.83 282.17,-496.31 290.74,-502.54 292.75,-495.83"/>
</g>
<!-- numexpr&#45;&gt;Backend_RaySource -->
<g id="edge45" class="edge">
<title>numexpr&#45;&gt;Backend_RaySource</title><style>.edge>path:hover{stroke-width:8}</style>
<path fill="none" stroke="black" d="M510.17,-484.35C483.63,-448.45 513.7,-427.58 529.17,-385.71 539.14,-358.74 565.95,-357.84 561.17,-329.49"/>
<path fill="none" stroke="black" d="M561.17,-327.49C554.56,-296.39 468.35,-273.07 410.42,-260.79"/>
<polygon fill="#06f9f9" stroke="black" points="410.82,-257.3 400.32,-258.7 409.4,-264.16 410.82,-257.3"/>
</g>
<!-- numexpr&#45;&gt;Backend_RaySourceList -->
<g id="edge46" class="edge">
<title>numexpr&#45;&gt;Backend_RaySourceList</title><style>.edge>path:hover{stroke-width:8}</style>
<path fill="none" stroke="black" d="M434.17,-559.56C398.2,-537.45 203.83,-292.46 212.17,-251.07"/>
</g>
<!-- numexpr&#45;&gt;Backend_Raytracer -->
<g id="edge47" class="edge">
<title>numexpr&#45;&gt;Backend_Raytracer</title><style>.edge>path:hover{stroke-width:8}</style>
<path fill="none" stroke="black" d="M561.17,-327.49C554.11,-294.26 571.64,-283.69 562.17,-251.07"/>
<path fill="none" stroke="black" d="M562.17,-249.07C552.71,-216.44 592.37,-188.2 562.17,-172.64"/>
<path fill="none" stroke="black" d="M562.17,-170.64C504.22,-140.77 432.04,-118.48 385.78,-105.9"/>
<polygon fill="#06f9f9" stroke="black" points="386.59,-102.5 376.03,-103.29 384.78,-109.26 386.59,-102.5"/>
</g>
<!-- numexpr&#45;&gt;Backend_RefractionIndex -->
<g id="edge48" class="edge">
<title>numexpr&#45;&gt;Backend_RefractionIndex</title><style>.edge>path:hover{stroke-width:8}</style>
<path fill="none" stroke="black" d="M591.17,-559.56C583.22,-528.01 589.52,-518.84 591.17,-486.35"/>
</g>
<!-- numexpr&#45;&gt;Backend_Surface -->
<g id="edge49" class="edge">
<title>numexpr&#45;&gt;Backend_Surface</title><style>.edge>path:hover{stroke-width:8}</style>
<path fill="none" stroke="black" d="M603.92,-614.38C632.58,-575.77 702.29,-481.86 736.94,-435.18"/>
<polygon fill="#06f9f9" stroke="black" points="739.83,-437.16 742.98,-427.04 734.21,-432.98 739.83,-437.16"/>
</g>
<!-- numpy -->
<g id="node18" class="node">
<title>numpy</title><style>.edge>path:hover{stroke-width:8}</style>
<polygon fill="#0606f9" stroke="black" points="386.17,-722.56 383.17,-726.56 362.17,-726.56 359.17,-722.56 332.17,-722.56 332.17,-686.56 386.17,-686.56 386.17,-722.56"/>
<text text-anchor="middle" x="359.17" y="-702.06" font-family="Helvetica,sans-Serif" font-size="10.00" fill="#ffffff">numpy</text>
</g>
<!-- numpy&#45;&gt;Backend_Color -->
<g id="edge50" class="edge">
<title>numpy&#45;&gt;Backend_Color</title><style>.edge>path:hover{stroke-width:8}</style>
<path fill="none" stroke="black" d="M396.17,-631.56C392.62,-559.58 413.56,-476.23 425.8,-434.55"/>
<polygon fill="#0606f9" stroke="black" points="429.18,-435.46 428.7,-424.88 422.47,-433.45 429.18,-435.46"/>
</g>
<!-- numpy&#45;&gt;Backend_Detector -->
<g id="edge51" class="edge">
<title>numpy&#45;&gt;Backend_Detector</title><style>.edge>path:hover{stroke-width:8}</style>
<path fill="none" stroke="black" d="M975.17,-559.56C1013.25,-457.25 936.8,-427.72 889.17,-329.49"/>
<path fill="none" stroke="black" d="M889.17,-327.49C872.8,-302.3 845,-282.72 821.98,-269.69"/>
<polygon fill="#0606f9" stroke="black" points="823.56,-266.56 813.11,-264.85 820.21,-272.71 823.56,-266.56"/>
</g>
<!-- numpy&#45;&gt;Backend_Filter -->
<g id="edge52" class="edge">
<title>numpy&#45;&gt;Backend_Filter</title><style>.edge>path:hover{stroke-width:8}</style>
<path fill="none" stroke="black" d="M889.17,-327.49C879.83,-313.12 879.92,-293.79 882.3,-278.17"/>
<polygon fill="#0606f9" stroke="black" points="885.79,-278.53 884.22,-268.05 878.91,-277.22 885.79,-278.53"/>
</g>
<!-- numpy&#45;&gt;Backend_Image -->
<g id="edge53" class="edge">
<title>numpy&#45;&gt;Backend_Image</title><style>.edge>path:hover{stroke-width:8}</style>
<path fill="none" stroke="black" d="M56.17,-405.92C61.73,-382.29 81.24,-363.17 99.36,-349.97"/>
<polygon fill="#0606f9" stroke="black" points="101.82,-352.53 108.07,-343.97 97.85,-346.76 101.82,-352.53"/>
</g>
<!-- numpy&#45;&gt;Backend_Lens -->
<g id="edge54" class="edge">
<title>numpy&#45;&gt;Backend_Lens</title><style>.edge>path:hover{stroke-width:8}</style>
<path fill="none" stroke="black" d="M757.17,-631.56C810.54,-595.26 759.5,-550.84 757.17,-486.35"/>
<path fill="none" stroke="black" d="M757.17,-484.35C752.06,-451.3 726.84,-455.18 707.17,-428.13 683.41,-395.45 671.77,-388.7 661.17,-349.71 654.69,-325.83 659.82,-297.83 665.62,-277.78"/>
<polygon fill="#0606f9" stroke="black" points="669.01,-278.67 668.65,-268.08 662.32,-276.58 669.01,-278.67"/>
</g>
<!-- numpy&#45;&gt;Backend_Misc -->
<g id="edge55" class="edge">
<title>numpy&#45;&gt;Backend_Misc</title><style>.edge>path:hover{stroke-width:8}</style>
<path fill="none" stroke="black" d="M56.17,-559.56C57.45,-530.02 138.48,-507.71 194.02,-495.87"/>
<polygon fill="#0606f9" stroke="black" points="194.99,-499.25 204.07,-493.79 193.57,-492.39 194.99,-499.25"/>
</g>
<!-- numpy&#45;&gt;Backend_RaySource -->
<g id="edge56" class="edge">
<title>numpy&#45;&gt;Backend_RaySource</title><style>.edge>path:hover{stroke-width:8}</style>
<path fill="none" stroke="black" d="M132.17,-631.56C21.58,-539.13 165.77,-446.32 250.17,-329.49"/>
<path fill="none" stroke="black" d="M250.17,-327.49C269.01,-304.13 296.75,-284.71 319.4,-271.29"/>
<polygon fill="#0606f9" stroke="black" points="321.2,-274.29 328.12,-266.27 317.71,-268.22 321.2,-274.29"/>
</g>
<!-- numpy&#45;&gt;Backend_RaySourceList -->
<g id="edge57" class="edge">
<title>numpy&#45;&gt;Backend_RaySourceList</title><style>.edge>path:hover{stroke-width:8}</style>
<path fill="none" stroke="black" d="M56.17,-484.35C48.58,-451.24 48.41,-440.99 56.17,-407.92"/>
<path fill="none" stroke="black" d="M56.17,-405.92C66.38,-362.46 46.9,-341.83 75.17,-307.28 116.86,-256.35 194.5,-314.46 212.17,-251.07"/>
<path fill="none" stroke="black" d="M212.17,-249.07C216,-234.26 217.8,-217.37 218.62,-203.24"/>
<polygon fill="#0606f9" stroke="black" points="222.13,-203.2 219.08,-193.06 215.13,-202.89 222.13,-203.2"/>
</g>
<!-- numpy&#45;&gt;Backend_Raytracer -->
<g id="edge58" class="edge">
<title>numpy&#45;&gt;Backend_Raytracer</title><style>.edge>path:hover{stroke-width:8}</style>
<path fill="none" stroke="black" d="M332.08,-700.51C287.07,-694.36 195.57,-677.12 132.17,-633.56"/>
<path fill="none" stroke="black" d="M132.17,-631.56C94.33,-605.55 54.2,-607.44 56.17,-561.56"/>
<path fill="none" stroke="black" d="M56.17,-559.56C57.58,-527.05 63.45,-518.06 56.17,-486.35"/>
<path fill="none" stroke="black" d="M56.17,-484.35C49.84,-456.74 36.73,-454.41 26.17,-428.13 12.68,-394.54 9.11,-385.57 4.17,-349.71 1.6,-331.03 -2.89,-324.76 4.17,-307.28 35.33,-230.15 68.04,-223.1 134.17,-172.64"/>
<path fill="none" stroke="black" d="M134.17,-170.64C143.64,-162.74 142.62,-156.8 153.17,-150.43 204.5,-119.44 226.05,-132.62 283.17,-114.43 287.68,-112.99 292.36,-111.43 297.01,-109.82"/>
<polygon fill="#0606f9" stroke="black" points="298.18,-113.12 306.45,-106.5 295.85,-106.52 298.18,-113.12"/>
</g>
<!-- numpy&#45;&gt;Backend_RefractionIndex -->
<g id="edge59" class="edge">
<title>numpy&#45;&gt;Backend_RefractionIndex</title><style>.edge>path:hover{stroke-width:8}</style>
<path fill="none" stroke="black" d="M386.4,-702.13C466.52,-697.42 699.5,-679.95 757.17,-633.56"/>
<path fill="none" stroke="black" d="M757.17,-631.56C833.55,-570.11 584.89,-584.17 591.17,-486.35"/>
</g>
<!-- numpy&#45;&gt;Backend_SObject -->
<g id="edge60" class="edge">
<title>numpy&#45;&gt;Backend_SObject</title><style>.edge>path:hover{stroke-width:8}</style>
<path fill="none" stroke="black" d="M757.17,-484.35C757.17,-473.42 764.17,-472.52 771.17,-464.13 785.67,-446.76 798.51,-449.04 807.17,-428.13 814.39,-410.71 814.88,-402.91 807.17,-385.71 801.05,-372.03 789.78,-360.32 778.44,-351.18"/>
<polygon fill="#0606f9" stroke="black" points="780.33,-348.22 770.25,-344.99 776.11,-353.81 780.33,-348.22"/>
</g>
<!-- numpy&#45;&gt;Backend_Surface -->
<g id="edge61" class="edge">
<title>numpy&#45;&gt;Backend_Surface</title><style>.edge>path:hover{stroke-width:8}</style>
<path fill="none" stroke="black" d="M757.17,-484.35C757.17,-469.23 757.17,-452.42 757.17,-438.43"/>
<polygon fill="#0606f9" stroke="black" points="760.67,-438.35 757.17,-428.36 753.67,-438.36 760.67,-438.35"/>
</g>
<!-- numpy&#45;&gt;Backend_SurfaceFunction -->
<g id="edge62" class="edge">
<title>numpy&#45;&gt;Backend_SurfaceFunction</title><style>.edge>path:hover{stroke-width:8}</style>
<path fill="none" stroke="black" d="M757.17,-631.56C836.46,-567.77 939.68,-656.93 975.17,-561.56"/>
<path fill="none" stroke="black" d="M975.17,-559.56C984.12,-535.52 961.89,-517.28 937.29,-505.01"/>
<polygon fill="#0606f9" stroke="black" points="938.72,-501.82 928.17,-500.77 935.76,-508.16 938.72,-501.82"/>
</g>
<!-- numpy&#45;&gt;PIL -->
<g id="edge63" class="edge">
<title>numpy&#45;&gt;PIL</title><style>.edge>path:hover{stroke-width:8}</style>
<path fill="none" stroke="black" d="M374.78,-686.44C385.32,-673.01 397.15,-653.33 396.17,-633.56"/>
<path fill="none" stroke="black" d="M396.17,-631.56C395.44,-616.75 365.01,-595.93 339.15,-580.85"/>
<polygon fill="#0606f9" stroke="black" points="340.68,-577.69 330.26,-575.77 337.21,-583.77 340.68,-577.69"/>
</g>
<!-- scipy -->
<g id="node19" class="node">
<title>scipy</title><style>.edge>path:hover{stroke-width:8}</style>
<polygon fill="#ef06ef" stroke="black" points="312.17,-650.56 309.17,-654.56 288.17,-654.56 285.17,-650.56 258.17,-650.56 258.17,-614.56 312.17,-614.56 312.17,-650.56"/>
<text text-anchor="middle" x="285.17" y="-630.06" font-family="Helvetica,sans-Serif" font-size="10.00" fill="#ffffff">scipy</text>
</g>
<!-- numpy&#45;&gt;scipy -->
<g id="edge64" class="edge">
<title>numpy&#45;&gt;scipy</title><style>.edge>path:hover{stroke-width:8}</style>
<path fill="none" stroke="black" d="M340.88,-686.26C331.74,-677.61 320.53,-667.01 310.57,-657.59"/>
<polygon fill="#0606f9" stroke="black" points="312.93,-654.99 303.26,-650.66 308.12,-660.08 312.93,-654.99"/>
</g>
<!-- scipy&#45;&gt;Backend_Misc -->
<g id="edge65" class="edge">
<title>scipy&#45;&gt;Backend_Misc</title><style>.edge>path:hover{stroke-width:8}</style>
<path fill="none" stroke="black" d="M270.38,-614.45C260.27,-601.02 248.62,-581.35 248.17,-561.56"/>
<path fill="none" stroke="black" d="M248.17,-559.56C247.84,-544.4 247.16,-527.5 246.54,-513.75"/>
<polygon fill="#ef06ef" stroke="black" points="250.02,-513.32 246.06,-503.5 243.03,-513.65 250.02,-513.32"/>
</g>
<!-- scipy&#45;&gt;Backend_RaySource -->
<g id="edge66" class="edge">
<title>scipy&#45;&gt;Backend_RaySource</title><style>.edge>path:hover{stroke-width:8}</style>
<path fill="none" stroke="black" d="M248.17,-559.56C247.43,-526.25 283.81,-534.99 301.17,-506.56 322.72,-471.28 358.09,-370.83 358.17,-329.49"/>
<path fill="none" stroke="black" d="M358.17,-327.49C356.32,-312.49 356.12,-295.7 356.46,-281.68"/>
<polygon fill="#ef06ef" stroke="black" points="359.96,-281.7 356.82,-271.59 352.97,-281.46 359.96,-281.7"/>
</g>
<!-- scipy&#45;&gt;Backend_Raytracer -->
<g id="edge67" class="edge">
<title>scipy&#45;&gt;Backend_Raytracer</title><style>.edge>path:hover{stroke-width:8}</style>
<path fill="none" stroke="black" d="M265.49,-614.31C239.43,-591.04 192.63,-547.76 157.17,-506.56 114,-456.39 112.06,-436.95 70.17,-385.71 48.64,-359.35 11.93,-362.95 18.17,-329.49"/>
</g>
<!-- scipy&#45;&gt;Backend_RefractionIndex -->
<g id="edge68" class="edge">
<title>scipy&#45;&gt;Backend_RefractionIndex</title><style>.edge>path:hover{stroke-width:8}</style>
<path fill="none" stroke="black" d="M312.49,-626.67C371.58,-615.92 507.41,-590.28 525.17,-578.56 567.24,-550.79 588.61,-536.68 591.17,-486.35"/>
<path fill="none" stroke="black" d="M591.17,-484.35C592.15,-469.17 593.84,-452.37 595.42,-438.38"/>
<polygon fill="#ef06ef" stroke="black" points="598.91,-438.65 596.59,-428.32 591.96,-437.85 598.91,-438.65"/>
</g>
</g>
</svg>
