<?xml version="1.0" encoding="UTF-8" standalone="no"?>
<!DOCTYPE svg PUBLIC "-//W3C//DTD SVG 1.1//EN"
 "http://www.w3.org/Graphics/SVG/1.1/DTD/svg11.dtd">
<!-- Generated by graphviz version 2.50.0 (0)
 -->
<!-- Title: G Pages: 1 -->
<svg width="614pt" height="478pt"
 viewBox="0.00 0.00 614.00 478.00" xmlns="http://www.w3.org/2000/svg" xmlns:xlink="http://www.w3.org/1999/xlink">
<g id="graph0" class="graph" transform="scale(1 1) rotate(0) translate(4 474)">
<title>G</title><style>.edge>path:hover{stroke-width:8}</style>
<polygon fill="white" stroke="transparent" points="-4,4 -4,-474 610,-474 610,4 -4,4"/>
<!-- PIL -->
<g id="node1" class="node">
<title>PIL</title><style>.edge>path:hover{stroke-width:8}</style>
<polygon fill="#cc3333" stroke="black" points="164,-182 161,-186 140,-186 137,-182 110,-182 110,-146 164,-146 164,-182"/>
<text text-anchor="middle" x="137" y="-161.5" font-family="Helvetica,sans-Serif" font-size="10.00" fill="#ffffff">PIL</text>
</g>
<!-- optrace -->
<g id="node7" class="node">
<title>optrace</title><style>.edge>path:hover{stroke-width:8}</style>
<polygon fill="#06ef8b" stroke="black" points="352,-36 349,-40 328,-40 325,-36 298,-36 298,0 352,0 352,-36"/>
<text text-anchor="middle" x="325" y="-15.5" font-family="Helvetica,sans-Serif" font-size="10.00" fill="#000000">optrace</text>
</g>
<!-- PIL&#45;&gt;optrace -->
<g id="edge1" class="edge">
<title>PIL&#45;&gt;optrace</title><style>.edge>path:hover{stroke-width:8}</style>
<path fill="none" stroke="black" d="M164.27,-149.4C167.18,-148.17 170.13,-147.01 173,-146 238.52,-123.05 311.34,-178.07 325,-110"/>
</g>
<!-- colorio -->
<g id="node2" class="node">
<title>colorio</title><style>.edge>path:hover{stroke-width:8}</style>
<polygon fill="#c07640" stroke="black" points="54,-182 51,-186 30,-186 27,-182 0,-182 0,-146 54,-146 54,-182"/>
<text text-anchor="middle" x="27" y="-161.5" font-family="Helvetica,sans-Serif" font-size="10.00" fill="#000000">colorio</text>
</g>
<!-- colorio&#45;&gt;optrace -->
<g id="edge2" class="edge">
<title>colorio&#45;&gt;optrace</title><style>.edge>path:hover{stroke-width:8}</style>
<path fill="none" stroke="black" d="M54.01,-150.67C58.61,-148.9 63.39,-147.26 68,-146 123.64,-130.83 313.65,-166.54 325,-110"/>
<path fill="none" stroke="black" d="M325,-109C329.17,-88.22 328.92,-64.2 327.77,-46.2"/>
<polygon fill="#c07640" stroke="black" points="331.25,-45.82 326.98,-36.12 324.27,-46.36 331.25,-45.82"/>
</g>
<!-- matplotlib -->
<g id="node3" class="node">
<title>matplotlib</title><style>.edge>path:hover{stroke-width:8}</style>
<polygon fill="#c8b023" stroke="black" points="241.5,-182 238.5,-186 217.5,-186 214.5,-182 182.5,-182 182.5,-146 241.5,-146 241.5,-182"/>
<text text-anchor="middle" x="212" y="-161.5" font-family="Helvetica,sans-Serif" font-size="10.00" fill="#000000">matplotlib</text>
</g>
<!-- matplotlib&#45;&gt;optrace -->
<g id="edge3" class="edge">
<title>matplotlib&#45;&gt;optrace</title><style>.edge>path:hover{stroke-width:8}</style>
<path fill="none" stroke="black" d="M241.68,-150.48C274.85,-136.28 324.1,-114.5 325,-110"/>
</g>
<!-- mayavi -->
<g id="node4" class="node">
<title>mayavi</title><style>.edge>path:hover{stroke-width:8}</style>
<polygon fill="#afe722" stroke="black" points="352,-182 349,-186 328,-186 325,-182 298,-182 298,-146 352,-146 352,-182"/>
<text text-anchor="middle" x="325" y="-161.5" font-family="Helvetica,sans-Serif" font-size="10.00" fill="#000000">mayavi</text>
</g>
<!-- mayavi&#45;&gt;optrace -->
<g id="edge4" class="edge">
<title>mayavi&#45;&gt;optrace</title><style>.edge>path:hover{stroke-width:8}</style>
<path fill="none" stroke="black" d="M323.29,-145.64C322.68,-135.21 322.65,-121.73 325,-110"/>
</g>
<!-- numexpr -->
<g id="node5" class="node">
<title>numexpr</title><style>.edge>path:hover{stroke-width:8}</style>
<polygon fill="#64c040" stroke="black" points="424,-182 421,-186 400,-186 397,-182 370,-182 370,-146 424,-146 424,-182"/>
<text text-anchor="middle" x="397" y="-161.5" font-family="Helvetica,sans-Serif" font-size="10.00" fill="#000000">numexpr</text>
</g>
<!-- numexpr&#45;&gt;optrace -->
<g id="edge5" class="edge">
<title>numexpr&#45;&gt;optrace</title><style>.edge>path:hover{stroke-width:8}</style>
<path fill="none" stroke="black" d="M369.86,-149.59C348.5,-138.08 322.68,-121.57 325,-110"/>
</g>
<!-- numpy -->
<g id="node6" class="node">
<title>numpy</title><style>.edge>path:hover{stroke-width:8}</style>
<polygon fill="#06f929" stroke="black" points="167,-326 164,-330 143,-330 140,-326 113,-326 113,-290 167,-290 167,-326"/>
<text text-anchor="middle" x="140" y="-305.5" font-family="Helvetica,sans-Serif" font-size="10.00" fill="#000000">numpy</text>
</g>
<!-- numpy&#45;&gt;PIL -->
<g id="edge6" class="edge">
<title>numpy&#45;&gt;PIL</title><style>.edge>path:hover{stroke-width:8}</style>
<path fill="none" stroke="black" d="M149.82,-289.72C157.61,-275.72 168.56,-255.36 177,-237"/>
<path fill="none" stroke="black" d="M177,-235C184.12,-219.52 175.42,-202.93 164.34,-189.79"/>
<polygon fill="#06f929" stroke="black" points="166.6,-187.08 157.25,-182.1 161.45,-191.82 166.6,-187.08"/>
</g>
<!-- numpy&#45;&gt;matplotlib -->
<g id="edge7" class="edge">
<title>numpy&#45;&gt;matplotlib</title><style>.edge>path:hover{stroke-width:8}</style>
<path fill="none" stroke="black" d="M177,-235C183.76,-220.3 191.8,-204.12 198.47,-191.03"/>
<polygon fill="#06f929" stroke="black" points="201.6,-192.6 203.05,-182.11 195.37,-189.41 201.6,-192.6"/>
</g>
<!-- numpy&#45;&gt;optrace -->
<g id="edge8" class="edge">
<title>numpy&#45;&gt;optrace</title><style>.edge>path:hover{stroke-width:8}</style>
<path fill="none" stroke="black" d="M177,-235C198.6,-187.99 242.91,-209.07 270,-165"/>
<path fill="none" stroke="black" d="M270,-163C287.78,-134.08 316.9,-142.97 325,-110"/>
</g>
<!-- scipy -->
<g id="node10" class="node">
<title>scipy</title><style>.edge>path:hover{stroke-width:8}</style>
<polygon fill="#0627ef" stroke="black" points="129,-254 126,-258 105,-258 102,-254 75,-254 75,-218 129,-218 129,-254"/>
<text text-anchor="middle" x="102" y="-233.5" font-family="Helvetica,sans-Serif" font-size="10.00" fill="#ffffff">scipy</text>
</g>
<!-- numpy&#45;&gt;scipy -->
<g id="edge9" class="edge">
<title>numpy&#45;&gt;scipy</title><style>.edge>path:hover{stroke-width:8}</style>
<path fill="none" stroke="black" d="M130.61,-289.7C126.24,-281.64 120.94,-271.89 116.1,-262.98"/>
<polygon fill="#06f929" stroke="black" points="119.13,-261.22 111.29,-254.1 112.98,-264.56 119.13,-261.22"/>
</g>
<!-- pyface -->
<g id="node8" class="node">
<title>pyface</title><style>.edge>path:hover{stroke-width:8}</style>
<polygon fill="#26d9d9" stroke="black" points="297,-254 294,-258 273,-258 270,-254 243,-254 243,-218 297,-218 297,-254"/>
<text text-anchor="middle" x="270" y="-233.5" font-family="Helvetica,sans-Serif" font-size="10.00" fill="#000000">pyface</text>
</g>
<!-- pyface&#45;&gt;optrace -->
<g id="edge10" class="edge">
<title>pyface&#45;&gt;optrace</title><style>.edge>path:hover{stroke-width:8}</style>
<path fill="none" stroke="black" d="M265.27,-217.82C262.16,-202.75 260.26,-180.84 270,-165"/>
</g>
<!-- pynput -->
<g id="node9" class="node">
<title>pynput</title><style>.edge>path:hover{stroke-width:8}</style>
<polygon fill="#3185c4" stroke="black" points="496,-182 493,-186 472,-186 469,-182 442,-182 442,-146 496,-146 496,-182"/>
<text text-anchor="middle" x="469" y="-161.5" font-family="Helvetica,sans-Serif" font-size="10.00" fill="#ffffff">pynput</text>
</g>
<!-- pynput&#45;&gt;optrace -->
<g id="edge11" class="edge">
<title>pynput&#45;&gt;optrace</title><style>.edge>path:hover{stroke-width:8}</style>
<path fill="none" stroke="black" d="M441.63,-149.66C438.74,-148.38 435.82,-147.13 433,-146 386.04,-127.16 315.04,-159.61 325,-110"/>
</g>
<!-- scipy&#45;&gt;optrace -->
<g id="edge12" class="edge">
<title>scipy&#45;&gt;optrace</title><style>.edge>path:hover{stroke-width:8}</style>
<path fill="none" stroke="black" d="M95.76,-217.68C89.86,-197.91 84.16,-165.76 101,-146 133.7,-107.63 312.43,-158.82 325,-110"/>
</g>
<!-- traits -->
<g id="node11" class="node">
<title>traits</title><style>.edge>path:hover{stroke-width:8}</style>
<polygon fill="#4b06f9" stroke="black" points="352,-470 349,-474 328,-474 325,-470 298,-470 298,-434 352,-434 352,-470"/>
<text text-anchor="middle" x="325" y="-449.5" font-family="Helvetica,sans-Serif" font-size="10.00" fill="#ffffff">traits</text>
</g>
<!-- traits&#45;&gt;mayavi -->
<g id="edge13" class="edge">
<title>traits&#45;&gt;mayavi</title><style>.edge>path:hover{stroke-width:8}</style>
<path fill="none" stroke="black" d="M340.61,-433.77C348.37,-424.03 356.95,-411.18 361,-398 383.38,-325.23 354.23,-235.19 336.62,-191.41"/>
<polygon fill="#4b06f9" stroke="black" points="339.8,-189.95 332.74,-182.04 333.34,-192.62 339.8,-189.95"/>
</g>
<!-- traits&#45;&gt;optrace -->
<g id="edge14" class="edge">
<title>traits&#45;&gt;optrace</title><style>.edge>path:hover{stroke-width:8}</style>
<path fill="none" stroke="black" d="M310.84,-433.85C303.31,-423.93 294.5,-410.89 289,-398 273.12,-360.8 277.34,-348.78 270,-309"/>
<path fill="none" stroke="black" d="M270,-307C262.17,-279.62 242.37,-281.22 234,-254 221.46,-213.22 247.66,-201.35 270,-165"/>
</g>
<!-- traits&#45;&gt;pyface -->
<g id="edge15" class="edge">
<title>traits&#45;&gt;pyface</title><style>.edge>path:hover{stroke-width:8}</style>
<path fill="none" stroke="black" d="M270,-307C267.43,-293.09 267.2,-277.35 267.71,-264.33"/>
<polygon fill="#4b06f9" stroke="black" points="271.22,-264.31 268.28,-254.13 264.23,-263.92 271.22,-264.31"/>
</g>
<!-- traitsui -->
<g id="node12" class="node">
<title>traitsui</title><style>.edge>path:hover{stroke-width:8}</style>
<polygon fill="#9f24d0" stroke="black" points="352,-398 349,-402 328,-402 325,-398 298,-398 298,-362 352,-362 352,-398"/>
<text text-anchor="middle" x="325" y="-377.5" font-family="Helvetica,sans-Serif" font-size="10.00" fill="#ffffff">traitsui</text>
</g>
<!-- traits&#45;&gt;traitsui -->
<g id="edge16" class="edge">
<title>traits&#45;&gt;traitsui</title><style>.edge>path:hover{stroke-width:8}</style>
<path fill="none" stroke="black" d="M325,-433.7C325,-425.98 325,-416.71 325,-408.11"/>
<polygon fill="#4b06f9" stroke="black" points="328.5,-408.1 325,-398.1 321.5,-408.1 328.5,-408.1"/>
</g>
<!-- traitsui&#45;&gt;mayavi -->
<g id="edge17" class="edge">
<title>traitsui&#45;&gt;mayavi</title><style>.edge>path:hover{stroke-width:8}</style>
<path fill="none" stroke="black" d="M325,-235C322.43,-221.09 322.2,-205.35 322.71,-192.33"/>
<polygon fill="#9f24d0" stroke="black" points="326.22,-192.31 323.28,-182.13 319.23,-191.92 326.22,-192.31"/>
</g>
<!-- traitsui&#45;&gt;optrace -->
<g id="edge18" class="edge">
<title>traitsui&#45;&gt;optrace</title><style>.edge>path:hover{stroke-width:8}</style>
<path fill="none" stroke="black" d="M327,-361.77C329.67,-334.86 333.18,-281.37 325,-237"/>
<path fill="none" stroke="black" d="M325,-235C316.48,-196.36 249.28,-198.71 270,-165"/>
</g>
<!-- twisted -->
<g id="node13" class="node">
<title>twisted</title><style>.edge>path:hover{stroke-width:8}</style>
<polygon fill="#f906d6" stroke="black" points="606,-182 603,-186 582,-186 579,-182 552,-182 552,-146 606,-146 606,-182"/>
<text text-anchor="middle" x="579" y="-161.5" font-family="Helvetica,sans-Serif" font-size="10.00" fill="#ffffff">twisted</text>
</g>
<!-- twisted&#45;&gt;optrace -->
<g id="edge19" class="edge">
<title>twisted&#45;&gt;optrace</title><style>.edge>path:hover{stroke-width:8}</style>
<path fill="none" stroke="black" d="M551.96,-150.79C547.36,-149 542.59,-147.32 538,-146 491.87,-132.72 315.55,-157.07 325,-110"/>
</g>
<!-- wx -->
<g id="node14" class="node">
<title>wx</title><style>.edge>path:hover{stroke-width:8}</style>
<polygon fill="#d92673" stroke="black" points="606,-398 603,-402 582,-402 579,-398 552,-398 552,-362 606,-362 606,-398"/>
<text text-anchor="middle" x="579" y="-377.5" font-family="Helvetica,sans-Serif" font-size="10.00" fill="#ffffff">wx</text>
</g>
<!-- wx&#45;&gt;optrace -->
<g id="edge20" class="edge">
<title>wx&#45;&gt;optrace</title><style>.edge>path:hover{stroke-width:8}</style>
<path fill="none" stroke="black" d="M581,-361.77C583.67,-334.86 587.18,-281.37 579,-237"/>
<path fill="none" stroke="black" d="M579,-235C576.23,-222.44 516.05,-152.58 505,-146 434.91,-104.25 305.53,-189.23 325,-110"/>
</g>
<!-- wx&#45;&gt;twisted -->
<g id="edge21" class="edge">
<title>wx&#45;&gt;twisted</title><style>.edge>path:hover{stroke-width:8}</style>
<path fill="none" stroke="black" d="M579,-235C576.43,-221.09 576.2,-205.35 576.71,-192.33"/>
<polygon fill="#d92673" stroke="black" points="580.22,-192.31 577.28,-182.13 573.23,-191.92 580.22,-192.31"/>
</g>
</g>
</svg>
