<?xml version="1.0" encoding="UTF-8" standalone="no"?>
<!DOCTYPE svg PUBLIC "-//W3C//DTD SVG 1.1//EN"
 "http://www.w3.org/Graphics/SVG/1.1/DTD/svg11.dtd">
<!-- Generated by graphviz version 2.50.0 (0)
 -->
<!-- Title: G Pages: 1 -->
<svg width="844pt" height="731pt"
 viewBox="0.00 0.00 844.19 730.56" xmlns="http://www.w3.org/2000/svg" xmlns:xlink="http://www.w3.org/1999/xlink">
<g id="graph0" class="graph" transform="scale(1 1) rotate(0) translate(4 726.56)">
<title>G</title><style>.edge>path:hover{stroke-width:8}</style>
<polygon fill="white" stroke="transparent" points="-4,4 -4,-726.56 840.19,-726.56 840.19,4 -4,4"/>
<!-- Backend -->
<g id="node1" class="node">
<title>Backend</title><style>.edge>path:hover{stroke-width:8}</style>
<ellipse fill="#9f0404" stroke="black" cx="499.67" cy="-18" rx="32.25" ry="18"/>
<text text-anchor="middle" x="499.67" y="-15.5" font-family="Helvetica,sans-Serif" font-size="10.00" fill="#ffffff">Backend</text>
</g>
<!-- Backend_Color -->
<g id="node2" class="node">
<title>Backend_Color</title><style>.edge>path:hover{stroke-width:8}</style>
<ellipse fill="#bf2121" stroke="black" cx="660.67" cy="-406.92" rx="47.86" ry="18"/>
<text text-anchor="middle" x="660.67" y="-404.42" font-family="Helvetica,sans-Serif" font-size="10.00" fill="#ffffff">Backend.Color</text>
</g>
<!-- Backend_Filter -->
<g id="node4" class="node">
<title>Backend_Filter</title><style>.edge>path:hover{stroke-width:8}</style>
<ellipse fill="#ac2b2b" stroke="black" cx="83.67" cy="-250.07" rx="47.19" ry="18"/>
<text text-anchor="middle" x="83.67" y="-247.57" font-family="Helvetica,sans-Serif" font-size="10.00" fill="#ffffff">Backend.Filter</text>
</g>
<!-- Backend_Color&#45;&gt;Backend_Filter -->
<g id="edge1" class="edge">
<title>Backend_Color&#45;&gt;Backend_Filter</title><style>.edge>path:hover{stroke-width:8}</style>
<path fill="none" stroke="black" d="M630.86,-392.66C576.15,-368.51 461.52,-318.78 419.67,-307.28 314.81,-278.48 284.65,-290.72 177.67,-271.28 163.13,-268.64 147.41,-265.41 133.06,-262.31"/>
<polygon fill="#bf2121" stroke="black" points="133.4,-258.8 122.89,-260.09 131.91,-265.64 133.4,-258.8"/>
</g>
<!-- Backend_Image -->
<g id="node5" class="node">
<title>Backend_Image</title><style>.edge>path:hover{stroke-width:8}</style>
<ellipse fill="#b42d2d" stroke="black" cx="744.67" cy="-328.49" rx="50.07" ry="18"/>
<text text-anchor="middle" x="744.67" y="-325.99" font-family="Helvetica,sans-Serif" font-size="10.00" fill="#ffffff">Backend.Image</text>
</g>
<!-- Backend_Color&#45;&gt;Backend_Image -->
<g id="edge2" class="edge">
<title>Backend_Color&#45;&gt;Backend_Image</title><style>.edge>path:hover{stroke-width:8}</style>
<path fill="none" stroke="black" d="M678.07,-390.08C690.04,-379.19 706.13,-364.56 719.49,-352.4"/>
<polygon fill="#bf2121" stroke="black" points="721.95,-354.89 726.99,-345.57 717.24,-349.71 721.95,-354.89"/>
</g>
<!-- Backend_RaySource -->
<g id="node8" class="node">
<title>Backend_RaySource</title><style>.edge>path:hover{stroke-width:8}</style>
<ellipse fill="#7a1e1e" stroke="black" cx="537.67" cy="-250.07" rx="45.92" ry="21.43"/>
<text text-anchor="middle" x="537.67" y="-253.07" font-family="Helvetica,sans-Serif" font-size="10.00" fill="#ffffff">Backend.</text>
<text text-anchor="middle" x="537.67" y="-242.07" font-family="Helvetica,sans-Serif" font-size="10.00" fill="#ffffff">RaySource</text>
</g>
<!-- Backend_Color&#45;&gt;Backend_RaySource -->
<g id="edge3" class="edge">
<title>Backend_Color&#45;&gt;Backend_RaySource</title><style>.edge>path:hover{stroke-width:8}</style>
<path fill="none" stroke="black" d="M639.22,-390.55C622.14,-376.81 599.65,-354.94 590.67,-329.49"/>
</g>
<!-- Backend_Detector -->
<g id="node3" class="node">
<title>Backend_Detector</title><style>.edge>path:hover{stroke-width:8}</style>
<ellipse fill="#ac2b2b" stroke="black" cx="339.67" cy="-250.07" rx="41.02" ry="21.43"/>
<text text-anchor="middle" x="339.67" y="-253.07" font-family="Helvetica,sans-Serif" font-size="10.00" fill="#ffffff">Backend.</text>
<text text-anchor="middle" x="339.67" y="-242.07" font-family="Helvetica,sans-Serif" font-size="10.00" fill="#ffffff">Detector</text>
</g>
<!-- Backend_Detector&#45;&gt;Backend -->
<g id="edge4" class="edge">
<title>Backend_Detector&#45;&gt;Backend</title><style>.edge>path:hover{stroke-width:8}</style>
<path fill="none" stroke="black" d="M308.05,-236.37C277.93,-223.86 235.23,-204.92 221.67,-192.85 182.98,-158.43 127.25,-134.59 159.67,-94.21"/>
</g>
<!-- Backend_Raytracer -->
<g id="node10" class="node">
<title>Backend_Raytracer</title><style>.edge>path:hover{stroke-width:8}</style>
<ellipse fill="#732626" stroke="black" cx="499.67" cy="-93.21" rx="41.94" ry="21.43"/>
<text text-anchor="middle" x="499.67" y="-96.21" font-family="Helvetica,sans-Serif" font-size="10.00" fill="#ffffff">Backend.</text>
<text text-anchor="middle" x="499.67" y="-85.21" font-family="Helvetica,sans-Serif" font-size="10.00" fill="#ffffff">Raytracer</text>
</g>
<!-- Backend_Detector&#45;&gt;Backend_Raytracer -->
<g id="edge5" class="edge">
<title>Backend_Detector&#45;&gt;Backend_Raytracer</title><style>.edge>path:hover{stroke-width:8}</style>
<path fill="none" stroke="black" d="M359.67,-231.36C374.95,-216.89 395.55,-195.2 408.67,-172.64"/>
</g>
<!-- Backend_Filter&#45;&gt;Backend -->
<g id="edge6" class="edge">
<title>Backend_Filter&#45;&gt;Backend</title><style>.edge>path:hover{stroke-width:8}</style>
<path fill="none" stroke="black" d="M81.44,-231.81C79.94,-216.15 79,-192.53 83.67,-172.64"/>
</g>
<!-- Backend_Filter&#45;&gt;Backend_Raytracer -->
<g id="edge7" class="edge">
<title>Backend_Filter&#45;&gt;Backend_Raytracer</title><style>.edge>path:hover{stroke-width:8}</style>
<path fill="none" stroke="black" d="M95.4,-232.35C112.2,-209.82 145.33,-170.25 183.67,-150.43 268.94,-106.33 382.55,-96.12 447.74,-94.17"/>
<polygon fill="#ac2b2b" stroke="black" points="447.87,-97.67 457.78,-93.92 447.7,-90.67 447.87,-97.67"/>
</g>
<!-- Backend_Image&#45;&gt;Backend -->
<g id="edge8" class="edge">
<title>Backend_Image&#45;&gt;Backend</title><style>.edge>path:hover{stroke-width:8}</style>
<path fill="none" stroke="black" d="M666.67,-170.64C646.55,-143.27 678.26,-126.14 666.67,-94.21"/>
</g>
<!-- Backend_Image&#45;&gt;Backend_Raytracer -->
<g id="edge9" class="edge">
<title>Backend_Image&#45;&gt;Backend_Raytracer</title><style>.edge>path:hover{stroke-width:8}</style>
<path fill="none" stroke="black" d="M735.35,-310.62C720,-282.49 688.9,-224.03 666.67,-172.64"/>
<path fill="none" stroke="black" d="M666.67,-170.64C638.67,-132.55 587.09,-112.95 548.63,-103.19"/>
<polygon fill="#b42d2d" stroke="black" points="549.2,-99.73 538.66,-100.81 547.58,-106.54 549.2,-99.73"/>
</g>
<!-- Backend_Lens -->
<g id="node6" class="node">
<title>Backend_Lens</title><style>.edge>path:hover{stroke-width:8}</style>
<ellipse fill="#ac2b2b" stroke="black" cx="233.67" cy="-250.07" rx="46.51" ry="18"/>
<text text-anchor="middle" x="233.67" y="-247.57" font-family="Helvetica,sans-Serif" font-size="10.00" fill="#ffffff">Backend.Lens</text>
</g>
<!-- Backend_Lens&#45;&gt;Backend -->
<g id="edge10" class="edge">
<title>Backend_Lens&#45;&gt;Backend</title><style>.edge>path:hover{stroke-width:8}</style>
<path fill="none" stroke="black" d="M197.15,-238.68C150.89,-224.41 77.79,-197.68 83.67,-172.64"/>
</g>
<!-- Backend_Lens&#45;&gt;Backend_Raytracer -->
<g id="edge11" class="edge">
<title>Backend_Lens&#45;&gt;Backend_Raytracer</title><style>.edge>path:hover{stroke-width:8}</style>
<path fill="none" stroke="black" d="M266.38,-237.17C314.89,-219.17 401.04,-185.75 408.67,-172.64"/>
<path fill="none" stroke="black" d="M408.67,-170.64C421.95,-147.8 444.71,-128.69 464.14,-115.29"/>
<polygon fill="#ac2b2b" stroke="black" points="466.13,-118.17 472.51,-109.72 462.25,-112.35 466.13,-118.17"/>
</g>
<!-- Backend_Misc -->
<g id="node7" class="node">
<title>Backend_Misc</title><style>.edge>path:hover{stroke-width:8}</style>
<ellipse fill="#d10505" stroke="black" cx="621.67" cy="-485.35" rx="46.51" ry="18"/>
<text text-anchor="middle" x="621.67" y="-482.85" font-family="Helvetica,sans-Serif" font-size="10.00" fill="#ffffff">Backend.Misc</text>
</g>
<!-- Backend_Misc&#45;&gt;Backend_Color -->
<g id="edge12" class="edge">
<title>Backend_Misc&#45;&gt;Backend_Color</title><style>.edge>path:hover{stroke-width:8}</style>
<path fill="none" stroke="black" d="M630.32,-467.38C635.32,-457.59 641.71,-445.06 647.34,-434.03"/>
<polygon fill="#d10505" stroke="black" points="650.61,-435.33 652.03,-424.83 644.37,-432.15 650.61,-435.33"/>
</g>
<!-- Backend_Misc&#45;&gt;Backend_Detector -->
<g id="edge13" class="edge">
<title>Backend_Misc&#45;&gt;Backend_Detector</title><style>.edge>path:hover{stroke-width:8}</style>
<path fill="none" stroke="black" d="M508.67,-405.92C461.56,-370.32 463.88,-346.42 419.67,-307.28 405.43,-294.68 388.33,-282.34 373.61,-272.45"/>
<polygon fill="#d10505" stroke="black" points="375.52,-269.52 365.25,-266.93 371.66,-275.36 375.52,-269.52"/>
</g>
<!-- Backend_Misc&#45;&gt;Backend_Image -->
<g id="edge14" class="edge">
<title>Backend_Misc&#45;&gt;Backend_Image</title><style>.edge>path:hover{stroke-width:8}</style>
<path fill="none" stroke="black" d="M654.64,-472.61C675.59,-463.54 701.68,-448.98 717.67,-428.13 733.56,-407.4 740.1,-377.91 742.79,-356.59"/>
<polygon fill="#d10505" stroke="black" points="746.28,-356.87 743.85,-346.56 739.32,-356.13 746.28,-356.87"/>
</g>
<!-- Backend_Misc&#45;&gt;Backend_RaySource -->
<g id="edge15" class="edge">
<title>Backend_Misc&#45;&gt;Backend_RaySource</title><style>.edge>path:hover{stroke-width:8}</style>
<path fill="none" stroke="black" d="M584.67,-405.92C578.49,-372.41 602.01,-361.62 590.67,-329.49"/>
</g>
<!-- Backend_RayStorage -->
<g id="node9" class="node">
<title>Backend_RayStorage</title><style>.edge>path:hover{stroke-width:8}</style>
<ellipse fill="#b42d2d" stroke="black" cx="590.67" cy="-171.64" rx="48.17" ry="21.43"/>
<text text-anchor="middle" x="590.67" y="-174.64" font-family="Helvetica,sans-Serif" font-size="10.00" fill="#ffffff">Backend.</text>
<text text-anchor="middle" x="590.67" y="-163.64" font-family="Helvetica,sans-Serif" font-size="10.00" fill="#ffffff">RayStorage</text>
</g>
<!-- Backend_Misc&#45;&gt;Backend_RayStorage -->
<g id="edge16" class="edge">
<title>Backend_Misc&#45;&gt;Backend_RayStorage</title><style>.edge>path:hover{stroke-width:8}</style>
<path fill="none" stroke="black" d="M584.67,-405.92C579.86,-379.84 600.16,-375.84 604.67,-349.71 613.46,-298.76 604.73,-238.6 597.66,-203.14"/>
<polygon fill="#d10505" stroke="black" points="601,-202.05 595.54,-192.97 594.15,-203.48 601,-202.05"/>
</g>
<!-- Backend_Misc&#45;&gt;Backend_Raytracer -->
<g id="edge17" class="edge">
<title>Backend_Misc&#45;&gt;Backend_Raytracer</title><style>.edge>path:hover{stroke-width:8}</style>
<path fill="none" stroke="black" d="M610.83,-467.56C601.84,-452.59 589.75,-429.74 584.67,-407.92"/>
<path fill="none" stroke="black" d="M584.67,-405.92C576.31,-370.05 563.99,-364.53 552.67,-329.49"/>
</g>
<!-- Backend_RefractionIndex -->
<g id="node11" class="node">
<title>Backend_RefractionIndex</title><style>.edge>path:hover{stroke-width:8}</style>
<ellipse fill="#b62020" stroke="black" cx="349.67" cy="-328.49" rx="60.62" ry="21.43"/>
<text text-anchor="middle" x="349.67" y="-331.49" font-family="Helvetica,sans-Serif" font-size="10.00" fill="#ffffff">Backend.</text>
<text text-anchor="middle" x="349.67" y="-320.49" font-family="Helvetica,sans-Serif" font-size="10.00" fill="#ffffff">RefractionIndex</text>
</g>
<!-- Backend_Misc&#45;&gt;Backend_RefractionIndex -->
<g id="edge18" class="edge">
<title>Backend_Misc&#45;&gt;Backend_RefractionIndex</title><style>.edge>path:hover{stroke-width:8}</style>
<path fill="none" stroke="black" d="M598.23,-469.52C575.02,-454.61 538.71,-430.62 508.67,-407.92"/>
<path fill="none" stroke="black" d="M508.67,-405.92C497.54,-397.51 496.57,-392.96 484.67,-385.71 458.9,-370.01 427.97,-356.77 402.22,-347.1"/>
<polygon fill="#d10505" stroke="black" points="403.22,-343.73 392.63,-343.56 400.8,-350.3 403.22,-343.73"/>
</g>
<!-- Backend_Surface -->
<g id="node13" class="node">
<title>Backend_Surface</title><style>.edge>path:hover{stroke-width:8}</style>
<ellipse fill="#db0505" stroke="black" cx="153.67" cy="-406.92" rx="41.02" ry="21.43"/>
<text text-anchor="middle" x="153.67" y="-409.92" font-family="Helvetica,sans-Serif" font-size="10.00" fill="#ffffff">Backend.</text>
<text text-anchor="middle" x="153.67" y="-398.92" font-family="Helvetica,sans-Serif" font-size="10.00" fill="#ffffff">Surface</text>
</g>
<!-- Backend_Misc&#45;&gt;Backend_Surface -->
<g id="edge19" class="edge">
<title>Backend_Misc&#45;&gt;Backend_Surface</title><style>.edge>path:hover{stroke-width:8}</style>
<path fill="none" stroke="black" d="M589.4,-472.28C580.23,-469.23 570.14,-466.22 560.67,-464.13 423.49,-433.88 385.25,-451.08 246.67,-428.13 231.43,-425.61 214.93,-422.24 200.12,-418.97"/>
<polygon fill="#d10505" stroke="black" points="200.69,-415.51 190.16,-416.74 199.16,-422.34 200.69,-415.51"/>
</g>
<!-- Backend_RaySource&#45;&gt;Backend_RayStorage -->
<g id="edge20" class="edge">
<title>Backend_RaySource&#45;&gt;Backend_RayStorage</title><style>.edge>path:hover{stroke-width:8}</style>
<path fill="none" stroke="black" d="M551.31,-229.38C557.37,-220.65 564.61,-210.21 571.22,-200.68"/>
<polygon fill="#7a1e1e" stroke="black" points="574.24,-202.47 577.06,-192.25 568.49,-198.48 574.24,-202.47"/>
</g>
<!-- Backend_RaySource&#45;&gt;Backend_Raytracer -->
<g id="edge21" class="edge">
<title>Backend_RaySource&#45;&gt;Backend_Raytracer</title><style>.edge>path:hover{stroke-width:8}</style>
<path fill="none" stroke="black" d="M502.21,-236.31C460.24,-220.16 397.35,-192.11 408.67,-172.64"/>
</g>
<!-- Backend_RayStorage&#45;&gt;Backend -->
<g id="edge22" class="edge">
<title>Backend_RayStorage&#45;&gt;Backend</title><style>.edge>path:hover{stroke-width:8}</style>
<path fill="none" stroke="black" d="M623.4,-156.02C648.13,-142.59 676.31,-120.77 666.67,-94.21"/>
<path fill="none" stroke="black" d="M666.67,-92.21C648.92,-43.31 585.14,-27.03 541.75,-21.63"/>
<polygon fill="#b42d2d" stroke="black" points="542.06,-18.14 531.74,-20.53 541.29,-25.1 542.06,-18.14"/>
</g>
<!-- Backend_RayStorage&#45;&gt;Backend_Raytracer -->
<g id="edge23" class="edge">
<title>Backend_RayStorage&#45;&gt;Backend_Raytracer</title><style>.edge>path:hover{stroke-width:8}</style>
<path fill="none" stroke="black" d="M569.1,-152.53C556.91,-142.29 541.52,-129.37 528.33,-118.29"/>
<polygon fill="#b42d2d" stroke="black" points="530.36,-115.42 520.45,-111.67 525.86,-120.78 530.36,-115.42"/>
</g>
<!-- Backend_Raytracer&#45;&gt;Backend -->
<g id="edge24" class="edge">
<title>Backend_Raytracer&#45;&gt;Backend</title><style>.edge>path:hover{stroke-width:8}</style>
<path fill="none" stroke="black" d="M499.67,-71.82C499.67,-63.97 499.67,-54.86 499.67,-46.45"/>
<polygon fill="#732626" stroke="black" points="503.17,-46.31 499.67,-36.31 496.17,-46.31 503.17,-46.31"/>
</g>
<!-- Backend_RefractionIndex&#45;&gt;Backend -->
<g id="edge25" class="edge">
<title>Backend_RefractionIndex&#45;&gt;Backend</title><style>.edge>path:hover{stroke-width:8}</style>
<path fill="none" stroke="black" d="M376.04,-309.32C392.77,-295.39 410.9,-274.59 408.67,-251.07"/>
<path fill="none" stroke="black" d="M408.67,-249.07C402.51,-184.2 122.84,-147.97 159.67,-94.21"/>
</g>
<!-- Backend_RefractionIndex&#45;&gt;Backend_Lens -->
<g id="edge26" class="edge">
<title>Backend_RefractionIndex&#45;&gt;Backend_Lens</title><style>.edge>path:hover{stroke-width:8}</style>
<path fill="none" stroke="black" d="M322.18,-309.38C304.9,-298 282.58,-283.3 264.68,-271.5"/>
<polygon fill="#b62020" stroke="black" points="266.56,-268.55 256.29,-265.97 262.71,-274.39 266.56,-268.55"/>
</g>
<!-- Backend_RefractionIndex&#45;&gt;Backend_Raytracer -->
<g id="edge27" class="edge">
<title>Backend_RefractionIndex&#45;&gt;Backend_Raytracer</title><style>.edge>path:hover{stroke-width:8}</style>
<path fill="none" stroke="black" d="M408.67,-249.07C405.45,-215.25 391.59,-202 408.67,-172.64"/>
</g>
<!-- Backend_SObject -->
<g id="node12" class="node">
<title>Backend_SObject</title><style>.edge>path:hover{stroke-width:8}</style>
<ellipse fill="#d31717" stroke="black" cx="191.67" cy="-328.49" rx="41.02" ry="21.43"/>
<text text-anchor="middle" x="191.67" y="-331.49" font-family="Helvetica,sans-Serif" font-size="10.00" fill="#ffffff">Backend.</text>
<text text-anchor="middle" x="191.67" y="-320.49" font-family="Helvetica,sans-Serif" font-size="10.00" fill="#ffffff">SObject</text>
</g>
<!-- Backend_SObject&#45;&gt;Backend_Detector -->
<g id="edge28" class="edge">
<title>Backend_SObject&#45;&gt;Backend_Detector</title><style>.edge>path:hover{stroke-width:8}</style>
<path fill="none" stroke="black" d="M219.85,-312.94C243.31,-300.83 276.88,-283.49 302.53,-270.24"/>
<polygon fill="#d31717" stroke="black" points="304.31,-273.27 311.58,-265.57 301.09,-267.05 304.31,-273.27"/>
</g>
<!-- Backend_SObject&#45;&gt;Backend_Filter -->
<g id="edge29" class="edge">
<title>Backend_SObject&#45;&gt;Backend_Filter</title><style>.edge>path:hover{stroke-width:8}</style>
<path fill="none" stroke="black" d="M168.23,-310.91C152.28,-299.62 131.01,-284.57 113.8,-272.39"/>
<polygon fill="#d31717" stroke="black" points="115.4,-269.24 105.22,-266.32 111.36,-274.95 115.4,-269.24"/>
</g>
<!-- Backend_SObject&#45;&gt;Backend_Lens -->
<g id="edge30" class="edge">
<title>Backend_SObject&#45;&gt;Backend_Lens</title><style>.edge>path:hover{stroke-width:8}</style>
<path fill="none" stroke="black" d="M202.48,-307.81C207.69,-298.33 214.01,-286.84 219.59,-276.69"/>
<polygon fill="#d31717" stroke="black" points="222.7,-278.28 224.45,-267.83 216.57,-274.91 222.7,-278.28"/>
</g>
<!-- Backend_SObject&#45;&gt;Backend_RaySource -->
<g id="edge31" class="edge">
<title>Backend_SObject&#45;&gt;Backend_RaySource</title><style>.edge>path:hover{stroke-width:8}</style>
<path fill="none" stroke="black" d="M228.47,-318.94C244.22,-315.31 262.84,-311.04 279.67,-307.28 351.38,-291.23 434.45,-273.24 486.53,-262.03"/>
<polygon fill="#d31717" stroke="black" points="487.48,-265.4 496.52,-259.88 486.01,-258.56 487.48,-265.4"/>
</g>
<!-- Backend_Surface&#45;&gt;Backend -->
<g id="edge32" class="edge">
<title>Backend_Surface&#45;&gt;Backend</title><style>.edge>path:hover{stroke-width:8}</style>
<path fill="none" stroke="black" d="M120.65,-394.26C80.7,-379.26 17.64,-352.41 8.67,-329.49"/>
</g>
<!-- Backend_Surface&#45;&gt;Backend_Detector -->
<g id="edge33" class="edge">
<title>Backend_Surface&#45;&gt;Backend_Detector</title><style>.edge>path:hover{stroke-width:8}</style>
<path fill="none" stroke="black" d="M122.67,-327.49C142.76,-264.83 215.63,-295.11 289.67,-271.28 292.93,-270.23 296.28,-269.07 299.63,-267.84"/>
<polygon fill="#db0505" stroke="black" points="300.88,-271.11 308.98,-264.29 298.39,-264.57 300.88,-271.11"/>
</g>
<!-- Backend_Surface&#45;&gt;Backend_Filter -->
<g id="edge34" class="edge">
<title>Backend_Surface&#45;&gt;Backend_Filter</title><style>.edge>path:hover{stroke-width:8}</style>
<path fill="none" stroke="black" d="M125.19,-391.61C94.48,-375.28 49.57,-348.39 46.67,-329.49"/>
</g>
<!-- Backend_Surface&#45;&gt;Backend_Lens -->
<g id="edge35" class="edge">
<title>Backend_Surface&#45;&gt;Backend_Lens</title><style>.edge>path:hover{stroke-width:8}</style>
<path fill="none" stroke="black" d="M122.67,-327.49C132.3,-297.43 162.62,-277.83 189.14,-266.01"/>
<polygon fill="#db0505" stroke="black" points="190.82,-269.1 198.69,-262 188.11,-262.64 190.82,-269.1"/>
</g>
<!-- Backend_Surface&#45;&gt;Backend_RaySource -->
<g id="edge36" class="edge">
<title>Backend_Surface&#45;&gt;Backend_RaySource</title><style>.edge>path:hover{stroke-width:8}</style>
<path fill="none" stroke="black" d="M190.76,-397.78C207.78,-394.06 228.24,-389.62 246.67,-385.71 323.48,-369.37 348.97,-383.92 419.67,-349.71 456.59,-331.84 491.69,-299.89 513.86,-277.2"/>
<polygon fill="#db0505" stroke="black" points="516.48,-279.53 520.87,-269.89 511.42,-274.69 516.48,-279.53"/>
</g>
<!-- Backend_Surface&#45;&gt;Backend_Raytracer -->
<g id="edge37" class="edge">
<title>Backend_Surface&#45;&gt;Backend_Raytracer</title><style>.edge>path:hover{stroke-width:8}</style>
<path fill="none" stroke="black" d="M138.1,-387.05C127.41,-371.76 116.24,-349.54 122.67,-329.49"/>
<path fill="none" stroke="black" d="M122.67,-327.49C137.99,-279.69 140.23,-262.29 177.67,-228.85 258.37,-156.76 383.17,-119.73 451.27,-103.93"/>
<polygon fill="#db0505" stroke="black" points="452.32,-107.28 461.3,-101.66 450.77,-100.45 452.32,-107.28"/>
</g>
<!-- Backend_Surface&#45;&gt;Backend_SObject -->
<g id="edge38" class="edge">
<title>Backend_Surface&#45;&gt;Backend_SObject</title><style>.edge>path:hover{stroke-width:8}</style>
<path fill="none" stroke="black" d="M163.45,-386.24C167.71,-377.68 172.78,-367.48 177.43,-358.11"/>
<polygon fill="#db0505" stroke="black" points="180.59,-359.62 181.91,-349.11 174.33,-356.5 180.59,-359.62"/>
</g>
<!-- Backend_SurfaceFunction -->
<g id="node14" class="node">
<title>Backend_SurfaceFunction</title><style>.edge>path:hover{stroke-width:8}</style>
<ellipse fill="#cc3333" stroke="black" cx="108.67" cy="-485.35" rx="62.45" ry="21.43"/>
<text text-anchor="middle" x="108.67" y="-488.35" font-family="Helvetica,sans-Serif" font-size="10.00" fill="#ffffff">Backend.</text>
<text text-anchor="middle" x="108.67" y="-477.35" font-family="Helvetica,sans-Serif" font-size="10.00" fill="#ffffff">SurfaceFunction</text>
</g>
<!-- Backend_SurfaceFunction&#45;&gt;Backend -->
<g id="edge39" class="edge">
<title>Backend_SurfaceFunction&#45;&gt;Backend</title><style>.edge>path:hover{stroke-width:8}</style>
<path fill="none" stroke="black" d="M92.25,-464.75C69.66,-436.68 29.43,-382.54 8.67,-329.49"/>
<path fill="none" stroke="black" d="M8.67,-327.49C-10.21,-287.03 6.78,-268.31 27.67,-228.85 44.17,-197.69 75.61,-206.97 83.67,-172.64"/>
<path fill="none" stroke="black" d="M83.67,-170.64C93.81,-123.82 135.93,-135.82 159.67,-94.21"/>
<path fill="none" stroke="black" d="M159.67,-92.21C189,-40.8 372.85,-25.19 457.31,-20.7"/>
<polygon fill="#cc3333" stroke="black" points="457.54,-24.2 467.35,-20.2 457.18,-17.21 457.54,-24.2"/>
</g>
<!-- Backend_SurfaceFunction&#45;&gt;Backend_Surface -->
<g id="edge40" class="edge">
<title>Backend_SurfaceFunction&#45;&gt;Backend_Surface</title><style>.edge>path:hover{stroke-width:8}</style>
<path fill="none" stroke="black" d="M120.49,-464.27C125.58,-455.62 131.62,-445.36 137.14,-435.98"/>
<polygon fill="#cc3333" stroke="black" points="140.17,-437.73 142.23,-427.34 134.14,-434.18 140.17,-437.73"/>
</g>
<!-- PIL -->
<g id="node15" class="node">
<title>PIL</title><style>.edge>path:hover{stroke-width:8}</style>
<polygon fill="#cccc33" stroke="black" points="794.67,-578.56 791.67,-582.56 770.67,-582.56 767.67,-578.56 740.67,-578.56 740.67,-542.56 794.67,-542.56 794.67,-578.56"/>
<text text-anchor="middle" x="767.67" y="-558.06" font-family="Helvetica,sans-Serif" font-size="10.00" fill="#000000">PIL</text>
</g>
<!-- PIL&#45;&gt;Backend_RaySource -->
<g id="edge41" class="edge">
<title>PIL&#45;&gt;Backend_RaySource</title><style>.edge>path:hover{stroke-width:8}</style>
<path fill="none" stroke="black" d="M766.35,-542.47C763.09,-509.45 752.2,-435.71 717.67,-385.71 697.98,-357.2 619.01,-303.46 572.47,-273.21"/>
<polygon fill="#cccc33" stroke="black" points="574.19,-270.16 563.89,-267.67 570.39,-276.04 574.19,-270.16"/>
</g>
<!-- colorio -->
<g id="node16" class="node">
<title>colorio</title><style>.edge>path:hover{stroke-width:8}</style>
<polygon fill="#40c040" stroke="black" points="684.67,-578.56 681.67,-582.56 660.67,-582.56 657.67,-578.56 630.67,-578.56 630.67,-542.56 684.67,-542.56 684.67,-578.56"/>
<text text-anchor="middle" x="657.67" y="-558.06" font-family="Helvetica,sans-Serif" font-size="10.00" fill="#000000">colorio</text>
</g>
<!-- colorio&#45;&gt;Backend_Color -->
<g id="edge42" class="edge">
<title>colorio&#45;&gt;Backend_Color</title><style>.edge>path:hover{stroke-width:8}</style>
<path fill="none" stroke="black" d="M681.91,-542.55C697.86,-529.12 715.33,-508.92 712.67,-486.35"/>
<path fill="none" stroke="black" d="M712.67,-484.35C710.29,-464.23 697.62,-445.37 685.38,-431.42"/>
<polygon fill="#40c040" stroke="black" points="687.67,-428.74 678.3,-423.8 682.54,-433.51 687.67,-428.74"/>
</g>
<!-- numexpr -->
<g id="node17" class="node">
<title>numexpr</title><style>.edge>path:hover{stroke-width:8}</style>
<polygon fill="#40bfc0" stroke="black" points="629.67,-650.56 626.67,-654.56 605.67,-654.56 602.67,-650.56 575.67,-650.56 575.67,-614.56 629.67,-614.56 629.67,-650.56"/>
<text text-anchor="middle" x="602.67" y="-630.06" font-family="Helvetica,sans-Serif" font-size="10.00" fill="#000000">numexpr</text>
</g>
<!-- numexpr&#45;&gt;Backend_Misc -->
<g id="edge43" class="edge">
<title>numexpr&#45;&gt;Backend_Misc</title><style>.edge>path:hover{stroke-width:8}</style>
<path fill="none" stroke="black" d="M604.57,-614.39C605.71,-600.1 606.31,-579.3 602.67,-561.56"/>
<path fill="none" stroke="black" d="M602.67,-559.56C599.44,-543.82 603.63,-526.41 608.89,-512.52"/>
<polygon fill="#40bfc0" stroke="black" points="612.2,-513.67 612.82,-503.1 605.74,-510.98 612.2,-513.67"/>
</g>
<!-- numpy -->
<g id="node18" class="node">
<title>numpy</title><style>.edge>path:hover{stroke-width:8}</style>
<polygon fill="#0606f9" stroke="black" points="557.67,-722.56 554.67,-726.56 533.67,-726.56 530.67,-722.56 503.67,-722.56 503.67,-686.56 557.67,-686.56 557.67,-722.56"/>
<text text-anchor="middle" x="530.67" y="-702.06" font-family="Helvetica,sans-Serif" font-size="10.00" fill="#ffffff">numpy</text>
</g>
<!-- numpy&#45;&gt;Backend_Color -->
<g id="edge44" class="edge">
<title>numpy&#45;&gt;Backend_Color</title><style>.edge>path:hover{stroke-width:8}</style>
<path fill="none" stroke="black" d="M712.67,-631.56C733.24,-606.7 716.45,-518.39 712.67,-486.35"/>
</g>
<!-- numpy&#45;&gt;Backend_Detector -->
<g id="edge45" class="edge">
<title>numpy&#45;&gt;Backend_Detector</title><style>.edge>path:hover{stroke-width:8}</style>
<path fill="none" stroke="black" d="M260.67,-405.92C277.1,-364.41 258.1,-346.37 279.67,-307.28 286.64,-294.63 297.48,-283.2 308.04,-274"/>
<polygon fill="#0606f9" stroke="black" points="310.52,-276.49 315.98,-267.41 306.05,-271.1 310.52,-276.49"/>
</g>
<!-- numpy&#45;&gt;Backend_Filter -->
<g id="edge46" class="edge">
<title>numpy&#45;&gt;Backend_Filter</title><style>.edge>path:hover{stroke-width:8}</style>
<path fill="none" stroke="black" d="M198.67,-559.56C181.15,-532.13 204.99,-518.26 198.67,-486.35"/>
<path fill="none" stroke="black" d="M198.67,-484.35C196.27,-472.25 189.63,-471.39 179.67,-464.13 140,-435.25 111.24,-449.16 84.67,-407.92"/>
<path fill="none" stroke="black" d="M84.67,-405.92C64.12,-374.03 52.43,-366.99 46.67,-329.49"/>
<path fill="none" stroke="black" d="M46.67,-327.49C43.83,-309.03 52.86,-290.12 62.71,-275.73"/>
<polygon fill="#0606f9" stroke="black" points="65.74,-277.53 68.85,-267.4 60.1,-273.37 65.74,-277.53"/>
</g>
<!-- numpy&#45;&gt;Backend_Image -->
<g id="edge47" class="edge">
<title>numpy&#45;&gt;Backend_Image</title><style>.edge>path:hover{stroke-width:8}</style>
<path fill="none" stroke="black" d="M712.67,-631.56C743.05,-595.95 778.13,-617.78 803.67,-578.56 845.3,-514.61 840.12,-482.21 822.67,-407.92"/>
<path fill="none" stroke="black" d="M822.67,-405.92C815.34,-382.78 795.83,-363.66 778.15,-350.34"/>
<polygon fill="#0606f9" stroke="black" points="779.85,-347.25 769.69,-344.27 775.77,-352.94 779.85,-347.25"/>
</g>
<!-- numpy&#45;&gt;Backend_Lens -->
<g id="edge48" class="edge">
<title>numpy&#45;&gt;Backend_Lens</title><style>.edge>path:hover{stroke-width:8}</style>
<path fill="none" stroke="black" d="M84.67,-405.92C59.08,-368.76 79.83,-341.98 108.67,-307.28 127.68,-284.4 157.94,-270.46 183.92,-262.19"/>
<polygon fill="#0606f9" stroke="black" points="185.06,-265.5 193.64,-259.28 183.05,-258.79 185.06,-265.5"/>
</g>
<!-- numpy&#45;&gt;Backend_Misc -->
<g id="edge49" class="edge">
<title>numpy&#45;&gt;Backend_Misc</title><style>.edge>path:hover{stroke-width:8}</style>
<path fill="none" stroke="black" d="M557.98,-701.25C598.38,-696.29 673.49,-680.89 712.67,-633.56"/>
<path fill="none" stroke="black" d="M712.67,-631.56C749.61,-586.92 614.32,-618.32 602.67,-561.56"/>
</g>
<!-- numpy&#45;&gt;Backend_RaySource -->
<g id="edge50" class="edge">
<title>numpy&#45;&gt;Backend_RaySource</title><style>.edge>path:hover{stroke-width:8}</style>
<path fill="none" stroke="black" d="M822.67,-405.92C812.41,-373.54 839.95,-358.73 822.67,-329.49"/>
<path fill="none" stroke="black" d="M822.67,-327.49C816.39,-316.88 814.41,-313.32 803.67,-307.28 737.63,-270.14 649.83,-257.48 593.52,-253.19"/>
<polygon fill="#0606f9" stroke="black" points="593.61,-249.69 583.39,-252.49 593.12,-256.67 593.61,-249.69"/>
</g>
<!-- numpy&#45;&gt;Backend_RayStorage -->
<g id="edge51" class="edge">
<title>numpy&#45;&gt;Backend_RayStorage</title><style>.edge>path:hover{stroke-width:8}</style>
<path fill="none" stroke="black" d="M822.67,-327.49C805.38,-298.25 838.6,-281.07 822.67,-251.07"/>
<path fill="none" stroke="black" d="M822.67,-249.07C822.38,-248.53 705.79,-210.31 638.02,-188.13"/>
<polygon fill="#0606f9" stroke="black" points="638.99,-184.76 628.4,-184.98 636.81,-191.42 638.99,-184.76"/>
</g>
<!-- numpy&#45;&gt;Backend_Raytracer -->
<g id="edge52" class="edge">
<title>numpy&#45;&gt;Backend_Raytracer</title><style>.edge>path:hover{stroke-width:8}</style>
<path fill="none" stroke="black" d="M822.67,-249.07C769.21,-148.41 626.75,-112.51 550.12,-100.23"/>
<polygon fill="#0606f9" stroke="black" points="550.62,-96.77 540.21,-98.72 549.57,-103.69 550.62,-96.77"/>
</g>
<!-- numpy&#45;&gt;Backend_RefractionIndex -->
<g id="edge53" class="edge">
<title>numpy&#45;&gt;Backend_RefractionIndex</title><style>.edge>path:hover{stroke-width:8}</style>
<path fill="none" stroke="black" d="M260.67,-405.92C269.64,-383.26 289.67,-365.08 308.46,-352.15"/>
<polygon fill="#0606f9" stroke="black" points="310.52,-354.99 316.96,-346.58 306.68,-349.13 310.52,-354.99"/>
</g>
<!-- numpy&#45;&gt;Backend_SObject -->
<g id="edge54" class="edge">
<title>numpy&#45;&gt;Backend_SObject</title><style>.edge>path:hover{stroke-width:8}</style>
<path fill="none" stroke="black" d="M198.67,-484.35C190.17,-441.44 244.57,-448.59 260.67,-407.92"/>
<path fill="none" stroke="black" d="M260.67,-405.92C269.63,-383.28 249.51,-363.09 228.73,-349.16"/>
<polygon fill="#0606f9" stroke="black" points="230.5,-346.14 220.17,-343.76 226.77,-352.06 230.5,-346.14"/>
</g>
<!-- numpy&#45;&gt;Backend_Surface -->
<g id="edge55" class="edge">
<title>numpy&#45;&gt;Backend_Surface</title><style>.edge>path:hover{stroke-width:8}</style>
<path fill="none" stroke="black" d="M198.67,-484.35C195.1,-466.33 185.09,-448.52 175.42,-434.63"/>
<polygon fill="#0606f9" stroke="black" points="178.22,-432.53 169.5,-426.52 172.56,-436.66 178.22,-432.53"/>
</g>
<!-- numpy&#45;&gt;Backend_SurfaceFunction -->
<g id="edge56" class="edge">
<title>numpy&#45;&gt;Backend_SurfaceFunction</title><style>.edge>path:hover{stroke-width:8}</style>
<path fill="none" stroke="black" d="M503.43,-703.71C430.39,-702.4 233.35,-687.09 198.67,-561.56"/>
<path fill="none" stroke="black" d="M198.67,-559.56C185.9,-539.57 165.84,-522.48 147.9,-509.86"/>
<polygon fill="#0606f9" stroke="black" points="149.54,-506.74 139.3,-504.02 145.61,-512.53 149.54,-506.74"/>
</g>
<!-- numpy&#45;&gt;PIL -->
<g id="edge57" class="edge">
<title>numpy&#45;&gt;PIL</title><style>.edge>path:hover{stroke-width:8}</style>
<path fill="none" stroke="black" d="M712.67,-631.56C724.71,-617.01 737.79,-600.39 748.17,-587"/>
<polygon fill="#0606f9" stroke="black" points="751.22,-588.78 754.57,-578.72 745.68,-584.5 751.22,-588.78"/>
</g>
<!-- scipy -->
<g id="node19" class="node">
<title>scipy</title><style>.edge>path:hover{stroke-width:8}</style>
<polygon fill="#ef06ef" stroke="black" points="557.67,-650.56 554.67,-654.56 533.67,-654.56 530.67,-650.56 503.67,-650.56 503.67,-614.56 557.67,-614.56 557.67,-650.56"/>
<text text-anchor="middle" x="530.67" y="-630.06" font-family="Helvetica,sans-Serif" font-size="10.00" fill="#ffffff">scipy</text>
</g>
<!-- numpy&#45;&gt;scipy -->
<g id="edge58" class="edge">
<title>numpy&#45;&gt;scipy</title><style>.edge>path:hover{stroke-width:8}</style>
<path fill="none" stroke="black" d="M530.67,-686.26C530.67,-678.54 530.67,-669.27 530.67,-660.67"/>
<polygon fill="#0606f9" stroke="black" points="534.17,-660.66 530.67,-650.66 527.17,-660.66 534.17,-660.66"/>
</g>
<!-- scipy&#45;&gt;Backend_Misc -->
<g id="edge59" class="edge">
<title>scipy&#45;&gt;Backend_Misc</title><style>.edge>path:hover{stroke-width:8}</style>
<path fill="none" stroke="black" d="M546.67,-559.56C554.33,-537.94 572.62,-519.87 589.22,-507.08"/>
<polygon fill="#ef06ef" stroke="black" points="591.68,-509.62 597.69,-500.89 587.55,-503.97 591.68,-509.62"/>
</g>
<!-- scipy&#45;&gt;Backend_RaySource -->
<g id="edge60" class="edge">
<title>scipy&#45;&gt;Backend_RaySource</title><style>.edge>path:hover{stroke-width:8}</style>
<path fill="none" stroke="black" d="M546.67,-484.35C536.57,-440.37 557.75,-428.94 570.67,-385.71 578.25,-360.3 599.5,-354.5 590.67,-329.49"/>
<path fill="none" stroke="black" d="M590.67,-327.49C583.7,-309.69 571.83,-292 561.1,-278.13"/>
<polygon fill="#ef06ef" stroke="black" points="563.59,-275.65 554.61,-270.02 558.12,-280.02 563.59,-275.65"/>
</g>
<!-- scipy&#45;&gt;Backend_Raytracer -->
<g id="edge61" class="edge">
<title>scipy&#45;&gt;Backend_Raytracer</title><style>.edge>path:hover{stroke-width:8}</style>
<path fill="none" stroke="black" d="M470.67,-405.92C446.49,-362.36 567.99,-376.9 552.67,-329.49"/>
<path fill="none" stroke="black" d="M552.67,-327.49C540.39,-289.53 510.41,-299.95 482.67,-271.28 444.56,-231.89 381.12,-220.02 408.67,-172.64"/>
</g>
<!-- scipy&#45;&gt;Backend_RefractionIndex -->
<g id="edge62" class="edge">
<title>scipy&#45;&gt;Backend_RefractionIndex</title><style>.edge>path:hover{stroke-width:8}</style>
<path fill="none" stroke="black" d="M533.41,-614.56C536,-600.19 540.42,-579.18 546.67,-561.56"/>
<path fill="none" stroke="black" d="M546.67,-559.56C557.54,-528.89 553.94,-518.06 546.67,-486.35"/>
<path fill="none" stroke="black" d="M546.67,-484.35C535.95,-437.66 493.91,-449.8 470.67,-407.92"/>
<path fill="none" stroke="black" d="M470.67,-405.92C455.74,-379.02 426.95,-360.27 401.2,-348.07"/>
<polygon fill="#ef06ef" stroke="black" points="402.44,-344.79 391.88,-343.87 399.56,-351.17 402.44,-344.79"/>
</g>
</g>
</svg>
