<?xml version="1.0" encoding="UTF-8" standalone="no"?>
<!DOCTYPE svg PUBLIC "-//W3C//DTD SVG 1.1//EN"
 "http://www.w3.org/Graphics/SVG/1.1/DTD/svg11.dtd">
<!-- Generated by graphviz version 2.50.0 (0)
 -->
<!-- Title: G Pages: 1 -->
<svg width="892pt" height="652pt"
 viewBox="0.00 0.00 891.91 652.13" xmlns="http://www.w3.org/2000/svg" xmlns:xlink="http://www.w3.org/1999/xlink">
<g id="graph0" class="graph" transform="scale(1 1) rotate(0) translate(4 648.13)">
<title>G</title><style>.edge>path:hover{stroke-width:8}</style>
<polygon fill="white" stroke="transparent" points="-4,4 -4,-648.13 887.91,-648.13 887.91,4 -4,4"/>
<!-- Backend -->
<g id="node1" class="node">
<title>Backend</title><style>.edge>path:hover{stroke-width:8}</style>
<ellipse fill="#9f0404" stroke="black" cx="420.86" cy="-18" rx="32.25" ry="18"/>
<text text-anchor="middle" x="420.86" y="-15.5" font-family="Helvetica,sans-Serif" font-size="10.00" fill="#ffffff">Backend</text>
</g>
<!-- Backend_Color -->
<g id="node2" class="node">
<title>Backend_Color</title><style>.edge>path:hover{stroke-width:8}</style>
<ellipse fill="#b62020" stroke="black" cx="279.86" cy="-328.49" rx="47.86" ry="18"/>
<text text-anchor="middle" x="279.86" y="-325.99" font-family="Helvetica,sans-Serif" font-size="10.00" fill="#ffffff">Backend.Color</text>
</g>
<!-- Backend_Filter -->
<g id="node4" class="node">
<title>Backend_Filter</title><style>.edge>path:hover{stroke-width:8}</style>
<ellipse fill="#b42d2d" stroke="black" cx="236.86" cy="-250.07" rx="47.19" ry="18"/>
<text text-anchor="middle" x="236.86" y="-247.57" font-family="Helvetica,sans-Serif" font-size="10.00" fill="#ffffff">Backend.Filter</text>
</g>
<!-- Backend_Color&#45;&gt;Backend_Filter -->
<g id="edge1" class="edge">
<title>Backend_Color&#45;&gt;Backend_Filter</title><style>.edge>path:hover{stroke-width:8}</style>
<path fill="none" stroke="black" d="M270.32,-310.53C264.71,-300.57 257.52,-287.78 251.24,-276.61"/>
<polygon fill="#b62020" stroke="black" points="254.18,-274.72 246.23,-267.72 248.08,-278.15 254.18,-274.72"/>
</g>
<!-- Backend_Image -->
<g id="node5" class="node">
<title>Backend_Image</title><style>.edge>path:hover{stroke-width:8}</style>
<ellipse fill="#b42d2d" stroke="black" cx="389.86" cy="-250.07" rx="50.07" ry="18"/>
<text text-anchor="middle" x="389.86" y="-247.57" font-family="Helvetica,sans-Serif" font-size="10.00" fill="#ffffff">Backend.Image</text>
</g>
<!-- Backend_Color&#45;&gt;Backend_Image -->
<g id="edge2" class="edge">
<title>Backend_Color&#45;&gt;Backend_Image</title><style>.edge>path:hover{stroke-width:8}</style>
<path fill="none" stroke="black" d="M301.59,-312.39C318.06,-300.95 340.9,-285.09 359.22,-272.36"/>
<polygon fill="#b62020" stroke="black" points="361.58,-274.98 367.8,-266.4 357.59,-269.23 361.58,-274.98"/>
</g>
<!-- Backend_RaySource -->
<g id="node8" class="node">
<title>Backend_RaySource</title><style>.edge>path:hover{stroke-width:8}</style>
<ellipse fill="#821717" stroke="black" cx="617.86" cy="-250.07" rx="45.92" ry="21.43"/>
<text text-anchor="middle" x="617.86" y="-253.07" font-family="Helvetica,sans-Serif" font-size="10.00" fill="#ffffff">Backend.</text>
<text text-anchor="middle" x="617.86" y="-242.07" font-family="Helvetica,sans-Serif" font-size="10.00" fill="#ffffff">RaySource</text>
</g>
<!-- Backend_Color&#45;&gt;Backend_RaySource -->
<g id="edge3" class="edge">
<title>Backend_Color&#45;&gt;Backend_RaySource</title><style>.edge>path:hover{stroke-width:8}</style>
<path fill="none" stroke="black" d="M319.63,-318.5C381.29,-304.56 499.89,-277.74 567.47,-262.46"/>
<polygon fill="#b62020" stroke="black" points="568.48,-265.82 577.46,-260.2 566.93,-258.99 568.48,-265.82"/>
</g>
<!-- Backend_Detector -->
<g id="node3" class="node">
<title>Backend_Detector</title><style>.edge>path:hover{stroke-width:8}</style>
<ellipse fill="#b42d2d" stroke="black" cx="92.86" cy="-250.07" rx="41.02" ry="21.43"/>
<text text-anchor="middle" x="92.86" y="-253.07" font-family="Helvetica,sans-Serif" font-size="10.00" fill="#ffffff">Backend.</text>
<text text-anchor="middle" x="92.86" y="-242.07" font-family="Helvetica,sans-Serif" font-size="10.00" fill="#ffffff">Detector</text>
</g>
<!-- Backend_Detector&#45;&gt;Backend -->
<g id="edge4" class="edge">
<title>Backend_Detector&#45;&gt;Backend</title><style>.edge>path:hover{stroke-width:8}</style>
<path fill="none" stroke="black" d="M108.78,-230.34C122.43,-214.54 142.85,-191.55 161.86,-172.64"/>
</g>
<!-- Backend_Raytracer -->
<g id="node10" class="node">
<title>Backend_Raytracer</title><style>.edge>path:hover{stroke-width:8}</style>
<ellipse fill="#732626" stroke="black" cx="420.86" cy="-93.21" rx="41.94" ry="21.43"/>
<text text-anchor="middle" x="420.86" y="-96.21" font-family="Helvetica,sans-Serif" font-size="10.00" fill="#ffffff">Backend.</text>
<text text-anchor="middle" x="420.86" y="-85.21" font-family="Helvetica,sans-Serif" font-size="10.00" fill="#ffffff">Raytracer</text>
</g>
<!-- Backend_Detector&#45;&gt;Backend_Raytracer -->
<g id="edge5" class="edge">
<title>Backend_Detector&#45;&gt;Backend_Raytracer</title><style>.edge>path:hover{stroke-width:8}</style>
<path fill="none" stroke="black" d="M128.53,-239.52C182.67,-224.56 282.43,-194.98 311.86,-172.64"/>
<path fill="none" stroke="black" d="M311.86,-170.64C323.24,-162 325.36,-158.9 336.86,-150.43 352.92,-138.6 371.29,-126.19 386.74,-116.05"/>
<polygon fill="#b42d2d" stroke="black" points="389,-118.75 395.46,-110.36 385.17,-112.89 389,-118.75"/>
</g>
<!-- Backend_Filter&#45;&gt;Backend -->
<g id="edge6" class="edge">
<title>Backend_Filter&#45;&gt;Backend</title><style>.edge>path:hover{stroke-width:8}</style>
<path fill="none" stroke="black" d="M207.99,-235.72C178.48,-220.39 139.85,-194.54 161.86,-172.64"/>
</g>
<!-- Backend_Filter&#45;&gt;Backend_Raytracer -->
<g id="edge7" class="edge">
<title>Backend_Filter&#45;&gt;Backend_Raytracer</title><style>.edge>path:hover{stroke-width:8}</style>
<path fill="none" stroke="black" d="M250.33,-232.78C264.5,-216.3 288.02,-190.74 311.86,-172.64"/>
</g>
<!-- Backend_Image&#45;&gt;Backend -->
<g id="edge8" class="edge">
<title>Backend_Image&#45;&gt;Backend</title><style>.edge>path:hover{stroke-width:8}</style>
<path fill="none" stroke="black" d="M376.02,-232.68C364.99,-217.98 351.33,-195.28 350.86,-172.64"/>
<path fill="none" stroke="black" d="M350.86,-170.64C350.15,-136.68 326.17,-117.54 350.86,-94.21"/>
</g>
<!-- Backend_Image&#45;&gt;Backend_Raytracer -->
<g id="edge9" class="edge">
<title>Backend_Image&#45;&gt;Backend_Raytracer</title><style>.edge>path:hover{stroke-width:8}</style>
<path fill="none" stroke="black" d="M350.86,-170.64C350.38,-147.76 367.66,-128.75 385.17,-115.41"/>
<polygon fill="#b42d2d" stroke="black" points="387.59,-117.98 393.7,-109.33 383.53,-112.28 387.59,-117.98"/>
</g>
<!-- Backend_Lens -->
<g id="node6" class="node">
<title>Backend_Lens</title><style>.edge>path:hover{stroke-width:8}</style>
<ellipse fill="#b42d2d" stroke="black" cx="766.86" cy="-250.07" rx="46.51" ry="18"/>
<text text-anchor="middle" x="766.86" y="-247.57" font-family="Helvetica,sans-Serif" font-size="10.00" fill="#ffffff">Backend.Lens</text>
</g>
<!-- Backend_Lens&#45;&gt;Backend -->
<g id="edge10" class="edge">
<title>Backend_Lens&#45;&gt;Backend</title><style>.edge>path:hover{stroke-width:8}</style>
<path fill="none" stroke="black" d="M761.69,-231.93C757.76,-215.27 754.85,-189.99 766.86,-172.64"/>
</g>
<!-- Backend_Lens&#45;&gt;Backend_Raytracer -->
<g id="edge11" class="edge">
<title>Backend_Lens&#45;&gt;Backend_Raytracer</title><style>.edge>path:hover{stroke-width:8}</style>
<path fill="none" stroke="black" d="M748.85,-233.22C732.75,-218.5 709.11,-195.49 691.86,-172.64"/>
</g>
<!-- Backend_Misc -->
<g id="node7" class="node">
<title>Backend_Misc</title><style>.edge>path:hover{stroke-width:8}</style>
<ellipse fill="#d10505" stroke="black" cx="430.86" cy="-406.92" rx="46.51" ry="18"/>
<text text-anchor="middle" x="430.86" y="-404.42" font-family="Helvetica,sans-Serif" font-size="10.00" fill="#ffffff">Backend.Misc</text>
</g>
<!-- Backend_Misc&#45;&gt;Backend_Color -->
<g id="edge12" class="edge">
<title>Backend_Misc&#45;&gt;Backend_Color</title><style>.edge>path:hover{stroke-width:8}</style>
<path fill="none" stroke="black" d="M403.87,-392.26C379.43,-379.89 343.24,-361.57 316.26,-347.91"/>
<polygon fill="#d10505" stroke="black" points="317.64,-344.69 307.13,-343.3 314.47,-350.93 317.64,-344.69"/>
</g>
<!-- Backend_Misc&#45;&gt;Backend_Image -->
<g id="edge13" class="edge">
<title>Backend_Misc&#45;&gt;Backend_Image</title><style>.edge>path:hover{stroke-width:8}</style>
<path fill="none" stroke="black" d="M444.33,-389.42C455.01,-374.64 468.09,-351.9 467.86,-329.49"/>
<path fill="none" stroke="black" d="M467.86,-327.49C467.61,-302.72 447.29,-283.33 427.46,-270.27"/>
<polygon fill="#d10505" stroke="black" points="429.1,-267.17 418.76,-264.9 425.42,-273.13 429.1,-267.17"/>
</g>
<!-- Backend_Misc&#45;&gt;Backend_RaySource -->
<g id="edge14" class="edge">
<title>Backend_Misc&#45;&gt;Backend_RaySource</title><style>.edge>path:hover{stroke-width:8}</style>
<path fill="none" stroke="black" d="M449.82,-390.22C482.5,-363.16 549.66,-307.54 588.45,-275.42"/>
<polygon fill="#d10505" stroke="black" points="590.81,-278.01 596.28,-268.94 586.34,-272.62 590.81,-278.01"/>
</g>
<!-- Backend_RaySourceList -->
<g id="node9" class="node">
<title>Backend_RaySourceList</title><style>.edge>path:hover{stroke-width:8}</style>
<ellipse fill="#a13535" stroke="black" cx="505.86" cy="-171.64" rx="57.05" ry="21.43"/>
<text text-anchor="middle" x="505.86" y="-174.64" font-family="Helvetica,sans-Serif" font-size="10.00" fill="#ffffff">Backend.</text>
<text text-anchor="middle" x="505.86" y="-163.64" font-family="Helvetica,sans-Serif" font-size="10.00" fill="#ffffff">RaySourceList</text>
</g>
<!-- Backend_Misc&#45;&gt;Backend_RaySourceList -->
<g id="edge15" class="edge">
<title>Backend_Misc&#45;&gt;Backend_RaySourceList</title><style>.edge>path:hover{stroke-width:8}</style>
<path fill="none" stroke="black" d="M467.86,-249.07C467.37,-231.81 475.19,-214.44 483.86,-200.62"/>
<polygon fill="#d10505" stroke="black" points="486.92,-202.34 489.61,-192.1 481.12,-198.43 486.92,-202.34"/>
</g>
<!-- Backend_Misc&#45;&gt;Backend_Raytracer -->
<g id="edge16" class="edge">
<title>Backend_Misc&#45;&gt;Backend_Raytracer</title><style>.edge>path:hover{stroke-width:8}</style>
<path fill="none" stroke="black" d="M467.86,-327.49C467.51,-293.53 468.84,-285.02 467.86,-251.07"/>
<path fill="none" stroke="black" d="M467.86,-249.07C466.72,-209.21 434.53,-210.1 420.86,-172.64"/>
<path fill="none" stroke="black" d="M420.86,-170.64C415.61,-156.24 415.1,-139.27 416.12,-124.98"/>
<polygon fill="#d10505" stroke="black" points="419.64,-124.96 417.14,-114.66 412.67,-124.27 419.64,-124.96"/>
</g>
<!-- Backend_Surface -->
<g id="node12" class="node">
<title>Backend_Surface</title><style>.edge>path:hover{stroke-width:8}</style>
<ellipse fill="#d10505" stroke="black" cx="172.86" cy="-328.49" rx="41.02" ry="21.43"/>
<text text-anchor="middle" x="172.86" y="-331.49" font-family="Helvetica,sans-Serif" font-size="10.00" fill="#ffffff">Backend.</text>
<text text-anchor="middle" x="172.86" y="-320.49" font-family="Helvetica,sans-Serif" font-size="10.00" fill="#ffffff">Surface</text>
</g>
<!-- Backend_Misc&#45;&gt;Backend_Surface -->
<g id="edge17" class="edge">
<title>Backend_Misc&#45;&gt;Backend_Surface</title><style>.edge>path:hover{stroke-width:8}</style>
<path fill="none" stroke="black" d="M397.45,-394.31C388.53,-391.36 378.87,-388.3 369.86,-385.71 305.22,-367.11 286.87,-370.36 222.86,-349.71 219.6,-348.65 216.25,-347.49 212.9,-346.26"/>
<polygon fill="#d10505" stroke="black" points="214.14,-342.99 203.55,-342.7 211.65,-349.53 214.14,-342.99"/>
</g>
<!-- Backend_RaySource&#45;&gt;Backend -->
<g id="edge18" class="edge">
<title>Backend_RaySource&#45;&gt;Backend</title><style>.edge>path:hover{stroke-width:8}</style>
<path fill="none" stroke="black" d="M658.18,-239.77C692.95,-229.5 741.46,-209.33 766.86,-172.64"/>
<path fill="none" stroke="black" d="M766.86,-170.64C788.45,-139.45 828.97,-123.5 804.86,-94.21"/>
<path fill="none" stroke="black" d="M804.86,-92.21C761.97,-40.11 553.97,-24.77 463.28,-20.53"/>
<polygon fill="#821717" stroke="black" points="463.23,-17.02 453.08,-20.07 462.91,-24.01 463.23,-17.02"/>
</g>
<!-- Backend_RaySource&#45;&gt;Backend_RaySourceList -->
<g id="edge19" class="edge">
<title>Backend_RaySource&#45;&gt;Backend_RaySourceList</title><style>.edge>path:hover{stroke-width:8}</style>
<path fill="none" stroke="black" d="M593.01,-232.1C577.64,-221.62 557.69,-208 540.75,-196.45"/>
<polygon fill="#821717" stroke="black" points="542.44,-193.36 532.21,-190.62 538.5,-199.15 542.44,-193.36"/>
</g>
<!-- Backend_RaySource&#45;&gt;Backend_Raytracer -->
<g id="edge20" class="edge">
<title>Backend_RaySource&#45;&gt;Backend_Raytracer</title><style>.edge>path:hover{stroke-width:8}</style>
<path fill="none" stroke="black" d="M649.3,-234.56C676.72,-219.88 709.56,-196.08 691.86,-172.64"/>
<path fill="none" stroke="black" d="M691.86,-170.64C665.3,-135.45 541.62,-111.91 470.88,-101.07"/>
<polygon fill="#821717" stroke="black" points="471.25,-97.59 460.84,-99.56 470.21,-104.51 471.25,-97.59"/>
</g>
<!-- Backend_RaySourceList&#45;&gt;Backend_Raytracer -->
<g id="edge21" class="edge">
<title>Backend_RaySourceList&#45;&gt;Backend_Raytracer</title><style>.edge>path:hover{stroke-width:8}</style>
<path fill="none" stroke="black" d="M484.85,-151.75C473.8,-141.81 460.12,-129.51 448.25,-118.84"/>
<polygon fill="#a13535" stroke="black" points="450.53,-116.18 440.76,-112.1 445.85,-121.39 450.53,-116.18"/>
</g>
<!-- Backend_Raytracer&#45;&gt;Backend -->
<g id="edge22" class="edge">
<title>Backend_Raytracer&#45;&gt;Backend</title><style>.edge>path:hover{stroke-width:8}</style>
<path fill="none" stroke="black" d="M420.86,-71.82C420.86,-63.97 420.86,-54.86 420.86,-46.45"/>
<polygon fill="#732626" stroke="black" points="424.36,-46.31 420.86,-36.31 417.36,-46.31 424.36,-46.31"/>
</g>
<!-- Backend_RefractionIndex -->
<g id="node11" class="node">
<title>Backend_RefractionIndex</title><style>.edge>path:hover{stroke-width:8}</style>
<ellipse fill="#bf2121" stroke="black" cx="780.86" cy="-328.49" rx="60.62" ry="21.43"/>
<text text-anchor="middle" x="780.86" y="-331.49" font-family="Helvetica,sans-Serif" font-size="10.00" fill="#ffffff">Backend.</text>
<text text-anchor="middle" x="780.86" y="-320.49" font-family="Helvetica,sans-Serif" font-size="10.00" fill="#ffffff">RefractionIndex</text>
</g>
<!-- Backend_RefractionIndex&#45;&gt;Backend -->
<g id="edge23" class="edge">
<title>Backend_RefractionIndex&#45;&gt;Backend</title><style>.edge>path:hover{stroke-width:8}</style>
<path fill="none" stroke="black" d="M800.14,-308.25C808.89,-298.15 818.29,-285.04 822.86,-271.28 838.27,-224.91 827.7,-121.96 804.86,-94.21"/>
</g>
<!-- Backend_RefractionIndex&#45;&gt;Backend_Lens -->
<g id="edge24" class="edge">
<title>Backend_RefractionIndex&#45;&gt;Backend_Lens</title><style>.edge>path:hover{stroke-width:8}</style>
<path fill="none" stroke="black" d="M777.11,-307.01C775.51,-298.27 773.62,-287.95 771.9,-278.56"/>
<polygon fill="#bf2121" stroke="black" points="775.3,-277.7 770.05,-268.49 768.41,-278.96 775.3,-277.7"/>
</g>
<!-- Backend_RefractionIndex&#45;&gt;Backend_Raytracer -->
<g id="edge25" class="edge">
<title>Backend_RefractionIndex&#45;&gt;Backend_Raytracer</title><style>.edge>path:hover{stroke-width:8}</style>
<path fill="none" stroke="black" d="M746.14,-311.07C724.34,-298.33 699.03,-278.24 691.86,-251.07"/>
</g>
<!-- Backend_Surface&#45;&gt;Backend -->
<g id="edge26" class="edge">
<title>Backend_Surface&#45;&gt;Backend</title><style>.edge>path:hover{stroke-width:8}</style>
<path fill="none" stroke="black" d="M167.84,-307.31C159.04,-269.68 143.43,-190.98 161.86,-172.64"/>
</g>
<!-- Backend_Surface&#45;&gt;Backend_Detector -->
<g id="edge27" class="edge">
<title>Backend_Surface&#45;&gt;Backend_Detector</title><style>.edge>path:hover{stroke-width:8}</style>
<path fill="none" stroke="black" d="M153.9,-309.38C143.54,-299.48 130.55,-287.07 119.21,-276.24"/>
<polygon fill="#d10505" stroke="black" points="121.33,-273.42 111.68,-269.05 116.5,-278.49 121.33,-273.42"/>
</g>
<!-- Backend_Surface&#45;&gt;Backend_Filter -->
<g id="edge28" class="edge">
<title>Backend_Surface&#45;&gt;Backend_Filter</title><style>.edge>path:hover{stroke-width:8}</style>
<path fill="none" stroke="black" d="M188.68,-308.6C197.12,-298.53 207.59,-286.02 216.61,-275.24"/>
<polygon fill="#d10505" stroke="black" points="219.44,-277.32 223.18,-267.41 214.07,-272.83 219.44,-277.32"/>
</g>
<!-- Backend_Surface&#45;&gt;Backend_Lens -->
<g id="edge29" class="edge">
<title>Backend_Surface&#45;&gt;Backend_Lens</title><style>.edge>path:hover{stroke-width:8}</style>
<path fill="none" stroke="black" d="M202.51,-313.76C209.09,-311.21 216.11,-308.85 222.86,-307.28 432.49,-258.35 494.77,-313.45 705.86,-271.28 712.18,-270.02 718.75,-268.3 725.14,-266.39"/>
<polygon fill="#d10505" stroke="black" points="726.49,-269.63 734.97,-263.27 724.38,-262.96 726.49,-269.63"/>
</g>
<!-- Backend_Surface&#45;&gt;Backend_RaySource -->
<g id="edge30" class="edge">
<title>Backend_Surface&#45;&gt;Backend_RaySource</title><style>.edge>path:hover{stroke-width:8}</style>
<path fill="none" stroke="black" d="M202.84,-313.89C209.33,-311.36 216.24,-308.99 222.86,-307.28 351.61,-274.07 388.64,-292.73 519.86,-271.28 535.18,-268.77 551.75,-265.56 566.83,-262.43"/>
<polygon fill="#d10505" stroke="black" points="567.93,-265.77 577,-260.28 566.49,-258.92 567.93,-265.77"/>
</g>
<!-- Backend_Surface&#45;&gt;Backend_Raytracer -->
<g id="edge31" class="edge">
<title>Backend_Surface&#45;&gt;Backend_Raytracer</title><style>.edge>path:hover{stroke-width:8}</style>
<path fill="none" stroke="black" d="M204.15,-314.58C237.69,-300.47 286.96,-278.86 292.86,-271.28 320.29,-236.05 276.3,-199.63 311.86,-172.64"/>
</g>
<!-- Backend_SurfaceFunction -->
<g id="node13" class="node">
<title>Backend_SurfaceFunction</title><style>.edge>path:hover{stroke-width:8}</style>
<ellipse fill="#cc3333" stroke="black" cx="82.86" cy="-406.92" rx="62.45" ry="21.43"/>
<text text-anchor="middle" x="82.86" y="-409.92" font-family="Helvetica,sans-Serif" font-size="10.00" fill="#ffffff">Backend.</text>
<text text-anchor="middle" x="82.86" y="-398.92" font-family="Helvetica,sans-Serif" font-size="10.00" fill="#ffffff">SurfaceFunction</text>
</g>
<!-- Backend_SurfaceFunction&#45;&gt;Backend -->
<g id="edge32" class="edge">
<title>Backend_SurfaceFunction&#45;&gt;Backend</title><style>.edge>path:hover{stroke-width:8}</style>
<path fill="none" stroke="black" d="M69.35,-385.95C47.78,-351.32 11.07,-279.03 42.86,-228.85 74.17,-179.44 120.18,-213.67 161.86,-172.64"/>
<path fill="none" stroke="black" d="M161.86,-170.64C225.3,-105.94 285,-156.44 350.86,-94.21"/>
<path fill="none" stroke="black" d="M350.86,-92.21C359.82,-83.75 361.36,-80.93 369.86,-72 379.35,-62.02 389.89,-51.05 398.92,-41.69"/>
<polygon fill="#cc3333" stroke="black" points="401.66,-43.89 406.08,-34.26 396.62,-39.03 401.66,-43.89"/>
</g>
<!-- Backend_SurfaceFunction&#45;&gt;Backend_Surface -->
<g id="edge33" class="edge">
<title>Backend_SurfaceFunction&#45;&gt;Backend_Surface</title><style>.edge>path:hover{stroke-width:8}</style>
<path fill="none" stroke="black" d="M105.11,-387.03C116.89,-377.02 131.51,-364.61 144.14,-353.88"/>
<polygon fill="#cc3333" stroke="black" points="146.75,-356.26 152.1,-347.12 142.22,-350.92 146.75,-356.26"/>
</g>
<!-- PIL -->
<g id="node14" class="node">
<title>PIL</title><style>.edge>path:hover{stroke-width:8}</style>
<polygon fill="#cccc33" stroke="black" points="663.86,-500.13 660.86,-504.13 639.86,-504.13 636.86,-500.13 609.86,-500.13 609.86,-464.13 663.86,-464.13 663.86,-500.13"/>
<text text-anchor="middle" x="636.86" y="-479.63" font-family="Helvetica,sans-Serif" font-size="10.00" fill="#000000">PIL</text>
</g>
<!-- PIL&#45;&gt;Backend_RaySource -->
<g id="edge34" class="edge">
<title>PIL&#45;&gt;Backend_RaySource</title><style>.edge>path:hover{stroke-width:8}</style>
<path fill="none" stroke="black" d="M643.61,-463.93C648.7,-449.25 654.67,-427.48 653.86,-407.92"/>
</g>
<!-- colorio -->
<g id="node15" class="node">
<title>colorio</title><style>.edge>path:hover{stroke-width:8}</style>
<polygon fill="#40c040" stroke="black" points="306.86,-500.13 303.86,-504.13 282.86,-504.13 279.86,-500.13 252.86,-500.13 252.86,-464.13 306.86,-464.13 306.86,-500.13"/>
<text text-anchor="middle" x="279.86" y="-479.63" font-family="Helvetica,sans-Serif" font-size="10.00" fill="#000000">colorio</text>
</g>
<!-- colorio&#45;&gt;Backend_Color -->
<g id="edge35" class="edge">
<title>colorio&#45;&gt;Backend_Color</title><style>.edge>path:hover{stroke-width:8}</style>
<path fill="none" stroke="black" d="M279.86,-464.03C279.86,-437.98 279.86,-388.1 279.86,-356.93"/>
<polygon fill="#40c040" stroke="black" points="283.36,-356.76 279.86,-346.76 276.36,-356.76 283.36,-356.76"/>
</g>
<!-- numexpr -->
<g id="node16" class="node">
<title>numexpr</title><style>.edge>path:hover{stroke-width:8}</style>
<polygon fill="#06f9f9" stroke="black" points="513.86,-572.13 510.86,-576.13 489.86,-576.13 486.86,-572.13 459.86,-572.13 459.86,-536.13 513.86,-536.13 513.86,-572.13"/>
<text text-anchor="middle" x="486.86" y="-551.63" font-family="Helvetica,sans-Serif" font-size="10.00" fill="#000000">numexpr</text>
</g>
<!-- numexpr&#45;&gt;Backend_Color -->
<g id="edge36" class="edge">
<title>numexpr&#45;&gt;Backend_Color</title><style>.edge>path:hover{stroke-width:8}</style>
<path fill="none" stroke="black" d="M210.86,-405.92C207.15,-382.38 226.01,-362.64 244.94,-349.12"/>
<polygon fill="#06f9f9" stroke="black" points="246.92,-352.01 253.27,-343.53 243.02,-346.19 246.92,-352.01"/>
</g>
<!-- numexpr&#45;&gt;Backend_Detector -->
<g id="edge37" class="edge">
<title>numexpr&#45;&gt;Backend_Detector</title><style>.edge>path:hover{stroke-width:8}</style>
<path fill="none" stroke="black" d="M459.84,-548.75C399.97,-538.84 260.12,-514.42 243.86,-500.13 211.16,-471.4 217.63,-450.92 210.86,-407.92"/>
<path fill="none" stroke="black" d="M210.86,-405.92C206.84,-392.56 198.32,-393.65 186.86,-385.71 160.04,-367.11 143.3,-375.15 122.86,-349.71 107.13,-330.13 99.63,-302.38 96.07,-281.3"/>
<polygon fill="#06f9f9" stroke="black" points="99.51,-280.64 94.58,-271.26 92.58,-281.67 99.51,-280.64"/>
</g>
<!-- numexpr&#45;&gt;Backend_Misc -->
<g id="edge38" class="edge">
<title>numexpr&#45;&gt;Backend_Misc</title><style>.edge>path:hover{stroke-width:8}</style>
<path fill="none" stroke="black" d="M486.54,-536.03C485.34,-520.39 481.2,-497.55 467.86,-483.13"/>
<path fill="none" stroke="black" d="M467.86,-481.13C455.52,-467.8 446.3,-449.57 440.14,-434.64"/>
<polygon fill="#06f9f9" stroke="black" points="443.25,-432.99 436.37,-424.93 436.73,-435.52 443.25,-432.99"/>
</g>
<!-- numexpr&#45;&gt;Backend_RaySource -->
<g id="edge39" class="edge">
<title>numexpr&#45;&gt;Backend_RaySource</title><style>.edge>path:hover{stroke-width:8}</style>
<path fill="none" stroke="black" d="M509.8,-536.02C528.97,-521.76 557.09,-500.97 581.86,-483.13"/>
<path fill="none" stroke="black" d="M581.86,-481.13C586.49,-477.8 654.1,-413.62 653.86,-407.92"/>
<path fill="none" stroke="black" d="M653.86,-405.92C652.02,-361.57 638.29,-311.83 628.33,-280.97"/>
<polygon fill="#06f9f9" stroke="black" points="631.58,-279.66 625.12,-271.27 624.93,-281.86 631.58,-279.66"/>
</g>
<!-- numexpr&#45;&gt;Backend_RaySourceList -->
<g id="edge40" class="edge">
<title>numexpr&#45;&gt;Backend_RaySourceList</title><style>.edge>path:hover{stroke-width:8}</style>
<path fill="none" stroke="black" d="M491.53,-536.09C503.53,-489.57 532.66,-356.75 505.86,-251.07"/>
<path fill="none" stroke="black" d="M505.86,-249.07C501.16,-234.47 500.7,-217.48 501.62,-203.23"/>
<polygon fill="#06f9f9" stroke="black" points="505.13,-203.23 502.53,-192.96 498.16,-202.61 505.13,-203.23"/>
</g>
<!-- numexpr&#45;&gt;Backend_Raytracer -->
<g id="edge41" class="edge">
<title>numexpr&#45;&gt;Backend_Raytracer</title><style>.edge>path:hover{stroke-width:8}</style>
<path fill="none" stroke="black" d="M505.86,-249.07C490.28,-200.71 438.27,-220.37 420.86,-172.64"/>
</g>
<!-- numexpr&#45;&gt;Backend_RefractionIndex -->
<g id="edge42" class="edge">
<title>numexpr&#45;&gt;Backend_RefractionIndex</title><style>.edge>path:hover{stroke-width:8}</style>
<path fill="none" stroke="black" d="M581.86,-481.13C591.06,-474.51 591.32,-470.25 600.86,-464.13 653.5,-430.36 690.69,-456.67 729.86,-407.92"/>
<path fill="none" stroke="black" d="M729.86,-405.92C742.03,-390.78 754.15,-372.76 763.53,-358.02"/>
<polygon fill="#06f9f9" stroke="black" points="766.64,-359.65 768.99,-349.32 760.71,-355.93 766.64,-359.65"/>
</g>
<!-- numexpr&#45;&gt;Backend_Surface -->
<g id="edge43" class="edge">
<title>numexpr&#45;&gt;Backend_Surface</title><style>.edge>path:hover{stroke-width:8}</style>
<path fill="none" stroke="black" d="M210.86,-405.92C208.16,-388.75 199.95,-371.27 191.86,-357.36"/>
<polygon fill="#06f9f9" stroke="black" points="194.81,-355.49 186.61,-348.78 188.84,-359.14 194.81,-355.49"/>
</g>
<!-- numpy -->
<g id="node17" class="node">
<title>numpy</title><style>.edge>path:hover{stroke-width:8}</style>
<polygon fill="#0606f9" stroke="black" points="690.86,-644.13 687.86,-648.13 666.86,-648.13 663.86,-644.13 636.86,-644.13 636.86,-608.13 690.86,-608.13 690.86,-644.13"/>
<text text-anchor="middle" x="663.86" y="-623.63" font-family="Helvetica,sans-Serif" font-size="10.00" fill="#ffffff">numpy</text>
</g>
<!-- numpy&#45;&gt;Backend_Color -->
<g id="edge44" class="edge">
<title>numpy&#45;&gt;Backend_Color</title><style>.edge>path:hover{stroke-width:8}</style>
<path fill="none" stroke="black" d="M355.86,-553.13C327.82,-539.65 348.73,-513.41 355.86,-483.13"/>
<path fill="none" stroke="black" d="M355.86,-481.13C363.32,-449.46 363.14,-439.63 355.86,-407.92"/>
<path fill="none" stroke="black" d="M355.86,-405.92C350.47,-382.41 331.23,-363.2 313.47,-349.92"/>
<polygon fill="#0606f9" stroke="black" points="315.12,-346.8 304.93,-343.88 311.08,-352.51 315.12,-346.8"/>
</g>
<!-- numpy&#45;&gt;Backend_Detector -->
<g id="edge45" class="edge">
<title>numpy&#45;&gt;Backend_Detector</title><style>.edge>path:hover{stroke-width:8}</style>
<path fill="none" stroke="black" d="M636.57,-623.03C581.15,-617.91 452.48,-601.59 355.86,-555.13"/>
<path fill="none" stroke="black" d="M355.86,-553.13C277.38,-515.4 247.79,-527.5 172.86,-483.13"/>
<path fill="none" stroke="black" d="M172.86,-481.13C108.04,-442.75 56.02,-489.16 11.86,-428.13 -23.66,-379.04 30.27,-311.89 65.81,-276.03"/>
<polygon fill="#0606f9" stroke="black" points="68.41,-278.39 73.07,-268.87 63.49,-273.4 68.41,-278.39"/>
</g>
<!-- numpy&#45;&gt;Backend_Filter -->
<g id="edge46" class="edge">
<title>numpy&#45;&gt;Backend_Filter</title><style>.edge>path:hover{stroke-width:8}</style>
<path fill="none" stroke="black" d="M172.86,-481.13C144.86,-464.55 182.46,-439.01 172.86,-407.92"/>
<path fill="none" stroke="black" d="M172.86,-405.92C163,-373.97 134.75,-380.96 122.86,-349.71 116.16,-332.08 112.9,-323.29 122.86,-307.28 136.94,-284.63 163.14,-270.84 186.87,-262.59"/>
<polygon fill="#0606f9" stroke="black" points="188.05,-265.89 196.5,-259.49 185.9,-259.22 188.05,-265.89"/>
</g>
<!-- numpy&#45;&gt;Backend_Image -->
<g id="edge47" class="edge">
<title>numpy&#45;&gt;Backend_Image</title><style>.edge>path:hover{stroke-width:8}</style>
<path fill="none" stroke="black" d="M355.86,-405.92C345.47,-360.65 363.55,-307.78 377.08,-277"/>
<polygon fill="#0606f9" stroke="black" points="380.3,-278.37 381.27,-267.82 373.94,-275.46 380.3,-278.37"/>
</g>
<!-- numpy&#45;&gt;Backend_Lens -->
<g id="edge48" class="edge">
<title>numpy&#45;&gt;Backend_Lens</title><style>.edge>path:hover{stroke-width:8}</style>
<path fill="none" stroke="black" d="M879.86,-405.92C872.82,-372.69 890.29,-361.82 879.86,-329.49"/>
<path fill="none" stroke="black" d="M879.86,-327.49C870,-296.95 838.92,-277.32 811.84,-265.62"/>
<polygon fill="#0606f9" stroke="black" points="813.05,-262.33 802.47,-261.8 810.41,-268.82 813.05,-262.33"/>
</g>
<!-- numpy&#45;&gt;Backend_Misc -->
<g id="edge49" class="edge">
<title>numpy&#45;&gt;Backend_Misc</title><style>.edge>path:hover{stroke-width:8}</style>
<path fill="none" stroke="black" d="M355.86,-481.13C361.17,-458.6 379.71,-440.39 397.03,-427.76"/>
<polygon fill="#0606f9" stroke="black" points="399.12,-430.57 405.37,-422.02 395.15,-424.81 399.12,-430.57"/>
</g>
<!-- numpy&#45;&gt;Backend_RaySource -->
<g id="edge50" class="edge">
<title>numpy&#45;&gt;Backend_RaySource</title><style>.edge>path:hover{stroke-width:8}</style>
<path fill="none" stroke="black" d="M636.86,-553.13C629.36,-525.66 664.49,-527.35 672.86,-500.13 685.16,-460.14 659.02,-449.44 653.86,-407.92"/>
</g>
<!-- numpy&#45;&gt;Backend_RaySourceList -->
<g id="edge51" class="edge">
<title>numpy&#45;&gt;Backend_RaySourceList</title><style>.edge>path:hover{stroke-width:8}</style>
<path fill="none" stroke="black" d="M656.6,-608.08C650.79,-594.04 642.67,-573.51 636.86,-555.13"/>
<path fill="none" stroke="black" d="M636.86,-553.13C628.28,-525.98 612.98,-525.9 600.86,-500.13 575.41,-445.99 530.93,-273.19 513.33,-202.85"/>
<polygon fill="#0606f9" stroke="black" points="516.66,-201.72 510.84,-192.86 509.86,-203.41 516.66,-201.72"/>
</g>
<!-- numpy&#45;&gt;Backend_Raytracer -->
<g id="edge52" class="edge">
<title>numpy&#45;&gt;Backend_Raytracer</title><style>.edge>path:hover{stroke-width:8}</style>
<path fill="none" stroke="black" d="M879.86,-327.49C845.98,-222.49 807.8,-192.64 705.86,-150.43 628.06,-118.21 530.5,-104.1 472.06,-98.19"/>
<polygon fill="#0606f9" stroke="black" points="472.26,-94.69 461.97,-97.21 471.59,-101.66 472.26,-94.69"/>
</g>
<!-- numpy&#45;&gt;Backend_RefractionIndex -->
<g id="edge53" class="edge">
<title>numpy&#45;&gt;Backend_RefractionIndex</title><style>.edge>path:hover{stroke-width:8}</style>
<path fill="none" stroke="black" d="M691.18,-614.59C755.7,-587.82 909.93,-511.88 879.86,-407.92"/>
<path fill="none" stroke="black" d="M879.86,-405.92C874.4,-380.16 851.89,-361.65 829.71,-349.31"/>
<polygon fill="#0606f9" stroke="black" points="831.1,-346.08 820.61,-344.55 827.86,-352.28 831.1,-346.08"/>
</g>
<!-- numpy&#45;&gt;Backend_Surface -->
<g id="edge54" class="edge">
<title>numpy&#45;&gt;Backend_Surface</title><style>.edge>path:hover{stroke-width:8}</style>
<path fill="none" stroke="black" d="M172.86,-405.92C168.34,-391.27 167.9,-374.27 168.78,-360.04"/>
<polygon fill="#0606f9" stroke="black" points="172.29,-360.03 169.66,-349.77 165.32,-359.43 172.29,-360.03"/>
</g>
<!-- numpy&#45;&gt;Backend_SurfaceFunction -->
<g id="edge55" class="edge">
<title>numpy&#45;&gt;Backend_SurfaceFunction</title><style>.edge>path:hover{stroke-width:8}</style>
<path fill="none" stroke="black" d="M172.86,-481.13C150.52,-467.9 127.86,-449.43 110.86,-434.36"/>
<polygon fill="#0606f9" stroke="black" points="112.77,-431.36 103,-427.26 108.08,-436.56 112.77,-431.36"/>
</g>
<!-- numpy&#45;&gt;PIL -->
<g id="edge56" class="edge">
<title>numpy&#45;&gt;PIL</title><style>.edge>path:hover{stroke-width:8}</style>
<path fill="none" stroke="black" d="M636.86,-553.13C633.11,-539.39 632.79,-523.56 633.55,-510.44"/>
<polygon fill="#0606f9" stroke="black" points="637.07,-510.4 634.39,-500.15 630.09,-509.83 637.07,-510.4"/>
</g>
<!-- scipy -->
<g id="node18" class="node">
<title>scipy</title><style>.edge>path:hover{stroke-width:8}</style>
<polygon fill="#ef06ef" stroke="black" points="718.86,-572.13 715.86,-576.13 694.86,-576.13 691.86,-572.13 664.86,-572.13 664.86,-536.13 718.86,-536.13 718.86,-572.13"/>
<text text-anchor="middle" x="691.86" y="-551.63" font-family="Helvetica,sans-Serif" font-size="10.00" fill="#ffffff">scipy</text>
</g>
<!-- numpy&#45;&gt;scipy -->
<g id="edge57" class="edge">
<title>numpy&#45;&gt;scipy</title><style>.edge>path:hover{stroke-width:8}</style>
<path fill="none" stroke="black" d="M670.78,-607.83C673.94,-599.95 677.74,-590.44 681.24,-581.68"/>
<polygon fill="#0606f9" stroke="black" points="684.56,-582.82 685.02,-572.24 678.06,-580.22 684.56,-582.82"/>
</g>
<!-- scipy&#45;&gt;Backend_Misc -->
<g id="edge58" class="edge">
<title>scipy&#45;&gt;Backend_Misc</title><style>.edge>path:hover{stroke-width:8}</style>
<path fill="none" stroke="black" d="M664.68,-541.37C660.1,-539.53 655.37,-537.71 650.86,-536.13 570.96,-508.09 525.36,-545.29 467.86,-483.13"/>
</g>
<!-- scipy&#45;&gt;Backend_RaySource -->
<g id="edge59" class="edge">
<title>scipy&#45;&gt;Backend_RaySource</title><style>.edge>path:hover{stroke-width:8}</style>
<path fill="none" stroke="black" d="M707.22,-536.09C717.68,-522.7 729.68,-503.04 729.86,-483.13"/>
<path fill="none" stroke="black" d="M729.86,-481.13C730.28,-434.23 655.81,-454.78 653.86,-407.92"/>
</g>
<!-- scipy&#45;&gt;Backend_Raytracer -->
<g id="edge60" class="edge">
<title>scipy&#45;&gt;Backend_Raytracer</title><style>.edge>path:hover{stroke-width:8}</style>
<path fill="none" stroke="black" d="M729.86,-481.13C730.08,-456.77 720.62,-452.03 715.86,-428.13 700.36,-350.24 712.13,-327.85 691.86,-251.07"/>
<path fill="none" stroke="black" d="M691.86,-249.07C682.28,-216.48 712.33,-199.75 691.86,-172.64"/>
</g>
<!-- scipy&#45;&gt;Backend_RefractionIndex -->
<g id="edge61" class="edge">
<title>scipy&#45;&gt;Backend_RefractionIndex</title><style>.edge>path:hover{stroke-width:8}</style>
<path fill="none" stroke="black" d="M729.86,-481.13C730.15,-448.59 709.48,-433.28 729.86,-407.92"/>
</g>
</g>
</svg>
