<?xml version="1.0" encoding="utf-8" standalone="no"?>
<!DOCTYPE svg PUBLIC "-//W3C//DTD SVG 1.1//EN"
  "http://www.w3.org/Graphics/SVG/1.1/DTD/svg11.dtd">
<svg xmlns:xlink="http://www.w3.org/1999/xlink" width="460.8pt" height="345.6pt" viewBox="0 0 460.8 345.6" xmlns="http://www.w3.org/2000/svg" version="1.1">
 <metadata>
  <rdf:RDF xmlns:dc="http://purl.org/dc/elements/1.1/" xmlns:cc="http://creativecommons.org/ns#" xmlns:rdf="http://www.w3.org/1999/02/22-rdf-syntax-ns#">
   <cc:Work>
    <dc:type rdf:resource="http://purl.org/dc/dcmitype/StillImage"/>
    <dc:date>2023-01-31T14:18:26.259475</dc:date>
    <dc:format>image/svg+xml</dc:format>
    <dc:creator>
     <cc:Agent>
      <dc:title>Matplotlib v3.6.2, https://matplotlib.org/</dc:title>
     </cc:Agent>
    </dc:creator>
   </cc:Work>
  </rdf:RDF>
 </metadata>
 <defs>
  <style type="text/css">*{stroke-linejoin: round; stroke-linecap: butt}</style>
 </defs>
 <g id="figure_1">
  <g id="patch_1">
   <path d="M 0 345.6 
L 460.8 345.6 
L 460.8 0 
L 0 0 
z
" style="fill: #ffffff"/>
  </g>
  <g id="axes_1">
   <g id="patch_2">
    <path d="M 41.52125 304.54 
L 450 304.54 
L 450 51.98775 
L 41.52125 51.98775 
z
" style="fill: #ffffff"/>
   </g>
   <g id="patch_3">
    <path d="M 60.088466 304.54 
L 138.679856 304.486516 
L 138.679856 304.397028 
L 143.395339 304.356963 
L 143.395339 304.513015 
L 144.57421 304.495342 
L 144.57421 304.320574 
L 147.324909 304.413534 
L 147.324909 304.473749 
L 148.896737 304.380729 
L 148.896737 304.276079 
L 150.075608 304.369509 
L 150.075608 304.392408 
L 150.468565 304.392408 
L 150.468565 304.273707 
L 150.861521 304.273707 
L 150.861521 304.525659 
L 151.254478 304.525659 
L 151.254478 304.398882 
L 155.969962 304.479717 
L 155.969962 304.265491 
L 157.54179 304.349273 
L 157.54179 304.490224 
L 158.72066 304.410203 
L 158.72066 304.256796 
L 159.113617 304.256796 
L 159.113617 304.390347 
L 159.506574 304.390347 
L 159.506574 304.184486 
L 159.899531 304.184486 
L 159.899531 304.414993 
L 160.685445 304.341625 
L 160.685445 304.260199 
L 161.078402 304.260199 
L 161.078402 304.403075 
L 162.257273 304.380965 
L 162.257273 304.287817 
L 164.222058 304.284323 
L 164.222058 304.103047 
L 165.007972 304.207701 
L 165.007972 304.335348 
L 165.400929 304.335348 
L 165.400929 303.921693 
L 166.186843 303.990298 
L 166.186843 304.170877 
L 166.972756 304.222278 
L 166.972756 304.482115 
L 167.365713 304.482115 
L 167.365713 304.364501 
L 167.75867 304.364501 
L 167.75867 304.109665 
L 168.544584 304.182665 
L 168.544584 304.288055 
L 169.330498 304.194165 
L 169.330498 303.895327 
L 169.723455 303.895327 
L 169.723455 304.135912 
L 170.902326 304.134214 
L 170.902326 304.017316 
L 171.295283 304.017316 
L 171.295283 304.207032 
L 172.081197 304.116069 
L 172.081197 304.381028 
L 172.474154 304.381028 
L 172.474154 303.691498 
L 172.867111 303.691498 
L 172.867111 303.87693 
L 173.260068 303.87693 
L 173.260068 304.295799 
L 174.045982 304.378893 
L 174.045982 303.791525 
L 174.831895 303.727652 
L 174.831895 303.549926 
L 175.224852 303.549926 
L 175.224852 303.819473 
L 175.617809 303.819473 
L 175.617809 302.163912 
L 176.010766 302.163912 
L 176.010766 303.823502 
L 176.403723 303.823502 
L 176.403723 303.393471 
L 176.79668 303.393471 
L 176.79668 303.866723 
L 177.189637 303.866723 
L 177.189637 303.151469 
L 177.582594 303.151469 
L 177.582594 304.068932 
L 177.975551 304.068932 
L 177.975551 303.008506 
L 178.368508 303.008506 
L 178.368508 303.968493 
L 178.761465 303.968493 
L 178.761465 303.413724 
L 179.154422 303.413724 
L 179.154422 303.781889 
L 179.547379 303.781889 
L 179.547379 303.359003 
L 179.940336 303.359003 
L 179.940336 303.929179 
L 180.333293 303.929179 
L 180.333293 303.236848 
L 180.72625 303.236848 
L 180.72625 304.165975 
L 181.119207 304.165975 
L 181.119207 303.924577 
L 181.512164 303.924577 
L 181.512164 302.759868 
L 181.905121 302.759868 
L 181.905121 303.629633 
L 182.691034 303.616377 
L 182.691034 303.835585 
L 183.083991 303.835585 
L 183.083991 304.036585 
L 183.476948 304.036585 
L 183.476948 302.502927 
L 183.869905 302.502927 
L 183.869905 302.90091 
L 184.262862 302.90091 
L 184.262862 303.1938 
L 184.655819 303.1938 
L 184.655819 303.346885 
L 185.048776 303.346885 
L 185.048776 302.978888 
L 185.441733 302.978888 
L 185.441733 304.060587 
L 185.83469 304.060587 
L 185.83469 303.357761 
L 186.227647 303.357761 
L 186.227647 303.629325 
L 187.013561 303.696751 
L 187.013561 302.99374 
L 187.406518 302.99374 
L 187.406518 304.002603 
L 187.799475 304.002603 
L 187.799475 304.317608 
L 188.192432 304.317608 
L 188.192432 303.18422 
L 188.585389 303.18422 
L 188.585389 302.689249 
L 188.978346 302.689249 
L 188.978346 303.116193 
L 189.371303 303.116193 
L 189.371303 302.394302 
L 189.76426 302.394302 
L 189.76426 302.080669 
L 190.157217 302.080669 
L 190.157217 301.655799 
L 190.550173 301.655799 
L 190.550173 303.485891 
L 190.94313 303.485891 
L 190.94313 302.227988 
L 191.336087 302.227988 
L 191.336087 302.877141 
L 191.729044 302.877141 
L 191.729044 302.475782 
L 192.122001 302.475782 
L 192.122001 302.308729 
L 192.514958 302.308729 
L 192.514958 303.294938 
L 192.907915 303.294938 
L 192.907915 301.737298 
L 193.300872 301.737298 
L 193.300872 302.742763 
L 193.693829 302.742763 
L 193.693829 301.496574 
L 194.086786 301.496574 
L 194.086786 302.499687 
L 194.479743 302.499687 
L 194.479743 302.289035 
L 194.8727 302.289035 
L 194.8727 303.510858 
L 195.265657 303.510858 
L 195.265657 301.028064 
L 196.051571 301.13667 
L 196.051571 300.161785 
L 196.444528 300.161785 
L 196.444528 301.622492 
L 196.837485 301.622492 
L 196.837485 302.832629 
L 197.230442 302.832629 
L 197.230442 303.242008 
L 197.623399 303.242008 
L 197.623399 302.94214 
L 198.016356 302.94214 
L 198.016356 300.813734 
L 198.409312 300.813734 
L 198.409312 299.769253 
L 198.802269 299.769253 
L 198.802269 298.669094 
L 199.195226 298.669094 
L 199.195226 300.958633 
L 199.588183 300.958633 
L 199.588183 301.787938 
L 199.98114 301.787938 
L 199.98114 299.737912 
L 200.374097 299.737912 
L 200.374097 301.419625 
L 200.767054 301.419625 
L 200.767054 302.181684 
L 201.552968 302.226213 
L 201.552968 299.430606 
L 201.945925 299.430606 
L 201.945925 300.829311 
L 202.338882 300.829311 
L 202.338882 299.884224 
L 202.731839 299.884224 
L 202.731839 298.94767 
L 203.124796 298.94767 
L 203.124796 301.211928 
L 203.517753 301.211928 
L 203.517753 300.939852 
L 203.91071 300.939852 
L 203.91071 299.509852 
L 204.303667 299.509852 
L 204.303667 299.103864 
L 204.696624 299.103864 
L 204.696624 298.683311 
L 205.089581 298.683311 
L 205.089581 296.031731 
L 205.482538 296.031731 
L 205.482538 298.191001 
L 205.875495 298.191001 
L 205.875495 302.303117 
L 206.268451 302.303117 
L 206.268451 300.415246 
L 206.661408 300.415246 
L 206.661408 299.720296 
L 207.054365 299.720296 
L 207.054365 297.356831 
L 207.447322 297.356831 
L 207.447322 301.993275 
L 207.840279 301.993275 
L 207.840279 299.945619 
L 208.233236 299.945619 
L 208.233236 301.287725 
L 208.626193 301.287725 
L 208.626193 295.605967 
L 209.01915 295.605967 
L 209.01915 300.050722 
L 209.412107 300.050722 
L 209.412107 302.612376 
L 209.805064 302.612376 
L 209.805064 295.068033 
L 210.198021 295.068033 
L 210.198021 298.879147 
L 210.590978 298.879147 
L 210.590978 296.061227 
L 210.983935 296.061227 
L 210.983935 299.173049 
L 211.376892 299.173049 
L 211.376892 297.06193 
L 211.769849 297.06193 
L 211.769849 294.535623 
L 212.162806 294.535623 
L 212.162806 299.950497 
L 212.555763 299.950497 
L 212.555763 300.655237 
L 212.94872 300.655237 
L 212.94872 299.920507 
L 213.341677 299.920507 
L 213.341677 296.320613 
L 213.734634 296.320613 
L 213.734634 298.300227 
L 214.12759 298.300227 
L 214.12759 294.600457 
L 214.520547 294.600457 
L 214.520547 299.077079 
L 214.913504 299.077079 
L 214.913504 301.370776 
L 215.306461 301.370776 
L 215.306461 298.218584 
L 215.699418 298.218584 
L 215.699418 296.494411 
L 216.092375 296.494411 
L 216.092375 300.860014 
L 216.485332 300.860014 
L 216.485332 299.171989 
L 216.878289 299.171989 
L 216.878289 294.932727 
L 217.271246 294.932727 
L 217.271246 298.412523 
L 217.664203 298.412523 
L 217.664203 293.451638 
L 218.05716 293.451638 
L 218.05716 298.649139 
L 218.450117 298.649139 
L 218.450117 295.460661 
L 218.843074 295.460661 
L 218.843074 291.396489 
L 219.236031 291.396489 
L 219.236031 294.614349 
L 219.628988 294.614349 
L 219.628988 297.23703 
L 220.021945 297.23703 
L 220.021945 293.313803 
L 220.414902 293.313803 
L 220.414902 294.095152 
L 220.807859 294.095152 
L 220.807859 293.33082 
L 221.200816 293.33082 
L 221.200816 294.711678 
L 221.593773 294.711678 
L 221.593773 291.256817 
L 221.986729 291.256817 
L 221.986729 287.2506 
L 222.379686 287.2506 
L 222.379686 295.580653 
L 222.772643 295.580653 
L 222.772643 288.542988 
L 223.1656 288.542988 
L 223.1656 293.347319 
L 223.558557 293.347319 
L 223.558557 296.752127 
L 223.951514 296.752127 
L 223.951514 286.789375 
L 224.344471 286.789375 
L 224.344471 297.558703 
L 224.737428 297.558703 
L 224.737428 287.23359 
L 225.130385 287.23359 
L 225.130385 293.01854 
L 225.523342 293.01854 
L 225.523342 287.862231 
L 225.916299 287.862231 
L 225.916299 293.818917 
L 226.309256 293.818917 
L 226.309256 296.975242 
L 226.702213 296.975242 
L 226.702213 296.020517 
L 227.09517 296.020517 
L 227.09517 288.101744 
L 227.488127 288.101744 
L 227.488127 286.551559 
L 227.881084 286.551559 
L 227.881084 290.412762 
L 228.274041 290.412762 
L 228.274041 280.775313 
L 228.666998 280.775313 
L 228.666998 294.445519 
L 229.059955 294.445519 
L 229.059955 283.855764 
L 229.452912 283.855764 
L 229.452912 285.326193 
L 229.845869 285.326193 
L 229.845869 289.74067 
L 230.238825 289.74067 
L 230.238825 291.601297 
L 230.631782 291.601297 
L 230.631782 287.456977 
L 231.024739 287.456977 
L 231.024739 279.162603 
L 231.417696 279.162603 
L 231.417696 286.57176 
L 231.810653 286.57176 
L 231.810653 290.824918 
L 232.20361 290.824918 
L 232.20361 288.18322 
L 232.596567 288.18322 
L 232.596567 282.797382 
L 232.989524 282.797382 
L 232.989524 282.584064 
L 233.382481 282.584064 
L 233.382481 279.065639 
L 233.775438 279.065639 
L 233.775438 296.530818 
L 234.168395 296.530818 
L 234.168395 293.807159 
L 234.561352 293.807159 
L 234.561352 290.098896 
L 234.954309 290.098896 
L 234.954309 288.424772 
L 235.347266 288.424772 
L 235.347266 287.338778 
L 235.740223 287.338778 
L 235.740223 278.410087 
L 236.13318 278.410087 
L 236.13318 285.509254 
L 236.526137 285.509254 
L 236.526137 279.981916 
L 236.919094 279.981916 
L 236.919094 285.12488 
L 237.312051 285.12488 
L 237.312051 284.102575 
L 237.705008 284.102575 
L 237.705008 289.454305 
L 238.097964 289.454305 
L 238.097964 277.180052 
L 238.490921 277.180052 
L 238.490921 275.173618 
L 238.883878 275.173618 
L 238.883878 277.501911 
L 239.276835 277.501911 
L 239.276835 275.251037 
L 239.669792 275.251037 
L 239.669792 290.075791 
L 240.062749 290.075791 
L 240.062749 271.312071 
L 240.455706 271.312071 
L 240.455706 276.225053 
L 240.848663 276.225053 
L 240.848663 270.245601 
L 241.24162 270.245601 
L 241.24162 274.671296 
L 241.634577 274.671296 
L 241.634577 283.176804 
L 242.027534 283.176804 
L 242.027534 278.086542 
L 242.420491 278.086542 
L 242.420491 271.541479 
L 242.813448 271.541479 
L 242.813448 266.74191 
L 243.206405 266.74191 
L 243.206405 284.142045 
L 243.599362 284.142045 
L 243.599362 266.385207 
L 243.992319 266.385207 
L 243.992319 279.670446 
L 244.385276 279.670446 
L 244.385276 270.184228 
L 244.778233 270.184228 
L 244.778233 277.400804 
L 245.17119 277.400804 
L 245.17119 267.354087 
L 245.564147 267.354087 
L 245.564147 274.113933 
L 245.957103 274.113933 
L 245.957103 261.70944 
L 246.35006 261.70944 
L 246.35006 273.632208 
L 246.743017 273.632208 
L 246.743017 287.156519 
L 247.135974 287.156519 
L 247.135974 266.801528 
L 247.528931 266.801528 
L 247.528931 272.639636 
L 247.921888 272.639636 
L 247.921888 270.779969 
L 248.314845 270.779969 
L 248.314845 269.091329 
L 248.707802 269.091329 
L 248.707802 264.59361 
L 249.100759 264.59361 
L 249.100759 266.874491 
L 249.493716 266.874491 
L 249.493716 262.480038 
L 249.886673 262.480038 
L 249.886673 261.853357 
L 250.27963 261.853357 
L 250.27963 280.755468 
L 250.672587 280.755468 
L 250.672587 261.966452 
L 251.065544 261.966452 
L 251.065544 259.760972 
L 251.458501 259.760972 
L 251.458501 259.464802 
L 251.851458 259.464802 
L 251.851458 264.365811 
L 252.244415 264.365811 
L 252.244415 256.21414 
L 252.637372 256.21414 
L 252.637372 268.092225 
L 253.030329 268.092225 
L 253.030329 260.933973 
L 253.423286 260.933973 
L 253.423286 265.630078 
L 253.816242 265.630078 
L 253.816242 262.085208 
L 254.209199 262.085208 
L 254.209199 254.823656 
L 254.602156 254.823656 
L 254.602156 275.943295 
L 254.995113 275.943295 
L 254.995113 266.57264 
L 255.38807 266.57264 
L 255.38807 258.587622 
L 255.781027 258.587622 
L 255.781027 266.186959 
L 256.173984 266.186959 
L 256.173984 253.61969 
L 256.566941 253.61969 
L 256.566941 262.472252 
L 256.959898 262.472252 
L 256.959898 248.865043 
L 257.352855 248.865043 
L 257.352855 260.025948 
L 257.745812 260.025948 
L 257.745812 251.299019 
L 258.138769 251.299019 
L 258.138769 264.121617 
L 258.531726 264.121617 
L 258.531726 262.052062 
L 258.924683 262.052062 
L 258.924683 260.365688 
L 259.31764 260.365688 
L 259.31764 261.804481 
L 259.710597 261.804481 
L 259.710597 256.091201 
L 260.103554 256.091201 
L 260.103554 252.063572 
L 260.496511 252.063572 
L 260.496511 255.988954 
L 260.889468 255.988954 
L 260.889468 248.177784 
L 261.282425 248.177784 
L 261.282425 247.289496 
L 261.675381 247.289496 
L 261.675381 251.08042 
L 262.068338 251.08042 
L 262.068338 264.708096 
L 262.461295 264.708096 
L 262.461295 263.996815 
L 262.854252 263.996815 
L 262.854252 240.141824 
L 263.247209 240.141824 
L 263.247209 254.406249 
L 263.640166 254.406249 
L 263.640166 242.251996 
L 264.033123 242.251996 
L 264.033123 243.47554 
L 264.42608 243.47554 
L 264.42608 243.862673 
L 264.819037 243.862673 
L 264.819037 243.180197 
L 265.211994 243.180197 
L 265.211994 239.14053 
L 265.604951 239.14053 
L 265.604951 243.008633 
L 265.997908 243.008633 
L 265.997908 244.116189 
L 266.390865 244.116189 
L 266.390865 262.865379 
L 266.783822 262.865379 
L 266.783822 236.282167 
L 267.176779 236.282167 
L 267.176779 239.478071 
L 267.569736 239.478071 
L 267.569736 259.997001 
L 267.962693 259.997001 
L 267.962693 247.277239 
L 268.35565 247.277239 
L 268.35565 239.793793 
L 268.748607 239.793793 
L 268.748607 231.578558 
L 269.141564 231.578558 
L 269.141564 244.434277 
L 269.534521 244.434277 
L 269.534521 236.972353 
L 269.927477 236.972353 
L 269.927477 237.66418 
L 270.320434 237.66418 
L 270.320434 231.219325 
L 270.713391 231.219325 
L 270.713391 249.147399 
L 271.106348 249.147399 
L 271.106348 228.576549 
L 271.499305 228.576549 
L 271.499305 237.929347 
L 271.892262 237.929347 
L 271.892262 229.214839 
L 272.285219 229.214839 
L 272.285219 224.404944 
L 272.678176 224.404944 
L 272.678176 208.28916 
L 273.071133 208.28916 
L 273.071133 242.926941 
L 273.46409 242.926941 
L 273.46409 238.937882 
L 273.857047 238.937882 
L 273.857047 233.673864 
L 274.250004 233.673864 
L 274.250004 229.281925 
L 274.642961 229.281925 
L 274.642961 232.551321 
L 275.035918 232.551321 
L 275.035918 220.255384 
L 275.428875 220.255384 
L 275.428875 220.686367 
L 275.821832 220.686367 
L 275.821832 237.115287 
L 276.214789 237.115287 
L 276.214789 228.327469 
L 276.607746 228.327469 
L 276.607746 225.883065 
L 277.39366 225.951995 
L 277.39366 211.340593 
L 277.786616 211.340593 
L 277.786616 199.266219 
L 278.179573 199.266219 
L 278.179573 229.178066 
L 278.57253 229.178066 
L 278.57253 220.085461 
L 278.965487 220.085461 
L 278.965487 223.160715 
L 279.358444 223.160715 
L 279.358444 216.552847 
L 279.751401 216.552847 
L 279.751401 204.720125 
L 280.144358 204.720125 
L 280.144358 218.128875 
L 280.537315 218.128875 
L 280.537315 201.352735 
L 280.930272 201.352735 
L 280.930272 213.266283 
L 281.323229 213.266283 
L 281.323229 219.01291 
L 281.716186 219.01291 
L 281.716186 203.956397 
L 282.109143 203.956397 
L 282.109143 221.379953 
L 282.5021 221.379953 
L 282.5021 192.057889 
L 282.895057 192.057889 
L 282.895057 189.028192 
L 283.288014 189.028192 
L 283.288014 194.308333 
L 283.680971 194.308333 
L 283.680971 171.332111 
L 284.073928 171.332111 
L 284.073928 202.894795 
L 284.466885 202.894795 
L 284.466885 209.565362 
L 284.859842 209.565362 
L 284.859842 206.895288 
L 285.252799 206.895288 
L 285.252799 212.957169 
L 285.645755 212.957169 
L 285.645755 217.82863 
L 286.038712 217.82863 
L 286.038712 207.771504 
L 286.431669 207.771504 
L 286.431669 205.699532 
L 286.824626 205.699532 
L 286.824626 193.858613 
L 287.217583 193.858613 
L 287.217583 200.445917 
L 287.61054 200.445917 
L 287.61054 190.624722 
L 288.003497 190.624722 
L 288.003497 199.807375 
L 288.396454 199.807375 
L 288.396454 197.589745 
L 288.789411 197.589745 
L 288.789411 181.710013 
L 289.182368 181.710013 
L 289.182368 186.642138 
L 289.575325 186.642138 
L 289.575325 190.868356 
L 289.968282 190.868356 
L 289.968282 184.824204 
L 290.361239 184.824204 
L 290.361239 169.835178 
L 290.754196 169.835178 
L 290.754196 193.42232 
L 291.147153 193.42232 
L 291.147153 175.764864 
L 291.54011 175.764864 
L 291.54011 173.357011 
L 291.933067 173.357011 
L 291.933067 183.595031 
L 292.326024 183.595031 
L 292.326024 173.993328 
L 292.718981 173.993328 
L 292.718981 161.215255 
L 293.111938 161.215255 
L 293.111938 160.244341 
L 293.504894 160.244341 
L 293.504894 158.29125 
L 293.897851 158.29125 
L 293.897851 183.022907 
L 294.290808 183.022907 
L 294.290808 173.647987 
L 294.683765 173.647987 
L 294.683765 182.380906 
L 295.076722 182.380906 
L 295.076722 152.169083 
L 295.469679 152.169083 
L 295.469679 169.151803 
L 295.862636 169.151803 
L 295.862636 182.605437 
L 296.255593 182.605437 
L 296.255593 171.57941 
L 296.64855 171.57941 
L 296.64855 207.48418 
L 297.041507 207.48418 
L 297.041507 137.329426 
L 297.434464 137.329426 
L 297.434464 150.737175 
L 297.827421 150.737175 
L 297.827421 184.783964 
L 298.220378 184.783964 
L 298.220378 159.175516 
L 298.613335 159.175516 
L 298.613335 172.368529 
L 299.006292 172.368529 
L 299.006292 175.368183 
L 299.399249 175.368183 
L 299.399249 153.585023 
L 299.792206 153.585023 
L 299.792206 157.550418 
L 300.185163 157.550418 
L 300.185163 165.831606 
L 300.57812 165.831606 
L 300.57812 140.15123 
L 300.971077 140.15123 
L 300.971077 135.897979 
L 301.364033 135.897979 
L 301.364033 162.322404 
L 301.75699 162.322404 
L 301.75699 182.371217 
L 302.149947 182.371217 
L 302.149947 161.338819 
L 302.542904 161.338819 
L 302.542904 166.282025 
L 302.935861 166.282025 
L 302.935861 144.492062 
L 303.328818 144.492062 
L 303.328818 164.387212 
L 303.721775 164.387212 
L 303.721775 148.428421 
L 304.114732 148.428421 
L 304.114732 153.020915 
L 304.507689 153.020915 
L 304.507689 170.077988 
L 304.900646 170.077988 
L 304.900646 155.89461 
L 305.293603 155.89461 
L 305.293603 141.653319 
L 305.68656 141.653319 
L 305.68656 151.986463 
L 306.079517 151.986463 
L 306.079517 139.006468 
L 306.472474 139.006468 
L 306.472474 122.401631 
L 306.865431 122.401631 
L 306.865431 165.438118 
L 307.258388 165.438118 
L 307.258388 121.543467 
L 307.651345 121.543467 
L 307.651345 121.142585 
L 308.044302 121.142585 
L 308.044302 133.300496 
L 308.437259 133.300496 
L 308.437259 123.676192 
L 308.830216 123.676192 
L 308.830216 134.465429 
L 309.223172 134.465429 
L 309.223172 116.241159 
L 309.616129 116.241159 
L 309.616129 157.993438 
L 310.009086 157.993438 
L 310.009086 117.748748 
L 310.402043 117.748748 
L 310.402043 124.27381 
L 310.795 124.27381 
L 310.795 121.533334 
L 311.187957 121.533334 
L 311.187957 121.68262 
L 311.580914 121.68262 
L 311.580914 151.431624 
L 311.973871 151.431624 
L 311.973871 124.586334 
L 312.366828 124.586334 
L 312.366828 118.616386 
L 312.759785 118.616386 
L 312.759785 129.913565 
L 313.152742 129.913565 
L 313.152742 113.531682 
L 313.545699 113.531682 
L 313.545699 122.689377 
L 313.938656 122.689377 
L 313.938656 128.404638 
L 314.331613 128.404638 
L 314.331613 120.528715 
L 314.72457 120.528715 
L 314.72457 117.774197 
L 315.117527 117.774197 
L 315.117527 130.284166 
L 315.510484 130.284166 
L 315.510484 89.526799 
L 315.903441 89.526799 
L 315.903441 114.961104 
L 316.296398 114.961104 
L 316.296398 113.804451 
L 316.689355 113.804451 
L 316.689355 94.770357 
L 317.082312 94.770357 
L 317.082312 125.959218 
L 317.475268 125.959218 
L 317.475268 120.502237 
L 317.868225 120.502237 
L 317.868225 137.700956 
L 318.261182 137.700956 
L 318.261182 100.43372 
L 318.654139 100.43372 
L 318.654139 117.470279 
L 319.047096 117.470279 
L 319.047096 111.366761 
L 319.440053 111.366761 
L 319.440053 106.94105 
L 319.83301 106.94105 
L 319.83301 111.116532 
L 320.225967 111.116532 
L 320.225967 95.042867 
L 320.618924 95.042867 
L 320.618924 97.194367 
L 321.011881 97.194367 
L 321.011881 127.587468 
L 321.404838 127.587468 
L 321.404838 100.395064 
L 321.797795 100.395064 
L 321.797795 104.974814 
L 322.190752 104.974814 
L 322.190752 97.989281 
L 322.976666 98.008938 
L 322.976666 113.124638 
L 323.369623 113.124638 
L 323.369623 110.886339 
L 323.76258 110.886339 
L 323.76258 118.157984 
L 324.155537 118.157984 
L 324.155537 120.361623 
L 324.548494 120.361623 
L 324.548494 90.645541 
L 324.941451 90.645541 
L 324.941451 90.864787 
L 325.334407 90.864787 
L 325.334407 136.082058 
L 325.727364 136.082058 
L 325.727364 88.151292 
L 326.120321 88.151292 
L 326.120321 112.765426 
L 326.513278 112.765426 
L 326.513278 80.846978 
L 326.906235 80.846978 
L 326.906235 109.362015 
L 327.299192 109.362015 
L 327.299192 73.237431 
L 327.692149 73.237431 
L 327.692149 89.83981 
L 328.085106 89.83981 
L 328.085106 92.266387 
L 328.478063 92.266387 
L 328.478063 99.024918 
L 328.87102 99.024918 
L 328.87102 102.506389 
L 329.263977 102.506389 
L 329.263977 86.690934 
L 329.656934 86.690934 
L 329.656934 87.52059 
L 330.049891 87.52059 
L 330.049891 75.703658 
L 330.442848 75.703658 
L 330.442848 81.681823 
L 330.835805 81.681823 
L 330.835805 89.180358 
L 331.228762 89.180358 
L 331.228762 94.451404 
L 331.621719 94.451404 
L 331.621719 100.109131 
L 332.014676 100.109131 
L 332.014676 99.789307 
L 332.407633 99.789307 
L 332.407633 83.231807 
L 332.80059 83.231807 
L 332.80059 91.411204 
L 333.193546 91.411204 
L 333.193546 95.205155 
L 333.586503 95.205155 
L 333.586503 82.71626 
L 333.97946 82.71626 
L 333.97946 90.408196 
L 334.372417 90.408196 
L 334.372417 82.707626 
L 334.765374 82.707626 
L 334.765374 80.469441 
L 335.158331 80.469441 
L 335.158331 78.273555 
L 335.551288 78.273555 
L 335.551288 88.41895 
L 335.944245 88.41895 
L 335.944245 94.919032 
L 336.337202 94.919032 
L 336.337202 98.245842 
L 336.730159 98.245842 
L 336.730159 79.883939 
L 337.123116 79.883939 
L 337.123116 124.523507 
L 337.516073 124.523507 
L 337.516073 97.289286 
L 337.90903 97.289286 
L 337.90903 95.504397 
L 338.301987 95.504397 
L 338.301987 77.236201 
L 338.694944 77.236201 
L 338.694944 100.870829 
L 339.087901 100.870829 
L 339.087901 103.398174 
L 339.480858 103.398174 
L 339.480858 98.508811 
L 339.873815 98.508811 
L 339.873815 108.189286 
L 340.266772 108.189286 
L 340.266772 83.199921 
L 340.659729 83.199921 
L 340.659729 104.228038 
L 341.052685 104.228038 
L 341.052685 86.160205 
L 341.445642 86.160205 
L 341.445642 83.642118 
L 341.838599 83.642118 
L 341.838599 82.701967 
L 342.231556 82.701967 
L 342.231556 67.861606 
L 342.624513 67.861606 
L 342.624513 64.967619 
L 343.01747 64.967619 
L 343.01747 112.93317 
L 343.410427 112.93317 
L 343.410427 64.014048 
L 343.803384 64.014048 
L 343.803384 93.844537 
L 344.196341 93.844537 
L 344.196341 120.305617 
L 344.589298 120.305617 
L 344.589298 119.282663 
L 344.982255 119.282663 
L 344.982255 93.148246 
L 345.375212 93.148246 
L 345.375212 95.400873 
L 345.768169 95.400873 
L 345.768169 80.801771 
L 346.161126 80.801771 
L 346.161126 108.913591 
L 346.554083 108.913591 
L 346.554083 85.559829 
L 346.94704 85.559829 
L 346.94704 90.26613 
L 347.339997 90.26613 
L 347.339997 79.563996 
L 347.732954 79.563996 
L 347.732954 111.903913 
L 348.125911 111.903913 
L 348.125911 91.966353 
L 348.518868 91.966353 
L 348.518868 86.596276 
L 348.911824 86.596276 
L 348.911824 76.049555 
L 349.304781 76.049555 
L 349.304781 88.1462 
L 349.697738 88.1462 
L 349.697738 90.41244 
L 350.090695 90.41244 
L 350.090695 89.897471 
L 350.483652 89.897471 
L 350.483652 95.649515 
L 350.876609 95.649515 
L 350.876609 100.851925 
L 351.269566 100.851925 
L 351.269566 102.945165 
L 351.662523 102.945165 
L 351.662523 113.302034 
L 352.05548 113.302034 
L 352.05548 83.106129 
L 352.448437 83.106129 
L 352.448437 88.914019 
L 352.841394 88.914019 
L 352.841394 107.20516 
L 353.234351 107.20516 
L 353.234351 105.086744 
L 353.627308 105.086744 
L 353.627308 92.035498 
L 354.020265 92.035498 
L 354.020265 82.884308 
L 354.413222 82.884308 
L 354.413222 85.735329 
L 354.806179 85.735329 
L 354.806179 112.383524 
L 355.199136 112.383524 
L 355.199136 106.208794 
L 355.592093 106.208794 
L 355.592093 114.822315 
L 355.98505 114.822315 
L 355.98505 85.596302 
L 356.378007 85.596302 
L 356.378007 114.782788 
L 356.770964 114.782788 
L 356.770964 100.532251 
L 357.16392 100.532251 
L 357.16392 143.777559 
L 357.556877 143.777559 
L 357.556877 93.580706 
L 357.949834 93.580706 
L 357.949834 126.638856 
L 358.342791 126.638856 
L 358.342791 105.992286 
L 358.735748 105.992286 
L 358.735748 111.689424 
L 359.128705 111.689424 
L 359.128705 104.670614 
L 359.521662 104.670614 
L 359.521662 99.652999 
L 359.914619 99.652999 
L 359.914619 115.079482 
L 360.307576 115.079482 
L 360.307576 124.664381 
L 360.700533 124.664381 
L 360.700533 115.300398 
L 361.09349 115.300398 
L 361.09349 111.005444 
L 361.486447 111.005444 
L 361.486447 122.708967 
L 361.879404 122.708967 
L 361.879404 135.292602 
L 362.272361 135.292602 
L 362.272361 130.373947 
L 362.665318 130.373947 
L 362.665318 131.193033 
L 363.058275 131.193033 
L 363.058275 126.625934 
L 363.451232 126.625934 
L 363.451232 121.48694 
L 363.844189 121.48694 
L 363.844189 116.064649 
L 364.237146 116.064649 
L 364.237146 114.846931 
L 364.630103 114.846931 
L 364.630103 114.089385 
L 365.023059 114.089385 
L 365.023059 123.843464 
L 365.416016 123.843464 
L 365.416016 122.482253 
L 365.808973 122.482253 
L 365.808973 135.725767 
L 366.20193 135.725767 
L 366.20193 150.879544 
L 366.594887 150.879544 
L 366.594887 142.119018 
L 366.987844 142.119018 
L 366.987844 135.464689 
L 367.380801 135.464689 
L 367.380801 157.864808 
L 367.773758 157.864808 
L 367.773758 133.136077 
L 368.166715 133.136077 
L 368.166715 143.043647 
L 368.559672 143.043647 
L 368.559672 123.409227 
L 368.952629 123.409227 
L 368.952629 151.228408 
L 369.345586 151.228408 
L 369.345586 120.40543 
L 369.738543 120.40543 
L 369.738543 160.350782 
L 370.1315 160.350782 
L 370.1315 131.073893 
L 370.524457 131.073893 
L 370.524457 144.180784 
L 370.917414 144.180784 
L 370.917414 164.707886 
L 371.310371 164.707886 
L 371.310371 154.291386 
L 371.703328 154.291386 
L 371.703328 142.985103 
L 372.096285 142.985103 
L 372.096285 139.931622 
L 372.489242 139.931622 
L 372.489242 158.24131 
L 372.882198 158.24131 
L 372.882198 142.368253 
L 373.275155 142.368253 
L 373.275155 151.311266 
L 373.668112 151.311266 
L 373.668112 155.768944 
L 374.061069 155.768944 
L 374.061069 158.600415 
L 374.454026 158.600415 
L 374.454026 166.653069 
L 374.846983 166.653069 
L 374.846983 173.61914 
L 375.23994 173.61914 
L 375.23994 166.895842 
L 375.632897 166.895842 
L 375.632897 167.498001 
L 376.025854 167.498001 
L 376.025854 179.067236 
L 376.418811 179.067236 
L 376.418811 180.651831 
L 376.811768 180.651831 
L 376.811768 173.79871 
L 377.204725 173.79871 
L 377.204725 165.574647 
L 377.597682 165.574647 
L 377.597682 164.998791 
L 377.990639 164.998791 
L 377.990639 174.458969 
L 378.383596 174.458969 
L 378.383596 184.186797 
L 378.776553 184.186797 
L 378.776553 156.548026 
L 379.16951 156.548026 
L 379.16951 176.955492 
L 379.562467 176.955492 
L 379.562467 177.086976 
L 379.955424 177.086976 
L 379.955424 166.004157 
L 380.348381 166.004157 
L 380.348381 187.733285 
L 380.741337 187.733285 
L 380.741337 193.563461 
L 381.134294 193.563461 
L 381.134294 202.376397 
L 381.527251 202.376397 
L 381.527251 184.584297 
L 381.920208 184.584297 
L 381.920208 203.966927 
L 382.313165 203.966927 
L 382.313165 186.639163 
L 382.706122 186.639163 
L 382.706122 201.327395 
L 383.099079 201.327395 
L 383.099079 210.859894 
L 383.492036 210.859894 
L 383.492036 191.361986 
L 383.884993 191.361986 
L 383.884993 199.879634 
L 384.27795 199.879634 
L 384.27795 228.258457 
L 384.670907 228.258457 
L 384.670907 196.02183 
L 385.063864 196.02183 
L 385.063864 210.283868 
L 385.456821 210.283868 
L 385.456821 213.030908 
L 385.849778 213.030908 
L 385.849778 210.376368 
L 386.242735 210.376368 
L 386.242735 222.968051 
L 386.635692 222.968051 
L 386.635692 201.577797 
L 387.028649 201.577797 
L 387.028649 208.405257 
L 387.421606 208.405257 
L 387.421606 219.138984 
L 387.814563 219.138984 
L 387.814563 220.798821 
L 388.20752 220.798821 
L 388.20752 235.50985 
L 388.600476 235.50985 
L 388.600476 219.815852 
L 388.993433 219.815852 
L 388.993433 226.980651 
L 389.38639 226.980651 
L 389.38639 231.166886 
L 389.779347 231.166886 
L 389.779347 223.530531 
L 390.172304 223.530531 
L 390.172304 240.171706 
L 390.565261 240.171706 
L 390.565261 241.531376 
L 390.958218 241.531376 
L 390.958218 225.236713 
L 391.351175 225.236713 
L 391.351175 225.912524 
L 391.744132 225.912524 
L 391.744132 232.850593 
L 392.137089 232.850593 
L 392.137089 233.355203 
L 392.530046 233.355203 
L 392.530046 241.060348 
L 392.923003 241.060348 
L 392.923003 235.39039 
L 393.708917 235.323499 
L 393.708917 238.985203 
L 394.101874 238.985203 
L 394.101874 260.504189 
L 394.494831 260.504189 
L 394.494831 241.942579 
L 394.887788 241.942579 
L 394.887788 251.883416 
L 395.280745 251.883416 
L 395.280745 248.262971 
L 395.673702 248.262971 
L 395.673702 254.109135 
L 396.066659 254.109135 
L 396.066659 251.849077 
L 396.459616 251.849077 
L 396.459616 254.000682 
L 396.852572 254.000682 
L 396.852572 276.580495 
L 397.245529 276.580495 
L 397.245529 266.404044 
L 397.638486 266.404044 
L 397.638486 264.847186 
L 398.031443 264.847186 
L 398.031443 280.212963 
L 398.4244 280.212963 
L 398.4244 270.099652 
L 398.817357 270.099652 
L 398.817357 266.786964 
L 399.210314 266.786964 
L 399.210314 272.931675 
L 399.603271 272.931675 
L 399.603271 270.136992 
L 399.996228 270.136992 
L 399.996228 267.68235 
L 400.389185 267.68235 
L 400.389185 274.245645 
L 400.782142 274.245645 
L 400.782142 266.504182 
L 401.175099 266.504182 
L 401.175099 280.853532 
L 401.961013 280.810031 
L 401.961013 283.274321 
L 402.35397 283.274321 
L 402.35397 288.482298 
L 402.746927 288.482298 
L 402.746927 289.717774 
L 403.139884 289.717774 
L 403.139884 286.480496 
L 403.532841 286.480496 
L 403.532841 295.091696 
L 403.925798 295.091696 
L 403.925798 291.738286 
L 404.318755 291.738286 
L 404.318755 294.426394 
L 404.711711 294.426394 
L 404.711711 283.694724 
L 405.104668 283.694724 
L 405.104668 293.092348 
L 405.497625 293.092348 
L 405.497625 295.369341 
L 405.890582 295.369341 
L 405.890582 296.646272 
L 406.283539 296.646272 
L 406.283539 300.489003 
L 406.676496 300.489003 
L 406.676496 298.408314 
L 407.069453 298.408314 
L 407.069453 299.777811 
L 407.46241 299.777811 
L 407.46241 298.713408 
L 407.855367 298.713408 
L 407.855367 300.988616 
L 408.248324 300.988616 
L 408.248324 297.938933 
L 408.641281 297.938933 
L 408.641281 301.540585 
L 409.034238 301.540585 
L 409.034238 301.019352 
L 409.427195 301.019352 
L 409.427195 300.569779 
L 409.820152 300.569779 
L 409.820152 301.350933 
L 410.213109 301.350933 
L 410.213109 301.091065 
L 410.606066 301.091065 
L 410.606066 302.274522 
L 410.999023 302.274522 
L 410.999023 302.920959 
L 411.39198 302.920959 
L 411.39198 302.675639 
L 411.784937 302.675639 
L 411.784937 302.38014 
L 412.177894 302.38014 
L 412.177894 303.266102 
L 412.57085 303.266102 
L 412.57085 302.784182 
L 412.963807 302.784182 
L 412.963807 303.763931 
L 413.356764 303.763931 
L 413.356764 302.738728 
L 413.749721 302.738728 
L 413.749721 303.690468 
L 414.928592 303.652077 
L 414.928592 304.077849 
L 415.321549 304.077849 
L 415.321549 303.957637 
L 415.714506 303.957637 
L 415.714506 303.800613 
L 416.893377 303.750942 
L 416.893377 304.019396 
L 417.286334 304.019396 
L 417.286334 304.190516 
L 419.644076 304.212202 
L 419.644076 304.334539 
L 422.001817 304.403254 
L 422.001817 304.452764 
L 431.432784 304.54 
L 431.432784 304.54 
" clip-path="url(#p6209a8e475)" style="fill: none; stroke: #000000; stroke-linejoin: miter"/>
   </g>
   <g id="matplotlib.axis_1">
    <g id="xtick_1">
     <g id="line2d_1">
      <path d="M 97.715428 304.54 
L 97.715428 51.98775 
" clip-path="url(#p6209a8e475)" style="fill: none; stroke: #b0b0b0; stroke-width: 0.8; stroke-linecap: square"/>
     </g>
     <g id="line2d_2">
      <defs>
       <path id="m88131b9689" d="M 0 0 
L 0 3.5 
" style="stroke: #000000; stroke-width: 0.8"/>
      </defs>
      <g>
       <use xlink:href="#m88131b9689" x="97.715428" y="304.54" style="stroke: #000000; stroke-width: 0.8"/>
      </g>
     </g>
     <g id="text_1">
      <!-- 1.0 -->
      <g transform="translate(91.465428 318.369687) scale(0.1 -0.1)">
       <defs>
        <path id="STIXGeneral-Regular-31" d="M 2522 0 
L 755 0 
L 755 96 
Q 1107 115 1235 227 
Q 1363 339 1363 608 
L 1363 3482 
Q 1363 3795 1171 3795 
Q 1082 3795 883 3718 
L 710 3654 
L 710 3744 
L 1856 4326 
L 1914 4307 
L 1914 486 
Q 1914 275 2042 185 
Q 2170 96 2522 96 
L 2522 0 
z
" transform="scale(0.015625)"/>
        <path id="STIXGeneral-Regular-2e" d="M 1158 275 
Q 1158 134 1052 32 
Q 947 -70 800 -70 
Q 653 -70 550 32 
Q 448 134 448 281 
Q 448 429 553 534 
Q 659 640 806 640 
Q 947 640 1052 531 
Q 1158 422 1158 275 
z
" transform="scale(0.015625)"/>
        <path id="STIXGeneral-Regular-30" d="M 3046 2112 
Q 3046 1683 2963 1302 
Q 2880 922 2717 602 
Q 2554 282 2266 96 
Q 1978 -90 1600 -90 
Q 1210 -90 915 108 
Q 621 307 461 640 
Q 301 973 227 1350 
Q 154 1728 154 2150 
Q 154 2746 301 3222 
Q 448 3699 790 4012 
Q 1133 4326 1626 4326 
Q 2253 4326 2649 3712 
Q 3046 3098 3046 2112 
z
M 2432 2080 
Q 2432 3091 2217 3625 
Q 2003 4160 1587 4160 
Q 1190 4160 979 3622 
Q 768 3085 768 2106 
Q 768 1120 979 598 
Q 1190 77 1600 77 
Q 2003 77 2217 598 
Q 2432 1120 2432 2080 
z
" transform="scale(0.015625)"/>
       </defs>
       <use xlink:href="#STIXGeneral-Regular-31"/>
       <use xlink:href="#STIXGeneral-Regular-2e" x="49.999985"/>
       <use xlink:href="#STIXGeneral-Regular-30" x="74.999969"/>
      </g>
     </g>
    </g>
    <g id="xtick_2">
     <g id="line2d_3">
      <path d="M 187.041404 304.54 
L 187.041404 51.98775 
" clip-path="url(#p6209a8e475)" style="fill: none; stroke: #b0b0b0; stroke-width: 0.8; stroke-linecap: square"/>
     </g>
     <g id="line2d_4">
      <g>
       <use xlink:href="#m88131b9689" x="187.041404" y="304.54" style="stroke: #000000; stroke-width: 0.8"/>
      </g>
     </g>
     <g id="text_2">
      <!-- 1.2 -->
      <g transform="translate(180.791404 318.369687) scale(0.1 -0.1)">
       <defs>
        <path id="STIXGeneral-Regular-32" d="M 3034 877 
L 2688 0 
L 186 0 
L 186 77 
L 1325 1286 
Q 1773 1754 1965 2144 
Q 2157 2534 2157 2950 
Q 2157 3379 1920 3616 
Q 1683 3853 1267 3853 
Q 922 3853 720 3673 
Q 518 3494 326 3021 
L 192 3053 
Q 301 3648 630 3987 
Q 960 4326 1523 4326 
Q 2054 4326 2380 4006 
Q 2707 3686 2707 3200 
Q 2707 2477 1888 1613 
L 832 486 
L 2330 486 
Q 2541 486 2665 569 
Q 2790 653 2944 915 
L 3034 877 
z
" transform="scale(0.015625)"/>
       </defs>
       <use xlink:href="#STIXGeneral-Regular-31"/>
       <use xlink:href="#STIXGeneral-Regular-2e" x="49.999985"/>
       <use xlink:href="#STIXGeneral-Regular-32" x="74.999969"/>
      </g>
     </g>
    </g>
    <g id="xtick_3">
     <g id="line2d_5">
      <path d="M 276.36738 304.54 
L 276.36738 51.98775 
" clip-path="url(#p6209a8e475)" style="fill: none; stroke: #b0b0b0; stroke-width: 0.8; stroke-linecap: square"/>
     </g>
     <g id="line2d_6">
      <g>
       <use xlink:href="#m88131b9689" x="276.36738" y="304.54" style="stroke: #000000; stroke-width: 0.8"/>
      </g>
     </g>
     <g id="text_3">
      <!-- 1.4 -->
      <g transform="translate(270.11738 318.369687) scale(0.1 -0.1)">
       <defs>
        <path id="STIXGeneral-Regular-34" d="M 3027 1069 
L 2368 1069 
L 2368 0 
L 1869 0 
L 1869 1069 
L 77 1069 
L 77 1478 
L 2086 4326 
L 2368 4326 
L 2368 1478 
L 3027 1478 
L 3027 1069 
z
M 1869 1478 
L 1869 3674 
L 333 1478 
L 1869 1478 
z
" transform="scale(0.015625)"/>
       </defs>
       <use xlink:href="#STIXGeneral-Regular-31"/>
       <use xlink:href="#STIXGeneral-Regular-2e" x="49.999985"/>
       <use xlink:href="#STIXGeneral-Regular-34" x="74.999969"/>
      </g>
     </g>
    </g>
    <g id="xtick_4">
     <g id="line2d_7">
      <path d="M 365.693356 304.54 
L 365.693356 51.98775 
" clip-path="url(#p6209a8e475)" style="fill: none; stroke: #b0b0b0; stroke-width: 0.8; stroke-linecap: square"/>
     </g>
     <g id="line2d_8">
      <g>
       <use xlink:href="#m88131b9689" x="365.693356" y="304.54" style="stroke: #000000; stroke-width: 0.8"/>
      </g>
     </g>
     <g id="text_4">
      <!-- 1.6 -->
      <g transform="translate(359.443356 318.369687) scale(0.1 -0.1)">
       <defs>
        <path id="STIXGeneral-Regular-36" d="M 2854 4378 
L 2867 4275 
Q 2112 4154 1606 3664 
Q 1101 3174 973 2451 
Q 1344 2739 1786 2739 
Q 2349 2739 2672 2380 
Q 2995 2022 2995 1402 
Q 2995 774 2669 378 
Q 2291 -90 1651 -90 
Q 870 -90 518 557 
Q 218 1107 218 1786 
Q 218 2835 915 3552 
Q 1312 3962 1731 4131 
Q 2150 4301 2854 4378 
z
M 2419 1203 
Q 2419 2445 1555 2445 
Q 1235 2445 1024 2275 
Q 813 2106 813 1702 
Q 813 954 1046 522 
Q 1280 90 1722 90 
Q 2061 90 2240 394 
Q 2419 698 2419 1203 
z
" transform="scale(0.015625)"/>
       </defs>
       <use xlink:href="#STIXGeneral-Regular-31"/>
       <use xlink:href="#STIXGeneral-Regular-2e" x="49.999985"/>
       <use xlink:href="#STIXGeneral-Regular-36" x="74.999969"/>
      </g>
     </g>
    </g>
    <g id="xtick_5">
     <g id="line2d_9">
      <path d="M 53.05244 304.54 
L 53.05244 51.98775 
" clip-path="url(#p6209a8e475)" style="fill: none; stroke-dasharray: 2.96,1.28; stroke-dashoffset: 0; stroke: #dcdcdc; stroke-width: 0.8"/>
     </g>
     <g id="line2d_10">
      <defs>
       <path id="m861ce413ec" d="M 0 0 
L 0 2 
" style="stroke: #000000; stroke-width: 0.6"/>
      </defs>
      <g>
       <use xlink:href="#m861ce413ec" x="53.05244" y="304.54" style="stroke: #000000; stroke-width: 0.6"/>
      </g>
     </g>
    </g>
    <g id="xtick_6">
     <g id="line2d_11">
      <path d="M 75.383934 304.54 
L 75.383934 51.98775 
" clip-path="url(#p6209a8e475)" style="fill: none; stroke-dasharray: 2.96,1.28; stroke-dashoffset: 0; stroke: #dcdcdc; stroke-width: 0.8"/>
     </g>
     <g id="line2d_12">
      <g>
       <use xlink:href="#m861ce413ec" x="75.383934" y="304.54" style="stroke: #000000; stroke-width: 0.6"/>
      </g>
     </g>
    </g>
    <g id="xtick_7">
     <g id="line2d_13">
      <path d="M 120.046922 304.54 
L 120.046922 51.98775 
" clip-path="url(#p6209a8e475)" style="fill: none; stroke-dasharray: 2.96,1.28; stroke-dashoffset: 0; stroke: #dcdcdc; stroke-width: 0.8"/>
     </g>
     <g id="line2d_14">
      <g>
       <use xlink:href="#m861ce413ec" x="120.046922" y="304.54" style="stroke: #000000; stroke-width: 0.6"/>
      </g>
     </g>
    </g>
    <g id="xtick_8">
     <g id="line2d_15">
      <path d="M 142.378416 304.54 
L 142.378416 51.98775 
" clip-path="url(#p6209a8e475)" style="fill: none; stroke-dasharray: 2.96,1.28; stroke-dashoffset: 0; stroke: #dcdcdc; stroke-width: 0.8"/>
     </g>
     <g id="line2d_16">
      <g>
       <use xlink:href="#m861ce413ec" x="142.378416" y="304.54" style="stroke: #000000; stroke-width: 0.6"/>
      </g>
     </g>
    </g>
    <g id="xtick_9">
     <g id="line2d_17">
      <path d="M 164.70991 304.54 
L 164.70991 51.98775 
" clip-path="url(#p6209a8e475)" style="fill: none; stroke-dasharray: 2.96,1.28; stroke-dashoffset: 0; stroke: #dcdcdc; stroke-width: 0.8"/>
     </g>
     <g id="line2d_18">
      <g>
       <use xlink:href="#m861ce413ec" x="164.70991" y="304.54" style="stroke: #000000; stroke-width: 0.6"/>
      </g>
     </g>
    </g>
    <g id="xtick_10">
     <g id="line2d_19">
      <path d="M 209.372898 304.54 
L 209.372898 51.98775 
" clip-path="url(#p6209a8e475)" style="fill: none; stroke-dasharray: 2.96,1.28; stroke-dashoffset: 0; stroke: #dcdcdc; stroke-width: 0.8"/>
     </g>
     <g id="line2d_20">
      <g>
       <use xlink:href="#m861ce413ec" x="209.372898" y="304.54" style="stroke: #000000; stroke-width: 0.6"/>
      </g>
     </g>
    </g>
    <g id="xtick_11">
     <g id="line2d_21">
      <path d="M 231.704392 304.54 
L 231.704392 51.98775 
" clip-path="url(#p6209a8e475)" style="fill: none; stroke-dasharray: 2.96,1.28; stroke-dashoffset: 0; stroke: #dcdcdc; stroke-width: 0.8"/>
     </g>
     <g id="line2d_22">
      <g>
       <use xlink:href="#m861ce413ec" x="231.704392" y="304.54" style="stroke: #000000; stroke-width: 0.6"/>
      </g>
     </g>
    </g>
    <g id="xtick_12">
     <g id="line2d_23">
      <path d="M 254.035886 304.54 
L 254.035886 51.98775 
" clip-path="url(#p6209a8e475)" style="fill: none; stroke-dasharray: 2.96,1.28; stroke-dashoffset: 0; stroke: #dcdcdc; stroke-width: 0.8"/>
     </g>
     <g id="line2d_24">
      <g>
       <use xlink:href="#m861ce413ec" x="254.035886" y="304.54" style="stroke: #000000; stroke-width: 0.6"/>
      </g>
     </g>
    </g>
    <g id="xtick_13">
     <g id="line2d_25">
      <path d="M 298.698874 304.54 
L 298.698874 51.98775 
" clip-path="url(#p6209a8e475)" style="fill: none; stroke-dasharray: 2.96,1.28; stroke-dashoffset: 0; stroke: #dcdcdc; stroke-width: 0.8"/>
     </g>
     <g id="line2d_26">
      <g>
       <use xlink:href="#m861ce413ec" x="298.698874" y="304.54" style="stroke: #000000; stroke-width: 0.6"/>
      </g>
     </g>
    </g>
    <g id="xtick_14">
     <g id="line2d_27">
      <path d="M 321.030368 304.54 
L 321.030368 51.98775 
" clip-path="url(#p6209a8e475)" style="fill: none; stroke-dasharray: 2.96,1.28; stroke-dashoffset: 0; stroke: #dcdcdc; stroke-width: 0.8"/>
     </g>
     <g id="line2d_28">
      <g>
       <use xlink:href="#m861ce413ec" x="321.030368" y="304.54" style="stroke: #000000; stroke-width: 0.6"/>
      </g>
     </g>
    </g>
    <g id="xtick_15">
     <g id="line2d_29">
      <path d="M 343.361862 304.54 
L 343.361862 51.98775 
" clip-path="url(#p6209a8e475)" style="fill: none; stroke-dasharray: 2.96,1.28; stroke-dashoffset: 0; stroke: #dcdcdc; stroke-width: 0.8"/>
     </g>
     <g id="line2d_30">
      <g>
       <use xlink:href="#m861ce413ec" x="343.361862" y="304.54" style="stroke: #000000; stroke-width: 0.6"/>
      </g>
     </g>
    </g>
    <g id="xtick_16">
     <g id="line2d_31">
      <path d="M 388.02485 304.54 
L 388.02485 51.98775 
" clip-path="url(#p6209a8e475)" style="fill: none; stroke-dasharray: 2.96,1.28; stroke-dashoffset: 0; stroke: #dcdcdc; stroke-width: 0.8"/>
     </g>
     <g id="line2d_32">
      <g>
       <use xlink:href="#m861ce413ec" x="388.02485" y="304.54" style="stroke: #000000; stroke-width: 0.6"/>
      </g>
     </g>
    </g>
    <g id="xtick_17">
     <g id="line2d_33">
      <path d="M 410.356344 304.54 
L 410.356344 51.98775 
" clip-path="url(#p6209a8e475)" style="fill: none; stroke-dasharray: 2.96,1.28; stroke-dashoffset: 0; stroke: #dcdcdc; stroke-width: 0.8"/>
     </g>
     <g id="line2d_34">
      <g>
       <use xlink:href="#m861ce413ec" x="410.356344" y="304.54" style="stroke: #000000; stroke-width: 0.6"/>
      </g>
     </g>
    </g>
    <g id="xtick_18">
     <g id="line2d_35">
      <path d="M 432.687838 304.54 
L 432.687838 51.98775 
" clip-path="url(#p6209a8e475)" style="fill: none; stroke-dasharray: 2.96,1.28; stroke-dashoffset: 0; stroke: #dcdcdc; stroke-width: 0.8"/>
     </g>
     <g id="line2d_36">
      <g>
       <use xlink:href="#m861ce413ec" x="432.687838" y="304.54" style="stroke: #000000; stroke-width: 0.6"/>
      </g>
     </g>
    </g>
    <g id="text_5">
     <!-- x / mm -->
     <g transform="translate(231.591094 331.369687) scale(0.1 -0.1)">
      <defs>
       <path id="STIXGeneral-Regular-78" d="M 3066 0 
L 1779 0 
L 1779 96 
Q 1939 109 1987 137 
Q 2035 166 2035 250 
Q 2035 307 1997 365 
L 1414 1261 
L 909 474 
Q 781 275 781 211 
Q 781 96 1037 96 
L 1037 0 
L 109 0 
L 109 96 
Q 269 109 355 169 
Q 442 230 576 422 
L 1306 1478 
L 704 2400 
Q 557 2624 454 2704 
Q 352 2784 211 2784 
L 154 2784 
L 154 2880 
L 1478 2880 
L 1478 2784 
Q 1203 2778 1203 2643 
Q 1203 2509 1498 2074 
Q 1581 1958 1587 1946 
Q 1619 1990 1779 2227 
Q 1811 2285 1856 2349 
Q 1901 2413 1923 2451 
Q 1946 2490 1971 2528 
Q 1997 2566 2006 2595 
Q 2016 2624 2016 2643 
Q 2016 2765 1760 2784 
L 1760 2880 
L 2771 2880 
L 2771 2784 
Q 2445 2771 2253 2502 
L 1722 1734 
L 2541 480 
Q 2790 96 3066 96 
L 3066 0 
z
" transform="scale(0.015625)"/>
       <path id="STIXGeneral-Regular-20" transform="scale(0.015625)"/>
       <path id="STIXGeneral-Regular-2f" d="M 1837 4326 
L 378 -90 
L -58 -90 
L 1408 4326 
L 1837 4326 
z
" transform="scale(0.015625)"/>
       <path id="STIXGeneral-Regular-6d" d="M 4960 0 
L 3565 0 
L 3565 96 
Q 3834 122 3907 208 
Q 3981 294 3981 576 
L 3981 1894 
Q 3981 2278 3869 2444 
Q 3757 2611 3488 2611 
Q 3264 2611 3107 2521 
Q 2950 2432 2803 2221 
L 2803 608 
Q 2803 301 2896 201 
Q 2989 102 3264 96 
L 3264 0 
L 1830 0 
L 1830 96 
Q 2112 115 2189 188 
Q 2266 262 2266 550 
L 2266 1901 
Q 2266 2611 1850 2611 
Q 1670 2611 1468 2531 
Q 1267 2451 1171 2336 
Q 1088 2240 1088 2227 
L 1088 448 
Q 1088 243 1177 176 
Q 1267 109 1523 96 
L 1523 0 
L 102 0 
L 102 96 
Q 371 102 460 195 
Q 550 288 550 563 
L 550 2150 
Q 550 2387 499 2480 
Q 448 2573 326 2573 
Q 230 2573 122 2547 
L 122 2656 
Q 557 2778 1011 2944 
L 1062 2925 
L 1062 2451 
L 1075 2451 
Q 1363 2752 1584 2848 
Q 1805 2944 2054 2944 
Q 2560 2944 2733 2406 
Q 3232 2944 3776 2944 
Q 4518 2944 4518 1792 
L 4518 493 
Q 4518 282 4582 202 
Q 4646 122 4794 109 
L 4960 96 
L 4960 0 
z
" transform="scale(0.015625)"/>
      </defs>
      <use xlink:href="#STIXGeneral-Regular-78"/>
      <use xlink:href="#STIXGeneral-Regular-20" x="49.999985"/>
      <use xlink:href="#STIXGeneral-Regular-2f" x="74.999969"/>
      <use xlink:href="#STIXGeneral-Regular-20" x="102.799957"/>
      <use xlink:href="#STIXGeneral-Regular-6d" x="127.799942"/>
      <use xlink:href="#STIXGeneral-Regular-6d" x="205.59993"/>
     </g>
    </g>
   </g>
   <g id="matplotlib.axis_2">
    <g id="ytick_1">
     <g id="line2d_37">
      <path d="M 41.52125 304.54 
L 450 304.54 
" clip-path="url(#p6209a8e475)" style="fill: none; stroke: #b0b0b0; stroke-width: 0.8; stroke-linecap: square"/>
     </g>
     <g id="line2d_38">
      <defs>
       <path id="md467abe74c" d="M 0 0 
L -3.5 0 
" style="stroke: #000000; stroke-width: 0.8"/>
      </defs>
      <g>
       <use xlink:href="#md467abe74c" x="41.52125" y="304.54" style="stroke: #000000; stroke-width: 0.8"/>
      </g>
     </g>
     <g id="text_6">
      <!-- 0 -->
      <g transform="translate(29.52125 307.954844) scale(0.1 -0.1)">
       <use xlink:href="#STIXGeneral-Regular-30"/>
      </g>
     </g>
    </g>
    <g id="ytick_2">
     <g id="line2d_39">
      <path d="M 41.52125 253.597952 
L 450 253.597952 
" clip-path="url(#p6209a8e475)" style="fill: none; stroke: #b0b0b0; stroke-width: 0.8; stroke-linecap: square"/>
     </g>
     <g id="line2d_40">
      <g>
       <use xlink:href="#md467abe74c" x="41.52125" y="253.597952" style="stroke: #000000; stroke-width: 0.8"/>
      </g>
     </g>
     <g id="text_7">
      <!-- 20 -->
      <g transform="translate(24.52125 257.012796) scale(0.1 -0.1)">
       <use xlink:href="#STIXGeneral-Regular-32"/>
       <use xlink:href="#STIXGeneral-Regular-30" x="49.999985"/>
      </g>
     </g>
    </g>
    <g id="ytick_3">
     <g id="line2d_41">
      <path d="M 41.52125 202.655904 
L 450 202.655904 
" clip-path="url(#p6209a8e475)" style="fill: none; stroke: #b0b0b0; stroke-width: 0.8; stroke-linecap: square"/>
     </g>
     <g id="line2d_42">
      <g>
       <use xlink:href="#md467abe74c" x="41.52125" y="202.655904" style="stroke: #000000; stroke-width: 0.8"/>
      </g>
     </g>
     <g id="text_8">
      <!-- 40 -->
      <g transform="translate(24.52125 206.070748) scale(0.1 -0.1)">
       <use xlink:href="#STIXGeneral-Regular-34"/>
       <use xlink:href="#STIXGeneral-Regular-30" x="49.999985"/>
      </g>
     </g>
    </g>
    <g id="ytick_4">
     <g id="line2d_43">
      <path d="M 41.52125 151.713856 
L 450 151.713856 
" clip-path="url(#p6209a8e475)" style="fill: none; stroke: #b0b0b0; stroke-width: 0.8; stroke-linecap: square"/>
     </g>
     <g id="line2d_44">
      <g>
       <use xlink:href="#md467abe74c" x="41.52125" y="151.713856" style="stroke: #000000; stroke-width: 0.8"/>
      </g>
     </g>
     <g id="text_9">
      <!-- 60 -->
      <g transform="translate(24.52125 155.1287) scale(0.1 -0.1)">
       <use xlink:href="#STIXGeneral-Regular-36"/>
       <use xlink:href="#STIXGeneral-Regular-30" x="49.999985"/>
      </g>
     </g>
    </g>
    <g id="ytick_5">
     <g id="line2d_45">
      <path d="M 41.52125 100.771808 
L 450 100.771808 
" clip-path="url(#p6209a8e475)" style="fill: none; stroke: #b0b0b0; stroke-width: 0.8; stroke-linecap: square"/>
     </g>
     <g id="line2d_46">
      <g>
       <use xlink:href="#md467abe74c" x="41.52125" y="100.771808" style="stroke: #000000; stroke-width: 0.8"/>
      </g>
     </g>
     <g id="text_10">
      <!-- 80 -->
      <g transform="translate(24.52125 104.186652) scale(0.1 -0.1)">
       <defs>
        <path id="STIXGeneral-Regular-38" d="M 2848 992 
Q 2848 499 2505 204 
Q 2163 -90 1587 -90 
Q 1050 -90 704 204 
Q 358 499 358 954 
Q 358 1293 524 1533 
Q 691 1773 1190 2125 
Q 710 2522 553 2765 
Q 397 3008 397 3328 
Q 397 3782 745 4054 
Q 1094 4326 1638 4326 
Q 2106 4326 2410 4060 
Q 2714 3795 2714 3411 
Q 2714 3059 2531 2848 
Q 2349 2637 1856 2374 
Q 2432 1990 2640 1689 
Q 2848 1389 2848 992 
z
M 2272 3411 
Q 2272 3744 2086 3945 
Q 1901 4147 1574 4147 
Q 1248 4147 1059 3977 
Q 870 3808 870 3513 
Q 870 3219 1059 2979 
Q 1248 2739 1670 2490 
Q 1997 2682 2134 2896 
Q 2272 3110 2272 3411 
z
M 1734 1741 
L 1357 1997 
Q 1075 1766 960 1545 
Q 845 1325 845 1011 
Q 845 576 1065 333 
Q 1286 90 1658 90 
Q 1971 90 2166 285 
Q 2362 480 2362 794 
Q 2362 1082 2214 1299 
Q 2067 1517 1734 1741 
z
" transform="scale(0.015625)"/>
       </defs>
       <use xlink:href="#STIXGeneral-Regular-38"/>
       <use xlink:href="#STIXGeneral-Regular-30" x="49.999985"/>
      </g>
     </g>
    </g>
    <g id="ytick_6">
     <g id="line2d_47">
      <path d="M 41.52125 291.804488 
L 450 291.804488 
" clip-path="url(#p6209a8e475)" style="fill: none; stroke-dasharray: 2.96,1.28; stroke-dashoffset: 0; stroke: #dcdcdc; stroke-width: 0.8"/>
     </g>
     <g id="line2d_48">
      <defs>
       <path id="m3e1fca4903" d="M 0 0 
L -2 0 
" style="stroke: #000000; stroke-width: 0.6"/>
      </defs>
      <g>
       <use xlink:href="#m3e1fca4903" x="41.52125" y="291.804488" style="stroke: #000000; stroke-width: 0.6"/>
      </g>
     </g>
    </g>
    <g id="ytick_7">
     <g id="line2d_49">
      <path d="M 41.52125 279.068976 
L 450 279.068976 
" clip-path="url(#p6209a8e475)" style="fill: none; stroke-dasharray: 2.96,1.28; stroke-dashoffset: 0; stroke: #dcdcdc; stroke-width: 0.8"/>
     </g>
     <g id="line2d_50">
      <g>
       <use xlink:href="#m3e1fca4903" x="41.52125" y="279.068976" style="stroke: #000000; stroke-width: 0.6"/>
      </g>
     </g>
    </g>
    <g id="ytick_8">
     <g id="line2d_51">
      <path d="M 41.52125 266.333464 
L 450 266.333464 
" clip-path="url(#p6209a8e475)" style="fill: none; stroke-dasharray: 2.96,1.28; stroke-dashoffset: 0; stroke: #dcdcdc; stroke-width: 0.8"/>
     </g>
     <g id="line2d_52">
      <g>
       <use xlink:href="#m3e1fca4903" x="41.52125" y="266.333464" style="stroke: #000000; stroke-width: 0.6"/>
      </g>
     </g>
    </g>
    <g id="ytick_9">
     <g id="line2d_53">
      <path d="M 41.52125 240.86244 
L 450 240.86244 
" clip-path="url(#p6209a8e475)" style="fill: none; stroke-dasharray: 2.96,1.28; stroke-dashoffset: 0; stroke: #dcdcdc; stroke-width: 0.8"/>
     </g>
     <g id="line2d_54">
      <g>
       <use xlink:href="#m3e1fca4903" x="41.52125" y="240.86244" style="stroke: #000000; stroke-width: 0.6"/>
      </g>
     </g>
    </g>
    <g id="ytick_10">
     <g id="line2d_55">
      <path d="M 41.52125 228.126928 
L 450 228.126928 
" clip-path="url(#p6209a8e475)" style="fill: none; stroke-dasharray: 2.96,1.28; stroke-dashoffset: 0; stroke: #dcdcdc; stroke-width: 0.8"/>
     </g>
     <g id="line2d_56">
      <g>
       <use xlink:href="#m3e1fca4903" x="41.52125" y="228.126928" style="stroke: #000000; stroke-width: 0.6"/>
      </g>
     </g>
    </g>
    <g id="ytick_11">
     <g id="line2d_57">
      <path d="M 41.52125 215.391416 
L 450 215.391416 
" clip-path="url(#p6209a8e475)" style="fill: none; stroke-dasharray: 2.96,1.28; stroke-dashoffset: 0; stroke: #dcdcdc; stroke-width: 0.8"/>
     </g>
     <g id="line2d_58">
      <g>
       <use xlink:href="#m3e1fca4903" x="41.52125" y="215.391416" style="stroke: #000000; stroke-width: 0.6"/>
      </g>
     </g>
    </g>
    <g id="ytick_12">
     <g id="line2d_59">
      <path d="M 41.52125 189.920392 
L 450 189.920392 
" clip-path="url(#p6209a8e475)" style="fill: none; stroke-dasharray: 2.96,1.28; stroke-dashoffset: 0; stroke: #dcdcdc; stroke-width: 0.8"/>
     </g>
     <g id="line2d_60">
      <g>
       <use xlink:href="#m3e1fca4903" x="41.52125" y="189.920392" style="stroke: #000000; stroke-width: 0.6"/>
      </g>
     </g>
    </g>
    <g id="ytick_13">
     <g id="line2d_61">
      <path d="M 41.52125 177.18488 
L 450 177.18488 
" clip-path="url(#p6209a8e475)" style="fill: none; stroke-dasharray: 2.96,1.28; stroke-dashoffset: 0; stroke: #dcdcdc; stroke-width: 0.8"/>
     </g>
     <g id="line2d_62">
      <g>
       <use xlink:href="#m3e1fca4903" x="41.52125" y="177.18488" style="stroke: #000000; stroke-width: 0.6"/>
      </g>
     </g>
    </g>
    <g id="ytick_14">
     <g id="line2d_63">
      <path d="M 41.52125 164.449368 
L 450 164.449368 
" clip-path="url(#p6209a8e475)" style="fill: none; stroke-dasharray: 2.96,1.28; stroke-dashoffset: 0; stroke: #dcdcdc; stroke-width: 0.8"/>
     </g>
     <g id="line2d_64">
      <g>
       <use xlink:href="#m3e1fca4903" x="41.52125" y="164.449368" style="stroke: #000000; stroke-width: 0.6"/>
      </g>
     </g>
    </g>
    <g id="ytick_15">
     <g id="line2d_65">
      <path d="M 41.52125 138.978344 
L 450 138.978344 
" clip-path="url(#p6209a8e475)" style="fill: none; stroke-dasharray: 2.96,1.28; stroke-dashoffset: 0; stroke: #dcdcdc; stroke-width: 0.8"/>
     </g>
     <g id="line2d_66">
      <g>
       <use xlink:href="#m3e1fca4903" x="41.52125" y="138.978344" style="stroke: #000000; stroke-width: 0.6"/>
      </g>
     </g>
    </g>
    <g id="ytick_16">
     <g id="line2d_67">
      <path d="M 41.52125 126.242832 
L 450 126.242832 
" clip-path="url(#p6209a8e475)" style="fill: none; stroke-dasharray: 2.96,1.28; stroke-dashoffset: 0; stroke: #dcdcdc; stroke-width: 0.8"/>
     </g>
     <g id="line2d_68">
      <g>
       <use xlink:href="#m3e1fca4903" x="41.52125" y="126.242832" style="stroke: #000000; stroke-width: 0.6"/>
      </g>
     </g>
    </g>
    <g id="ytick_17">
     <g id="line2d_69">
      <path d="M 41.52125 113.50732 
L 450 113.50732 
" clip-path="url(#p6209a8e475)" style="fill: none; stroke-dasharray: 2.96,1.28; stroke-dashoffset: 0; stroke: #dcdcdc; stroke-width: 0.8"/>
     </g>
     <g id="line2d_70">
      <g>
       <use xlink:href="#m3e1fca4903" x="41.52125" y="113.50732" style="stroke: #000000; stroke-width: 0.6"/>
      </g>
     </g>
    </g>
    <g id="ytick_18">
     <g id="line2d_71">
      <path d="M 41.52125 88.036296 
L 450 88.036296 
" clip-path="url(#p6209a8e475)" style="fill: none; stroke-dasharray: 2.96,1.28; stroke-dashoffset: 0; stroke: #dcdcdc; stroke-width: 0.8"/>
     </g>
     <g id="line2d_72">
      <g>
       <use xlink:href="#m3e1fca4903" x="41.52125" y="88.036296" style="stroke: #000000; stroke-width: 0.6"/>
      </g>
     </g>
    </g>
    <g id="ytick_19">
     <g id="line2d_73">
      <path d="M 41.52125 75.300784 
L 450 75.300784 
" clip-path="url(#p6209a8e475)" style="fill: none; stroke-dasharray: 2.96,1.28; stroke-dashoffset: 0; stroke: #dcdcdc; stroke-width: 0.8"/>
     </g>
     <g id="line2d_74">
      <g>
       <use xlink:href="#m3e1fca4903" x="41.52125" y="75.300784" style="stroke: #000000; stroke-width: 0.6"/>
      </g>
     </g>
    </g>
    <g id="ytick_20">
     <g id="line2d_75">
      <path d="M 41.52125 62.565272 
L 450 62.565272 
" clip-path="url(#p6209a8e475)" style="fill: none; stroke-dasharray: 2.96,1.28; stroke-dashoffset: 0; stroke: #dcdcdc; stroke-width: 0.8"/>
     </g>
     <g id="line2d_76">
      <g>
       <use xlink:href="#m3e1fca4903" x="41.52125" y="62.565272" style="stroke: #000000; stroke-width: 0.6"/>
      </g>
     </g>
    </g>
    <g id="text_11">
     <!-- Lightness (CIELUV) -->
     <g transform="translate(18.341563 220.618562) rotate(-90) scale(0.1 -0.1)">
      <defs>
       <path id="STIXGeneral-Regular-4c" d="M 3827 1114 
L 3520 0 
L 77 0 
L 77 122 
Q 429 141 531 256 
Q 634 371 634 736 
L 634 3494 
Q 634 3872 541 3981 
Q 448 4090 77 4115 
L 77 4237 
L 1888 4237 
L 1888 4115 
Q 1498 4090 1392 3984 
Q 1286 3878 1286 3507 
L 1286 538 
Q 1286 358 1398 304 
Q 1510 250 1862 250 
L 2310 250 
Q 3085 250 3392 640 
Q 3520 813 3661 1114 
L 3827 1114 
z
" transform="scale(0.015625)"/>
       <path id="STIXGeneral-Regular-69" d="M 1152 4045 
Q 1152 3904 1056 3811 
Q 960 3718 819 3718 
Q 685 3718 592 3811 
Q 499 3904 499 4045 
Q 499 4179 595 4275 
Q 691 4371 826 4371 
Q 966 4371 1059 4275 
Q 1152 4179 1152 4045 
z
M 1619 0 
L 102 0 
L 102 96 
Q 435 115 521 211 
Q 608 307 608 666 
L 608 2118 
Q 608 2342 563 2432 
Q 518 2522 397 2522 
Q 243 2522 128 2490 
L 128 2592 
L 1120 2944 
L 1146 2918 
L 1146 672 
Q 1146 314 1226 218 
Q 1306 122 1619 96 
L 1619 0 
z
" transform="scale(0.015625)"/>
       <path id="STIXGeneral-Regular-67" d="M 3008 2483 
L 2477 2483 
Q 2598 2208 2598 1946 
Q 2598 1453 2265 1203 
Q 1933 954 1600 954 
Q 1530 954 1357 973 
L 1235 986 
Q 1107 947 979 812 
Q 851 678 851 582 
Q 851 435 1350 410 
L 2176 371 
Q 2528 358 2739 172 
Q 2950 -13 2950 -314 
Q 2950 -685 2566 -986 
Q 2035 -1395 1286 -1395 
Q 826 -1395 502 -1212 
Q 179 -1030 179 -774 
Q 179 -595 320 -419 
Q 461 -243 806 6 
Q 602 102 534 172 
Q 467 243 467 346 
Q 467 531 762 787 
Q 909 915 1037 1043 
Q 717 1203 579 1401 
Q 442 1600 442 1901 
Q 442 2336 752 2640 
Q 1062 2944 1510 2944 
Q 1766 2944 2022 2848 
L 2163 2797 
Q 2349 2733 2515 2733 
L 3008 2733 
L 3008 2483 
z
M 973 2163 
L 973 2144 
Q 973 1683 1155 1398 
Q 1338 1114 1632 1114 
Q 1850 1114 1978 1270 
Q 2106 1427 2106 1690 
Q 2106 2112 1914 2464 
Q 1754 2765 1446 2765 
Q 1222 2765 1097 2605 
Q 973 2445 973 2163 
z
M 2771 -410 
Q 2771 -230 2595 -163 
Q 2419 -96 1978 -96 
Q 1344 -96 941 -13 
Q 749 -243 688 -348 
Q 627 -454 627 -563 
Q 627 -774 880 -902 
Q 1133 -1030 1555 -1030 
Q 2099 -1030 2435 -860 
Q 2771 -691 2771 -410 
z
" transform="scale(0.015625)"/>
       <path id="STIXGeneral-Regular-68" d="M 3117 0 
L 1760 0 
L 1760 96 
Q 2042 128 2118 224 
Q 2195 320 2195 653 
L 2195 1920 
Q 2195 2598 1722 2598 
Q 1530 2598 1370 2508 
Q 1210 2419 1005 2195 
L 1005 653 
Q 1005 320 1081 224 
Q 1158 128 1440 96 
L 1440 0 
L 58 0 
L 58 96 
Q 333 134 400 224 
Q 467 314 467 653 
L 467 3667 
Q 467 3872 406 3933 
Q 346 3994 141 3994 
Q 83 3994 64 3987 
L 64 4090 
L 237 4141 
Q 730 4288 973 4371 
L 1005 4352 
L 1005 2406 
Q 1229 2694 1446 2819 
Q 1664 2944 1946 2944 
Q 2733 2944 2733 1926 
L 2733 653 
Q 2733 320 2793 233 
Q 2854 147 3117 96 
L 3117 0 
z
" transform="scale(0.015625)"/>
       <path id="STIXGeneral-Regular-74" d="M 1702 493 
L 1786 422 
Q 1478 -64 1011 -64 
Q 448 -64 448 749 
L 448 2675 
L 109 2675 
Q 83 2694 83 2720 
Q 83 2771 192 2842 
Q 435 2982 813 3526 
Q 826 3546 874 3606 
Q 922 3667 941 3706 
Q 986 3706 986 3622 
L 986 2880 
L 1632 2880 
L 1632 2675 
L 986 2675 
L 986 845 
Q 986 538 1062 403 
Q 1139 269 1318 269 
Q 1510 269 1702 493 
z
" transform="scale(0.015625)"/>
       <path id="STIXGeneral-Regular-6e" d="M 3104 0 
L 1773 0 
L 1779 96 
Q 2016 115 2096 233 
Q 2176 352 2176 672 
L 2176 1946 
Q 2176 2592 1709 2592 
Q 1549 2592 1408 2515 
Q 1267 2438 1050 2227 
L 1050 461 
Q 1050 269 1136 192 
Q 1222 115 1466 96 
L 1466 0 
L 115 0 
L 115 96 
Q 358 115 435 214 
Q 512 314 512 602 
L 512 2157 
Q 512 2394 467 2483 
Q 422 2573 288 2573 
Q 160 2573 102 2547 
L 102 2656 
Q 550 2784 979 2944 
L 1030 2925 
L 1030 2426 
L 1037 2426 
Q 1491 2944 1958 2944 
Q 2323 2944 2518 2688 
Q 2714 2432 2714 1958 
L 2714 544 
Q 2714 288 2790 205 
Q 2867 122 3104 96 
L 3104 0 
z
" transform="scale(0.015625)"/>
       <path id="STIXGeneral-Regular-65" d="M 2611 1050 
L 2714 1005 
Q 2330 -64 1376 -64 
Q 813 -64 486 329 
Q 160 723 160 1389 
Q 160 2074 525 2509 
Q 890 2944 1485 2944 
Q 2061 2944 2374 2502 
Q 2560 2246 2592 1773 
L 621 1773 
Q 646 1370 700 1158 
Q 755 947 915 730 
Q 1184 378 1626 378 
Q 1939 378 2153 531 
Q 2368 685 2611 1050 
z
M 634 1978 
L 1939 1978 
Q 1882 2381 1750 2547 
Q 1619 2714 1312 2714 
Q 1043 2714 864 2525 
Q 685 2336 634 1978 
z
" transform="scale(0.015625)"/>
       <path id="STIXGeneral-Regular-73" d="M 998 1926 
L 1664 1523 
Q 1984 1331 2105 1164 
Q 2227 998 2227 736 
Q 2227 416 1961 176 
Q 1696 -64 1331 -64 
Q 1030 -64 864 -6 
Q 691 51 570 51 
Q 461 51 416 -26 
L 333 -26 
L 333 979 
L 435 979 
Q 538 512 730 294 
Q 922 77 1248 77 
Q 1485 77 1632 211 
Q 1779 346 1779 550 
Q 1779 845 1440 1030 
L 1094 1222 
Q 326 1651 326 2150 
Q 326 2522 566 2730 
Q 806 2938 1210 2938 
Q 1491 2938 1638 2867 
Q 1754 2816 1818 2816 
Q 1862 2816 1920 2880 
L 1990 2880 
L 2022 2010 
L 1926 2010 
Q 1818 2445 1654 2621 
Q 1491 2797 1203 2797 
Q 986 2797 854 2688 
Q 723 2579 723 2362 
Q 723 2253 796 2128 
Q 870 2003 998 1926 
z
" transform="scale(0.015625)"/>
       <path id="STIXGeneral-Regular-28" d="M 1946 -1030 
L 1869 -1133 
Q 1126 -710 716 32 
Q 307 774 307 1613 
Q 307 3386 1888 4326 
L 1946 4224 
Q 1293 3667 1075 3126 
Q 858 2586 858 1632 
Q 858 685 1082 96 
Q 1306 -493 1946 -1030 
z
" transform="scale(0.015625)"/>
       <path id="STIXGeneral-Regular-43" d="M 3930 838 
L 4051 723 
Q 3482 -90 2304 -90 
Q 1376 -90 794 480 
Q 179 1082 179 2080 
Q 179 3014 755 3661 
Q 1357 4326 2310 4326 
Q 2720 4326 3072 4230 
Q 3475 4115 3514 4115 
Q 3725 4115 3782 4326 
L 3910 4326 
L 3968 2874 
L 3821 2874 
Q 3718 3334 3488 3584 
Q 3034 4070 2458 4070 
Q 1747 4070 1334 3548 
Q 922 3027 922 2182 
Q 922 1152 1382 653 
Q 1811 192 2522 192 
Q 2944 192 3251 339 
Q 3558 486 3930 838 
z
" transform="scale(0.015625)"/>
       <path id="STIXGeneral-Regular-49" d="M 2016 0 
L 115 0 
L 115 122 
Q 518 134 627 240 
Q 736 346 736 717 
L 736 3526 
Q 736 3898 633 3994 
Q 531 4090 115 4115 
L 115 4237 
L 2016 4237 
L 2016 4115 
Q 1613 4096 1501 3993 
Q 1389 3891 1389 3526 
L 1389 717 
Q 1389 358 1504 246 
Q 1619 134 2016 122 
L 2016 0 
z
" transform="scale(0.015625)"/>
       <path id="STIXGeneral-Regular-45" d="M 3821 1082 
L 3526 0 
L 77 0 
L 77 122 
Q 442 147 538 252 
Q 634 358 634 730 
L 634 3520 
Q 634 3878 534 3987 
Q 435 4096 77 4115 
L 77 4237 
L 3469 4237 
L 3494 3322 
L 3334 3322 
Q 3264 3750 3085 3872 
Q 2906 3994 2349 3994 
L 1510 3994 
Q 1370 3994 1328 3952 
Q 1286 3910 1286 3763 
L 1286 2355 
L 2253 2355 
Q 2656 2355 2787 2470 
Q 2918 2586 2976 2970 
L 3123 2970 
L 3123 1472 
L 2976 1472 
Q 2918 1875 2790 1984 
Q 2662 2093 2253 2093 
L 1286 2093 
L 1286 538 
Q 1286 346 1420 291 
Q 1555 237 1933 237 
L 2163 237 
Q 2848 237 3136 403 
Q 3424 570 3642 1082 
L 3821 1082 
z
" transform="scale(0.015625)"/>
       <path id="STIXGeneral-Regular-55" d="M 4512 4237 
L 4512 4115 
Q 4122 4077 4016 3926 
Q 3910 3776 3910 3302 
L 3910 1670 
Q 3910 1178 3840 896 
Q 3770 614 3565 378 
Q 3155 -90 2272 -90 
Q 1574 -90 1184 205 
Q 666 589 666 1594 
L 666 3578 
Q 666 3898 566 3994 
Q 467 4090 90 4115 
L 90 4237 
L 1901 4237 
L 1901 4115 
Q 1517 4083 1417 3977 
Q 1318 3872 1318 3514 
L 1318 1517 
Q 1318 1101 1369 877 
Q 1421 653 1600 480 
Q 1901 192 2419 192 
Q 3066 192 3392 570 
Q 3539 749 3584 963 
Q 3629 1178 3629 1600 
L 3629 3283 
Q 3629 3782 3520 3936 
Q 3411 4090 3027 4115 
L 3027 4237 
L 4512 4237 
z
" transform="scale(0.015625)"/>
       <path id="STIXGeneral-Regular-56" d="M 4461 4237 
L 4461 4115 
Q 4262 4109 4134 3990 
Q 4006 3872 3872 3533 
L 2451 -70 
L 2355 -70 
L 794 3411 
Q 589 3866 467 3987 
Q 346 4109 102 4115 
L 102 4237 
L 1798 4237 
L 1798 4115 
L 1619 4102 
Q 1331 4083 1331 3904 
Q 1331 3776 1581 3219 
L 2554 1030 
L 3494 3392 
Q 3616 3699 3616 3853 
Q 3616 3898 3606 3933 
Q 3597 3968 3584 3993 
Q 3571 4019 3536 4038 
Q 3501 4058 3481 4067 
Q 3462 4077 3411 4086 
Q 3360 4096 3337 4099 
Q 3315 4102 3248 4108 
Q 3181 4115 3155 4115 
L 3155 4237 
L 4461 4237 
z
" transform="scale(0.015625)"/>
       <path id="STIXGeneral-Regular-29" d="M 186 4224 
L 262 4326 
Q 992 3891 1408 3148 
Q 1824 2406 1824 1581 
Q 1824 -166 243 -1133 
L 186 -1030 
Q 845 -486 1059 54 
Q 1274 595 1274 1562 
Q 1274 2534 1059 3120 
Q 845 3706 186 4224 
z
" transform="scale(0.015625)"/>
      </defs>
      <use xlink:href="#STIXGeneral-Regular-4c"/>
      <use xlink:href="#STIXGeneral-Regular-69" x="61.099991"/>
      <use xlink:href="#STIXGeneral-Regular-67" x="88.899979"/>
      <use xlink:href="#STIXGeneral-Regular-68" x="138.899963"/>
      <use xlink:href="#STIXGeneral-Regular-74" x="188.899948"/>
      <use xlink:href="#STIXGeneral-Regular-6e" x="216.699936"/>
      <use xlink:href="#STIXGeneral-Regular-65" x="266.699921"/>
      <use xlink:href="#STIXGeneral-Regular-73" x="311.099915"/>
      <use xlink:href="#STIXGeneral-Regular-73" x="349.999908"/>
      <use xlink:href="#STIXGeneral-Regular-20" x="388.899902"/>
      <use xlink:href="#STIXGeneral-Regular-28" x="413.899887"/>
      <use xlink:href="#STIXGeneral-Regular-43" x="447.199875"/>
      <use xlink:href="#STIXGeneral-Regular-49" x="513.899872"/>
      <use xlink:href="#STIXGeneral-Regular-45" x="547.19986"/>
      <use xlink:href="#STIXGeneral-Regular-4c" x="608.29985"/>
      <use xlink:href="#STIXGeneral-Regular-55" x="669.399841"/>
      <use xlink:href="#STIXGeneral-Regular-56" x="741.599823"/>
      <use xlink:href="#STIXGeneral-Regular-29" x="813.799805"/>
     </g>
    </g>
   </g>
   <g id="patch_4">
    <path d="M 41.52125 304.54 
L 41.52125 51.98775 
" style="fill: none; stroke: #000000; stroke-width: 0.8; stroke-linejoin: miter; stroke-linecap: square"/>
   </g>
   <g id="patch_5">
    <path d="M 450 304.54 
L 450 51.98775 
" style="fill: none; stroke: #000000; stroke-width: 0.8; stroke-linejoin: miter; stroke-linecap: square"/>
   </g>
   <g id="patch_6">
    <path d="M 41.52125 304.54 
L 450 304.54 
" style="fill: none; stroke: #000000; stroke-width: 0.8; stroke-linejoin: miter; stroke-linecap: square"/>
   </g>
   <g id="patch_7">
    <path d="M 41.52125 51.98775 
L 450 51.98775 
" style="fill: none; stroke: #000000; stroke-width: 0.8; stroke-linejoin: miter; stroke-linecap: square"/>
   </g>
   <g id="text_12">
    <!-- DET0 at z = 23 mm -->
    <g transform="translate(197.155 21.09825) scale(0.12 -0.12)">
     <defs>
      <path id="STIXGeneral-Regular-44" d="M 102 4237 
L 1830 4237 
Q 3078 4237 3750 3654 
Q 4384 3110 4384 2138 
Q 4384 966 3514 410 
Q 2880 0 1901 0 
L 102 0 
L 102 122 
Q 474 147 570 252 
Q 666 358 666 736 
L 666 3520 
Q 666 3891 570 3990 
Q 474 4090 102 4115 
L 102 4237 
z
M 1318 3731 
L 1318 538 
Q 1318 365 1379 301 
Q 1440 237 1626 237 
Q 2125 237 2432 307 
Q 2739 378 3021 570 
Q 3686 1018 3686 2099 
Q 3686 3027 3078 3558 
Q 2803 3802 2476 3901 
Q 2150 4000 1658 4000 
Q 1472 4000 1395 3942 
Q 1318 3885 1318 3731 
z
" transform="scale(0.015625)"/>
      <path id="STIXGeneral-Regular-54" d="M 3795 3149 
L 3642 3149 
Q 3539 3674 3353 3821 
Q 3168 3968 2656 3968 
L 2278 3968 
L 2278 710 
Q 2278 346 2387 243 
Q 2496 141 2893 122 
L 2893 0 
L 1024 0 
L 1024 122 
Q 1427 147 1526 256 
Q 1626 365 1626 787 
L 1626 3968 
L 1242 3968 
Q 723 3968 540 3817 
Q 358 3667 262 3149 
L 109 3149 
L 154 4237 
L 3750 4237 
L 3795 3149 
z
" transform="scale(0.015625)"/>
      <path id="STIXGeneral-Regular-61" d="M 2829 422 
L 2829 243 
Q 2586 -64 2253 -64 
Q 1888 -64 1843 403 
L 1837 403 
Q 1427 -64 909 -64 
Q 608 -64 422 112 
Q 237 288 237 602 
Q 237 1050 685 1350 
Q 992 1555 1837 1869 
L 1837 2214 
Q 1837 2502 1699 2646 
Q 1562 2790 1338 2790 
Q 1146 2790 1018 2697 
Q 890 2605 890 2477 
Q 890 2419 909 2348 
Q 928 2278 928 2208 
Q 928 2112 841 2029 
Q 755 1946 634 1946 
Q 525 1946 441 2029 
Q 358 2112 358 2240 
Q 358 2547 685 2752 
Q 986 2944 1421 2944 
Q 1939 2944 2176 2656 
Q 2291 2522 2323 2384 
Q 2355 2246 2355 1946 
L 2355 723 
Q 2355 301 2554 301 
Q 2682 301 2829 422 
z
M 1837 813 
L 1837 1715 
Q 1248 1510 1018 1293 
Q 800 1094 800 800 
Q 800 557 921 432 
Q 1043 307 1242 307 
Q 1453 307 1613 410 
Q 1747 506 1792 589 
Q 1837 672 1837 813 
z
" transform="scale(0.015625)"/>
      <path id="STIXGeneral-Regular-7a" d="M 2675 870 
L 2579 0 
L 173 0 
L 173 96 
L 1875 2688 
L 1011 2688 
Q 710 2688 604 2582 
Q 499 2477 454 2125 
L 339 2125 
L 365 2880 
L 2579 2880 
L 2579 2784 
L 858 192 
L 1709 192 
Q 2246 192 2387 365 
Q 2477 474 2560 896 
L 2675 870 
z
" transform="scale(0.015625)"/>
      <path id="STIXGeneral-Regular-3d" d="M 4077 2048 
L 307 2048 
L 307 2470 
L 4077 2470 
L 4077 2048 
z
M 4077 768 
L 307 768 
L 307 1190 
L 4077 1190 
L 4077 768 
z
" transform="scale(0.015625)"/>
      <path id="STIXGeneral-Regular-33" d="M 390 3264 
L 288 3290 
Q 435 3770 748 4048 
Q 1062 4326 1542 4326 
Q 1990 4326 2265 4083 
Q 2541 3840 2541 3450 
Q 2541 2925 1946 2566 
Q 2298 2413 2477 2227 
Q 2758 1914 2758 1402 
Q 2758 890 2464 506 
Q 2246 211 1840 60 
Q 1434 -90 979 -90 
Q 262 -90 262 275 
Q 262 378 339 442 
Q 416 506 525 506 
Q 685 506 915 339 
Q 1197 141 1466 141 
Q 1818 141 2058 425 
Q 2298 710 2298 1120 
Q 2298 1856 1632 2048 
Q 1434 2112 979 2112 
L 979 2202 
Q 1338 2323 1517 2432 
Q 2035 2726 2035 3290 
Q 2035 3610 1852 3776 
Q 1670 3942 1344 3942 
Q 768 3942 390 3264 
z
" transform="scale(0.015625)"/>
     </defs>
     <use xlink:href="#STIXGeneral-Regular-44"/>
     <use xlink:href="#STIXGeneral-Regular-45" x="72.199982"/>
     <use xlink:href="#STIXGeneral-Regular-54" x="133.299973"/>
     <use xlink:href="#STIXGeneral-Regular-30" x="194.399963"/>
     <use xlink:href="#STIXGeneral-Regular-20" x="244.399948"/>
     <use xlink:href="#STIXGeneral-Regular-61" x="269.399933"/>
     <use xlink:href="#STIXGeneral-Regular-74" x="313.799927"/>
     <use xlink:href="#STIXGeneral-Regular-20" x="341.599915"/>
     <use xlink:href="#STIXGeneral-Regular-7a" x="366.599899"/>
     <use xlink:href="#STIXGeneral-Regular-20" x="410.999893"/>
     <use xlink:href="#STIXGeneral-Regular-3d" x="435.999878"/>
     <use xlink:href="#STIXGeneral-Regular-20" x="504.499863"/>
     <use xlink:href="#STIXGeneral-Regular-32" x="529.499847"/>
     <use xlink:href="#STIXGeneral-Regular-33" x="579.499832"/>
     <use xlink:href="#STIXGeneral-Regular-20" x="629.499817"/>
     <use xlink:href="#STIXGeneral-Regular-6d" x="654.499802"/>
     <use xlink:href="#STIXGeneral-Regular-6d" x="732.299789"/>
    </g>
    <!-- Mode: Lightness (CIELUV) -->
    <g transform="translate(177.768438 33.537375) scale(0.12 -0.12)">
     <defs>
      <path id="STIXGeneral-Regular-4d" d="M 5530 0 
L 3738 0 
L 3738 122 
Q 4115 147 4214 265 
Q 4314 384 4314 787 
L 4314 3661 
L 2682 0 
L 2592 0 
L 979 3514 
L 979 966 
Q 979 448 1088 294 
Q 1197 141 1574 122 
L 1574 0 
L 77 0 
L 77 122 
Q 358 141 480 205 
Q 602 269 650 432 
Q 698 595 698 966 
L 698 3514 
Q 698 3878 589 3984 
Q 480 4090 90 4115 
L 90 4237 
L 1357 4237 
L 2835 1024 
L 4250 4237 
L 5523 4237 
L 5523 4115 
Q 5178 4109 5072 3993 
Q 4966 3878 4966 3520 
L 4966 717 
Q 4966 378 5072 262 
Q 5178 147 5530 122 
L 5530 0 
z
" transform="scale(0.015625)"/>
      <path id="STIXGeneral-Regular-6f" d="M 3008 1478 
Q 3008 806 2608 371 
Q 2208 -64 1568 -64 
Q 979 -64 582 368 
Q 186 800 186 1459 
Q 186 2125 582 2534 
Q 979 2944 1626 2944 
Q 2221 2944 2614 2537 
Q 3008 2131 3008 1478 
z
M 2432 1306 
Q 2432 2035 2112 2445 
Q 1856 2765 1504 2765 
Q 1171 2765 966 2493 
Q 762 2221 762 1747 
Q 762 928 1101 435 
Q 1318 115 1677 115 
Q 2029 115 2230 432 
Q 2432 749 2432 1306 
z
" transform="scale(0.015625)"/>
      <path id="STIXGeneral-Regular-64" d="M 3142 269 
L 2202 -64 
L 2176 -45 
L 2176 365 
Q 1869 -64 1357 -64 
Q 826 -64 499 317 
Q 173 698 173 1312 
Q 173 1990 563 2467 
Q 954 2944 1504 2944 
Q 1850 2944 2176 2669 
L 2176 3667 
Q 2176 3866 2118 3930 
Q 2061 3994 1882 3994 
Q 1792 3994 1741 3987 
L 1741 4090 
Q 2323 4243 2682 4371 
L 2714 4358 
L 2714 730 
Q 2714 506 2768 435 
Q 2822 365 2995 365 
Q 3034 365 3142 371 
L 3142 269 
z
M 2176 653 
L 2176 2125 
Q 2176 2381 1981 2573 
Q 1786 2765 1523 2765 
Q 1158 2765 940 2438 
Q 723 2112 723 1568 
Q 723 979 963 624 
Q 1203 269 1606 269 
Q 1907 269 2080 474 
Q 2176 582 2176 653 
z
" transform="scale(0.015625)"/>
      <path id="STIXGeneral-Regular-3a" d="M 1123 2832 
Q 1229 2726 1229 2579 
Q 1229 2432 1126 2329 
Q 1024 2227 877 2227 
Q 730 2227 624 2332 
Q 518 2438 518 2579 
Q 518 2733 620 2835 
Q 723 2938 877 2938 
Q 1018 2938 1123 2832 
z
M 1229 282 
Q 1229 141 1126 35 
Q 1024 -70 877 -70 
Q 730 -70 624 35 
Q 518 141 518 282 
Q 518 435 620 537 
Q 723 640 877 640 
Q 1018 640 1123 534 
Q 1229 429 1229 282 
z
" transform="scale(0.015625)"/>
     </defs>
     <use xlink:href="#STIXGeneral-Regular-4d"/>
     <use xlink:href="#STIXGeneral-Regular-6f" x="88.899994"/>
     <use xlink:href="#STIXGeneral-Regular-64" x="138.899979"/>
     <use xlink:href="#STIXGeneral-Regular-65" x="188.899963"/>
     <use xlink:href="#STIXGeneral-Regular-3a" x="233.299957"/>
     <use xlink:href="#STIXGeneral-Regular-20" x="261.099945"/>
     <use xlink:href="#STIXGeneral-Regular-4c" x="286.09993"/>
     <use xlink:href="#STIXGeneral-Regular-69" x="347.199921"/>
     <use xlink:href="#STIXGeneral-Regular-67" x="374.999908"/>
     <use xlink:href="#STIXGeneral-Regular-68" x="424.999893"/>
     <use xlink:href="#STIXGeneral-Regular-74" x="474.999878"/>
     <use xlink:href="#STIXGeneral-Regular-6e" x="502.799866"/>
     <use xlink:href="#STIXGeneral-Regular-65" x="552.79985"/>
     <use xlink:href="#STIXGeneral-Regular-73" x="597.199844"/>
     <use xlink:href="#STIXGeneral-Regular-73" x="636.099838"/>
     <use xlink:href="#STIXGeneral-Regular-20" x="674.999832"/>
     <use xlink:href="#STIXGeneral-Regular-28" x="699.999817"/>
     <use xlink:href="#STIXGeneral-Regular-43" x="733.299805"/>
     <use xlink:href="#STIXGeneral-Regular-49" x="799.999802"/>
     <use xlink:href="#STIXGeneral-Regular-45" x="833.299789"/>
     <use xlink:href="#STIXGeneral-Regular-4c" x="894.39978"/>
     <use xlink:href="#STIXGeneral-Regular-55" x="955.499771"/>
     <use xlink:href="#STIXGeneral-Regular-56" x="1027.699753"/>
     <use xlink:href="#STIXGeneral-Regular-29" x="1099.899734"/>
    </g>
    <!-- Cut at y = 0 mm -->
    <g transform="translate(205.812813 45.98775) scale(0.12 -0.12)">
     <defs>
      <path id="STIXGeneral-Regular-75" d="M 3072 320 
L 3072 230 
Q 2573 96 2195 -58 
L 2163 -38 
L 2163 486 
L 2150 486 
Q 1747 -64 1235 -64 
Q 870 -64 662 160 
Q 454 384 454 755 
L 454 2362 
Q 454 2598 371 2688 
Q 288 2778 58 2790 
L 58 2880 
L 992 2880 
L 992 813 
Q 992 595 1123 451 
Q 1254 307 1446 307 
Q 1760 307 1984 506 
Q 2067 582 2099 649 
Q 2131 717 2131 877 
L 2131 2355 
Q 2131 2605 2041 2678 
Q 1952 2752 1658 2771 
L 1658 2880 
L 2669 2880 
L 2669 685 
Q 2669 461 2742 390 
Q 2816 320 3034 320 
L 3072 320 
z
" transform="scale(0.015625)"/>
      <path id="STIXGeneral-Regular-79" d="M 3040 2880 
L 3040 2784 
Q 2925 2771 2854 2700 
Q 2784 2630 2720 2458 
L 1760 -160 
Q 1510 -838 1257 -1116 
Q 1005 -1395 640 -1395 
Q 435 -1395 313 -1289 
Q 192 -1184 192 -1024 
Q 192 -902 272 -816 
Q 352 -730 467 -730 
Q 653 -730 800 -813 
Q 883 -858 966 -858 
Q 1101 -858 1286 -576 
Q 1376 -448 1459 -211 
Q 1542 26 1542 115 
Q 1542 198 1274 762 
L 429 2566 
Q 346 2752 90 2790 
L 90 2880 
L 1402 2880 
L 1402 2784 
Q 1197 2778 1117 2739 
Q 1037 2701 1037 2611 
Q 1037 2541 1120 2349 
L 1837 749 
L 2458 2515 
Q 2483 2573 2483 2630 
Q 2483 2784 2189 2784 
L 2189 2880 
L 3040 2880 
z
" transform="scale(0.015625)"/>
     </defs>
     <use xlink:href="#STIXGeneral-Regular-43"/>
     <use xlink:href="#STIXGeneral-Regular-75" x="66.699997"/>
     <use xlink:href="#STIXGeneral-Regular-74" x="116.699982"/>
     <use xlink:href="#STIXGeneral-Regular-20" x="144.499969"/>
     <use xlink:href="#STIXGeneral-Regular-61" x="169.499954"/>
     <use xlink:href="#STIXGeneral-Regular-74" x="213.899948"/>
     <use xlink:href="#STIXGeneral-Regular-20" x="241.699936"/>
     <use xlink:href="#STIXGeneral-Regular-79" x="266.699921"/>
     <use xlink:href="#STIXGeneral-Regular-20" x="316.699905"/>
     <use xlink:href="#STIXGeneral-Regular-3d" x="341.69989"/>
     <use xlink:href="#STIXGeneral-Regular-20" x="410.199875"/>
     <use xlink:href="#STIXGeneral-Regular-30" x="435.19986"/>
     <use xlink:href="#STIXGeneral-Regular-20" x="485.199844"/>
     <use xlink:href="#STIXGeneral-Regular-6d" x="510.199829"/>
     <use xlink:href="#STIXGeneral-Regular-6d" x="587.999817"/>
    </g>
   </g>
  </g>
 </g>
 <defs>
  <clipPath id="p6209a8e475">
   <rect x="41.52125" y="51.98775" width="408.47875" height="252.55225"/>
  </clipPath>
 </defs>
</svg>
