<?xml version="1.0" encoding="UTF-8" standalone="no"?>
<!-- Created with Inkscape (http://www.inkscape.org/) -->

<svg
   width="92.148689mm"
   height="60.393753mm"
   viewBox="0 0 92.14869 60.393753"
   version="1.1"
   id="svg5"
   inkscape:version="1.2.2 (b0a8486541, 2022-12-01)"
   sodipodi:docname="direction_cone.svg"
   xmlns:inkscape="http://www.inkscape.org/namespaces/inkscape"
   xmlns:sodipodi="http://sodipodi.sourceforge.net/DTD/sodipodi-0.dtd"
   xmlns="http://www.w3.org/2000/svg"
   xmlns:svg="http://www.w3.org/2000/svg">
  <sodipodi:namedview
     id="namedview7"
     pagecolor="#ffffff"
     bordercolor="#666666"
     borderopacity="1.0"
     inkscape:showpageshadow="2"
     inkscape:pageopacity="0.0"
     inkscape:pagecheckerboard="0"
     inkscape:deskcolor="#d1d1d1"
     inkscape:document-units="mm"
     showgrid="false"
     inkscape:zoom="8"
     inkscape:cx="120.875"
     inkscape:cy="105.5625"
     inkscape:window-width="2560"
     inkscape:window-height="1366"
     inkscape:window-x="1920"
     inkscape:window-y="0"
     inkscape:window-maximized="1"
     inkscape:current-layer="layer1">
    <inkscape:grid
       type="xygrid"
       id="grid132"
       originx="-54.833694"
       originy="-27.903564" />
  </sodipodi:namedview>
  <defs
     id="defs2">
    <marker
       style="overflow:visible"
       id="Arrow1L"
       refX="0"
       refY="0"
       orient="auto-start-reverse"
       inkscape:stockid="Arrow1L"
       markerWidth="8.75"
       markerHeight="5"
       viewBox="0 0 8.75 5"
       inkscape:isstock="true"
       inkscape:collect="always"
       preserveAspectRatio="xMidYMid">
      <path
         style="fill:context-stroke;fill-rule:evenodd;stroke:none"
         d="M 0,0 5,-5 -12.5,0 5,5 Z"
         id="arrow1L"
         transform="scale(-0.5)" />
    </marker>
    <inkscape:path-effect
       effect="spiro"
       id="path-effect499"
       is_visible="true"
       lpeversion="1" />
    <inkscape:path-effect
       effect="spiro"
       id="path-effect25773"
       is_visible="true"
       lpeversion="1" />
    <inkscape:path-effect
       effect="spiro"
       id="path-effect9757"
       is_visible="true"
       lpeversion="1" />
    <inkscape:path-effect
       effect="spiro"
       id="path-effect9723"
       is_visible="true"
       lpeversion="1" />
    <inkscape:path-effect
       effect="spiro"
       id="path-effect9689"
       is_visible="true"
       lpeversion="1" />
    <inkscape:path-effect
       effect="spiro"
       id="path-effect9655"
       is_visible="true"
       lpeversion="1" />
    <inkscape:path-effect
       effect="spiro"
       id="path-effect9621"
       is_visible="true"
       lpeversion="1" />
    <inkscape:path-effect
       effect="spiro"
       id="path-effect9587"
       is_visible="true"
       lpeversion="1" />
    <inkscape:path-effect
       effect="spiro"
       id="path-effect7107"
       is_visible="true"
       lpeversion="1" />
    <inkscape:path-effect
       effect="spiro"
       id="path-effect7073"
       is_visible="true"
       lpeversion="1" />
    <inkscape:path-effect
       effect="spiro"
       id="path-effect7039"
       is_visible="true"
       lpeversion="1" />
    <inkscape:path-effect
       effect="spiro"
       id="path-effect6941"
       is_visible="true"
       lpeversion="1" />
    <inkscape:path-effect
       effect="spiro"
       id="path-effect6907"
       is_visible="true"
       lpeversion="1" />
    <inkscape:path-effect
       effect="spiro"
       id="path-effect6805"
       is_visible="true"
       lpeversion="1" />
    <inkscape:path-effect
       effect="spiro"
       id="path-effect5739"
       is_visible="true"
       lpeversion="1" />
    <inkscape:path-effect
       effect="spiro"
       id="path-effect5705"
       is_visible="true"
       lpeversion="1" />
    <inkscape:path-effect
       effect="spiro"
       id="path-effect5671"
       is_visible="true"
       lpeversion="1" />
    <marker
       style="overflow:visible"
       id="marker5599_Fnone_S-3942d0"
       refX="0"
       refY="0"
       orient="auto-start-reverse"
       inkscape:stockid="Arrow1L"
       markerWidth="8.75"
       markerHeight="5"
       viewBox="0 0 8.75 5"
       inkscape:isstock="true"
       inkscape:collect="always"
       preserveAspectRatio="xMidYMid">
      <path
         style="fill:#3942d0;fill-rule:evenodd;stroke:none"
         d="M 0,0 5,-5 -12.5,0 5,5 Z"
         id="path26143"
         transform="scale(-0.5)" />
    </marker>
    <marker
       style="overflow:visible"
       id="marker5509_Fnone_S-000000"
       refX="0"
       refY="0"
       orient="auto-start-reverse"
       inkscape:stockid="Arrow1L"
       markerWidth="8.75"
       markerHeight="5"
       viewBox="0 0 8.75 5"
       inkscape:isstock="true"
       inkscape:collect="always"
       preserveAspectRatio="xMidYMid">
      <path
         style="fill:#000000;fill-rule:evenodd;stroke:none"
         d="M 0,0 5,-5 -12.5,0 5,5 Z"
         id="path26146"
         transform="scale(-0.5)" />
    </marker>
    <inkscape:path-effect
       effect="spiro"
       id="path-effect4815"
       is_visible="true"
       lpeversion="1" />
    <marker
       style="overflow:visible"
       id="marker1556_Fnone_S-000000"
       refX="0"
       refY="0"
       orient="auto-start-reverse"
       inkscape:stockid="Arrow1L"
       markerWidth="8.75"
       markerHeight="5"
       viewBox="0 0 8.75 5"
       inkscape:isstock="true"
       inkscape:collect="always"
       preserveAspectRatio="xMidYMid">
      <path
         style="fill:#000000;fill-rule:evenodd;stroke:none"
         d="M 0,0 5,-5 -12.5,0 5,5 Z"
         id="path26149"
         transform="scale(-0.5)" />
    </marker>
    <marker
       style="overflow:visible"
       id="marker1512_Fnone_S-3942d0"
       refX="0"
       refY="0"
       orient="auto-start-reverse"
       inkscape:stockid="Arrow1L"
       markerWidth="8.75"
       markerHeight="5"
       viewBox="0 0 8.75 5"
       inkscape:isstock="true"
       inkscape:collect="always"
       preserveAspectRatio="xMidYMid">
      <path
         style="fill:#3942d0;fill-rule:evenodd;stroke:none"
         d="M 0,0 5,-5 -12.5,0 5,5 Z"
         id="path26155"
         transform="scale(-0.5)" />
    </marker>
    <marker
       style="overflow:visible"
       id="marker1512_Fnone_S-000000"
       refX="0"
       refY="0"
       orient="auto-start-reverse"
       inkscape:stockid="Arrow1L"
       markerWidth="8.75"
       markerHeight="5"
       viewBox="0 0 8.75 5"
       inkscape:isstock="true"
       inkscape:collect="always"
       preserveAspectRatio="xMidYMid">
      <path
         style="fill:#000000;fill-rule:evenodd;stroke:none"
         d="M 0,0 5,-5 -12.5,0 5,5 Z"
         id="path26152"
         transform="scale(-0.5)" />
    </marker>
    <inkscape:path-effect
       effect="spiro"
       id="path-effect1496"
       is_visible="true"
       lpeversion="1" />
    <inkscape:path-effect
       effect="spiro"
       id="path-effect1480"
       is_visible="true"
       lpeversion="1" />
    <marker
       style="overflow:visible"
       id="Arrow1L_Fnone_S-000000"
       refX="0"
       refY="0"
       orient="auto-start-reverse"
       inkscape:stockid="Arrow1L"
       markerWidth="8.75"
       markerHeight="5"
       viewBox="0 0 8.75 5"
       inkscape:isstock="true"
       inkscape:collect="always"
       preserveAspectRatio="xMidYMid">
      <path
         style="fill:#000000;fill-rule:evenodd;stroke:none"
         d="M 0,0 5,-5 -12.5,0 5,5 Z"
         id="path26158"
         transform="scale(-0.5)" />
    </marker>
    <inkscape:path-effect
       effect="spiro"
       id="path-effect627"
       is_visible="true"
       lpeversion="1" />
    <inkscape:path-effect
       effect="spiro"
       id="path-effect623"
       is_visible="true"
       lpeversion="1" />
    <inkscape:path-effect
       effect="spiro"
       id="path-effect4132"
       is_visible="true"
       lpeversion="1" />
    <inkscape:path-effect
       effect="spiro"
       id="path-effect4148"
       is_visible="true"
       lpeversion="1" />
    <inkscape:path-effect
       effect="spiro"
       id="path-effect4164"
       is_visible="true"
       lpeversion="1" />
    <inkscape:path-effect
       effect="spiro"
       id="path-effect4180"
       is_visible="true"
       lpeversion="1" />
  </defs>
  <g
     inkscape:label="Layer 1"
     inkscape:groupmode="layer"
     id="layer1"
     transform="translate(-54.833694,-27.903564)">
    <path
       id="path13325"
       style="fill:#e3c914;fill-opacity:0.248328;stroke:#ad8738;stroke-width:0.3;stroke-linecap:round;stroke-linejoin:round;stroke-opacity:1;paint-order:fill markers stroke"
       d="M 88.013765,42.535727 C 97.150614,35.839993 104.23042,73.015408 94.702718,71.08051 94.692128,71.115931 61,65 61,65 Z"
       sodipodi:nodetypes="cccc" />
    <path
       style="display:none;fill:none;fill-opacity:0.248328;stroke:#ad8738;stroke-width:0.3;stroke-linecap:round;stroke-linejoin:round;stroke-opacity:1;paint-order:fill markers stroke"
       d="m 88.751285,41.956508 c 7.537152,-2.281835 13.231625,28.07054 7.250057,29.335539"
       id="path14430"
       sodipodi:nodetypes="cc" />
    <path
       style="fill:none;fill-opacity:0.248328;stroke:#ad8738;stroke-width:0.3;stroke-linecap:round;stroke-linejoin:round;stroke-opacity:0.41115;paint-order:fill markers stroke"
       d="M 95.364933,71.152337 C 87.956281,71.303957 82.791366,45.343163 88.708397,42.121835"
       id="path13325-7"
       sodipodi:nodetypes="cc" />
    <circle
       style="fill:#e3c914;fill-opacity:0.248328;stroke:#ad8738;stroke-width:0.3;stroke-linecap:round;stroke-linejoin:round;stroke-dasharray:none;stroke-opacity:1;paint-order:fill markers stroke"
       id="path13215"
       cx="125"
       cy="60"
       r="15" />
    <path
       style="fill:none;fill-opacity:1;stroke:#000000;stroke-width:0.3;stroke-linecap:round;stroke-linejoin:round;stroke-dasharray:none;stroke-opacity:1;paint-order:fill markers stroke"
       id="path11163"
       sodipodi:type="arc"
       sodipodi:cx="125.14826"
       sodipodi:cy="59.99015"
       sodipodi:rx="7.0375805"
       sodipodi:ry="7.0375805"
       sodipodi:start="5.5152404"
       sodipodi:end="6.2622414"
       sodipodi:open="true"
       sodipodi:arc-type="arc"
       d="m 130.21067,55.101436 a 7.0375805,7.0375805 0 0 1 1.97363,4.741331" />
    <path
       style="fill:none;stroke:#000000;stroke-width:0.299807;stroke-linecap:round;stroke-linejoin:round;stroke-dasharray:none;stroke-opacity:1;marker-end:url(#marker5509_Fnone_S-000000)"
       d="M 61,65 91.065844,56.644148"
       id="path621"
       inkscape:original-d="M 61,65 C 71.069506,62.18204 80.996737,59.462556 91.065844,56.644148"
       inkscape:path-effect="#path-effect623"
       sodipodi:nodetypes="cc" />
    <path
       style="fill:none;stroke:#000000;stroke-width:0.300061;stroke-linecap:butt;stroke-linejoin:miter;stroke-dasharray:none;stroke-opacity:1;marker-end:url(#Arrow1L_Fnone_S-000000)"
       d="M 61,65 91.4357,48.309166"
       id="path625"
       inkscape:original-d="M 61,65 C 71.145484,59.436589 81.290718,53.872978 91.4357,48.309166"
       inkscape:path-effect="#path-effect627" />
    <path
       style="fill:none;stroke:#000000;stroke-width:0.3;stroke-linecap:butt;stroke-linejoin:miter;stroke-dasharray:none;stroke-opacity:1;marker-end:url(#marker1556_Fnone_S-000000)"
       d="M 75,85 H 85.053687"
       id="path1478"
       inkscape:path-effect="#path-effect1480"
       inkscape:original-d="m 75,85 c 3.351496,2.67e-4 6.702723,2.67e-4 10.053687,0" />
    <path
       style="fill:none;stroke:#000000;stroke-width:0.3;stroke-linecap:butt;stroke-linejoin:miter;stroke-dasharray:none;stroke-opacity:1;marker-end:url(#marker1512_Fnone_S-000000)"
       d="M 75,85.053684 V 75"
       id="path1494"
       inkscape:path-effect="#path-effect1496"
       inkscape:original-d="M 75,85.053684 C 75.000266,81.702723 75.000266,78.351493 75,75" />
    <circle
       style="fill:#ffffff;stroke:#000000;stroke-width:0.3;stroke-linecap:round;stroke-linejoin:bevel;stroke-dashoffset:4.77492;paint-order:fill markers stroke"
       id="path2242"
       cx="75"
       cy="85"
       r="1" />
    <g
       aria-label="s"
       id="text2469"
       style="font-size:3.52777px;line-height:1.25;font-family:'Times New Roman';-inkscape-font-specification:'Times New Roman, ';text-align:center;text-anchor:middle;stroke-width:0.264583"
       transform="translate(1.0583333,1.0583333)">
      <path
         d="m 77.172818,51.529167 v 0.537434 h -0.05684 q -0.06546,-0.253214 -0.168809,-0.344509 -0.10163,-0.0913 -0.260104,-0.0913 -0.120578,0 -0.194647,0.06374 -0.07407,0.06373 -0.07407,0.141248 0,0.09646 0.05512,0.165364 0.0534,0.07063 0.21704,0.149862 l 0.251491,0.1223 q 0.349677,0.170532 0.349677,0.449584 0,0.215318 -0.163642,0.347954 -0.161919,0.130914 -0.363457,0.130914 -0.144693,0 -0.330728,-0.05168 -0.05684,-0.01723 -0.09302,-0.01723 -0.03962,0 -0.06201,0.04479 h -0.05684 V 52.61437 h 0.05684 q 0.04823,0.241156 0.184312,0.363457 0.136081,0.1223 0.304891,0.1223 0.118855,0 0.192924,-0.0689 0.07579,-0.07062 0.07579,-0.16881 0,-0.118855 -0.0844,-0.199815 -0.08268,-0.08096 -0.332451,-0.204982 -0.249769,-0.124024 -0.327284,-0.223931 -0.07751,-0.09819 -0.07751,-0.248047 0,-0.194647 0.132636,-0.32556 0.134358,-0.130914 0.346231,-0.130914 0.09302,0 0.225653,0.03962 0.08785,0.02584 0.117133,0.02584 0.02756,0 0.04306,-0.01206 0.0155,-0.01206 0.03617,-0.0534 z"
         id="path12317" />
    </g>
    <g
       aria-label="s0"
       id="text2473"
       style="font-size:3.52777px;line-height:1.25;font-family:'Times New Roman';-inkscape-font-specification:'Times New Roman, ';text-align:center;text-anchor:middle;stroke-width:0.264583"
       transform="translate(0,-1.0583333)">
      <path
         d="m 84.161964,60.814896 v 0.537434 h -0.05684 q -0.06546,-0.253214 -0.168809,-0.344509 -0.10163,-0.0913 -0.260104,-0.0913 -0.120578,0 -0.194648,0.06373 -0.07407,0.06373 -0.07407,0.141249 0,0.09646 0.05512,0.165364 0.0534,0.07062 0.217041,0.149861 l 0.251491,0.122301 q 0.349677,0.170532 0.349677,0.449584 0,0.215318 -0.163642,0.347954 -0.161919,0.130913 -0.363457,0.130913 -0.144693,0 -0.330728,-0.05168 -0.05684,-0.01723 -0.09302,-0.01723 -0.03962,0 -0.06201,0.04479 h -0.05684 v -0.563272 h 0.05684 q 0.04823,0.241157 0.184312,0.363457 0.136081,0.122301 0.30489,0.122301 0.118856,0 0.192925,-0.0689 0.07579,-0.07062 0.07579,-0.168809 0,-0.118856 -0.0844,-0.199815 -0.08268,-0.08096 -0.332451,-0.204983 -0.249769,-0.124023 -0.327284,-0.223931 -0.07751,-0.09819 -0.07751,-0.248046 0,-0.194648 0.132636,-0.325561 0.134358,-0.130913 0.346231,-0.130913 0.09302,0 0.225653,0.03962 0.08785,0.02584 0.117133,0.02584 0.02756,0 0.04306,-0.01206 0.0155,-0.01206 0.03617,-0.0534 z"
         id="path12320" />
      <path
         d="m 84.487697,62.394641 q 0,-0.25976 0.07838,-0.446742 0.07838,-0.188102 0.208256,-0.279913 0.100768,-0.07278 0.208255,-0.07278 0.174666,0 0.313503,0.178025 0.173546,0.220572 0.173546,0.597895 0,0.264238 -0.07614,0.448981 -0.07614,0.184743 -0.19482,0.268717 -0.117563,0.08285 -0.227289,0.08285 -0.217213,0 -0.361648,-0.2564 -0.122043,-0.216093 -0.122043,-0.520639 z m 0.219452,0.02799 q 0,0.313503 0.07726,0.511682 0.06382,0.166828 0.190342,0.166828 0.06046,0 0.125401,-0.05374 0.06494,-0.05486 0.09853,-0.182504 0.0515,-0.19258 0.0515,-0.543032 0,-0.259759 -0.05374,-0.433306 -0.04031,-0.12876 -0.104128,-0.182503 -0.04591,-0.03695 -0.110845,-0.03695 -0.07614,0 -0.135479,0.0683 -0.08061,0.09293 -0.109726,0.29223 -0.02911,0.199298 -0.02911,0.392998 z"
         style="font-size:65%;baseline-shift:sub"
         id="path12322" />
    </g>
    <g
       aria-label="z"
       id="text2477"
       style="font-size:3.52777px;line-height:1.25;font-family:'Times New Roman';-inkscape-font-specification:'Times New Roman, ';text-align:center;text-anchor:middle;stroke-width:0.264583">
      <path
         d="M 80.698492,87.515965 80.679544,88 h -1.391816 v -0.06201 l 1.047307,-1.39526 h -0.516763 q -0.167087,0 -0.218763,0.02239 -0.05168,0.02067 -0.08441,0.08096 -0.04651,0.08613 -0.0534,0.213596 h -0.0689 l 0.01034,-0.437526 h 1.322913 v 0.06373 l -1.057642,1.39871 h 0.57533 q 0.180867,0 0.244601,-0.02928 0.06546,-0.031 0.105075,-0.106797 0.02756,-0.05512 0.04651,-0.232544 z"
         id="path12325" />
    </g>
    <g
       aria-label="y"
       id="text2481"
       style="font-size:3.52777px;line-height:1.25;font-family:'Times New Roman';-inkscape-font-specification:'Times New Roman, ';text-align:center;text-anchor:middle;stroke-width:0.264583">
      <path
         d="m 71.57735,78.414558 h 0.735526 v 0.06373 h -0.03617 q -0.07751,0 -0.117133,0.03445 -0.0379,0.03273 -0.0379,0.08268 0,0.06718 0.05684,0.186034 l 0.384128,0.795816 0.353121,-0.871608 q 0.02928,-0.07062 0.02928,-0.139526 0,-0.031 -0.01206,-0.04651 -0.01378,-0.01895 -0.04306,-0.02928 -0.02928,-0.01206 -0.103353,-0.01206 v -0.06373 h 0.513319 v 0.06373 q -0.06373,0.0069 -0.09819,0.02756 -0.03445,0.02067 -0.07579,0.07751 -0.0155,0.02412 -0.05857,0.132636 l -0.642509,1.574405 q -0.09302,0.229098 -0.244601,0.346231 -0.149861,0.117133 -0.289387,0.117133 -0.101631,0 -0.167087,-0.05857 -0.06546,-0.05857 -0.06546,-0.134359 0,-0.07235 0.04651,-0.117133 0.04823,-0.04306 0.130913,-0.04306 0.05684,0 0.155029,0.0379 0.0689,0.02584 0.08613,0.02584 0.05168,0 0.111966,-0.0534 0.06201,-0.0534 0.124023,-0.206705 l 0.111965,-0.273885 -0.566717,-1.190278 q -0.02584,-0.0534 -0.08268,-0.132636 -0.04306,-0.06029 -0.07062,-0.08096 -0.03962,-0.02756 -0.127468,-0.04823 z"
         id="path12328" />
    </g>
    <g
       aria-label="x"
       id="text2485"
       style="font-size:3.52777px;line-height:1.25;font-family:'Times New Roman';-inkscape-font-specification:'Times New Roman, ';text-align:center;text-anchor:middle;stroke-width:0.264583">
      <path
         d="m 71.164566,85.42215 h 0.742417 v 0.06373 q -0.07062,0 -0.09991,0.02411 -0.02756,0.02412 -0.02756,0.06374 0,0.04134 0.06029,0.127468 0.01895,0.02756 0.05684,0.08613 l 0.111966,0.179145 0.129191,-0.179145 q 0.124023,-0.170532 0.124023,-0.215318 0,-0.03617 -0.02928,-0.06029 -0.02928,-0.02584 -0.09474,-0.02584 v -0.06373 h 0.533988 v 0.06373 q -0.0844,0.0052 -0.146416,0.04651 -0.0844,0.05857 -0.230821,0.254936 l -0.215318,0.287665 0.39274,0.564994 q 0.144694,0.208428 0.206705,0.251492 0.06201,0.04134 0.160197,0.04651 V 87 H 72.09474 v -0.06201 q 0.07751,0 0.120578,-0.03445 0.03273,-0.02412 0.03273,-0.06373 0,-0.03962 -0.110242,-0.199815 l -0.230821,-0.337618 -0.253214,0.337618 q -0.117133,0.156752 -0.117133,0.186035 0,0.04134 0.0379,0.07579 0.03962,0.03273 0.117133,0.03617 V 87 H 71.17663 v -0.06201 q 0.06201,-0.0086 0.10852,-0.04306 0.06546,-0.04995 0.220486,-0.254937 l 0.330728,-0.439248 -0.299722,-0.434081 q -0.127469,-0.186035 -0.198093,-0.232544 -0.0689,-0.04823 -0.173977,-0.04823 z"
         id="path12331" />
    </g>
    <g
       aria-label="θ"
       id="text3263"
       style="font-size:3.52777px;line-height:1.25;font-family:'Times New Roman';-inkscape-font-specification:'Times New Roman, ';text-align:center;text-anchor:middle;stroke-width:0.264583"
       transform="translate(0.59616133,0.02601207)">
      <path
         d="m 71.443496,59.209292 q 0.29111,0 0.490925,0.341063 0.199815,0.339341 0.199815,0.885388 0,0.58911 -0.215318,0.928451 -0.215318,0.339341 -0.497815,0.339341 -0.27733,0 -0.489203,-0.329006 -0.21015,-0.330728 -0.21015,-0.895723 0,-0.566717 0.208428,-0.918116 0.21015,-0.351398 0.513318,-0.351398 z m 0.370347,1.188555 q 0,-1.088648 -0.382405,-1.088648 -0.39274,0 -0.39274,1.088648 z m -0.775145,0.106798 q 0,0.563271 0.105075,0.831988 0.105075,0.266995 0.282497,0.266995 0.384128,0 0.387573,-1.098983 z"
         id="path12334" />
    </g>
    <path
       style="fill:none;stroke:#3942d0;stroke-width:0.3;stroke-linecap:round;stroke-linejoin:miter;stroke-dasharray:none;stroke-opacity:1;marker-end:url(#marker5599_Fnone_S-3942d0)"
       d="M 61.000001,65 55.888523,45.924678"
       id="path4813"
       inkscape:original-d="M 61.000001,65 C 59.296507,58.641879 57.59269,52.283439 55.888523,45.924678"
       inkscape:path-effect="#path-effect4815" />
    <path
       style="fill:none;stroke:#000000;stroke-width:0.3;stroke-linecap:butt;stroke-linejoin:miter;stroke-dasharray:none;stroke-opacity:1;marker-end:url(#marker1512_Fnone_S-000000)"
       d="m 125,60 7,-7"
       id="path5669"
       inkscape:path-effect="#path-effect5671"
       inkscape:original-d="m 125,60 c 2.33346,-2.333209 4.66679,-4.666542 7,-7" />
    <path
       style="fill:none;stroke:#3942d0;stroke-width:0.3;stroke-linecap:butt;stroke-linejoin:miter;stroke-dasharray:none;stroke-opacity:1;marker-end:url(#marker1512_Fnone_S-3942d0)"
       d="M 125,60 V 39.892628"
       id="path5703"
       inkscape:path-effect="#path-effect5705"
       inkscape:original-d="m 125,60 c 2.6e-4,-6.702214 2.6e-4,-13.404673 0,-20.107372" />
    <path
       style="fill:none;stroke:#3942d0;stroke-width:0.3;stroke-linecap:butt;stroke-linejoin:miter;stroke-dasharray:none;stroke-opacity:1;marker-end:url(#marker1512_Fnone_S-3942d0)"
       d="m 125,60 h 20.10738"
       id="path5737"
       inkscape:path-effect="#path-effect5739"
       inkscape:original-d="m 125,60 c 6.70272,2.66e-4 13.40519,2.66e-4 20.10738,0" />
    <circle
       style="fill:none;stroke:none;stroke-width:0.3;stroke-linecap:round;stroke-linejoin:bevel;stroke-dasharray:none;stroke-dashoffset:4.77492;paint-order:fill markers stroke"
       id="path2248-6"
       cx="124.79893"
       cy="60"
       r="0.20107374" />
    <g
       aria-label="s0"
       id="text5802"
       style="font-size:3.52777px;line-height:1.25;font-family:'Times New Roman';-inkscape-font-specification:'Times New Roman, ';text-align:center;text-anchor:middle;stroke-width:0.264583">
      <path
         d="m 122.87029,61.375641 v 0.537434 h -0.0568 q -0.0655,-0.253214 -0.16881,-0.344509 -0.10163,-0.09129 -0.2601,-0.09129 -0.12058,0 -0.19465,0.06373 -0.0741,0.06373 -0.0741,0.141249 0,0.09646 0.0551,0.165364 0.0534,0.07062 0.21704,0.149861 l 0.25149,0.122301 q 0.34968,0.170532 0.34968,0.449584 0,0.215318 -0.16364,0.347954 -0.16192,0.130913 -0.36346,0.130913 -0.14469,0 -0.33073,-0.05168 -0.0568,-0.01723 -0.093,-0.01723 -0.0396,0 -0.062,0.04479 h -0.0568 V 62.46084 h 0.0568 q 0.0482,0.241156 0.18431,0.363457 0.13609,0.1223 0.30489,0.1223 0.11886,0 0.19293,-0.0689 0.0758,-0.07062 0.0758,-0.168809 0,-0.118855 -0.0844,-0.199815 -0.0827,-0.08096 -0.33245,-0.204983 -0.24977,-0.124023 -0.32729,-0.22393 -0.0775,-0.09819 -0.0775,-0.248047 0,-0.194647 0.13263,-0.325561 0.13436,-0.130913 0.34624,-0.130913 0.093,0 0.22565,0.03962 0.0879,0.02584 0.11713,0.02584 0.0276,0 0.0431,-0.01206 0.0155,-0.01206 0.0362,-0.0534 z"
         id="path12337" />
      <path
         d="m 123.19603,62.955386 q 0,-0.25976 0.0784,-0.446742 0.0784,-0.188101 0.20826,-0.279913 0.10077,-0.07278 0.20825,-0.07278 0.17467,0 0.31351,0.178025 0.17354,0.220572 0.17354,0.597895 0,0.264239 -0.0761,0.448981 -0.0761,0.184743 -0.19482,0.268717 -0.11757,0.08285 -0.22729,0.08285 -0.21722,0 -0.36165,-0.256401 -0.12204,-0.216093 -0.12204,-0.520639 z m 0.21945,0.02799 q 0,0.313503 0.0772,0.511682 0.0638,0.166829 0.19034,0.166829 0.0605,0 0.12541,-0.05374 0.0649,-0.05486 0.0985,-0.182503 0.0515,-0.192581 0.0515,-0.543032 0,-0.25976 -0.0537,-0.433306 -0.0403,-0.12876 -0.10413,-0.182504 -0.0459,-0.03695 -0.11085,-0.03695 -0.0761,0 -0.13548,0.0683 -0.0806,0.09293 -0.10972,0.29223 -0.0291,0.199298 -0.0291,0.392998 z"
         style="font-size:65%;baseline-shift:sub"
         id="path12339" />
    </g>
    <g
       aria-label="sx"
       id="text5810"
       style="font-size:3.52777px;line-height:1.25;font-family:'Times New Roman';-inkscape-font-specification:'Times New Roman, ';text-align:center;text-anchor:middle;fill:#3942d0;fill-opacity:1;stroke-width:0.265">
      <path
         d="m 134.87029,61.375641 v 0.537434 h -0.0568 q -0.0655,-0.253214 -0.16881,-0.344509 -0.10163,-0.09129 -0.2601,-0.09129 -0.12058,0 -0.19465,0.06373 -0.0741,0.06373 -0.0741,0.141249 0,0.09646 0.0551,0.165364 0.0534,0.07062 0.21704,0.149861 l 0.25149,0.122301 q 0.34968,0.170532 0.34968,0.449584 0,0.215318 -0.16364,0.347954 -0.16192,0.130913 -0.36346,0.130913 -0.14469,0 -0.33073,-0.05168 -0.0568,-0.01723 -0.093,-0.01723 -0.0396,0 -0.062,0.04479 h -0.0568 V 62.46084 h 0.0568 q 0.0482,0.241156 0.18431,0.363457 0.13609,0.1223 0.30489,0.1223 0.11886,0 0.19293,-0.0689 0.0758,-0.07062 0.0758,-0.168809 0,-0.118855 -0.0844,-0.199815 -0.0827,-0.08096 -0.33245,-0.204983 -0.24977,-0.124023 -0.32729,-0.22393 -0.0775,-0.09819 -0.0775,-0.248047 0,-0.194647 0.13263,-0.325561 0.13436,-0.130913 0.34624,-0.130913 0.093,0 0.22565,0.03962 0.0879,0.02584 0.11713,0.02584 0.0276,0 0.0431,-0.01206 0.0155,-0.01206 0.0362,-0.0534 z"
         id="path12345"
         style="fill:#3942d0;fill-opacity:1" />
      <path
         d="m 135.1434,62.679951 h 0.48257 v 0.04143 q -0.0459,0 -0.0649,0.01568 -0.0179,0.01568 -0.0179,0.04143 0,0.02687 0.0392,0.08285 0.0123,0.01792 0.0369,0.05598 l 0.0728,0.116444 0.084,-0.116444 q 0.0806,-0.110846 0.0806,-0.139957 0,-0.02351 -0.019,-0.03919 -0.019,-0.01679 -0.0616,-0.01679 v -0.04143 h 0.34709 v 0.04143 q -0.0549,0.0034 -0.0952,0.03023 -0.0549,0.03807 -0.15004,0.165709 l -0.13995,0.186982 0.25528,0.367246 q 0.094,0.135478 0.13436,0.16347 0.0403,0.02687 0.10413,0.03023 v 0.04031 h -0.4837 v -0.04031 q 0.0504,0 0.0784,-0.02239 0.0213,-0.01568 0.0213,-0.04143 0,-0.02575 -0.0716,-0.12988 l -0.15004,-0.219452 -0.16459,0.219452 q -0.0761,0.101889 -0.0761,0.120923 0,0.02687 0.0246,0.04926 0.0258,0.02127 0.0761,0.02351 v 0.04031 h -0.33478 v -0.04031 q 0.0403,-0.0056 0.0705,-0.02799 0.0425,-0.03247 0.14331,-0.165709 l 0.21498,-0.285511 -0.19482,-0.282153 q -0.0829,-0.120923 -0.12876,-0.151153 -0.0448,-0.03135 -0.11309,-0.03135 z"
         style="font-size:65%;baseline-shift:sub;fill:#3942d0;fill-opacity:1"
         id="path12347" />
    </g>
    <g
       aria-label="sy"
       id="text5814"
       style="font-size:3.52777px;line-height:1.25;font-family:'Times New Roman';-inkscape-font-specification:'Times New Roman, ';text-align:center;text-anchor:middle;fill:#3942d0;fill-opacity:1;stroke-width:0.264583">
      <path
         d="m 121.87029,48.375641 v 0.537434 h -0.0568 q -0.0655,-0.253214 -0.16881,-0.344509 -0.10163,-0.09129 -0.2601,-0.09129 -0.12058,0 -0.19465,0.06373 -0.0741,0.06373 -0.0741,0.141249 0,0.09646 0.0551,0.165364 0.0534,0.07062 0.21704,0.149861 l 0.25149,0.122301 q 0.34968,0.170532 0.34968,0.449584 0,0.215318 -0.16364,0.347954 -0.16192,0.130913 -0.36346,0.130913 -0.14469,0 -0.33073,-0.05168 -0.0568,-0.01723 -0.093,-0.01723 -0.0396,0 -0.062,0.04479 h -0.0568 V 49.46084 h 0.0568 q 0.0482,0.241156 0.18431,0.363457 0.13609,0.1223 0.30489,0.1223 0.11886,0 0.19293,-0.0689 0.0758,-0.07062 0.0758,-0.168809 0,-0.118855 -0.0844,-0.199815 -0.0827,-0.08096 -0.33245,-0.204983 -0.24977,-0.124023 -0.32729,-0.22393 -0.0775,-0.09819 -0.0775,-0.248047 0,-0.194647 0.13263,-0.325561 0.13436,-0.130913 0.34624,-0.130913 0.093,0 0.22565,0.03962 0.0879,0.02584 0.11713,0.02584 0.0276,0 0.0431,-0.01206 0.0155,-0.01206 0.0362,-0.0534 z"
         id="path12350"
         style="fill:#3942d0;fill-opacity:1" />
      <path
         d="m 122.12661,49.679951 h 0.47809 v 0.04143 h -0.0235 q -0.0504,0 -0.0761,0.02239 -0.0246,0.02127 -0.0246,0.05374 0,0.04367 0.037,0.120923 l 0.24968,0.517279 0.22953,-0.566544 q 0.019,-0.04591 0.019,-0.09069 0,-0.02015 -0.008,-0.03023 -0.009,-0.01232 -0.028,-0.01903 -0.019,-0.0078 -0.0672,-0.0078 v -0.04143 h 0.33366 v 0.04143 q -0.0414,0.0045 -0.0638,0.01791 -0.0224,0.01344 -0.0493,0.05038 -0.0101,0.01568 -0.0381,0.08621 l -0.41763,1.023363 q -0.0605,0.148914 -0.15899,0.22505 -0.0974,0.07614 -0.18811,0.07614 -0.0661,0 -0.1086,-0.03807 -0.0425,-0.03807 -0.0425,-0.08733 0,-0.04703 0.0302,-0.07614 0.0313,-0.02799 0.0851,-0.02799 0.0369,0 0.10076,0.02463 0.0448,0.01679 0.056,0.01679 0.0336,0 0.0728,-0.03471 0.0403,-0.03471 0.0806,-0.134359 l 0.0728,-0.178025 -0.36837,-0.77368 q -0.0168,-0.03471 -0.0537,-0.08621 -0.028,-0.03919 -0.0459,-0.05262 -0.0258,-0.01792 -0.0829,-0.03135 z"
         style="font-size:65%;baseline-shift:sub;fill:#3942d0;fill-opacity:1"
         id="path12352" />
    </g>
    <g
       aria-label="α"
       id="text6654"
       style="font-size:3.52777px;line-height:1.25;font-family:'Times New Roman';-inkscape-font-specification:'Times New Roman, ';text-align:center;text-anchor:middle;stroke-width:0.264583">
      <path
         d="m 129.97572,57.408821 h 0.29283 l -0.17742,0.797538 q -0.0517,0.227376 -0.0706,0.279052 0.0689,0.316948 0.19982,0.316948 0.15503,0 0.16019,-0.213595 h 0.062 q -0.005,0.199815 -0.0741,0.323838 -0.0672,0.122301 -0.17743,0.122301 -0.0913,0 -0.13608,-0.07407 -0.0448,-0.07407 -0.0965,-0.303167 -0.17914,0.377237 -0.58566,0.377237 -0.27733,0 -0.44098,-0.215318 -0.16364,-0.217041 -0.16364,-0.620116 0,-0.396185 0.17915,-0.616671 0.17914,-0.220486 0.43063,-0.220486 0.17742,0 0.29111,0.125746 0.11369,0.125746 0.20154,0.409966 z m -0.15159,0.675237 q -0.081,-0.277329 -0.18087,-0.432358 -0.0999,-0.156752 -0.23943,-0.156752 -0.31522,0 -0.31522,0.737249 0,0.699353 0.30144,0.699353 0.26183,0 0.38757,-0.616671 z"
         id="path12355" />
    </g>
    <g
       aria-label="sy"
       id="text6699"
       style="font-size:3.52777px;line-height:1.25;font-family:'Times New Roman';-inkscape-font-specification:'Times New Roman, ';text-align:center;text-anchor:middle;fill:#3942d0;fill-opacity:1;stroke-width:0.264583"
       transform="translate(0.52916663,3.1750001)">
      <path
         d="m 55.262253,51.380921 v 0.537433 h -0.05684 q -0.06546,-0.253214 -0.16881,-0.344508 -0.10163,-0.0913 -0.260104,-0.0913 -0.120578,0 -0.194647,0.06373 -0.07407,0.06373 -0.07407,0.141248 0,0.09646 0.05512,0.165365 0.0534,0.07062 0.21704,0.149861 l 0.251492,0.122301 q 0.349676,0.170531 0.349676,0.449584 0,0.215318 -0.163642,0.347953 -0.161919,0.130914 -0.363456,0.130914 -0.144694,0 -0.330729,-0.05168 -0.05684,-0.01723 -0.09302,-0.01723 -0.03962,0 -0.06201,0.04479 h -0.05684 V 52.46611 h 0.05684 q 0.04823,0.241156 0.184312,0.363457 0.136081,0.122301 0.304891,0.122301 0.118855,0 0.192925,-0.0689 0.07579,-0.07062 0.07579,-0.168809 0,-0.118856 -0.0844,-0.199815 -0.08268,-0.08096 -0.332451,-0.204983 -0.249769,-0.124023 -0.327283,-0.223931 -0.07751,-0.09819 -0.07751,-0.248046 0,-0.194648 0.132636,-0.325561 0.134358,-0.130913 0.346231,-0.130913 0.09302,0 0.225654,0.03962 0.08785,0.02584 0.117133,0.02584 0.02756,0 0.04306,-0.01206 0.0155,-0.01206 0.03617,-0.0534 z"
         id="path12358"
         style="fill:#3942d0;fill-opacity:1" />
      <path
         d="m 55.518567,52.685231 h 0.478092 v 0.04143 h -0.02351 q -0.05038,0 -0.07614,0.02239 -0.02463,0.02127 -0.02463,0.05374 0,0.04367 0.03695,0.120923 l 0.249683,0.51728 0.229529,-0.566545 q 0.01903,-0.0459 0.01903,-0.09069 0,-0.02015 -0.0078,-0.03023 -0.009,-0.01232 -0.02799,-0.01903 -0.01903,-0.0078 -0.06718,-0.0078 v -0.04143 h 0.333657 v 0.04143 q -0.04143,0.0045 -0.06382,0.01792 -0.02239,0.01343 -0.04926,0.05038 -0.01008,0.01568 -0.03807,0.08621 l -0.417631,1.023364 q -0.06046,0.148914 -0.158991,0.22505 -0.09741,0.07614 -0.188102,0.07614 -0.06606,0 -0.108606,-0.03807 -0.04255,-0.03807 -0.04255,-0.08733 0,-0.04703 0.03023,-0.07614 0.03135,-0.02799 0.08509,-0.02799 0.03695,0 0.100769,0.02463 0.04479,0.0168 0.05598,0.0168 0.03359,0 0.07278,-0.03471 0.04031,-0.03471 0.08062,-0.134358 l 0.07278,-0.178025 -0.368366,-0.773681 q -0.0168,-0.03471 -0.05374,-0.08621 -0.02799,-0.03919 -0.0459,-0.05262 -0.02575,-0.01791 -0.08286,-0.03135 z"
         style="font-size:65%;baseline-shift:sub;fill:#3942d0;fill-opacity:1"
         id="path12360" />
    </g>
    <g
       aria-label="sx"
       id="text6703"
       style="font-size:3.52777px;line-height:1.25;font-family:'Times New Roman';-inkscape-font-specification:'Times New Roman, ';text-align:center;text-anchor:middle;fill:#3942d0;fill-opacity:1;stroke-width:0.264583"
       transform="translate(-0.52916667,0.52916667)">
      <path
         d="m 62.282482,55.497589 v 0.537434 h -0.05684 q -0.06546,-0.253214 -0.168809,-0.344509 -0.10163,-0.0913 -0.260104,-0.0913 -0.120579,0 -0.194648,0.06374 -0.07407,0.06373 -0.07407,0.141248 0,0.09646 0.05512,0.165364 0.0534,0.07062 0.217041,0.149862 l 0.251491,0.1223 q 0.349676,0.170532 0.349676,0.449584 0,0.215318 -0.163641,0.347954 -0.161919,0.130913 -0.363457,0.130913 -0.144694,0 -0.330728,-0.05168 -0.05684,-0.01722 -0.09302,-0.01722 -0.03962,0 -0.06201,0.04479 h -0.05684 v -0.563272 h 0.05684 q 0.04823,0.241156 0.184312,0.363457 0.136081,0.1223 0.30489,0.1223 0.118856,0 0.192925,-0.0689 0.07579,-0.07062 0.07579,-0.16881 0,-0.118855 -0.0844,-0.199815 -0.08268,-0.08096 -0.332451,-0.204983 -0.249769,-0.124023 -0.327283,-0.22393 -0.07751,-0.09819 -0.07751,-0.248047 0,-0.194647 0.132636,-0.32556 0.134359,-0.130914 0.346232,-0.130914 0.09302,0 0.225653,0.03962 0.08785,0.02584 0.117133,0.02584 0.02756,0 0.04306,-0.01206 0.0155,-0.01206 0.03617,-0.0534 z"
         id="path12363"
         style="fill:#3942d0;fill-opacity:1" />
      <path
         d="m 62.555591,56.8019 h 0.482571 v 0.04143 q -0.04591,0 -0.06494,0.01567 -0.01791,0.01568 -0.01791,0.04143 0,0.02687 0.03919,0.08285 0.01232,0.01792 0.03695,0.05598 l 0.07278,0.116444 0.08397,-0.116444 q 0.08062,-0.110846 0.08062,-0.139957 0,-0.02351 -0.01903,-0.03919 -0.01904,-0.01679 -0.06158,-0.01679 V 56.8019 h 0.347092 v 0.04143 q -0.05486,0.0034 -0.09517,0.03023 -0.05486,0.03807 -0.150034,0.165709 l -0.139957,0.186982 0.255281,0.367247 q 0.09405,0.135478 0.134359,0.163469 0.04031,0.02687 0.104128,0.03023 v 0.04031 H 63.16022 v -0.04031 q 0.05038,0 0.07838,-0.02239 0.02127,-0.01568 0.02127,-0.04143 0,-0.02575 -0.07166,-0.129879 l -0.150034,-0.219452 -0.164589,0.219452 q -0.07614,0.101888 -0.07614,0.120922 0,0.02687 0.02463,0.04927 0.02575,0.02127 0.07614,0.02351 v 0.04031 H 62.563441 V 57.7872 q 0.04031,-0.0056 0.07054,-0.02799 0.04255,-0.03247 0.143316,-0.165708 L 62.99227,57.30799 62.79745,57.025837 q -0.08285,-0.120922 -0.12876,-0.151153 -0.04479,-0.03135 -0.113085,-0.03135 z"
         style="font-size:65%;baseline-shift:sub;fill:#3942d0;fill-opacity:1"
         id="path12365" />
    </g>
    <path
       style="fill:none;stroke:#3942d0;stroke-width:0.3;stroke-linecap:round;stroke-linejoin:miter;stroke-dasharray:none;stroke-opacity:1;marker-end:url(#marker1512_Fnone_S-3942d0)"
       d="m 61,65 4.559005,-9.700499"
       id="path6803"
       inkscape:original-d="m 61,65 c 1.520071,-3.233071 3.039739,-6.46657 4.559005,-9.700499"
       inkscape:path-effect="#path-effect6805" />
    <g
       id="g4198"
       transform="matrix(0.5000005,0,0,0.5,-5.000075,57.5)"
       style="stroke-width:0.6;stroke-dasharray:none">
      <path
         style="fill:none;stroke:#000000;stroke-width:0.6;stroke-linecap:butt;stroke-linejoin:miter;stroke-dasharray:none;stroke-opacity:1"
         d="m 159.99999,55.000001 1.00001,-1"
         id="path4130"
         inkscape:path-effect="#path-effect4132"
         inkscape:original-d="m 159.99999,55.000001 c 0.3336,-0.333069 0.66694,-0.666402 1.00001,-1" />
      <path
         style="fill:none;stroke:#000000;stroke-width:0.6;stroke-linecap:butt;stroke-linejoin:miter;stroke-dasharray:none;stroke-opacity:1"
         d="m 159.99999,55.000001 1.00001,1"
         id="path4146"
         inkscape:path-effect="#path-effect4148"
         inkscape:original-d="m 159.99999,55.000001 c 0.3336,0.333598 0.66694,0.666931 1.00001,1" />
      <path
         style="fill:none;stroke:#000000;stroke-width:0.6;stroke-linecap:butt;stroke-linejoin:miter;stroke-dasharray:none;stroke-opacity:1"
         d="m 159.99999,55.000001 -1,1"
         id="path4162"
         inkscape:path-effect="#path-effect4164"
         inkscape:original-d="m 159.99999,55.000001 c -0.33306,0.333598 -0.6664,0.666931 -1,1" />
      <path
         style="fill:none;stroke:#000000;stroke-width:0.6;stroke-linecap:butt;stroke-linejoin:miter;stroke-dasharray:none;stroke-opacity:1"
         d="m 159.99999,55.000001 -1,-1"
         id="path4178"
         inkscape:path-effect="#path-effect4180"
         inkscape:original-d="m 159.99999,55.000001 c -0.33306,-0.333069 -0.6664,-0.666402 -1,-1" />
    </g>
    <path
       style="fill:none;stroke:#000000;stroke-width:0.3;stroke-linecap:butt;stroke-linejoin:miter;stroke-dasharray:none;stroke-opacity:1;marker-end:url(#marker1512_Fnone_S-000000)"
       d="m 135,85 5,-9"
       id="path9619"
       inkscape:path-effect="#path-effect9621"
       inkscape:original-d="m 135,85 c 1.667,-2.999783 3.33366,-5.999782 5,-9" />
    <path
       style="fill:none;stroke:#000000;stroke-width:0.3;stroke-linecap:round;stroke-linejoin:miter;stroke-dasharray:none;stroke-opacity:1;marker-end:url(#marker1512_Fnone_S-000000)"
       d="m 135,85 -6.55193,-6.543725"
       id="path9721"
       inkscape:path-effect="#path-effect9723"
       inkscape:original-d="m 135,85 c -2.1838,-2.180953 -4.36778,-4.362195 -6.55193,-6.543725" />
    <g
       aria-label="z"
       id="text2477-3"
       style="font-size:3.52777px;line-height:1.25;font-family:'Times New Roman';-inkscape-font-specification:'Times New Roman, ';text-align:center;text-anchor:middle;stroke-width:0.264583"
       transform="translate(-2.0460274,2.2973152)">
      <path
         d="M 138.69849,85.515965 138.67954,86 h -1.39181 v -0.06201 l 1.0473,-1.39526 h -0.51676 q -0.16709,0 -0.21876,0.02239 -0.0517,0.02067 -0.0844,0.08096 -0.0465,0.08613 -0.0534,0.213596 h -0.0689 l 0.0103,-0.437526 h 1.32291 v 0.06373 l -1.05764,1.398706 h 0.57533 q 0.18087,0 0.2446,-0.02928 0.0655,-0.031 0.10508,-0.106797 0.0276,-0.05512 0.0465,-0.232544 z"
         id="path12368" />
    </g>
    <g
       aria-label="x"
       id="text2485-6"
       style="font-size:3.52777px;line-height:1.25;font-family:'Times New Roman';-inkscape-font-specification:'Times New Roman, ';text-align:center;text-anchor:middle;stroke-width:0.264583"
       transform="translate(0.52916667,-1.0583333)">
      <path
         d="m 129.16457,83.42215 h 0.74241 v 0.06373 q -0.0706,0 -0.0999,0.02411 -0.0276,0.02412 -0.0276,0.06374 0,0.04134 0.0603,0.127468 0.0189,0.02756 0.0568,0.08613 l 0.11196,0.179145 0.12919,-0.179145 q 0.12403,-0.170532 0.12403,-0.215318 0,-0.03617 -0.0293,-0.06029 -0.0293,-0.02584 -0.0947,-0.02584 v -0.06373 h 0.53399 v 0.06373 q -0.0844,0.0052 -0.14641,0.04651 -0.0844,0.05857 -0.23082,0.254936 l -0.21532,0.287665 0.39274,0.564994 q 0.14469,0.208428 0.2067,0.251492 0.062,0.04134 0.1602,0.04651 V 85 h -0.74414 v -0.06201 q 0.0775,0 0.12058,-0.03445 0.0327,-0.02412 0.0327,-0.06373 0,-0.03962 -0.11025,-0.199815 l -0.23082,-0.337618 -0.25321,0.337618 q -0.11713,0.156752 -0.11713,0.186035 0,0.04134 0.0379,0.07579 0.0396,0.03273 0.11713,0.03617 V 85 h -0.51504 v -0.06201 q 0.062,-0.0086 0.10852,-0.04306 0.0655,-0.04995 0.22049,-0.254937 l 0.33073,-0.439248 -0.29972,-0.434081 q -0.12747,-0.186035 -0.1981,-0.232544 -0.0689,-0.04823 -0.17397,-0.04823 z"
         id="path12371" />
    </g>
    <g
       aria-label="y"
       id="text2481-9"
       style="font-size:3.54671px;line-height:1.25;font-family:'Times New Roman';-inkscape-font-specification:'Times New Roman, ';text-align:center;text-anchor:middle;stroke-width:0.3"
       transform="translate(0.52916667,1.0583333)">
      <path
         d="m 134.66088,77.39681 h 0.73948 v 0.06408 h -0.0364 q -0.0779,0 -0.11776,0.03464 -0.0381,0.0329 -0.0381,0.08313 0,0.06754 0.0571,0.187034 l 0.38619,0.800088 0.35502,-0.876287 q 0.0294,-0.071 0.0294,-0.140275 0,-0.03117 -0.0121,-0.04676 -0.0138,-0.01905 -0.0433,-0.02944 -0.0294,-0.01212 -0.10391,-0.01212 v -0.06408 h 0.51608 v 0.06408 q -0.0641,0.0069 -0.0987,0.02771 -0.0346,0.02078 -0.0762,0.07793 -0.0156,0.02425 -0.0589,0.133348 l -0.64596,1.582857 q -0.0935,0.230329 -0.24591,0.348091 -0.15067,0.117761 -0.29094,0.117761 -0.10218,0 -0.16798,-0.05888 -0.0658,-0.05888 -0.0658,-0.13508 0,-0.07274 0.0468,-0.117762 0.0485,-0.04329 0.13161,-0.04329 0.0572,0 0.15586,0.0381 0.0693,0.02598 0.0866,0.02598 0.052,0 0.11257,-0.05369 0.0623,-0.05369 0.12469,-0.207815 l 0.11256,-0.275355 -0.56975,-1.196668 q -0.026,-0.05369 -0.0831,-0.133348 -0.0433,-0.06061 -0.071,-0.0814 -0.0398,-0.02771 -0.12816,-0.04849 z"
         id="path12374" />
    </g>
    <circle
       style="fill:#ffffff;stroke:#000000;stroke-width:0.3;stroke-linecap:round;stroke-linejoin:bevel;stroke-dashoffset:4.77492;paint-order:fill markers stroke"
       id="path2242-2"
       cx="124.99808"
       cy="59.985447"
       r="1" />
    <circle
       style="fill:#000000;stroke:#000000;stroke-width:0.3;stroke-linecap:round;stroke-linejoin:bevel;stroke-dashoffset:4.77492;paint-order:fill markers stroke"
       id="path2248"
       cx="124.99808"
       cy="59.985447"
       r="0.2" />
    <path
       style="fill:none;fill-opacity:1;stroke:#000000;stroke-width:0.3;stroke-linecap:round;stroke-linejoin:round;stroke-dasharray:none;stroke-opacity:1;paint-order:fill markers stroke"
       id="path16703"
       sodipodi:type="arc"
       sodipodi:cx="61"
       sodipodi:cy="65"
       sodipodi:rx="14"
       sodipodi:ry="14"
       sodipodi:start="5.7779"
       sodipodi:end="6.0091686"
       sodipodi:open="true"
       sodipodi:arc-type="arc"
       d="m 73.25051,58.2232 a 14,14 0 0 1 1.227174,2.988394" />
    <path
       style="fill:none;fill-opacity:1;stroke:#ad8738;stroke-width:0.3;stroke-linecap:round;stroke-linejoin:round;stroke-dasharray:none;stroke-opacity:1;paint-order:fill markers stroke"
       id="path16727"
       sodipodi:type="arc"
       sodipodi:cx="61"
       sodipodi:cy="65"
       sodipodi:rx="16"
       sodipodi:ry="16"
       sodipodi:start="6.0144046"
       sodipodi:end="0.1727876"
       sodipodi:open="true"
       sodipodi:arc-type="arc"
       d="m 76.425526,60.751102 a 16,16 0 0 1 0.336223,6.999764" />
    <g
       aria-label="θmax"
       id="text17517"
       style="font-size:3.52777px;line-height:1.25;font-family:'Times New Roman';-inkscape-font-specification:'Times New Roman, ';text-align:center;text-anchor:middle;fill:#ad8738;stroke-width:0.264583">
      <path
         d="m 71.042415,63.083155 q 0.29111,0 0.490925,0.341063 0.199815,0.339342 0.199815,0.885388 0,0.58911 -0.215318,0.928451 -0.215318,0.339341 -0.497815,0.339341 -0.27733,0 -0.489203,-0.329005 -0.21015,-0.330729 -0.21015,-0.895723 0,-0.566717 0.208428,-0.918116 0.21015,-0.351399 0.513318,-0.351399 z m 0.370347,1.188555 q 0,-1.088648 -0.382405,-1.088648 -0.39274,0 -0.39274,1.088648 z m -0.775145,0.106798 q 0,0.563272 0.105075,0.831989 0.105075,0.266994 0.282497,0.266994 0.384128,0 0.387573,-1.098983 z"
         id="path17625" />
      <path
         d="m 72.247162,65.39722 q 0.111966,-0.111965 0.132119,-0.12876 0.05038,-0.04255 0.108607,-0.06606 0.05822,-0.02351 0.115324,-0.02351 0.09629,0 0.165709,0.05598 0.06942,0.05598 0.09293,0.162349 0.115324,-0.134358 0.19482,-0.175785 0.07949,-0.04255 0.163469,-0.04255 0.08173,0 0.144435,0.04255 0.06382,0.04143 0.100769,0.136597 0.02463,0.06494 0.02463,0.203777 v 0.441144 q 0,0.09629 0.01456,0.132119 0.0112,0.02463 0.04143,0.04255 0.03023,0.01679 0.09853,0.01679 v 0.04031 H 73.13841 v -0.04031 h 0.02127 q 0.06606,0 0.103008,-0.02575 0.02575,-0.01792 0.03695,-0.0571 0.0045,-0.01903 0.0045,-0.108606 v -0.441144 q 0,-0.125401 -0.03023,-0.176905 -0.04367,-0.07166 -0.139957,-0.07166 -0.05934,0 -0.119803,0.03023 -0.05934,0.02911 -0.144435,0.109726 l -0.0022,0.01232 0.0022,0.04815 v 0.489289 q 0,0.105247 0.0112,0.130999 0.01232,0.02575 0.04479,0.04367 0.03247,0.01679 0.110846,0.01679 v 0.04031 h -0.5184 v -0.04031 q 0.08509,0 0.116444,-0.02015 0.03247,-0.02015 0.04479,-0.06046 0.0056,-0.01904 0.0056,-0.110846 V 65.56182 q 0,-0.125401 -0.03695,-0.180264 -0.04927,-0.07166 -0.137717,-0.07166 -0.06046,0 -0.119803,0.03247 -0.09293,0.04926 -0.143316,0.110846 v 0.54975 q 0,0.100769 0.01344,0.130999 0.01456,0.03023 0.04143,0.04591 0.02799,0.01456 0.111966,0.01456 v 0.04031 h -0.507204 v -0.04031 q 0.07054,0 0.09853,-0.01456 0.02799,-0.01568 0.04255,-0.04814 0.01456,-0.03359 0.01456,-0.12876 v -0.391879 q 0,-0.169068 -0.01008,-0.218332 -0.0078,-0.03695 -0.02463,-0.05038 -0.0168,-0.01456 -0.04591,-0.01456 -0.03135,0 -0.07502,0.01679 l -0.01679,-0.04031 0.309024,-0.125401 h 0.04815 z"
         style="font-size:65%;baseline-shift:sub"
         id="path17627" />
      <path
         d="m 74.307325,66.086927 q -0.157871,0.122042 -0.198179,0.141076 -0.06046,0.02799 -0.12876,0.02799 -0.106367,0 -0.175786,-0.07278 -0.0683,-0.07278 -0.0683,-0.191461 0,-0.07502 0.03359,-0.129879 0.04591,-0.07614 0.158991,-0.143316 0.114205,-0.06718 0.378443,-0.16347 v -0.04031 q 0,-0.153393 -0.04927,-0.210495 -0.04815,-0.0571 -0.141076,-0.0571 -0.07054,0 -0.111966,0.03807 -0.04255,0.03807 -0.04255,0.08733 l 0.0022,0.06494 q 0,0.0515 -0.02687,0.07949 -0.02575,0.02799 -0.0683,0.02799 -0.04143,0 -0.0683,-0.02911 -0.02575,-0.02911 -0.02575,-0.0795 0,-0.09629 0.09853,-0.176905 0.09853,-0.08061 0.276554,-0.08061 0.136598,0 0.223931,0.04591 0.06606,0.03471 0.09741,0.108606 0.02015,0.04815 0.02015,0.197059 v 0.348212 q 0,0.146675 0.0056,0.180265 0.0056,0.03247 0.01791,0.04367 0.01344,0.0112 0.03023,0.0112 0.01792,0 0.03135,-0.0078 0.02351,-0.01455 0.09069,-0.08173 v 0.0627 q -0.125401,0.167948 -0.239605,0.167948 -0.05486,0 -0.08733,-0.03807 -0.03247,-0.03807 -0.03359,-0.12988 z m 0,-0.07278 V 65.62339 q -0.169068,0.06718 -0.218333,0.09517 -0.08845,0.04927 -0.12652,0.103008 -0.03807,0.05374 -0.03807,0.117564 0,0.08062 0.04815,0.134358 0.04815,0.05262 0.110845,0.05262 0.08509,0 0.223931,-0.111966 z"
         style="font-size:65%;baseline-shift:sub"
         id="path17629" />
      <path
         d="m 74.702563,65.209119 h 0.48257 v 0.04143 q -0.04591,0 -0.06494,0.01568 -0.01791,0.01568 -0.01791,0.04143 0,0.02687 0.03919,0.08285 0.01232,0.01792 0.03695,0.05598 l 0.07278,0.116444 0.08397,-0.116444 q 0.08061,-0.110846 0.08061,-0.139957 0,-0.02351 -0.01903,-0.03919 -0.01903,-0.01679 -0.06158,-0.01679 v -0.04143 h 0.347092 v 0.04143 q -0.05486,0.0034 -0.09517,0.03023 -0.05486,0.03807 -0.150034,0.165709 l -0.139956,0.186982 0.255281,0.367247 q 0.09405,0.135478 0.134358,0.163469 0.04031,0.02687 0.104128,0.03023 v 0.04031 h -0.48369 v -0.04031 q 0.05038,0 0.07838,-0.02239 0.02127,-0.01568 0.02127,-0.04143 0,-0.02575 -0.07166,-0.129879 l -0.150034,-0.219453 -0.164589,0.219453 q -0.07614,0.101888 -0.07614,0.120922 0,0.02687 0.02463,0.04927 0.02575,0.02127 0.07614,0.02351 v 0.04031 H 74.7104 v -0.04031 q 0.04031,-0.0056 0.07054,-0.02799 0.04255,-0.03247 0.143316,-0.165708 l 0.214973,-0.285512 -0.194819,-0.282153 q -0.08285,-0.120922 -0.12876,-0.151153 -0.04479,-0.03135 -0.113085,-0.03135 z"
         style="font-size:65%;baseline-shift:sub"
         id="path17631" />
    </g>
    <g
       id="text18609"
       style="font-size:3.175px;line-height:1.25;font-family:'Times New Roman';-inkscape-font-specification:'Times New Roman, ';text-align:center;text-anchor:middle;stroke-width:0.264583" />
    <g
       aria-label="Cone Volume"
       id="text22173"
       style="font-size:2.82222px;line-height:1.25;font-family:'Times New Roman';-inkscape-font-specification:'Times New Roman, ';text-align:center;text-anchor:middle;fill:#ad8738;stroke-width:0.264583">
      <path
         d="m 100.49705,45.045942 0.0427,0.635275 h -0.0427 q -0.0854,-0.285254 -0.24391,-0.410655 -0.15848,-0.125402 -0.38034,-0.125402 -0.186035,0 -0.336241,0.09509 -0.150206,0.09371 -0.237022,0.300412 -0.08544,0.206706 -0.08544,0.514008 0,0.253559 0.0813,0.439594 0.0813,0.186035 0.243912,0.285253 0.163987,0.09922 0.373449,0.09922 0.181892,0 0.321082,-0.07717 0.13918,-0.07855 0.30592,-0.310058 l 0.0427,0.02756 q -0.14056,0.249425 -0.32797,0.36518 -0.18742,0.115755 -0.445105,0.115755 -0.464399,0 -0.719336,-0.344509 -0.190169,-0.256315 -0.190169,-0.60358 0,-0.279742 0.125402,-0.514008 0.125401,-0.234266 0.344509,-0.362424 0.220486,-0.129535 0.480935,-0.129535 0.202564,0 0.399624,0.09922 0.0579,0.03032 0.0827,0.03032 0.0372,0 0.0648,-0.02618 0.0358,-0.03721 0.051,-0.103352 z"
         id="path22323" />
      <path
         d="m 101.38589,45.65779 q 0.28663,0 0.46026,0.21773 0.14745,0.186035 0.14745,0.427192 0,0.169498 -0.0813,0.343131 -0.0813,0.173632 -0.22462,0.261827 -0.14194,0.08819 -0.31695,0.08819 -0.28526,0 -0.45338,-0.227376 -0.14194,-0.191547 -0.14194,-0.429947 0,-0.173633 0.0854,-0.34451 0.0868,-0.172254 0.22738,-0.253559 0.14056,-0.08268 0.29766,-0.08268 z m -0.0427,0.08957 q -0.073,0 -0.14745,0.0441 -0.073,0.04272 -0.11852,0.151584 -0.0455,0.108865 -0.0455,0.279741 0,0.275608 0.10886,0.475423 0.11025,0.199816 0.28939,0.199816 0.13367,0 0.22049,-0.110243 0.0868,-0.110243 0.0868,-0.378961 0,-0.336241 -0.14469,-0.529166 -0.0978,-0.132291 -0.24942,-0.132291 z"
         id="path22325" />
      <path
         d="m 102.54757,45.925129 q 0.22186,-0.267339 0.42306,-0.267339 0.10335,0 0.17776,0.05237 0.0744,0.05099 0.11852,0.169498 0.0303,0.08268 0.0303,0.253559 v 0.538813 q 0,0.119889 0.0193,0.162608 0.0152,0.03445 0.0482,0.05374 0.0344,0.01929 0.1254,0.01929 v 0.04961 h -0.62425 v -0.04961 h 0.0262 q 0.0882,0 0.12265,-0.02618 0.0358,-0.02756 0.0496,-0.07993 0.006,-0.02067 0.006,-0.129535 v -0.516764 q 0,-0.172255 -0.0455,-0.249425 -0.0441,-0.07855 -0.1502,-0.07855 -0.16399,0 -0.3266,0.179145 v 0.665592 q 0,0.128157 0.0152,0.158474 0.0193,0.03996 0.0524,0.05926 0.0345,0.01792 0.13781,0.01792 v 0.04961 h -0.62425 v -0.04961 h 0.0276 q 0.0965,0 0.12953,-0.04823 0.0344,-0.04961 0.0344,-0.187413 v -0.468533 q 0,-0.227376 -0.011,-0.276986 -0.01,-0.04961 -0.0317,-0.06752 -0.0207,-0.01792 -0.0565,-0.01792 -0.0386,0 -0.0923,0.02067 l -0.0207,-0.04961 0.38033,-0.15434 h 0.0593 z"
         id="path22327" />
      <path
         d="m 103.80296,46.17042 q -0.001,0.28112 0.13643,0.440972 0.1378,0.159852 0.32384,0.159852 0.12402,0 0.21497,-0.06752 0.0923,-0.0689 0.15434,-0.234266 l 0.0427,0.02756 q -0.0289,0.188791 -0.16812,0.344509 -0.13918,0.15434 -0.34864,0.15434 -0.22738,0 -0.38999,-0.176389 -0.16123,-0.177766 -0.16123,-0.4768 0,-0.323839 0.16537,-0.504362 0.16674,-0.181901 0.41754,-0.181901 0.21222,0 0.34864,0.14056 0.13643,0.139182 0.13643,0.373448 z m 0,-0.07993 h 0.58429 q -0.007,-0.121267 -0.0289,-0.170877 -0.0345,-0.07717 -0.10335,-0.121267 -0.0675,-0.0441 -0.14194,-0.0441 -0.11438,0 -0.20533,0.08957 -0.0896,0.08819 -0.10473,0.246669 z"
         id="path22329" />
      <path
         d="m 107.41342,45.088661 v 0.05099 q -0.0992,0.01792 -0.15021,0.06339 -0.073,0.06752 -0.12953,0.206705 l -0.65181,1.590255 h -0.051 l -0.70004,-1.610925 q -0.0537,-0.124023 -0.0758,-0.151584 -0.0344,-0.04272 -0.0854,-0.06615 -0.0496,-0.02481 -0.13505,-0.03169 v -0.05099 h 0.76343 v 0.05099 q -0.12953,0.0124 -0.16812,0.0441 -0.0386,0.03169 -0.0386,0.08131 0,0.0689 0.0634,0.214973 l 0.47543,1.09554 0.44097,-1.081759 q 0.0648,-0.159853 0.0648,-0.221864 0,-0.03996 -0.04,-0.07579 -0.04,-0.03721 -0.13504,-0.05237 -0.007,-0.0014 -0.0234,-0.0041 v -0.05099 z"
         id="path22331" />
      <path
         d="m 107.78962,45.65779 q 0.28664,0 0.46027,0.21773 0.14745,0.186035 0.14745,0.427192 0,0.169498 -0.0813,0.343131 -0.0813,0.173632 -0.22462,0.261827 -0.14193,0.08819 -0.31694,0.08819 -0.28526,0 -0.45338,-0.227376 -0.14194,-0.191547 -0.14194,-0.429947 0,-0.173633 0.0854,-0.34451 0.0868,-0.172254 0.22738,-0.253559 0.14056,-0.08268 0.29765,-0.08268 z m -0.0427,0.08957 q -0.073,0 -0.14745,0.0441 -0.073,0.04272 -0.11851,0.151584 -0.0455,0.108865 -0.0455,0.279741 0,0.275608 0.10886,0.475423 0.11025,0.199816 0.28939,0.199816 0.13367,0 0.22049,-0.110243 0.0868,-0.110243 0.0868,-0.378961 0,-0.336241 -0.14469,-0.529166 -0.0978,-0.132291 -0.24943,-0.132291 z"
         id="path22333" />
      <path
         d="m 109.01746,44.99771 v 1.674316 q 0,0.118511 0.0165,0.157096 0.0179,0.03859 0.0537,0.05926 0.0358,0.01929 0.13367,0.01929 v 0.04961 h -0.61873 v -0.04961 q 0.0868,0 0.11851,-0.01792 0.0317,-0.01791 0.0496,-0.05926 0.0179,-0.04134 0.0179,-0.158474 v -1.146527 q 0,-0.213596 -0.01,-0.261827 -0.01,-0.04961 -0.0317,-0.06752 -0.0207,-0.01792 -0.0537,-0.01792 -0.0358,0 -0.0909,0.02205 l -0.0234,-0.04823 0.3762,-0.154341 z"
         id="path22335" />
      <path
         d="m 110.47404,45.694997 v 0.764811 q 0,0.219108 0.01,0.268717 0.011,0.04823 0.0331,0.06752 0.0234,0.01929 0.0537,0.01929 0.0427,0 0.0965,-0.02343 l 0.0193,0.04823 -0.37758,0.155718 h -0.062 v -0.267339 q -0.1626,0.176389 -0.24804,0.221864 -0.0854,0.04547 -0.18053,0.04547 -0.1061,0 -0.18465,-0.06063 -0.0772,-0.06201 -0.10749,-0.158475 -0.0303,-0.09646 -0.0303,-0.272851 v -0.563617 q 0,-0.08957 -0.0193,-0.124024 -0.0193,-0.03445 -0.0579,-0.05236 -0.0372,-0.01929 -0.13642,-0.01791 v -0.05099 h 0.44235 v 0.844737 q 0,0.176389 0.0606,0.23151 0.062,0.05512 0.14883,0.05512 0.0593,0 0.13367,-0.03721 0.0758,-0.03721 0.17914,-0.141938 v -0.71519 q 0,-0.107487 -0.04,-0.144694 -0.0386,-0.03858 -0.16261,-0.04134 v -0.05099 z"
         id="path22337" />
      <path
         d="m 111.15341,45.926507 q 0.13781,-0.137803 0.16261,-0.158474 0.062,-0.05237 0.13367,-0.0813 0.0717,-0.02894 0.14194,-0.02894 0.11851,0 0.20395,0.0689 0.0854,0.0689 0.11438,0.199815 0.14193,-0.165364 0.23977,-0.216351 0.0978,-0.05237 0.2012,-0.05237 0.10059,0 0.17776,0.05237 0.0786,0.05099 0.12403,0.16812 0.0303,0.07993 0.0303,0.250803 v 0.542947 q 0,0.118511 0.0179,0.162608 0.0138,0.03032 0.051,0.05237 0.0372,0.02067 0.12126,0.02067 v 0.04961 h -0.62287 v -0.04961 h 0.0262 q 0.0813,0 0.12678,-0.0317 0.0317,-0.02205 0.0455,-0.07028 0.006,-0.02343 0.006,-0.133669 v -0.542947 q 0,-0.15434 -0.0372,-0.21773 -0.0537,-0.08819 -0.17225,-0.08819 -0.073,0 -0.14745,0.03721 -0.073,0.03583 -0.17777,0.135047 l -0.003,0.01516 0.003,0.05926 v 0.602203 q 0,0.129535 0.0138,0.16123 0.0152,0.03169 0.0551,0.05374 0.04,0.02067 0.13643,0.02067 v 0.04961 h -0.63803 v -0.04961 q 0.10473,0 0.14331,-0.02481 0.04,-0.0248 0.0551,-0.07441 0.007,-0.02343 0.007,-0.136425 v -0.542947 q 0,-0.15434 -0.0455,-0.221864 -0.0606,-0.08819 -0.1695,-0.08819 -0.0744,0 -0.14745,0.03996 -0.11438,0.06063 -0.17639,0.136425 v 0.676617 q 0,0.124023 0.0165,0.16123 0.0179,0.03721 0.051,0.0565 0.0345,0.01792 0.1378,0.01792 v 0.04961 h -0.62425 v -0.04961 q 0.0868,0 0.12127,-0.01792 0.0344,-0.01929 0.0524,-0.05926 0.0179,-0.04134 0.0179,-0.158474 v -0.482313 q 0,-0.208084 -0.0124,-0.268718 -0.01,-0.04547 -0.0303,-0.06201 -0.0207,-0.01792 -0.0565,-0.01792 -0.0386,0 -0.0923,0.02067 l -0.0207,-0.04961 0.38034,-0.15434 h 0.0592 z"
         id="path22339" />
      <path
         d="m 113.18602,46.17042 q -0.001,0.28112 0.13642,0.440972 0.13781,0.159852 0.32384,0.159852 0.12402,0 0.21497,-0.06752 0.0923,-0.0689 0.15435,-0.234266 l 0.0427,0.02756 q -0.0289,0.188791 -0.16812,0.344509 -0.13918,0.15434 -0.34864,0.15434 -0.22738,0 -0.38998,-0.176389 -0.16123,-0.177766 -0.16123,-0.4768 0,-0.323839 0.16536,-0.504362 0.16674,-0.181901 0.41755,-0.181901 0.21221,0 0.34864,0.14056 0.13642,0.139182 0.13642,0.373448 z m 0,-0.07993 h 0.58428 q -0.007,-0.121267 -0.0289,-0.170877 -0.0345,-0.07717 -0.10336,-0.121267 -0.0675,-0.0441 -0.14193,-0.0441 -0.11438,0 -0.20533,0.08957 -0.0896,0.08819 -0.10473,0.246669 z"
         id="path22341" />
    </g>
    <g
       aria-label="Cartesian View"
       id="text22177"
       style="font-size:2.82222px;line-height:1.25;font-family:'Times New Roman';-inkscape-font-specification:'Times New Roman, ';text-align:center;text-anchor:middle;stroke-width:0.264583"
       transform="translate(-2.1166667)">
      <path
         d="m 73.071229,28.088662 0.04272,0.635276 h -0.04272 q -0.08544,-0.285254 -0.243912,-0.410655 -0.158475,-0.125402 -0.380339,-0.125402 -0.186035,0 -0.336241,0.09508 -0.150206,0.09371 -0.237022,0.300412 -0.08544,0.206705 -0.08544,0.514008 0,0.253559 0.0813,0.439594 0.0813,0.186035 0.243912,0.285253 0.163987,0.09922 0.373448,0.09922 0.181901,0 0.321083,-0.07717 0.139182,-0.07855 0.305924,-0.310059 l 0.04272,0.02756 q -0.14056,0.249425 -0.327973,0.36518 -0.187413,0.115755 -0.445106,0.115755 -0.464399,0 -0.719336,-0.344509 -0.190169,-0.256315 -0.190169,-0.60358 0,-0.279742 0.125402,-0.514008 0.125401,-0.234267 0.344509,-0.362424 0.220486,-0.129536 0.480935,-0.129536 0.202571,0 0.399631,0.09922 0.05788,0.03032 0.08268,0.03032 0.03721,0 0.06477,-0.02618 0.03583,-0.03721 0.05099,-0.103353 z"
         id="path22344" />
      <path
         d="m 74.057904,29.818099 q -0.194303,0.150206 -0.243913,0.173633 -0.07441,0.03445 -0.158474,0.03445 -0.130914,0 -0.216352,-0.08957 -0.08406,-0.08957 -0.08406,-0.235644 0,-0.09233 0.04134,-0.159852 0.0565,-0.09371 0.195681,-0.176389 0.14056,-0.08268 0.465777,-0.201194 v -0.04961 q 0,-0.188791 -0.06063,-0.259071 -0.05926,-0.07028 -0.173633,-0.07028 -0.08682,0 -0.137803,0.04685 -0.05237,0.04685 -0.05237,0.107487 l 0.0028,0.07993 q 0,0.06339 -0.03307,0.09784 -0.03169,0.03445 -0.08406,0.03445 -0.05099,0 -0.08406,-0.03583 -0.03169,-0.03583 -0.03169,-0.09784 0,-0.118512 0.121267,-0.21773 0.121268,-0.09922 0.340376,-0.09922 0.16812,0 0.275607,0.0565 0.0813,0.04272 0.119889,0.13367 0.02481,0.05926 0.02481,0.242535 v 0.428569 q 0,0.180523 0.0069,0.221864 0.0069,0.03996 0.02205,0.05374 0.01654,0.01378 0.03721,0.01378 0.02205,0 0.03858,-0.0096 0.02894,-0.01792 0.111621,-0.100597 v 0.07717 q -0.15434,0.206706 -0.2949,0.206706 -0.06752,0 -0.107487,-0.04685 -0.03996,-0.04685 -0.04134,-0.159852 z m 0,-0.08957 v -0.480935 q -0.208084,0.08268 -0.268717,0.117133 -0.108865,0.06063 -0.155719,0.126779 -0.04685,0.06615 -0.04685,0.144694 0,0.09922 0.05926,0.165365 0.05926,0.06477 0.136425,0.06477 0.104731,0 0.275608,-0.137803 z"
         id="path22346" />
      <path
         d="m 74.964652,28.700511 v 0.283876 q 0.158475,-0.283876 0.325217,-0.283876 0.07579,0 0.125401,0.04685 0.04961,0.04547 0.04961,0.106109 0,0.05374 -0.03583,0.09095 -0.03583,0.03721 -0.08544,0.03721 -0.04823,0 -0.108865,-0.04685 -0.05926,-0.04823 -0.08819,-0.04823 -0.0248,0 -0.05374,0.02756 -0.06201,0.0565 -0.128158,0.186035 V 29.7051 q 0,0.104731 0.02618,0.158474 0.01791,0.03721 0.06339,0.06201 0.04547,0.02481 0.130913,0.02481 V 30 h -0.646299 v -0.04961 q 0.09646,0 0.143316,-0.03032 0.03445,-0.02205 0.04823,-0.07028 0.0069,-0.02343 0.0069,-0.13367 v -0.489203 q 0,-0.220486 -0.0096,-0.261827 -0.0083,-0.04272 -0.03307,-0.06201 -0.02343,-0.01929 -0.05926,-0.01929 -0.04272,0 -0.09646,0.02067 l -0.01378,-0.04961 0.381717,-0.15434 z"
         id="path22348" />
      <path
         d="m 75.901717,28.322929 v 0.414789 h 0.2949 v 0.09646 h -0.2949 v 0.818554 q 0,0.122645 0.03445,0.165364 0.03583,0.04272 0.09095,0.04272 0.04547,0 0.08819,-0.02756 0.04272,-0.02894 0.06615,-0.08406 h 0.05374 q -0.04823,0.135048 -0.136425,0.20395 -0.08819,0.06752 -0.181901,0.06752 -0.06339,0 -0.124023,-0.03445 -0.06063,-0.03583 -0.08957,-0.100597 -0.02894,-0.06615 -0.02894,-0.202572 v -0.84887 h -0.199815 v -0.04548 q 0.07579,-0.03032 0.15434,-0.101974 0.07993,-0.07304 0.141938,-0.172255 0.03169,-0.05236 0.08819,-0.191547 z"
         id="path22350" />
      <path
         d="m 76.531481,29.213141 q -0.0014,0.281119 0.136425,0.440972 0.137804,0.159852 0.323839,0.159852 0.124023,0 0.214974,-0.06752 0.09233,-0.0689 0.15434,-0.234266 l 0.04272,0.02756 q -0.02894,0.188791 -0.16812,0.344509 -0.139182,0.15434 -0.348644,0.15434 -0.227376,0 -0.389984,-0.176389 -0.161231,-0.177767 -0.161231,-0.476801 0,-0.323838 0.165365,-0.504361 0.166742,-0.181901 0.417545,-0.181901 0.212218,0 0.348644,0.14056 0.136425,0.139181 0.136425,0.373448 z m 0,-0.07993 h 0.584287 q -0.0069,-0.121268 -0.02894,-0.170877 -0.03445,-0.07717 -0.103353,-0.121267 -0.06752,-0.0441 -0.141938,-0.0441 -0.114377,0 -0.205327,0.08957 -0.08957,0.08819 -0.104731,0.246669 z"
         id="path22352" />
      <path
         d="m 78.387696,28.700511 v 0.429948 h -0.04548 q -0.05236,-0.202572 -0.135047,-0.275608 -0.08131,-0.07304 -0.208084,-0.07304 -0.09646,0 -0.155718,0.05099 -0.05926,0.05099 -0.05926,0.112999 0,0.07717 0.0441,0.132291 0.04272,0.0565 0.173633,0.119889 l 0.201193,0.09784 q 0.279742,0.136426 0.279742,0.359668 0,0.172254 -0.130914,0.278363 -0.129535,0.104731 -0.290765,0.104731 -0.115755,0 -0.264583,-0.04134 -0.04548,-0.01378 -0.07442,-0.01378 -0.03169,0 -0.04961,0.03583 h -0.04547 v -0.450619 h 0.04547 q 0.03858,0.192926 0.14745,0.290766 0.108865,0.09784 0.243913,0.09784 0.09508,0 0.15434,-0.05512 0.06063,-0.0565 0.06063,-0.135047 0,-0.09509 -0.06752,-0.159853 -0.06615,-0.06477 -0.265961,-0.163986 -0.199816,-0.09922 -0.261828,-0.179145 -0.06201,-0.07855 -0.06201,-0.198437 0,-0.155718 0.106109,-0.260449 0.107487,-0.104731 0.276985,-0.104731 0.07441,0 0.180523,0.0317 0.07028,0.02067 0.09371,0.02067 0.02205,0 0.03445,-0.0096 0.0124,-0.0096 0.02894,-0.04272 z"
         id="path22354" />
      <path
         d="m 78.991277,28.040431 q 0.05788,0 0.09784,0.04134 0.04134,0.03996 0.04134,0.09784 0,0.05788 -0.04134,0.09922 -0.03996,0.04134 -0.09784,0.04134 -0.05788,0 -0.09922,-0.04134 -0.04134,-0.04134 -0.04134,-0.09922 0,-0.05788 0.03996,-0.09784 0.04134,-0.04134 0.100597,-0.04134 z m 0.114377,0.66008 v 1.014235 q 0,0.118512 0.01654,0.158475 0.01792,0.03858 0.05099,0.05788 0.03445,0.01929 0.124023,0.01929 V 30 h -0.613226 v -0.04961 q 0.09233,0 0.124023,-0.01791 0.03169,-0.01791 0.04961,-0.05926 0.01929,-0.04134 0.01929,-0.158475 v -0.486447 q 0,-0.205327 -0.0124,-0.265961 -0.0096,-0.0441 -0.03032,-0.06063 -0.02067,-0.01791 -0.0565,-0.01791 -0.03858,0 -0.09371,0.02067 l -0.01929,-0.04961 0.380338,-0.15434 z"
         id="path22356" />
      <path
         d="m 80.169498,29.818099 q -0.194303,0.150206 -0.243912,0.173633 -0.07441,0.03445 -0.158475,0.03445 -0.130913,0 -0.216351,-0.08957 -0.08406,-0.08957 -0.08406,-0.235644 0,-0.09233 0.04134,-0.159852 0.0565,-0.09371 0.195681,-0.176389 0.14056,-0.08268 0.465776,-0.201194 v -0.04961 q 0,-0.188791 -0.06063,-0.259071 -0.05926,-0.07028 -0.173633,-0.07028 -0.08682,0 -0.137804,0.04685 -0.05236,0.04685 -0.05236,0.107487 l 0.0028,0.07993 q 0,0.06339 -0.03307,0.09784 -0.03169,0.03445 -0.08406,0.03445 -0.05099,0 -0.08406,-0.03583 -0.03169,-0.03583 -0.03169,-0.09784 0,-0.118512 0.121267,-0.21773 0.121267,-0.09922 0.340375,-0.09922 0.168121,0 0.275608,0.0565 0.0813,0.04272 0.119889,0.13367 0.0248,0.05926 0.0248,0.242535 v 0.428569 q 0,0.180523 0.0069,0.221864 0.0069,0.03996 0.02205,0.05374 0.01654,0.01378 0.03721,0.01378 0.02205,0 0.03858,-0.0096 0.02894,-0.01792 0.111621,-0.100597 v 0.07717 q -0.15434,0.206706 -0.2949,0.206706 -0.06752,0 -0.107487,-0.04685 -0.03996,-0.04685 -0.04134,-0.159852 z m 0,-0.08957 v -0.480935 q -0.208083,0.08268 -0.268717,0.117133 -0.108865,0.06063 -0.155718,0.126779 -0.04685,0.06615 -0.04685,0.144694 0,0.09922 0.05925,0.165365 0.05926,0.06477 0.136426,0.06477 0.104731,0 0.275607,-0.137803 z"
         id="path22358" />
      <path
         d="m 81.074868,28.96785 q 0.221864,-0.267339 0.423058,-0.267339 0.103353,0 0.177767,0.05237 0.07441,0.05099 0.118511,0.169499 0.03032,0.08268 0.03032,0.253559 v 0.538812 q 0,0.11989 0.01929,0.162609 0.01516,0.03445 0.04823,0.05374 0.03445,0.01929 0.125402,0.01929 V 30 h -0.624251 v -0.04961 h 0.02618 q 0.08819,0 0.122645,-0.02618 0.03583,-0.02756 0.04961,-0.07993 0.0055,-0.02067 0.0055,-0.129536 V 29.19798 q 0,-0.172254 -0.04548,-0.249424 -0.0441,-0.07855 -0.150206,-0.07855 -0.163986,0 -0.326595,0.179144 v 0.665592 q 0,0.128158 0.01516,0.158475 0.01929,0.03996 0.05236,0.05926 0.03445,0.01791 0.137804,0.01791 V 30 h -0.624251 v -0.04961 h 0.02756 q 0.09646,0 0.129535,-0.04823 0.03445,-0.04961 0.03445,-0.187413 v -0.468532 q 0,-0.227376 -0.01102,-0.276986 -0.0096,-0.04961 -0.03169,-0.06752 -0.02067,-0.01791 -0.0565,-0.01791 -0.03858,0 -0.09233,0.02067 l -0.02067,-0.04961 0.380338,-0.15434 h 0.05925 z"
         id="path22360" />
      <path
         d="m 84.688083,28.131382 v 0.05099 q -0.09922,0.01791 -0.150206,0.06339 -0.07304,0.06752 -0.129536,0.206705 l -0.651811,1.590255 h -0.05099 l -0.700043,-1.610925 q -0.05374,-0.124024 -0.07579,-0.151584 -0.03445,-0.04272 -0.08544,-0.06615 -0.04961,-0.02481 -0.135048,-0.03169 v -0.05099 h 0.763433 v 0.05099 q -0.129535,0.0124 -0.168121,0.0441 -0.03859,0.0317 -0.03859,0.0813 0,0.0689 0.06339,0.214974 l 0.475423,1.09554 0.440972,-1.081759 q 0.06477,-0.159853 0.06477,-0.221864 0,-0.03996 -0.03996,-0.07579 -0.03996,-0.03721 -0.135048,-0.05237 -0.0069,-0.0014 -0.02343,-0.0041 v -0.05099 z"
         id="path22362" />
      <path
         d="m 84.962312,28.040431 q 0.05788,0 0.09784,0.04134 0.04134,0.03996 0.04134,0.09784 0,0.05788 -0.04134,0.09922 -0.03996,0.04134 -0.09784,0.04134 -0.05788,0 -0.09922,-0.04134 -0.04134,-0.04134 -0.04134,-0.09922 0,-0.05788 0.03996,-0.09784 0.04134,-0.04134 0.100597,-0.04134 z m 0.114377,0.66008 v 1.014235 q 0,0.118512 0.01654,0.158475 0.01792,0.03858 0.05099,0.05788 0.03445,0.01929 0.124023,0.01929 V 30 H 84.65501 v -0.04961 q 0.09233,0 0.124023,-0.01791 0.03169,-0.01791 0.04961,-0.05926 0.01929,-0.04134 0.01929,-0.158475 v -0.486447 q 0,-0.205327 -0.0124,-0.265961 -0.0096,-0.0441 -0.03032,-0.06063 -0.02067,-0.01791 -0.0565,-0.01791 -0.03858,0 -0.09371,0.02067 l -0.01929,-0.04961 0.380338,-0.15434 z"
         id="path22364" />
      <path
         d="m 85.63755,29.213141 q -0.0014,0.281119 0.136426,0.440972 0.137804,0.159852 0.323839,0.159852 0.124023,0 0.214973,-0.06752 0.09233,-0.0689 0.154341,-0.234266 l 0.04272,0.02756 q -0.02894,0.188791 -0.168121,0.344509 -0.139182,0.15434 -0.348643,0.15434 -0.227376,0 -0.389985,-0.176389 -0.16123,-0.177767 -0.16123,-0.476801 0,-0.323838 0.165364,-0.504361 0.166743,-0.181901 0.417546,-0.181901 0.212217,0 0.348643,0.14056 0.136426,0.139181 0.136426,0.373448 z m 0,-0.07993 h 0.584288 q -0.0069,-0.121268 -0.02894,-0.170877 -0.03445,-0.07717 -0.103353,-0.121267 -0.06752,-0.0441 -0.141937,-0.0441 -0.114377,0 -0.205328,0.08957 -0.08957,0.08819 -0.104731,0.246669 z"
         id="path22366" />
      <path
         d="m 86.607688,28.737718 h 0.529166 v 0.05099 q -0.07304,0.0055 -0.09646,0.02618 -0.02205,0.02067 -0.02205,0.05926 0,0.04272 0.02343,0.103352 l 0.270096,0.726226 0.271473,-0.591178 -0.07166,-0.186035 q -0.03307,-0.08268 -0.08682,-0.114377 -0.03032,-0.01929 -0.112999,-0.02343 v -0.05099 h 0.600824 v 0.05099 q -0.09922,0.0041 -0.14056,0.03583 -0.02756,0.02205 -0.02756,0.07028 0,0.02756 0.01103,0.0565 l 0.286631,0.724847 0.265961,-0.698665 q 0.02756,-0.07441 0.02756,-0.118511 0,-0.02618 -0.02756,-0.04685 -0.02618,-0.02067 -0.10473,-0.02343 v -0.05099 h 0.398252 v 0.05099 q -0.119889,0.01791 -0.176388,0.162609 l -0.42168,1.087271 h -0.0565 l -0.315571,-0.806152 -0.367936,0.806152 h -0.05099 l -0.405143,-1.061089 q -0.03996,-0.100596 -0.07855,-0.135047 -0.03858,-0.03583 -0.121267,-0.05374 z"
         id="path22368" />
    </g>
    <g
       aria-label="Orientation Vector Coordinate System"
       id="text22181"
       style="font-size:2.82222px;line-height:1.25;font-family:'Times New Roman';-inkscape-font-specification:'Times New Roman, ';text-align:center;text-anchor:middle;stroke-width:0.264583">
      <path
         d="m 126.27193,27.951795 q 0.3638,0 0.62976,0.276985 0.26734,0.275608 0.26734,0.689019 0,0.425813 -0.26871,0.706933 -0.26872,0.28112 -0.65044,0.28112 -0.38585,0 -0.64905,-0.27423 -0.26183,-0.274229 -0.26183,-0.709689 0,-0.445106 0.30317,-0.726225 0.2632,-0.243913 0.62976,-0.243913 z m -0.0262,0.100597 q -0.2508,0 -0.40239,0.186035 -0.18879,0.23151 -0.18879,0.677994 0,0.457508 0.19568,0.704177 0.15021,0.187413 0.39688,0.187413 0.2632,0 0.43408,-0.205328 0.17225,-0.205327 0.17225,-0.647677 0,-0.479557 -0.18879,-0.715201 -0.15158,-0.187413 -0.41892,-0.187413 z"
         id="path22371" />
      <path
         d="m 127.73541,28.563643 v 0.283876 q 0.15847,-0.283876 0.32521,-0.283876 0.0758,0 0.1254,0.04685 0.0496,0.04547 0.0496,0.106109 0,0.05374 -0.0358,0.09095 -0.0358,0.03721 -0.0854,0.03721 -0.0482,0 -0.10887,-0.04685 -0.0593,-0.04823 -0.0882,-0.04823 -0.0248,0 -0.0537,0.02756 -0.062,0.0565 -0.12815,0.186035 v 0.604959 q 0,0.10473 0.0262,0.158474 0.0179,0.03721 0.0634,0.06201 0.0455,0.02481 0.13091,0.02481 v 0.04961 h -0.6463 v -0.04961 q 0.0965,0 0.14332,-0.03032 0.0344,-0.02205 0.0482,-0.07028 0.007,-0.02343 0.007,-0.133669 v -0.489203 q 0,-0.220486 -0.01,-0.261827 -0.008,-0.04272 -0.0331,-0.06201 -0.0234,-0.01929 -0.0593,-0.01929 -0.0427,0 -0.0965,0.02067 l -0.0138,-0.04961 0.38172,-0.154341 z"
         id="path22373" />
      <path
         d="m 128.627,27.903564 q 0.0579,0 0.0978,0.04134 0.0413,0.03996 0.0413,0.09784 0,0.05788 -0.0413,0.09922 -0.04,0.04134 -0.0978,0.04134 -0.0579,0 -0.0992,-0.04134 -0.0413,-0.04134 -0.0413,-0.09922 0,-0.05788 0.04,-0.09784 0.0413,-0.04134 0.1006,-0.04134 z m 0.11437,0.660079 v 1.014236 q 0,0.118511 0.0165,0.158474 0.0179,0.03858 0.051,0.05788 0.0344,0.01929 0.12402,0.01929 v 0.04961 h -0.61323 v -0.04961 q 0.0923,0 0.12403,-0.01791 0.0317,-0.01791 0.0496,-0.05926 0.0193,-0.04134 0.0193,-0.158474 v -0.486447 q 0,-0.205328 -0.0124,-0.265961 -0.01,-0.0441 -0.0303,-0.06063 -0.0207,-0.01791 -0.0565,-0.01791 -0.0386,0 -0.0937,0.02067 l -0.0193,-0.04961 0.38034,-0.154341 z"
         id="path22375" />
      <path
         d="m 129.30224,29.076273 q -0.001,0.28112 0.13642,0.440972 0.1378,0.159852 0.32384,0.159852 0.12402,0 0.21497,-0.06752 0.0923,-0.0689 0.15434,-0.234267 l 0.0427,0.02756 q -0.0289,0.188791 -0.16812,0.344509 -0.13918,0.154341 -0.34864,0.154341 -0.22738,0 -0.38999,-0.176389 -0.16123,-0.177767 -0.16123,-0.476801 0,-0.323839 0.16537,-0.504362 0.16674,-0.181901 0.41754,-0.181901 0.21222,0 0.34865,0.14056 0.13642,0.139182 0.13642,0.373448 z m 0,-0.07993 h 0.58428 q -0.007,-0.121267 -0.0289,-0.170876 -0.0345,-0.07717 -0.10335,-0.121268 -0.0675,-0.0441 -0.14194,-0.0441 -0.11437,0 -0.20532,0.08957 -0.0896,0.08819 -0.10473,0.246669 z"
         id="path22377" />
      <path
         d="m 130.71059,28.830983 q 0.22186,-0.26734 0.42306,-0.26734 0.10335,0 0.17776,0.05237 0.0744,0.05099 0.11851,0.169498 0.0303,0.08268 0.0303,0.253559 v 0.538813 q 0,0.119889 0.0193,0.162608 0.0152,0.03445 0.0482,0.05374 0.0345,0.01929 0.12541,0.01929 v 0.04961 h -0.62425 v -0.04961 h 0.0262 q 0.0882,0 0.12264,-0.02618 0.0358,-0.02756 0.0496,-0.07993 0.006,-0.02067 0.006,-0.129535 v -0.516764 q 0,-0.172255 -0.0455,-0.249425 -0.0441,-0.07855 -0.15021,-0.07855 -0.16398,0 -0.32659,0.179145 v 0.665592 q 0,0.128157 0.0152,0.158474 0.0193,0.03996 0.0524,0.05926 0.0344,0.01791 0.13781,0.01791 v 0.04961 h -0.62425 v -0.04961 h 0.0276 q 0.0965,0 0.12953,-0.04823 0.0345,-0.04961 0.0345,-0.187413 v -0.468533 q 0,-0.227376 -0.011,-0.276985 -0.01,-0.04961 -0.0317,-0.06752 -0.0207,-0.01791 -0.0565,-0.01791 -0.0386,0 -0.0923,0.02067 l -0.0207,-0.04961 0.38034,-0.154341 h 0.0593 z"
         id="path22379" />
      <path
         d="m 132.12032,28.186061 v 0.414789 h 0.2949 v 0.09646 h -0.2949 v 0.818554 q 0,0.122645 0.0345,0.165365 0.0358,0.04272 0.0909,0.04272 0.0455,0 0.0882,-0.02756 0.0427,-0.02894 0.0661,-0.08406 h 0.0538 q -0.0482,0.135047 -0.13643,0.203949 -0.0882,0.06752 -0.1819,0.06752 -0.0634,0 -0.12402,-0.03445 -0.0606,-0.03583 -0.0896,-0.100597 -0.0289,-0.06614 -0.0289,-0.202571 v -0.848871 h -0.19981 v -0.04547 q 0.0758,-0.03032 0.15434,-0.101975 0.0799,-0.07304 0.14194,-0.172255 0.0317,-0.05236 0.0882,-0.191547 z"
         id="path22381" />
      <path
         d="m 133.25307,29.681232 q -0.19431,0.150206 -0.24392,0.173632 -0.0744,0.03445 -0.15847,0.03445 -0.13091,0 -0.21635,-0.08957 -0.0841,-0.08957 -0.0841,-0.235645 0,-0.09233 0.0413,-0.159852 0.0565,-0.09371 0.19568,-0.176389 0.14056,-0.08268 0.46578,-0.201193 v -0.04961 q 0,-0.188792 -0.0606,-0.259071 -0.0592,-0.07028 -0.17363,-0.07028 -0.0868,0 -0.1378,0.04685 -0.0524,0.04685 -0.0524,0.107487 l 0.003,0.07993 q 0,0.06339 -0.0331,0.09784 -0.0317,0.03445 -0.0841,0.03445 -0.051,0 -0.0841,-0.03583 -0.0317,-0.03583 -0.0317,-0.09784 0,-0.118511 0.12127,-0.21773 0.12126,-0.09922 0.34037,-0.09922 0.16812,0 0.27561,0.0565 0.0813,0.04272 0.11989,0.13367 0.0248,0.05926 0.0248,0.242534 v 0.42857 q 0,0.180523 0.007,0.221864 0.007,0.03996 0.0221,0.05374 0.0165,0.01378 0.0372,0.01378 0.022,0 0.0386,-0.0096 0.0289,-0.01791 0.11163,-0.100597 v 0.07717 q -0.15434,0.206705 -0.2949,0.206705 -0.0675,0 -0.10749,-0.04685 -0.04,-0.04685 -0.0413,-0.159852 z m 0,-0.08957 v -0.480935 q -0.20809,0.08268 -0.26872,0.117133 -0.10886,0.06063 -0.15572,0.12678 -0.0469,0.06615 -0.0469,0.144694 0,0.09922 0.0592,0.165364 0.0593,0.06477 0.13643,0.06477 0.10473,0 0.27561,-0.137804 z"
         id="path22383" />
      <path
         d="m 134.15706,28.186061 v 0.414789 h 0.2949 v 0.09646 h -0.2949 v 0.818554 q 0,0.122645 0.0344,0.165365 0.0358,0.04272 0.0909,0.04272 0.0455,0 0.0882,-0.02756 0.0427,-0.02894 0.0661,-0.08406 h 0.0538 q -0.0482,0.135047 -0.13643,0.203949 -0.0882,0.06752 -0.1819,0.06752 -0.0634,0 -0.12402,-0.03445 -0.0606,-0.03583 -0.0896,-0.100597 -0.0289,-0.06614 -0.0289,-0.202571 v -0.848871 h -0.19981 v -0.04547 q 0.0758,-0.03032 0.15434,-0.101975 0.0799,-0.07304 0.14194,-0.172255 0.0317,-0.05236 0.0882,-0.191547 z"
         id="path22385" />
      <path
         d="m 134.89569,27.903564 q 0.0579,0 0.0978,0.04134 0.0413,0.03996 0.0413,0.09784 0,0.05788 -0.0413,0.09922 -0.04,0.04134 -0.0978,0.04134 -0.0579,0 -0.0992,-0.04134 -0.0413,-0.04134 -0.0413,-0.09922 0,-0.05788 0.04,-0.09784 0.0413,-0.04134 0.1006,-0.04134 z m 0.11438,0.660079 v 1.014236 q 0,0.118511 0.0165,0.158474 0.0179,0.03858 0.051,0.05788 0.0345,0.01929 0.12402,0.01929 v 0.04961 h -0.61322 v -0.04961 q 0.0923,0 0.12402,-0.01791 0.0317,-0.01791 0.0496,-0.05926 0.0193,-0.04134 0.0193,-0.158474 v -0.486447 q 0,-0.205328 -0.0124,-0.265961 -0.01,-0.0441 -0.0303,-0.06063 -0.0207,-0.01791 -0.0565,-0.01791 -0.0386,0 -0.0937,0.02067 l -0.0193,-0.04961 0.38034,-0.154341 z"
         id="path22387" />
      <path
         d="m 135.97607,28.563643 q 0.28663,0 0.46026,0.21773 0.14745,0.186035 0.14745,0.427192 0,0.169498 -0.0813,0.343131 -0.0813,0.173633 -0.22462,0.261827 -0.14194,0.08819 -0.31695,0.08819 -0.28525,0 -0.45337,-0.227377 -0.14194,-0.191547 -0.14194,-0.429947 0,-0.173633 0.0854,-0.344509 0.0868,-0.172255 0.22737,-0.253559 0.14056,-0.08268 0.29766,-0.08268 z m -0.0427,0.08957 q -0.073,0 -0.14745,0.0441 -0.073,0.04272 -0.11851,0.151584 -0.0455,0.108865 -0.0455,0.279742 0,0.275607 0.10887,0.475422 0.11024,0.199816 0.28939,0.199816 0.13367,0 0.22048,-0.110243 0.0868,-0.110243 0.0868,-0.37896 0,-0.336241 -0.1447,-0.529167 -0.0978,-0.132291 -0.24942,-0.132291 z"
         id="path22389" />
      <path
         d="m 137.13775,28.830983 q 0.22187,-0.26734 0.42306,-0.26734 0.10335,0 0.17777,0.05237 0.0744,0.05099 0.11851,0.169498 0.0303,0.08268 0.0303,0.253559 v 0.538813 q 0,0.119889 0.0193,0.162608 0.0152,0.03445 0.0482,0.05374 0.0345,0.01929 0.1254,0.01929 v 0.04961 h -0.62425 v -0.04961 h 0.0262 q 0.0882,0 0.12265,-0.02618 0.0358,-0.02756 0.0496,-0.07993 0.006,-0.02067 0.006,-0.129535 v -0.516764 q 0,-0.172255 -0.0455,-0.249425 -0.0441,-0.07855 -0.1502,-0.07855 -0.16399,0 -0.3266,0.179145 v 0.665592 q 0,0.128157 0.0152,0.158474 0.0193,0.03996 0.0524,0.05926 0.0345,0.01791 0.1378,0.01791 v 0.04961 h -0.62425 v -0.04961 h 0.0276 q 0.0965,0 0.12954,-0.04823 0.0344,-0.04961 0.0344,-0.187413 v -0.468533 q 0,-0.227376 -0.011,-0.276985 -0.01,-0.04961 -0.0317,-0.06752 -0.0207,-0.01791 -0.0565,-0.01791 -0.0386,0 -0.0923,0.02067 l -0.0207,-0.04961 0.38034,-0.154341 h 0.0593 z"
         id="path22391" />
      <path
         d="m 140.75097,27.994514 v 0.05099 q -0.0992,0.01791 -0.15021,0.06339 -0.073,0.06752 -0.12953,0.206706 l -0.65181,1.590255 h -0.051 l -0.70005,-1.610926 q -0.0537,-0.124023 -0.0758,-0.151584 -0.0345,-0.04272 -0.0854,-0.06615 -0.0496,-0.0248 -0.13504,-0.03169 v -0.05099 h 0.76343 v 0.05099 q -0.12954,0.0124 -0.16812,0.0441 -0.0386,0.03169 -0.0386,0.0813 0,0.0689 0.0634,0.214974 l 0.47543,1.095539 0.44097,-1.081759 q 0.0648,-0.159852 0.0648,-0.221864 0,-0.03996 -0.04,-0.07579 -0.04,-0.03721 -0.13504,-0.05237 -0.007,-0.0014 -0.0234,-0.0041 v -0.05099 z"
         id="path22393" />
      <path
         d="m 140.77302,29.076273 q -0.001,0.28112 0.13642,0.440972 0.13781,0.159852 0.32384,0.159852 0.12402,0 0.21497,-0.06752 0.0923,-0.0689 0.15434,-0.234267 l 0.0427,0.02756 q -0.0289,0.188791 -0.16812,0.344509 -0.13918,0.154341 -0.34864,0.154341 -0.22738,0 -0.38998,-0.176389 -0.16124,-0.177767 -0.16124,-0.476801 0,-0.323839 0.16537,-0.504362 0.16674,-0.181901 0.41754,-0.181901 0.21222,0 0.34865,0.14056 0.13642,0.139182 0.13642,0.373448 z m 0,-0.07993 h 0.58428 q -0.007,-0.121267 -0.0289,-0.170876 -0.0344,-0.07717 -0.10335,-0.121268 -0.0675,-0.0441 -0.14194,-0.0441 -0.11437,0 -0.20532,0.08957 -0.0896,0.08819 -0.10473,0.246669 z"
         id="path22395" />
      <path
         d="m 142.88555,29.383576 q -0.051,0.249424 -0.19982,0.384472 -0.14883,0.13367 -0.32935,0.13367 -0.21497,0 -0.37483,-0.180523 -0.15985,-0.180523 -0.15985,-0.487826 0,-0.297656 0.17639,-0.483691 0.17777,-0.186035 0.42581,-0.186035 0.18604,0 0.30593,0.09922 0.11989,0.09784 0.11989,0.20395 0,0.05237 -0.0344,0.08544 -0.0331,0.03169 -0.0937,0.03169 -0.0813,0 -0.12264,-0.05237 -0.0234,-0.02894 -0.0317,-0.110243 -0.007,-0.0813 -0.0551,-0.124023 -0.0482,-0.04134 -0.13367,-0.04134 -0.1378,0 -0.22186,0.101975 -0.11163,0.135047 -0.11163,0.356911 0,0.225998 0.11025,0.399631 0.11162,0.172255 0.30041,0.172255 0.13505,0 0.24253,-0.09233 0.0758,-0.06339 0.14745,-0.230132 z"
         id="path22397" />
      <path
         d="m 143.43263,28.186061 v 0.414789 h 0.2949 v 0.09646 h -0.2949 v 0.818554 q 0,0.122645 0.0345,0.165365 0.0358,0.04272 0.0909,0.04272 0.0455,0 0.0882,-0.02756 0.0427,-0.02894 0.0661,-0.08406 h 0.0537 q -0.0482,0.135047 -0.13642,0.203949 -0.0882,0.06752 -0.1819,0.06752 -0.0634,0 -0.12403,-0.03445 -0.0606,-0.03583 -0.0896,-0.100597 -0.0289,-0.06614 -0.0289,-0.202571 v -0.848871 h -0.19981 v -0.04547 q 0.0758,-0.03032 0.15434,-0.101975 0.0799,-0.07304 0.14193,-0.172255 0.0317,-0.05236 0.0882,-0.191547 z"
         id="path22399" />
      <path
         d="m 144.46753,28.563643 q 0.28664,0 0.46027,0.21773 0.14745,0.186035 0.14745,0.427192 0,0.169498 -0.0813,0.343131 -0.0813,0.173633 -0.22462,0.261827 -0.14193,0.08819 -0.31694,0.08819 -0.28526,0 -0.45338,-0.227377 -0.14194,-0.191547 -0.14194,-0.429947 0,-0.173633 0.0854,-0.344509 0.0868,-0.172255 0.22738,-0.253559 0.14056,-0.08268 0.29765,-0.08268 z m -0.0427,0.08957 q -0.073,0 -0.14745,0.0441 -0.073,0.04272 -0.11852,0.151584 -0.0455,0.108865 -0.0455,0.279742 0,0.275607 0.10886,0.475422 0.11025,0.199816 0.28939,0.199816 0.13367,0 0.22049,-0.110243 0.0868,-0.110243 0.0868,-0.37896 0,-0.336241 -0.14469,-0.529167 -0.0978,-0.132291 -0.24942,-0.132291 z"
         id="path22401" />
      <path
         d="m 145.6306,28.563643 v 0.283876 q 0.15847,-0.283876 0.32521,-0.283876 0.0758,0 0.12541,0.04685 0.0496,0.04547 0.0496,0.106109 0,0.05374 -0.0358,0.09095 -0.0358,0.03721 -0.0854,0.03721 -0.0482,0 -0.10887,-0.04685 -0.0592,-0.04823 -0.0882,-0.04823 -0.0248,0 -0.0538,0.02756 -0.062,0.0565 -0.12815,0.186035 v 0.604959 q 0,0.10473 0.0262,0.158474 0.0179,0.03721 0.0634,0.06201 0.0455,0.02481 0.13091,0.02481 v 0.04961 h -0.6463 v -0.04961 q 0.0965,0 0.14332,-0.03032 0.0345,-0.02205 0.0482,-0.07028 0.007,-0.02343 0.007,-0.133669 v -0.489203 q 0,-0.220486 -0.01,-0.261827 -0.008,-0.04272 -0.0331,-0.06201 -0.0234,-0.01929 -0.0592,-0.01929 -0.0427,0 -0.0965,0.02067 l -0.0138,-0.04961 0.38172,-0.154341 z"
         id="path22403" />
      <path
         d="m 126.59715,31.47957 0.0427,0.635275 h -0.0427 q -0.0854,-0.285254 -0.24391,-0.410655 -0.15848,-0.125401 -0.38034,-0.125401 -0.18604,0 -0.33624,0.09508 -0.15021,0.09371 -0.23703,0.300412 -0.0854,0.206706 -0.0854,0.514008 0,0.253559 0.0813,0.439594 0.0813,0.186035 0.24391,0.285254 0.16399,0.09922 0.37345,0.09922 0.1819,0 0.32108,-0.07717 0.13918,-0.07855 0.30593,-0.310058 l 0.0427,0.02756 q -0.14056,0.249424 -0.32798,0.36518 -0.18741,0.115755 -0.4451,0.115755 -0.4644,0 -0.71934,-0.34451 Q 125,32.832803 125,32.485537 q 0,-0.279741 0.1254,-0.514008 0.12541,-0.234266 0.34451,-0.362423 0.22049,-0.129536 0.48094,-0.129536 0.20257,0 0.39963,0.09922 0.0579,0.03032 0.0827,0.03032 0.0372,0 0.0648,-0.02618 0.0358,-0.03721 0.051,-0.103353 z"
         id="path22405" />
      <path
         d="m 127.48598,32.091419 q 0.28663,0 0.46027,0.217729 0.14745,0.186035 0.14745,0.427192 0,0.169499 -0.0813,0.343131 -0.0813,0.173633 -0.22462,0.261827 -0.14194,0.08819 -0.31695,0.08819 -0.28525,0 -0.45337,-0.227377 -0.14194,-0.191547 -0.14194,-0.429947 0,-0.173633 0.0854,-0.344509 0.0868,-0.172255 0.22738,-0.253559 0.14056,-0.08268 0.29765,-0.08268 z m -0.0427,0.08957 q -0.073,0 -0.14745,0.0441 -0.073,0.04272 -0.11851,0.151584 -0.0455,0.108865 -0.0455,0.279742 0,0.275607 0.10886,0.475423 0.11024,0.199815 0.28939,0.199815 0.13367,0 0.22049,-0.110243 0.0868,-0.110243 0.0868,-0.37896 0,-0.336241 -0.14469,-0.529166 -0.0978,-0.132292 -0.24943,-0.132292 z"
         id="path22407" />
      <path
         d="m 128.89709,32.091419 q 0.28663,0 0.46027,0.217729 0.14745,0.186035 0.14745,0.427192 0,0.169499 -0.0813,0.343131 -0.0813,0.173633 -0.22462,0.261827 -0.14194,0.08819 -0.31695,0.08819 -0.28525,0 -0.45337,-0.227377 -0.14194,-0.191547 -0.14194,-0.429947 0,-0.173633 0.0854,-0.344509 0.0868,-0.172255 0.22738,-0.253559 0.14056,-0.08268 0.29765,-0.08268 z m -0.0427,0.08957 q -0.073,0 -0.14745,0.0441 -0.073,0.04272 -0.11851,0.151584 -0.0455,0.108865 -0.0455,0.279742 0,0.275607 0.10886,0.475423 0.11024,0.199815 0.28939,0.199815 0.13367,0 0.22049,-0.110243 0.0868,-0.110243 0.0868,-0.37896 0,-0.336241 -0.14469,-0.529166 -0.0978,-0.132292 -0.24943,-0.132292 z"
         id="path22409" />
      <path
         d="m 130.06016,32.091419 v 0.283875 q 0.15847,-0.283875 0.32521,-0.283875 0.0758,0 0.1254,0.04685 0.0496,0.04547 0.0496,0.106109 0,0.05374 -0.0358,0.09095 -0.0358,0.03721 -0.0854,0.03721 -0.0482,0 -0.10887,-0.04685 -0.0593,-0.04823 -0.0882,-0.04823 -0.0248,0 -0.0538,0.02756 -0.062,0.0565 -0.12815,0.186035 v 0.604959 q 0,0.10473 0.0262,0.158474 0.0179,0.03721 0.0634,0.06201 0.0455,0.0248 0.13091,0.0248 v 0.04961 h -0.6463 v -0.04961 q 0.0965,0 0.14332,-0.03032 0.0344,-0.02205 0.0482,-0.07028 0.007,-0.02343 0.007,-0.13367 v -0.489203 q 0,-0.220486 -0.01,-0.261827 -0.008,-0.04272 -0.0331,-0.06201 -0.0234,-0.01929 -0.0593,-0.01929 -0.0427,0 -0.0965,0.02067 l -0.0138,-0.04961 0.38172,-0.15434 z"
         id="path22411" />
      <path
         d="m 131.52225,33.24897 q -0.0923,0.09646 -0.18052,0.139182 -0.0882,0.04134 -0.19017,0.04134 -0.2067,0 -0.36104,-0.172255 -0.15435,-0.173633 -0.15435,-0.445106 0,-0.271473 0.17088,-0.496093 0.17088,-0.225998 0.4396,-0.225998 0.16674,0 0.2756,0.106108 V 31.96326 q 0,-0.216352 -0.011,-0.265961 -0.01,-0.04961 -0.0317,-0.06752 -0.022,-0.01791 -0.0551,-0.01791 -0.0358,0 -0.0951,0.02205 l -0.0179,-0.04823 0.37621,-0.15434 h 0.062 v 1.459341 q 0,0.221864 0.01,0.271473 0.011,0.04823 0.0331,0.06752 0.0234,0.01929 0.0537,0.01929 0.0372,0 0.0992,-0.02343 l 0.0152,0.04823 -0.37483,0.155719 h -0.0634 z m 0,-0.09646 v -0.650433 q -0.008,-0.09371 -0.0496,-0.170877 -0.0413,-0.07717 -0.11024,-0.115755 -0.0675,-0.03996 -0.13229,-0.03996 -0.12127,0 -0.21635,0.108865 -0.1254,0.143316 -0.1254,0.418923 0,0.278364 0.12126,0.427192 0.12127,0.14745 0.2701,0.14745 0.1254,0 0.24253,-0.125402 z"
         id="path22413" />
      <path
         d="m 132.36286,31.431339 q 0.0579,0 0.0978,0.04134 0.0413,0.03996 0.0413,0.09784 0,0.05788 -0.0413,0.09922 -0.04,0.04134 -0.0978,0.04134 -0.0579,0 -0.0992,-0.04134 -0.0413,-0.04134 -0.0413,-0.09922 0,-0.05788 0.04,-0.09784 0.0413,-0.04134 0.1006,-0.04134 z m 0.11437,0.66008 v 1.014235 q 0,0.118511 0.0165,0.158474 0.0179,0.03858 0.051,0.05788 0.0344,0.01929 0.12402,0.01929 v 0.04961 h -0.61323 v -0.04961 q 0.0923,0 0.12403,-0.01791 0.0317,-0.01791 0.0496,-0.05926 0.0193,-0.04134 0.0193,-0.158474 v -0.486447 q 0,-0.205328 -0.0124,-0.265961 -0.01,-0.0441 -0.0303,-0.06063 -0.0207,-0.01791 -0.0565,-0.01791 -0.0386,0 -0.0937,0.02067 l -0.0193,-0.04961 0.38034,-0.15434 z"
         id="path22415" />
      <path
         d="m 133.19381,32.358758 q 0.22187,-0.267339 0.42306,-0.267339 0.10335,0 0.17777,0.05236 0.0744,0.05099 0.11851,0.169499 0.0303,0.08268 0.0303,0.253558 v 0.538813 q 0,0.119889 0.0193,0.162608 0.0152,0.03445 0.0482,0.05374 0.0345,0.01929 0.1254,0.01929 v 0.04961 h -0.62425 v -0.04961 h 0.0262 q 0.0882,0 0.12265,-0.02618 0.0358,-0.02756 0.0496,-0.07993 0.006,-0.02067 0.006,-0.129535 V 32.58889 q 0,-0.172255 -0.0455,-0.249425 -0.0441,-0.07855 -0.1502,-0.07855 -0.16399,0 -0.3266,0.179145 v 0.665592 q 0,0.128157 0.0152,0.158474 0.0193,0.03996 0.0524,0.05926 0.0345,0.01791 0.1378,0.01791 v 0.04961 h -0.62425 v -0.04961 h 0.0276 q 0.0965,0 0.12953,-0.04823 0.0345,-0.04961 0.0345,-0.187413 V 32.63712 q 0,-0.227376 -0.011,-0.276985 -0.01,-0.04961 -0.0317,-0.06752 -0.0207,-0.01791 -0.0565,-0.01791 -0.0386,0 -0.0923,0.02067 l -0.0207,-0.04961 0.38034,-0.15434 h 0.0593 z"
         id="path22417" />
      <path
         d="m 134.95219,33.209007 q -0.19431,0.150206 -0.24392,0.173632 -0.0744,0.03445 -0.15847,0.03445 -0.13091,0 -0.21635,-0.08957 -0.0841,-0.08957 -0.0841,-0.235644 0,-0.09233 0.0413,-0.159853 0.0565,-0.09371 0.19568,-0.176389 0.14056,-0.08268 0.46578,-0.201193 v -0.04961 q 0,-0.188791 -0.0606,-0.259071 -0.0592,-0.07028 -0.17363,-0.07028 -0.0868,0 -0.1378,0.04685 -0.0524,0.04685 -0.0524,0.107487 l 0.003,0.07993 q 0,0.06339 -0.0331,0.09784 -0.0317,0.03445 -0.0841,0.03445 -0.051,0 -0.0841,-0.03583 -0.0317,-0.03583 -0.0317,-0.09784 0,-0.118511 0.12127,-0.21773 0.12126,-0.09922 0.34037,-0.09922 0.16812,0 0.27561,0.0565 0.0813,0.04272 0.11989,0.13367 0.0248,0.05926 0.0248,0.242534 v 0.42857 q 0,0.180523 0.007,0.221864 0.007,0.03996 0.022,0.05374 0.0165,0.01378 0.0372,0.01378 0.0221,0 0.0386,-0.0096 0.0289,-0.01791 0.11162,-0.100596 v 0.07717 q -0.15434,0.206705 -0.2949,0.206705 -0.0675,0 -0.10748,-0.04685 -0.04,-0.04685 -0.0413,-0.159852 z m 0,-0.08957 v -0.480935 q -0.20809,0.08268 -0.26872,0.117133 -0.10887,0.06063 -0.15572,0.12678 -0.0469,0.06615 -0.0469,0.144694 0,0.09922 0.0593,0.165364 0.0593,0.06477 0.13643,0.06477 0.10473,0 0.27561,-0.137804 z"
         id="path22419" />
      <path
         d="m 135.85618,31.713836 v 0.41479 h 0.2949 v 0.09646 h -0.2949 v 0.818554 q 0,0.122646 0.0344,0.165365 0.0358,0.04272 0.091,0.04272 0.0455,0 0.0882,-0.02756 0.0427,-0.02894 0.0661,-0.08406 h 0.0537 q -0.0482,0.135047 -0.13642,0.203949 -0.0882,0.06752 -0.1819,0.06752 -0.0634,0 -0.12403,-0.03445 -0.0606,-0.03583 -0.0896,-0.100596 -0.0289,-0.06615 -0.0289,-0.202572 v -0.848871 h -0.19981 v -0.04547 q 0.0758,-0.03032 0.15434,-0.101975 0.0799,-0.07304 0.14194,-0.172254 0.0317,-0.05237 0.0882,-0.191548 z"
         id="path22421" />
      <path
         d="m 136.48594,32.604048 q -0.001,0.28112 0.13643,0.440972 0.1378,0.159853 0.32384,0.159853 0.12402,0 0.21497,-0.06752 0.0923,-0.0689 0.15434,-0.234267 l 0.0427,0.02756 q -0.0289,0.188791 -0.16812,0.344509 -0.13918,0.154341 -0.34864,0.154341 -0.22738,0 -0.38999,-0.176389 -0.16123,-0.177767 -0.16123,-0.476801 0,-0.323839 0.16537,-0.504362 0.16674,-0.1819 0.41754,-0.1819 0.21222,0 0.34864,0.140559 0.13643,0.139182 0.13643,0.373448 z m 0,-0.07993 h 0.58429 q -0.007,-0.121267 -0.0289,-0.170876 -0.0344,-0.07717 -0.10335,-0.121268 -0.0675,-0.0441 -0.14194,-0.0441 -0.11438,0 -0.20533,0.08957 -0.0896,0.08819 -0.10473,0.246668 z"
         id="path22423" />
      <path
         d="m 139.4377,31.47957 v 0.646299 h -0.051 q -0.0248,-0.186035 -0.0896,-0.296278 -0.0634,-0.110242 -0.1819,-0.17501 -0.11851,-0.06477 -0.24529,-0.06477 -0.14332,0 -0.23703,0.08819 -0.0937,0.08682 -0.0937,0.198438 0,0.08544 0.0592,0.155718 0.0854,0.103353 0.40652,0.275607 0.26183,0.14056 0.35692,0.216352 0.0965,0.07441 0.14745,0.176389 0.0524,0.101975 0.0524,0.213596 0,0.212217 -0.16536,0.366558 -0.16399,0.152962 -0.42306,0.152962 -0.0813,0 -0.15296,-0.0124 -0.0427,-0.0069 -0.17777,-0.04961 -0.13367,-0.0441 -0.1695,-0.0441 -0.0345,0 -0.0551,0.02067 -0.0193,0.02067 -0.0289,0.08544 h -0.051 v -0.640788 h 0.051 q 0.0358,0.201194 0.0965,0.301791 0.0606,0.09922 0.18466,0.165364 0.1254,0.06615 0.27423,0.06615 0.17226,0 0.27147,-0.09095 0.1006,-0.09095 0.1006,-0.214973 0,-0.0689 -0.0386,-0.139182 -0.0372,-0.07028 -0.11714,-0.130914 -0.0537,-0.04134 -0.29352,-0.17501 -0.23978,-0.135048 -0.34175,-0.214974 -0.1006,-0.07993 -0.15296,-0.176389 -0.0524,-0.09646 -0.0524,-0.212218 0,-0.201193 0.15434,-0.345887 0.15434,-0.146072 0.39274,-0.146072 0.14883,0 0.31557,0.07304 0.0772,0.03445 0.10887,0.03445 0.0358,0 0.0579,-0.02067 0.0234,-0.02205 0.0372,-0.08682 z"
         id="path22425" />
      <path
         d="m 139.72984,32.128626 h 0.58842 v 0.05099 h -0.0289 q -0.062,0 -0.0937,0.02756 -0.0303,0.02618 -0.0303,0.06614 0,0.05374 0.0455,0.148828 l 0.3073,0.636654 0.2825,-0.697287 q 0.0234,-0.0565 0.0234,-0.111621 0,-0.02481 -0.01,-0.03721 -0.011,-0.01516 -0.0344,-0.02343 -0.0234,-0.0096 -0.0827,-0.0096 v -0.05099 h 0.41066 v 0.05099 q -0.051,0.0055 -0.0786,0.02205 -0.0276,0.01654 -0.0606,0.06201 -0.0124,0.01929 -0.0469,0.106109 l -0.514,1.259526 q -0.0744,0.183279 -0.19569,0.276985 Q 140.09227,34 139.98064,34 q -0.0813,0 -0.13367,-0.04685 -0.0524,-0.04685 -0.0524,-0.107487 0,-0.05788 0.0372,-0.09371 0.0386,-0.03445 0.10473,-0.03445 0.0455,0 0.12402,0.03032 0.0551,0.02067 0.0689,0.02067 0.0413,0 0.0896,-0.04272 0.0496,-0.04272 0.0992,-0.165365 l 0.0896,-0.219108 -0.45338,-0.952223 q -0.0207,-0.04272 -0.0661,-0.106109 -0.0344,-0.04823 -0.0565,-0.06477 -0.0317,-0.02205 -0.10198,-0.03858 z"
         id="path22427" />
      <path
         d="m 142.02841,32.091419 v 0.429947 h -0.0455 q -0.0524,-0.202571 -0.13505,-0.275607 -0.0813,-0.07304 -0.20808,-0.07304 -0.0965,0 -0.15572,0.05099 -0.0593,0.05099 -0.0593,0.112999 0,0.07717 0.0441,0.132292 0.0427,0.0565 0.17364,0.119889 l 0.20119,0.09784 q 0.27974,0.136425 0.27974,0.359667 0,0.172255 -0.13091,0.278364 -0.12954,0.104731 -0.29077,0.104731 -0.11575,0 -0.26458,-0.04134 -0.0455,-0.01378 -0.0744,-0.01378 -0.0317,0 -0.0496,0.03583 h -0.0455 v -0.450618 h 0.0455 q 0.0386,0.192925 0.14745,0.290766 0.10886,0.09784 0.24391,0.09784 0.0951,0 0.15434,-0.05512 0.0606,-0.0565 0.0606,-0.135048 0,-0.09508 -0.0675,-0.159852 -0.0662,-0.06477 -0.26596,-0.163986 -0.19982,-0.09922 -0.26183,-0.179145 -0.062,-0.07855 -0.062,-0.198438 0,-0.155718 0.10611,-0.260449 0.10748,-0.10473 0.27698,-0.10473 0.0744,0 0.18053,0.03169 0.0703,0.02067 0.0937,0.02067 0.022,0 0.0344,-0.0096 0.0124,-0.0096 0.0289,-0.04272 z"
         id="path22429" />
      <path
         d="m 142.67746,31.713836 v 0.41479 h 0.2949 v 0.09646 h -0.2949 v 0.818554 q 0,0.122646 0.0344,0.165365 0.0358,0.04272 0.091,0.04272 0.0455,0 0.0882,-0.02756 0.0427,-0.02894 0.0661,-0.08406 h 0.0538 q -0.0482,0.135047 -0.13643,0.203949 -0.0882,0.06752 -0.1819,0.06752 -0.0634,0 -0.12402,-0.03445 -0.0606,-0.03583 -0.0896,-0.100596 -0.0289,-0.06615 -0.0289,-0.202572 v -0.848871 h -0.19982 v -0.04547 q 0.0758,-0.03032 0.15434,-0.101975 0.0799,-0.07304 0.14194,-0.172254 0.0317,-0.05237 0.0882,-0.191548 z"
         id="path22431" />
      <path
         d="m 143.30723,32.604048 q -0.001,0.28112 0.13642,0.440972 0.13781,0.159853 0.32384,0.159853 0.12402,0 0.21497,-0.06752 0.0923,-0.0689 0.15434,-0.234267 l 0.0427,0.02756 q -0.0289,0.188791 -0.16812,0.344509 -0.13918,0.154341 -0.34864,0.154341 -0.22738,0 -0.38998,-0.176389 -0.16124,-0.177767 -0.16124,-0.476801 0,-0.323839 0.16537,-0.504362 0.16674,-0.1819 0.41754,-0.1819 0.21222,0 0.34865,0.140559 0.13642,0.139182 0.13642,0.373448 z m 0,-0.07993 h 0.58428 q -0.007,-0.121267 -0.0289,-0.170876 -0.0344,-0.07717 -0.10335,-0.121268 -0.0675,-0.0441 -0.14194,-0.0441 -0.11437,0 -0.20532,0.08957 -0.0896,0.08819 -0.10473,0.246668 z"
         id="path22433" />
      <path
         d="m 144.72247,32.360136 q 0.1378,-0.137804 0.16261,-0.158474 0.062,-0.05237 0.13367,-0.08131 0.0717,-0.02894 0.14194,-0.02894 0.11851,0 0.20395,0.0689 0.0854,0.0689 0.11437,0.199816 0.14194,-0.165365 0.23978,-0.216352 0.0978,-0.05236 0.20119,-0.05236 0.1006,0 0.17777,0.05236 0.0786,0.05099 0.12402,0.16812 0.0303,0.07993 0.0303,0.250803 v 0.542947 q 0,0.118511 0.0179,0.162608 0.0138,0.03032 0.051,0.05237 0.0372,0.02067 0.12127,0.02067 v 0.04961 h -0.62287 v -0.04961 h 0.0262 q 0.0813,0 0.12678,-0.03169 0.0317,-0.02205 0.0455,-0.07028 0.006,-0.02343 0.006,-0.133669 v -0.542947 q 0,-0.15434 -0.0372,-0.21773 -0.0537,-0.08819 -0.17225,-0.08819 -0.073,0 -0.14745,0.03721 -0.073,0.03583 -0.17777,0.135048 l -0.003,0.01516 0.003,0.05926 v 0.602202 q 0,0.129535 0.0138,0.16123 0.0152,0.03169 0.0551,0.05374 0.04,0.02067 0.13643,0.02067 v 0.04961 h -0.63803 v -0.04961 q 0.10473,0 0.14331,-0.0248 0.04,-0.02481 0.0551,-0.07441 0.007,-0.02343 0.007,-0.136426 v -0.542947 q 0,-0.15434 -0.0455,-0.221864 -0.0606,-0.08819 -0.1695,-0.08819 -0.0744,0 -0.14745,0.03996 -0.11438,0.06063 -0.17639,0.136426 v 0.676616 q 0,0.124023 0.0165,0.16123 0.0179,0.03721 0.051,0.0565 0.0345,0.01791 0.13781,0.01791 v 0.04961 h -0.62425 v -0.04961 q 0.0868,0 0.12126,-0.01791 0.0345,-0.01929 0.0524,-0.05926 0.0179,-0.04134 0.0179,-0.158474 v -0.482313 q 0,-0.208084 -0.0124,-0.268717 -0.01,-0.04548 -0.0303,-0.06201 -0.0207,-0.01791 -0.0565,-0.01791 -0.0386,0 -0.0923,0.02067 l -0.0207,-0.04961 0.38033,-0.15434 h 0.0593 z"
         id="path22435" />
    </g>
    <path
       style="fill:none;stroke:#000000;stroke-width:0.3;stroke-linecap:round;stroke-linejoin:miter;stroke-dasharray:none;stroke-opacity:1;marker-end:url(#marker1512_Fnone_S-000000)"
       d="m 92.852869,56.154125 0.183643,-6.873493"
       id="path25771"
       inkscape:path-effect="#path-effect25773"
       inkscape:original-d="m 92.852869,56.154125 c -0.06033,-2.216875 0.244113,-4.656265 0.183643,-6.873493"
       sodipodi:nodetypes="cc" />
    <g
       aria-label="sr"
       id="text25889"
       style="font-size:3.52777px;line-height:1.25;font-family:'Times New Roman';-inkscape-font-specification:'Times New Roman, ';text-align:center;text-anchor:middle;stroke-width:0.264583">
      <path
         d="m 127.97897,52.670086 v 0.537434 h -0.0568 q -0.0655,-0.253214 -0.16881,-0.344509 -0.10163,-0.0913 -0.2601,-0.0913 -0.12058,0 -0.19465,0.06373 -0.0741,0.06373 -0.0741,0.141249 0,0.09646 0.0551,0.165364 0.0534,0.07062 0.21704,0.149861 l 0.2515,0.122301 q 0.34967,0.170532 0.34967,0.449584 0,0.215318 -0.16364,0.347954 -0.16192,0.130913 -0.36346,0.130913 -0.14469,0 -0.33072,-0.05168 -0.0568,-0.01722 -0.093,-0.01722 -0.0396,0 -0.062,0.04479 h -0.0568 v -0.563272 h 0.0568 q 0.0482,0.241156 0.18431,0.363457 0.13608,0.1223 0.30489,0.1223 0.11885,0 0.19292,-0.0689 0.0758,-0.07062 0.0758,-0.168809 0,-0.118855 -0.0844,-0.199815 -0.0827,-0.08096 -0.33245,-0.204983 -0.24977,-0.124023 -0.32728,-0.22393 -0.0775,-0.09819 -0.0775,-0.248047 0,-0.194647 0.13264,-0.325561 0.13436,-0.130913 0.34623,-0.130913 0.093,0 0.22565,0.03962 0.0878,0.02584 0.11714,0.02584 0.0276,0 0.0431,-0.01206 0.0155,-0.01206 0.0362,-0.0534 z"
         id="path25957" />
      <path
         d="m 128.59357,53.944166 v 0.230648 q 0.12876,-0.230648 0.26424,-0.230648 0.0616,0 0.10189,0.03807 0.0403,0.03695 0.0403,0.08621 0,0.04367 -0.0291,0.0739 -0.0291,0.03023 -0.0694,0.03023 -0.0392,0 -0.0885,-0.03807 -0.0481,-0.03919 -0.0717,-0.03919 -0.0201,0 -0.0437,0.02239 -0.0504,0.04591 -0.10413,0.151153 v 0.491528 q 0,0.08509 0.0213,0.12876 0.0146,0.03023 0.0515,0.05038 0.037,0.02015 0.10636,0.02015 v 0.04031 h -0.52511 v -0.04031 q 0.0784,0 0.11644,-0.02463 0.028,-0.01791 0.0392,-0.0571 0.006,-0.01903 0.006,-0.108607 v -0.397477 q 0,-0.179144 -0.008,-0.212734 -0.007,-0.03471 -0.0269,-0.05038 -0.019,-0.01568 -0.0481,-0.01568 -0.0347,0 -0.0784,0.01679 l -0.0112,-0.04031 0.31014,-0.125401 z"
         style="font-size:65%;baseline-shift:sub"
         id="path25959" />
    </g>
    <g
       aria-label="sr"
       id="text25889-6"
       style="font-size:3.52777px;line-height:1.25;font-family:'Times New Roman';-inkscape-font-specification:'Times New Roman, ';text-align:center;text-anchor:middle;stroke-width:0.264583">
      <path
         d="m 91.061753,51.375641 v 0.537434 h -0.05684 q -0.06546,-0.253214 -0.168809,-0.344509 -0.10163,-0.09129 -0.260104,-0.09129 -0.120578,0 -0.194648,0.06373 -0.07407,0.06373 -0.07407,0.141249 0,0.09646 0.05512,0.165364 0.0534,0.07062 0.217041,0.149861 l 0.251491,0.122301 q 0.349677,0.170532 0.349677,0.449584 0,0.215318 -0.163642,0.347954 -0.161919,0.130913 -0.363457,0.130913 -0.144693,0 -0.330728,-0.05168 -0.05684,-0.01723 -0.09302,-0.01723 -0.03962,0 -0.06201,0.04479 h -0.05684 V 52.46084 h 0.05684 q 0.04823,0.241156 0.184312,0.363457 0.136081,0.1223 0.30489,0.1223 0.118856,0 0.192925,-0.0689 0.07579,-0.07062 0.07579,-0.168809 0,-0.118855 -0.0844,-0.199815 -0.08268,-0.08096 -0.332451,-0.204983 -0.249769,-0.124023 -0.327284,-0.22393 -0.07751,-0.09819 -0.07751,-0.248047 0,-0.194647 0.132636,-0.325561 0.134358,-0.130913 0.346231,-0.130913 0.09302,0 0.225653,0.03962 0.08785,0.02584 0.117133,0.02584 0.02756,0 0.04306,-0.01206 0.0155,-0.01206 0.03617,-0.0534 z"
         id="path25962" />
      <path
         d="m 91.676357,52.649721 v 0.230648 q 0.12876,-0.230648 0.264238,-0.230648 0.06158,0 0.101889,0.03807 0.04031,0.03695 0.04031,0.08621 0,0.04367 -0.02911,0.0739 -0.02911,0.03023 -0.06942,0.03023 -0.03919,0 -0.08845,-0.03807 -0.04815,-0.03919 -0.07166,-0.03919 -0.02015,0 -0.04367,0.02239 -0.05039,0.04591 -0.104128,0.151153 v 0.491528 q 0,0.08509 0.02127,0.12876 0.01456,0.03023 0.0515,0.05039 0.03695,0.02015 0.106368,0.02015 v 0.04031 h -0.525118 v -0.04031 q 0.07838,0 0.116444,-0.02463 0.02799,-0.01791 0.03919,-0.0571 0.0056,-0.01903 0.0056,-0.108607 v -0.397477 q 0,-0.179144 -0.0078,-0.212734 -0.0067,-0.03471 -0.02687,-0.05038 -0.01903,-0.01568 -0.04815,-0.01568 -0.03471,0 -0.07838,0.01679 l -0.0112,-0.04031 0.310144,-0.125401 z"
         style="font-size:65%;baseline-shift:sub"
         id="path25964" />
    </g>
    <path
       style="fill:none;stroke:#000000;stroke-width:0.3;stroke-linecap:butt;stroke-linejoin:miter;stroke-dasharray:none;stroke-opacity:1;marker-end:url(#Arrow1L_Fnone_S-000000)"
       d="m 135,85 3,1"
       id="path497"
       inkscape:path-effect="#path-effect499"
       inkscape:original-d="m 135,85 c 1.00016,0.333597 2.00017,0.666928 3,1" />
  </g>
</svg>
