<svg xmlns="http://www.w3.org/2000/svg" width="614.4" height="460.8" viewBox="0 0 460.8 345.6" xmlns:v="https://vecta.io/nano"><style><![CDATA[.B{fill:#fff}.C{stroke-width:.8}.D{clip-path:url(#m)}.E{fill:none}.F{stroke:#fff}.G{stroke-width:.6}.H{stroke-dasharray:2.96,1.28}.I{stroke:#333}.J{stroke-linecap:square}.K{stroke:#555}.L{stroke-width:1.5}.M{stroke-dasharray:5.55,2.4}]]></style><path d="M0 345.6h460.8V0H0z" fill="#333"/><path d="M46.55 304.54H450V38.724H46.55z" fill="#1f2023"/><path d="M55.89 304.54V38.724" class="C D E J K"/><defs><path id="A" d="M0 0v3.5" class="C F"/></defs><g class="B"><use href="#A" x="55.89" y="304.54" class="C F"/><g transform="matrix(.1 0 0 -.1 53.390191 318.369687)"><defs><path id="B" d="M3046 2112q0-429-83-810-83-380-246-700-163-320-451-506-288-186-666-186-390 0-685 198-294 199-454 532-160 333-234 710-73 378-73 800 0 596 147 1072 147 477 489 790 343 314 836 314 627 0 1023-614 397-614 397-1600zm-614-32q0 1011-215 1545-214 535-630 535-397 0-608-538-211-537-211-1516 0-986 211-1508 211-521 621-521 403 0 617 521 215 522 215 1482z" transform="scale(.015625)"/></defs><use href="#B"/></g></g><g class="C"><path d="M102.862 304.54V38.724" class="D E J K"/><use href="#A" x="102.862" y="304.54" class="B F"/></g><g transform="matrix(.1 0 0 -.1 100.361587 318.369687)" class="B"><defs><path id="C" d="M2803 4358l-230-544q-39-83-173-83H1158l-256-544q704-134 1018-291 314-157 582-528 224-307 224-813 0-461-150-775-150-313-477-556Q1664-90 1011-90 646-90 422 19 198 128 198 307q0 243 288 243 231 0 474-198 250-205 454-205 333 0 598 333 266 333 266 749 0 614-428 960-557 448-1364 448-76 0-76 51l6 32 698 1517h1324q109 0 170 32 61 32 138 134l57-45z" transform="scale(.015625)"/></defs><use href="#C"/></g><g class="C"><path d="M149.833 304.54V38.724" class="D E J K"/><use href="#A" x="149.833" y="304.54" class="B F"/></g><g transform="matrix(.1 0 0 -.1 144.832984 318.369687)" class="B"><defs><path id="D" d="M2522 0H755v96q352 19 480 131 128 112 128 381v2874q0 313-192 313-89 0-288-77l-173-64v90l1146 582 58-19V486q0-211 128-301 128-89 480-89V0z" transform="scale(.015625)"/></defs><use href="#D"/><use href="#B" x="50"/></g><g class="C"><path d="M196.804 304.54V38.724" class="D E J K"/><use href="#A" x="196.804" y="304.54" class="B F"/></g><g transform="matrix(.1 0 0 -.1 191.804381 318.369687)" class="B"><use href="#D"/><use href="#C" x="50"/></g><g class="C"><path d="M243.776 304.54V38.724" class="D E J K"/><use href="#A" x="243.776" y="304.54" class="B F"/></g><g transform="matrix(.1 0 0 -.1 238.775777 318.369687)" class="B"><defs><path id="E" d="M3034 877L2688 0H186v77l1139 1209q448 468 640 858 192 390 192 806 0 429-237 666-237 237-653 237-345 0-547-180-202-179-394-652l-134 32q109 595 438 934 330 339 893 339 531 0 857-320 327-320 327-806 0-723-819-1587L832 486h1498q211 0 335 83 125 84 279 346l90-38z" transform="scale(.015625)"/></defs><use href="#E"/><use href="#B" x="50"/></g><g class="C"><path d="M290.747 304.54V38.724" class="D E J K"/><use href="#A" x="290.747" y="304.54" class="B F"/></g><g transform="matrix(.1 0 0 -.1 285.747174 318.369687)" class="B"><use href="#E"/><use href="#C" x="50"/></g><g class="C"><path d="M337.719 304.54V38.724" class="D E J K"/><use href="#A" x="337.719" y="304.54" class="B F"/></g><g transform="matrix(.1 0 0 -.1 332.71857 318.369687)" class="B"><defs><path id="F" d="M390 3264l-102 26q147 480 460 758 314 278 794 278 448 0 723-243 276-243 276-633 0-525-595-884 352-153 531-339 281-313 281-825 0-512-294-896-218-295-624-446Q1434-90 979-90q-717 0-717 365 0 103 77 167 77 64 186 64 160 0 390-167 282-198 551-198 352 0 592 284 240 285 240 695 0 736-666 928-198 64-653 64v90q359 121 538 230 518 294 518 858 0 320-183 486-182 166-508 166-576 0-954-678z" transform="scale(.015625)"/></defs><use href="#F"/><use href="#B" x="50"/></g><g class="C"><path d="M384.69 304.54V38.724" class="D E J K"/><use href="#A" x="384.69" y="304.54" class="B F"/></g><g transform="matrix(.1 0 0 -.1 379.689967 318.369687)" class="B"><use href="#F"/><use href="#C" x="50"/></g><g class="C"><path d="M431.661 304.54V38.724" class="D E J K"/><use href="#A" x="431.661" y="304.54" class="B F"/></g><g transform="matrix(.1 0 0 -.1 426.661364 318.369687)" class="B"><defs><path id="G" d="M3027 1069h-659V0h-499v1069H77v409l2009 2848h282V1478h659v-409zm-1158 409v2196L333 1478h1536z" transform="scale(.015625)"/></defs><use href="#G"/><use href="#B" x="50"/></g><path d="M65.284 304.54V38.724" class="C D E H I"/><defs><path id="H" d="M0 0v2" class="F G"/></defs><use href="#H" x="65.284" y="304.54" class="B F G"/><path d="M74.679 304.54V38.724" class="C D E H I"/><use href="#H" x="74.679" y="304.54" class="B F G"/><path d="M84.073 304.54V38.724" class="C D E H I"/><use href="#H" x="84.073" y="304.54" class="B F G"/><path d="M93.467 304.54V38.724" class="C D E H I"/><use href="#H" x="93.467" y="304.54" class="B F G"/><path d="M112.256 304.54V38.724" class="C D E H I"/><use href="#H" x="112.256" y="304.54" class="B F G"/><path d="M121.65 304.54V38.724" class="C D E H I"/><use href="#H" x="121.65" y="304.54" class="B F G"/><path d="M131.044 304.54V38.724" class="C D E H I"/><use href="#H" x="131.044" y="304.54" class="B F G"/><path d="M140.439 304.54V38.724" class="C D E H I"/><use href="#H" x="140.439" y="304.54" class="B F G"/><path d="M159.227 304.54V38.724" class="C D E H I"/><use href="#H" x="159.227" y="304.54" class="B F G"/><path d="M168.622 304.54V38.724" class="C D E H I"/><use href="#H" x="168.622" y="304.54" class="B F G"/><path d="M178.016 304.54V38.724" class="C D E H I"/><use href="#H" x="178.016" y="304.54" class="B F G"/><path d="M187.41 304.54V38.724" class="C D E H I"/><use href="#H" x="187.41" y="304.54" class="B F G"/><path d="M206.199 304.54V38.724" class="C D E H I"/><use href="#H" x="206.199" y="304.54" class="B F G"/><path d="M215.593 304.54V38.724" class="C D E H I"/><use href="#H" x="215.593" y="304.54" class="B F G"/><path d="M224.987 304.54V38.724" class="C D E H I"/><use href="#H" x="224.987" y="304.54" class="B F G"/><path d="M234.381 304.54V38.724" class="C D E H I"/><use href="#H" x="234.381" y="304.54" class="B F G"/><path d="M253.17 304.54V38.724" class="C D E H I"/><use href="#H" x="253.17" y="304.54" class="B F G"/><path d="M262.564 304.54V38.724" class="C D E H I"/><use href="#H" x="262.564" y="304.54" class="B F G"/><path d="M271.959 304.54V38.724" class="C D E H I"/><use href="#H" x="271.959" y="304.54" class="B F G"/><path d="M281.353 304.54V38.724" class="C D E H I"/><use href="#H" x="281.353" y="304.54" class="B F G"/><path d="M300.141 304.54V38.724" class="C D E H I"/><use href="#H" x="300.141" y="304.54" class="B F G"/><path d="M309.536 304.54V38.724" class="C D E H I"/><use href="#H" x="309.536" y="304.54" class="B F G"/><path d="M318.93 304.54V38.724" class="C D E H I"/><use href="#H" x="318.93" y="304.54" class="B F G"/><path d="M328.324 304.54V38.724" class="C D E H I"/><use href="#H" x="328.324" y="304.54" class="B F G"/><path d="M347.113 304.54V38.724" class="C D E H I"/><use href="#H" x="347.113" y="304.54" class="B F G"/><path d="M356.507 304.54V38.724" class="C D E H I"/><use href="#H" x="356.507" y="304.54" class="B F G"/><path d="M365.901 304.54V38.724" class="C D E H I"/><use href="#H" x="365.901" y="304.54" class="B F G"/><path d="M375.296 304.54V38.724" class="C D E H I"/><use href="#H" x="375.296" y="304.54" class="B F G"/><path d="M394.084 304.54V38.724" class="C D E H I"/><use href="#H" x="394.084" y="304.54" class="B F G"/><path d="M403.479 304.54V38.724" class="C D E H I"/><use href="#H" x="403.479" y="304.54" class="B F G"/><path d="M412.873 304.54V38.724" class="C D E H I"/><use href="#H" x="412.873" y="304.54" class="B F G"/><path d="M422.267 304.54V38.724" class="C D E H I"/><use href="#H" x="422.267" y="304.54" class="B F G"/><path d="M441.056 304.54V38.724" class="C D E H I"/><g class="B"><use href="#H" x="441.056" y="304.54" class="F G"/><g transform="matrix(.1 0 0 -.1 231.885156 331.369687)"><defs><path id="I" d="M2675 870L2579 0H173v96l1702 2592h-864q-301 0-407-106-105-105-150-457H339l26 755h2214v-96L858 192h851q537 0 678 173 90 109 173 531l115-26z" transform="scale(.015625)"/><path id="J" d="M1152 4045q0-141-96-234-96-93-237-93-134 0-227 93-93 93-93 234 0 134 96 230 96 96 231 96 140 0 233-96 93-96 93-230zM1619 0H102v96q333 19 419 115 87 96 87 455v1452q0 224-45 314-45 90-166 90-154 0-269-32v102l992 352 26-26V672q0-358 80-454 80-96 393-122V0z" transform="scale(.015625)"/><path id="K" d="M3104 0H1773l6 96q237 19 317 137 80 119 80 439v1274q0 646-467 646-160 0-301-77-141-77-358-288V461q0-192 86-269 86-77 330-96V0H115v96q243 19 320 118 77 100 77 388v1555q0 237-45 326-45 90-179 90-128 0-186-26v109q448 128 877 288l51-19v-499h7q454 518 921 518 365 0 560-256 196-256 196-730V544q0-256 76-339 77-83 314-109V0z" transform="scale(.015625)"/><path id="L" d="M4960 0H3565v96q269 26 342 112 74 86 74 368v1318q0 384-112 550-112 167-381 167-224 0-381-90-157-89-304-300V608q0-307 93-407 93-99 368-105V0H1830v96q282 19 359 92 77 74 77 362v1351q0 710-416 710-180 0-382-80-201-80-297-195-83-96-83-109V448q0-205 89-272 90-67 346-80V0H102v96q269 6 358 99 90 93 90 368v1587q0 237-51 330-51 93-173 93-96 0-204-26v109q435 122 889 288l51-19v-474h13q288 301 509 397 221 96 470 96 506 0 679-538 499 538 1043 538 742 0 742-1152V493q0-211 64-291 64-80 212-93l166-13V0z" transform="scale(.015625)"/></defs><use href="#I"/><use href="#Bu" x="44.4"/><use href="#J" x="69.4"/><use href="#K" x="97.2"/><use href="#Bu" x="147.2"/><use href="#L" x="172.2"/><use href="#L" x="250"/></g></g><path d="M46.55 293.389H450" class="C D E J K"/><defs><path id="M" d="M0 0h-3.5" class="C F"/></defs><g class="B"><use href="#M" x="46.55" y="293.389" class="C F"/><use href="#B" transform="matrix(.1 0 0 -.1 34.55 296.803942)"/></g><g class="C"><path d="M46.55 262.31H450" class="D E J K"/><use href="#M" x="46.55" y="262.31" class="B F"/></g><g transform="matrix(.1 0 0 -.1 29.55 265.725034)" class="B"><use href="#C"/><use href="#B" x="50"/></g><g class="C"><path d="M46.55 231.231H450" class="D E J K"/><use href="#M" x="46.55" y="231.231" class="B F"/></g><g transform="matrix(.1 0 0 -.1 24.55 234.646126)" class="B"><use href="#D"/><use href="#B" x="50"/><use href="#B" x="100"/></g><g class="C"><path d="M46.55 200.152H450" class="D E J K"/><use href="#M" x="46.55" y="200.152" class="B F"/></g><g transform="matrix(.1 0 0 -.1 24.55 203.567218)" class="B"><use href="#D"/><use href="#C" x="50"/><use href="#B" x="100"/></g><g class="C"><path d="M46.55 169.073H450" class="D E J K"/><use href="#M" x="46.55" y="169.073" class="B F"/></g><g transform="matrix(.1 0 0 -.1 24.55 172.488311)" class="B"><use href="#E"/><use href="#B" x="50"/><use href="#B" x="100"/></g><g class="C"><path d="M46.55 137.995H450" class="D E J K"/><use href="#M" x="46.55" y="137.995" class="B F"/></g><g transform="matrix(.1 0 0 -.1 24.55 141.409403)" class="B"><use href="#E"/><use href="#C" x="50"/><use href="#B" x="100"/></g><g class="C"><path d="M46.55 106.916H450" class="D E J K"/><use href="#M" x="46.55" y="106.916" class="B F"/></g><g transform="matrix(.1 0 0 -.1 24.55 110.330495)" class="B"><use href="#F"/><use href="#B" x="50"/><use href="#B" x="100"/></g><g class="C"><path d="M46.55 75.837H450" class="D E J K"/><use href="#M" x="46.55" y="75.837" class="B F"/></g><g transform="matrix(.1 0 0 -.1 24.55 79.251587)" class="B"><use href="#F"/><use href="#C" x="50"/><use href="#B" x="100"/></g><g class="C"><path d="M46.55 44.758H450" class="D E J K"/><use href="#M" x="46.55" y="44.758" class="B F"/></g><g transform="matrix(.1 0 0 -.1 24.55 48.172679)" class="B"><use href="#G"/><use href="#B" x="50"/><use href="#B" x="100"/></g><path d="M46.55 299.605H450" class="C D E H I"/><defs><path id="N" d="M0 0h-2" class="F G"/></defs><use href="#N" x="46.55" y="299.605" class="B F G"/><path d="M46.55 287.173H450" class="C D E H I"/><use href="#N" x="46.55" y="287.173" class="B F G"/><path d="M46.55 280.958H450" class="C D E H I"/><use href="#N" x="46.55" y="280.958" class="B F G"/><path d="M46.55 274.742H450" class="C D E H I"/><use href="#N" x="46.55" y="274.742" class="B F G"/><path d="M46.55 268.526H450" class="C D E H I"/><use href="#N" x="46.55" y="268.526" class="B F G"/><path d="M46.55 256.094H450" class="C D E H I"/><use href="#N" x="46.55" y="256.094" class="B F G"/><path d="M46.55 249.879H450" class="C D E H I"/><use href="#N" x="46.55" y="249.879" class="B F G"/><path d="M46.55 243.663H450" class="C D E H I"/><use href="#N" x="46.55" y="243.663" class="B F G"/><path d="M46.55 237.447H450" class="C D E H I"/><use href="#N" x="46.55" y="237.447" class="B F G"/><path d="M46.55 225.016H450" class="C D E H I"/><use href="#N" x="46.55" y="225.016" class="B F G"/><path d="M46.55 218.8H450" class="C D E H I"/><use href="#N" x="46.55" y="218.8" class="B F G"/><path d="M46.55 212.584H450" class="C D E H I"/><use href="#N" x="46.55" y="212.584" class="B F G"/><path d="M46.55 206.368H450" class="C D E H I"/><use href="#N" x="46.55" y="206.368" class="B F G"/><path d="M46.55 193.937H450" class="C D E H I"/><use href="#N" x="46.55" y="193.937" class="B F G"/><path d="M46.55 187.721H450" class="C D E H I"/><use href="#N" x="46.55" y="187.721" class="B F G"/><path d="M46.55 181.505H450" class="C D E H I"/><use href="#N" x="46.55" y="181.505" class="B F G"/><path d="M46.55 175.289H450" class="C D E H I"/><use href="#N" x="46.55" y="175.289" class="B F G"/><path d="M46.55 162.858H450" class="C D E H I"/><use href="#N" x="46.55" y="162.858" class="B F G"/><path d="M46.55 156.642H450" class="C D E H I"/><use href="#N" x="46.55" y="156.642" class="B F G"/><path d="M46.55 150.426H450" class="C D E H I"/><use href="#N" x="46.55" y="150.426" class="B F G"/><path d="M46.55 144.21H450" class="C D E H I"/><use href="#N" x="46.55" y="144.21" class="B F G"/><path d="M46.55 131.779H450" class="C D E H I"/><use href="#N" x="46.55" y="131.779" class="B F G"/><path d="M46.55 125.563H450" class="C D E H I"/><use href="#N" x="46.55" y="125.563" class="B F G"/><path d="M46.55 119.347H450" class="C D E H I"/><use href="#N" x="46.55" y="119.347" class="B F G"/><path d="M46.55 113.131H450" class="C D E H I"/><use href="#N" x="46.55" y="113.131" class="B F G"/><path d="M46.55 100.7H450" class="C D E H I"/><use href="#N" x="46.55" y="100.7" class="B F G"/><path d="M46.55 94.484H450" class="C D E H I"/><use href="#N" x="46.55" y="94.484" class="B F G"/><path d="M46.55 88.268H450" class="C D E H I"/><use href="#N" x="46.55" y="88.268" class="B F G"/><path d="M46.55 82.053H450" class="C D E H I"/><use href="#N" x="46.55" y="82.053" class="B F G"/><path d="M46.55 69.621H450" class="C D E H I"/><use href="#N" x="46.55" y="69.621" class="B F G"/><path d="M46.55 63.405H450" class="C D E H I"/><use href="#N" x="46.55" y="63.405" class="B F G"/><path d="M46.55 57.189H450" class="C D E H I"/><use href="#N" x="46.55" y="57.189" class="B F G"/><path d="M46.55 50.974H450" class="C D E H I"/><g class="B"><use href="#N" x="46.55" y="50.974" class="F G"/><g transform="matrix(0 -.1 -.1 0 18.379688 179.687469)"><defs><path id="O" d="M2547 998l90-57q-275-538-525-736-326-269-736-269-531 0-874 400-342 400-342 1021 0 813 538 1261 396 326 864 326 403 0 694-195 291-195 291-464 0-109-90-189-89-80-211-80-224 0-307 294l-38 141q-51 179-128 243-77 64-250 64-390 0-630-307-240-307-240-806 0-551 275-900 275-348 717-348 275 0 473 131 199 131 429 470z" transform="scale(.015625)"/><path id="P" d="M3008 1478q0-672-400-1107Q2208-64 1568-64q-589 0-986 432-396 432-396 1091 0 666 396 1075 397 410 1044 410 595 0 988-407 394-406 394-1059zm-576-172q0 729-320 1139-256 320-608 320-333 0-538-272-204-272-204-746 0-819 339-1312 217-320 576-320 352 0 553 317 202 317 202 874z" transform="scale(.015625)"/><path id="Q" d="M998 1926l666-403q320-192 441-359 122-166 122-428 0-320-266-560-265-240-630-240-301 0-467 58-173 57-294 57-109 0-154-77h-83V979h102q103-467 295-685Q922 77 1248 77q237 0 384 134 147 135 147 339 0 295-339 480l-346 192q-768 429-768 928 0 372 240 580 240 208 644 208 281 0 428-71 116-51 180-51 44 0 102 64h70l32-870h-96q-108 435-272 611-163 176-451 176-217 0-349-109-131-109-131-326 0-109 73-234 74-125 202-202z" transform="scale(.015625)"/><path id="R" d="M1702 493l84-71Q1478-64 1011-64q-563 0-563 813v1926H109q-26 19-26 45 0 51 109 122 243 140 621 684 13 20 61 80 48 61 67 100 45 0 45-84v-742h646v-205H986V845q0-307 76-442 77-134 256-134 192 0 384 224z" transform="scale(.015625)"/></defs><use href="#O"/><use href="#P" x="44.4"/><use href="#Q" x="94.4"/><use href="#R" x="133.3"/></g></g><path d="M64.889 103.315l.717 1.115.359-.083.359.222.359.057.359.498.359.117.359.361.359-.359.359.423.359.229.359-.161.359.268.359 1.378.359.199.359.699.359-.746.359-.131.359.543.359.053.717 1.101.359-.634.359.171.359.392.359-.521.359-.046.359-.283.359.547.359-.203.359-.014.359-.672.359.131.359-.131.717-.976.359-.2.359-.812.359-.221.359-.664.717.098.359-.573.359-.219.359-.456.359-.844.359-.423.717-1.899.359.171.359-.772 1.076-3.564.359.406.359-.761.359-1.118.359-.558.359-2.225.359-.866.359 1.068.359-.201.717-1.584.359-1.136.359-1.637.359-1.078.359-.155.359-1.49.359 1.218.717-4.528.359-.697.359-1.779.359-.126.717-.866.359-1.169.359-.456.359-.237.359 1.237.359 1.757.359-.194.359-1.828.359.294.359-1.907.359-.291.717-2.355.359.374.359-.254.359.389.359.119.359-.826.359.51.359 1.463.359.808.359.081.359.53.717 2.777.359-.258.359.611.359-.732.359 1.987.359.191.359 1.397.359.54.359 2.727.359.056.359 1.111.359-.552.359 1.315.359 3.311.717 1.509.359.609.717-.475 1.076 2.507.359-1.741 1.434-3.096.359-1.366.359-2.716.359-1.141.359-1.971.359-.973.359-.221.359-1.586.359-.809.359-1.2.359.248.359-2.825.359-.24.717-3.884.359-.083.717-.448.359.613.359-1.132.359.234.359-.302.359-3.235.359 1.38.359.255.359-.423.359-.622.359 1.359.359-1.26.359.173.359-.68 1.076-.419.359-.617.359-1.022.359.788.359-.387.359.335.359-.215.359.491.359.778.359 3.221.359.128.359 4.272.359-.874.359.474.359-.173.359-2.076.359-.662.359 1.515.359-1.819.359-.519.717 1.016.359-.243.717-3.109.359-.418.359.081.717-4.987h.359l.717-7.062.359.895.717-4.733.359-1.206.359.89.359 2.208.359 4.491.359 2.494.359.998.359 6.407.359 2 .359 5.3.359 2.751.359.076.359 2.861.359-1.538.359-2.725.717 2.017.359-1.384.359-.026.359.544.359 2.888.359.255.359 1.73.717 7.433.717 8.743.717 9.545.717 9.119.359 1.714.359 3.42.717 8.52 1.434 12.676 1.434 9.195.359 2.659.359 1.064.359 2.493.359 1.067.359.253.717-.23.359-1.511.359-2.03.717-5.903.717-6.759.359-3.355.359-1.178.359-2.235.359-.445.359.726.359-.999.359-.086.359.256.359-.108.717-1.171.359-2.99.717-2.234.359-2.661.359-.699.359-.19.359.141.359-.62.359-.2.717-1.668 1.076-7.071.359.16.359-2.539.359 1.997.359.021.359-.156.717-3.593 1.076-3.415.359-2.419.717-2.756.359 1.564.717-4.017.359-.181.359-2.006.359-2.872.359-1.479.359-.572.359-1.776.359 3.424.359-2.239.359-3.281.359-1.093.359-2.284.359-.817.359-1.709.359 1.111.717-2.676.359-1.159.359-5.305.359 1.726.359-.29.359-2.841.359-1.58.359-1.011.359-4.66.359-.546.359.001.359-.192.359-2.799.359-5.516.359 2.218.359.498.359 3.282.359 67.096.359-6.005.359-11.979.359 14.393.359-8.412.359 7.344.359-5.576.359-12.024.359 4.377.359.173.359 2.705.359-3.425.359.783.359-5.29.359-7.282.359-4.283.359 25.202.359 1.85.717 29.563.359 4.771.717 15.505 2.151 38.763.717 6.265.717 11.483.359 2.518.359 6.296.359 3.92.359 1.56.359 7.432.359-2.56.359 4.671.359-.21.359.61.359 3.442.359 6.653.717 6.211.359 6.531.359 2.639.359-.855.359 1.282.359 3.585.359 1.332.359.234.359.482.717 2.491.359 2.134.359.117 1.793-.069.359-.183.359-.409.359-.628.359-.951.359-1.484 1.434-8.317.359-1.144.359-1.591.359-2.587.717-7.701.359-1.858.359.995.359 1.987.359 1.302.359-.354.359-1.851.359-3.212.717-8.952.359-1.896.359-.352.359-.163.359-.037 1.076 1.548.359-.356.717-3.25.717-4.184.359-.566.359-1.466.359-.963 1.076-6.532.359-3.097.717-3.343.359-.623.717 4.201.359 2.933.359 1.63.359.552.359-.534.359-.734 1.434-6.768 1.076-8.043.359-3.334 1.434-8.227.717.961.717 4.32 1.076 3.534.717 2.707.717.648.359.014.359-1.065.359-1.726.359-1.133.359-1.616.359-3.065.359-1.219.359-2.057.717-1.579.359-1.658.717-1.079.717-1.936.359-.341.717-1.358.359-.215.359-1.139.359-.406.359-.682.717-.396.717-1.809.359.278.359-.156.359-.476.717-2.728.359-.29.359.082.359-.582.359.109.359.519.359-.082.717.739.717.168.359.744.359 1.141 1.076.652.717 1.039.359.54.359-.694.359.525.359-.143.359.041.717-.629 1.076-.503.359-.192.359-.46.359-1.162.359-.44.359-.752.359-.234.359-1.684.359-.516.359-.83.359-.143 1.076-4.023.359-.72.359-1.055.359-2.346.359.008.359-.207.359-1.676.359-.297.359-.77 1.793-6.716.359-.044.359-.659.717-2.603.359-.376.717-1.815.359-.03.717 1.712.359-.176.359.322.359-.032.359-.644.359-.264.717.872 1.076 1.739.717 2.125.359.518.717 1.81.359.524.359.952.359.151 1.434 2.339.359.182.359.402.359.988.359.256.359.659.359.325.359.787 1.076 1.314.717.703.359.23.359.491.359-.279.359.757.359.046.359-.921.359-.604.359-.352.359-.002.359-.629.359-.31.359.217.359-.171.359-.619.359-.018.359-1.109.359-.729 1.076-1.057.717-1.279.359-1.126.359-.059.359-.712.717-2.021.359-.193.359-.366.359-.066.359-.824.717-2.494.359-.737.359-1.222.717-1.062.359-.684.359-.442.717-1.483.359-.202.359-.841.717-.016.359-.429.359.047.359-1.464.359-.405.359-.179.359-.739.717-.211.359-.624.717.049.359-.873 1.434-1.757.359.365.359-.326.359-.807.359.053.359.317.359-.128.359-.289.717.874.359-.68.359-.364.359.407.717.193.717-.298.717.417.359-.141.359.236.359-.24.359.035.359.289.359.604.359-.193.359-.395.359-.607.717.592.359-.027.359-.544.717.543.359.058.359-.351.359-.105.359-.51.359.467.359-.002.359.138.359.387.359-.448.359-.174.359.241.359.009.359-.545.359-.284.359-.001.359-.152.717.452.717-.394.359.898.359.164.359.309.359.477.359.01.717-.386.359.369.359.036.717-.508.359-.047.359-.447.359-.771.717-.361.359.337.359.555.359-.583.359.56.717-.289.359-.206.717.27 1.076.032.359-.254.359-.115.359.364.717.333.359.252.359-.302.717-.838.359-.4.359.349.359-.15.359.078.359.663.359-.184.717.281.359.777.359.228.717-.335.359.684.359-.424.359-.219.359.071 1.434 1.405 1.076-.23.359.146.359.527.359-.304.359-.593.359-.083.717.879.359.41 1.434-1.241.359.229.359-.422.717.713.359.58.717-.305.359-.202.359-.399.359.272.359-.169.359.047.359-.297.359.185.359.375.359.199.717-.164.359-.27.359-.082 1.076.779.359-.492.717.253.359.428.359-.005.717.321.359-.205.359.024.359.587 1.076.414.359.411.359-.003.359.314.359.071.717-.483.717-.257.717-.271.359.217.359-.435.717-.563.359-.465.359-.064.359-.369.717.099 1.076.237.359-.351.717-.098.359-.277.359.051.359-.461.359-.236.359-.067.359.085.359-.096.359-.371.359.065.359-.156 1.076.073.359-.009.359.65.359-.425.359.248.717-.221.359.088.359-.225.717.61.717-.467.359.211.717-.479.359-.025.359-.487.717-.403.359.326.359-.336.717-.172.359.205.359.056.717-.124.359-.288.717-.055.717-.446.359.344.359.143.359-.255.717-.122.717.16.359-.388.359.174.717-.297.359-.472.717.689.359-.151.359.118.359-.093.359.288.717-.26.359-.073.359.094.359-.303.717-.18.359.285.359-.102.359.289.717-.251.359.048 1.076-.618.359.237.359-.117.717.105.359-.037.717.147.359-.237.359.04.359-.441.359-.243.359-.024.717.45.359-.282.359-.037.359-.435.359-.177.359.116.359-.194.359.422 1.076-.513.359-.139.717.249.359-.207.359-.392 1.076.083.359-.101.717.206 1.434-.23.359.114.717-.467.359-.396.717.15.359.075.359.201.717-.007.359-.039.359.131.359-.055.717.071 1.076-.328.359.053.359.446.359.114 1.076-.737.717.284.359-.494.717.026.359-.227.717.278 1.076-.17.717.104.359.01.359-.314.717-.192 1.076-.092.717.399.359-.313.717-.217.717-.091.359-.363.359-.12.359.442.359.073.359.247.717-.127.359.213.717-.201 1.076.471.359-.002.717-.274 1.076-.086" stroke="#8dd3c7" class="D E J L"/><defs><path id="S" d="M0 1.5a1.5 1.5 0 0 0 1.061-.439A1.5 1.5 0 0 0 1.5 0a1.5 1.5 0 0 0-.439-1.061A1.5 1.5 0 0 0 0-1.5a1.5 1.5 0 0 0-1.061.439A1.5 1.5 0 0 0-1.5 0a1.5 1.5 0 0 0 .439 1.061A1.5 1.5 0 0 0 0 1.5z" stroke="red"/></defs><g fill="red" stroke="red" class="D"><use href="#S" x="64.889" y="103.315"/><use href="#S" x="65.247" y="103.964"/><use href="#S" x="65.606" y="104.43"/><use href="#S" x="65.964" y="104.347"/><use href="#S" x="66.323" y="104.57"/><use href="#S" x="66.681" y="104.627"/><use href="#S" x="67.04" y="105.125"/><use href="#S" x="67.398" y="105.242"/><use href="#S" x="67.757" y="105.603"/><use href="#S" x="68.115" y="105.244"/><use href="#S" x="68.474" y="105.667"/><use href="#S" x="68.832" y="105.895"/><use href="#S" x="69.191" y="105.735"/><use href="#S" x="69.549" y="106.002"/><use href="#S" x="69.908" y="107.381"/><use href="#S" x="70.267" y="107.58"/><use href="#S" x="70.625" y="108.279"/><use href="#S" x="70.984" y="107.533"/><use href="#S" x="71.342" y="107.402"/><use href="#S" x="71.701" y="107.945"/><use href="#S" x="72.059" y="107.998"/><use href="#S" x="72.418" y="108.516"/><use href="#S" x="72.776" y="109.099"/><use href="#S" x="73.135" y="108.464"/><use href="#S" x="73.493" y="108.635"/><use href="#S" x="73.852" y="109.028"/><use href="#S" x="74.21" y="108.507"/><use href="#S" x="74.569" y="108.461"/><use href="#S" x="74.927" y="108.178"/><use href="#S" x="75.286" y="108.725"/><use href="#S" x="75.644" y="108.523"/><use href="#S" x="76.003" y="108.508"/><use href="#S" x="76.361" y="107.837"/><use href="#S" x="76.72" y="107.968"/><use href="#S" x="77.079" y="107.837"/><use href="#S" x="77.437" y="107.25"/><use href="#S" x="77.796" y="106.861"/><use href="#S" x="78.154" y="106.661"/><use href="#S" x="78.513" y="105.849"/><use href="#S" x="78.871" y="105.628"/><use href="#S" x="79.23" y="104.964"/><use href="#S" x="79.588" y="104.965"/><use href="#S" x="79.947" y="105.061"/><use href="#S" x="80.305" y="104.489"/><use href="#S" x="80.664" y="104.269"/><use href="#S" x="81.022" y="103.813"/><use href="#S" x="81.381" y="102.97"/><use href="#S" x="81.739" y="102.546"/><use href="#S" x="82.098" y="101.671"/><use href="#S" x="82.456" y="100.647"/><use href="#S" x="82.815" y="100.818"/><use href="#S" x="83.173" y="100.046"/><use href="#S" x="83.532" y="98.918"/><use href="#S" x="83.891" y="98.094"/><use href="#S" x="84.249" y="96.482"/><use href="#S" x="84.608" y="96.888"/><use href="#S" x="84.966" y="96.127"/><use href="#S" x="85.325" y="95.009"/><use href="#S" x="85.683" y="94.451"/><use href="#S" x="86.042" y="92.226"/><use href="#S" x="86.4" y="91.36"/><use href="#S" x="86.759" y="92.427"/><use href="#S" x="87.117" y="92.226"/><use href="#S" x="87.476" y="91.443"/><use href="#S" x="87.834" y="90.642"/><use href="#S" x="88.193" y="89.506"/><use href="#S" x="88.551" y="87.869"/><use href="#S" x="88.91" y="86.791"/><use href="#S" x="89.268" y="86.635"/><use href="#S" x="89.627" y="85.145"/><use href="#S" x="89.985" y="86.363"/><use href="#S" x="90.344" y="84.323"/><use href="#S" x="90.703" y="81.835"/><use href="#S" x="91.061" y="81.138"/><use href="#S" x="91.42" y="79.359"/><use href="#S" x="91.778" y="79.233"/><use href="#S" x="92.137" y="78.791"/><use href="#S" x="92.495" y="78.367"/><use href="#S" x="92.854" y="77.199"/><use href="#S" x="93.212" y="76.742"/><use href="#S" x="93.571" y="76.506"/><use href="#S" x="93.929" y="77.743"/><use href="#S" x="94.288" y="79.5"/><use href="#S" x="94.646" y="79.306"/><use href="#S" x="95.005" y="77.478"/><use href="#S" x="95.363" y="77.772"/><use href="#S" x="95.722" y="75.865"/><use href="#S" x="96.08" y="75.575"/><use href="#S" x="96.439" y="74.506"/><use href="#S" x="96.798" y="73.219"/><use href="#S" x="97.156" y="73.593"/><use href="#S" x="97.515" y="73.339"/><use href="#S" x="97.873" y="73.728"/><use href="#S" x="98.232" y="73.847"/><use href="#S" x="98.59" y="73.021"/><use href="#S" x="98.949" y="73.531"/><use href="#S" x="99.307" y="74.994"/><use href="#S" x="99.666" y="75.802"/><use href="#S" x="100.024" y="75.883"/><use href="#S" x="100.383" y="76.414"/><use href="#S" x="100.741" y="77.632"/><use href="#S" x="101.1" y="79.191"/><use href="#S" x="101.458" y="78.932"/><use href="#S" x="101.817" y="79.543"/><use href="#S" x="102.175" y="78.811"/><use href="#S" x="102.534" y="80.798"/><use href="#S" x="102.892" y="80.989"/><use href="#S" x="103.251" y="82.386"/><use href="#S" x="103.61" y="82.926"/><use href="#S" x="103.968" y="85.654"/><use href="#S" x="104.327" y="85.71"/><use href="#S" x="104.685" y="86.821"/><use href="#S" x="105.044" y="86.269"/><use href="#S" x="105.402" y="87.583"/><use href="#S" x="105.761" y="90.894"/><use href="#S" x="106.119" y="91.783"/><use href="#S" x="106.478" y="92.402"/><use href="#S" x="106.836" y="93.011"/><use href="#S" x="107.195" y="92.732"/><use href="#S" x="107.553" y="92.536"/><use href="#S" x="107.912" y="93.468"/><use href="#S" x="108.27" y="94.425"/><use href="#S" x="108.629" y="95.042"/><use href="#S" x="108.987" y="93.301"/><use href="#S" x="109.346" y="92.476"/><use href="#S" x="109.704" y="91.884"/><use href="#S" x="110.063" y="90.9"/><use href="#S" x="110.422" y="90.205"/><use href="#S" x="110.78" y="88.839"/><use href="#S" x="111.139" y="86.124"/><use href="#S" x="111.497" y="84.983"/><use href="#S" x="111.856" y="83.012"/><use href="#S" x="112.214" y="82.039"/><use href="#S" x="112.573" y="81.817"/><use href="#S" x="112.931" y="80.231"/><use href="#S" x="113.29" y="79.422"/><use href="#S" x="113.648" y="78.222"/><use href="#S" x="114.007" y="78.47"/><use href="#S" x="114.365" y="75.645"/><use href="#S" x="114.724" y="75.405"/><use href="#S" x="115.082" y="73.369"/><use href="#S" x="115.441" y="71.52"/><use href="#S" x="115.799" y="71.437"/><use href="#S" x="116.158" y="71.193"/><use href="#S" x="116.516" y="70.989"/><use href="#S" x="116.875" y="71.602"/><use href="#S" x="117.234" y="70.47"/><use href="#S" x="117.592" y="70.704"/><use href="#S" x="117.951" y="70.402"/><use href="#S" x="118.309" y="67.167"/><use href="#S" x="118.668" y="68.547"/><use href="#S" x="119.026" y="68.802"/><use href="#S" x="119.385" y="68.379"/><use href="#S" x="119.743" y="67.758"/><use href="#S" x="120.102" y="69.117"/><use href="#S" x="120.46" y="67.857"/><use href="#S" x="120.819" y="68.029"/><use href="#S" x="121.177" y="67.349"/><use href="#S" x="121.536" y="67.183"/><use href="#S" x="121.894" y="67.1"/><use href="#S" x="122.253" y="66.93"/><use href="#S" x="122.611" y="66.314"/><use href="#S" x="122.97" y="65.291"/><use href="#S" x="123.328" y="66.08"/><use href="#S" x="123.687" y="65.693"/><use href="#S" x="124.046" y="66.028"/><use href="#S" x="124.404" y="65.813"/><use href="#S" x="124.763" y="66.304"/><use href="#S" x="125.121" y="67.082"/><use href="#S" x="125.48" y="70.303"/><use href="#S" x="125.838" y="70.432"/><use href="#S" x="126.197" y="74.704"/><use href="#S" x="126.555" y="73.83"/><use href="#S" x="126.914" y="74.305"/><use href="#S" x="127.272" y="74.132"/><use href="#S" x="127.631" y="72.056"/><use href="#S" x="127.989" y="71.394"/><use href="#S" x="128.348" y="72.909"/><use href="#S" x="128.706" y="71.09"/><use href="#S" x="129.065" y="70.571"/><use href="#S" x="129.423" y="71.137"/><use href="#S" x="129.782" y="71.587"/><use href="#S" x="130.14" y="71.345"/><use href="#S" x="130.499" y="69.954"/><use href="#S" x="130.858" y="68.235"/><use href="#S" x="131.216" y="67.817"/><use href="#S" x="131.575" y="67.898"/><use href="#S" x="131.933" y="65.358"/><use href="#S" x="132.292" y="62.911"/><use href="#S" x="132.65" y="62.911"/><use href="#S" x="133.009" y="59.793"/><use href="#S" x="133.367" y="55.85"/><use href="#S" x="133.726" y="56.745"/><use href="#S" x="134.084" y="54.334"/><use href="#S" x="134.443" y="52.012"/><use href="#S" x="134.801" y="50.807"/><use href="#S" x="135.16" y="51.697"/><use href="#S" x="135.518" y="53.904"/><use href="#S" x="135.877" y="58.395"/><use href="#S" x="136.235" y="60.889"/><use href="#S" x="136.594" y="61.887"/><use href="#S" x="136.952" y="68.293"/><use href="#S" x="137.311" y="70.294"/><use href="#S" x="137.67" y="75.594"/><use href="#S" x="138.028" y="78.345"/><use href="#S" x="138.387" y="78.42"/><use href="#S" x="138.745" y="81.281"/><use href="#S" x="139.104" y="79.743"/><use href="#S" x="139.462" y="77.018"/><use href="#S" x="139.821" y="77.972"/><use href="#S" x="140.179" y="79.034"/><use href="#S" x="140.538" y="77.651"/><use href="#S" x="140.896" y="77.624"/><use href="#S" x="141.255" y="78.169"/><use href="#S" x="141.613" y="81.057"/><use href="#S" x="141.972" y="81.312"/><use href="#S" x="142.33" y="83.042"/><use href="#S" x="142.689" y="86.423"/><use href="#S" x="143.047" y="90.475"/><use href="#S" x="143.406" y="94.283"/><use href="#S" x="143.764" y="99.218"/><use href="#S" x="144.123" y="104.677"/><use href="#S" x="144.482" y="108.763"/><use href="#S" x="144.84" y="113.406"/><use href="#S" x="145.199" y="117.882"/><use href="#S" x="145.557" y="119.596"/><use href="#S" x="145.916" y="123.016"/><use href="#S" x="146.274" y="127.593"/><use href="#S" x="146.633" y="131.537"/><use href="#S" x="146.991" y="134.765"/><use href="#S" x="147.35" y="137.752"/><use href="#S" x="147.708" y="141.092"/><use href="#S" x="148.067" y="144.213"/><use href="#S" x="148.425" y="146.427"/><use href="#S" x="148.784" y="148.238"/><use href="#S" x="149.142" y="151.068"/><use href="#S" x="149.501" y="153.408"/><use href="#S" x="149.859" y="156.068"/><use href="#S" x="150.218" y="157.132"/><use href="#S" x="150.576" y="159.625"/><use href="#S" x="150.935" y="160.691"/><use href="#S" x="151.294" y="160.944"/><use href="#S" x="151.652" y="160.812"/><use href="#S" x="152.011" y="160.714"/><use href="#S" x="152.369" y="159.202"/><use href="#S" x="152.728" y="157.173"/><use href="#S" x="153.086" y="154.305"/><use href="#S" x="153.445" y="151.27"/><use href="#S" x="153.803" y="147.283"/><use href="#S" x="154.162" y="144.511"/><use href="#S" x="154.52" y="141.156"/><use href="#S" x="154.879" y="139.978"/><use href="#S" x="155.237" y="137.743"/><use href="#S" x="155.596" y="137.298"/><use href="#S" x="155.954" y="138.024"/><use href="#S" x="156.313" y="137.026"/><use href="#S" x="156.671" y="136.939"/><use href="#S" x="157.03" y="137.195"/><use href="#S" x="157.389" y="137.087"/><use href="#S" x="157.747" y="136.47"/><use href="#S" x="158.106" y="135.917"/><use href="#S" x="158.464" y="132.927"/><use href="#S" x="158.823" y="131.728"/><use href="#S" x="159.181" y="130.693"/><use href="#S" x="159.54" y="128.032"/><use href="#S" x="159.898" y="127.333"/><use href="#S" x="160.257" y="127.143"/><use href="#S" x="160.615" y="127.283"/><use href="#S" x="160.974" y="126.663"/><use href="#S" x="161.332" y="126.464"/><use href="#S" x="161.691" y="125.522"/><use href="#S" x="162.049" y="124.796"/><use href="#S" x="162.408" y="122.623"/><use href="#S" x="162.766" y="119.883"/><use href="#S" x="163.125" y="117.725"/><use href="#S" x="163.483" y="117.885"/><use href="#S" x="163.842" y="115.346"/><use href="#S" x="164.201" y="117.343"/><use href="#S" x="164.559" y="117.364"/><use href="#S" x="164.918" y="117.208"/><use href="#S" x="165.276" y="115.146"/><use href="#S" x="165.635" y="113.615"/><use href="#S" x="165.993" y="112.504"/><use href="#S" x="166.352" y="111.227"/><use href="#S" x="166.71" y="110.201"/><use href="#S" x="167.069" y="107.782"/><use href="#S" x="167.427" y="106.231"/><use href="#S" x="167.786" y="105.026"/><use href="#S" x="168.144" y="106.59"/><use href="#S" x="168.503" y="104.693"/><use href="#S" x="168.861" y="102.573"/><use href="#S" x="169.22" y="102.392"/><use href="#S" x="169.578" y="100.386"/><use href="#S" x="169.937" y="97.514"/><use href="#S" x="170.295" y="96.036"/><use href="#S" x="170.654" y="95.464"/><use href="#S" x="171.013" y="93.688"/><use href="#S" x="171.371" y="97.112"/><use href="#S" x="171.73" y="94.873"/><use href="#S" x="172.088" y="91.592"/><use href="#S" x="172.447" y="90.499"/><use href="#S" x="172.805" y="88.215"/><use href="#S" x="173.164" y="87.398"/><use href="#S" x="173.522" y="85.689"/><use href="#S" x="173.881" y="86.8"/><use href="#S" x="174.239" y="85.311"/><use href="#S" x="174.598" y="84.124"/><use href="#S" x="174.956" y="82.965"/><use href="#S" x="175.315" y="77.66"/><use href="#S" x="175.673" y="79.386"/><use href="#S" x="176.032" y="79.096"/><use href="#S" x="176.39" y="76.255"/><use href="#S" x="176.749" y="74.675"/><use href="#S" x="177.107" y="73.664"/><use href="#S" x="177.466" y="69.003"/><use href="#S" x="177.825" y="68.458"/><use href="#S" x="178.183" y="68.459"/><use href="#S" x="178.542" y="68.266"/><use href="#S" x="178.9" y="65.468"/><use href="#S" x="179.259" y="59.951"/><use href="#S" x="179.617" y="62.169"/><use href="#S" x="179.976" y="62.667"/><use href="#S" x="180.334" y="65.949"/><use href="#S" x="180.693" y="133.045"/><use href="#S" x="181.051" y="127.04"/><use href="#S" x="181.41" y="115.061"/><use href="#S" x="181.768" y="129.453"/><use href="#S" x="182.127" y="121.041"/><use href="#S" x="182.485" y="128.385"/><use href="#S" x="182.844" y="122.809"/><use href="#S" x="183.202" y="110.785"/><use href="#S" x="183.561" y="115.161"/><use href="#S" x="183.919" y="115.335"/><use href="#S" x="184.278" y="118.04"/><use href="#S" x="184.637" y="114.614"/><use href="#S" x="184.995" y="115.397"/><use href="#S" x="185.354" y="110.107"/><use href="#S" x="185.712" y="102.825"/><use href="#S" x="186.071" y="98.542"/><use href="#S" x="186.429" y="123.744"/><use href="#S" x="186.788" y="125.594"/><use href="#S" x="187.146" y="141.677"/><use href="#S" x="187.505" y="155.157"/><use href="#S" x="187.863" y="159.928"/><use href="#S" x="188.222" y="168.829"/><use href="#S" x="188.58" y="175.434"/><use href="#S" x="188.939" y="182.071"/><use href="#S" x="189.297" y="189.426"/><use href="#S" x="189.656" y="196.983"/><use href="#S" x="190.014" y="201.893"/><use href="#S" x="190.373" y="207.712"/><use href="#S" x="190.731" y="214.196"/><use href="#S" x="191.09" y="217.281"/><use href="#S" x="191.449" y="220.462"/><use href="#S" x="191.807" y="226.655"/><use href="#S" x="192.166" y="231.944"/><use href="#S" x="192.524" y="234.462"/><use href="#S" x="192.883" y="240.758"/><use href="#S" x="193.241" y="244.677"/><use href="#S" x="193.6" y="246.237"/><use href="#S" x="193.958" y="253.669"/><use href="#S" x="194.317" y="251.109"/><use href="#S" x="194.675" y="255.78"/><use href="#S" x="195.034" y="255.57"/><use href="#S" x="195.392" y="256.18"/><use href="#S" x="195.751" y="259.622"/><use href="#S" x="196.109" y="266.275"/><use href="#S" x="196.468" y="268.994"/><use href="#S" x="196.826" y="272.487"/><use href="#S" x="197.185" y="279.018"/><use href="#S" x="197.543" y="281.656"/><use href="#S" x="197.902" y="280.801"/><use href="#S" x="198.261" y="282.083"/><use href="#S" x="198.619" y="285.668"/><use href="#S" x="198.978" y="286.999"/><use href="#S" x="199.336" y="287.234"/><use href="#S" x="199.695" y="287.715"/><use href="#S" x="200.053" y="289.057"/><use href="#S" x="200.412" y="290.206"/><use href="#S" x="200.77" y="292.341"/><use href="#S" x="201.129" y="292.457"/><use href="#S" x="201.487" y="292.443"/><use href="#S" x="201.846" y="292.43"/><use href="#S" x="202.204" y="292.416"/><use href="#S" x="202.563" y="292.402"/><use href="#S" x="202.921" y="292.389"/><use href="#S" x="203.28" y="292.206"/><use href="#S" x="203.638" y="291.797"/><use href="#S" x="203.997" y="291.169"/><use href="#S" x="204.355" y="290.218"/><use href="#S" x="204.714" y="288.734"/><use href="#S" x="205.073" y="286.702"/><use href="#S" x="205.431" y="284.267"/><use href="#S" x="205.79" y="282.712"/><use href="#S" x="206.148" y="280.417"/><use href="#S" x="206.507" y="279.273"/><use href="#S" x="206.865" y="277.681"/><use href="#S" x="207.224" y="275.094"/><use href="#S" x="207.582" y="271.484"/><use href="#S" x="207.941" y="267.393"/><use href="#S" x="208.299" y="265.536"/><use href="#S" x="208.658" y="266.53"/><use href="#S" x="209.016" y="268.518"/><use href="#S" x="209.375" y="269.819"/><use href="#S" x="209.733" y="269.465"/><use href="#S" x="210.092" y="267.614"/><use href="#S" x="210.45" y="264.402"/><use href="#S" x="210.809" y="259.742"/><use href="#S" x="211.167" y="255.45"/><use href="#S" x="211.526" y="253.554"/><use href="#S" x="211.885" y="253.203"/><use href="#S" x="212.243" y="253.039"/><use href="#S" x="212.602" y="253.003"/><use href="#S" x="212.96" y="253.553"/><use href="#S" x="213.319" y="253.939"/><use href="#S" x="213.677" y="254.551"/><use href="#S" x="214.036" y="254.194"/><use href="#S" x="214.394" y="252.588"/><use href="#S" x="214.753" y="250.944"/><use href="#S" x="215.111" y="248.649"/><use href="#S" x="215.47" y="246.761"/><use href="#S" x="215.828" y="246.195"/><use href="#S" x="216.187" y="244.729"/><use href="#S" x="216.545" y="243.767"/><use href="#S" x="216.904" y="241.786"/><use href="#S" x="217.262" y="239.991"/><use href="#S" x="217.621" y="237.235"/><use href="#S" x="217.98" y="234.138"/><use href="#S" x="218.338" y="232.292"/><use href="#S" x="218.697" y="230.795"/><use href="#S" x="219.055" y="230.172"/><use href="#S" x="219.414" y="232.114"/><use href="#S" x="219.772" y="234.373"/><use href="#S" x="220.131" y="237.306"/><use href="#S" x="220.489" y="238.936"/><use href="#S" x="220.848" y="239.488"/><use href="#S" x="221.206" y="238.954"/><use href="#S" x="221.565" y="238.22"/><use href="#S" x="221.923" y="236.561"/><use href="#S" x="222.282" y="235.405"/><use href="#S" x="222.64" y="233.297"/><use href="#S" x="222.999" y="231.452"/><use href="#S" x="223.357" y="229.008"/><use href="#S" x="223.716" y="226.01"/><use href="#S" x="224.074" y="223.409"/><use href="#S" x="224.433" y="220.075"/><use href="#S" x="224.792" y="217.856"/><use href="#S" x="225.15" y="214.957"/><use href="#S" x="225.509" y="213.429"/><use href="#S" x="225.867" y="211.848"/><use href="#S" x="226.226" y="212.349"/><use href="#S" x="226.584" y="212.809"/><use href="#S" x="226.943" y="214.883"/><use href="#S" x="227.301" y="217.129"/><use href="#S" x="227.66" y="218.225"/><use href="#S" x="228.018" y="219.462"/><use href="#S" x="228.377" y="220.663"/><use href="#S" x="228.735" y="222.014"/><use href="#S" x="229.094" y="223.37"/><use href="#S" x="229.452" y="223.772"/><use href="#S" x="229.811" y="224.019"/><use href="#S" x="230.169" y="224.032"/><use href="#S" x="230.528" y="222.967"/><use href="#S" x="230.886" y="221.241"/><use href="#S" x="231.245" y="220.108"/><use href="#S" x="231.604" y="218.493"/><use href="#S" x="231.962" y="215.428"/><use href="#S" x="232.321" y="214.209"/><use href="#S" x="232.679" y="212.152"/><use href="#S" x="233.038" y="211.361"/><use href="#S" x="233.396" y="210.573"/><use href="#S" x="233.755" y="208.915"/><use href="#S" x="234.113" y="208.395"/><use href="#S" x="234.472" y="207.836"/><use href="#S" x="234.83" y="206.975"/><use href="#S" x="235.189" y="205.9"/><use href="#S" x="235.547" y="205.559"/><use href="#S" x="235.906" y="204.759"/><use href="#S" x="236.264" y="204.2"/><use href="#S" x="236.623" y="203.985"/><use href="#S" x="236.981" y="202.847"/><use href="#S" x="237.34" y="202.441"/><use href="#S" x="237.698" y="201.759"/><use href="#S" x="238.057" y="201.601"/><use href="#S" x="238.416" y="201.363"/><use href="#S" x="238.774" y="200.547"/><use href="#S" x="239.133" y="199.554"/><use href="#S" x="239.491" y="199.832"/><use href="#S" x="239.85" y="199.676"/><use href="#S" x="240.208" y="199.2"/><use href="#S" x="240.567" y="197.749"/><use href="#S" x="240.925" y="196.472"/><use href="#S" x="241.284" y="196.182"/><use href="#S" x="241.642" y="196.264"/><use href="#S" x="242.001" y="195.682"/><use href="#S" x="242.359" y="195.791"/><use href="#S" x="242.718" y="196.31"/><use href="#S" x="243.076" y="196.228"/><use href="#S" x="243.435" y="196.54"/><use href="#S" x="243.793" y="196.967"/><use href="#S" x="244.152" y="196.996"/><use href="#S" x="244.51" y="197.135"/><use href="#S" x="244.869" y="197.879"/><use href="#S" x="245.228" y="199.021"/><use href="#S" x="245.586" y="199.265"/><use href="#S" x="245.945" y="199.496"/><use href="#S" x="246.303" y="199.673"/><use href="#S" x="246.662" y="200.293"/><use href="#S" x="247.02" y="200.712"/><use href="#S" x="247.379" y="201.252"/><use href="#S" x="247.737" y="200.558"/><use href="#S" x="248.096" y="201.083"/><use href="#S" x="248.454" y="200.94"/><use href="#S" x="248.813" y="200.98"/><use href="#S" x="249.171" y="200.607"/><use href="#S" x="249.53" y="200.352"/><use href="#S" x="249.888" y="200.143"/><use href="#S" x="250.247" y="199.892"/><use href="#S" x="250.605" y="199.849"/><use href="#S" x="250.964" y="199.657"/><use href="#S" x="251.322" y="199.197"/><use href="#S" x="251.681" y="198.036"/><use href="#S" x="252.04" y="197.596"/><use href="#S" x="252.398" y="196.844"/><use href="#S" x="252.757" y="196.611"/><use href="#S" x="253.115" y="194.927"/><use href="#S" x="253.474" y="194.411"/><use href="#S" x="253.832" y="193.581"/><use href="#S" x="254.191" y="193.438"/><use href="#S" x="254.549" y="192.119"/><use href="#S" x="254.908" y="190.612"/><use href="#S" x="255.266" y="189.416"/><use href="#S" x="255.625" y="188.695"/><use href="#S" x="255.983" y="187.64"/><use href="#S" x="256.342" y="185.295"/><use href="#S" x="256.7" y="185.303"/><use href="#S" x="257.059" y="185.096"/><use href="#S" x="257.417" y="183.42"/><use href="#S" x="257.776" y="183.123"/><use href="#S" x="258.134" y="182.353"/><use href="#S" x="258.493" y="181.029"/><use href="#S" x="258.852" y="179.771"/><use href="#S" x="259.21" y="178.458"/><use href="#S" x="259.569" y="177.298"/><use href="#S" x="259.927" y="175.637"/><use href="#S" x="260.286" y="175.593"/><use href="#S" x="260.644" y="174.934"/><use href="#S" x="261.003" y="173.743"/><use href="#S" x="261.361" y="172.331"/><use href="#S" x="261.72" y="171.955"/><use href="#S" x="262.078" y="171.075"/><use href="#S" x="262.437" y="170.139"/><use href="#S" x="262.795" y="170.11"/><use href="#S" x="263.154" y="170.907"/><use href="#S" x="263.512" y="171.822"/><use href="#S" x="263.871" y="171.646"/><use href="#S" x="264.229" y="171.968"/><use href="#S" x="264.588" y="171.936"/><use href="#S" x="264.946" y="171.293"/><use href="#S" x="265.305" y="171.028"/><use href="#S" x="265.664" y="171.434"/><use href="#S" x="266.022" y="171.9"/><use href="#S" x="266.381" y="172.554"/><use href="#S" x="266.739" y="173.157"/><use href="#S" x="267.098" y="173.639"/><use href="#S" x="267.456" y="174.788"/><use href="#S" x="267.815" y="175.763"/><use href="#S" x="268.173" y="176.281"/><use href="#S" x="268.532" y="177.216"/><use href="#S" x="268.89" y="178.092"/><use href="#S" x="269.249" y="178.616"/><use href="#S" x="269.607" y="179.568"/><use href="#S" x="269.966" y="179.719"/><use href="#S" x="270.324" y="180.277"/><use href="#S" x="270.683" y="180.961"/><use href="#S" x="271.041" y="181.326"/><use href="#S" x="271.4" y="182.058"/><use href="#S" x="271.758" y="182.24"/><use href="#S" x="272.117" y="182.642"/><use href="#S" x="272.476" y="183.63"/><use href="#S" x="272.834" y="183.886"/><use href="#S" x="273.193" y="184.546"/><use href="#S" x="273.551" y="184.871"/><use href="#S" x="273.91" y="185.658"/><use href="#S" x="274.268" y="186.152"/><use href="#S" x="274.627" y="186.459"/><use href="#S" x="274.985" y="186.972"/><use href="#S" x="275.344" y="187.378"/><use href="#S" x="275.702" y="187.675"/><use href="#S" x="276.061" y="187.905"/><use href="#S" x="276.419" y="188.396"/><use href="#S" x="276.778" y="188.117"/><use href="#S" x="277.136" y="188.875"/><use href="#S" x="277.495" y="188.921"/><use href="#S" x="277.853" y="188"/><use href="#S" x="278.212" y="187.396"/><use href="#S" x="278.57" y="187.044"/><use href="#S" x="278.929" y="187.042"/><use href="#S" x="279.288" y="186.413"/><use href="#S" x="279.646" y="186.103"/><use href="#S" x="280.005" y="186.32"/><use href="#S" x="280.363" y="186.149"/><use href="#S" x="280.722" y="185.53"/><use href="#S" x="281.08" y="185.512"/><use href="#S" x="281.439" y="184.403"/><use href="#S" x="281.797" y="183.674"/><use href="#S" x="282.156" y="183.306"/><use href="#S" x="282.514" y="183.044"/><use href="#S" x="282.873" y="182.617"/><use href="#S" x="283.231" y="181.93"/><use href="#S" x="283.59" y="181.337"/><use href="#S" x="283.948" y="180.211"/><use href="#S" x="284.307" y="180.152"/><use href="#S" x="284.665" y="179.44"/><use href="#S" x="285.024" y="178.407"/><use href="#S" x="285.383" y="177.419"/><use href="#S" x="285.741" y="177.225"/><use href="#S" x="286.1" y="176.86"/><use href="#S" x="286.458" y="176.793"/><use href="#S" x="286.817" y="175.969"/><use href="#S" x="287.175" y="174.717"/><use href="#S" x="287.534" y="173.475"/><use href="#S" x="287.892" y="172.738"/><use href="#S" x="288.251" y="171.516"/><use href="#S" x="288.609" y="171.019"/><use href="#S" x="288.968" y="170.454"/><use href="#S" x="289.326" y="169.77"/><use href="#S" x="289.685" y="169.328"/><use href="#S" x="290.043" y="168.466"/><use href="#S" x="290.402" y="167.845"/><use href="#S" x="290.76" y="167.644"/><use href="#S" x="291.119" y="166.802"/><use href="#S" x="291.477" y="166.807"/><use href="#S" x="291.836" y="166.787"/><use href="#S" x="292.195" y="166.358"/><use href="#S" x="292.553" y="166.405"/><use href="#S" x="292.912" y="164.941"/><use href="#S" x="293.27" y="164.536"/><use href="#S" x="293.629" y="164.357"/><use href="#S" x="293.987" y="163.618"/><use href="#S" x="294.346" y="163.525"/><use href="#S" x="294.704" y="163.407"/><use href="#S" x="295.063" y="162.783"/><use href="#S" x="295.421" y="162.81"/><use href="#S" x="295.78" y="162.833"/><use href="#S" x="296.138" y="161.96"/><use href="#S" x="296.497" y="161.503"/><use href="#S" x="296.855" y="161.017"/><use href="#S" x="297.214" y="160.512"/><use href="#S" x="297.572" y="160.203"/><use href="#S" x="297.931" y="160.568"/><use href="#S" x="298.289" y="160.242"/><use href="#S" x="298.648" y="159.435"/><use href="#S" x="299.007" y="159.488"/><use href="#S" x="299.365" y="159.805"/><use href="#S" x="299.724" y="159.677"/><use href="#S" x="300.082" y="159.388"/><use href="#S" x="300.441" y="159.89"/><use href="#S" x="300.799" y="160.263"/><use href="#S" x="301.158" y="159.583"/><use href="#S" x="301.516" y="159.219"/><use href="#S" x="301.875" y="159.626"/><use href="#S" x="302.233" y="159.735"/><use href="#S" x="302.592" y="159.819"/><use href="#S" x="302.95" y="159.703"/><use href="#S" x="303.309" y="159.522"/><use href="#S" x="303.667" y="159.756"/><use href="#S" x="304.026" y="159.939"/><use href="#S" x="304.384" y="159.798"/><use href="#S" x="304.743" y="160.035"/><use href="#S" x="305.101" y="159.795"/><use href="#S" x="305.46" y="159.83"/><use href="#S" x="305.819" y="160.119"/><use href="#S" x="306.177" y="160.723"/><use href="#S" x="306.536" y="160.53"/><use href="#S" x="306.894" y="160.136"/><use href="#S" x="307.253" y="159.528"/><use href="#S" x="307.611" y="159.807"/><use href="#S" x="307.97" y="160.121"/><use href="#S" x="308.328" y="160.093"/><use href="#S" x="308.687" y="159.55"/><use href="#S" x="309.045" y="159.894"/><use href="#S" x="309.404" y="160.093"/><use href="#S" x="309.762" y="160.152"/><use href="#S" x="310.121" y="159.801"/><use href="#S" x="310.479" y="159.695"/><use href="#S" x="310.838" y="159.186"/><use href="#S" x="311.196" y="159.652"/><use href="#S" x="311.555" y="159.65"/><use href="#S" x="311.913" y="159.788"/><use href="#S" x="312.272" y="160.175"/><use href="#S" x="312.631" y="159.727"/><use href="#S" x="312.989" y="159.554"/><use href="#S" x="313.348" y="159.794"/><use href="#S" x="313.706" y="159.803"/><use href="#S" x="314.065" y="159.259"/><use href="#S" x="314.423" y="158.975"/><use href="#S" x="314.782" y="158.974"/><use href="#S" x="315.14" y="158.822"/><use href="#S" x="315.499" y="158.99"/><use href="#S" x="315.857" y="159.273"/><use href="#S" x="316.216" y="159.031"/><use href="#S" x="316.574" y="158.88"/><use href="#S" x="316.933" y="159.778"/><use href="#S" x="317.291" y="159.942"/><use href="#S" x="317.65" y="160.25"/><use href="#S" x="318.008" y="160.728"/><use href="#S" x="318.367" y="160.738"/><use href="#S" x="318.725" y="160.511"/><use href="#S" x="319.084" y="160.352"/><use href="#S" x="319.443" y="160.721"/><use href="#S" x="319.801" y="160.756"/><use href="#S" x="320.16" y="160.521"/><use href="#S" x="320.518" y="160.249"/><use href="#S" x="320.877" y="160.202"/><use href="#S" x="321.235" y="159.755"/><use href="#S" x="321.594" y="158.984"/><use href="#S" x="321.952" y="158.792"/><use href="#S" x="322.311" y="158.623"/><use href="#S" x="322.669" y="158.96"/><use href="#S" x="323.028" y="159.515"/><use href="#S" x="323.386" y="158.932"/><use href="#S" x="323.745" y="159.492"/><use href="#S" x="324.103" y="159.38"/><use href="#S" x="324.462" y="159.202"/><use href="#S" x="324.82" y="158.996"/><use href="#S" x="325.179" y="159.136"/><use href="#S" x="325.537" y="159.266"/><use href="#S" x="325.896" y="159.278"/><use href="#S" x="326.255" y="159.268"/><use href="#S" x="326.613" y="159.298"/><use href="#S" x="326.972" y="159.044"/><use href="#S" x="327.33" y="158.929"/><use href="#S" x="327.689" y="159.293"/><use href="#S" x="328.047" y="159.447"/><use href="#S" x="328.406" y="159.625"/><use href="#S" x="328.764" y="159.877"/><use href="#S" x="329.123" y="159.575"/><use href="#S" x="329.481" y="159.084"/><use href="#S" x="329.84" y="158.737"/><use href="#S" x="330.198" y="158.336"/><use href="#S" x="330.557" y="158.685"/><use href="#S" x="330.915" y="158.535"/><use href="#S" x="331.274" y="158.614"/><use href="#S" x="331.632" y="159.277"/><use href="#S" x="331.991" y="159.093"/><use href="#S" x="332.349" y="159.292"/><use href="#S" x="332.708" y="159.374"/><use href="#S" x="333.067" y="160.15"/><use href="#S" x="333.425" y="160.378"/><use href="#S" x="333.784" y="160.216"/><use href="#S" x="334.142" y="160.043"/><use href="#S" x="334.501" y="160.727"/><use href="#S" x="334.859" y="160.303"/><use href="#S" x="335.218" y="160.084"/><use href="#S" x="335.576" y="160.155"/><use href="#S" x="335.935" y="160.515"/><use href="#S" x="336.293" y="160.911"/><use href="#S" x="336.652" y="161.347"/><use href="#S" x="337.01" y="161.56"/><use href="#S" x="337.369" y="161.47"/><use href="#S" x="337.727" y="161.311"/><use href="#S" x="338.086" y="161.331"/><use href="#S" x="338.444" y="161.476"/><use href="#S" x="338.803" y="162.004"/><use href="#S" x="339.161" y="161.7"/><use href="#S" x="339.52" y="161.107"/><use href="#S" x="339.879" y="161.024"/><use href="#S" x="340.237" y="161.522"/><use href="#S" x="340.596" y="161.903"/><use href="#S" x="340.954" y="162.313"/><use href="#S" x="341.313" y="162.014"/><use href="#S" x="341.671" y="161.664"/><use href="#S" x="342.03" y="161.41"/><use href="#S" x="342.388" y="161.073"/><use href="#S" x="342.747" y="161.301"/><use href="#S" x="343.105" y="160.879"/><use href="#S" x="343.464" y="161.222"/><use href="#S" x="343.822" y="161.593"/><use href="#S" x="344.181" y="162.173"/><use href="#S" x="344.539" y="162.063"/><use href="#S" x="344.898" y="161.868"/><use href="#S" x="345.256" y="161.666"/><use href="#S" x="345.615" y="161.267"/><use href="#S" x="345.974" y="161.539"/><use href="#S" x="346.332" y="161.37"/><use href="#S" x="346.691" y="161.417"/><use href="#S" x="347.049" y="161.121"/><use href="#S" x="347.408" y="161.306"/><use href="#S" x="347.766" y="161.681"/><use href="#S" x="348.125" y="161.88"/><use href="#S" x="348.483" y="161.796"/><use href="#S" x="348.842" y="161.716"/><use href="#S" x="349.2" y="161.447"/><use href="#S" x="349.559" y="161.365"/><use href="#S" x="349.917" y="161.582"/><use href="#S" x="350.276" y="161.827"/><use href="#S" x="350.634" y="162.143"/><use href="#S" x="350.993" y="161.651"/><use href="#S" x="351.351" y="161.824"/><use href="#S" x="351.71" y="161.904"/><use href="#S" x="352.068" y="162.332"/><use href="#S" x="352.427" y="162.327"/><use href="#S" x="352.786" y="162.434"/><use href="#S" x="353.144" y="162.648"/><use href="#S" x="353.503" y="162.443"/><use href="#S" x="353.861" y="162.467"/><use href="#S" x="354.22" y="163.054"/><use href="#S" x="354.578" y="163.197"/><use href="#S" x="354.937" y="163.428"/><use href="#S" x="355.295" y="163.468"/><use href="#S" x="355.654" y="163.879"/><use href="#S" x="356.012" y="163.876"/><use href="#S" x="356.371" y="164.19"/><use href="#S" x="356.729" y="164.261"/><use href="#S" x="357.088" y="163.953"/><use href="#S" x="357.446" y="163.779"/><use href="#S" x="357.805" y="163.692"/><use href="#S" x="358.163" y="163.522"/><use href="#S" x="358.522" y="163.362"/><use href="#S" x="358.88" y="163.251"/><use href="#S" x="359.239" y="163.468"/><use href="#S" x="359.598" y="163.033"/><use href="#S" x="359.956" y="162.781"/><use href="#S" x="360.315" y="162.47"/><use href="#S" x="360.673" y="162.005"/><use href="#S" x="361.032" y="161.941"/><use href="#S" x="361.39" y="161.571"/><use href="#S" x="361.749" y="161.568"/><use href="#S" x="362.107" y="161.67"/><use href="#S" x="362.466" y="161.718"/><use href="#S" x="362.824" y="161.849"/><use href="#S" x="363.183" y="161.907"/><use href="#S" x="363.541" y="161.556"/><use href="#S" x="363.9" y="161.495"/><use href="#S" x="364.258" y="161.458"/><use href="#S" x="364.617" y="161.181"/><use href="#S" x="364.975" y="161.232"/><use href="#S" x="365.334" y="160.771"/><use href="#S" x="365.692" y="160.535"/><use href="#S" x="366.051" y="160.468"/><use href="#S" x="366.41" y="160.554"/><use href="#S" x="366.768" y="160.458"/><use href="#S" x="367.127" y="160.087"/><use href="#S" x="367.485" y="160.152"/><use href="#S" x="367.844" y="159.996"/><use href="#S" x="368.202" y="160.042"/><use href="#S" x="368.561" y="160.156"/><use href="#S" x="368.919" y="160.069"/><use href="#S" x="369.278" y="160.061"/><use href="#S" x="369.636" y="160.71"/><use href="#S" x="369.995" y="160.285"/><use href="#S" x="370.353" y="160.534"/><use href="#S" x="370.712" y="160.439"/><use href="#S" x="371.07" y="160.312"/><use href="#S" x="371.429" y="160.401"/><use href="#S" x="371.787" y="160.176"/><use href="#S" x="372.146" y="160.486"/><use href="#S" x="372.504" y="160.786"/><use href="#S" x="372.863" y="160.513"/><use href="#S" x="373.222" y="160.319"/><use href="#S" x="373.58" y="160.531"/><use href="#S" x="373.939" y="160.318"/><use href="#S" x="374.297" y="160.051"/><use href="#S" x="374.656" y="160.026"/><use href="#S" x="375.014" y="159.539"/><use href="#S" x="375.373" y="159.388"/><use href="#S" x="375.731" y="159.136"/><use href="#S" x="376.09" y="159.462"/><use href="#S" x="376.448" y="159.127"/><use href="#S" x="376.807" y="159.004"/><use href="#S" x="377.165" y="158.955"/><use href="#S" x="377.524" y="159.16"/><use href="#S" x="377.882" y="159.216"/><use href="#S" x="378.241" y="159.141"/><use href="#S" x="378.599" y="159.092"/><use href="#S" x="378.958" y="158.804"/><use href="#S" x="379.316" y="158.775"/><use href="#S" x="379.675" y="158.749"/><use href="#S" x="380.034" y="158.49"/><use href="#S" x="380.392" y="158.303"/><use href="#S" x="380.751" y="158.647"/><use href="#S" x="381.109" y="158.79"/><use href="#S" x="381.468" y="158.535"/><use href="#S" x="381.826" y="158.485"/><use href="#S" x="382.185" y="158.413"/><use href="#S" x="382.543" y="158.498"/><use href="#S" x="382.902" y="158.574"/><use href="#S" x="383.26" y="158.186"/><use href="#S" x="383.619" y="158.36"/><use href="#S" x="383.977" y="158.16"/><use href="#S" x="384.336" y="158.063"/><use href="#S" x="384.694" y="157.591"/><use href="#S" x="385.053" y="157.92"/><use href="#S" x="385.411" y="158.28"/><use href="#S" x="385.77" y="158.128"/><use href="#S" x="386.128" y="158.246"/><use href="#S" x="386.487" y="158.153"/><use href="#S" x="386.846" y="158.441"/><use href="#S" x="387.204" y="158.259"/><use href="#S" x="387.563" y="158.182"/><use href="#S" x="387.921" y="158.109"/><use href="#S" x="388.28" y="158.202"/><use href="#S" x="388.638" y="157.899"/><use href="#S" x="388.997" y="157.762"/><use href="#S" x="389.355" y="157.719"/><use href="#S" x="389.714" y="158.005"/><use href="#S" x="390.072" y="157.902"/><use href="#S" x="390.431" y="158.191"/><use href="#S" x="390.789" y="158.057"/><use href="#S" x="391.148" y="157.94"/><use href="#S" x="391.506" y="157.988"/><use href="#S" x="391.865" y="157.79"/><use href="#S" x="392.223" y="157.515"/><use href="#S" x="392.582" y="157.37"/><use href="#S" x="392.94" y="157.608"/><use href="#S" x="393.299" y="157.491"/><use href="#S" x="393.658" y="157.564"/><use href="#S" x="394.016" y="157.595"/><use href="#S" x="394.375" y="157.558"/><use href="#S" x="394.733" y="157.635"/><use href="#S" x="395.092" y="157.705"/><use href="#S" x="395.45" y="157.468"/><use href="#S" x="395.809" y="157.509"/><use href="#S" x="396.167" y="157.068"/><use href="#S" x="396.526" y="156.825"/><use href="#S" x="396.884" y="156.801"/><use href="#S" x="397.243" y="157.05"/><use href="#S" x="397.601" y="157.251"/><use href="#S" x="397.96" y="156.97"/><use href="#S" x="398.318" y="156.932"/><use href="#S" x="398.677" y="156.497"/><use href="#S" x="399.035" y="156.32"/><use href="#S" x="399.394" y="156.437"/><use href="#S" x="399.752" y="156.242"/><use href="#S" x="400.111" y="156.664"/><use href="#S" x="400.47" y="156.462"/><use href="#S" x="400.828" y="156.166"/><use href="#S" x="401.187" y="156.152"/><use href="#S" x="401.545" y="156.013"/><use href="#S" x="401.904" y="156.143"/><use href="#S" x="402.262" y="156.262"/><use href="#S" x="402.621" y="156.055"/><use href="#S" x="402.979" y="155.662"/><use href="#S" x="403.338" y="155.706"/><use href="#S" x="403.696" y="155.722"/><use href="#S" x="404.055" y="155.746"/><use href="#S" x="404.413" y="155.644"/><use href="#S" x="404.772" y="155.807"/><use href="#S" x="405.13" y="155.85"/><use href="#S" x="405.489" y="155.776"/><use href="#S" x="405.847" y="155.643"/><use href="#S" x="406.206" y="155.513"/><use href="#S" x="406.565" y="155.62"/><use href="#S" x="406.923" y="155.734"/><use href="#S" x="407.282" y="155.513"/><use href="#S" x="407.64" y="155.267"/><use href="#S" x="407.999" y="154.87"/><use href="#S" x="408.357" y="154.905"/><use href="#S" x="408.716" y="155.02"/><use href="#S" x="409.074" y="155.095"/><use href="#S" x="409.433" y="155.296"/><use href="#S" x="409.791" y="155.323"/><use href="#S" x="410.15" y="155.289"/><use href="#S" x="410.508" y="155.25"/><use href="#S" x="410.867" y="155.381"/><use href="#S" x="411.225" y="155.326"/><use href="#S" x="411.584" y="155.389"/><use href="#S" x="411.942" y="155.397"/><use href="#S" x="412.301" y="155.26"/><use href="#S" x="412.659" y="155.141"/><use href="#S" x="413.018" y="155.069"/><use href="#S" x="413.377" y="155.122"/><use href="#S" x="413.735" y="155.568"/><use href="#S" x="414.094" y="155.682"/><use href="#S" x="414.452" y="155.393"/><use href="#S" x="414.811" y="155.129"/><use href="#S" x="415.169" y="154.945"/><use href="#S" x="415.528" y="155.057"/><use href="#S" x="415.886" y="155.229"/><use href="#S" x="416.245" y="154.735"/><use href="#S" x="416.603" y="154.706"/><use href="#S" x="416.962" y="154.761"/><use href="#S" x="417.32" y="154.534"/><use href="#S" x="417.679" y="154.719"/><use href="#S" x="418.037" y="154.813"/><use href="#S" x="418.396" y="154.734"/><use href="#S" x="418.754" y="154.711"/><use href="#S" x="419.113" y="154.643"/><use href="#S" x="419.471" y="154.726"/><use href="#S" x="419.83" y="154.747"/><use href="#S" x="420.189" y="154.757"/><use href="#S" x="420.547" y="154.443"/><use href="#S" x="420.906" y="154.328"/><use href="#S" x="421.264" y="154.252"/><use href="#S" x="421.623" y="154.225"/><use href="#S" x="421.981" y="154.275"/><use href="#S" x="422.34" y="154.16"/><use href="#S" x="422.698" y="154.388"/><use href="#S" x="423.057" y="154.559"/><use href="#S" x="423.415" y="154.246"/><use href="#S" x="423.774" y="154.096"/><use href="#S" x="424.132" y="154.029"/><use href="#S" x="424.491" y="153.969"/><use href="#S" x="424.849" y="153.938"/><use href="#S" x="425.208" y="153.575"/><use href="#S" x="425.566" y="153.455"/><use href="#S" x="425.925" y="153.897"/><use href="#S" x="426.283" y="153.969"/><use href="#S" x="426.642" y="154.216"/><use href="#S" x="427.001" y="154.117"/><use href="#S" x="427.359" y="154.089"/><use href="#S" x="427.718" y="154.302"/><use href="#S" x="428.076" y="154.241"/><use href="#S" x="428.435" y="154.101"/><use href="#S" x="428.793" y="154.291"/><use href="#S" x="429.152" y="154.408"/><use href="#S" x="429.51" y="154.572"/><use href="#S" x="429.869" y="154.57"/><use href="#S" x="430.227" y="154.384"/><use href="#S" x="430.586" y="154.296"/><use href="#S" x="430.944" y="154.283"/><use href="#S" x="431.303" y="154.289"/><use href="#S" x="431.661" y="154.211"/></g><g class="E"><g stroke="#bfbf00" class="L M"><path d="M201.129 304.54V38.724" class="D"/><path d="M46.55 292.457H450" class="D"/></g><g class="C J K"><path d="M46.55 304.54V38.724M450 304.54V38.724M46.55 304.54H450"/><path d="M46.55 38.724H450"/></g></g><g class="B"><g transform="matrix(.12 0 0 -.12 172.109688 20.273625)"><defs><path id="T" d="M2016 0H115v122q403 12 512 118 109 106 109 477v2809q0 372-103 468-102 96-518 121v122h1901v-122q-403-19-515-122-112-102-112-467V717q0-359 115-471 115-112 512-124V0z" transform="scale(.015625)"/><path id="U" d="M2829 422V243Q2586-64 2253-64q-365 0-410 467h-6Q1427-64 909-64q-301 0-487 176-185 176-185 490 0 448 448 748 307 205 1152 519v345q0 288-138 432-137 144-361 144-192 0-320-93-128-92-128-220 0-58 19-129 19-70 19-140 0-96-87-179-86-83-207-83-109 0-193 83-83 83-83 211 0 307 327 512 301 192 736 192 518 0 755-288 115-134 147-272 32-138 32-438V723q0-422 199-422 128 0 275 121zm-992 391v902q-589-205-819-422-218-199-218-493 0-243 121-368 122-125 321-125 211 0 371 103 134 96 179 179 45 83 45 224z" transform="scale(.015625)"/><path id="V" d="M3008 2483h-531q121-275 121-537 0-493-333-743-332-249-665-249-70 0-243 19l-122 13q-128-39-256-174-128-134-128-230 0-147 499-172l826-39q352-13 563-199 211-185 211-486 0-371-384-672-531-409-1280-409-460 0-784 183-323 182-323 438 0 179 141 355Q461-243 806 6q-204 96-272 166-67 71-67 174 0 185 295 441 147 128 275 256-320 160-458 358-137 199-137 500 0 435 310 739 310 304 758 304 256 0 512-96l141-51q186-64 352-64h493v-250zM973 2163v-19q0-461 182-746 183-284 477-284 218 0 346 156 128 157 128 420 0 422-192 774-160 301-468 301-224 0-349-160-124-160-124-442zM2771-410q0 180-176 247-176 67-617 67-634 0-1037 83-192-230-253-335-61-106-61-215 0-211 253-339 253-128 675-128 544 0 880 170 336 169 336 450z" transform="scale(.015625)"/><path id="W" d="M2611 1050l103-45Q2330-64 1376-64q-563 0-890 393-326 394-326 1060 0 685 365 1120 365 435 960 435 576 0 889-442 186-256 218-729H621q25-403 79-615 55-211 215-428 269-352 711-352 313 0 527 153 215 154 458 519zM634 1978h1305q-57 403-189 569-131 167-438 167-269 0-448-189-179-189-230-547z" transform="scale(.015625)"/><path id="X" d="M3002 2963h-160q-109 397-263 602-390 499-928 499-294 0-470-170-176-169-176-438 0-128 64-250 64-121 137-208 74-86 259-214 186-128 301-195 116-67 384-227 519-301 755-599 237-297 237-656 0-531-371-864-371-333-934-333-416 0-755 148-167 70-301 70-77 0-128-58-51-57-51-153H461L275 1274h141Q845 141 1734 141q340 0 551 201 211 202 211 516 0 300-186 505-307 333-1075 743-781 416-781 1100 0 512 314 816 314 304 800 304 339 0 672-140 173-77 282-77 166 0 204 217h135l141-1363z" transform="scale(.015625)"/><path id="Y" d="M3117 0H1760v96q282 32 358 128 77 96 77 429v1267q0 678-473 678-192 0-352-90-160-89-365-313V653q0-333 76-429 77-96 359-128V0H58v96q275 38 342 128 67 90 67 429v3014q0 205-61 266-60 61-265 61-58 0-77-7v103l173 51q493 147 736 230l32-19V2406q224 288 441 413 218 125 500 125 787 0 787-1018V653q0-333 60-420 61-86 324-137V0z" transform="scale(.015625)"/><path id="Z" d="M1024 2931v-589q243 346 406 474 164 128 362 128 166 0 259-90 93-89 93-249 0-135-67-212-67-76-183-76-121 0-256 128-102 96-166 96-134 0-291-186-157-185-157-339V576q0-275 109-371 109-96 435-109V0H32v96q307 58 380 128 74 70 74 314v1600q0 211-48 297-48 87-169 87-103 0-224-26v102q403 128 947 346l32-13z" transform="scale(.015625)"/><path id="a" d="M1018 2931v-493q403 506 921 506 467 0 768-384 301-384 301-979 0-698-387-1172-387-473-957-473-198 0-336 58-138 57-310 217V-794q0-300 102-386 102-87 461-94v-115H32v109q282 26 365 109 83 83 83 333v2995q0 224-51 294-51 71-211 71-103 0-160-7v103q448 134 921 326l39-13zm0-793V563q0-141 220-282 221-140 445-140 346 0 560 326 215 327 215 858 0 563-215 899-214 336-573 336-224 0-438-141-214-141-214-281z" transform="scale(.015625)"/><path id="b" d="M3930 838l121-115Q3482-90 2304-90q-928 0-1510 570-615 602-615 1600 0 934 576 1581 602 665 1555 665 410 0 762-96 403-115 442-115 211 0 268 211h128l58-1452h-147q-103 460-333 710-454 486-1030 486-711 0-1124-522-412-521-412-1366 0-1030 460-1529 429-461 1140-461 422 0 729 147 307 147 679 499z" transform="scale(.015625)"/><path id="c" d="M3494 3322h-160q-70 435-240 553-169 119-745 119h-845q-134 0-176-48-42-48-42-202V2355h909q403 0 541 115 138 116 182 493h148V1472h-148q-38 390-173 505-134 116-550 116h-909V717q0-365 106-471 106-105 477-124V0H70v122q365 25 464 137 100 112 100 528v2739q0 352-96 458-96 106-461 131v122h3385l32-915z" transform="scale(.015625)"/><path id="d" d="M3072 320v-90Q2573 96 2195-58l-32 20v524h-13Q1747-64 1235-64q-365 0-573 224-208 224-208 595v1607q0 236-83 326-83 90-313 102v90h934V813q0-218 131-362 131-144 323-144 314 0 538 199 83 76 115 143 32 68 32 228v1478q0 250-90 323-89 74-383 93v109h1011V685q0-224 73-295 74-70 292-70h38z" transform="scale(.015625)"/></defs><use href="#T"/><use href="#L" x="33.3"/><use href="#U" x="111.1"/><use href="#V" x="155.5"/><use href="#W" x="205.5"/><use href="#Bu" x="249.9"/><use href="#X" x="274.9"/><use href="#Y" x="330.5"/><use href="#U" x="380.5"/><use href="#Z" x="424.9"/><use href="#a" x="458.2"/><use href="#K" x="508.2"/><use href="#W" x="558.2"/><use href="#Q" x="602.6"/><use href="#Q" x="641.5"/><use href="#Bu" x="680.4"/><use href="#b" x="705.4"/><use href="#P" x="772.1"/><use href="#Q" x="822.1"/><use href="#R" x="861"/><use href="#Bu" x="888.8"/><use href="#c" x="913.8"/><use href="#d" x="969.4"/><use href="#K" x="1019.4"/><use href="#O" x="1069.4"/><use href="#R" x="1113.8"/><use href="#J" x="1141.6"/><use href="#P" x="1169.4"/><use href="#K" x="1219.4"/></g><g transform="matrix(.12 0 0 -.12 187.327188 32.724)"><defs><path id="e" d="M5530 0H3738v122q377 25 476 143 100 119 100 522v2874L2682 0h-90L979 3514V966q0-518 109-672 109-153 486-172V0H77v122q281 19 403 83 122 64 170 227 48 163 48 534v2548q0 364-109 470-109 106-499 131v122h1267l1478-3213 1415 3213h1273v-122q-345-6-451-122-106-115-106-473V717q0-339 106-455 106-115 458-140V0z" transform="scale(.015625)"/><path id="f" d="M4077 2048H307v422h3770v-422zm0-1280H307v422h3770V768z" transform="scale(.015625)"/><path id="g" d="M1158 275q0-141-106-243Q947-70 800-70 653-70 550 32 448 134 448 281q0 148 105 253 106 106 253 106 141 0 246-109 106-109 106-256z" transform="scale(.015625)"/><path id="h" d="M2854 4378l13-103q-755-121-1261-611-505-490-633-1213 371 288 813 288 563 0 886-359 323-358 323-978 0-628-326-1024Q2291-90 1651-90 870-90 518 557q-300 550-300 1229 0 1049 697 1766 397 410 816 579 419 170 1123 247zm-435-3175q0 1242-864 1242-320 0-531-170-211-169-211-573 0-748 233-1180 234-432 676-432 339 0 518 304 179 304 179 809z" transform="scale(.015625)"/></defs><use href="#e"/><use href="#J" x="88.9"/><use href="#K" x="116.7"/><use href="#J" x="166.7"/><use href="#L" x="194.5"/><use href="#d" x="272.3"/><use href="#L" x="322.3"/><use href="#Bu" x="400.1"/><use href="#U" x="425.1"/><use href="#R" x="469.5"/><use href="#Bu" x="497.3"/><use href="#I" x="522.3"/><use href="#f" x="566.7"/><use href="#D" x="635.2"/><use href="#C" x="685.2"/><use href="#g" x="735.2"/><use href="#G" x="760.2"/><use href="#h" x="810.2"/><use href="#L" x="860.2"/><use href="#L" x="938"/></g></g><path d="M346.272 89.235H443q2 0 2-2V45.724q0-2-2-2h-96.728q-2 0-2 2v41.511q0 2 2 2z" fill="#333" opacity=".8" stroke="#ccc"/><path d="M348.272 51.224h20" stroke="#8dd3c7" class="E J L"/><g transform="matrix(.1 0 0 -.1 376.271875 54.724)" class="B"><use href="#O"/><use href="#P" x="44.4"/><use href="#Q" x="94.4"/><use href="#R" x="133.3"/><use href="#Bu" x="161.1"/><use href="#W" x="186.1"/><use href="#Q" x="230.5"/><use href="#R" x="269.4"/><use href="#J" x="297.2"/><use href="#L" x="325"/><use href="#U" x="402.8"/><use href="#R" x="447.2"/><use href="#J" x="475"/><use href="#P" x="502.8"/><use href="#K" x="552.8"/></g><use href="#S" x="358.272" y="65.394" fill="red" stroke="red"/><g transform="matrix(.1 0 0 -.1 376.271875 68.894312)" class="B"><defs><path id="i" d="M3053 2880v-96q-147-13-218-96-70-83-198-403L1818 230Q1690-90 1638-90q-51 0-115 167-13 19-26 64-12 45-25 70L704 2048q-205 486-301 604-96 119-281 132v96h1254v-96q-166-13-230-52-64-38-64-121 0-102 57-243l653-1638 634 1657q38 96 38 192 0 179-301 205v96h890z" transform="scale(.015625)"/><path id="j" d="M1645 0H134v96q301 26 397 125 96 99 96 368v3001q0 231-58 320-57 90-211 90-134 0-236-13v103q608 147 1011 281l32-25V557q0-269 89-356 90-86 391-105V0z" transform="scale(.015625)"/></defs><use href="#O"/><use href="#P" x="44.4"/><use href="#Q" x="94.4"/><use href="#R" x="133.3"/><use href="#Bu" x="161.1"/><use href="#i" x="186.1"/><use href="#U" x="236.1"/><use href="#j" x="280.5"/><use href="#d" x="308.3"/><use href="#W" x="358.3"/><use href="#Q" x="402.7"/></g><path d="M348.272 79.565h20" stroke="#bfbf00" class="E L M"/><g transform="matrix(.1 0 0 -.1 376.271875 83.064625)" class="B"><defs><path id="k" d="M134 2880h525q7 384 51 598 45 215 173 432 269 461 903 461 288 0 476-112 189-112 189-285 0-108-77-185-76-77-192-77-153 0-288 230-153 250-339 250-358 0-358-570v-742h781v-205h-781V666q0-359 102-458 103-99 493-112V0H128v96q346 19 438 118 93 100 93 452v2009H134v205z" transform="scale(.015625)"/><path id="l" d="M3142 269L2202-64l-26 19v410Q1869-64 1357-64q-531 0-858 381-326 381-326 995 0 678 390 1155 391 477 941 477 346 0 672-275v998q0 199-58 263-57 64-236 64-90 0-141-7v103q582 153 941 281l32-13V730q0-224 54-295 54-70 227-70 39 0 147 6V269zm-966 384v1472q0 256-195 448-195 192-458 192-365 0-583-327-217-326-217-870 0-589 240-944 240-355 643-355 301 0 474 205 96 108 96 179z" transform="scale(.015625)"/></defs><use href="#k"/><use href="#P" x="33.3"/><use href="#d" x="83.3"/><use href="#K" x="133.3"/><use href="#l" x="183.3"/><use href="#Bu" x="233.3"/><use href="#L" x="258.3"/><use href="#J" x="336.1"/><use href="#K" x="363.9"/><use href="#J" x="413.9"/><use href="#L" x="441.7"/><use href="#d" x="519.5"/><use href="#L" x="569.5"/></g><defs><clipPath id="m"><path d="M46.55 38.724H450V304.54H46.55z"/></clipPath></defs></svg>