<?xml version="1.0" encoding="UTF-8" standalone="no"?>
<!DOCTYPE svg PUBLIC "-//W3C//DTD SVG 1.1//EN"
 "http://www.w3.org/Graphics/SVG/1.1/DTD/svg11.dtd">
<!-- Generated by graphviz version 2.50.0 (0)
 -->
<!-- Title: G Pages: 1 -->
<svg width="484pt" height="591pt"
 viewBox="0.00 0.00 483.95 591.43" xmlns="http://www.w3.org/2000/svg" xmlns:xlink="http://www.w3.org/1999/xlink">
<g id="graph0" class="graph" transform="scale(1 1) rotate(0) translate(4 587.43)">
<title>G</title><style>.edge>path:hover{stroke-width:8}</style>
<polygon fill="white" stroke="transparent" points="-4,4 -4,-587.43 479.95,-587.43 479.95,4 -4,4"/>
<!-- Frontend -->
<g id="node1" class="node">
<title>Frontend</title><style>.edge>path:hover{stroke-width:8}</style>
<ellipse fill="#b47e2d" stroke="black" cx="170.67" cy="-18" rx="32.25" ry="18"/>
<text text-anchor="middle" x="170.67" y="-15.5" font-family="Helvetica,sans-Serif" font-size="10.00" fill="#000000">Frontend</text>
</g>
<!-- Frontend_DebuggingPlots -->
<g id="node2" class="node">
<title>Frontend_DebuggingPlots</title><style>.edge>path:hover{stroke-width:8}</style>
<ellipse fill="#c48931" stroke="black" cx="171.67" cy="-165.21" rx="60.62" ry="21.43"/>
<text text-anchor="middle" x="171.67" y="-168.21" font-family="Helvetica,sans-Serif" font-size="10.00" fill="#000000">Frontend.</text>
<text text-anchor="middle" x="171.67" y="-157.21" font-family="Helvetica,sans-Serif" font-size="10.00" fill="#000000">DebuggingPlots</text>
</g>
<!-- Frontend_DebuggingPlots&#45;&gt;Frontend -->
<g id="edge3" class="edge">
<title>Frontend_DebuggingPlots&#45;&gt;Frontend</title><style>.edge>path:hover{stroke-width:8}</style>
<path fill="none" stroke="black" d="M151.82,-145C139.29,-130.44 126.83,-109.8 134.67,-91"/>
</g>
<!-- Frontend_GUI -->
<g id="node3" class="node">
<title>Frontend_GUI</title><style>.edge>path:hover{stroke-width:8}</style>
<ellipse fill="#735426" stroke="black" cx="207.67" cy="-90" rx="44.98" ry="18"/>
<text text-anchor="middle" x="207.67" y="-87.5" font-family="Helvetica,sans-Serif" font-size="10.00" fill="#ffffff">Frontend.GUI</text>
</g>
<!-- Frontend_DebuggingPlots&#45;&gt;Frontend_GUI -->
<g id="edge4" class="edge">
<title>Frontend_DebuggingPlots&#45;&gt;Frontend_GUI</title><style>.edge>path:hover{stroke-width:8}</style>
<path fill="none" stroke="black" d="M181.51,-144.21C185.6,-135.87 190.42,-126.09 194.79,-117.19"/>
<polygon fill="#c48931" stroke="black" points="198.04,-118.52 199.31,-108 191.75,-115.43 198.04,-118.52"/>
</g>
<!-- Frontend_GUI&#45;&gt;Frontend -->
<g id="edge5" class="edge">
<title>Frontend_GUI&#45;&gt;Frontend</title><style>.edge>path:hover{stroke-width:8}</style>
<path fill="none" stroke="black" d="M198.71,-72.05C194.39,-63.89 189.12,-53.91 184.32,-44.82"/>
<polygon fill="#735426" stroke="black" points="187.31,-42.99 179.54,-35.79 181.12,-46.27 187.31,-42.99"/>
</g>
<!-- Frontend_ImagePlots -->
<g id="node4" class="node">
<title>Frontend_ImagePlots</title><style>.edge>path:hover{stroke-width:8}</style>
<ellipse fill="#a37228" stroke="black" cx="46.67" cy="-165.21" rx="46.84" ry="21.43"/>
<text text-anchor="middle" x="46.67" y="-168.21" font-family="Helvetica,sans-Serif" font-size="10.00" fill="#ffffff">Frontend.</text>
<text text-anchor="middle" x="46.67" y="-157.21" font-family="Helvetica,sans-Serif" font-size="10.00" fill="#ffffff">ImagePlots</text>
</g>
<!-- Frontend_ImagePlots&#45;&gt;Frontend -->
<g id="edge6" class="edge">
<title>Frontend_ImagePlots&#45;&gt;Frontend</title><style>.edge>path:hover{stroke-width:8}</style>
<path fill="none" stroke="black" d="M77.01,-149.08C97.92,-136.72 123.8,-117.04 134.67,-91"/>
<path fill="none" stroke="black" d="M134.67,-89C141.02,-73.78 149.39,-57.35 156.45,-44.23"/>
<polygon fill="#a37228" stroke="black" points="159.59,-45.79 161.32,-35.34 153.45,-42.43 159.59,-45.79"/>
</g>
<!-- Frontend_ImagePlots&#45;&gt;Frontend_GUI -->
<g id="edge7" class="edge">
<title>Frontend_ImagePlots&#45;&gt;Frontend_GUI</title><style>.edge>path:hover{stroke-width:8}</style>
<path fill="none" stroke="black" d="M78.86,-149.57C105.05,-137.67 142.06,-120.84 169.69,-108.27"/>
<polygon fill="#a37228" stroke="black" points="171.38,-111.35 179.04,-104.02 168.49,-104.97 171.38,-111.35"/>
</g>
<!-- Backend -->
<g id="node5" class="node">
<title>Backend</title><style>.edge>path:hover{stroke-width:8}</style>
<polygon fill="#d02424" stroke="black" points="220.17,-330.43 217.17,-334.43 196.17,-334.43 193.17,-330.43 165.17,-330.43 165.17,-294.43 220.17,-294.43 220.17,-330.43"/>
<text text-anchor="middle" x="192.67" y="-309.93" font-family="Helvetica,sans-Serif" font-size="10.00" fill="#ffffff">Backend</text>
</g>
<!-- Backend&#45;&gt;Frontend_GUI -->
<g id="edge1" class="edge">
<title>Backend&#45;&gt;Frontend_GUI</title><style>.edge>path:hover{stroke-width:8}</style>
<path fill="none" stroke="black" d="M222.67,-239.43C216.33,-203.32 279.63,-197.59 260.67,-166.21"/>
<path fill="none" stroke="black" d="M260.67,-164.21C250.46,-147.31 237.47,-129.33 226.91,-115.41"/>
<polygon fill="#d02424" stroke="black" points="229.56,-113.12 220.7,-107.32 224.01,-117.39 229.56,-113.12"/>
</g>
<!-- Backend&#45;&gt;Frontend_ImagePlots -->
<g id="edge2" class="edge">
<title>Backend&#45;&gt;Frontend_ImagePlots</title><style>.edge>path:hover{stroke-width:8}</style>
<path fill="none" stroke="black" d="M206.37,-294.29C215.78,-280.53 226.01,-260.44 222.67,-241.43"/>
<path fill="none" stroke="black" d="M222.67,-239.43C221.45,-232.46 143.35,-202.14 91.61,-182.77"/>
<polygon fill="#d02424" stroke="black" points="92.55,-179.39 81.96,-179.17 90.1,-185.95 92.55,-179.39"/>
</g>
<!-- PyQt5 -->
<g id="node6" class="node">
<title>PyQt5</title><style>.edge>path:hover{stroke-width:8}</style>
<polygon fill="#b1ce3b" stroke="black" points="181.67,-511.43 178.67,-515.43 157.67,-515.43 154.67,-511.43 127.67,-511.43 127.67,-475.43 181.67,-475.43 181.67,-511.43"/>
<text text-anchor="middle" x="154.67" y="-490.93" font-family="Helvetica,sans-Serif" font-size="10.00" fill="#000000">PyQt5</text>
</g>
<!-- PyQt5&#45;&gt;Frontend_ImagePlots -->
<g id="edge8" class="edge">
<title>PyQt5&#45;&gt;Frontend_ImagePlots</title><style>.edge>path:hover{stroke-width:8}</style>
<path fill="none" stroke="black" d="M127.49,-480.15C110.97,-471.24 90.95,-457.57 79.67,-439.43 49.72,-391.28 73,-368.54 59.67,-313.43"/>
<path fill="none" stroke="black" d="M59.67,-311.43C49.6,-272.82 47,-226.69 46.49,-196.95"/>
<polygon fill="#b1ce3b" stroke="black" points="49.99,-196.74 46.39,-186.78 42.99,-196.81 49.99,-196.74"/>
</g>
<!-- pyface -->
<g id="node10" class="node">
<title>pyface</title><style>.edge>path:hover{stroke-width:8}</style>
<polygon fill="#266ed9" stroke="black" points="330.67,-330.43 327.67,-334.43 306.67,-334.43 303.67,-330.43 276.67,-330.43 276.67,-294.43 330.67,-294.43 330.67,-330.43"/>
<text text-anchor="middle" x="303.67" y="-309.93" font-family="Helvetica,sans-Serif" font-size="10.00" fill="#ffffff">pyface</text>
</g>
<!-- PyQt5&#45;&gt;pyface -->
<g id="edge9" class="edge">
<title>PyQt5&#45;&gt;pyface</title><style>.edge>path:hover{stroke-width:8}</style>
<path fill="none" stroke="black" d="M181.89,-489.98C219.16,-484.89 283.74,-469.39 303.67,-422.43"/>
<path fill="none" stroke="black" d="M303.67,-420.43C314.46,-395 312.71,-363.02 309.36,-340.67"/>
<polygon fill="#b1ce3b" stroke="black" points="312.76,-339.81 307.63,-330.55 305.86,-340.99 312.76,-339.81"/>
</g>
<!-- matplotlib -->
<g id="node7" class="node">
<title>matplotlib</title><style>.edge>path:hover{stroke-width:8}</style>
<polygon fill="#44c823" stroke="black" points="147.17,-330.43 144.17,-334.43 123.17,-334.43 120.17,-330.43 88.17,-330.43 88.17,-294.43 147.17,-294.43 147.17,-330.43"/>
<text text-anchor="middle" x="117.67" y="-309.93" font-family="Helvetica,sans-Serif" font-size="10.00" fill="#000000">matplotlib</text>
</g>
<!-- matplotlib&#45;&gt;Frontend_DebuggingPlots -->
<g id="edge10" class="edge">
<title>matplotlib&#45;&gt;Frontend_DebuggingPlots</title><style>.edge>path:hover{stroke-width:8}</style>
<path fill="none" stroke="black" d="M144.67,-239.43C144.04,-224.18 149.2,-208.17 155.16,-195.03"/>
<polygon fill="#44c823" stroke="black" points="158.32,-196.53 159.58,-186.01 152.04,-193.45 158.32,-196.53"/>
</g>
<!-- matplotlib&#45;&gt;Frontend_ImagePlots -->
<g id="edge11" class="edge">
<title>matplotlib&#45;&gt;Frontend_ImagePlots</title><style>.edge>path:hover{stroke-width:8}</style>
<path fill="none" stroke="black" d="M128.77,-294.29C136.56,-280.52 145.45,-260.43 144.67,-241.43"/>
<path fill="none" stroke="black" d="M144.67,-239.43C144.03,-223.98 112.44,-202.44 85.3,-186.72"/>
<polygon fill="#44c823" stroke="black" points="86.74,-183.51 76.32,-181.63 83.29,-189.6 86.74,-183.51"/>
</g>
<!-- mayavi -->
<g id="node8" class="node">
<title>mayavi</title><style>.edge>path:hover{stroke-width:8}</style>
<polygon fill="#22e771" stroke="black" points="440.67,-330.43 437.67,-334.43 416.67,-334.43 413.67,-330.43 386.67,-330.43 386.67,-294.43 440.67,-294.43 440.67,-330.43"/>
<text text-anchor="middle" x="413.67" y="-309.93" font-family="Helvetica,sans-Serif" font-size="10.00" fill="#000000">mayavi</text>
</g>
<!-- mayavi&#45;&gt;Frontend_GUI -->
<g id="edge12" class="edge">
<title>mayavi&#45;&gt;Frontend_GUI</title><style>.edge>path:hover{stroke-width:8}</style>
<path fill="none" stroke="black" d="M411.98,-294.29C410.02,-279.65 405.94,-258.33 397.67,-241.43"/>
</g>
<!-- numpy -->
<g id="node9" class="node">
<title>numpy</title><style>.edge>path:hover{stroke-width:8}</style>
<polygon fill="#06f9f9" stroke="black" points="142.67,-439.43 139.67,-443.43 118.67,-443.43 115.67,-439.43 88.67,-439.43 88.67,-403.43 142.67,-403.43 142.67,-439.43"/>
<text text-anchor="middle" x="115.67" y="-418.93" font-family="Helvetica,sans-Serif" font-size="10.00" fill="#000000">numpy</text>
</g>
<!-- numpy&#45;&gt;Frontend_GUI -->
<g id="edge14" class="edge">
<title>numpy&#45;&gt;Frontend_GUI</title><style>.edge>path:hover{stroke-width:8}</style>
<path fill="none" stroke="black" d="M115.67,-366.43C131.78,-316.24 193.62,-369.79 228.67,-330.43 253.39,-302.66 279.89,-198.03 260.67,-166.21"/>
</g>
<!-- numpy&#45;&gt;Frontend_ImagePlots -->
<g id="edge15" class="edge">
<title>numpy&#45;&gt;Frontend_ImagePlots</title><style>.edge>path:hover{stroke-width:8}</style>
<path fill="none" stroke="black" d="M113.06,-403.31C112.07,-392.72 111.96,-378.99 115.67,-367.43"/>
<path fill="none" stroke="black" d="M115.67,-366.43C126.14,-333.8 67.72,-346.73 59.67,-313.43"/>
</g>
<!-- numpy&#45;&gt;Backend -->
<g id="edge13" class="edge">
<title>numpy&#45;&gt;Backend</title><style>.edge>path:hover{stroke-width:8}</style>
<path fill="none" stroke="black" d="M115.67,-366.43C118.82,-356.6 137.85,-343.45 156.2,-332.71"/>
<polygon fill="#06f9f9" stroke="black" points="158.12,-335.65 165.08,-327.66 154.66,-329.57 158.12,-335.65"/>
</g>
<!-- numpy&#45;&gt;matplotlib -->
<g id="edge16" class="edge">
<title>numpy&#45;&gt;matplotlib</title><style>.edge>path:hover{stroke-width:8}</style>
<path fill="none" stroke="black" d="M115.67,-366.43C118.28,-358.29 119.26,-349.09 119.45,-340.66"/>
<polygon fill="#06f9f9" stroke="black" points="122.95,-340.5 119.33,-330.54 115.95,-340.58 122.95,-340.5"/>
</g>
<!-- pyface&#45;&gt;Frontend_GUI -->
<g id="edge17" class="edge">
<title>pyface&#45;&gt;Frontend_GUI</title><style>.edge>path:hover{stroke-width:8}</style>
<path fill="none" stroke="black" d="M330.67,-298.43C361.07,-282.88 405.29,-257.01 397.67,-241.43"/>
<path fill="none" stroke="black" d="M397.67,-239.43C367.32,-177.42 296.37,-225.3 260.67,-166.21"/>
</g>
<!-- pynput -->
<g id="node11" class="node">
<title>pynput</title><style>.edge>path:hover{stroke-width:8}</style>
<polygon fill="#4e31c4" stroke="black" points="342.67,-258.43 339.67,-262.43 318.67,-262.43 315.67,-258.43 288.67,-258.43 288.67,-222.43 342.67,-222.43 342.67,-258.43"/>
<text text-anchor="middle" x="315.67" y="-237.93" font-family="Helvetica,sans-Serif" font-size="10.00" fill="#ffffff">pynput</text>
</g>
<!-- pynput&#45;&gt;Frontend_GUI -->
<g id="edge18" class="edge">
<title>pynput&#45;&gt;Frontend_GUI</title><style>.edge>path:hover{stroke-width:8}</style>
<path fill="none" stroke="black" d="M301.3,-222.37C289.54,-207.96 272.92,-186.49 260.67,-166.21"/>
</g>
<!-- traits -->
<g id="node12" class="node">
<title>traits</title><style>.edge>path:hover{stroke-width:8}</style>
<polygon fill="#c806f9" stroke="black" points="440.67,-583.43 437.67,-587.43 416.67,-587.43 413.67,-583.43 386.67,-583.43 386.67,-547.43 440.67,-547.43 440.67,-583.43"/>
<text text-anchor="middle" x="413.67" y="-562.93" font-family="Helvetica,sans-Serif" font-size="10.00" fill="#ffffff">traits</text>
</g>
<!-- traits&#45;&gt;Frontend_GUI -->
<g id="edge19" class="edge">
<title>traits&#45;&gt;Frontend_GUI</title><style>.edge>path:hover{stroke-width:8}</style>
<path fill="none" stroke="black" d="M468.67,-366.43C459.54,-334.61 466.03,-323.2 449.67,-294.43 433.36,-265.74 413.03,-270.63 397.67,-241.43"/>
</g>
<!-- traits&#45;&gt;mayavi -->
<g id="edge20" class="edge">
<title>traits&#45;&gt;mayavi</title><style>.edge>path:hover{stroke-width:8}</style>
<path fill="none" stroke="black" d="M428.6,-546.97C436.16,-537.15 444.76,-524.32 449.67,-511.43 472.65,-451.1 483.62,-430.23 468.67,-367.43"/>
<path fill="none" stroke="black" d="M468.67,-366.43C465.36,-354.89 457.52,-344.89 448.76,-336.78"/>
<polygon fill="#c806f9" stroke="black" points="450.82,-333.93 440.92,-330.14 446.29,-339.28 450.82,-333.93"/>
</g>
<!-- traits&#45;&gt;pyface -->
<g id="edge21" class="edge">
<title>traits&#45;&gt;pyface</title><style>.edge>path:hover{stroke-width:8}</style>
<path fill="none" stroke="black" d="M386.47,-549.31C345.88,-524.64 276.94,-473.38 303.67,-422.43"/>
</g>
<!-- traitsui -->
<g id="node13" class="node">
<title>traitsui</title><style>.edge>path:hover{stroke-width:8}</style>
<polygon fill="#d0248c" stroke="black" points="440.67,-511.43 437.67,-515.43 416.67,-515.43 413.67,-511.43 386.67,-511.43 386.67,-475.43 440.67,-475.43 440.67,-511.43"/>
<text text-anchor="middle" x="413.67" y="-490.93" font-family="Helvetica,sans-Serif" font-size="10.00" fill="#ffffff">traitsui</text>
</g>
<!-- traits&#45;&gt;traitsui -->
<g id="edge22" class="edge">
<title>traits&#45;&gt;traitsui</title><style>.edge>path:hover{stroke-width:8}</style>
<path fill="none" stroke="black" d="M413.67,-547.12C413.67,-539.41 413.67,-530.14 413.67,-521.54"/>
<polygon fill="#c806f9" stroke="black" points="417.17,-521.53 413.67,-511.53 410.17,-521.53 417.17,-521.53"/>
</g>
<!-- traitsui&#45;&gt;Frontend_GUI -->
<g id="edge23" class="edge">
<title>traitsui&#45;&gt;Frontend_GUI</title><style>.edge>path:hover{stroke-width:8}</style>
<path fill="none" stroke="black" d="M416.16,-475.15C419.12,-450.76 422.61,-405.01 413.67,-367.43"/>
<path fill="none" stroke="black" d="M413.67,-366.43C407.43,-344.68 386.33,-351.33 377.67,-330.43 371.55,-315.64 374.8,-310.17 377.67,-294.43 382.19,-269.66 408.74,-264.04 397.67,-241.43"/>
</g>
<!-- traitsui&#45;&gt;mayavi -->
<g id="edge24" class="edge">
<title>traitsui&#45;&gt;mayavi</title><style>.edge>path:hover{stroke-width:8}</style>
<path fill="none" stroke="black" d="M413.67,-366.43C411.74,-358.34 411.18,-349.35 411.25,-341.11"/>
<polygon fill="#d0248c" stroke="black" points="414.76,-340.98 411.66,-330.85 407.76,-340.7 414.76,-340.98"/>
</g>
</g>
</svg>
