<?xml version="1.0" encoding="UTF-8" standalone="no"?>
<!DOCTYPE svg PUBLIC "-//W3C//DTD SVG 1.1//EN"
 "http://www.w3.org/Graphics/SVG/1.1/DTD/svg11.dtd">
<!-- Generated by graphviz version 2.50.0 (0)
 -->
<!-- Title: G Pages: 1 -->
<svg width="501pt" height="626pt"
 viewBox="0.00 0.00 501.28 626.43" xmlns="http://www.w3.org/2000/svg" xmlns:xlink="http://www.w3.org/1999/xlink">
<g id="graph0" class="graph" transform="scale(1 1) rotate(0) translate(4 622.43)">
<title>G</title><style>.edge>path:hover{stroke-width:8}</style>
<polygon fill="white" stroke="transparent" points="-4,4 -4,-622.43 497.28,-622.43 497.28,4 -4,4"/>
<!-- Frontend -->
<g id="node1" class="node">
<title>Frontend</title><style>.edge>path:hover{stroke-width:8}</style>
<ellipse fill="#b47e2d" stroke="black" cx="184.81" cy="-18" rx="32.25" ry="18"/>
<text text-anchor="middle" x="184.81" y="-15.5" font-family="Helvetica,sans-Serif" font-size="10.00" fill="#000000">Frontend</text>
</g>
<!-- Frontend_DebuggingPlots -->
<g id="node2" class="node">
<title>Frontend_DebuggingPlots</title><style>.edge>path:hover{stroke-width:8}</style>
<ellipse fill="#c48931" stroke="black" cx="60.81" cy="-165.21" rx="60.62" ry="21.43"/>
<text text-anchor="middle" x="60.81" y="-168.21" font-family="Helvetica,sans-Serif" font-size="10.00" fill="#000000">Frontend.</text>
<text text-anchor="middle" x="60.81" y="-157.21" font-family="Helvetica,sans-Serif" font-size="10.00" fill="#000000">DebuggingPlots</text>
</g>
<!-- Frontend_DebuggingPlots&#45;&gt;Frontend -->
<g id="edge3" class="edge">
<title>Frontend_DebuggingPlots&#45;&gt;Frontend</title><style>.edge>path:hover{stroke-width:8}</style>
<path fill="none" stroke="black" d="M94.28,-147.2C114.57,-134.77 138.48,-115.76 148.81,-91"/>
<path fill="none" stroke="black" d="M148.81,-89C155.16,-73.78 163.53,-57.35 170.6,-44.23"/>
<polygon fill="#c48931" stroke="black" points="173.74,-45.79 175.47,-35.34 167.59,-42.43 173.74,-45.79"/>
</g>
<!-- Frontend_GUI -->
<g id="node3" class="node">
<title>Frontend_GUI</title><style>.edge>path:hover{stroke-width:8}</style>
<ellipse fill="#735426" stroke="black" cx="221.81" cy="-90" rx="44.98" ry="18"/>
<text text-anchor="middle" x="221.81" y="-87.5" font-family="Helvetica,sans-Serif" font-size="10.00" fill="#ffffff">Frontend.GUI</text>
</g>
<!-- Frontend_DebuggingPlots&#45;&gt;Frontend_GUI -->
<g id="edge4" class="edge">
<title>Frontend_DebuggingPlots&#45;&gt;Frontend_GUI</title><style>.edge>path:hover{stroke-width:8}</style>
<path fill="none" stroke="black" d="M96.54,-147.96C122.53,-136.15 157.65,-120.18 184.09,-108.15"/>
<polygon fill="#c48931" stroke="black" points="185.75,-111.24 193.41,-103.92 182.86,-104.87 185.75,-111.24"/>
</g>
<!-- Frontend_GUI&#45;&gt;Frontend -->
<g id="edge5" class="edge">
<title>Frontend_GUI&#45;&gt;Frontend</title><style>.edge>path:hover{stroke-width:8}</style>
<path fill="none" stroke="black" d="M212.85,-72.05C208.54,-63.89 203.26,-53.91 198.46,-44.82"/>
<polygon fill="#735426" stroke="black" points="201.45,-42.99 193.69,-35.79 195.26,-46.27 201.45,-42.99"/>
</g>
<!-- Frontend_ImagePlots -->
<g id="node4" class="node">
<title>Frontend_ImagePlots</title><style>.edge>path:hover{stroke-width:8}</style>
<ellipse fill="#a37228" stroke="black" cx="185.81" cy="-165.21" rx="46.84" ry="21.43"/>
<text text-anchor="middle" x="185.81" y="-168.21" font-family="Helvetica,sans-Serif" font-size="10.00" fill="#ffffff">Frontend.</text>
<text text-anchor="middle" x="185.81" y="-157.21" font-family="Helvetica,sans-Serif" font-size="10.00" fill="#ffffff">ImagePlots</text>
</g>
<!-- Frontend_ImagePlots&#45;&gt;Frontend -->
<g id="edge6" class="edge">
<title>Frontend_ImagePlots&#45;&gt;Frontend</title><style>.edge>path:hover{stroke-width:8}</style>
<path fill="none" stroke="black" d="M166.49,-145.61C153.79,-131.01 140.86,-110.06 148.81,-91"/>
</g>
<!-- Frontend_ImagePlots&#45;&gt;Frontend_GUI -->
<g id="edge7" class="edge">
<title>Frontend_ImagePlots&#45;&gt;Frontend_GUI</title><style>.edge>path:hover{stroke-width:8}</style>
<path fill="none" stroke="black" d="M195.65,-144.21C199.75,-135.87 204.56,-126.09 208.93,-117.19"/>
<polygon fill="#a37228" stroke="black" points="212.18,-118.52 213.45,-108 205.9,-115.43 212.18,-118.52"/>
</g>
<!-- Backend -->
<g id="node5" class="node">
<title>Backend</title><style>.edge>path:hover{stroke-width:8}</style>
<polygon fill="#d02424" stroke="black" points="298.31,-330.43 295.31,-334.43 274.31,-334.43 271.31,-330.43 243.31,-330.43 243.31,-294.43 298.31,-294.43 298.31,-330.43"/>
<text text-anchor="middle" x="270.81" y="-309.93" font-family="Helvetica,sans-Serif" font-size="10.00" fill="#ffffff">Backend</text>
</g>
<!-- Backend&#45;&gt;Frontend_GUI -->
<g id="edge1" class="edge">
<title>Backend&#45;&gt;Frontend_GUI</title><style>.edge>path:hover{stroke-width:8}</style>
<path fill="none" stroke="black" d="M298.5,-299.61C330.2,-285.23 378.26,-260.52 381.81,-241.43"/>
<path fill="none" stroke="black" d="M381.81,-239.43C387.76,-207.44 394.19,-196.3 381.81,-166.21"/>
</g>
<!-- Backend&#45;&gt;Frontend_ImagePlots -->
<g id="edge2" class="edge">
<title>Backend&#45;&gt;Frontend_ImagePlots</title><style>.edge>path:hover{stroke-width:8}</style>
<path fill="none" stroke="black" d="M252.13,-294.41C239.15,-281.32 222.79,-262.03 214.81,-241.43"/>
</g>
<!-- PyQt5 -->
<g id="node6" class="node">
<title>PyQt5</title><style>.edge>path:hover{stroke-width:8}</style>
<polygon fill="#a2b653" stroke="black" points="108.81,-330.43 105.81,-334.43 84.81,-334.43 81.81,-330.43 54.81,-330.43 54.81,-294.43 108.81,-294.43 108.81,-330.43"/>
<text text-anchor="middle" x="81.81" y="-309.93" font-family="Helvetica,sans-Serif" font-size="10.00" fill="#000000">PyQt5</text>
</g>
<!-- PyQt5&#45;&gt;Frontend_ImagePlots -->
<g id="edge8" class="edge">
<title>PyQt5&#45;&gt;Frontend_ImagePlots</title><style>.edge>path:hover{stroke-width:8}</style>
<path fill="none" stroke="black" d="M94.15,-294.2C111.88,-269.45 144.75,-223.55 165.93,-193.97"/>
<polygon fill="#a2b653" stroke="black" points="168.86,-195.9 171.83,-185.73 163.17,-191.82 168.86,-195.9"/>
</g>
<!-- matplotlib -->
<g id="node7" class="node">
<title>matplotlib</title><style>.edge>path:hover{stroke-width:8}</style>
<polygon fill="#44c823" stroke="black" points="186.31,-330.43 183.31,-334.43 162.31,-334.43 159.31,-330.43 127.31,-330.43 127.31,-294.43 186.31,-294.43 186.31,-330.43"/>
<text text-anchor="middle" x="156.81" y="-309.93" font-family="Helvetica,sans-Serif" font-size="10.00" fill="#000000">matplotlib</text>
</g>
<!-- matplotlib&#45;&gt;Frontend_DebuggingPlots -->
<g id="edge9" class="edge">
<title>matplotlib&#45;&gt;Frontend_DebuggingPlots</title><style>.edge>path:hover{stroke-width:8}</style>
<path fill="none" stroke="black" d="M162.43,-294.37C166.36,-280.15 170.32,-259.38 166.81,-241.43"/>
<path fill="none" stroke="black" d="M166.81,-239.43C161.68,-213.17 138.19,-195.47 114.63,-184.05"/>
<polygon fill="#44c823" stroke="black" points="115.85,-180.76 105.29,-179.84 112.97,-187.14 115.85,-180.76"/>
</g>
<!-- matplotlib&#45;&gt;Frontend_ImagePlots -->
<g id="edge10" class="edge">
<title>matplotlib&#45;&gt;Frontend_ImagePlots</title><style>.edge>path:hover{stroke-width:8}</style>
<path fill="none" stroke="black" d="M166.81,-239.43C163.96,-224.84 167.34,-208.85 172,-195.54"/>
<polygon fill="#44c823" stroke="black" points="175.37,-196.54 175.73,-185.95 168.84,-194 175.37,-196.54"/>
</g>
<!-- mayavi -->
<g id="node8" class="node">
<title>mayavi</title><style>.edge>path:hover{stroke-width:8}</style>
<polygon fill="#22e771" stroke="black" points="408.81,-330.43 405.81,-334.43 384.81,-334.43 381.81,-330.43 354.81,-330.43 354.81,-294.43 408.81,-294.43 408.81,-330.43"/>
<text text-anchor="middle" x="381.81" y="-309.93" font-family="Helvetica,sans-Serif" font-size="10.00" fill="#000000">mayavi</text>
</g>
<!-- mayavi&#45;&gt;Frontend_GUI -->
<g id="edge11" class="edge">
<title>mayavi&#45;&gt;Frontend_GUI</title><style>.edge>path:hover{stroke-width:8}</style>
<path fill="none" stroke="black" d="M380.08,-294.29C379.04,-280.02 378.5,-259.23 381.81,-241.43"/>
</g>
<!-- numpy -->
<g id="node9" class="node">
<title>numpy</title><style>.edge>path:hover{stroke-width:8}</style>
<polygon fill="#06f9f9" stroke="black" points="297.81,-474.43 294.81,-478.43 273.81,-478.43 270.81,-474.43 243.81,-474.43 243.81,-438.43 297.81,-438.43 297.81,-474.43"/>
<text text-anchor="middle" x="270.81" y="-453.93" font-family="Helvetica,sans-Serif" font-size="10.00" fill="#000000">numpy</text>
</g>
<!-- numpy&#45;&gt;Frontend_GUI -->
<g id="edge13" class="edge">
<title>numpy&#45;&gt;Frontend_GUI</title><style>.edge>path:hover{stroke-width:8}</style>
<path fill="none" stroke="black" d="M270.81,-383.43C269.16,-373.55 379.98,-251.27 381.81,-241.43"/>
</g>
<!-- numpy&#45;&gt;Frontend_ImagePlots -->
<g id="edge14" class="edge">
<title>numpy&#45;&gt;Frontend_ImagePlots</title><style>.edge>path:hover{stroke-width:8}</style>
<path fill="none" stroke="black" d="M270.81,-383.43C265.43,-355.21 245.26,-356.77 233.81,-330.43 217.69,-293.33 229.42,-279.14 214.81,-241.43"/>
<path fill="none" stroke="black" d="M214.81,-239.43C208.6,-225.26 202.22,-209.31 197.02,-195.92"/>
<polygon fill="#06f9f9" stroke="black" points="200.16,-194.34 193.31,-186.26 193.63,-196.85 200.16,-194.34"/>
</g>
<!-- numpy&#45;&gt;Backend -->
<g id="edge12" class="edge">
<title>numpy&#45;&gt;Backend</title><style>.edge>path:hover{stroke-width:8}</style>
<path fill="none" stroke="black" d="M270.81,-383.43C268.16,-369.53 267.92,-353.8 268.45,-340.77"/>
<polygon fill="#06f9f9" stroke="black" points="271.95,-340.75 269.03,-330.57 264.97,-340.35 271.95,-340.75"/>
</g>
<!-- numpy&#45;&gt;matplotlib -->
<g id="edge15" class="edge">
<title>numpy&#45;&gt;matplotlib</title><style>.edge>path:hover{stroke-width:8}</style>
<path fill="none" stroke="black" d="M272.59,-438.28C273.65,-424.01 274.2,-403.21 270.81,-385.43"/>
<path fill="none" stroke="black" d="M270.81,-383.43C267.49,-366.01 227.57,-344.46 195.89,-329.91"/>
<polygon fill="#06f9f9" stroke="black" points="196.93,-326.54 186.38,-325.63 194.06,-332.93 196.93,-326.54"/>
</g>
<!-- pyface -->
<g id="node10" class="node">
<title>pyface</title><style>.edge>path:hover{stroke-width:8}</style>
<polygon fill="#4073c0" stroke="black" points="463.81,-402.43 460.81,-406.43 439.81,-406.43 436.81,-402.43 409.81,-402.43 409.81,-366.43 463.81,-366.43 463.81,-402.43"/>
<text text-anchor="middle" x="436.81" y="-381.93" font-family="Helvetica,sans-Serif" font-size="10.00" fill="#ffffff">pyface</text>
</g>
<!-- pyface&#45;&gt;Frontend_GUI -->
<g id="edge16" class="edge">
<title>pyface&#45;&gt;Frontend_GUI</title><style>.edge>path:hover{stroke-width:8}</style>
<path fill="none" stroke="black" d="M439.82,-366.24C441.65,-351.76 442.65,-330.69 436.81,-313.43"/>
</g>
<!-- pynput -->
<g id="node11" class="node">
<title>pynput</title><style>.edge>path:hover{stroke-width:8}</style>
<polygon fill="#4e31c4" stroke="black" points="353.81,-258.43 350.81,-262.43 329.81,-262.43 326.81,-258.43 299.81,-258.43 299.81,-222.43 353.81,-222.43 353.81,-258.43"/>
<text text-anchor="middle" x="326.81" y="-237.93" font-family="Helvetica,sans-Serif" font-size="10.00" fill="#ffffff">pynput</text>
</g>
<!-- pynput&#45;&gt;Frontend_GUI -->
<g id="edge17" class="edge">
<title>pynput&#45;&gt;Frontend_GUI</title><style>.edge>path:hover{stroke-width:8}</style>
<path fill="none" stroke="black" d="M353.44,-222.38C371.51,-208.47 390.64,-187.68 381.81,-166.21"/>
<path fill="none" stroke="black" d="M381.81,-164.21C364.75,-122.76 314.69,-104.78 275.06,-96.97"/>
<polygon fill="#4e31c4" stroke="black" points="275.43,-93.49 264.97,-95.16 274.19,-100.38 275.43,-93.49"/>
</g>
<!-- traits -->
<g id="node12" class="node">
<title>traits</title><style>.edge>path:hover{stroke-width:8}</style>
<polygon fill="#c806f9" stroke="black" points="425.81,-618.43 422.81,-622.43 401.81,-622.43 398.81,-618.43 371.81,-618.43 371.81,-582.43 425.81,-582.43 425.81,-618.43"/>
<text text-anchor="middle" x="398.81" y="-597.93" font-family="Helvetica,sans-Serif" font-size="10.00" fill="#ffffff">traits</text>
</g>
<!-- traits&#45;&gt;Frontend_GUI -->
<g id="edge18" class="edge">
<title>traits&#45;&gt;Frontend_GUI</title><style>.edge>path:hover{stroke-width:8}</style>
<path fill="none" stroke="black" d="M491.81,-455.43C490.43,-415 488.69,-403.63 472.81,-366.43 461.63,-340.24 445.94,-340.4 436.81,-313.43"/>
</g>
<!-- traits&#45;&gt;mayavi -->
<g id="edge19" class="edge">
<title>traits&#45;&gt;mayavi</title><style>.edge>path:hover{stroke-width:8}</style>
<path fill="none" stroke="black" d="M383.2,-582.2C375.44,-572.46 366.87,-559.61 362.81,-546.43 340.67,-474.42 360.62,-384.34 373.27,-340.25"/>
<polygon fill="#c806f9" stroke="black" points="376.66,-341.15 376.15,-330.56 369.95,-339.15 376.66,-341.15"/>
</g>
<!-- traits&#45;&gt;pyface -->
<g id="edge20" class="edge">
<title>traits&#45;&gt;pyface</title><style>.edge>path:hover{stroke-width:8}</style>
<path fill="none" stroke="black" d="M422.1,-582.28C452.65,-557.51 501.33,-509.01 491.81,-457.43"/>
<path fill="none" stroke="black" d="M491.81,-455.43C491.2,-437.65 480.02,-421.7 467.9,-409.54"/>
<polygon fill="#c806f9" stroke="black" points="470.02,-406.73 460.32,-402.47 465.24,-411.85 470.02,-406.73"/>
</g>
<!-- traitsui -->
<g id="node13" class="node">
<title>traitsui</title><style>.edge>path:hover{stroke-width:8}</style>
<polygon fill="#d0248c" stroke="black" points="425.81,-546.43 422.81,-550.43 401.81,-550.43 398.81,-546.43 371.81,-546.43 371.81,-510.43 425.81,-510.43 425.81,-546.43"/>
<text text-anchor="middle" x="398.81" y="-525.93" font-family="Helvetica,sans-Serif" font-size="10.00" fill="#ffffff">traitsui</text>
</g>
<!-- traits&#45;&gt;traitsui -->
<g id="edge21" class="edge">
<title>traits&#45;&gt;traitsui</title><style>.edge>path:hover{stroke-width:8}</style>
<path fill="none" stroke="black" d="M398.81,-582.12C398.81,-574.41 398.81,-565.14 398.81,-556.54"/>
<polygon fill="#c806f9" stroke="black" points="402.31,-556.53 398.81,-546.53 395.31,-556.53 402.31,-556.53"/>
</g>
<!-- traitsui&#45;&gt;Frontend_GUI -->
<g id="edge22" class="edge">
<title>traitsui&#45;&gt;Frontend_GUI</title><style>.edge>path:hover{stroke-width:8}</style>
<path fill="none" stroke="black" d="M381.81,-383.43C388.99,-344.52 449.49,-350.91 436.81,-313.43"/>
<path fill="none" stroke="black" d="M436.81,-311.43C424.13,-273.95 374.46,-280.3 381.81,-241.43"/>
</g>
<!-- traitsui&#45;&gt;mayavi -->
<g id="edge23" class="edge">
<title>traitsui&#45;&gt;mayavi</title><style>.edge>path:hover{stroke-width:8}</style>
<path fill="none" stroke="black" d="M393.44,-510.27C385.8,-483.47 373.57,-430.11 381.81,-385.43"/>
<path fill="none" stroke="black" d="M381.81,-383.43C384.38,-369.51 384.61,-353.78 384.1,-340.76"/>
<polygon fill="#d0248c" stroke="black" points="387.58,-340.35 383.53,-330.56 380.59,-340.74 387.58,-340.35"/>
</g>
</g>
</svg>
