<?xml version="1.0" encoding="UTF-8" standalone="no"?>
<!-- Created with Inkscape (http://www.inkscape.org/) -->

<svg
   width="101.98108mm"
   height="55.108673mm"
   viewBox="0 0 101.98108 55.108673"
   version="1.1"
   id="svg14901"
   inkscape:version="1.2.2 (b0a8486541, 2022-12-01)"
   sodipodi:docname="ideal_refraction.svg"
   xmlns:inkscape="http://www.inkscape.org/namespaces/inkscape"
   xmlns:sodipodi="http://sodipodi.sourceforge.net/DTD/sodipodi-0.dtd"
   xmlns="http://www.w3.org/2000/svg"
   xmlns:svg="http://www.w3.org/2000/svg">
  <sodipodi:namedview
     id="namedview14903"
     pagecolor="#ffffff"
     bordercolor="#666666"
     borderopacity="1.0"
     inkscape:showpageshadow="2"
     inkscape:pageopacity="0.0"
     inkscape:pagecheckerboard="0"
     inkscape:deskcolor="#d1d1d1"
     inkscape:document-units="mm"
     showgrid="true"
     inkscape:zoom="4"
     inkscape:cx="213.5"
     inkscape:cy="130.875"
     inkscape:window-width="2560"
     inkscape:window-height="1366"
     inkscape:window-x="1920"
     inkscape:window-y="0"
     inkscape:window-maximized="1"
     inkscape:current-layer="layer1">
    <inkscape:grid
       type="xygrid"
       id="grid15397"
       originx="-49.893918"
       originy="-27.380809" />
  </sodipodi:namedview>
  <defs
     id="defs14898">
    <marker
       style="overflow:visible"
       id="marker39559"
       refX="0"
       refY="0"
       orient="auto-start-reverse"
       inkscape:stockid="Arrow1L"
       markerWidth="8.75"
       markerHeight="5"
       viewBox="0 0 8.75 5"
       inkscape:isstock="true"
       inkscape:collect="always"
       preserveAspectRatio="xMidYMid">
      <path
         style="fill:context-stroke;fill-rule:evenodd;stroke:none"
         d="M 0,0 5,-5 -12.5,0 5,5 Z"
         id="path39557"
         transform="scale(-0.5)" />
    </marker>
    <marker
       style="overflow:visible"
       id="marker39559_Fnone_S-ad8738"
       refX="0"
       refY="0"
       orient="auto-start-reverse"
       inkscape:stockid="Arrow1L"
       markerWidth="8.75"
       markerHeight="5"
       viewBox="0 0 8.75 5"
       inkscape:isstock="true"
       inkscape:collect="always"
       preserveAspectRatio="xMidYMid">
      <path
         style="fill:#ad8738;fill-rule:evenodd;stroke:none"
         d="M 0,0 5,-5 -12.5,0 5,5 Z"
         id="path53218"
         transform="scale(-0.5)" />
    </marker>
    <marker
       style="overflow:visible"
       id="marker39559_Fnone_S-ad8738_reversed"
       refX="0"
       refY="0"
       orient="auto"
       inkscape:stockid="Arrow1L"
       markerWidth="8.75"
       markerHeight="5"
       viewBox="0 0 8.75 5"
       inkscape:isstock="true"
       inkscape:collect="always"
       preserveAspectRatio="xMidYMid">
      <g
         transform="rotate(180,0,0)"
         id="g53226">
        <path
           style="fill:#ad8738;fill-rule:evenodd;stroke:none"
           d="M 0,0 5,-5 -12.5,0 5,5 Z"
           id="path53224"
           transform="scale(-0.5)" />
      </g>
    </marker>
    <marker
       style="overflow:visible"
       id="Arrow1L"
       refX="0"
       refY="0"
       orient="auto-start-reverse"
       inkscape:stockid="Arrow1L"
       markerWidth="8.75"
       markerHeight="5"
       viewBox="0 0 8.75 5"
       inkscape:isstock="true"
       inkscape:collect="always"
       preserveAspectRatio="xMidYMid">
      <path
         style="fill:context-stroke;fill-rule:evenodd;stroke:none"
         d="M 0,0 5,-5 -12.5,0 5,5 Z"
         id="arrow1L"
         transform="scale(-0.5)" />
    </marker>
    <marker
       style="overflow:visible"
       id="Arrow1L_Fnone_S-ad8738"
       refX="0"
       refY="0"
       orient="auto-start-reverse"
       inkscape:stockid="Arrow1L"
       markerWidth="8.75"
       markerHeight="5"
       viewBox="0 0 8.75 5"
       inkscape:isstock="true"
       inkscape:collect="always"
       preserveAspectRatio="xMidYMid">
      <path
         style="fill:#ad8738;fill-rule:evenodd;stroke:none"
         d="M 0,0 5,-5 -12.5,0 5,5 Z"
         id="path53221"
         transform="scale(-0.5)" />
    </marker>
    <marker
       style="overflow:visible"
       id="marker22255_Fnone_S-4535be"
       refX="0"
       refY="0"
       orient="auto-start-reverse"
       inkscape:stockid="Arrow1L"
       markerWidth="8.75"
       markerHeight="5"
       viewBox="0 0 8.75 5"
       inkscape:isstock="true"
       inkscape:collect="always"
       preserveAspectRatio="xMidYMid">
      <path
         style="fill:#4535be;fill-rule:evenodd;stroke:none"
         d="M 0,0 5,-5 -12.5,0 5,5 Z"
         id="path27105"
         transform="scale(-0.5)" />
    </marker>
    <inkscape:path-effect
       effect="spiro"
       id="path-effect15948"
       is_visible="true"
       lpeversion="1" />
    <inkscape:path-effect
       effect="spiro"
       id="path-effect15932"
       is_visible="true"
       lpeversion="1" />
    <inkscape:path-effect
       effect="spiro"
       id="path-effect15884"
       is_visible="true"
       lpeversion="1" />
    <inkscape:path-effect
       effect="spiro"
       id="path-effect15868"
       is_visible="true"
       lpeversion="1" />
    <marker
       style="overflow:visible"
       id="marker15836_Fnone_S-4535be"
       refX="0"
       refY="0"
       orient="auto-start-reverse"
       inkscape:stockid="Arrow1L"
       markerWidth="8.75"
       markerHeight="5"
       viewBox="0 0 8.75 5"
       inkscape:isstock="true"
       inkscape:collect="always"
       preserveAspectRatio="xMidYMid">
      <path
         style="fill:#4535be;fill-rule:evenodd;stroke:none"
         d="M 0,0 5,-5 -12.5,0 5,5 Z"
         id="path27111"
         transform="scale(-0.5)" />
    </marker>
    <marker
       style="overflow:visible"
       id="marker15836_Fnone_S-000000"
       refX="0"
       refY="0"
       orient="auto-start-reverse"
       inkscape:stockid="Arrow1L"
       markerWidth="8.75"
       markerHeight="5"
       viewBox="0 0 8.75 5"
       inkscape:isstock="true"
       inkscape:collect="always"
       preserveAspectRatio="xMidYMid">
      <path
         style="fill:#000000;fill-rule:evenodd;stroke:none"
         d="M 0,0 5,-5 -12.5,0 5,5 Z"
         id="path27108"
         transform="scale(-0.5)" />
    </marker>
    <marker
       style="overflow:visible"
       id="Arrow1L_Fnone_S-000000"
       refX="0"
       refY="0"
       orient="auto-start-reverse"
       inkscape:stockid="Arrow1L"
       markerWidth="8.75"
       markerHeight="5"
       viewBox="0 0 8.75 5"
       inkscape:isstock="true"
       inkscape:collect="always"
       preserveAspectRatio="xMidYMid">
      <path
         style="fill:#000000;fill-rule:evenodd;stroke:none"
         d="M 0,0 5,-5 -12.5,0 5,5 Z"
         id="path27114"
         transform="scale(-0.5)" />
    </marker>
    <inkscape:path-effect
       effect="spiro"
       id="path-effect15451"
       is_visible="true"
       lpeversion="1" />
    <inkscape:path-effect
       effect="spiro"
       id="path-effect15447"
       is_visible="true"
       lpeversion="1" />
    <inkscape:path-effect
       effect="spiro"
       id="path-effect15443"
       is_visible="true"
       lpeversion="1" />
    <inkscape:path-effect
       effect="spiro"
       id="path-effect15439"
       is_visible="true"
       lpeversion="1" />
    <inkscape:path-effect
       effect="spiro"
       id="path-effect15409"
       is_visible="true"
       lpeversion="1" />
    <inkscape:path-effect
       effect="spiro"
       id="path-effect15405"
       is_visible="true"
       lpeversion="1" />
    <inkscape:path-effect
       effect="spiro"
       id="path-effect15401"
       is_visible="true"
       lpeversion="1" />
    <inkscape:path-effect
       effect="spiro"
       id="path-effect15409-3"
       is_visible="true"
       lpeversion="1" />
  </defs>
  <g
     inkscape:label="Layer 1"
     inkscape:groupmode="layer"
     id="layer1"
     transform="translate(-49.893919,-27.380809)">
    <path
       style="fill:none;stroke:#000000;stroke-width:0.3;stroke-linecap:round;stroke-linejoin:miter;stroke-dasharray:0.30000001,0.90000004;stroke-dashoffset:1.20000005;stroke-opacity:1"
       d="M 94.999999,34.999998 H 140"
       id="path15866"
       inkscape:path-effect="#path-effect15868"
       inkscape:original-d="m 94.999999,34.999998 c 15.000261,2.65e-4 30.000261,2.65e-4 45.000001,0" />
    <path
       style="fill:none;stroke:#000000;stroke-width:0.3;stroke-linecap:round;stroke-linejoin:miter;stroke-dasharray:0.3,0.90000003;stroke-dashoffset:0;stroke-opacity:1"
       d="M 84.999998,75.999998 V 69.444444"
       id="path15946"
       inkscape:path-effect="#path-effect15948"
       inkscape:original-d="m 84.999998,75.999998 c 2.65e-4,-2.387228 2.65e-4,-4.370081 0,-6.555554" />
    <path
       style="fill:none;stroke:#000000;stroke-width:0.3;stroke-linecap:round;stroke-linejoin:miter;stroke-dasharray:0.3, 0.9;stroke-dashoffset:0.84;stroke-opacity:1"
       d="M 69.999999,75.999998 H 84.999998"
       id="path15930"
       inkscape:path-effect="#path-effect15932"
       inkscape:original-d="m 69.999999,75.999998 c 5.000265,2.64e-4 10.000263,2.64e-4 14.999999,0" />
    <path
       style="fill:none;stroke:#000000;stroke-width:0.3;stroke-linecap:round;stroke-linejoin:miter;stroke-dasharray:none;stroke-opacity:1;marker-end:url(#Arrow1L_Fnone_S-000000)"
       d="M 94.999999,64.999999 H 150"
       id="path15399"
       inkscape:path-effect="#path-effect15401"
       inkscape:original-d="m 94.999999,64.999999 c 18.333601,2.64e-4 36.666931,2.64e-4 55.000001,0" />
    <path
       style="fill:none;stroke:#000000;stroke-width:0.3;stroke-linecap:round;stroke-linejoin:miter;stroke-dasharray:none;stroke-opacity:1;marker-end:url(#marker15836_Fnone_S-000000)"
       d="M 94.999999,64.999999 V 30"
       id="path15403"
       inkscape:path-effect="#path-effect15405"
       inkscape:original-d="m 94.999999,64.999999 c 2.65e-4,-11.666403 2.65e-4,-23.33307 0,-34.999999" />
    <path
       style="fill:none;stroke:#ad8738;stroke-width:0.298955;stroke-linecap:round;stroke-linejoin:miter;stroke-dasharray:none;stroke-opacity:1;marker-start:url(#marker39559_Fnone_S-ad8738_reversed)"
       d="M 93.292735,65.758927 56.050263,82.316912"
       id="path15437"
       inkscape:path-effect="#path-effect15439"
       inkscape:original-d="M 93.292735,65.758927 C 80.878793,71.27848 68.464636,76.797798 56.050263,82.316912" />
    <path
       style="fill:none;stroke:#ad8738;stroke-width:0.3;stroke-linecap:round;stroke-linejoin:miter;stroke-dasharray:none;stroke-opacity:1;marker-end:url(#Arrow1L_Fnone_S-ad8738)"
       d="M 95.000001,65 138.35503,45.733844"
       id="path15441"
       inkscape:path-effect="#path-effect15443"
       inkscape:original-d="M 95.000001,65 C 109.45193,58.578203 123.90361,52.15615 138.35503,45.733844" />
    <path
       style="fill:none;stroke:#4535be;stroke-width:0.300396;stroke-linecap:round;stroke-linejoin:miter;stroke-dasharray:none;stroke-opacity:1;marker-end:url(#marker22255_Fnone_S-4535be)"
       d="m 95.000001,35 43.245859,9.60547"
       id="path15445"
       inkscape:path-effect="#path-effect15447"
       inkscape:original-d="m 95.000001,35 c 14.415529,3.202077 28.830829,6.4039 43.245859,9.60547" />
    <path
       style="fill:none;stroke:#000000;stroke-width:0.3;stroke-linecap:round;stroke-linejoin:miter;stroke-dasharray:0.30000001,0.90000004;stroke-dashoffset:1.20000005;stroke-opacity:1"
       d="M 140,35 V 64.998762"
       id="path15449"
       inkscape:path-effect="#path-effect15451"
       inkscape:original-d="m 140,35 c 2.6e-4,9.999984 2.6e-4,19.999572 0,29.998762" />
    <path
       style="fill:#000000;stroke:#000000;stroke-width:0.3;stroke-linecap:round;stroke-linejoin:bevel;stroke-dasharray:none;stroke-dashoffset:0;paint-order:fill markers stroke"
       id="path15926"
       sodipodi:type="arc"
       sodipodi:cx="95"
       sodipodi:cy="35"
       sodipodi:rx="20"
       sodipodi:ry="20"
       sodipodi:start="0"
       sodipodi:end="0.20943951"
       sodipodi:arc-type="arc"
       d="m 115,35 a 20,20 0 0 1 -0.43705,4.158234"
       sodipodi:open="true" />
    <path
       style="fill:none;stroke:#000000;stroke-width:0.3;stroke-linecap:round;stroke-linejoin:bevel;stroke-dasharray:none;stroke-dashoffset:0;paint-order:fill markers stroke"
       id="path15928"
       sodipodi:type="arc"
       sodipodi:cx="95"
       sodipodi:cy="65"
       sodipodi:rx="11"
       sodipodi:ry="11"
       sodipodi:start="5.8782689"
       sodipodi:end="6.265732"
       sodipodi:open="true"
       sodipodi:arc-type="arc"
       d="m 105.11049,60.666639 a 11,11 0 0 1 0.88783,4.141384" />
    <path
       style="fill:none;stroke:#000000;stroke-width:0.3;stroke-linecap:round;stroke-linejoin:bevel;stroke-dasharray:none;stroke-dashoffset:0;paint-order:fill markers stroke"
       id="path15974"
       sodipodi:type="arc"
       sodipodi:cx="85"
       sodipodi:cy="75.999992"
       sodipodi:rx="2"
       sodipodi:ry="2"
       sodipodi:start="3.1415927"
       sodipodi:end="4.712389"
       sodipodi:open="true"
       sodipodi:arc-type="arc"
       d="m 83,75.999992 a 2,2 0 0 1 2,-2" />
    <circle
       style="fill:#000000;stroke:#000000;stroke-width:0.3;stroke-linecap:round;stroke-linejoin:bevel;stroke-dasharray:none;stroke-dashoffset:0;paint-order:fill markers stroke"
       id="path15985"
       cx="84.238518"
       cy="75.213135"
       r="0.1" />
    <path
       style="fill:none;stroke:#4535be;stroke-width:0.300446;stroke-linecap:round;stroke-linejoin:miter;stroke-dasharray:none;stroke-opacity:1;marker-end:url(#marker15836_Fnone_S-4535be)"
       d="M 50.811966,54.768586 93.285801,35.767115"
       id="path15407"
       inkscape:path-effect="#path-effect15409"
       inkscape:original-d="M 50.811966,54.768586 C 64.970115,48.434963 79.128064,42.10114 93.285801,35.767115" />
    <g
       aria-label="s0"
       id="text22487-6"
       style="font-size:3.52777px;line-height:1.25;font-family:'Times New Roman';-inkscape-font-specification:'Times New Roman, ';text-align:center;text-anchor:middle;stroke-width:0.264583"
       transform="translate(0.44620434,0.58049933)" />
    <g
       aria-label="s'0"
       id="text23339"
       style="font-size:3.175px;line-height:1.25;font-family:'Times New Roman';-inkscape-font-specification:'Times New Roman, ';text-align:center;text-anchor:middle;stroke-width:0.264583;fill:#3942d0;fill-opacity:1">
      <path
         d="m 115.53891,41.008907 v 0.483691 h -0.0512 q -0.0589,-0.227893 -0.15193,-0.310059 -0.0915,-0.08216 -0.2341,-0.08216 -0.10852,0 -0.17518,0.05736 -0.0667,0.05736 -0.0667,0.127124 0,0.08682 0.0496,0.148828 0.0481,0.06356 0.19533,0.134875 l 0.22635,0.110071 q 0.31471,0.153479 0.31471,0.404627 0,0.193786 -0.14728,0.313159 -0.14573,0.117822 -0.32711,0.117822 -0.13023,0 -0.29766,-0.04651 -0.0512,-0.0155 -0.0837,-0.0155 -0.0357,0 -0.0558,0.04031 h -0.0512 v -0.506946 h 0.0512 q 0.0434,0.217041 0.16588,0.327112 0.12248,0.110071 0.27441,0.110071 0.10697,0 0.17363,-0.06201 0.0682,-0.06356 0.0682,-0.151929 0,-0.10697 -0.076,-0.179834 -0.0744,-0.07286 -0.29921,-0.184485 -0.22479,-0.111621 -0.29455,-0.201538 -0.0698,-0.08837 -0.0698,-0.223242 0,-0.175183 0.11937,-0.293005 0.12093,-0.117822 0.31161,-0.117822 0.0837,0 0.20309,0.03566 0.0791,0.02326 0.10542,0.02326 0.0248,0 0.0388,-0.01085 0.0139,-0.01085 0.0326,-0.04806 z"
         id="path24832"
         style="fill:#3942d0;fill-opacity:1" />
      <path
         d="m 116.00245,41.225948 -0.0837,-0.458887 q -0.0357,-0.190686 -0.0357,-0.257349 0,-0.09922 0.0403,-0.144177 0.0403,-0.04496 0.11007,-0.04496 0.0698,0 0.11472,0.04651 0.0465,0.04496 0.0465,0.119373 0,0.05736 -0.0403,0.282153 l -0.0837,0.457337 z"
         id="path24834"
         style="fill:#3942d0;fill-opacity:1" />
      <path
         d="m 116.40413,42.43068 q 0,-0.233784 0.0705,-0.402068 0.0705,-0.169292 0.18743,-0.251923 0.0907,-0.0655 0.18743,-0.0655 0.1572,0 0.28216,0.160223 0.15619,0.198515 0.15619,0.538107 0,0.237815 -0.0685,0.404084 -0.0685,0.166269 -0.17533,0.241845 -0.10581,0.07457 -0.20456,0.07457 -0.1955,0 -0.32549,-0.230761 -0.10984,-0.194484 -0.10984,-0.468576 z m 0.19751,0.02519 q 0,0.282153 0.0695,0.460514 0.0574,0.150146 0.17131,0.150146 0.0544,0 0.11286,-0.04837 0.0584,-0.04938 0.0887,-0.164254 0.0463,-0.173323 0.0463,-0.48873 0,-0.233784 -0.0484,-0.389976 -0.0363,-0.115884 -0.0937,-0.164253 -0.0413,-0.03325 -0.0998,-0.03325 -0.0685,0 -0.12193,0.06147 -0.0726,0.08364 -0.0987,0.263007 -0.0262,0.179369 -0.0262,0.3537 z"
         style="font-size:65%;baseline-shift:sub;fill:#3942d0;fill-opacity:1"
         id="path24836" />
    </g>
    <g
       aria-label="sz"
       id="text23345"
       style="font-size:3.175px;line-height:1.25;font-family:'Times New Roman';-inkscape-font-specification:'Times New Roman, ';text-align:center;text-anchor:middle;stroke-width:0.264583;fill:#000000;fill-opacity:1">
      <path
         d="m 78.861966,76.903072 v 0.483691 h -0.05116 q -0.05891,-0.227893 -0.151929,-0.310059 -0.09147,-0.08217 -0.234094,-0.08217 -0.108521,0 -0.175183,0.05736 -0.06666,0.05736 -0.06666,0.127124 0,0.08682 0.04961,0.148828 0.04806,0.06356 0.195337,0.134875 l 0.226343,0.110071 q 0.31471,0.153479 0.31471,0.404627 0,0.193786 -0.147278,0.313159 -0.145728,0.117822 -0.327112,0.117822 -0.130225,0 -0.297656,-0.04651 -0.05116,-0.0155 -0.08372,-0.0155 -0.03566,0 -0.05581,0.04031 h -0.05116 v -0.506946 h 0.05116 q 0.04341,0.217041 0.165882,0.327112 0.122473,0.110071 0.274401,0.110071 0.106971,0 0.173633,-0.06201 0.06821,-0.06356 0.06821,-0.151929 0,-0.10697 -0.07596,-0.179834 -0.07441,-0.07286 -0.299207,-0.184484 -0.224792,-0.111622 -0.294555,-0.201539 -0.06976,-0.08837 -0.06976,-0.223242 0,-0.175183 0.119373,-0.293005 0.120923,-0.117822 0.311609,-0.117822 0.08372,0 0.203088,0.03566 0.07906,0.02326 0.10542,0.02326 0.02481,0 0.03876,-0.01085 0.01395,-0.01085 0.03256,-0.04806 z"
         id="path24839"
         style="fill:#000000;fill-opacity:1" />
      <path
         d="m 79.947171,78.716837 -0.01108,0.283161 h -0.814214 v -0.03628 l 0.612676,-0.816229 h -0.302308 q -0.09775,0 -0.127976,0.0131 -0.03023,0.01209 -0.04938,0.04736 -0.02721,0.05038 -0.03124,0.124954 h -0.04031 l 0.006,-0.255953 h 0.773906 v 0.03728 l -0.618722,0.818245 h 0.336569 q 0.105807,0 0.143092,-0.01713 0.03829,-0.01814 0.06147,-0.06248 0.01612,-0.03225 0.02721,-0.136038 z"
         style="font-size:65%;baseline-shift:sub;fill:#000000;fill-opacity:1"
         id="path24841" />
    </g>
    <g
       aria-label="s0"
       id="text23351"
       style="font-size:3.175px;line-height:1.25;font-family:'Times New Roman';-inkscape-font-specification:'Times New Roman, ';text-align:center;text-anchor:middle;stroke-width:0.264583;fill:#ad8738;fill-opacity:1">
      <path
         d="m 76.883263,69.538074 v 0.483691 h -0.05116 q -0.05891,-0.227893 -0.151928,-0.310058 -0.09147,-0.08217 -0.234095,-0.08217 -0.10852,0 -0.175183,0.05736 -0.06666,0.05736 -0.06666,0.127124 0,0.08682 0.04961,0.148828 0.04806,0.06356 0.195337,0.134876 l 0.226343,0.11007 q 0.314709,0.153479 0.314709,0.404627 0,0.193786 -0.147278,0.313159 -0.145727,0.117822 -0.327111,0.117822 -0.130225,0 -0.297657,-0.04651 -0.05116,-0.0155 -0.08372,-0.0155 -0.03566,0 -0.05581,0.04031 h -0.05116 v -0.506946 h 0.05116 q 0.04341,0.217041 0.165881,0.327112 0.122473,0.110071 0.274402,0.110071 0.10697,0 0.173633,-0.06201 0.06821,-0.06356 0.06821,-0.151929 0,-0.10697 -0.07596,-0.179833 -0.07441,-0.07286 -0.299206,-0.184485 -0.224793,-0.111621 -0.294556,-0.201538 -0.06976,-0.08837 -0.06976,-0.223243 0,-0.175183 0.119373,-0.293005 0.120923,-0.117822 0.311609,-0.117822 0.08371,0 0.203088,0.03566 0.07906,0.02326 0.10542,0.02326 0.02481,0 0.03876,-0.01085 0.01395,-0.01085 0.03256,-0.04806 z"
         id="path24844"
         style="fill:#ad8738;fill-opacity:1" />
      <path
         d="m 77.176423,70.959847 q 0,-0.233784 0.07054,-0.402068 0.07054,-0.169292 0.18743,-0.251923 0.09069,-0.0655 0.18743,-0.0655 0.1572,0 0.282154,0.160222 0.156192,0.198515 0.156192,0.538107 0,0.237815 -0.06852,0.404084 -0.06852,0.166269 -0.175338,0.241845 -0.105808,0.07457 -0.204561,0.07457 -0.195492,0 -0.325484,-0.230762 -0.109839,-0.194484 -0.109839,-0.468576 z m 0.197508,0.02519 q 0,0.282153 0.06953,0.460514 0.05744,0.150146 0.171308,0.150146 0.05442,0 0.112861,-0.04837 0.05845,-0.04938 0.08868,-0.164254 0.04635,-0.173322 0.04635,-0.488729 0,-0.233785 -0.04837,-0.389977 -0.03628,-0.115884 -0.09372,-0.164253 -0.04131,-0.03325 -0.09976,-0.03325 -0.06852,0 -0.121931,0.06147 -0.07255,0.08364 -0.09875,0.263007 -0.0262,0.179369 -0.0262,0.3537 z"
         style="font-size:65%;baseline-shift:sub;fill:#ad8738;fill-opacity:1"
         id="path24846" />
    </g>
    <g
       aria-label="s0"
       id="text23351-0"
       style="font-size:3.175px;line-height:1.25;font-family:'Times New Roman';-inkscape-font-specification:'Times New Roman, ';text-align:center;text-anchor:middle;stroke-width:0.264583;fill:#ad8738;fill-opacity:1">
      <path
         d="m 116.82309,51.87889 v 0.483692 h -0.0512 q -0.0589,-0.227893 -0.15193,-0.310059 -0.0915,-0.08217 -0.23409,-0.08217 -0.10852,0 -0.17519,0.05736 -0.0667,0.05736 -0.0667,0.127124 0,0.08682 0.0496,0.148829 0.0481,0.06356 0.19534,0.134875 l 0.22634,0.110071 q 0.31471,0.153479 0.31471,0.404626 0,0.193787 -0.14728,0.313159 -0.14573,0.117823 -0.32711,0.117823 -0.13022,0 -0.29766,-0.04651 -0.0512,-0.0155 -0.0837,-0.0155 -0.0357,0 -0.0558,0.04031 h -0.0512 v -0.506946 h 0.0512 q 0.0434,0.217041 0.16588,0.327112 0.12247,0.11007 0.2744,0.11007 0.10697,0 0.17363,-0.06201 0.0682,-0.06356 0.0682,-0.151929 0,-0.10697 -0.076,-0.179834 -0.0744,-0.07286 -0.2992,-0.184485 -0.2248,-0.111621 -0.29456,-0.201538 -0.0698,-0.08837 -0.0698,-0.223242 0,-0.175183 0.11937,-0.293005 0.12092,-0.117823 0.31161,-0.117823 0.0837,0 0.20309,0.03566 0.0791,0.02325 0.10542,0.02325 0.0248,0 0.0387,-0.01085 0.014,-0.01085 0.0326,-0.04806 z"
         id="path24849"
         style="fill:#ad8738;fill-opacity:1" />
      <path
         d="m 117.11625,53.300664 q 0,-0.233784 0.0705,-0.402068 0.0705,-0.169292 0.18743,-0.251923 0.0907,-0.0655 0.18743,-0.0655 0.1572,0 0.28215,0.160223 0.15619,0.198515 0.15619,0.538106 0,0.237815 -0.0685,0.404084 -0.0685,0.166269 -0.17534,0.241846 -0.1058,0.07457 -0.20456,0.07457 -0.19549,0 -0.32548,-0.230761 -0.10984,-0.194484 -0.10984,-0.468576 z m 0.19751,0.02519 q 0,0.282154 0.0695,0.460515 0.0574,0.150146 0.17131,0.150146 0.0544,0 0.11286,-0.04837 0.0584,-0.04938 0.0887,-0.164253 0.0464,-0.173323 0.0464,-0.48873 0,-0.233784 -0.0484,-0.389976 -0.0363,-0.115884 -0.0937,-0.164254 -0.0413,-0.03325 -0.0998,-0.03325 -0.0685,0 -0.12193,0.06147 -0.0726,0.08364 -0.0987,0.263007 -0.0262,0.179369 -0.0262,0.353699 z"
         style="font-size:65%;baseline-shift:sub;fill:#ad8738;fill-opacity:1"
         id="path24851" />
    </g>
    <g
       aria-label="s0"
       id="text23351-9"
       style="font-size:3.175px;line-height:1.25;font-family:'Times New Roman';-inkscape-font-specification:'Times New Roman, ';text-align:center;text-anchor:middle;stroke-width:0.264583;fill:#3942d0;fill-opacity:1">
      <path
         d="m 70.883263,42.067241 v 0.483691 h -0.05116 q -0.05891,-0.227893 -0.151928,-0.310058 -0.09147,-0.08217 -0.234095,-0.08217 -0.10852,0 -0.175183,0.05736 -0.06666,0.05736 -0.06666,0.127124 0,0.08682 0.04961,0.148828 0.04806,0.06356 0.195337,0.134876 l 0.226343,0.11007 q 0.314709,0.153479 0.314709,0.404627 0,0.193787 -0.147278,0.313159 -0.145727,0.117822 -0.327111,0.117822 -0.130225,0 -0.297657,-0.04651 -0.05116,-0.0155 -0.08372,-0.0155 -0.03566,0 -0.05581,0.04031 h -0.05116 v -0.506946 h 0.05116 q 0.04341,0.217041 0.165881,0.327112 0.122473,0.110071 0.274402,0.110071 0.10697,0 0.173633,-0.06201 0.06821,-0.06356 0.06821,-0.151928 0,-0.106971 -0.07596,-0.179834 -0.07441,-0.07286 -0.299206,-0.184485 -0.224793,-0.111621 -0.294556,-0.201538 -0.06976,-0.08837 -0.06976,-0.223242 0,-0.175184 0.119373,-0.293006 0.120923,-0.117822 0.311609,-0.117822 0.08371,0 0.203088,0.03566 0.07906,0.02325 0.10542,0.02325 0.02481,0 0.03876,-0.01085 0.01395,-0.01085 0.03256,-0.04806 z"
         id="path24854"
         style="fill:#3942d0;fill-opacity:1" />
      <path
         d="m 71.176423,43.489015 q 0,-0.233785 0.07054,-0.402069 0.07054,-0.169292 0.18743,-0.251922 0.09069,-0.0655 0.18743,-0.0655 0.1572,0 0.282154,0.160223 0.156192,0.198515 0.156192,0.538106 0,0.237815 -0.06852,0.404084 -0.06852,0.166269 -0.175338,0.241846 -0.105808,0.07457 -0.204561,0.07457 -0.195492,0 -0.325484,-0.230761 -0.109839,-0.194485 -0.109839,-0.468576 z m 0.197508,0.02519 q 0,0.282153 0.06953,0.460514 0.05744,0.150146 0.171308,0.150146 0.05442,0 0.112861,-0.04837 0.05845,-0.04938 0.08868,-0.164253 0.04635,-0.173323 0.04635,-0.48873 0,-0.233784 -0.04837,-0.389976 -0.03628,-0.115885 -0.09372,-0.164254 -0.04131,-0.03325 -0.09976,-0.03325 -0.06852,0 -0.121931,0.06147 -0.07255,0.08364 -0.09875,0.263008 -0.0262,0.179368 -0.0262,0.353699 z"
         style="font-size:65%;baseline-shift:sub;fill:#3942d0;fill-opacity:1"
         id="path24856" />
    </g>
    <g
       aria-label="x"
       id="text23357"
       style="font-size:3.175px;line-height:1.25;font-family:'Times New Roman';-inkscape-font-specification:'Times New Roman, ';text-align:center;text-anchor:middle;stroke-width:0.264583">
      <path
         d="m 91.777275,28.579932 h 0.668176 v 0.05736 q -0.06356,0 -0.08992,0.0217 -0.0248,0.0217 -0.0248,0.05736 0,0.03721 0.05426,0.114722 0.01705,0.02481 0.05116,0.07752 l 0.100769,0.16123 0.116272,-0.16123 q 0.111621,-0.153479 0.111621,-0.193787 0,-0.03256 -0.02636,-0.05426 -0.02635,-0.02325 -0.08527,-0.02325 v -0.05736 h 0.48059 v 0.05736 q -0.07596,0.0047 -0.131774,0.04186 -0.07597,0.05271 -0.20774,0.229444 l -0.193786,0.258899 0.353466,0.508496 q 0.130225,0.187585 0.186036,0.226343 0.05581,0.03721 0.144177,0.04186 V 30 h -0.669727 v -0.05581 q 0.06976,0 0.108521,-0.03101 0.02945,-0.02171 0.02945,-0.05736 0,-0.03566 -0.09922,-0.179834 l -0.20774,-0.303858 -0.227893,0.303858 q -0.10542,0.141076 -0.10542,0.167431 0,0.03721 0.03411,0.06821 0.03566,0.02946 0.10542,0.03256 V 30 h -0.463538 v -0.05581 q 0.05581,-0.0078 0.09767,-0.03876 0.05891,-0.04496 0.198437,-0.229443 l 0.297656,-0.395325 -0.269751,-0.390674 q -0.114721,-0.167431 -0.178283,-0.209289 -0.06201,-0.04341 -0.15658,-0.04341 z"
         id="path24859" />
    </g>
    <g
       aria-label="f"
       id="text23365"
       style="font-size:3.175px;line-height:1.25;font-family:'Times New Roman';-inkscape-font-specification:'Times New Roman, ';text-align:center;text-anchor:middle;stroke-width:0.264583">
      <path
         d="m 140.12557,66.691553 v 0.933276 q 0,0.198438 0.0434,0.251148 0.0574,0.06821 0.15348,0.06821 h 0.12868 V 68 h -0.84801 v -0.05581 h 0.0636 q 0.062,0 0.11317,-0.031 0.0512,-0.03101 0.0698,-0.08372 0.0202,-0.05271 0.0202,-0.204639 v -0.933276 h -0.27596 v -0.111621 h 0.27596 v -0.09302 q 0,-0.21239 0.0682,-0.359668 0.0682,-0.147278 0.20774,-0.237195 0.14107,-0.09147 0.31626,-0.09147 0.16278,0 0.2992,0.10542 0.0899,0.06976 0.0899,0.15658 0,0.04651 -0.0403,0.08837 -0.0403,0.04031 -0.0868,0.04031 -0.0357,0 -0.076,-0.02481 -0.0387,-0.02635 -0.0961,-0.110071 -0.0574,-0.08527 -0.10542,-0.114721 -0.0481,-0.02946 -0.10697,-0.02946 -0.0713,0 -0.12092,0.03876 -0.0496,0.03721 -0.0713,0.117823 -0.0217,0.07906 -0.0217,0.410827 v 0.10232 h 0.36587 v 0.111621 z"
         id="path24862" />
    </g>
    <g
       aria-label="xf"
       id="text23369"
       style="font-size:3.175px;line-height:1.25;font-family:'Times New Roman';-inkscape-font-specification:'Times New Roman, ';text-align:center;text-anchor:middle;stroke-width:0.264583">
      <path
         d="m 141.37533,44.579932 h 0.66817 v 0.05736 q -0.0636,0 -0.0899,0.0217 -0.0248,0.0217 -0.0248,0.05736 0,0.03721 0.0543,0.114722 0.0171,0.02481 0.0512,0.07751 l 0.10077,0.16123 0.11627,-0.16123 q 0.11162,-0.153479 0.11162,-0.193787 0,-0.03256 -0.0264,-0.05426 -0.0264,-0.02325 -0.0853,-0.02325 v -0.05736 h 0.48059 v 0.05736 q -0.076,0.0046 -0.13177,0.04186 -0.076,0.05271 -0.20774,0.229444 l -0.19379,0.258899 0.35347,0.508496 q 0.13022,0.187585 0.18603,0.226343 0.0558,0.03721 0.14418,0.04186 V 46 h -0.66973 v -0.05581 q 0.0698,0 0.10852,-0.03101 0.0295,-0.02171 0.0295,-0.05736 0,-0.03566 -0.0992,-0.179834 l -0.20774,-0.303858 -0.22789,0.303858 q -0.10542,0.141076 -0.10542,0.167431 0,0.03721 0.0341,0.06821 0.0357,0.02946 0.10542,0.03256 V 46 h -0.46354 v -0.05581 q 0.0558,-0.0078 0.0977,-0.03876 0.0589,-0.04496 0.19843,-0.229443 l 0.29766,-0.395325 -0.26975,-0.390674 q -0.11472,-0.167431 -0.17828,-0.209289 -0.062,-0.04341 -0.15658,-0.04341 z"
         id="path24865" />
      <path
         d="m 143.34621,45.784509 v 0.60663 q 0,0.128984 0.0282,0.163246 0.0373,0.04434 0.0998,0.04434 h 0.0836 V 46.635 h -0.55121 v -0.03628 h 0.0413 q 0.0403,0 0.0736,-0.02015 0.0333,-0.02015 0.0453,-0.05441 0.0131,-0.03426 0.0131,-0.133015 v -0.60663 h -0.17936 v -0.07255 h 0.17936 v -0.06046 q 0,-0.138053 0.0443,-0.233784 0.0443,-0.09573 0.13503,-0.154177 0.0917,-0.05945 0.20557,-0.05945 0.10581,0 0.19449,0.06852 0.0584,0.04535 0.0584,0.101776 0,0.03023 -0.0262,0.05744 -0.0262,0.0262 -0.0564,0.0262 -0.0232,0 -0.0494,-0.01612 -0.0252,-0.01713 -0.0625,-0.07155 -0.0373,-0.05542 -0.0685,-0.07457 -0.0312,-0.01915 -0.0695,-0.01915 -0.0464,0 -0.0786,0.02519 -0.0322,0.02418 -0.0463,0.07658 -0.0141,0.05139 -0.0141,0.267038 v 0.06651 h 0.23782 v 0.07255 z"
         style="font-size:65%;baseline-shift:sub"
         id="path24867" />
    </g>
    <g
       aria-label="x0"
       id="text23375"
       style="font-size:3.175px;line-height:1.25;font-family:'Times New Roman';-inkscape-font-specification:'Times New Roman, ';text-align:center;text-anchor:middle;stroke-width:0.264583">
      <path
         d="m 91.587502,32.999998 h 0.668176 v 0.05736 q -0.06356,0 -0.08992,0.0217 -0.02481,0.02171 -0.02481,0.05736 0,0.03721 0.05426,0.114722 0.01705,0.02481 0.05116,0.07751 l 0.100769,0.16123 0.116272,-0.16123 q 0.111622,-0.153479 0.111622,-0.193787 0,-0.03256 -0.02636,-0.05426 -0.02635,-0.02325 -0.08527,-0.02325 v -0.05736 h 0.480591 v 0.05736 q -0.07596,0.0047 -0.131775,0.04186 -0.07596,0.05271 -0.207739,0.229444 l -0.193787,0.258899 0.353467,0.508496 q 0.130225,0.187585 0.186035,0.226342 0.05581,0.03721 0.144178,0.04186 v 0.05581 H 92.42466 v -0.05581 q 0.06976,0 0.108521,-0.03101 0.02945,-0.0217 0.02945,-0.05736 0,-0.03566 -0.09922,-0.179834 l -0.207739,-0.303858 -0.227893,0.303858 q -0.10542,0.141076 -0.10542,0.167431 0,0.03721 0.03411,0.06821 0.03566,0.02946 0.10542,0.03256 v 0.05581 h -0.463538 v -0.05581 q 0.05581,-0.0078 0.09767,-0.03876 0.05891,-0.04496 0.198438,-0.229443 l 0.297656,-0.395325 -0.269751,-0.390674 q -0.114722,-0.167432 -0.178284,-0.209289 -0.06201,-0.04341 -0.156579,-0.04341 z"
         id="path24870" />
      <path
         d="m 93.207713,34.379914 q 0,-0.233784 0.07054,-0.402068 0.07054,-0.169292 0.187431,-0.251923 0.09069,-0.0655 0.18743,-0.0655 0.1572,0 0.282153,0.160223 0.156192,0.198515 0.156192,0.538107 0,0.237815 -0.06852,0.404084 -0.06852,0.166269 -0.175339,0.241845 -0.105807,0.07457 -0.204561,0.07457 -0.195492,0 -0.325484,-0.230761 -0.109838,-0.194484 -0.109838,-0.468576 z m 0.197507,0.02519 q 0,0.282153 0.06953,0.460514 0.05744,0.150146 0.171307,0.150146 0.05442,0 0.112862,-0.04837 0.05845,-0.04938 0.08868,-0.164254 0.04635,-0.173322 0.04635,-0.48873 0,-0.233784 -0.04837,-0.389976 -0.03628,-0.115884 -0.09371,-0.164253 -0.04132,-0.03325 -0.09976,-0.03325 -0.06852,0 -0.12193,0.06147 -0.07255,0.08364 -0.09875,0.263007 -0.0262,0.179369 -0.0262,0.3537 z"
         style="font-size:65%;baseline-shift:sub"
         id="path24872" />
    </g>
    <g
       aria-label="z"
       id="text23381"
       style="font-size:3.175px;line-height:1.25;font-family:'Times New Roman';-inkscape-font-specification:'Times New Roman, ';text-align:center;text-anchor:middle;stroke-width:0.264583">
      <path
         d="M 149.62864,67.564368 149.61159,68 h -1.25264 v -0.05581 l 0.94258,-1.255737 h -0.46509 q -0.15037,0 -0.19688,0.02015 -0.0465,0.0186 -0.076,0.07286 -0.0419,0.07751 -0.0481,0.192236 h -0.062 l 0.009,-0.393774 h 1.19063 v 0.05736 l -0.95188,1.258837 h 0.5178 q 0.16278,0 0.22014,-0.02635 0.0589,-0.02791 0.0946,-0.09612 0.0248,-0.04961 0.0419,-0.209289 z"
         id="path24875" />
    </g>
    <g
       aria-label="sx"
       id="text23391"
       style="font-size:3.175px;line-height:1.25;font-family:'Times New Roman';-inkscape-font-specification:'Times New Roman, ';text-align:center;text-anchor:middle;stroke-width:0.264583;fill:#000000;fill-opacity:1">
      <path
         d="m 86.883263,71.538074 v 0.483691 h -0.05116 q -0.05891,-0.227893 -0.151928,-0.310058 -0.09147,-0.08217 -0.234095,-0.08217 -0.10852,0 -0.175183,0.05736 -0.06666,0.05736 -0.06666,0.127124 0,0.08682 0.04961,0.148828 0.04806,0.06356 0.195337,0.134876 l 0.226343,0.11007 q 0.314709,0.153479 0.314709,0.404627 0,0.193786 -0.147278,0.313159 -0.145727,0.117822 -0.327111,0.117822 -0.130225,0 -0.297657,-0.04651 -0.05116,-0.0155 -0.08372,-0.0155 -0.03566,0 -0.05581,0.04031 h -0.05116 v -0.506946 h 0.05116 q 0.04341,0.217041 0.165881,0.327112 0.122473,0.110071 0.274402,0.110071 0.10697,0 0.173633,-0.06201 0.06821,-0.06356 0.06821,-0.151929 0,-0.10697 -0.07596,-0.179833 -0.07441,-0.07286 -0.299206,-0.184485 -0.224793,-0.111621 -0.294556,-0.201538 -0.06976,-0.08837 -0.06976,-0.223243 0,-0.175183 0.119373,-0.293005 0.120923,-0.117822 0.311609,-0.117822 0.08371,0 0.203088,0.03566 0.07906,0.02326 0.10542,0.02326 0.02481,0 0.03876,-0.01085 0.01395,-0.01085 0.03256,-0.04806 z"
         id="path24878"
         style="fill:#000000;fill-opacity:1" />
      <path
         d="m 87.129062,72.711956 h 0.434314 v 0.03728 q -0.04132,0 -0.05845,0.01411 -0.01612,0.01411 -0.01612,0.03728 0,0.02419 0.03527,0.07457 0.01109,0.01612 0.03325,0.05038 l 0.0655,0.1048 0.07558,-0.1048 q 0.07255,-0.09976 0.07255,-0.125961 0,-0.02116 -0.01713,-0.03527 -0.01713,-0.01512 -0.05542,-0.01512 v -0.03728 h 0.312384 v 0.03728 q -0.04938,0.003 -0.08565,0.02721 -0.04938,0.03426 -0.13503,0.149138 l -0.125962,0.168284 0.229754,0.330523 q 0.08465,0.12193 0.120923,0.147122 0.03628,0.02418 0.09372,0.02721 V 73.635 h -0.435322 v -0.03628 q 0.04535,0 0.07054,-0.02015 0.01915,-0.01411 0.01915,-0.03728 0,-0.02318 -0.06449,-0.116892 l -0.135031,-0.197508 -0.14813,0.197508 q -0.06852,0.0917 -0.06852,0.10883 0,0.02418 0.02217,0.04434 0.02318,0.01915 0.06852,0.02116 V 73.635 h -0.301299 v -0.03628 q 0.03628,-0.005 0.06348,-0.02519 0.03829,-0.02922 0.128985,-0.149138 l 0.193476,-0.256961 -0.175338,-0.253938 q -0.07457,-0.108831 -0.115884,-0.136038 -0.04031,-0.02822 -0.101777,-0.02822 z"
         style="font-size:65%;baseline-shift:sub;fill:#000000;fill-opacity:1"
         id="path24880" />
    </g>
    <g
       aria-label="εx"
       id="text23403"
       style="font-size:3.175px;line-height:1.25;font-family:'Times New Roman';-inkscape-font-specification:'Times New Roman, ';text-align:center;text-anchor:middle;stroke-width:0.264583">
      <path
         d="m 102.30733,63.248108 q -0.30541,-0.108521 -0.30541,-0.328662 0,-0.173633 0.16123,-0.277503 0.16278,-0.103869 0.40308,-0.103869 0.21859,0 0.34726,0.07286 0.12868,0.07131 0.12868,0.172082 0,0.05271 -0.0403,0.09302 -0.0403,0.03876 -0.093,0.03876 -0.0868,0 -0.14262,-0.120923 -0.0775,-0.167432 -0.23255,-0.167432 -0.12247,0 -0.20154,0.08062 -0.0791,0.08062 -0.0791,0.224792 0,0.283704 0.293,0.283704 0.031,0 0.0713,-0.0062 0.0698,-0.0093 0.10852,-0.0093 0.0946,0 0.0946,0.05426 0,0.06046 -0.0961,0.06046 -0.0341,0 -0.10232,-0.01085 -0.0512,-0.0093 -0.0791,-0.0093 -0.31005,0 -0.31005,0.316259 0,0.153479 0.0822,0.248047 0.0822,0.09302 0.22944,0.09302 0.18449,0 0.24495,-0.190686 0.031,-0.100769 0.0682,-0.139526 0.0388,-0.03876 0.10232,-0.03876 0.0527,0 0.0946,0.03876 0.0434,0.03721 0.0434,0.09612 0,0.141076 -0.15813,0.234094 -0.15813,0.09147 -0.38292,0.09147 -0.2465,0 -0.43874,-0.117822 -0.19068,-0.117822 -0.19068,-0.31471 0,-0.246496 0.37982,-0.362768 z"
         id="path24883" />
      <path
         d="m 103.1779,63.711956 h 0.43431 v 0.03728 q -0.0413,0 -0.0585,0.01411 -0.0161,0.01411 -0.0161,0.03728 0,0.02419 0.0353,0.07457 0.0111,0.01612 0.0333,0.05039 l 0.0655,0.1048 0.0756,-0.1048 q 0.0725,-0.09976 0.0725,-0.125961 0,-0.02116 -0.0171,-0.03527 -0.0171,-0.01512 -0.0554,-0.01512 v -0.03728 h 0.31239 v 0.03728 q -0.0494,0.003 -0.0857,0.02721 -0.0494,0.03426 -0.13503,0.149138 l -0.12596,0.168284 0.22975,0.330523 q 0.0846,0.12193 0.12093,0.147122 0.0363,0.02418 0.0937,0.02721 V 64.635 h -0.43532 v -0.03628 q 0.0453,0 0.0705,-0.02015 0.0191,-0.01411 0.0191,-0.03728 0,-0.02318 -0.0645,-0.116892 l -0.13503,-0.197508 -0.14813,0.197508 q -0.0685,0.0917 -0.0685,0.10883 0,0.02418 0.0222,0.04434 0.0232,0.01915 0.0685,0.02116 V 64.635 h -0.3013 v -0.03628 q 0.0363,-0.005 0.0635,-0.02519 0.0383,-0.02922 0.12899,-0.149138 l 0.19348,-0.256961 -0.17534,-0.253938 q -0.0746,-0.108831 -0.11589,-0.136038 -0.0403,-0.02822 -0.10177,-0.02822 z"
         style="font-size:65%;baseline-shift:sub"
         id="path24885" />
    </g>
    <g
       aria-label="ε'x"
       id="text23409"
       style="font-size:3.175px;line-height:1.25;font-family:'Times New Roman';-inkscape-font-specification:'Times New Roman, ';text-align:center;text-anchor:middle;stroke-width:0.264583">
      <path
         d="m 111.0213,36.718941 q -0.30541,-0.108521 -0.30541,-0.328662 0,-0.173633 0.16123,-0.277503 0.16278,-0.103869 0.40308,-0.103869 0.21859,0 0.34726,0.07286 0.12868,0.07131 0.12868,0.172083 0,0.05271 -0.0403,0.09302 -0.0403,0.03876 -0.093,0.03876 -0.0868,0 -0.14262,-0.120923 -0.0775,-0.167432 -0.23255,-0.167432 -0.12247,0 -0.20154,0.08062 -0.0791,0.08062 -0.0791,0.224792 0,0.283704 0.29301,0.283704 0.031,0 0.0713,-0.0062 0.0698,-0.0093 0.10852,-0.0093 0.0946,0 0.0946,0.05426 0,0.06046 -0.0961,0.06046 -0.0341,0 -0.10232,-0.01085 -0.0512,-0.0093 -0.0791,-0.0093 -0.31005,0 -0.31005,0.316259 0,0.153479 0.0822,0.248047 0.0822,0.09302 0.22944,0.09302 0.18449,0 0.24495,-0.190686 0.031,-0.100769 0.0682,-0.139527 0.0388,-0.03876 0.10232,-0.03876 0.0527,0 0.0946,0.03876 0.0434,0.03721 0.0434,0.09612 0,0.141076 -0.15813,0.234094 -0.15813,0.09147 -0.38292,0.09147 -0.2465,0 -0.43874,-0.117822 -0.19068,-0.117823 -0.19068,-0.31471 0,-0.246496 0.37982,-0.362768 z"
         id="path24888" />
      <path
         d="m 112.10961,36.225948 -0.0837,-0.458887 q -0.0357,-0.190686 -0.0357,-0.257349 0,-0.09922 0.0403,-0.144177 0.0403,-0.04496 0.11007,-0.04496 0.0698,0 0.11472,0.04651 0.0465,0.04496 0.0465,0.119373 0,0.05736 -0.0403,0.282153 l -0.0837,0.457337 z"
         id="path24890" />
      <path
         d="m 112.46393,37.182788 h 0.43431 v 0.03728 q -0.0413,0 -0.0585,0.01411 -0.0161,0.01411 -0.0161,0.03728 0,0.02419 0.0353,0.07457 0.0111,0.01612 0.0332,0.05038 l 0.0655,0.1048 0.0756,-0.1048 q 0.0725,-0.09976 0.0725,-0.125961 0,-0.02116 -0.0171,-0.03527 -0.0171,-0.01512 -0.0554,-0.01512 v -0.03728 h 0.31238 v 0.03728 q -0.0494,0.003 -0.0857,0.02721 -0.0494,0.03426 -0.13503,0.149138 l -0.12596,0.168284 0.22975,0.330523 q 0.0847,0.12193 0.12093,0.147122 0.0363,0.02419 0.0937,0.02721 v 0.03628 h -0.43532 v -0.03628 q 0.0453,0 0.0705,-0.02015 0.0191,-0.01411 0.0191,-0.03728 0,-0.02318 -0.0645,-0.116892 l -0.13503,-0.197508 -0.14813,0.197508 q -0.0685,0.0917 -0.0685,0.10883 0,0.02419 0.0222,0.04434 0.0232,0.01915 0.0685,0.02116 v 0.03628 h -0.3013 v -0.03628 q 0.0363,-0.005 0.0635,-0.02519 0.0383,-0.02922 0.12899,-0.149138 l 0.19347,-0.256961 -0.17533,-0.253938 q -0.0746,-0.108831 -0.11589,-0.136039 -0.0403,-0.02822 -0.10177,-0.02822 z"
         style="font-size:65%;baseline-shift:sub"
         id="path24892" />
    </g>
    <g
       aria-label="0"
       id="text23449"
       style="font-size:3.175px;line-height:1.25;font-family:'Times New Roman';-inkscape-font-specification:'Times New Roman, ';text-align:center;text-anchor:middle;stroke-width:0.264583">
      <path
         d="m 93.640392,67.106911 q 0,-0.359668 0.10852,-0.618567 0.108521,-0.260449 0.288355,-0.387573 0.139526,-0.100769 0.288354,-0.100769 0.241846,0 0.434082,0.246496 0.240295,0.305408 0.240295,0.827857 0,0.365869 -0.105419,0.621667 -0.10542,0.255798 -0.269751,0.37207 -0.162781,0.114722 -0.31471,0.114722 -0.300757,0 -0.500745,-0.355017 -0.168981,-0.299207 -0.168981,-0.720886 z m 0.303857,0.03876 q 0,0.434082 0.10697,0.708484 0.08837,0.230994 0.26355,0.230994 0.08372,0 0.173633,-0.07441 0.08992,-0.07597 0.136426,-0.252698 0.07131,-0.266651 0.07131,-0.751892 0,-0.359668 -0.07441,-0.599964 -0.05581,-0.178283 -0.144177,-0.252697 -0.06356,-0.05116 -0.153479,-0.05116 -0.10542,0 -0.187586,0.09457 -0.111621,0.128674 -0.151928,0.404626 -0.04031,0.275952 -0.04031,0.544153 z"
         id="path24895" />
    </g>
    <text
       xml:space="preserve"
       style="font-size:2.82222px;line-height:1.25;font-family:'Times New Roman';-inkscape-font-specification:'Times New Roman, ';text-align:center;text-anchor:middle;stroke-width:0.264583"
       x="-49.965992"
       y="92.951767"
       id="text52128"
       transform="rotate(-90)"><tspan
         sodipodi:role="line"
         id="tspan52126"
         style="font-size:2.82222px;stroke-width:0.264583"
         x="-49.965992"
         y="92.951767">Lens Axis</tspan></text>
    <text
       xml:space="preserve"
       style="font-size:2.82222px;line-height:1.25;font-family:'Times New Roman';-inkscape-font-specification:'Times New Roman, ';text-align:center;text-anchor:middle;stroke-width:0.264583"
       x="120.00508"
       y="68.867256"
       id="text52132"><tspan
         sodipodi:role="line"
         id="tspan52130"
         style="font-size:2.82222px;stroke-width:0.264583"
         x="120.00508"
         y="68.867256">Optical Axis</tspan></text>
  </g>
</svg>
