<?xml version="1.0" encoding="UTF-8" standalone="no"?>
<!-- Created with Inkscape (http://www.inkscape.org/) -->

<svg
   width="205mm"
   height="24.301077mm"
   viewBox="0 0 205 24.301077"
   version="1.1"
   id="svg5"
   inkscape:version="1.1.2 (0a00cf5339, 2022-02-04)"
   sodipodi:docname="Oberflächen_Erweiterung.svg"
   xmlns:inkscape="http://www.inkscape.org/namespaces/inkscape"
   xmlns:sodipodi="http://sodipodi.sourceforge.net/DTD/sodipodi-0.dtd"
   xmlns="http://www.w3.org/2000/svg"
   xmlns:svg="http://www.w3.org/2000/svg">
  <sodipodi:namedview
     id="namedview7"
     pagecolor="#ffffff"
     bordercolor="#666666"
     borderopacity="1.0"
     inkscape:pageshadow="2"
     inkscape:pageopacity="0.0"
     inkscape:pagecheckerboard="0"
     inkscape:document-units="mm"
     showgrid="true"
     inkscape:zoom="3.5012442"
     inkscape:cx="614.49584"
     inkscape:cy="99.393239"
     inkscape:window-width="2560"
     inkscape:window-height="1363"
     inkscape:window-x="1920"
     inkscape:window-y="0"
     inkscape:window-maximized="1"
     inkscape:current-layer="layer1"
     inkscape:snap-midpoints="false"
     inkscape:snap-bbox="true"
     width="210mm">
    <inkscape:grid
       type="xygrid"
       id="grid54774"
       originx="-3.7224821"
       originy="-62.476177" />
  </sodipodi:namedview>
  <defs
     id="defs2">
    <rect
       x="533.96228"
       y="66.231773"
       width="132.28346"
       height="37.795277"
       id="rect85267" />
    <rect
       x="163.56857"
       y="62.452244"
       width="120.94488"
       height="37.795277"
       id="rect79190" />
    <rect
       x="29.342838"
       y="296.72787"
       width="48.45084"
       height="34.626049"
       id="rect43516" />
    <rect
       x="18.92555"
       y="347.67654"
       width="58.909191"
       height="37.243259"
       id="rect39484" />
    <marker
       style="overflow:visible"
       id="Arrow1Mend"
       refX="0"
       refY="0"
       orient="auto"
       inkscape:stockid="Arrow1Mend"
       inkscape:isstock="true">
      <path
         transform="matrix(-0.4,0,0,-0.4,-4,0)"
         style="fill:context-stroke;fill-rule:evenodd;stroke:context-stroke;stroke-width:1pt"
         d="M 0,0 5,-5 -12.5,0 5,5 Z"
         id="path4519" />
    </marker>
    <marker
       style="overflow:visible"
       id="Arrow1Mstart"
       refX="0"
       refY="0"
       orient="auto"
       inkscape:stockid="Arrow1Mstart"
       inkscape:isstock="true">
      <path
         transform="matrix(0.4,0,0,0.4,4,0)"
         style="fill:context-stroke;fill-rule:evenodd;stroke:context-stroke;stroke-width:1pt"
         d="M 0,0 5,-5 -12.5,0 5,5 Z"
         id="path4516" />
    </marker>
    <marker
       style="overflow:visible"
       id="Arrow1Sstart"
       refX="0"
       refY="0"
       orient="auto"
       inkscape:stockid="Arrow1Sstart"
       inkscape:isstock="true">
      <path
         transform="matrix(0.2,0,0,0.2,1.2,0)"
         style="fill:context-stroke;fill-rule:evenodd;stroke:context-stroke;stroke-width:1pt"
         d="M 0,0 5,-5 -12.5,0 5,5 Z"
         id="path4522" />
    </marker>
    <rect
       x="447.57123"
       y="345.47812"
       width="245.32159"
       height="52.884186"
       id="rect15549" />
    <rect
       x="147.58099"
       y="345.90823"
       width="214.90143"
       height="52.745392"
       id="rect8479" />
    <marker
       style="overflow:visible"
       id="marker6915"
       refX="0"
       refY="0"
       orient="auto"
       inkscape:stockid="Arrow2Mend"
       inkscape:isstock="true">
      <path
         transform="scale(-0.6)"
         d="M 8.7185878,4.0337352 -2.2072895,0.01601326 8.7185884,-4.0017078 c -1.7454984,2.3720609 -1.7354408,5.6174519 -6e-7,8.035443 z"
         style="fill:context-stroke;fill-rule:evenodd;stroke-width:0.625;stroke-linejoin:round"
         id="path6913" />
    </marker>
    <marker
       style="overflow:visible"
       id="marker6905"
       refX="0"
       refY="0"
       orient="auto"
       inkscape:stockid="Arrow2Lend"
       inkscape:isstock="true">
      <path
         transform="matrix(-1.1,0,0,-1.1,-1.1,0)"
         d="M 8.7185878,4.0337352 -2.2072895,0.01601326 8.7185884,-4.0017078 c -1.7454984,2.3720609 -1.7354408,5.6174519 -6e-7,8.035443 z"
         style="fill:context-stroke;fill-rule:evenodd;stroke-width:0.625;stroke-linejoin:round"
         id="path6903" />
    </marker>
    <marker
       style="overflow:visible"
       id="Arrow1Lend"
       refX="0"
       refY="0"
       orient="auto"
       inkscape:stockid="Arrow1Lend"
       inkscape:isstock="true">
      <path
         transform="matrix(-0.8,0,0,-0.8,-10,0)"
         style="fill:context-stroke;fill-rule:evenodd;stroke:context-stroke;stroke-width:1pt"
         d="M 0,0 5,-5 -12.5,0 5,5 Z"
         id="path4513" />
    </marker>
    <marker
       style="overflow:visible"
       id="Arrow2Lend"
       refX="0"
       refY="0"
       orient="auto"
       inkscape:stockid="Arrow2Lend"
       inkscape:isstock="true">
      <path
         transform="matrix(-1.1,0,0,-1.1,-1.1,0)"
         d="M 8.7185878,4.0337352 -2.2072895,0.01601326 8.7185884,-4.0017078 c -1.7454984,2.3720609 -1.7354408,5.6174519 -6e-7,8.035443 z"
         style="fill:context-stroke;fill-rule:evenodd;stroke-width:0.625;stroke-linejoin:round"
         id="path4531" />
    </marker>
    <marker
       style="overflow:visible"
       id="Arrow2Mend"
       refX="0"
       refY="0"
       orient="auto"
       inkscape:stockid="Arrow2Mend"
       inkscape:isstock="true">
      <path
         transform="scale(-0.6)"
         d="M 8.7185878,4.0337352 -2.2072895,0.01601326 8.7185884,-4.0017078 c -1.7454984,2.3720609 -1.7354408,5.6174519 -6e-7,8.035443 z"
         style="fill:context-stroke;fill-rule:evenodd;stroke-width:0.625;stroke-linejoin:round"
         id="path4537" />
    </marker>
    <marker
       style="overflow:visible"
       id="Arrow1Send"
       refX="0"
       refY="0"
       orient="auto"
       inkscape:stockid="Arrow1Send"
       inkscape:isstock="true">
      <path
         transform="matrix(-0.2,0,0,-0.2,-1.2,0)"
         style="fill:context-stroke;fill-rule:evenodd;stroke:context-stroke;stroke-width:1pt"
         d="M 0,0 5,-5 -12.5,0 5,5 Z"
         id="path4525" />
    </marker>
    <marker
       style="overflow:visible"
       id="Arrow1Lstart"
       refX="0"
       refY="0"
       orient="auto"
       inkscape:stockid="Arrow1Lstart"
       inkscape:isstock="true">
      <path
         transform="matrix(0.8,0,0,0.8,10,0)"
         style="fill:context-stroke;fill-rule:evenodd;stroke:context-stroke;stroke-width:1pt"
         d="M 0,0 5,-5 -12.5,0 5,5 Z"
         id="path4510" />
    </marker>
    <marker
       style="overflow:visible"
       id="Arrow2Mend-5"
       refX="0"
       refY="0"
       orient="auto"
       inkscape:stockid="Arrow2Mend"
       inkscape:isstock="true">
      <path
         transform="scale(-0.6)"
         d="M 8.7185878,4.0337352 -2.2072895,0.01601326 8.7185884,-4.0017078 c -1.7454984,2.3720609 -1.7354408,5.6174519 -6e-7,8.035443 z"
         style="fill:context-stroke;fill-rule:evenodd;stroke-width:0.625;stroke-linejoin:round"
         id="path4537-3" />
    </marker>
    <marker
       style="overflow:visible"
       id="Arrow1Mend-9"
       refX="0"
       refY="0"
       orient="auto"
       inkscape:stockid="Arrow1Mend"
       inkscape:isstock="true">
      <path
         transform="matrix(-0.4,0,0,-0.4,-4,0)"
         style="fill:context-stroke;fill-rule:evenodd;stroke:context-stroke;stroke-width:1pt"
         d="M 0,0 5,-5 -12.5,0 5,5 Z"
         id="path4519-1" />
    </marker>
  </defs>
  <g
     inkscape:label="Layer 1"
     inkscape:groupmode="layer"
     id="layer1"
     transform="translate(-3.7224823,-62.476176)">
    <path
       style="fill:none;stroke:#000000;stroke-width:0.601;stroke-linecap:round;stroke-linejoin:miter;stroke-miterlimit:4;stroke-dasharray:none;stroke-opacity:1"
       d="m 28.328746,77.481085 c 6.174548,5.88184 11.010684,0.158841 16.234903,-8.129501 3.890404,-6.539869 10.397176,-6.458719 14.179462,-6.574907"
       id="path42"
       sodipodi:nodetypes="ccc" />
    <path
       style="fill:none;stroke:#000000;stroke-width:0.601;stroke-linecap:round;stroke-linejoin:miter;stroke-miterlimit:4;stroke-dasharray:none;stroke-opacity:1"
       d="m 93.919979,77.481085 c -6.17455,5.88184 -11.010686,0.158841 -16.234905,-8.129501 -3.890404,-6.539869 -10.39718,-6.458719 -14.17946,-6.574907"
       id="path42-3"
       sodipodi:nodetypes="ccc" />
    <path
       style="fill:#f90000;fill-opacity:1;stroke:#fe0000;stroke-width:0.601;stroke-linecap:butt;stroke-linejoin:miter;stroke-miterlimit:4;stroke-dasharray:1.202, 0.601;stroke-dashoffset:0;stroke-opacity:1"
       d="m 156.37474,62.776676 h 4.76253"
       id="path2846" />
    <g
       id="path4151">
      <path
         style="color:#000000;fill:#ff0000;stroke-dasharray:1.202, 0.601;-inkscape-stroke:none"
         d="m 192.46875,79.59375 v 0.601562 h 1.20312 V 79.59375 Z m 1.80469,0 v 0.601562 h 1.20117 V 79.59375 Z m 1.80273,0 v 0.601562 h 1.20117 V 79.59375 Z m 1.80274,0 v 0.601562 h 1.20117 V 79.59375 Z m 1.80273,0 v 0.601562 h 1.20117 V 79.59375 Z m 1.80273,0 v 0.601562 h 1.20313 V 79.59375 Z"
         id="path19812" />
      <g
         id="g19802">
        <g
           id="path19804">
          <path
             style="color:#000000;fill:#ff0000;fill-rule:evenodd;stroke-width:0.2404pt;-inkscape-stroke:none"
             d="m 200.30445,79.894127 -1.202,1.202 4.207,-1.202 -4.207,-1.202 z"
             id="path19808" />
          <path
             style="color:#000000;fill:#ff0000;fill-rule:evenodd;-inkscape-stroke:none"
             d="m 198.55273,78.367187 1.52539,1.527344 -1.52539,1.525391 5.33985,-1.525391 z m 1.09961,0.648438 3.07422,0.878906 -3.07422,0.876953 0.87891,-0.876953 -0.11328,-0.113281 z"
             id="path19810" />
        </g>
      </g>
    </g>
    <path
       style="fill:none;stroke:#ff0000;stroke-width:0.621;stroke-linecap:butt;stroke-linejoin:miter;stroke-miterlimit:4;stroke-dasharray:1.242, 0.621;stroke-dashoffset:0;stroke-opacity:1;paint-order:normal"
       d="m 191.55169,77.481085 v 2.723082"
       id="path4320" />
    <path
       style="fill:none;stroke:#000000;stroke-width:0.601;stroke-linecap:round;stroke-linejoin:miter;stroke-miterlimit:4;stroke-dasharray:none;stroke-opacity:1"
       d="m 191.55169,77.481085 c -6.17456,5.88184 -11.0107,0.158841 -16.23492,-8.129501 -3.8904,-6.539869 -10.3972,-6.458719 -14.1795,-6.574907"
       id="path42-3-7"
       sodipodi:nodetypes="ccc" />
    <g
       id="path4151-5"
       style="stroke-width:1;stroke-miterlimit:4;stroke-dasharray:none">
      <g
         id="g19788"
         style="stroke-width:1;stroke-miterlimit:4;stroke-dasharray:none">
        <g
           id="path19790"
           style="stroke-width:1;stroke-miterlimit:4;stroke-dasharray:none">
          <path
             style="color:#000000;fill:#ff0000;fill-rule:evenodd;stroke-width:1;stroke-miterlimit:4;stroke-dasharray:none"
             d="m 117.20744,79.894127 1.202,-1.202 -4.207,1.202 4.207,1.202 z"
             id="path19794" />
          <path
             style="color:#000000;fill:#ff0000;fill-rule:evenodd;stroke-width:1;stroke-miterlimit:4;stroke-dasharray:none"
             d="m 118.96094,78.367187 -5.3418,1.527344 5.3418,1.525391 -1.52735,-1.525391 z m -1.10156,0.648438 -0.87891,0.878906 0.11328,0.113281 0.76563,0.763672 -3.07422,-0.876953 z"
             id="path19796" />
        </g>
      </g>
      <path
         style="color:#000000;fill:#ff0000;stroke-linejoin:round;stroke-dasharray:none;paint-order:fill markers stroke;stroke-width:1;stroke-miterlimit:4"
         d="m 114.82422,79.59375 v 0.601562 h 1.20312 V 79.59375 Z m 1.80469,0 v 0.601562 h 1.20117 V 79.59375 Z m 1.80273,0 v 0.601562 h 1.20117 V 79.59375 Z m 1.80274,0 v 0.601562 h 1.20117 V 79.59375 Z m 1.80273,0 v 0.601562 h 1.20117 V 79.59375 Z m 1.80273,0 v 0.601562 h 1.20313 V 79.59375 Z"
         id="path19798" />
    </g>
    <path
       style="fill:none;stroke:#ff0000;stroke-width:0.621;stroke-linecap:butt;stroke-linejoin:miter;stroke-miterlimit:4;stroke-dasharray:1.242, 0.621;stroke-dashoffset:0;stroke-opacity:1;paint-order:normal"
       d="m 125.9602,77.481085 v 2.723082"
       id="path4320-6" />
    <path
       style="fill:none;stroke:#000000;stroke-width:0.601;stroke-linecap:round;stroke-linejoin:miter;stroke-miterlimit:4;stroke-dasharray:none;stroke-opacity:1"
       d="m 125.9602,77.481085 c 6.17459,5.88184 11.01075,0.158841 16.235,-8.129501 3.89043,-6.539869 10.39723,-6.458719 14.17954,-6.574907"
       id="path42-6"
       sodipodi:nodetypes="ccc" />
    <text
       xml:space="preserve"
       transform="matrix(0.26458333,0,0,0.26458333,-6.4036102,-10.602818)"
       id="text8477"
       style="font-style:normal;font-variant:normal;font-weight:normal;font-stretch:normal;font-size:20px;line-height:1.25;font-family:'Times New Roman';-inkscape-font-specification:'Times New Roman, ';white-space:pre;shape-inside:url(#rect8479);fill:#000000;fill-opacity:1;stroke:none"
       x="258.12988"
       y="0" />
    <text
       xml:space="preserve"
       transform="matrix(0.26458333,0,0,0.26458333,7.8136399,-10.491489)"
       id="text15547"
       style="font-style:normal;font-variant:normal;font-weight:normal;font-stretch:normal;font-size:20px;line-height:1.25;font-family:'Times New Roman';-inkscape-font-specification:'Times New Roman, ';text-align:center;white-space:pre;shape-inside:url(#rect15549);fill:#000000;fill-opacity:1;stroke:none"
       x="67.768555"
       y="0" />
    <g
       id="path315">
      <path
         style="color:#000000;fill:#000000;-inkscape-stroke:none"
         d="m 13.228516,69.865234 v 0.5 h 9.261718 v -0.5 z"
         id="path19294" />
      <g
         id="g19284">
        <g
           id="path19286">
          <path
             style="color:#000000;fill:#000000;fill-rule:evenodd;stroke-width:0.2pt;-inkscape-stroke:none"
             d="m 20.489584,70.114582 -1,1 3.5,-1 -3.5,-1 z"
             id="path19290" />
          <path
             style="color:#000000;fill:#000000;fill-rule:evenodd;-inkscape-stroke:none"
             d="m 19.03125,68.845703 1.269531,1.269531 -1.269531,1.269532 4.443359,-1.269532 z m 0.916016,0.537109 2.558593,0.730469 -2.558593,0.732422 0.730468,-0.730469 -0.09375,-0.0957 z"
             id="path19292" />
        </g>
      </g>
    </g>
    <g
       id="path317">
      <path
         style="color:#000000;fill:#000000;-inkscape-stroke:none"
         d="M 12.978516,70.115234 V 79.375 h 0.5 v -9.259766 z"
         id="path19280" />
      <g
         id="g19270">
        <g
           id="path19272">
          <path
             style="color:#000000;fill:#000000;fill-rule:evenodd;stroke-width:0.2pt;-inkscape-stroke:none"
             d="m 13.229167,77.374999 -1,-1 1,3.5 1,-3.5 z"
             id="path19276" />
          <path
             style="color:#000000;fill:#000000;fill-rule:evenodd;-inkscape-stroke:none"
             d="m 11.958984,75.916016 1.269532,4.443359 1.269531,-4.443359 -1.269531,1.269531 z m 2.001954,0.916015 -0.730469,2.558594 L 12.5,76.833984 l 0.728516,0.730469 0.0957,-0.0957 z"
             id="path19278" />
        </g>
      </g>
    </g>
    <circle
       style="fill:#ffffff;fill-opacity:1;stroke:#000000;stroke-width:0.5;stroke-linecap:round;stroke-miterlimit:4;stroke-dasharray:none;stroke-opacity:1;paint-order:markers fill stroke"
       id="path341"
       cx="13.229168"
       cy="70.114586"
       r="1.3229166" />
    <circle
       style="fill:#ffffff;fill-opacity:1;stroke:#000000;stroke-width:0.499999;stroke-linecap:round;stroke-miterlimit:4;stroke-dasharray:none;stroke-opacity:1;paint-order:markers fill stroke"
       id="path1722"
       cx="13.229168"
       cy="70.114586"
       r="0.26458332" />
    <text
       xml:space="preserve"
       style="font-style:normal;font-variant:normal;font-weight:normal;font-stretch:normal;font-size:4.23333px;line-height:1.25;font-family:'Times New Roman';-inkscape-font-specification:'Times New Roman, ';stroke-width:0.264583"
       x="18.289894"
       y="68.791664"
       id="text16816"><tspan
         sodipodi:role="line"
         id="tspan16814"
         style="font-style:normal;font-variant:normal;font-weight:normal;font-stretch:normal;font-size:4.23333px;font-family:'Times New Roman';-inkscape-font-specification:'Times New Roman, ';text-align:center;text-anchor:middle;stroke-width:0.264583"
         x="18.289894"
         y="68.791664" /></text>
    <text
       xml:space="preserve"
       style="font-size:3.52777px;line-height:1.25;font-family:sans-serif;stroke-width:0.264583"
       x="23.8125"
       y="71.4375"
       id="text36314"><tspan
         sodipodi:role="line"
         id="tspan36312"
         style="stroke-width:0.264583"
         x="23.8125"
         y="71.4375" /></text>
    <text
       xml:space="preserve"
       style="font-style:normal;font-variant:normal;font-weight:normal;font-stretch:normal;font-size:4.23333px;line-height:1.25;font-family:'Times New Roman';-inkscape-font-specification:'Times New Roman, ';text-align:end;text-anchor:end;stroke-width:0.264583"
       x="11.90625"
       y="75.013283"
       id="text64370"><tspan
         sodipodi:role="line"
         id="tspan64368"
         style="font-style:normal;font-variant:normal;font-weight:normal;font-stretch:normal;font-size:4.23333px;font-family:'Times New Roman';-inkscape-font-specification:'Times New Roman, ';stroke-width:0.264583"
         x="11.90625"
         y="75.013283">z</tspan></text>
    <text
       xml:space="preserve"
       style="font-size:3.52777px;line-height:1.25;font-family:'Times New Roman';text-align:center;text-anchor:middle;stroke-width:0.264583;-inkscape-font-specification:'Times New Roman, ';font-weight:normal;font-style:normal;font-stretch:normal;font-variant:normal"
       x="17.347202"
       y="68.821915"
       id="text89285"><tspan
         sodipodi:role="line"
         id="tspan89283"
         style="stroke-width:0.264583;-inkscape-font-specification:'Times New Roman, ';font-family:'Times New Roman';font-weight:normal;font-style:normal;font-stretch:normal;font-variant:normal"
         x="17.347202"
         y="68.821915">x</tspan></text>
    <g
       aria-label="⇨"
       transform="matrix(0.36948752,0,0,0.36948752,84.402498,2.8035488)"
       id="text13593-6"
       style="font-size:33.3333px;line-height:1.25;white-space:pre;shape-inside:url(#rect13595-3);stroke:none;stroke-width:0.56601;stroke-miterlimit:4;stroke-dasharray:none;stroke-opacity:1">
      <path
         d="m 58.567054,184.34675 h 17.008447 v 1.12305 l 3.841142,-3.80859 -3.841142,-3.8086 v 1.12305 H 58.567054 Z m -1.627603,1.6276 v -8.62629 h 17.008448 v -2.49023 h 0.992837 l 6.787103,6.72199 v 0.16277 l -6.787103,6.72199 h -0.992837 v -2.49023 z"
         style="font-family:'Times New Roman';-inkscape-font-specification:'Times New Roman, ';stroke:none;stroke-width:0.56601;stroke-miterlimit:4;stroke-dasharray:none;stroke-opacity:1"
         id="path46956" />
    </g>
    <text
       xml:space="preserve"
       style="font-style:normal;font-variant:normal;font-weight:normal;font-stretch:normal;font-size:3.52777px;line-height:1.25;font-family:'Times New Roman';-inkscape-font-specification:'Times New Roman, ';text-align:center;text-anchor:middle;stroke-width:0.264583"
       x="61.383793"
       y="85.990486"
       id="text6735"><tspan
         sodipodi:role="line"
         id="tspan6733"
         style="font-style:normal;font-variant:normal;font-weight:normal;font-stretch:normal;font-family:'Times New Roman';-inkscape-font-specification:'Times New Roman, ';stroke-width:0.264583"
         x="61.383793"
         y="85.990486">Initial Surface</tspan></text>
    <text
       xml:space="preserve"
       style="font-style:normal;font-variant:normal;font-weight:normal;font-stretch:normal;font-size:3.52777px;line-height:1.25;font-family:'Times New Roman';-inkscape-font-specification:'Times New Roman, ';text-align:center;text-anchor:middle;stroke-width:0.264583"
       x="158.81168"
       y="86.010071"
       id="text10027"><tspan
         id="tspan10025"
         style="font-style:normal;font-variant:normal;font-weight:normal;font-stretch:normal;font-family:'Times New Roman';-inkscape-font-specification:'Times New Roman, ';stroke-width:0.264583"
         x="158.81168"
         y="86.010071"
         sodipodi:role="line">Extended Surface</tspan></text>
  </g>
</svg>
