<?xml version="1.0" encoding="UTF-8" standalone="no"?>
<!-- Created with Inkscape (http://www.inkscape.org/) -->

<svg
   width="102.77648mm"
   height="48.447727mm"
   viewBox="0 0 102.77648 48.447728"
   version="1.1"
   id="svg5"
   inkscape:version="1.2.2 (b0a8486541, 2022-12-01)"
   sodipodi:docname="refraction_interface_polarization.svg"
   xmlns:inkscape="http://www.inkscape.org/namespaces/inkscape"
   xmlns:sodipodi="http://sodipodi.sourceforge.net/DTD/sodipodi-0.dtd"
   xmlns="http://www.w3.org/2000/svg"
   xmlns:svg="http://www.w3.org/2000/svg">
  <sodipodi:namedview
     id="namedview7"
     pagecolor="#ffffff"
     bordercolor="#666666"
     borderopacity="1.0"
     inkscape:showpageshadow="2"
     inkscape:pageopacity="0.0"
     inkscape:pagecheckerboard="0"
     inkscape:deskcolor="#d1d1d1"
     inkscape:document-units="mm"
     showgrid="false"
     inkscape:zoom="3.9306085"
     inkscape:cx="156.97315"
     inkscape:cy="94.005802"
     inkscape:window-width="2560"
     inkscape:window-height="1366"
     inkscape:window-x="1920"
     inkscape:window-y="0"
     inkscape:window-maximized="1"
     inkscape:current-layer="layer1">
    <inkscape:grid
       type="xygrid"
       id="grid132"
       originx="-79.854505"
       originy="-23.552272" />
  </sodipodi:namedview>
  <defs
     id="defs2">
    <marker
       style="overflow:visible"
       id="Arrow1L"
       refX="0"
       refY="0"
       orient="auto-start-reverse"
       inkscape:stockid="Arrow1L"
       markerWidth="8.75"
       markerHeight="5"
       viewBox="0 0 8.75 5"
       inkscape:isstock="true"
       inkscape:collect="always"
       preserveAspectRatio="xMidYMid">
      <path
         style="fill:context-stroke;fill-rule:evenodd;stroke:none"
         d="M 0,0 5,-5 -12.5,0 5,5 Z"
         id="arrow1L"
         transform="scale(-0.5)" />
    </marker>
    <marker
       style="overflow:visible"
       id="Arrow1L_Fnone_S-3942d0"
       refX="0"
       refY="0"
       orient="auto-start-reverse"
       inkscape:stockid="Arrow1L"
       markerWidth="8.75"
       markerHeight="5"
       viewBox="0 0 8.75 5"
       inkscape:isstock="true"
       inkscape:collect="always"
       preserveAspectRatio="xMidYMid">
      <path
         style="fill:#3942d0;fill-rule:evenodd;stroke:none"
         d="M 0,0 5,-5 -12.5,0 5,5 Z"
         id="path48172"
         transform="scale(-0.5)" />
    </marker>
    <marker
       style="overflow:visible"
       id="Arrow1L_Fnone_S-ad8738"
       refX="0"
       refY="0"
       orient="auto-start-reverse"
       inkscape:stockid="Arrow1L"
       markerWidth="8.75"
       markerHeight="5"
       viewBox="0 0 8.75 5"
       inkscape:isstock="true"
       inkscape:collect="always"
       preserveAspectRatio="xMidYMid">
      <path
         style="fill:#ad8738;fill-rule:evenodd;stroke:none"
         d="M 0,0 5,-5 -12.5,0 5,5 Z"
         id="path48169"
         transform="scale(-0.5)" />
    </marker>
    <inkscape:path-effect
       effect="spiro"
       id="path-effect4180"
       is_visible="true"
       lpeversion="1" />
    <inkscape:path-effect
       effect="spiro"
       id="path-effect4164"
       is_visible="true"
       lpeversion="1" />
    <inkscape:path-effect
       effect="spiro"
       id="path-effect4148"
       is_visible="true"
       lpeversion="1" />
    <inkscape:path-effect
       effect="spiro"
       id="path-effect4132"
       is_visible="true"
       lpeversion="1" />
    <inkscape:path-effect
       effect="spiro"
       id="path-effect3912"
       is_visible="true"
       lpeversion="1" />
    <inkscape:path-effect
       effect="spiro"
       id="path-effect3896"
       is_visible="true"
       lpeversion="1" />
    <inkscape:path-effect
       effect="spiro"
       id="path-effect3880"
       is_visible="true"
       lpeversion="1" />
    <inkscape:path-effect
       effect="spiro"
       id="path-effect3864"
       is_visible="true"
       lpeversion="1" />
    <inkscape:path-effect
       effect="spiro"
       id="path-effect3848"
       is_visible="true"
       lpeversion="1" />
    <inkscape:path-effect
       effect="spiro"
       id="path-effect451"
       is_visible="true"
       lpeversion="1" />
    <inkscape:path-effect
       effect="spiro"
       id="path-effect447"
       is_visible="true"
       lpeversion="1" />
    <inkscape:path-effect
       effect="spiro"
       id="path-effect443"
       is_visible="true"
       lpeversion="1" />
    <inkscape:path-effect
       effect="spiro"
       id="path-effect439"
       is_visible="true"
       lpeversion="1" />
    <inkscape:path-effect
       effect="spiro"
       id="path-effect435"
       is_visible="true"
       lpeversion="1" />
    <inkscape:path-effect
       effect="spiro"
       id="path-effect423"
       is_visible="true"
       lpeversion="1" />
    <inkscape:path-effect
       effect="spiro"
       id="path-effect311"
       is_visible="true"
       lpeversion="1" />
    <inkscape:path-effect
       effect="spiro"
       id="path-effect307"
       is_visible="true"
       lpeversion="1" />
    <inkscape:path-effect
       effect="spiro"
       id="path-effect303"
       is_visible="true"
       lpeversion="1" />
    <inkscape:path-effect
       effect="spiro"
       id="path-effect299"
       is_visible="true"
       lpeversion="1" />
  </defs>
  <g
     inkscape:label="Layer 1"
     inkscape:groupmode="layer"
     id="layer1"
     transform="translate(-79.854496,-23.552272)">
    <path
       style="fill:none;stroke:#000000;stroke-width:0.3;stroke-linecap:round;stroke-linejoin:miter;stroke-dasharray:0.3, 0.9;stroke-dashoffset:0;stroke-opacity:1"
       d="M 99.999996,30 V 72"
       id="path433"
       inkscape:path-effect="#path-effect435"
       inkscape:original-d="m 99.999996,30 c 2.64e-4,14.000318 2.64e-4,28.000321 0,42" />
    <path
       style="fill:none;stroke:#ad8738;stroke-width:0.3;stroke-linecap:round;stroke-linejoin:miter;stroke-dasharray:none;stroke-opacity:1;marker-end:url(#Arrow1L_Fnone_S-ad8738)"
       d="M 80.004496,65.004931 98.757278,50.923538"
       id="path437"
       inkscape:path-effect="#path-effect439"
       inkscape:original-d="M 80.004496,65.004931 C 86.255671,60.311382 92.506599,55.617583 98.757278,50.923538" />
    <path
       style="fill:none;stroke:#ad8738;stroke-width:0.3;stroke-linecap:round;stroke-linejoin:miter;stroke-dasharray:none;stroke-opacity:1;marker-end:url(#Arrow1L_Fnone_S-ad8738)"
       d="m 100.01172,50.061627 24.96079,4.745397"
       id="path441"
       inkscape:path-effect="#path-effect443"
       inkscape:original-d="m 100.01172,50.061627 c 8.32052,1.582217 16.64079,3.164015 24.96079,4.745397" />
    <path
       style="fill:none;stroke:#3942d0;stroke-width:0.3;stroke-linecap:round;stroke-linejoin:miter;stroke-dasharray:none;stroke-opacity:1;marker-end:url(#Arrow1L_Fnone_S-3942d0)"
       d="M 99.999996,50 103,35"
       id="path445"
       inkscape:path-effect="#path-effect447"
       inkscape:original-d="M 99.999996,50 C 101.00026,45.000264 102.00026,40.000264 103,35" />
    <path
       style="fill:none;stroke:#3942d0;stroke-width:0.3;stroke-linecap:round;stroke-linejoin:miter;stroke-dasharray:none;stroke-opacity:1;marker-end:url(#Arrow1L_Fnone_S-3942d0)"
       d="M 99.994196,49.995888 90.114565,37.079414"
       id="path449"
       inkscape:path-effect="#path-effect451"
       inkscape:original-d="M 99.994196,49.995888 C 96.701274,45.690659 93.408065,41.385168 90.114565,37.079414" />
    <g
       aria-label="s"
       id="text1316"
       style="font-size:3.52777px;line-height:1.25;font-family:'Times New Roman';-inkscape-font-specification:'Times New Roman, ';text-align:center;text-anchor:middle;stroke-width:0.264583;fill:#ad8738;fill-opacity:1">
      <path
         d="m 89.529165,55.510798 q 0,0.241156 -0.153306,0.365179 Q 89.224275,56 88.926275,56 88.805697,56 88.65928,55.97416 88.514587,55.95004 88.431905,55.91904 v -0.397908 h 0.07751 l 0.08441,0.225653 q 0.129191,0.117133 0.335896,0.117133 0.334173,0 0.334173,-0.285942 0,-0.21015 -0.263549,-0.299723 l -0.153306,-0.04995 q -0.173977,-0.05684 -0.253214,-0.115411 -0.07924,-0.05857 -0.122301,-0.142971 -0.04306,-0.08613 -0.04306,-0.206705 0,-0.213596 0.144693,-0.335896 0.146416,-0.124023 0.394463,-0.124023 0.177422,0 0.444416,0.0534 v 0.353122 h -0.08096 l -0.07235,-0.187757 q -0.0913,-0.08096 -0.287665,-0.08096 -0.139526,0 -0.213596,0.0689 -0.07235,0.0689 -0.07235,0.186035 0,0.09819 0.06546,0.165364 0.06718,0.06718 0.201538,0.111965 0.253214,0.08613 0.330728,0.125746 0.07751,0.03962 0.130914,0.09818 0.05512,0.05684 0.0844,0.130913 0.03101,0.07407 0.03101,0.18259 z"
         id="path12957"
         style="fill:#ad8738;fill-opacity:1" />
    </g>
    <g
       aria-label="s'"
       id="text1320"
       style="font-size:3.52777px;line-height:1.25;font-family:'Times New Roman';-inkscape-font-specification:'Times New Roman, ';text-align:center;text-anchor:middle;stroke-width:0.264583;fill:#ad8738;fill-opacity:1">
      <path
         d="m 113.57154,50.510798 q 0,0.241156 -0.15331,0.365179 Q 113.26665,51 112.96865,51 q -0.12058,0 -0.267,-0.02584 -0.14469,-0.02412 -0.22737,-0.05512 v -0.397908 h 0.0775 l 0.0844,0.225653 q 0.12919,0.117133 0.33589,0.117133 0.33418,0 0.33418,-0.285942 0,-0.21015 -0.26355,-0.299723 l -0.15331,-0.04995 q -0.17397,-0.05684 -0.25321,-0.115411 -0.0792,-0.05857 -0.1223,-0.142971 -0.0431,-0.08613 -0.0431,-0.206705 0,-0.213596 0.1447,-0.335896 0.14641,-0.124023 0.39446,-0.124023 0.17742,0 0.44442,0.0534 v 0.353122 h -0.081 l -0.0724,-0.187757 q -0.0913,-0.08096 -0.28766,-0.08096 -0.13953,0 -0.2136,0.0689 -0.0724,0.0689 -0.0724,0.186035 0,0.09819 0.0655,0.165364 0.0672,0.06718 0.20154,0.111965 0.25321,0.08613 0.33073,0.125746 0.0775,0.03962 0.13091,0.09818 0.0551,0.05684 0.0844,0.130913 0.031,0.07407 0.031,0.18259 z"
         id="path12960"
         style="fill:#ad8738;fill-opacity:1" />
      <path
         d="m 113.84715,48.655618 h 0.33934 l -0.1068,0.828544 h -0.12747 z"
         id="path12962"
         style="fill:#ad8738;fill-opacity:1" />
    </g>
    <g
       id="text1324"
       style="font-size:3.52777px;line-height:1.25;font-family:'Times New Roman';-inkscape-font-specification:'Times New Roman, ';text-align:center;text-anchor:middle;stroke-width:0.264583" />
    <g
       aria-label="Ep'"
       id="text1328"
       style="font-size:3.52777px;line-height:1.25;font-family:'Times New Roman';-inkscape-font-specification:'Times New Roman, ';text-align:center;text-anchor:middle;stroke-width:0.264583;fill:#3942d0;fill-opacity:1">
      <path
         d="m 103.1331,42.437872 0.29628,-0.04651 v -2.036047 l -0.29628,-0.04479 v -0.09129 h 1.73288 v 0.552936 h -0.11369 l -0.0551,-0.373792 q -0.19293,-0.02412 -0.55811,-0.02412 h -0.37723 v 0.902613 h 0.62356 l 0.0534,-0.275607 h 0.11024 v 0.709688 h -0.11024 l -0.0534,-0.279052 h -0.62356 v 0.942231 h 0.45475 q 0.44442,0 0.58222,-0.02756 l 0.0982,-0.427191 h 0.11369 l -0.0327,0.60978 h -1.84484 z"
         id="path12966"
         style="fill:#3942d0;fill-opacity:1" />
      <path
         d="m 105.35656,42.260623 -0.1198,-0.02799 v -0.05038 h 0.29558 l 0.002,0.06158 q 0.047,-0.04031 0.12541,-0.06494 0.0795,-0.02463 0.16123,-0.02463 0.20153,0 0.31126,0.139957 0.11084,0.139957 0.11084,0.401956 0,0.267597 -0.12092,0.414272 -0.1198,0.146674 -0.34709,0.146674 -0.12652,0 -0.24073,-0.02463 0.007,0.08062 0.007,0.126521 v 0.284392 l 0.18362,0.02687 v 0.05262 h -0.5016 v -0.05262 l 0.13324,-0.02687 z m 0.68523,0.435545 q 0,-0.214974 -0.0705,-0.319101 -0.0694,-0.105248 -0.21162,-0.105248 -0.131,0 -0.21833,0.03695 v 0.84086 q 0.0996,0.01903 0.21833,0.01903 0.28216,0 0.28216,-0.472494 z"
         style="font-size:65%;baseline-shift:sub;fill:#3942d0;fill-opacity:1"
         id="path12968" />
      <path
         d="m 106.48104,40.219236 h 0.33934 l -0.1068,0.828543 h -0.12747 z"
         id="path12970"
         style="fill:#3942d0;fill-opacity:1" />
    </g>
    <circle
       style="fill:#ffffff;stroke:#3942d0;stroke-width:0.3;stroke-linecap:round;stroke-linejoin:bevel;stroke-dashoffset:4.77492;paint-order:fill markers stroke;stroke-opacity:1"
       id="path2242"
       cx="99.999992"
       cy="50"
       r="1" />
    <circle
       style="fill:#000000;stroke:#3942d0;stroke-width:0.3;stroke-linecap:round;stroke-linejoin:bevel;stroke-dashoffset:4.77492;paint-order:fill markers stroke;stroke-opacity:1"
       id="path2248"
       cx="99.999992"
       cy="50"
       r="0.2" />
    <g
       aria-label="Es"
       id="text2252"
       style="font-size:3.52777px;line-height:1.25;font-family:'Times New Roman';-inkscape-font-specification:'Times New Roman, ';text-align:center;text-anchor:middle;stroke-width:0.264583;fill:#3942d0;fill-opacity:1">
      <path
         d="m 101.57799,48.908705 0.29628,-0.04651 V 46.82615 l -0.29628,-0.04479 v -0.09129 h 1.73288 v 0.552936 h -0.11369 l -0.0551,-0.373792 q -0.19293,-0.02412 -0.55811,-0.02412 h -0.37723 v 0.902614 h 0.62356 l 0.0534,-0.275607 h 0.11024 v 0.709688 h -0.11024 l -0.0534,-0.279053 h -0.62356 v 0.942232 h 0.45475 q 0.44442,0 0.58222,-0.02756 l 0.0982,-0.427191 h 0.11369 L 103.42283,49 h -1.84484 z"
         id="path12973"
         style="fill:#3942d0;fill-opacity:1" />
      <path
         d="m 104.44077,49.409965 q 0,0.156752 -0.0996,0.237367 -0.0985,0.08062 -0.29223,0.08062 -0.0784,0 -0.17354,-0.0168 -0.094,-0.01568 -0.1478,-0.03583 v -0.25864 h 0.0504 l 0.0549,0.146675 q 0.084,0.07614 0.21833,0.07614 0.21721,0 0.21721,-0.185862 0,-0.136598 -0.1713,-0.19482 l -0.0997,-0.03247 q -0.11309,-0.03695 -0.16459,-0.07502 -0.0515,-0.03807 -0.0795,-0.09293 -0.028,-0.05598 -0.028,-0.134358 0,-0.138837 0.0941,-0.218333 0.0952,-0.08062 0.2564,-0.08062 0.11533,0 0.28887,0.03471 v 0.229529 h -0.0526 l -0.047,-0.122043 q -0.0593,-0.05262 -0.18699,-0.05262 -0.0907,0 -0.13883,0.04479 -0.047,0.04479 -0.047,0.120922 0,0.06382 0.0426,0.107487 0.0437,0.04367 0.131,0.07278 0.16459,0.05598 0.21497,0.08173 0.0504,0.02575 0.0851,0.06382 0.0358,0.03695 0.0549,0.08509 0.0202,0.04814 0.0202,0.118683 z"
         style="font-size:65%;baseline-shift:sub;fill:#3942d0;fill-opacity:1"
         id="path12975" />
    </g>
    <g
       aria-label="n1"
       id="text2310"
       style="font-size:3.52777px;line-height:1.25;font-family:'Times New Roman';-inkscape-font-specification:'Times New Roman, ';text-align:center;text-anchor:middle;stroke-width:0.264583">
      <path
         d="m 94.632059,64.511722 q 0.132636,-0.07579 0.282497,-0.124023 0.149861,-0.04995 0.249769,-0.04995 0.21015,0 0.316948,0.122301 0.106798,0.1223 0.106798,0.354844 v 1.064532 l 0.19637,0.04306 V 66 H 95.08681 v -0.07751 l 0.215318,-0.04306 v -1.033526 q 0,-0.142972 -0.07062,-0.223931 -0.0689,-0.08268 -0.215318,-0.08268 -0.155029,0 -0.380682,0.04995 v 1.290186 l 0.218763,0.04306 V 66 h -0.699353 v -0.07751 l 0.194647,-0.04306 v -1.378035 l -0.194647,-0.04306 v -0.07751 h 0.461642 z"
         id="path12978" />
      <path
         d="m 96.539862,66.615982 0.306785,0.03023 v 0.05934 h -0.80727 v -0.05934 l 0.307905,-0.03023 v -1.224901 l -0.303426,0.108606 v -0.05934 l 0.437784,-0.248563 h 0.05822 z"
         style="font-size:65%;baseline-shift:sub"
         id="path12980" />
    </g>
    <g
       aria-label="n2"
       id="text2316"
       style="font-size:3.52777px;line-height:1.25;font-family:'Times New Roman';-inkscape-font-specification:'Times New Roman, ';text-align:center;text-anchor:middle;stroke-width:0.264583">
      <path
         d="m 103.57373,64.511722 q 0.13264,-0.07579 0.2825,-0.124023 0.14986,-0.04995 0.24977,-0.04995 0.21015,0 0.31695,0.122301 0.10679,0.1223 0.10679,0.354844 v 1.064532 l 0.19637,0.04306 V 66 h -0.69763 v -0.07751 l 0.21532,-0.04306 v -1.033526 q 0,-0.142972 -0.0706,-0.223931 -0.0689,-0.08268 -0.21532,-0.08268 -0.15503,0 -0.38068,0.04995 v 1.290186 l 0.21876,0.04306 V 66 h -0.69935 v -0.07751 l 0.19464,-0.04306 v -1.378035 l -0.19464,-0.04306 v -0.07751 h 0.46164 z"
         id="path12983" />
      <path
         d="m 105.79952,66.705554 h -0.91924 v -0.164589 l 0.20826,-0.189222 q 0.20042,-0.175785 0.29447,-0.284392 0.094,-0.108606 0.13435,-0.22393 0.0414,-0.115325 0.0414,-0.264238 0,-0.145555 -0.0661,-0.221692 -0.0661,-0.07614 -0.21609,-0.07614 -0.0593,0 -0.12204,0.01679 -0.0627,0.01568 -0.11085,0.04255 l -0.0392,0.183623 h -0.0739 v -0.28887 q 0.20377,-0.04815 0.34597,-0.04815 0.24632,0 0.36948,0.103008 0.12429,0.101888 0.12429,0.288871 0,0.125401 -0.0493,0.237366 -0.0481,0.110846 -0.14891,0.221691 -0.10077,0.109727 -0.33366,0.307905 -0.0996,0.08509 -0.21161,0.186982 h 0.77256 z"
         style="font-size:65%;baseline-shift:sub"
         id="path12985" />
    </g>
    <path
       style="fill:none;stroke:#3942d0;stroke-width:0.3;stroke-linecap:round;stroke-linejoin:miter;stroke-dasharray:none;stroke-opacity:1;marker-end:url(#Arrow1L_Fnone_S-3942d0)"
       d="m 157.65479,54.328881 v -20"
       id="path3846"
       inkscape:path-effect="#path-effect3848"
       inkscape:original-d="m 157.65479,54.328881 c 2.7e-4,-6.666402 2.7e-4,-13.333069 0,-20" />
    <path
       style="fill:none;stroke:#3942d0;stroke-width:0.3;stroke-linecap:round;stroke-linejoin:miter;stroke-dasharray:none;stroke-opacity:1;marker-end:url(#Arrow1L_Fnone_S-3942d0)"
       d="m 157.65479,54.328881 h 20"
       id="path3862"
       inkscape:path-effect="#path-effect3864"
       inkscape:original-d="m 157.65479,54.328881 c 6.66694,2.64e-4 13.3336,2.64e-4 20,0" />
    <path
       style="fill:none;stroke:#3942d0;stroke-width:0.29128;stroke-linecap:round;stroke-linejoin:miter;stroke-dasharray:none;stroke-opacity:1;marker-end:url(#Arrow1L_Fnone_S-3942d0)"
       d="m 157.80112,54.072347 9.00571,-17.164638"
       id="path3878"
       inkscape:path-effect="#path-effect3880"
       inkscape:original-d="m 157.80112,54.072347 c 3.00214,-5.721307 6.00405,-11.442853 9.00571,-17.164638" />
    <path
       style="fill:none;stroke:#000000;stroke-width:0.3;stroke-linecap:round;stroke-linejoin:miter;stroke-dasharray:0.3, 0.9;stroke-dashoffset:0;stroke-opacity:1"
       d="M 167.6548,35.328881 H 157.65479"
       id="path3894"
       inkscape:path-effect="#path-effect3896"
       inkscape:original-d="m 167.6548,35.328881 c -3.33307,2.65e-4 -6.66641,2.65e-4 -10.00001,0" />
    <path
       style="fill:none;stroke:#000000;stroke-width:0.3;stroke-linecap:round;stroke-linejoin:miter;stroke-dasharray:0.3, 0.9;stroke-dashoffset:0;stroke-opacity:1"
       d="m 167.6548,35.328881 v 19"
       id="path3910"
       inkscape:path-effect="#path-effect3912"
       inkscape:original-d="m 167.6548,35.328881 c 2.6e-4,6.333598 2.6e-4,12.666931 0,19" />
    <g
       aria-label="Ep"
       id="text3942"
       style="font-size:3.52777px;line-height:1.25;font-family:'Times New Roman';-inkscape-font-specification:'Times New Roman, ';text-align:center;text-anchor:middle;stroke-width:0.264583;fill:#3942d0;fill-opacity:1">
      <path
         d="m 153.10572,44.70426 0.29627,-0.04651 v -2.036047 l -0.29627,-0.04479 v -0.09129 h 1.73288 v 0.552936 h -0.11369 l -0.0551,-0.373792 q -0.19293,-0.02412 -0.55811,-0.02412 h -0.37723 v 0.902613 h 0.62356 l 0.0534,-0.275607 h 0.11025 v 0.709688 h -0.11025 l -0.0534,-0.279052 h -0.62356 v 0.942231 h 0.45475 q 0.44441,0 0.58222,-0.02756 l 0.0982,-0.42719 h 0.11369 l -0.0327,0.60978 h -1.84484 z"
         id="path12988"
         style="fill:#3942d0;fill-opacity:1" />
      <path
         d="m 155.32918,44.527011 -0.11981,-0.02799 v -0.05038 h 0.29559 l 0.002,0.06158 q 0.047,-0.04031 0.1254,-0.06494 0.0795,-0.02463 0.16123,-0.02463 0.20154,0 0.31127,0.139957 0.11084,0.139957 0.11084,0.401956 0,0.267597 -0.12092,0.414272 -0.1198,0.146674 -0.34709,0.146674 -0.12652,0 -0.24073,-0.02463 0.007,0.08062 0.007,0.126521 v 0.284392 l 0.18362,0.02687 v 0.05262 h -0.5016 v -0.05262 l 0.13324,-0.02687 z m 0.68522,0.435545 q 0,-0.214974 -0.0705,-0.319102 -0.0694,-0.105247 -0.21162,-0.105247 -0.131,0 -0.21833,0.03695 v 0.840859 q 0.0996,0.01903 0.21833,0.01903 0.28215,0 0.28215,-0.472494 z"
         style="font-size:65%;baseline-shift:sub;fill:#3942d0;fill-opacity:1"
         id="path12990" />
    </g>
    <g
       aria-label="Es"
       id="text3948"
       style="font-size:3.52777px;line-height:1.25;font-family:'Times New Roman';-inkscape-font-specification:'Times New Roman, ';text-align:center;text-anchor:middle;stroke-width:0.264583;fill:#3942d0;fill-opacity:1">
      <path
         d="m 167.05013,58.015723 0.29628,-0.04651 v -2.036047 l -0.29628,-0.04479 v -0.0913 h 1.73288 v 0.552937 h -0.11368 l -0.0551,-0.373792 q -0.19292,-0.02412 -0.5581,-0.02412 h -0.37724 v 0.902613 h 0.62356 l 0.0534,-0.275607 h 0.11025 v 0.709688 h -0.11025 l -0.0534,-0.279052 h -0.62356 v 0.942232 h 0.45475 q 0.44442,0 0.58222,-0.02756 l 0.0982,-0.427191 h 0.11369 l -0.0327,0.609781 h -1.84485 z"
         id="path12993"
         style="fill:#3942d0;fill-opacity:1" />
      <path
         d="m 169.91292,58.516983 q 0,0.156751 -0.0997,0.237367 -0.0985,0.08061 -0.29223,0.08061 -0.0784,0 -0.17355,-0.01679 -0.094,-0.01568 -0.14779,-0.03583 V 58.5237 h 0.0504 l 0.0549,0.146675 q 0.084,0.07614 0.21834,0.07614 0.21721,0 0.21721,-0.185863 0,-0.136597 -0.17131,-0.194819 l -0.0996,-0.03247 q -0.11308,-0.03695 -0.16459,-0.07502 -0.0515,-0.03807 -0.0795,-0.09293 -0.028,-0.05598 -0.028,-0.134359 0,-0.138837 0.094,-0.218332 0.0952,-0.08062 0.2564,-0.08062 0.11532,0 0.28887,0.03471 v 0.229529 h -0.0526 l -0.047,-0.122042 q -0.0593,-0.05262 -0.18698,-0.05262 -0.0907,0 -0.13884,0.04479 -0.047,0.04479 -0.047,0.120923 0,0.06382 0.0425,0.107487 0.0437,0.04367 0.131,0.07278 0.16459,0.05598 0.21498,0.08174 0.0504,0.02575 0.0851,0.06382 0.0358,0.03695 0.0549,0.08509 0.0202,0.04814 0.0202,0.118683 z"
         style="font-size:65%;baseline-shift:sub;fill:#3942d0;fill-opacity:1"
         id="path12995" />
    </g>
    <g
       aria-label="Es"
       id="text3948-3"
       style="font-size:3.52777px;line-height:1.25;font-family:'Times New Roman';-inkscape-font-specification:'Times New Roman, ';text-align:center;text-anchor:middle;stroke-width:0.264583"
       transform="translate(-3.1641848,-24.80588)">
      <path
         d="m 167.05013,58.015723 0.29628,-0.04651 v -2.036047 l -0.29628,-0.04479 v -0.0913 h 1.73288 v 0.552937 h -0.11368 l -0.0551,-0.373792 q -0.19292,-0.02412 -0.5581,-0.02412 h -0.37724 v 0.902613 h 0.62356 l 0.0534,-0.275607 h 0.11025 v 0.709688 h -0.11025 l -0.0534,-0.279052 h -0.62356 v 0.942232 h 0.45475 q 0.44442,0 0.58222,-0.02756 l 0.0982,-0.427191 h 0.11369 l -0.0327,0.609781 h -1.84485 z"
         id="path12993-6" />
      <path
         d="m 169.91292,58.516983 q 0,0.156751 -0.0997,0.237367 -0.0985,0.08061 -0.29223,0.08061 -0.0784,0 -0.17355,-0.01679 -0.094,-0.01568 -0.14779,-0.03583 V 58.5237 h 0.0504 l 0.0549,0.146675 q 0.084,0.07614 0.21834,0.07614 0.21721,0 0.21721,-0.185863 0,-0.136597 -0.17131,-0.194819 l -0.0996,-0.03247 q -0.11308,-0.03695 -0.16459,-0.07502 -0.0515,-0.03807 -0.0795,-0.09293 -0.028,-0.05598 -0.028,-0.134359 0,-0.138837 0.094,-0.218332 0.0952,-0.08062 0.2564,-0.08062 0.11532,0 0.28887,0.03471 v 0.229529 h -0.0526 l -0.047,-0.122042 q -0.0593,-0.05262 -0.18698,-0.05262 -0.0907,0 -0.13884,0.04479 -0.047,0.04479 -0.047,0.120923 0,0.06382 0.0425,0.107487 0.0437,0.04367 0.131,0.07278 0.16459,0.05598 0.21498,0.08174 0.0504,0.02575 0.0851,0.06382 0.0358,0.03695 0.0549,0.08509 0.0202,0.04814 0.0202,0.118683 z"
         style="font-size:65%;baseline-shift:sub"
         id="path12995-7" />
    </g>
    <circle
       style="fill:#ffffff;stroke:#ad8738;stroke-width:0.3;stroke-linecap:round;stroke-linejoin:bevel;stroke-dashoffset:4.77492;paint-order:fill markers stroke;stroke-opacity:1"
       id="path2242-3"
       cx="157.6548"
       cy="54.32888"
       r="1" />
    <g
       aria-label="E"
       id="text3954"
       style="font-size:3.52777px;line-height:1.25;font-family:'Times New Roman';-inkscape-font-specification:'Times New Roman, ';text-align:center;text-anchor:middle;stroke-width:0.264583;fill:#3942d0;fill-opacity:1">
      <path
         d="m 160.62066,42.29592 0.29628,-0.04651 v -2.036047 l -0.29628,-0.04479 v -0.09129 h 1.73288 v 0.552937 h -0.11369 l -0.0551,-0.373792 q -0.19292,-0.02412 -0.5581,-0.02412 h -0.37724 v 0.902613 h 0.62356 l 0.0534,-0.275607 h 0.11024 v 0.709688 h -0.11024 l -0.0534,-0.279052 h -0.62356 v 0.942232 h 0.45475 q 0.44442,0 0.58222,-0.02756 l 0.0982,-0.427191 h 0.11368 l -0.0327,0.609781 h -1.84484 z"
         id="path12998"
         style="fill:#3942d0;fill-opacity:1" />
    </g>
    <g
       aria-label="s"
       id="text1316-7"
       style="font-size:3.52777px;line-height:1.25;font-family:'Times New Roman';-inkscape-font-specification:'Times New Roman, ';text-align:center;text-anchor:middle;stroke-width:0.264583;fill:#ad8738;fill-opacity:1">
      <path
         d="m 156.21377,55.874129 q 0,0.241156 -0.15331,0.365179 -0.15158,0.124023 -0.44958,0.124023 -0.12058,0 -0.267,-0.02584 -0.14469,-0.02412 -0.22737,-0.05512 v -0.397908 h 0.0775 l 0.0844,0.225653 q 0.1292,0.117133 0.3359,0.117133 0.33417,0 0.33417,-0.285942 0,-0.21015 -0.26355,-0.299723 l -0.1533,-0.04995 q -0.17398,-0.05684 -0.25322,-0.11541 -0.0792,-0.05857 -0.1223,-0.142971 -0.0431,-0.08613 -0.0431,-0.206705 0,-0.213596 0.14469,-0.335896 0.14642,-0.124024 0.39447,-0.124024 0.17742,0 0.44441,0.0534 v 0.353122 h -0.081 l -0.0723,-0.187758 q -0.0913,-0.08096 -0.28767,-0.08096 -0.13952,0 -0.21359,0.0689 -0.0724,0.0689 -0.0724,0.186034 0,0.09819 0.0655,0.165365 0.0672,0.06718 0.20153,0.111965 0.25322,0.08613 0.33073,0.125746 0.0775,0.03962 0.13092,0.09819 0.0551,0.05684 0.0844,0.130913 0.031,0.07407 0.031,0.18259 z"
         id="path13001"
         style="fill:#ad8738;fill-opacity:1" />
    </g>
    <path
       d="m 160.54023,33.218635 v 0.09129 h -0.75964 v -0.09129 l 0.26183,-0.04651 0.7872,-2.191076 h 0.32728 l 0.81821,2.191076 0.29284,0.04651 v 0.09129 h -0.97668 v -0.09129 l 0.31005,-0.04651 -0.22909,-0.666625 h -0.90951 l -0.23253,0.666625 z m 0.37035,-1.989538 -0.39618,1.121376 h 0.80442 z"
       id="path13004"
       style="font-size:3.52777px;line-height:1.25;font-family:'Times New Roman';-inkscape-font-specification:'Times New Roman, ';text-align:center;text-anchor:middle;stroke-width:0.264583" />
    <path
       d="m 162.66775,34.037877 q -0.10749,0 -0.16123,-0.06382 -0.0526,-0.06382 -0.0526,-0.179145 v -0.737851 h -0.13771 v -0.05038 l 0.13995,-0.04367 0.11309,-0.238486 h 0.0705 v 0.238486 h 0.24072 v 0.09405 h -0.24072 v 0.717698 q 0,0.07278 0.0325,0.109726 0.0336,0.03695 0.0873,0.03695 0.0649,0 0.15787,-0.01791 v 0.07278 q -0.0392,0.02687 -0.11308,0.04367 -0.0739,0.01791 -0.1366,0.01791 z"
       style="font-size:2.29305px;line-height:1.25;font-family:'Times New Roman';-inkscape-font-specification:'Times New Roman, ';text-align:center;baseline-shift:sub;text-anchor:middle;stroke-width:0.264583"
       id="path13006" />
    <path
       d="m 163.74038,33.719896 q 0,0.156751 -0.0996,0.237366 -0.0985,0.08061 -0.29223,0.08061 -0.0784,0 -0.17355,-0.01679 -0.0941,-0.01568 -0.14779,-0.03583 v -0.258639 h 0.0504 l 0.0549,0.146674 q 0.084,0.07614 0.21834,0.07614 0.21721,0 0.21721,-0.185863 0,-0.136598 -0.17131,-0.19482 l -0.0996,-0.03247 q -0.11308,-0.03695 -0.16459,-0.07502 -0.0515,-0.03807 -0.0795,-0.09293 -0.028,-0.05598 -0.028,-0.134358 0,-0.138837 0.0941,-0.218333 0.0952,-0.08061 0.2564,-0.08061 0.11532,0 0.28887,0.03471 v 0.229529 h -0.0526 l -0.047,-0.122043 q -0.0593,-0.05262 -0.18698,-0.05262 -0.0907,0 -0.13884,0.04479 -0.047,0.04479 -0.047,0.120922 0,0.06382 0.0425,0.107487 0.0437,0.04367 0.131,0.07278 0.16459,0.05598 0.21498,0.08173 0.0504,0.02575 0.0851,0.06382 0.0358,0.03695 0.0549,0.08509 0.0202,0.04814 0.0202,0.118684 z"
       style="font-size:2.29305px;line-height:1.25;font-family:'Times New Roman';-inkscape-font-specification:'Times New Roman, ';text-align:center;baseline-shift:sub;text-anchor:middle;stroke-width:0.264583"
       id="path13008" />
    <path
       d="m 173.27926,45.691188 0.29628,-0.04651 v -2.036047 l -0.29628,-0.04479 v -0.0913 h 1.73288 v 0.552936 h -0.11369 l -0.0551,-0.373792 q -0.19292,-0.02412 -0.5581,-0.02412 h -0.37724 v 0.902613 h 0.62356 l 0.0534,-0.275607 h 0.11024 v 0.709688 h -0.11024 l -0.0534,-0.279052 h -0.62356 v 0.942231 h 0.45475 q 0.44442,0 0.58222,-0.02756 l 0.0982,-0.42719 h 0.11368 l -0.0327,0.60978 h -1.84484 z"
       id="path13010"
       style="font-size:3.52777px;line-height:1.25;font-family:'Times New Roman';-inkscape-font-specification:'Times New Roman, ';text-align:center;text-anchor:middle;stroke-width:0.264583" />
    <path
       d="m 175.50272,45.513939 -0.1198,-0.02799 v -0.05038 h 0.29559 l 0.002,0.06158 q 0.047,-0.04031 0.12541,-0.06494 0.0795,-0.02463 0.16123,-0.02463 0.20153,0 0.31126,0.139957 0.11085,0.139957 0.11085,0.401956 0,0.267597 -0.12093,0.414272 -0.1198,0.146674 -0.34709,0.146674 -0.12652,0 -0.24073,-0.02463 0.007,0.08062 0.007,0.126521 v 0.284392 l 0.18363,0.02687 v 0.05262 h -0.50161 v -0.05262 l 0.13324,-0.02687 z m 0.68523,0.435545 q 0,-0.214974 -0.0705,-0.319101 -0.0694,-0.105248 -0.21161,-0.105248 -0.131,0 -0.21834,0.03695 v 0.840859 q 0.0996,0.01904 0.21834,0.01904 0.28215,0 0.28215,-0.472494 z"
       style="font-size:2.29305px;line-height:1.25;font-family:'Times New Roman';-inkscape-font-specification:'Times New Roman, ';text-align:center;baseline-shift:sub;text-anchor:middle;stroke-width:0.264583"
       id="path13012" />
    <path
       d="m 169.67618,45.691178 v 0.09129 h -0.75964 v -0.09129 l 0.26183,-0.04651 0.7872,-2.191076 h 0.32728 l 0.81821,2.191076 0.29284,0.04651 v 0.09129 h -0.97669 v -0.09129 l 0.31006,-0.04651 -0.2291,-0.666625 h -0.9095 l -0.23254,0.666625 z m 0.37035,-1.989538 -0.39618,1.121376 h 0.80442 z"
       id="path13015"
       style="font-size:3.52777px;line-height:1.25;font-family:'Times New Roman';-inkscape-font-specification:'Times New Roman, ';text-align:center;text-anchor:middle;stroke-width:0.264583" />
    <path
       d="m 171.8037,46.51042 q -0.10749,0 -0.16123,-0.06382 -0.0526,-0.06382 -0.0526,-0.179144 v -0.737852 h -0.13771 v -0.05038 l 0.13995,-0.04367 0.11309,-0.238486 h 0.0705 v 0.238486 h 0.24072 v 0.09405 h -0.24072 v 0.717698 q 0,0.07278 0.0325,0.109726 0.0336,0.03695 0.0873,0.03695 0.0649,0 0.15787,-0.01791 v 0.07278 q -0.0392,0.02687 -0.11308,0.04367 -0.0739,0.01791 -0.1366,0.01791 z"
       style="font-size:2.29305px;line-height:1.25;font-family:'Times New Roman';-inkscape-font-specification:'Times New Roman, ';text-align:center;baseline-shift:sub;text-anchor:middle;stroke-width:0.264583"
       id="path13017" />
    <path
       d="m 172.237,45.513929 -0.1198,-0.02799 v -0.05038 h 0.29559 l 0.002,0.06158 q 0.047,-0.04031 0.1254,-0.06494 0.0795,-0.02463 0.16123,-0.02463 0.20154,0 0.31126,0.139956 0.11085,0.139957 0.11085,0.401956 0,0.267597 -0.12092,0.414272 -0.11981,0.146674 -0.3471,0.146674 -0.12652,0 -0.24072,-0.02463 0.007,0.08062 0.007,0.126521 v 0.284392 l 0.18362,0.02687 v 0.05262 h -0.50161 v -0.05262 l 0.13324,-0.02687 z m 0.68523,0.435545 q 0,-0.214974 -0.0705,-0.319101 -0.0694,-0.105248 -0.21161,-0.105248 -0.131,0 -0.21833,0.03695 v 0.84086 q 0.0997,0.01903 0.21833,0.01903 0.28215,0 0.28215,-0.472494 z"
       style="font-size:2.29305px;line-height:1.25;font-family:'Times New Roman';-inkscape-font-specification:'Times New Roman, ';text-align:center;baseline-shift:sub;text-anchor:middle;stroke-width:0.264583"
       id="path13019" />
    <g
       id="text4042"
       style="font-size:3.52777px;line-height:1.25;font-family:'Times New Roman';-inkscape-font-specification:'Times New Roman, ';text-align:center;text-anchor:middle;stroke-width:0.264583" />
    <g
       aria-label="Ep"
       id="text4046"
       style="font-size:3.52777px;line-height:1.25;font-family:'Times New Roman';-inkscape-font-specification:'Times New Roman, ';text-align:center;text-anchor:middle;stroke-width:0.264583;fill:#3942d0;fill-opacity:1">
      <path
         d="m 90.450909,44.908705 0.296277,-0.04651 V 42.82615 l -0.296277,-0.04479 v -0.09129 h 1.732879 v 0.552936 H 92.0701 l -0.05512,-0.373792 q -0.192925,-0.02412 -0.558105,-0.02412 h -0.377237 v 0.902614 h 0.623561 l 0.0534,-0.275607 h 0.110243 v 0.709688 h -0.110243 l -0.0534,-0.279053 h -0.623561 v 0.942232 h 0.454752 q 0.444416,0 0.58222,-0.02756 l 0.09819,-0.427191 h 0.113688 L 92.295753,45 h -1.844844 z"
         id="path13027"
         style="fill:#3942d0;fill-opacity:1" />
      <path
         d="m 92.674368,44.731455 -0.119803,-0.02799 v -0.05038 h 0.295589 l 0.0022,0.06158 q 0.04703,-0.04031 0.125401,-0.06494 0.0795,-0.02463 0.161231,-0.02463 0.201537,0 0.311263,0.139957 0.110846,0.139957 0.110846,0.401956 0,0.267597 -0.120923,0.414271 -0.119803,0.146675 -0.347092,0.146675 -0.126521,0 -0.240726,-0.02463 0.0067,0.08061 0.0067,0.126521 v 0.284392 l 0.183623,0.02687 v 0.05262 H 92.54113 v -0.05262 l 0.133238,-0.02687 z m 0.685228,0.435546 q 0,-0.214974 -0.07054,-0.319102 -0.06942,-0.105247 -0.211614,-0.105247 -0.131,0 -0.218333,0.03695 v 0.84086 q 0.09965,0.01903 0.218333,0.01903 0.282152,0 0.282152,-0.472493 z"
         style="font-size:65%;baseline-shift:sub;fill:#3942d0;fill-opacity:1"
         id="path13029" />
    </g>
    <g
       aria-label="Propagation Direction"
       id="text4068"
       style="font-size:3.52777px;line-height:1.25;font-family:'Times New Roman';-inkscape-font-specification:'Times New Roman, ';text-align:center;text-anchor:middle;stroke-width:0.264583">
      <path
         d="m 152.9102,24.37392 q 0,-0.284219 -0.13263,-0.40652 -0.13264,-0.122301 -0.44614,-0.122301 h -0.16881 v 1.093816 h 0.17914 q 0.29111,0 0.42892,-0.132636 0.13952,-0.132636 0.13952,-0.432359 z m -0.74758,0.720024 v 0.768254 l 0.3669,0.04651 v 0.09129 h -0.97324 v -0.09129 l 0.27389,-0.04651 v -2.036047 l -0.29628,-0.04479 v -0.0913 h 0.87161 q 0.84749,0 0.84749,0.680405 0,0.354844 -0.21532,0.539157 -0.21359,0.184312 -0.61495,0.184312 z"
         id="path13032" />
      <path
         d="m 154.53801,24.337747 v 0.437526 h -0.0741 l -0.0999,-0.18948 q -0.0861,0 -0.20498,0.02412 -0.11713,0.02239 -0.20326,0.06029 v 1.209226 l 0.27733,0.04306 v 0.07751 h -0.76826 v -0.07751 l 0.20499,-0.04306 v -1.378035 l -0.20499,-0.04306 v -0.07751 h 0.47198 l 0.0155,0.201537 q 0.10336,-0.08613 0.27906,-0.165364 0.17742,-0.07924 0.28077,-0.07924 z"
         id="path13034" />
      <path
         d="m 156.19854,25.181794 q 0,0.852659 -0.75792,0.852659 -0.36518,0 -0.55121,-0.218763 -0.18604,-0.218763 -0.18604,-0.633896 0,-0.409966 0.18604,-0.627006 0.18603,-0.217041 0.56499,-0.217041 0.36863,0 0.55638,0.213595 0.18776,0.211873 0.18776,0.630452 z m -0.31006,0 q 0,-0.37207 -0.10852,-0.539157 -0.10852,-0.167087 -0.33934,-0.167087 -0.22565,0 -0.32728,0.160197 -0.0999,0.160197 -0.0999,0.546047 0,0.391017 0.10163,0.554659 0.10335,0.161919 0.32556,0.161919 0.22738,0 0.33762,-0.168809 0.11024,-0.16881 0.11024,-0.547769 z"
         id="path13036" />
      <path
         d="m 156.59473,24.501389 -0.18432,-0.04306 v -0.07751 h 0.45476 l 0.003,0.09474 q 0.0724,-0.06201 0.19293,-0.09991 0.1223,-0.0379 0.24804,-0.0379 0.31006,0 0.47887,0.215318 0.17053,0.215318 0.17053,0.618393 0,0.411688 -0.18603,0.637342 -0.18432,0.225653 -0.53399,0.225653 -0.19465,0 -0.37035,-0.0379 0.0103,0.124023 0.0103,0.194647 v 0.437526 l 0.28249,0.04134 v 0.08096 h -0.7717 v -0.08096 l 0.20499,-0.04134 z m 1.05419,0.670069 q 0,-0.330728 -0.10852,-0.490925 -0.1068,-0.161919 -0.32556,-0.161919 -0.20154,0 -0.33589,0.05684 v 1.293631 q 0.1533,0.02928 0.33589,0.02928 0.43408,0 0.43408,-0.726914 z"
         id="path13038" />
      <path
         d="m 158.89777,24.344637 q 0.26527,0 0.38929,0.10852 0.12575,0.108521 0.12575,0.332451 v 1.093816 l 0.20154,0.04306 v 0.07751 h -0.44442 l -0.0327,-0.161919 q -0.19637,0.19637 -0.50126,0.19637 -0.41513,0 -0.41513,-0.482313 0,-0.161919 0.062,-0.266994 0.0637,-0.106798 0.20154,-0.161919 0.1378,-0.05684 0.39963,-0.06201 l 0.24288,-0.0069 v -0.253214 q 0,-0.167086 -0.062,-0.246323 -0.0603,-0.07924 -0.18775,-0.07924 -0.17226,0 -0.31523,0.08096 l -0.0586,0.201538 h -0.0965 v -0.353122 q 0.27905,-0.06029 0.49093,-0.06029 z m 0.2291,0.830266 -0.22566,0.0069 q -0.23082,0.0086 -0.3135,0.08957 -0.081,0.08096 -0.081,0.270439 0,0.303168 0.24632,0.303168 0.11714,0 0.20154,-0.02584 0.0861,-0.02756 0.17226,-0.0689 z"
         id="path13040" />
      <path
         d="m 161.16119,24.892406 q 0,0.279052 -0.16709,0.422023 -0.16708,0.142972 -0.48059,0.142972 -0.14125,0 -0.26182,-0.02584 l -0.10852,0.225654 q 0.005,0.02928 0.0672,0.05512 0.062,0.02584 0.15502,0.02584 h 0.47887 q 0.26183,0 0.38757,0.113688 0.12747,0.113688 0.12747,0.313503 0,0.180867 -0.10163,0.315226 -0.0999,0.134358 -0.29455,0.206705 -0.19465,0.07407 -0.47198,0.07407 -0.33073,0 -0.50471,-0.10163 -0.17225,-0.10163 -0.17225,-0.289387 0,-0.0913 0.062,-0.180867 0.062,-0.08785 0.22738,-0.206706 -0.0982,-0.03273 -0.16537,-0.111965 -0.0672,-0.07924 -0.0672,-0.170532 l 0.27217,-0.306613 q -0.27217,-0.127468 -0.27217,-0.50126 0,-0.265272 0.16709,-0.409965 0.16881,-0.144694 0.4892,-0.144694 0.0637,0 0.16365,0.01378 0.0999,0.01206 0.1533,0.02928 l 0.38068,-0.191203 0.0603,0.07407 -0.23943,0.248046 q 0.11541,0.129191 0.11541,0.380682 z m -0.0706,1.326359 q 0,-0.09819 -0.0603,-0.153306 -0.0603,-0.05512 -0.18259,-0.05512 h -0.62701 q -0.0724,0.06201 -0.11885,0.156752 -0.0448,0.09646 -0.0448,0.179144 0,0.148139 0.1068,0.211873 0.10679,0.06546 0.32728,0.06546 0.28767,0 0.44269,-0.106798 0.15676,-0.106798 0.15676,-0.298 z m -0.57361,-0.892278 q 0.18776,0 0.26527,-0.106798 0.0792,-0.10852 0.0792,-0.327283 0,-0.229098 -0.081,-0.325561 -0.081,-0.09819 -0.26011,-0.09819 -0.18086,0 -0.26527,0.09819 -0.0844,0.09819 -0.0844,0.325561 0,0.227376 0.0827,0.330729 0.0827,0.103352 0.26355,0.103352 z"
         id="path13042" />
      <path
         d="m 162.22744,24.344637 q 0.26528,0 0.3893,0.10852 0.12574,0.108521 0.12574,0.332451 v 1.093816 l 0.20154,0.04306 v 0.07751 h -0.44441 l -0.0327,-0.161919 q -0.19637,0.19637 -0.50126,0.19637 -0.41514,0 -0.41514,-0.482313 0,-0.161919 0.062,-0.266994 0.0637,-0.106798 0.20153,-0.161919 0.13781,-0.05684 0.39963,-0.06201 l 0.24288,-0.0069 v -0.253214 q 0,-0.167086 -0.062,-0.246323 -0.0603,-0.07924 -0.18776,-0.07924 -0.17225,0 -0.31522,0.08096 l -0.0586,0.201538 h -0.0965 v -0.353122 q 0.27905,-0.06029 0.49092,-0.06029 z m 0.2291,0.830266 -0.22565,0.0069 q -0.23082,0.0086 -0.3135,0.08957 -0.081,0.08096 -0.081,0.270439 0,0.303168 0.24632,0.303168 0.11713,0 0.20154,-0.02584 0.0861,-0.02756 0.17225,-0.0689 z"
         id="path13044" />
      <path
         d="m 163.56758,26.034453 q -0.16536,0 -0.24804,-0.09819 -0.081,-0.09818 -0.081,-0.275607 v -1.135157 h -0.21187 v -0.07751 l 0.21531,-0.06718 0.17398,-0.366902 h 0.10852 v 0.366902 h 0.37035 v 0.144693 h -0.37035 v 1.104151 q 0,0.111965 0.0499,0.168809 0.0517,0.05684 0.13436,0.05684 0.0999,0 0.24288,-0.02756 v 0.111965 q -0.0603,0.04134 -0.17398,0.06718 -0.11368,0.02756 -0.21015,0.02756 z"
         id="path13046" />
      <path
         d="m 164.62523,23.85199 q 0,0.07579 -0.0551,0.130913 -0.0551,0.05512 -0.13263,0.05512 -0.0758,0 -0.13091,-0.05512 -0.0551,-0.05512 -0.0551,-0.130913 0,-0.07752 0.0551,-0.132636 0.0551,-0.05512 0.13091,-0.05512 0.0775,0 0.13263,0.05512 0.0551,0.05512 0.0551,0.132636 z m -0.0172,2.027434 0.27733,0.04306 v 0.07751 h -0.83888 v -0.07751 l 0.27561,-0.04306 v -1.378035 l -0.2291,-0.04306 v -0.07751 h 0.51504 z"
         id="path13048" />
      <path
         d="m 166.58204,25.181794 q 0,0.852659 -0.75792,0.852659 -0.36518,0 -0.55122,-0.218763 -0.18603,-0.218763 -0.18603,-0.633896 0,-0.409966 0.18603,-0.627006 0.18604,-0.217041 0.565,-0.217041 0.36862,0 0.55638,0.213595 0.18776,0.211873 0.18776,0.630452 z m -0.31006,0 q 0,-0.37207 -0.10852,-0.539157 -0.10852,-0.167087 -0.33934,-0.167087 -0.22566,0 -0.32729,0.160197 -0.0999,0.160197 -0.0999,0.546047 0,0.391017 0.10163,0.554659 0.10335,0.161919 0.32556,0.161919 0.22737,0 0.33761,-0.168809 0.11025,-0.16881 0.11025,-0.547769 z"
         id="path13050" />
      <path
         d="m 167.2745,24.511724 q 0.13263,-0.07579 0.2825,-0.124023 0.14986,-0.04995 0.24976,-0.04995 0.21016,0 0.31695,0.122301 0.1068,0.1223 0.1068,0.354844 v 1.064532 l 0.19637,0.04306 v 0.07751 h -0.69763 v -0.07751 l 0.21532,-0.04306 v -1.033527 q 0,-0.142971 -0.0706,-0.22393 -0.0689,-0.08268 -0.21531,-0.08268 -0.15503,0 -0.38069,0.04995 v 1.290186 l 0.21877,0.04306 v 0.07751 h -0.69936 v -0.07751 l 0.19465,-0.04306 v -1.378035 l -0.19465,-0.04306 v -0.07751 h 0.46165 z"
         id="path13052" />
      <path
         d="m 171.4086,24.828672 q 0,-0.484035 -0.26182,-0.733804 -0.26011,-0.249769 -0.74414,-0.249769 h -0.31006 v 1.992984 q 0.20671,0.01378 0.49093,0.01378 0.42374,0 0.62356,-0.249769 0.20153,-0.249769 0.20153,-0.773422 z m -0.89572,-1.138602 q 0.63906,0 0.9474,0.285943 0.30834,0.28422 0.30834,0.856104 0,0.578775 -0.298,0.876775 -0.29628,0.298 -0.88711,0.298 l -0.82338,-0.0069 h -0.29628 v -0.09129 l 0.29628,-0.04651 v -2.036047 l -0.29628,-0.04479 v -0.0913 z"
         id="path13054" />
      <path
         d="m 172.56271,23.85199 q 0,0.07579 -0.0551,0.130913 -0.0551,0.05512 -0.13264,0.05512 -0.0758,0 -0.13091,-0.05512 -0.0551,-0.05512 -0.0551,-0.130913 0,-0.07752 0.0551,-0.132636 0.0551,-0.05512 0.13091,-0.05512 0.0775,0 0.13264,0.05512 0.0551,0.05512 0.0551,0.132636 z m -0.0172,2.027434 0.27733,0.04306 v 0.07751 h -0.83888 v -0.07751 l 0.27561,-0.04306 v -1.378035 l -0.2291,-0.04306 v -0.07751 h 0.51504 z"
         id="path13056" />
      <path
         d="m 174.03376,24.337747 v 0.437526 h -0.0741 l -0.0999,-0.18948 q -0.0861,0 -0.20498,0.02412 -0.11713,0.02239 -0.20326,0.06029 v 1.209226 l 0.27733,0.04306 v 0.07751 h -0.76825 v -0.07751 l 0.20498,-0.04306 v -1.378035 l -0.20498,-0.04306 v -0.07751 h 0.47197 l 0.0155,0.201537 q 0.10335,-0.08613 0.27905,-0.165364 0.17742,-0.07924 0.28077,-0.07924 z"
         id="path13058" />
      <path
         d="m 174.51263,25.185239 v 0.03101 q 0,0.237711 0.0517,0.370347 0.0534,0.130914 0.16192,0.199815 0.11025,0.0689 0.28767,0.0689 0.093,0 0.22048,-0.0155 0.12747,-0.0155 0.21015,-0.03445 v 0.09646 q -0.0827,0.0534 -0.22565,0.09302 -0.14125,0.03962 -0.28939,0.03962 -0.37723,0 -0.55293,-0.20326 -0.17398,-0.203261 -0.17398,-0.652845 0,-0.423745 0.17742,-0.632173 0.17742,-0.208428 0.50643,-0.208428 0.62184,0 0.62184,0.706243 v 0.141249 z m 0.37379,-0.709689 q -0.17914,0 -0.27561,0.144694 -0.0947,0.144694 -0.0947,0.427191 h 0.69247 q 0,-0.308335 -0.0792,-0.439249 -0.0792,-0.132636 -0.24288,-0.132636 z"
         id="path13060" />
      <path
         d="m 177.08783,25.901817 q -0.0844,0.06201 -0.23254,0.09818 -0.14814,0.03445 -0.30317,0.03445 -0.7872,0 -0.7872,-0.856105 0,-0.404797 0.19981,-0.621838 0.20154,-0.218763 0.57533,-0.218763 0.23255,0 0.50815,0.0534 v 0.451306 h -0.0947 l -0.0741,-0.285942 q -0.14297,-0.08096 -0.34278,-0.08096 -0.46164,0 -0.46164,0.702798 0,0.36518 0.13952,0.521931 0.14125,0.155029 0.43581,0.155029 0.25149,0 0.43752,-0.05684 z"
         id="path13062" />
      <path
         d="m 177.77168,26.034453 q -0.16536,0 -0.24805,-0.09819 -0.081,-0.09818 -0.081,-0.275607 v -1.135157 h -0.21187 v -0.07751 l 0.21532,-0.06718 0.17398,-0.366902 h 0.10852 v 0.366902 h 0.37034 v 0.144693 h -0.37034 v 1.104151 q 0,0.111965 0.0499,0.168809 0.0517,0.05684 0.13436,0.05684 0.0999,0 0.24288,-0.02756 v 0.111965 q -0.0603,0.04134 -0.17398,0.06718 -0.11369,0.02756 -0.21015,0.02756 z"
         id="path13064" />
      <path
         d="m 178.82932,23.85199 q 0,0.07579 -0.0551,0.130913 -0.0551,0.05512 -0.13263,0.05512 -0.0758,0 -0.13092,-0.05512 -0.0551,-0.05512 -0.0551,-0.130913 0,-0.07752 0.0551,-0.132636 0.0551,-0.05512 0.13092,-0.05512 0.0775,0 0.13263,0.05512 0.0551,0.05512 0.0551,0.132636 z m -0.0172,2.027434 0.27733,0.04306 v 0.07751 h -0.83888 v -0.07751 l 0.2756,-0.04306 v -1.378035 l -0.22909,-0.04306 v -0.07751 h 0.51504 z"
         id="path13066" />
      <path
         d="m 180.78613,25.181794 q 0,0.852659 -0.75792,0.852659 -0.36518,0 -0.55121,-0.218763 -0.18604,-0.218763 -0.18604,-0.633896 0,-0.409966 0.18604,-0.627006 0.18603,-0.217041 0.56499,-0.217041 0.36863,0 0.55639,0.213595 0.18775,0.211873 0.18775,0.630452 z m -0.31006,0 q 0,-0.37207 -0.10852,-0.539157 -0.10852,-0.167087 -0.33934,-0.167087 -0.22565,0 -0.32728,0.160197 -0.0999,0.160197 -0.0999,0.546047 0,0.391017 0.10163,0.554659 0.10335,0.161919 0.32556,0.161919 0.22738,0 0.33762,-0.168809 0.11024,-0.16881 0.11024,-0.547769 z"
         id="path13068" />
      <path
         d="m 181.4786,24.511724 q 0.13263,-0.07579 0.28249,-0.124023 0.14986,-0.04995 0.24977,-0.04995 0.21015,0 0.31695,0.122301 0.1068,0.1223 0.1068,0.354844 v 1.064532 l 0.19637,0.04306 v 0.07751 h -0.69763 v -0.07751 l 0.21532,-0.04306 v -1.033527 q 0,-0.142971 -0.0706,-0.22393 -0.0689,-0.08268 -0.21532,-0.08268 -0.15503,0 -0.38068,0.04995 v 1.290186 l 0.21876,0.04306 v 0.07751 h -0.69935 v -0.07751 l 0.19465,-0.04306 v -1.378035 l -0.19465,-0.04306 v -0.07751 h 0.46164 z"
         id="path13070" />
    </g>
    <g
       aria-label="p-Plane View"
       id="text4072"
       style="font-size:3.52777px;line-height:1.25;font-family:'Times New Roman';-inkscape-font-specification:'Times New Roman, ';text-align:center;text-anchor:middle;stroke-width:0.264583">
      <path
         d="m 90.279106,24.501389 -0.184312,-0.04306 v -0.07751 h 0.454751 l 0.0034,0.09474 q 0.07235,-0.06201 0.192924,-0.09991 0.122301,-0.0379 0.248047,-0.0379 0.310058,0 0.478867,0.215318 0.170532,0.215318 0.170532,0.618393 0,0.411688 -0.186035,0.637342 -0.184312,0.225653 -0.533988,0.225653 -0.194648,0 -0.370347,-0.0379 0.01033,0.124023 0.01033,0.194647 v 0.437526 l 0.282497,0.04134 v 0.08096 h -0.7717 v -0.08096 l 0.204983,-0.04134 z m 1.054197,0.670069 q 0,-0.330728 -0.10852,-0.490925 -0.106798,-0.161919 -0.325561,-0.161919 -0.201538,0 -0.335896,0.05684 v 1.293631 q 0.153306,0.02928 0.335896,0.02928 0.434081,0 0.434081,-0.726914 z"
         id="path13073" />
      <path
         d="M 91.912078,25.300649 V 25.0371 h 0.916393 v 0.263549 z"
         id="path13075" />
      <path
         d="m 94.433882,24.37392 q 0,-0.284219 -0.132636,-0.40652 -0.132636,-0.122301 -0.446139,-0.122301 h -0.168809 v 1.093816 h 0.179145 q 0.29111,0 0.428913,-0.132636 0.139526,-0.132636 0.139526,-0.432359 z m -0.747584,0.720024 v 0.768254 l 0.366902,0.04651 v 0.09129 h -0.973237 v -0.09129 l 0.273884,-0.04651 v -2.036047 l -0.296277,-0.04479 v -0.0913 h 0.871607 q 0.847492,0 0.847492,0.680405 0,0.354844 -0.215318,0.539157 -0.213596,0.184312 -0.614949,0.184312 z"
         id="path13077" />
      <path
         d="m 95.550091,25.879424 0.277329,0.04306 v 0.07751 h -0.838879 v -0.07751 l 0.275607,-0.04306 v -2.208302 l -0.275607,-0.04134 v -0.07751 h 0.56155 z"
         id="path13079" />
      <path
         d="m 96.699027,24.344637 q 0.265272,0 0.389295,0.10852 0.125746,0.108521 0.125746,0.332451 v 1.093816 l 0.201538,0.04306 v 0.07751 h -0.444417 l -0.03273,-0.161919 q -0.19637,0.19637 -0.50126,0.19637 -0.415133,0 -0.415133,-0.482313 0,-0.161919 0.06201,-0.266994 0.06373,-0.106798 0.201538,-0.161919 0.137803,-0.05684 0.39963,-0.06201 l 0.242879,-0.0069 v -0.253214 q 0,-0.167086 -0.06201,-0.246323 -0.06029,-0.07924 -0.187757,-0.07924 -0.172255,0 -0.315226,0.08096 L 96.30456,24.75803 H 96.2081 v -0.353122 q 0.279052,-0.06029 0.490925,-0.06029 z m 0.229099,0.830266 -0.225654,0.0069 q -0.230821,0.0086 -0.313503,0.08957 -0.08096,0.08096 -0.08096,0.270439 0,0.303168 0.246324,0.303168 0.117133,0 0.201537,-0.02584 0.08613,-0.02756 0.172255,-0.0689 z"
         id="path13081" />
      <path
         d="m 98.021941,24.511724 q 0.132636,-0.07579 0.282497,-0.124023 0.149862,-0.04995 0.249769,-0.04995 0.210151,0 0.316948,0.122301 0.106798,0.1223 0.106798,0.354844 v 1.064532 l 0.19637,0.04306 v 0.07751 h -0.69763 v -0.07751 l 0.215318,-0.04306 v -1.033527 q 0,-0.142971 -0.07062,-0.22393 -0.0689,-0.08268 -0.215318,-0.08268 -0.155028,0 -0.380682,0.04995 v 1.290186 l 0.218763,0.04306 v 0.07751 h -0.699353 v -0.07751 l 0.194648,-0.04306 v -1.378035 l -0.194648,-0.04306 v -0.07751 h 0.461642 z"
         id="path13083" />
      <path
         d="m 99.675583,25.185239 v 0.03101 q 0,0.237711 0.05168,0.370347 0.0534,0.130914 0.161919,0.199815 0.110243,0.0689 0.287658,0.0689 0.093,0 0.22049,-0.0155 0.12747,-0.0155 0.21015,-0.03445 v 0.09646 q -0.0827,0.0534 -0.22565,0.09302 -0.14125,0.03962 -0.28939,0.03962 -0.377235,0 -0.552935,-0.20326 -0.173977,-0.203261 -0.173977,-0.652845 0,-0.423745 0.177422,-0.632173 0.177423,-0.208428 0.50643,-0.208428 0.62183,0 0.62183,0.706243 v 0.141249 z m 0.373797,-0.709689 q -0.179149,0 -0.275612,0.144694 -0.09474,0.144694 -0.09474,0.427191 h 0.692462 q 0,-0.308335 -0.0792,-0.439249 -0.0792,-0.132636 -0.24287,-0.132636 z"
         id="path13085" />
      <path
         d="m 104.11975,23.69007 v 0.0913 l -0.25322,0.04479 -0.92845,2.22725 h -0.0879 l -0.93878,-2.22725 -0.26011,-0.04479 v -0.0913 h 0.93362 v 0.0913 l -0.31006,0.04479 0.69935,1.700151 0.69764,-1.700151 -0.30317,-0.04479 v -0.0913 z"
         id="path13087" />
      <path
         d="m 104.60034,23.85199 q 0,0.07579 -0.0551,0.130913 -0.0551,0.05512 -0.13264,0.05512 -0.0758,0 -0.13091,-0.05512 -0.0551,-0.05512 -0.0551,-0.130913 0,-0.07752 0.0551,-0.132636 0.0551,-0.05512 0.13091,-0.05512 0.0775,0 0.13264,0.05512 0.0551,0.05512 0.0551,0.132636 z m -0.0172,2.027434 0.27733,0.04306 v 0.07751 h -0.83888 v -0.07751 l 0.27561,-0.04306 v -1.378035 l -0.2291,-0.04306 v -0.07751 h 0.51504 z"
         id="path13089" />
      <path
         d="m 105.37548,25.185239 v 0.03101 q 0,0.237711 0.0517,0.370347 0.0534,0.130914 0.16192,0.199815 0.11024,0.0689 0.28766,0.0689 0.093,0 0.22049,-0.0155 0.12747,-0.0155 0.21015,-0.03445 v 0.09646 q -0.0827,0.0534 -0.22566,0.09302 -0.14124,0.03962 -0.28938,0.03962 -0.37724,0 -0.55294,-0.20326 -0.17398,-0.203261 -0.17398,-0.652845 0,-0.423745 0.17743,-0.632173 0.17742,-0.208428 0.50642,-0.208428 0.62184,0 0.62184,0.706243 v 0.141249 z m 0.37379,-0.709689 q -0.17914,0 -0.2756,0.144694 -0.0947,0.144694 -0.0947,0.427191 h 0.69246 q 0,-0.308335 -0.0792,-0.439249 -0.0792,-0.132636 -0.24288,-0.132636 z"
         id="path13091" />
      <path
         d="m 108.30381,26.034453 h -0.13436 l -0.39963,-1.067977 -0.39446,1.067977 h -0.12747 l -0.55983,-1.533064 -0.1912,-0.04306 v -0.07751 h 0.76997 v 0.07751 l -0.26871,0.04651 0.38413,1.093815 0.39101,-1.055919 h 0.1447 l 0.38929,1.062809 0.3669,-1.10415 -0.26527,-0.04306 v -0.07751 h 0.61667 v 0.07751 l -0.17914,0.03617 z"
         id="path13093" />
    </g>
    <g
       id="g4198"
       transform="matrix(0.5000005,0,0,0.5,77.654725,26.828881)"
       style="stroke-width:0.6;stroke-dasharray:none;stroke:#ad8738;stroke-opacity:1">
      <path
         style="fill:none;stroke:#ad8738;stroke-width:0.6;stroke-linecap:butt;stroke-linejoin:miter;stroke-dasharray:none;stroke-opacity:1"
         d="m 159.99999,55.000001 1.00001,-1"
         id="path4130"
         inkscape:path-effect="#path-effect4132"
         inkscape:original-d="m 159.99999,55.000001 c 0.3336,-0.333069 0.66694,-0.666402 1.00001,-1" />
      <path
         style="fill:none;stroke:#ad8738;stroke-width:0.6;stroke-linecap:butt;stroke-linejoin:miter;stroke-dasharray:none;stroke-opacity:1"
         d="m 159.99999,55.000001 1.00001,1"
         id="path4146"
         inkscape:path-effect="#path-effect4148"
         inkscape:original-d="m 159.99999,55.000001 c 0.3336,0.333598 0.66694,0.666931 1.00001,1" />
      <path
         style="fill:none;stroke:#ad8738;stroke-width:0.6;stroke-linecap:butt;stroke-linejoin:miter;stroke-dasharray:none;stroke-opacity:1"
         d="m 159.99999,55.000001 -1,1"
         id="path4162"
         inkscape:path-effect="#path-effect4164"
         inkscape:original-d="m 159.99999,55.000001 c -0.33306,0.333598 -0.6664,0.666931 -1,1" />
      <path
         style="fill:none;stroke:#ad8738;stroke-width:0.6;stroke-linecap:butt;stroke-linejoin:miter;stroke-dasharray:none;stroke-opacity:1"
         d="m 159.99999,55.000001 -1,-1"
         id="path4178"
         inkscape:path-effect="#path-effect4180"
         inkscape:original-d="m 159.99999,55.000001 c -0.33306,-0.333069 -0.6664,-0.666402 -1,-1" />
    </g>
    <g
       aria-label="Orthogonality: sEp  Es s'  Ep'  Es"
       id="text4960"
       style="font-size:3.52777px;line-height:1.25;font-family:'Times New Roman';-inkscape-font-specification:'Times New Roman, ';text-align:center;text-anchor:middle;stroke-width:0.264583;stroke:none;stroke-opacity:1;fill:#757575;fill-opacity:1"
       transform="translate(1.6832468,-0.262263)">
      <g
         aria-label="Orthogonality: s  Ep, s  Es, Es  Ep s'  Ep', s'  Es, Es  Ep'"
         id="text547"
         style="stroke-width:0.0700042;stroke:none;stroke-opacity:1;fill:#757575;fill-opacity:1">
        <path
           d="m 118.93705,59.397191 q 0,0.556382 0.18603,0.806151 0.18604,0.249769 0.58222,0.249769 0.39446,0 0.58222,-0.249769 0.18776,-0.249769 0.18776,-0.806151 0,-0.552936 -0.18776,-0.795815 -0.18603,-0.244601 -0.58222,-0.244601 -0.39791,0 -0.58394,0.244601 -0.18431,0.242879 -0.18431,0.795815 z m -0.36001,0 q 0,-1.17822 1.12826,-1.17822 0.55811,0 0.84405,0.299723 0.28594,0.298 0.28594,0.878497 0,0.58911 -0.28939,0.890556 -0.28938,0.301445 -0.8406,0.301445 -0.54949,0 -0.83888,-0.299723 -0.28938,-0.301445 -0.28938,-0.892278 z"
           id="path623"
           style="stroke:none;stroke-opacity:1;fill:#757575;fill-opacity:1" />
        <path
           d="m 122.12375,58.892486 v 0.437526 h -0.0741 l -0.0999,-0.18948 q -0.0861,0 -0.20499,0.02412 -0.11713,0.02239 -0.20326,0.06029 v 1.209226 l 0.27733,0.04306 v 0.07751 h -0.76825 v -0.07751 l 0.20498,-0.04306 v -1.378035 l -0.20498,-0.04306 v -0.07751 h 0.47198 l 0.0155,0.201537 q 0.10335,-0.08613 0.27905,-0.165364 0.17742,-0.07924 0.28078,-0.07924 z"
           id="path625"
           style="stroke:none;stroke-opacity:1;fill:#757575;fill-opacity:1" />
        <path
           d="m 122.73009,60.589192 q -0.16537,0 -0.24805,-0.09818 -0.081,-0.09819 -0.081,-0.275607 v -1.135157 h -0.21187 v -0.07751 l 0.21532,-0.06718 0.17397,-0.366902 h 0.10853 v 0.366902 h 0.37034 v 0.144693 h -0.37034 v 1.104151 q 0,0.111965 0.05,0.168809 0.0517,0.05684 0.13436,0.05684 0.0999,0 0.24288,-0.02756 v 0.111965 q -0.0603,0.04134 -0.17398,0.06718 -0.11369,0.02756 -0.21015,0.02756 z"
           id="path627"
           style="stroke:none;stroke-opacity:1;fill:#757575;fill-opacity:1" />
        <path
           d="m 123.69644,58.808081 q 0,0.179145 -0.0121,0.258382 0.12402,-0.07062 0.28077,-0.122301 0.15848,-0.05168 0.267,-0.05168 0.21015,0 0.31695,0.122301 0.10679,0.1223 0.10679,0.354844 v 1.064532 l 0.19637,0.04306 v 0.07751 h -0.69763 v -0.07751 l 0.21532,-0.04306 v -1.043862 q 0,-0.296277 -0.28594,-0.296277 -0.16192,0 -0.38757,0.04995 v 1.290186 l 0.21876,0.04306 v 0.07751 h -0.70969 v -0.07751 l 0.20498,-0.04306 v -2.208302 l -0.24115,-0.04134 v -0.07751 h 0.5271 z"
           id="path629"
           style="stroke:none;stroke-opacity:1;fill:#757575;fill-opacity:1" />
        <path
           d="m 126.5283,59.736533 q 0,0.852659 -0.75792,0.852659 -0.36518,0 -0.55122,-0.218763 -0.18603,-0.218763 -0.18603,-0.633896 0,-0.409966 0.18603,-0.627006 0.18604,-0.217041 0.565,-0.217041 0.36862,0 0.55638,0.213595 0.18776,0.211873 0.18776,0.630452 z m -0.31006,0 q 0,-0.37207 -0.10852,-0.539157 -0.10852,-0.167087 -0.33934,-0.167087 -0.22565,0 -0.32728,0.160197 -0.0999,0.160197 -0.0999,0.546047 0,0.391017 0.10163,0.554659 0.10335,0.161919 0.32556,0.161919 0.22737,0 0.33762,-0.168809 0.11024,-0.16881 0.11024,-0.547769 z"
           id="path631"
           style="stroke:none;stroke-opacity:1;fill:#757575;fill-opacity:1" />
        <path
           d="m 128.16127,59.447145 q 0,0.279052 -0.16709,0.422023 -0.16708,0.142972 -0.48059,0.142972 -0.14125,0 -0.26182,-0.02584 l -0.10852,0.225654 q 0.005,0.02928 0.0672,0.05512 0.062,0.02584 0.15502,0.02584 h 0.47887 q 0.26183,0 0.38757,0.113688 0.12747,0.113688 0.12747,0.313503 0,0.180867 -0.10163,0.315226 -0.0999,0.134358 -0.29455,0.206705 -0.19465,0.07407 -0.47198,0.07407 -0.33073,0 -0.5047,-0.10163 -0.17226,-0.10163 -0.17226,-0.289387 0,-0.0913 0.062,-0.180867 0.062,-0.08785 0.22738,-0.206706 -0.0982,-0.03273 -0.16537,-0.111965 -0.0672,-0.07924 -0.0672,-0.170532 l 0.27217,-0.306613 q -0.27217,-0.127468 -0.27217,-0.50126 0,-0.265272 0.16709,-0.409965 0.16881,-0.144694 0.4892,-0.144694 0.0637,0 0.16365,0.01378 0.0999,0.01206 0.1533,0.02928 l 0.38068,-0.191203 0.0603,0.07407 -0.23943,0.248046 q 0.11541,0.129191 0.11541,0.380682 z m -0.0706,1.326359 q 0,-0.09819 -0.0603,-0.153306 -0.0603,-0.05512 -0.18259,-0.05512 h -0.62701 q -0.0724,0.06201 -0.11885,0.156752 -0.0448,0.09646 -0.0448,0.179144 0,0.148139 0.1068,0.211873 0.10679,0.06546 0.32728,0.06546 0.28767,0 0.44269,-0.106798 0.15676,-0.106798 0.15676,-0.298 z m -0.57361,-0.892278 q 0.18776,0 0.26527,-0.106798 0.0792,-0.10852 0.0792,-0.327283 0,-0.229098 -0.081,-0.325561 -0.081,-0.09819 -0.26011,-0.09819 -0.18086,0 -0.26527,0.09819 -0.0844,0.09819 -0.0844,0.325561 0,0.227376 0.0827,0.330729 0.0827,0.103352 0.26355,0.103352 z"
           id="path633"
           style="stroke:none;stroke-opacity:1;fill:#757575;fill-opacity:1" />
        <path
           d="m 130.05607,59.736533 q 0,0.852659 -0.75792,0.852659 -0.36518,0 -0.55122,-0.218763 -0.18603,-0.218763 -0.18603,-0.633896 0,-0.409966 0.18603,-0.627006 0.18604,-0.217041 0.565,-0.217041 0.36862,0 0.55638,0.213595 0.18776,0.211873 0.18776,0.630452 z m -0.31006,0 q 0,-0.37207 -0.10852,-0.539157 -0.10852,-0.167087 -0.33934,-0.167087 -0.22565,0 -0.32728,0.160197 -0.0999,0.160197 -0.0999,0.546047 0,0.391017 0.10163,0.554659 0.10335,0.161919 0.32556,0.161919 0.22737,0 0.33762,-0.168809 0.11024,-0.16881 0.11024,-0.547769 z"
           id="path635"
           style="stroke:none;stroke-opacity:1;fill:#757575;fill-opacity:1" />
        <path
           d="m 130.74853,59.066463 q 0.13264,-0.07579 0.2825,-0.124023 0.14986,-0.04995 0.24977,-0.04995 0.21015,0 0.31695,0.122301 0.10679,0.1223 0.10679,0.354844 v 1.064532 l 0.19637,0.04306 v 0.07751 h -0.69763 v -0.07751 l 0.21532,-0.04306 V 59.40064 q 0,-0.142971 -0.0706,-0.22393 -0.0689,-0.08268 -0.21532,-0.08268 -0.15503,0 -0.38068,0.04995 v 1.290186 l 0.21876,0.04306 v 0.07751 h -0.69935 v -0.07751 l 0.19464,-0.04306 v -1.378035 l -0.19464,-0.04306 v -0.07751 h 0.46164 z"
           id="path637"
           style="stroke:none;stroke-opacity:1;fill:#757575;fill-opacity:1" />
        <path
           d="m 132.75529,58.899376 q 0.26528,0 0.3893,0.10852 0.12574,0.108521 0.12574,0.332451 v 1.093816 l 0.20154,0.04306 v 0.07751 h -0.44441 l -0.0327,-0.161919 q -0.19637,0.19637 -0.50126,0.19637 -0.41514,0 -0.41514,-0.482313 0,-0.161919 0.062,-0.266994 0.0637,-0.106798 0.20153,-0.161919 0.13781,-0.05684 0.39963,-0.06201 l 0.24288,-0.0069 V 59.35585 q 0,-0.167086 -0.062,-0.246323 -0.0603,-0.07924 -0.18776,-0.07924 -0.17225,0 -0.31522,0.08096 l -0.0586,0.201538 h -0.0965 v -0.353122 q 0.27905,-0.06029 0.49092,-0.06029 z m 0.2291,0.830266 -0.22565,0.0069 q -0.23082,0.0086 -0.3135,0.08957 -0.081,0.08096 -0.081,0.270439 0,0.303168 0.24632,0.303168 0.11713,0 0.20154,-0.02584 0.0861,-0.02756 0.17225,-0.0689 z"
           id="path639"
           style="stroke:none;stroke-opacity:1;fill:#757575;fill-opacity:1" />
        <path
           d="m 134.15228,60.434163 0.27733,0.04306 v 0.07751 h -0.83888 v -0.07751 l 0.27561,-0.04306 v -2.208302 l -0.27561,-0.04134 v -0.07751 h 0.56155 z"
           id="path641"
           style="stroke:none;stroke-opacity:1;fill:#757575;fill-opacity:1" />
        <path
           d="m 135.15308,58.406729 q 0,0.07579 -0.0551,0.130913 -0.0551,0.05512 -0.13263,0.05512 -0.0758,0 -0.13091,-0.05512 -0.0551,-0.05512 -0.0551,-0.130913 0,-0.07751 0.0551,-0.132636 0.0551,-0.05512 0.13091,-0.05512 0.0775,0 0.13263,0.05512 0.0551,0.05512 0.0551,0.132636 z m -0.0172,2.027434 0.27733,0.04306 v 0.07751 h -0.83888 v -0.07751 l 0.27561,-0.04306 v -1.378035 l -0.2291,-0.04306 v -0.07751 h 0.51504 z"
           id="path643"
           style="stroke:none;stroke-opacity:1;fill:#757575;fill-opacity:1" />
        <path
           d="m 136.05569,60.589192 q -0.16537,0 -0.24805,-0.09818 -0.081,-0.09819 -0.081,-0.275607 v -1.135157 h -0.21187 v -0.07751 l 0.21532,-0.06718 0.17397,-0.366902 h 0.10853 v 0.366902 h 0.37034 v 0.144693 h -0.37034 v 1.104151 q 0,0.111965 0.0499,0.168809 0.0517,0.05684 0.13436,0.05684 0.0999,0 0.24288,-0.02756 v 0.111965 q -0.0603,0.04134 -0.17398,0.06718 -0.11369,0.02756 -0.21015,0.02756 z"
           id="path645"
           style="stroke:none;stroke-opacity:1;fill:#757575;fill-opacity:1" />
        <path
           d="m 136.80327,61.316105 q -0.13436,0 -0.26527,-0.03101 v -0.349677 h 0.081 l 0.0568,0.165364 q 0.0534,0.03962 0.14814,0.03962 0.0896,0 0.16537,-0.05168 0.0758,-0.05168 0.1378,-0.153307 0.0637,-0.10163 0.15847,-0.363457 l -0.61667,-1.515838 -0.16536,-0.04306 v -0.07751 h 0.75103 v 0.07751 l -0.25494,0.04651 0.43753,1.131711 0.42374,-1.135156 -0.25321,-0.04306 v -0.07751 h 0.60289 v 0.07751 l -0.16881,0.03617 -0.63217,1.607134 q -0.11197,0.28422 -0.19465,0.408243 -0.0827,0.124023 -0.18259,0.187757 -0.0999,0.06373 -0.2291,0.06373 z"
           id="path647"
           style="stroke:none;stroke-opacity:1;fill:#757575;fill-opacity:1" />
        <path
           d="m 138.91856,60.396267 q 0,0.0844 -0.0603,0.146416 -0.0586,0.06201 -0.14642,0.06201 -0.0896,0 -0.14986,-0.06201 -0.0586,-0.06201 -0.0586,-0.146416 0,-0.08785 0.0603,-0.148139 0.0603,-0.06029 0.14814,-0.06029 0.0861,0 0.14642,0.06029 0.0603,0.05857 0.0603,0.148139 z m 0,-1.288463 q 0,0.08785 -0.0603,0.148139 -0.0603,0.06029 -0.14642,0.06029 -0.0879,0 -0.14814,-0.06029 -0.0603,-0.06029 -0.0603,-0.148139 0,-0.08441 0.0586,-0.146416 0.0603,-0.06201 0.14986,-0.06201 0.0879,0 0.14642,0.06201 0.0603,0.06201 0.0603,0.146416 z"
           id="path649"
           style="stroke:none;stroke-opacity:1;fill:#757575;fill-opacity:1" />
        <path
           d="m 113.91441,64.509702 q 0,0.241156 -0.1533,0.365179 -0.15159,0.124023 -0.44959,0.124023 -0.12058,0 -0.26699,-0.02584 -0.1447,-0.02412 -0.22738,-0.05512 v -0.397908 h 0.0775 l 0.0844,0.225653 q 0.12919,0.117133 0.3359,0.117133 0.33417,0 0.33417,-0.285942 0,-0.21015 -0.26355,-0.299723 l -0.15331,-0.04995 q -0.17397,-0.05684 -0.25321,-0.115411 -0.0792,-0.05857 -0.1223,-0.142971 -0.0431,-0.08613 -0.0431,-0.206705 0,-0.213596 0.14469,-0.335896 0.14642,-0.124023 0.39446,-0.124023 0.17742,0 0.44442,0.0534 v 0.353122 h -0.081 l -0.0724,-0.187757 q -0.0913,-0.08096 -0.28766,-0.08096 -0.13953,0 -0.2136,0.0689 -0.0723,0.0689 -0.0723,0.186035 0,0.09819 0.0654,0.165364 0.0672,0.06718 0.20154,0.111965 0.25321,0.08613 0.33073,0.125746 0.0775,0.03962 0.13091,0.09818 0.0551,0.05684 0.0844,0.130913 0.031,0.07407 0.031,0.18259 z"
           id="path651"
           style="stroke:none;stroke-opacity:1;fill:#757575;fill-opacity:1" />
        <path
           d="M 115.10374,64.872731 V 64.62226 h 1.02658 v -2.05669 h 0.25047 v 2.05669 h 1.03011 v 0.250471 z"
           id="path653"
           style="stroke:none;stroke-opacity:1;fill:#757575;fill-opacity:1" />
        <path
           d="m 118.57439,64.873159 0.29628,-0.04651 v -2.036047 l -0.29628,-0.04479 v -0.0913 h 1.73288 v 0.552937 h -0.11369 l -0.0551,-0.373792 q -0.19292,-0.02412 -0.5581,-0.02412 h -0.37724 v 0.902613 h 0.62356 l 0.0534,-0.275607 h 0.11024 v 0.709688 h -0.11024 l -0.0534,-0.279052 h -0.62356 v 0.942232 h 0.45475 q 0.44442,0 0.58222,-0.02756 l 0.0982,-0.427191 h 0.11368 l -0.0327,0.60978 h -1.84485 z"
           id="path655"
           style="stroke:none;stroke-opacity:1;fill:#757575;fill-opacity:1" />
        <path
           d="m 120.79785,64.695909 -0.1198,-0.02799 v -0.05039 h 0.29559 l 0.002,0.06158 q 0.047,-0.04031 0.1254,-0.06494 0.0795,-0.02463 0.16123,-0.02463 0.20154,0 0.31126,0.139956 0.11085,0.139957 0.11085,0.401956 0,0.267597 -0.12093,0.414272 -0.1198,0.146675 -0.34709,0.146675 -0.12652,0 -0.24072,-0.02463 0.007,0.08062 0.007,0.126521 v 0.284392 l 0.18363,0.02687 v 0.05262 h -0.50161 v -0.05262 l 0.13324,-0.02687 z m 0.68523,0.435545 q 0,-0.214973 -0.0705,-0.319101 -0.0694,-0.105248 -0.21161,-0.105248 -0.131,0 -0.21834,0.03695 v 0.84086 q 0.0996,0.01903 0.21834,0.01903 0.28215,0 0.28215,-0.472494 z"
           style="font-size:65%;baseline-shift:sub;stroke:none;stroke-opacity:1;fill:#757575;fill-opacity:1"
           id="path657" />
        <path
           d="m 122.43392,64.880049 q 0,0.235988 -0.1378,0.394462 -0.13608,0.160197 -0.38757,0.232544 v -0.132636 q 0.30317,-0.09646 0.30317,-0.289387 0,-0.03445 -0.0258,-0.06201 -0.0258,-0.02756 -0.0896,-0.06029 -0.11713,-0.06029 -0.11713,-0.170532 0,-0.09302 0.0586,-0.141249 0.0586,-0.04995 0.14986,-0.04995 0.11024,0 0.17742,0.07924 0.0689,0.07924 0.0689,0.199815 z"
           id="path659"
           style="stroke:none;stroke-opacity:1;fill:#757575;fill-opacity:1" />
        <path
           d="m 124.78347,64.509702 q 0,0.241156 -0.1533,0.365179 -0.15159,0.124023 -0.44959,0.124023 -0.12057,0 -0.26699,-0.02584 -0.14469,-0.02412 -0.22738,-0.05512 v -0.397908 h 0.0775 l 0.0844,0.225653 q 0.12919,0.117133 0.3359,0.117133 0.33417,0 0.33417,-0.285942 0,-0.21015 -0.26355,-0.299723 l -0.1533,-0.04995 q -0.17398,-0.05684 -0.25322,-0.115411 -0.0792,-0.05857 -0.1223,-0.142971 -0.0431,-0.08613 -0.0431,-0.206705 0,-0.213596 0.14469,-0.335896 0.14642,-0.124023 0.39446,-0.124023 0.17743,0 0.44442,0.0534 v 0.353122 h -0.081 l -0.0724,-0.187757 q -0.0913,-0.08096 -0.28766,-0.08096 -0.13953,0 -0.2136,0.0689 -0.0723,0.0689 -0.0723,0.186035 0,0.09819 0.0654,0.165364 0.0672,0.06718 0.20154,0.111965 0.25322,0.08613 0.33073,0.125746 0.0775,0.03962 0.13091,0.09818 0.0551,0.05684 0.0844,0.130913 0.031,0.07407 0.031,0.18259 z"
           id="path661"
           style="stroke:none;stroke-opacity:1;fill:#757575;fill-opacity:1" />
        <path
           d="M 125.9728,64.872731 V 64.62226 h 1.02658 v -2.05669 h 0.25047 v 2.05669 h 1.03011 v 0.250471 z"
           id="path663"
           style="stroke:none;stroke-opacity:1;fill:#757575;fill-opacity:1" />
        <path
           d="m 129.44345,64.873159 0.29628,-0.04651 v -2.036047 l -0.29628,-0.04479 v -0.0913 h 1.73288 v 0.552937 h -0.11369 l -0.0551,-0.373792 q -0.19292,-0.02412 -0.5581,-0.02412 h -0.37724 v 0.902613 h 0.62356 l 0.0534,-0.275607 h 0.11024 v 0.709688 h -0.11024 l -0.0534,-0.279052 h -0.62356 v 0.942232 h 0.45475 q 0.44442,0 0.58222,-0.02756 l 0.0982,-0.427191 h 0.11369 l -0.0327,0.60978 h -1.84485 z"
           id="path665"
           style="stroke:none;stroke-opacity:1;fill:#757575;fill-opacity:1" />
        <path
           d="m 132.30624,65.374419 q 0,0.156751 -0.0996,0.237366 -0.0985,0.08062 -0.29223,0.08062 -0.0784,0 -0.17355,-0.0168 -0.0941,-0.01568 -0.14779,-0.03583 v -0.25864 h 0.0504 l 0.0549,0.146674 q 0.084,0.07614 0.21834,0.07614 0.21721,0 0.21721,-0.185863 0,-0.136597 -0.17131,-0.194819 l -0.0996,-0.03247 q -0.11308,-0.03695 -0.16459,-0.07502 -0.0515,-0.03807 -0.0795,-0.09293 -0.028,-0.05598 -0.028,-0.134359 0,-0.138837 0.0941,-0.218332 0.0952,-0.08062 0.2564,-0.08062 0.11532,0 0.28887,0.03471 v 0.229529 h -0.0526 l -0.047,-0.122042 q -0.0593,-0.05262 -0.18698,-0.05262 -0.0907,0 -0.13884,0.04479 -0.047,0.04479 -0.047,0.120923 0,0.06382 0.0425,0.107487 0.0437,0.04367 0.131,0.07278 0.16459,0.05598 0.21498,0.08173 0.0504,0.02575 0.0851,0.06382 0.0358,0.03695 0.0549,0.08509 0.0202,0.04815 0.0202,0.118683 z"
           style="font-size:65%;baseline-shift:sub;stroke:none;stroke-opacity:1;fill:#757575;fill-opacity:1"
           id="path667" />
        <path
           d="m 133.04882,64.880049 q 0,0.235988 -0.1378,0.394462 -0.13608,0.160197 -0.38757,0.232544 v -0.132636 q 0.30316,-0.09646 0.30316,-0.289387 0,-0.03445 -0.0258,-0.06201 -0.0258,-0.02756 -0.0896,-0.06029 -0.11713,-0.06029 -0.11713,-0.170532 0,-0.09302 0.0586,-0.141249 0.0586,-0.04995 0.14986,-0.04995 0.11024,0 0.17742,0.07924 0.0689,0.07924 0.0689,0.199815 z"
           id="path669"
           style="stroke:none;stroke-opacity:1;fill:#757575;fill-opacity:1" />
        <path
           d="m 134.2546,64.873159 0.29628,-0.04651 v -2.036047 l -0.29628,-0.04479 v -0.0913 h 1.73288 v 0.552937 h -0.11368 l -0.0551,-0.373792 q -0.19292,-0.02412 -0.5581,-0.02412 h -0.37724 v 0.902613 h 0.62356 l 0.0534,-0.275607 h 0.11025 v 0.709688 h -0.11025 l -0.0534,-0.279052 h -0.62356 v 0.942232 h 0.45475 q 0.44442,0 0.58222,-0.02756 l 0.0982,-0.427191 h 0.11369 l -0.0327,0.60978 h -1.84485 z"
           id="path671"
           style="stroke:none;stroke-opacity:1;fill:#757575;fill-opacity:1" />
        <path
           d="m 137.11739,65.374419 q 0,0.156751 -0.0996,0.237366 -0.0985,0.08062 -0.29223,0.08062 -0.0784,0 -0.17355,-0.0168 -0.0941,-0.01568 -0.14779,-0.03583 v -0.25864 h 0.0504 l 0.0549,0.146674 q 0.084,0.07614 0.21833,0.07614 0.21721,0 0.21721,-0.185863 0,-0.136597 -0.17131,-0.194819 l -0.0996,-0.03247 q -0.11308,-0.03695 -0.16458,-0.07502 -0.0515,-0.03807 -0.0795,-0.09293 -0.028,-0.05598 -0.028,-0.134359 0,-0.138837 0.0941,-0.218332 0.0952,-0.08062 0.2564,-0.08062 0.11532,0 0.28887,0.03471 v 0.229529 h -0.0526 l -0.047,-0.122042 q -0.0593,-0.05262 -0.18698,-0.05262 -0.0907,0 -0.13884,0.04479 -0.047,0.04479 -0.047,0.120923 0,0.06382 0.0425,0.107487 0.0437,0.04367 0.131,0.07278 0.16459,0.05598 0.21498,0.08173 0.0504,0.02575 0.0851,0.06382 0.0358,0.03695 0.0549,0.08509 0.0202,0.04815 0.0202,0.118683 z"
           style="font-size:65%;baseline-shift:sub;stroke:none;stroke-opacity:1;fill:#757575;fill-opacity:1"
           id="path673" />
        <path
           d="M 138.29738,64.872731 V 64.62226 h 1.02658 v -2.05669 h 0.25047 v 2.05669 h 1.03011 v 0.250471 z"
           id="path675"
           style="stroke:none;stroke-opacity:1;fill:#757575;fill-opacity:1" />
        <path
           d="m 141.76803,64.873159 0.29628,-0.04651 v -2.036047 l -0.29628,-0.04479 v -0.0913 h 1.73288 v 0.552937 h -0.11369 l -0.0551,-0.373792 q -0.19293,-0.02412 -0.5581,-0.02412 h -0.37724 v 0.902613 h 0.62356 l 0.0534,-0.275607 h 0.11024 v 0.709688 h -0.11024 l -0.0534,-0.279052 h -0.62356 v 0.942232 h 0.45475 q 0.44442,0 0.58222,-0.02756 l 0.0982,-0.427191 h 0.11369 l -0.0327,0.60978 h -1.84484 z"
           id="path677"
           style="stroke:none;stroke-opacity:1;fill:#757575;fill-opacity:1" />
        <path
           d="m 143.99149,64.695909 -0.1198,-0.02799 v -0.05039 h 0.29559 l 0.002,0.06158 q 0.047,-0.04031 0.1254,-0.06494 0.0795,-0.02463 0.16123,-0.02463 0.20153,0 0.31126,0.139956 0.11085,0.139957 0.11085,0.401956 0,0.267597 -0.12093,0.414272 -0.1198,0.146675 -0.34709,0.146675 -0.12652,0 -0.24072,-0.02463 0.007,0.08062 0.007,0.126521 v 0.284392 l 0.18363,0.02687 v 0.05262 h -0.50161 v -0.05262 l 0.13324,-0.02687 z m 0.68523,0.435545 q 0,-0.214973 -0.0705,-0.319101 -0.0694,-0.105248 -0.21161,-0.105248 -0.131,0 -0.21834,0.03695 v 0.84086 q 0.0996,0.01903 0.21834,0.01903 0.28215,0 0.28215,-0.472494 z"
           style="font-size:65%;baseline-shift:sub;stroke:none;stroke-opacity:1;fill:#757575;fill-opacity:1"
           id="path679" />
        <path
           d="m 112.64317,69.082161 q 0,0.241156 -0.1533,0.365179 -0.15159,0.124023 -0.44959,0.124023 -0.12057,0 -0.26699,-0.02584 -0.14469,-0.02412 -0.22738,-0.05512 v -0.397908 h 0.0775 l 0.0844,0.225653 q 0.12919,0.117133 0.3359,0.117133 0.33417,0 0.33417,-0.285942 0,-0.21015 -0.26355,-0.299723 l -0.1533,-0.04995 q -0.17398,-0.05684 -0.25322,-0.11541 -0.0792,-0.05857 -0.1223,-0.142971 -0.0431,-0.08613 -0.0431,-0.206705 0,-0.213596 0.14469,-0.335896 0.14642,-0.124024 0.39447,-0.124024 0.17742,0 0.44441,0.0534 v 0.353122 h -0.081 l -0.0723,-0.187758 q -0.0913,-0.08096 -0.28767,-0.08096 -0.13953,0 -0.21359,0.0689 -0.0724,0.0689 -0.0724,0.186034 0,0.09819 0.0654,0.165365 0.0672,0.06718 0.20154,0.111965 0.25322,0.08613 0.33073,0.125746 0.0775,0.03962 0.13091,0.09819 0.0551,0.05684 0.0844,0.130913 0.031,0.07407 0.031,0.18259 z"
           id="path681"
           style="stroke:none;stroke-opacity:1;fill:#757575;fill-opacity:1" />
        <path
           d="m 112.91878,67.226981 h 0.33934 l -0.10679,0.828543 h -0.12747 z"
           id="path683"
           style="stroke:none;stroke-opacity:1;fill:#757575;fill-opacity:1" />
        <path
           d="m 114.46812,69.44519 v -0.250471 h 1.02658 v -2.05669 h 0.25047 v 2.05669 h 1.03011 v 0.250471 z"
           id="path685"
           style="stroke:none;stroke-opacity:1;fill:#757575;fill-opacity:1" />
        <path
           d="m 117.93877,69.445617 0.29628,-0.04651 V 67.36306 l -0.29628,-0.04479 v -0.0913 h 1.73288 v 0.552936 h -0.11369 l -0.0551,-0.373792 q -0.19292,-0.02412 -0.5581,-0.02412 h -0.37724 v 0.902613 h 0.62356 l 0.0534,-0.275607 h 0.11024 v 0.709688 h -0.11024 l -0.0534,-0.279052 h -0.62356 v 0.942231 h 0.45475 q 0.44442,0 0.58222,-0.02756 l 0.0982,-0.427191 h 0.11369 l -0.0327,0.60978 h -1.84485 z"
           id="path687"
           style="stroke:none;stroke-opacity:1;fill:#757575;fill-opacity:1" />
        <path
           d="m 120.16223,69.268368 -0.1198,-0.02799 v -0.05038 h 0.29559 l 0.002,0.06158 q 0.047,-0.04031 0.1254,-0.06494 0.0795,-0.02463 0.16123,-0.02463 0.20154,0 0.31126,0.139956 0.11085,0.139957 0.11085,0.401956 0,0.267597 -0.12092,0.414272 -0.11981,0.146674 -0.3471,0.146674 -0.12652,0 -0.24072,-0.02463 0.007,0.08061 0.007,0.126521 v 0.284392 l 0.18362,0.02687 v 0.05262 h -0.50161 v -0.05262 l 0.13324,-0.02687 z m 0.68523,0.435545 q 0,-0.214974 -0.0705,-0.319101 -0.0694,-0.105248 -0.21161,-0.105248 -0.131,0 -0.21833,0.03695 v 0.84086 q 0.0996,0.01903 0.21833,0.01903 0.28215,0 0.28215,-0.472494 z"
           style="font-size:65%;baseline-shift:sub;stroke:none;stroke-opacity:1;fill:#757575;fill-opacity:1"
           id="path689" />
        <path
           d="m 121.28671,67.226981 h 0.33934 l -0.1068,0.828543 h -0.12747 z"
           id="path691"
           style="stroke:none;stroke-opacity:1;fill:#757575;fill-opacity:1" />
        <path
           d="m 122.43392,69.452508 q 0,0.235988 -0.1378,0.394462 -0.13608,0.160197 -0.38757,0.232544 v -0.132636 q 0.30316,-0.09646 0.30316,-0.289388 0,-0.03445 -0.0258,-0.06201 -0.0258,-0.02756 -0.0896,-0.06029 -0.11713,-0.06029 -0.11713,-0.170532 0,-0.09302 0.0586,-0.141249 0.0586,-0.04995 0.14986,-0.04995 0.11024,0 0.17742,0.07924 0.0689,0.07924 0.0689,0.199815 z"
           id="path693"
           style="stroke:none;stroke-opacity:1;fill:#757575;fill-opacity:1" />
        <path
           d="m 124.78347,69.082161 q 0,0.241156 -0.1533,0.365179 -0.15159,0.124023 -0.44959,0.124023 -0.12057,0 -0.26699,-0.02584 -0.14469,-0.02412 -0.22738,-0.05512 v -0.397908 h 0.0775 l 0.0844,0.225653 q 0.12919,0.117133 0.3359,0.117133 0.33417,0 0.33417,-0.285942 0,-0.21015 -0.26355,-0.299723 l -0.1533,-0.04995 q -0.17398,-0.05684 -0.25322,-0.11541 -0.0792,-0.05857 -0.1223,-0.142971 -0.0431,-0.08613 -0.0431,-0.206705 0,-0.213596 0.14469,-0.335896 0.14642,-0.124024 0.39446,-0.124024 0.17743,0 0.44442,0.0534 v 0.353122 h -0.081 l -0.0724,-0.187758 q -0.0913,-0.08096 -0.28766,-0.08096 -0.13953,0 -0.2136,0.0689 -0.0723,0.0689 -0.0723,0.186034 0,0.09819 0.0654,0.165365 0.0672,0.06718 0.20154,0.111965 0.25322,0.08613 0.33073,0.125746 0.0775,0.03962 0.13091,0.09819 0.0551,0.05684 0.0844,0.130913 0.031,0.07407 0.031,0.18259 z"
           id="path695"
           style="stroke:none;stroke-opacity:1;fill:#757575;fill-opacity:1" />
        <path
           d="m 125.05908,67.226981 h 0.33934 l -0.1068,0.828543 h -0.12746 z"
           id="path697"
           style="stroke:none;stroke-opacity:1;fill:#757575;fill-opacity:1" />
        <path
           d="m 126.60842,69.44519 v -0.250471 h 1.02658 v -2.05669 h 0.25047 v 2.05669 h 1.03011 v 0.250471 z"
           id="path699"
           style="stroke:none;stroke-opacity:1;fill:#757575;fill-opacity:1" />
        <path
           d="m 130.07907,69.445617 0.29628,-0.04651 V 67.36306 l -0.29628,-0.04479 v -0.0913 h 1.73288 v 0.552936 h -0.11369 l -0.0551,-0.373792 q -0.19292,-0.02412 -0.5581,-0.02412 h -0.37724 v 0.902613 h 0.62356 l 0.0534,-0.275607 h 0.11024 v 0.709688 h -0.11024 l -0.0534,-0.279052 h -0.62356 v 0.942231 h 0.45475 q 0.44442,0 0.58222,-0.02756 l 0.0982,-0.427191 h 0.11368 l -0.0327,0.60978 h -1.84485 z"
           id="path701"
           style="stroke:none;stroke-opacity:1;fill:#757575;fill-opacity:1" />
        <path
           d="m 132.94185,69.946878 q 0,0.156751 -0.0996,0.237366 -0.0985,0.08061 -0.29223,0.08061 -0.0784,0 -0.17355,-0.01679 -0.0941,-0.01568 -0.14779,-0.03583 v -0.25864 h 0.0504 l 0.0549,0.146674 q 0.084,0.07614 0.21834,0.07614 0.21721,0 0.21721,-0.185863 0,-0.136598 -0.17131,-0.194819 l -0.0996,-0.03247 q -0.11308,-0.03695 -0.16459,-0.07502 -0.0515,-0.03807 -0.0795,-0.09293 -0.028,-0.05598 -0.028,-0.134359 0,-0.138837 0.094,-0.218332 0.0952,-0.08061 0.2564,-0.08061 0.11532,0 0.28887,0.03471 v 0.229529 h -0.0526 l -0.047,-0.122042 q -0.0593,-0.05262 -0.18698,-0.05262 -0.0907,0 -0.13884,0.04479 -0.047,0.04479 -0.047,0.120923 0,0.06382 0.0425,0.107486 0.0437,0.04367 0.131,0.07278 0.16459,0.05598 0.21497,0.08174 0.0504,0.02575 0.0851,0.06382 0.0358,0.03695 0.0549,0.08509 0.0202,0.04815 0.0202,0.118684 z"
           style="font-size:65%;baseline-shift:sub;stroke:none;stroke-opacity:1;fill:#757575;fill-opacity:1"
           id="path703" />
        <path
           d="m 133.68444,69.452508 q 0,0.235988 -0.1378,0.394462 -0.13608,0.160197 -0.38757,0.232544 v -0.132636 q 0.30316,-0.09646 0.30316,-0.289388 0,-0.03445 -0.0258,-0.06201 -0.0258,-0.02756 -0.0896,-0.06029 -0.11713,-0.06029 -0.11713,-0.170532 0,-0.09302 0.0586,-0.141249 0.0586,-0.04995 0.14986,-0.04995 0.11024,0 0.17742,0.07924 0.0689,0.07924 0.0689,0.199815 z"
           id="path705"
           style="stroke:none;stroke-opacity:1;fill:#757575;fill-opacity:1" />
        <path
           d="m 134.89022,69.445617 0.29628,-0.04651 V 67.36306 l -0.29628,-0.04479 v -0.0913 h 1.73288 v 0.552936 h -0.11369 l -0.0551,-0.373792 q -0.19292,-0.02412 -0.5581,-0.02412 h -0.37724 v 0.902613 h 0.62356 l 0.0534,-0.275607 h 0.11024 v 0.709688 h -0.11024 l -0.0534,-0.279052 h -0.62356 v 0.942231 h 0.45475 q 0.44442,0 0.58222,-0.02756 l 0.0982,-0.427191 h 0.11369 l -0.0327,0.60978 h -1.84485 z"
           id="path707"
           style="stroke:none;stroke-opacity:1;fill:#757575;fill-opacity:1" />
        <path
           d="m 137.753,69.946878 q 0,0.156751 -0.0996,0.237366 -0.0985,0.08061 -0.29222,0.08061 -0.0784,0 -0.17355,-0.01679 -0.0941,-0.01568 -0.1478,-0.03583 v -0.25864 h 0.0504 l 0.0549,0.146674 q 0.084,0.07614 0.21833,0.07614 0.21722,0 0.21722,-0.185863 0,-0.136598 -0.17131,-0.194819 l -0.0996,-0.03247 q -0.11308,-0.03695 -0.16459,-0.07502 -0.0515,-0.03807 -0.0795,-0.09293 -0.028,-0.05598 -0.028,-0.134359 0,-0.138837 0.094,-0.218332 0.0952,-0.08061 0.2564,-0.08061 0.11532,0 0.28887,0.03471 v 0.229529 h -0.0526 l -0.047,-0.122042 q -0.0593,-0.05262 -0.18698,-0.05262 -0.0907,0 -0.13884,0.04479 -0.047,0.04479 -0.047,0.120923 0,0.06382 0.0425,0.107486 0.0437,0.04367 0.131,0.07278 0.16459,0.05598 0.21497,0.08174 0.0504,0.02575 0.0851,0.06382 0.0358,0.03695 0.0549,0.08509 0.0201,0.04815 0.0201,0.118684 z"
           style="font-size:65%;baseline-shift:sub;stroke:none;stroke-opacity:1;fill:#757575;fill-opacity:1"
           id="path709" />
        <path
           d="m 138.933,69.44519 v -0.250471 h 1.02658 v -2.05669 h 0.25047 v 2.05669 h 1.03011 v 0.250471 z"
           id="path711"
           style="stroke:none;stroke-opacity:1;fill:#757575;fill-opacity:1" />
        <path
           d="m 142.40365,69.445617 0.29628,-0.04651 V 67.36306 l -0.29628,-0.04479 v -0.0913 h 1.73288 v 0.552936 h -0.11369 l -0.0551,-0.373792 q -0.19293,-0.02412 -0.55811,-0.02412 h -0.37723 v 0.902613 h 0.62356 l 0.0534,-0.275607 h 0.11024 v 0.709688 h -0.11024 l -0.0534,-0.279052 h -0.62356 v 0.942231 h 0.45475 q 0.44442,0 0.58222,-0.02756 l 0.0982,-0.427191 h 0.11369 l -0.0327,0.60978 h -1.84484 z"
           id="path713"
           style="stroke:none;stroke-opacity:1;fill:#757575;fill-opacity:1" />
        <path
           d="m 144.62711,69.268368 -0.1198,-0.02799 v -0.05038 h 0.29559 l 0.002,0.06158 q 0.047,-0.04031 0.12541,-0.06494 0.0795,-0.02463 0.16123,-0.02463 0.20153,0 0.31126,0.139956 0.11085,0.139957 0.11085,0.401956 0,0.267597 -0.12093,0.414272 -0.1198,0.146674 -0.34709,0.146674 -0.12652,0 -0.24073,-0.02463 0.007,0.08061 0.007,0.126521 v 0.284392 l 0.18363,0.02687 v 0.05262 h -0.50161 v -0.05262 l 0.13324,-0.02687 z m 0.68523,0.435545 q 0,-0.214974 -0.0705,-0.319101 -0.0694,-0.105248 -0.21162,-0.105248 -0.13099,0 -0.21833,0.03695 v 0.84086 q 0.0996,0.01903 0.21833,0.01903 0.28216,0 0.28216,-0.472494 z"
           style="font-size:65%;baseline-shift:sub;stroke:none;stroke-opacity:1;fill:#757575;fill-opacity:1"
           id="path715" />
        <path
           d="m 145.75158,67.226981 h 0.33934 l -0.10679,0.828543 h -0.12747 z"
           id="path717"
           style="stroke:none;stroke-opacity:1;fill:#757575;fill-opacity:1" />
      </g>
    </g>
    <g
       aria-label="Component Sum: E = AtpEp + AtsEs"
       id="text5726"
       style="font-size:3.52777px;line-height:1.25;font-family:'Times New Roman';-inkscape-font-specification:'Times New Roman, ';text-align:center;text-anchor:middle;stroke-width:0.264583;stroke:none;stroke-opacity:1;fill:#757575;fill-opacity:1">
      <path
         d="m 157.82489,64.899388 q -0.56155,0 -0.87505,-0.304891 -0.3135,-0.306612 -0.3135,-0.857826 0,-0.596001 0.30144,-0.900891 0.30145,-0.306613 0.894,-0.306613 0.36002,0 0.77343,0.08785 l 0.0103,0.504705 h -0.11369 L 158.45018,62.822 q -0.12058,-0.07407 -0.28078,-0.113688 -0.15847,-0.04134 -0.32384,-0.04134 -0.44269,0 -0.64595,0.260104 -0.20326,0.260104 -0.20326,0.80615 0,0.502983 0.21187,0.768255 0.2136,0.265272 0.62012,0.265272 0.19637,0 0.37035,-0.04651 0.17397,-0.04823 0.2756,-0.127468 l 0.0637,-0.344509 h 0.11196 l -0.0103,0.542601 q -0.37896,0.108521 -0.81477,0.108521 z"
         id="path13157"
         style="stroke:none;stroke-opacity:1;fill:#757575;fill-opacity:1" />
      <path
         d="m 160.47417,64.046728 q 0,0.85266 -0.75792,0.85266 -0.36518,0 -0.55122,-0.218763 -0.18603,-0.218763 -0.18603,-0.633897 0,-0.409965 0.18603,-0.627006 0.18604,-0.21704 0.565,-0.21704 0.36862,0 0.55638,0.213595 0.18776,0.211873 0.18776,0.630451 z m -0.31006,0 q 0,-0.372069 -0.10852,-0.539156 -0.10852,-0.167087 -0.33934,-0.167087 -0.22566,0 -0.32729,0.160197 -0.0999,0.160197 -0.0999,0.546046 0,0.391018 0.10163,0.55466 0.10335,0.161919 0.32556,0.161919 0.22737,0 0.33762,-0.16881 0.11024,-0.168809 0.11024,-0.547769 z"
         id="path13159"
         style="stroke:none;stroke-opacity:1;fill:#757575;fill-opacity:1" />
      <path
         d="m 161.17007,63.376659 q 0.1292,-0.07407 0.27389,-0.124023 0.14469,-0.04995 0.25494,-0.04995 0.11885,0 0.21876,0.04479 0.10163,0.04479 0.15158,0.142971 0.13264,-0.07407 0.31006,-0.130913 0.17915,-0.05684 0.29628,-0.05684 0.41341,0 0.41341,0.477145 v 1.064532 l 0.20843,0.04306 v 0.07751 h -0.73553 v -0.07751 l 0.24116,-0.04306 v -1.033527 q 0,-0.296277 -0.27561,-0.296277 -0.0448,0 -0.10508,0.0069 -0.0586,0.0069 -0.11885,0.0155 -0.0586,0.0086 -0.11369,0.02067 -0.0534,0.01034 -0.0896,0.01723 0.0293,0.09302 0.0293,0.204983 v 1.064532 l 0.24288,0.04306 v 0.07751 h -0.76825 v -0.07751 l 0.23943,-0.04306 v -1.033527 q 0,-0.142971 -0.0741,-0.218763 -0.0724,-0.07751 -0.21876,-0.07751 -0.15159,0 -0.37724,0.04995 v 1.27985 l 0.24288,0.04306 v 0.07751 h -0.73381 v -0.07751 l 0.20499,-0.04306 v -1.378035 l -0.20499,-0.04306 v -0.07751 h 0.4737 z"
         id="path13161"
         style="stroke:none;stroke-opacity:1;fill:#757575;fill-opacity:1" />
      <path
         d="m 163.61436,63.366324 -0.18431,-0.04306 v -0.07751 h 0.45475 l 0.003,0.09474 q 0.0724,-0.06201 0.19292,-0.09991 0.1223,-0.0379 0.24805,-0.0379 0.31006,0 0.47887,0.215318 0.17053,0.215318 0.17053,0.618393 0,0.411688 -0.18604,0.637341 -0.18431,0.225654 -0.53398,0.225654 -0.19465,0 -0.37035,-0.0379 0.0103,0.124023 0.0103,0.194647 v 0.437526 l 0.2825,0.04134 v 0.08096 h -0.7717 v -0.08096 l 0.20498,-0.04134 z m 1.0542,0.670069 q 0,-0.330728 -0.10852,-0.490925 -0.1068,-0.161919 -0.32556,-0.161919 -0.20154,0 -0.3359,0.05684 v 1.29363 q 0.15331,0.02928 0.3359,0.02928 0.43408,0 0.43408,-0.726914 z"
         id="path13163"
         style="stroke:none;stroke-opacity:1;fill:#757575;fill-opacity:1" />
      <path
         d="m 166.74595,64.046728 q 0,0.85266 -0.75792,0.85266 -0.36518,0 -0.55121,-0.218763 -0.18604,-0.218763 -0.18604,-0.633897 0,-0.409965 0.18604,-0.627006 0.18603,-0.21704 0.56499,-0.21704 0.36862,0 0.55638,0.213595 0.18776,0.211873 0.18776,0.630451 z m -0.31006,0 q 0,-0.372069 -0.10852,-0.539156 -0.10852,-0.167087 -0.33934,-0.167087 -0.22565,0 -0.32728,0.160197 -0.0999,0.160197 -0.0999,0.546046 0,0.391018 0.10163,0.55466 0.10335,0.161919 0.32556,0.161919 0.22738,0 0.33762,-0.16881 0.11024,-0.168809 0.11024,-0.547769 z"
         id="path13165"
         style="stroke:none;stroke-opacity:1;fill:#757575;fill-opacity:1" />
      <path
         d="m 167.43841,63.376659 q 0.13264,-0.07579 0.2825,-0.124023 0.14986,-0.04995 0.24977,-0.04995 0.21015,0 0.31695,0.122301 0.10679,0.1223 0.10679,0.354844 v 1.064532 l 0.19637,0.04306 v 0.07751 h -0.69763 v -0.07751 l 0.21532,-0.04306 v -1.033527 q 0,-0.142971 -0.0706,-0.22393 -0.0689,-0.08268 -0.21532,-0.08268 -0.15503,0 -0.38068,0.04995 v 1.290186 l 0.21876,0.04306 v 0.07751 h -0.69935 v -0.07751 l 0.19464,-0.04306 v -1.378035 l -0.19464,-0.04306 v -0.07751 h 0.46164 z"
         id="path13167"
         style="stroke:none;stroke-opacity:1;fill:#757575;fill-opacity:1" />
      <path
         d="m 169.09205,64.050174 v 0.03101 q 0,0.237711 0.0517,0.370347 0.0534,0.130914 0.16192,0.199815 0.11024,0.0689 0.28766,0.0689 0.093,0 0.22049,-0.0155 0.12747,-0.0155 0.21015,-0.03445 v 0.09646 q -0.0827,0.0534 -0.22565,0.09302 -0.14125,0.03962 -0.28939,0.03962 -0.37724,0 -0.55294,-0.20326 -0.17397,-0.203261 -0.17397,-0.652845 0,-0.423745 0.17742,-0.632173 0.17742,-0.208428 0.50643,-0.208428 0.62183,0 0.62183,0.706243 v 0.141249 z m 0.3738,-0.709689 q -0.17915,0 -0.27561,0.144694 -0.0947,0.144694 -0.0947,0.427191 h 0.69246 q 0,-0.308335 -0.0792,-0.439249 -0.0792,-0.132636 -0.24288,-0.132636 z"
         id="path13169"
         style="stroke:none;stroke-opacity:1;fill:#757575;fill-opacity:1" />
      <path
         d="m 170.76809,63.376659 q 0.13264,-0.07579 0.2825,-0.124023 0.14986,-0.04995 0.24977,-0.04995 0.21015,0 0.31694,0.122301 0.1068,0.1223 0.1068,0.354844 v 1.064532 l 0.19637,0.04306 v 0.07751 h -0.69763 v -0.07751 l 0.21532,-0.04306 v -1.033527 q 0,-0.142971 -0.0706,-0.22393 -0.0689,-0.08268 -0.21531,-0.08268 -0.15503,0 -0.38069,0.04995 v 1.290186 l 0.21877,0.04306 v 0.07751 h -0.69936 v -0.07751 l 0.19465,-0.04306 v -1.378035 l -0.19465,-0.04306 v -0.07751 h 0.46165 z"
         id="path13171"
         style="stroke:none;stroke-opacity:1;fill:#757575;fill-opacity:1" />
      <path
         d="m 172.5492,64.899388 q -0.16536,0 -0.24805,-0.09819 -0.081,-0.09819 -0.081,-0.275607 v -1.135157 h -0.21187 v -0.07751 l 0.21532,-0.06718 0.17398,-0.366902 h 0.10852 v 0.366902 h 0.37034 v 0.144693 h -0.37034 v 1.104151 q 0,0.111965 0.05,0.168809 0.0517,0.05684 0.13436,0.05684 0.0999,0 0.24288,-0.02756 v 0.111966 q -0.0603,0.04134 -0.17398,0.06718 -0.11369,0.02756 -0.21015,0.02756 z"
         id="path13173"
         style="stroke:none;stroke-opacity:1;fill:#757575;fill-opacity:1" />
      <path
         d="m 174.07537,64.243098 h 0.11197 l 0.0603,0.311781 q 0.0637,0.08096 0.21876,0.142971 0.15675,0.06201 0.30834,0.06201 0.24115,0 0.37551,-0.122301 0.13608,-0.124023 0.13608,-0.341064 0,-0.124023 -0.0534,-0.204982 -0.0517,-0.08096 -0.1378,-0.136081 -0.0844,-0.05684 -0.19292,-0.09474 -0.10853,-0.03962 -0.22394,-0.07924 -0.11368,-0.03962 -0.2222,-0.08785 -0.10852,-0.04823 -0.19465,-0.122301 -0.0844,-0.07407 -0.1378,-0.182589 -0.0517,-0.110243 -0.0517,-0.27044 0,-0.275607 0.2067,-0.432358 0.20671,-0.156752 0.57361,-0.156752 0.27905,0 0.60634,0.07407 v 0.480589 h -0.11197 l -0.0603,-0.282497 q -0.1757,-0.127468 -0.43408,-0.127468 -0.23082,0 -0.36173,0.09474 -0.12919,0.09302 -0.12919,0.258381 0,0.111966 0.0517,0.186035 0.0534,0.07407 0.13781,0.127468 0.0861,0.05168 0.19464,0.08957 0.11025,0.0379 0.22393,0.07924 0.11541,0.03962 0.22394,0.09129 0.11024,0.04995 0.19464,0.12919 0.0861,0.07752 0.13781,0.191203 0.0534,0.111965 0.0534,0.277329 0,0.334174 -0.20499,0.518486 -0.20498,0.18259 -0.59083,0.18259 -0.18604,0 -0.37379,-0.03273 -0.18776,-0.03273 -0.33418,-0.08957 z"
         id="path13175"
         style="stroke:none;stroke-opacity:1;fill:#757575;fill-opacity:1" />
      <path
         d="m 176.33707,64.403295 q 0,0.296278 0.27561,0.296278 0.2136,0 0.39963,-0.0534 v -1.27985 l -0.2446,-0.04306 v -0.07751 h 0.52882 v 1.498613 l 0.20498,0.04306 v 0.07751 h -0.47197 l -0.0138,-0.130914 q -0.1223,0.06718 -0.2825,0.117133 -0.1602,0.04823 -0.26872,0.04823 -0.41341,0 -0.41341,-0.475422 v -1.057642 l -0.2067,-0.04306 v -0.07751 h 0.49264 z"
         id="path13177"
         style="stroke:none;stroke-opacity:1;fill:#757575;fill-opacity:1" />
      <path
         d="m 178.12335,63.376659 q 0.12919,-0.07407 0.27389,-0.124023 0.14469,-0.04995 0.25493,-0.04995 0.11886,0 0.21877,0.04479 0.10163,0.04479 0.15158,0.142971 0.13264,-0.07407 0.31006,-0.130913 0.17914,-0.05684 0.29628,-0.05684 0.41341,0 0.41341,0.477145 v 1.064532 l 0.20842,0.04306 v 0.07751 h -0.73552 v -0.07751 l 0.24115,-0.04306 v -1.033527 q 0,-0.296277 -0.2756,-0.296277 -0.0448,0 -0.10508,0.0069 -0.0586,0.0069 -0.11885,0.0155 -0.0586,0.0086 -0.11369,0.02067 -0.0534,0.01034 -0.0896,0.01723 0.0293,0.09302 0.0293,0.204983 v 1.064532 l 0.24288,0.04306 v 0.07751 h -0.76826 v -0.07751 l 0.23944,-0.04306 v -1.033527 q 0,-0.142971 -0.0741,-0.218763 -0.0724,-0.07751 -0.21877,-0.07751 -0.15158,0 -0.37723,0.04995 v 1.27985 l 0.24288,0.04306 v 0.07751 h -0.73381 v -0.07751 l 0.20499,-0.04306 v -1.378035 l -0.20499,-0.04306 v -0.07751 h 0.4737 z"
         id="path13179"
         style="stroke:none;stroke-opacity:1;fill:#757575;fill-opacity:1" />
      <path
         d="m 181,64.706463 q 0,0.0844 -0.0603,0.146416 -0.0586,0.06201 -0.14641,0.06201 -0.0896,0 -0.14987,-0.06201 -0.0586,-0.06201 -0.0586,-0.146416 0,-0.08785 0.0603,-0.148139 0.0603,-0.06029 0.14814,-0.06029 0.0861,0 0.14641,0.06029 Q 181,64.61689 181,64.706463 Z M 181,63.418 q 0,0.08785 -0.0603,0.148139 -0.0603,0.06029 -0.14641,0.06029 -0.0878,0 -0.14814,-0.06029 -0.0603,-0.06029 -0.0603,-0.148139 0,-0.0844 0.0586,-0.146416 0.0603,-0.06201 0.14987,-0.06201 0.0879,0 0.14641,0.06201 Q 181,63.333595 181,63.418 Z"
         id="path13181"
         style="stroke:none;stroke-opacity:1;fill:#757575;fill-opacity:1" />
      <path
         d="m 156.97568,69.183355 0.29628,-0.04651 v -2.036047 l -0.29628,-0.04479 v -0.09129 h 1.73288 v 0.552937 h -0.11369 l -0.0551,-0.373793 q -0.19293,-0.02411 -0.5581,-0.02411 h -0.37724 v 0.902613 h 0.62356 l 0.0534,-0.275607 h 0.11024 v 0.709688 h -0.11024 l -0.0534,-0.279052 h -0.62356 v 0.942231 h 0.45475 q 0.44442,0 0.58222,-0.02756 l 0.0982,-0.427191 h 0.11369 l -0.0327,0.60978 h -1.84484 z"
         id="path13183"
         style="stroke:none;stroke-opacity:1;fill:#757575;fill-opacity:1" />
      <path
         d="m 161.72818,68.368591 v 0.1757 h -1.64159 v -0.1757 z m 0,-0.706243 v 0.1757 h -1.64159 v -0.1757 z"
         id="path13185"
         style="stroke:none;stroke-opacity:1;fill:#757575;fill-opacity:1" />
      <path
         d="m 163.38182,69.183355 v 0.09129 h -0.75964 v -0.09129 l 0.26183,-0.04651 0.7872,-2.191076 h 0.32728 l 0.81821,2.191076 0.29283,0.04651 v 0.09129 h -0.97668 v -0.09129 l 0.31006,-0.04651 -0.2291,-0.666625 h -0.9095 l -0.23255,0.666625 z m 0.37035,-1.989539 -0.39619,1.121376 h 0.80443 z"
         id="path13187"
         style="stroke:none;stroke-opacity:1;fill:#757575;fill-opacity:1" />
      <path
         d="m 165.50934,70.002596 q -0.10749,0 -0.16123,-0.06382 -0.0526,-0.06382 -0.0526,-0.179144 V 69.02178 h -0.13772 V 68.9714 l 0.13996,-0.04367 0.11309,-0.238486 h 0.0705 v 0.238486 h 0.24073 v 0.09405 h -0.24073 v 0.717698 q 0,0.07278 0.0325,0.109726 0.0336,0.03695 0.0873,0.03695 0.0649,0 0.15787,-0.01791 v 0.07278 q -0.0392,0.02687 -0.11309,0.04367 -0.0739,0.01791 -0.13659,0.01791 z"
         style="font-size:65%;baseline-shift:sub;stroke:none;stroke-opacity:1;fill:#757575;fill-opacity:1"
         id="path13189" />
      <path
         d="m 165.94264,69.006105 -0.1198,-0.02799 v -0.05038 h 0.29559 l 0.002,0.06158 q 0.047,-0.04031 0.1254,-0.06494 0.0795,-0.02463 0.16123,-0.02463 0.20153,0 0.31126,0.139956 0.11085,0.139957 0.11085,0.401956 0,0.267597 -0.12093,0.414272 -0.1198,0.146674 -0.34709,0.146674 -0.12652,0 -0.24072,-0.02463 0.007,0.08061 0.007,0.126521 v 0.284392 l 0.18363,0.02687 v 0.05262 h -0.50161 v -0.05262 l 0.13324,-0.02687 z m 0.68523,0.435545 q 0,-0.214973 -0.0705,-0.319101 -0.0694,-0.105248 -0.21161,-0.105248 -0.131,0 -0.21834,0.03695 v 0.84086 q 0.0997,0.01903 0.21834,0.01903 0.28215,0 0.28215,-0.472494 z"
         style="font-size:65%;baseline-shift:sub;stroke:none;stroke-opacity:1;fill:#757575;fill-opacity:1"
         id="path13191" />
      <path
         d="m 167.02061,69.183355 0.29628,-0.04651 v -2.036047 l -0.29628,-0.04479 v -0.09129 h 1.73288 v 0.552937 h -0.11369 l -0.0551,-0.373793 q -0.19293,-0.02411 -0.55811,-0.02411 h -0.37723 v 0.902613 h 0.62356 l 0.0534,-0.275607 h 0.11024 v 0.709688 h -0.11024 l -0.0534,-0.279052 h -0.62356 v 0.942231 h 0.45475 q 0.44441,0 0.58222,-0.02756 l 0.0982,-0.427191 h 0.11369 l -0.0327,0.60978 h -1.84484 z"
         id="path13193"
         style="stroke:none;stroke-opacity:1;fill:#757575;fill-opacity:1" />
      <path
         d="m 169.24407,69.006105 -0.1198,-0.02799 v -0.05038 h 0.29558 l 0.002,0.06158 q 0.047,-0.04031 0.1254,-0.06494 0.0795,-0.02463 0.16123,-0.02463 0.20154,0 0.31127,0.139956 0.11084,0.139957 0.11084,0.401956 0,0.267597 -0.12092,0.414272 -0.1198,0.146674 -0.34709,0.146674 -0.12652,0 -0.24073,-0.02463 0.007,0.08061 0.007,0.126521 v 0.284392 l 0.18362,0.02687 v 0.05262 h -0.5016 v -0.05262 l 0.13324,-0.02687 z m 0.68523,0.435545 q 0,-0.214973 -0.0705,-0.319101 -0.0694,-0.105248 -0.21162,-0.105248 -0.131,0 -0.21833,0.03695 v 0.84086 q 0.0996,0.01903 0.21833,0.01903 0.28216,0 0.28216,-0.472494 z"
         style="font-size:65%;baseline-shift:sub;stroke:none;stroke-opacity:1;fill:#757575;fill-opacity:1"
         id="path13195" />
      <path
         d="m 172.18583,68.191169 v 0.733804 h -0.17742 v -0.733804 h -0.73036 V 68.01547 h 0.73036 v -0.733804 h 0.17742 v 0.733804 h 0.7338 v 0.175699 z"
         id="path13197"
         style="stroke:none;stroke-opacity:1;fill:#757575;fill-opacity:1" />
      <path
         d="m 174.57327,69.183355 v 0.09129 h -0.75964 v -0.09129 l 0.26183,-0.04651 0.7872,-2.191076 h 0.32729 l 0.8182,2.191076 0.29284,0.04651 v 0.09129 h -0.97669 v -0.09129 l 0.31006,-0.04651 -0.2291,-0.666625 h -0.9095 l -0.23254,0.666625 z m 0.37035,-1.989539 -0.39618,1.121376 h 0.80442 z"
         id="path13199"
         style="stroke:none;stroke-opacity:1;fill:#757575;fill-opacity:1" />
      <path
         d="m 176.70079,70.002596 q -0.10749,0 -0.16123,-0.06382 -0.0526,-0.06382 -0.0526,-0.179144 V 69.02178 h -0.13771 V 68.9714 l 0.13995,-0.04367 0.11309,-0.238486 h 0.0705 v 0.238486 h 0.24072 v 0.09405 h -0.24072 v 0.717698 q 0,0.07278 0.0325,0.109726 0.0336,0.03695 0.0873,0.03695 0.0649,0 0.15787,-0.01791 v 0.07278 q -0.0392,0.02687 -0.11308,0.04367 -0.0739,0.01791 -0.1366,0.01791 z"
         style="font-size:65%;baseline-shift:sub;stroke:none;stroke-opacity:1;fill:#757575;fill-opacity:1"
         id="path13201" />
      <path
         d="m 177.77342,69.684615 q 0,0.156751 -0.0996,0.237366 -0.0985,0.08061 -0.29223,0.08061 -0.0784,0 -0.17355,-0.01679 -0.094,-0.01568 -0.14779,-0.03583 v -0.25864 h 0.0504 l 0.0549,0.146674 q 0.084,0.07614 0.21834,0.07614 0.21721,0 0.21721,-0.185863 0,-0.136597 -0.17131,-0.194819 l -0.0996,-0.03247 q -0.11308,-0.03695 -0.16459,-0.07502 -0.0515,-0.03807 -0.0795,-0.09293 -0.028,-0.05598 -0.028,-0.134359 0,-0.138837 0.094,-0.218332 0.0952,-0.08061 0.2564,-0.08061 0.11532,0 0.28887,0.03471 v 0.229529 h -0.0526 l -0.047,-0.122042 q -0.0593,-0.05262 -0.18698,-0.05262 -0.0907,0 -0.13884,0.04479 -0.047,0.04479 -0.047,0.120923 0,0.06382 0.0425,0.107486 0.0437,0.04367 0.131,0.07278 0.16459,0.05598 0.21498,0.08173 0.0504,0.02575 0.0851,0.06382 0.0358,0.03695 0.0549,0.08509 0.0202,0.04814 0.0202,0.118683 z"
         style="font-size:65%;baseline-shift:sub;stroke:none;stroke-opacity:1;fill:#757575;fill-opacity:1"
         id="path13203" />
      <path
         d="m 177.9579,69.183355 0.29628,-0.04651 v -2.036047 l -0.29628,-0.04479 v -0.09129 h 1.73288 v 0.552937 h -0.11369 l -0.0551,-0.373793 q -0.19292,-0.02411 -0.5581,-0.02411 h -0.37724 v 0.902613 h 0.62356 l 0.0534,-0.275607 h 0.11024 v 0.709688 h -0.11024 l -0.0534,-0.279052 h -0.62356 v 0.942231 h 0.45475 q 0.44442,0 0.58222,-0.02756 l 0.0982,-0.427191 h 0.11368 l -0.0327,0.60978 h -1.84485 z"
         id="path13205"
         style="stroke:none;stroke-opacity:1;fill:#757575;fill-opacity:1" />
      <path
         d="m 180.82068,69.684615 q 0,0.156751 -0.0996,0.237366 -0.0985,0.08061 -0.29223,0.08061 -0.0784,0 -0.17355,-0.01679 -0.094,-0.01568 -0.14779,-0.03583 v -0.25864 h 0.0504 l 0.0549,0.146674 q 0.084,0.07614 0.21833,0.07614 0.21722,0 0.21722,-0.185863 0,-0.136597 -0.17131,-0.194819 l -0.0996,-0.03247 q -0.11308,-0.03695 -0.16459,-0.07502 -0.0515,-0.03807 -0.0795,-0.09293 -0.028,-0.05598 -0.028,-0.134359 0,-0.138837 0.094,-0.218332 0.0952,-0.08061 0.2564,-0.08061 0.11532,0 0.28887,0.03471 v 0.229529 h -0.0526 l -0.047,-0.122042 q -0.0593,-0.05262 -0.18698,-0.05262 -0.0907,0 -0.13884,0.04479 -0.047,0.04479 -0.047,0.120923 0,0.06382 0.0426,0.107486 0.0437,0.04367 0.131,0.07278 0.16459,0.05598 0.21497,0.08173 0.0504,0.02575 0.0851,0.06382 0.0358,0.03695 0.0549,0.08509 0.0202,0.04814 0.0202,0.118683 z"
         style="font-size:65%;baseline-shift:sub;stroke:none;stroke-opacity:1;fill:#757575;fill-opacity:1"
         id="path13207" />
    </g>
  </g>
</svg>
