<?xml version="1.0" encoding="UTF-8" standalone="no"?>
<!-- Created with Inkscape (http://www.inkscape.org/) -->

<svg
   width="60.906761mm"
   height="44.299999mm"
   viewBox="0 0 60.906762 44.3"
   version="1.1"
   id="svg5"
   inkscape:version="1.2.2 (b0a8486541, 2022-12-01)"
   sodipodi:docname="refraction_interface.svg"
   xmlns:inkscape="http://www.inkscape.org/namespaces/inkscape"
   xmlns:sodipodi="http://sodipodi.sourceforge.net/DTD/sodipodi-0.dtd"
   xmlns="http://www.w3.org/2000/svg"
   xmlns:svg="http://www.w3.org/2000/svg">
  <sodipodi:namedview
     id="namedview7"
     pagecolor="#ffffff"
     bordercolor="#666666"
     borderopacity="1.0"
     inkscape:showpageshadow="2"
     inkscape:pageopacity="0.0"
     inkscape:pagecheckerboard="0"
     inkscape:deskcolor="#d1d1d1"
     inkscape:document-units="mm"
     showgrid="false"
     inkscape:zoom="2.8094797"
     inkscape:cx="59.441611"
     inkscape:cy="74.924905"
     inkscape:window-width="2560"
     inkscape:window-height="1366"
     inkscape:window-x="1920"
     inkscape:window-y="0"
     inkscape:window-maximized="1"
     inkscape:current-layer="layer1">
    <inkscape:grid
       type="xygrid"
       id="grid132"
       originx="-69.848981"
       originy="-30.85" />
  </sodipodi:namedview>
  <defs
     id="defs2">
    <marker
       style="overflow:visible"
       id="marker41430"
       refX="0"
       refY="0"
       orient="auto-start-reverse"
       inkscape:stockid="Arrow1L"
       markerWidth="8.75"
       markerHeight="5"
       viewBox="0 0 8.75 5"
       inkscape:isstock="true"
       inkscape:collect="always"
       preserveAspectRatio="xMidYMid">
      <path
         style="fill:context-stroke;fill-rule:evenodd;stroke:none"
         d="M 0,0 5,-5 -12.5,0 5,5 Z"
         id="path41428"
         transform="scale(-0.5)" />
    </marker>
    <marker
       style="overflow:visible"
       id="marker41430_Fnone_S-ad8738"
       refX="0"
       refY="0"
       orient="auto-start-reverse"
       inkscape:stockid="Arrow1L"
       markerWidth="8.75"
       markerHeight="5"
       viewBox="0 0 8.75 5"
       inkscape:isstock="true"
       inkscape:collect="always"
       preserveAspectRatio="xMidYMid">
      <path
         style="fill:#ad8738;fill-rule:evenodd;stroke:none"
         d="M 0,0 5,-5 -12.5,0 5,5 Z"
         id="path41576"
         transform="scale(-0.5)" />
    </marker>
    <marker
       style="overflow:visible"
       id="Arrow1L"
       refX="0"
       refY="0"
       orient="auto-start-reverse"
       inkscape:stockid="Arrow1L"
       markerWidth="8.75"
       markerHeight="5"
       viewBox="0 0 8.75 5"
       inkscape:isstock="true"
       inkscape:collect="always"
       preserveAspectRatio="xMidYMid">
      <path
         style="fill:context-stroke;fill-rule:evenodd;stroke:none"
         d="M 0,0 5,-5 -12.5,0 5,5 Z"
         id="arrow1L"
         transform="scale(-0.5)" />
    </marker>
    <marker
       style="overflow:visible"
       id="Arrow1L_Fnone_S-3942d0"
       refX="0"
       refY="0"
       orient="auto-start-reverse"
       inkscape:stockid="Arrow1L"
       markerWidth="8.75"
       markerHeight="5"
       viewBox="0 0 8.75 5"
       inkscape:isstock="true"
       inkscape:collect="always"
       preserveAspectRatio="xMidYMid">
      <path
         style="fill:#3942d0;fill-rule:evenodd;stroke:none"
         d="M 0,0 5,-5 -12.5,0 5,5 Z"
         id="path41582"
         transform="scale(-0.5)" />
    </marker>
    <marker
       style="overflow:visible"
       id="Arrow1L_Fnone_S-ad8738"
       refX="0"
       refY="0"
       orient="auto-start-reverse"
       inkscape:stockid="Arrow1L"
       markerWidth="8.75"
       markerHeight="5"
       viewBox="0 0 8.75 5"
       inkscape:isstock="true"
       inkscape:collect="always"
       preserveAspectRatio="xMidYMid">
      <path
         style="fill:#ad8738;fill-rule:evenodd;stroke:none"
         d="M 0,0 5,-5 -12.5,0 5,5 Z"
         id="path41579"
         transform="scale(-0.5)" />
    </marker>
    <marker
       style="overflow:visible"
       id="Arrow1L_Fnone_S-ad8738_reversed"
       refX="0"
       refY="0"
       orient="auto"
       inkscape:stockid="Arrow1L"
       markerWidth="8.75"
       markerHeight="5"
       viewBox="0 0 8.75 5"
       inkscape:isstock="true"
       inkscape:collect="always"
       preserveAspectRatio="xMidYMid">
      <g
         transform="rotate(180,0,0)"
         id="g41587">
        <path
           style="fill:#ad8738;fill-rule:evenodd;stroke:none"
           d="M 0,0 5,-5 -12.5,0 5,5 Z"
           id="path41585"
           transform="scale(-0.5)" />
      </g>
    </marker>
    <inkscape:path-effect
       effect="spiro"
       id="path-effect423"
       is_visible="true"
       lpeversion="1" />
    <inkscape:path-effect
       effect="spiro"
       id="path-effect311"
       is_visible="true"
       lpeversion="1" />
    <inkscape:path-effect
       effect="spiro"
       id="path-effect307"
       is_visible="true"
       lpeversion="1" />
    <inkscape:path-effect
       effect="spiro"
       id="path-effect303"
       is_visible="true"
       lpeversion="1" />
    <inkscape:path-effect
       effect="spiro"
       id="path-effect299"
       is_visible="true"
       lpeversion="1" />
  </defs>
  <g
     inkscape:label="Layer 1"
     inkscape:groupmode="layer"
     id="layer1"
     transform="translate(-69.848977,-30.85)">
    <path
       style="fill:none;stroke:#000000;stroke-width:0.3;stroke-linecap:round;stroke-linejoin:miter;stroke-dasharray:none;stroke-opacity:1"
       d="m 87,75 c 2.591214,-9.0949 7.042706,-17.655462 13,-25 6.47964,-7.988516 14.73784,-14.526257 24,-19"
       id="path297"
       sodipodi:nodetypes="csc"
       inkscape:original-d="m 87,75 c 5.000265,-9.999734 5.637618,-16.585849 13,-25 7,-8 15.66693,-12.333068 24,-19"
       inkscape:path-effect="#path-effect299" />
    <path
       style="fill:none;stroke:#3942d0;stroke-width:0.3;stroke-linecap:round;stroke-linejoin:miter;stroke-dasharray:none;stroke-opacity:1;marker-end:url(#Arrow1L_Fnone_S-3942d0)"
       d="m 100,50 24,19"
       id="path301" />
    <path
       style="fill:none;stroke:#ad8738;stroke-width:0.3;stroke-linecap:round;stroke-linejoin:miter;stroke-dasharray:none;stroke-opacity:1;marker-end:url(#marker41430_Fnone_S-ad8738)"
       d="m 100,50 28.96318,8.884523"
       id="path305" />
    <path
       style="fill:none;stroke:#ad8738;stroke-width:0.298;stroke-linecap:round;stroke-linejoin:miter;stroke-dasharray:none;stroke-opacity:1;marker-start:url(#Arrow1L_Fnone_S-ad8738_reversed)"
       d="M 98.15066,50 H 69.997947"
       id="path309" />
    <path
       style="fill:none;stroke:#3942d0;stroke-width:0.3;stroke-linecap:round;stroke-linejoin:miter;stroke-dasharray:0.3, 0.900005;stroke-dashoffset:1.50001;stroke-opacity:1"
       d="M 100,50 76,31"
       id="path421"
       inkscape:original-d="M 100,50 C 92.000252,43.666918 84.000253,37.333585 76,31"
       inkscape:path-effect="#path-effect423" />
    <path
       style="fill:#3c1a1a;stroke-width:4;stroke-linecap:round;stroke-linejoin:bevel;stroke-dasharray:0.252673, 0.758019;stroke-dashoffset:0;paint-order:fill markers stroke"
       id="path1786"
       d="m 106,50 a 6,1 0 0 1 -9.1e-4,0.01745"
       sodipodi:type="arc"
       sodipodi:arc-type="arc"
       sodipodi:open="true"
       sodipodi:start="0"
       sodipodi:end="0.017453293"
       sodipodi:ry="1"
       sodipodi:rx="6"
       sodipodi:cy="50"
       sodipodi:cx="100" />
    <path
       style="fill:none;stroke:#000000;stroke-width:0.3;stroke-linecap:round;stroke-linejoin:bevel;stroke-dasharray:none;stroke-dashoffset:0;stroke-opacity:1;paint-order:fill markers stroke"
       id="path2628"
       sodipodi:type="arc"
       sodipodi:cx="100.0041"
       sodipodi:cy="49.999992"
       sodipodi:rx="10"
       sodipodi:ry="10"
       sodipodi:start="0.29670597"
       sodipodi:end="0.66322512"
       sodipodi:open="true"
       sodipodi:arc-type="arc"
       d="m 109.56714,52.923709 a 10,10 0 0 1 -1.68294,3.232898" />
    <path
       style="fill:none;stroke:#000000;stroke-width:0.3;stroke-linecap:round;stroke-linejoin:bevel;stroke-dasharray:none;stroke-dashoffset:0;stroke-opacity:1;paint-order:fill markers stroke"
       id="path2628-3"
       sodipodi:type="arc"
       sodipodi:cx="100.0041"
       sodipodi:cy="49.999992"
       sodipodi:rx="8"
       sodipodi:ry="8"
       sodipodi:start="3.1468286"
       sodipodi:end="3.8152897"
       sodipodi:open="true"
       sodipodi:arc-type="arc"
       d="m 92.004207,49.958105 a 8,8 0 0 1 1.747726,-4.949149" />
    <g
       aria-label="n"
       id="text2706"
       style="font-size:3.88056px;line-height:1.25;font-family:'Times New Roman';-inkscape-font-specification:'Times New Roman, ';text-align:center;text-anchor:middle;stroke-width:0.264583;fill:#3942d0;fill-opacity:1">
      <path
         d="m 110.05629,60.833722 q 0.1459,-0.08337 0.31075,-0.136426 0.16485,-0.05495 0.27475,-0.05495 0.23116,0 0.34864,0.134531 0.11748,0.134532 0.11748,0.39033 v 1.170989 l 0.216,0.04737 v 0.08527 h -0.76739 v -0.08527 l 0.23685,-0.04737 v -1.136882 q 0,-0.157269 -0.0777,-0.246325 -0.0758,-0.09095 -0.23685,-0.09095 -0.17053,0 -0.41875,0.05495 v 1.419208 l 0.24064,0.04737 v 0.08527 h -0.76929 v -0.08527 l 0.21411,-0.04737 v -1.515843 l -0.21411,-0.04737 v -0.08527 h 0.50781 z"
         id="path15132"
         style="fill:#3942d0;fill-opacity:1" />
    </g>
    <g
       aria-label="s'"
       id="text2710"
       style="font-size:3.88056px;line-height:1.25;font-family:'Times New Roman';-inkscape-font-specification:'Times New Roman, ';text-align:center;text-anchor:middle;stroke-width:0.264583;fill:#ad8738;fill-opacity:1">
      <path
         d="m 117.73611,52.970604 q 0,0.265273 -0.16864,0.401699 -0.16674,0.136426 -0.49455,0.136426 -0.13263,0 -0.29369,-0.02842 -0.15916,-0.02653 -0.25012,-0.06063 v -0.4377 h 0.0853 l 0.0928,0.24822 q 0.14211,0.128846 0.36948,0.128846 0.3676,0 0.3676,-0.314537 0,-0.231166 -0.28991,-0.329696 l -0.16864,-0.05495 q -0.19137,-0.06253 -0.27853,-0.126951 -0.0872,-0.06442 -0.13453,-0.157269 -0.0474,-0.09474 -0.0474,-0.227377 0,-0.234956 0.15916,-0.369487 0.16106,-0.136426 0.43391,-0.136426 0.19516,0 0.48886,0.05874 v 0.388435 h -0.0891 l -0.0796,-0.206533 q -0.10042,-0.08906 -0.31643,-0.08906 -0.15348,0 -0.23496,0.07579 -0.0796,0.07579 -0.0796,0.204639 0,0.108004 0.072,0.181901 0.0739,0.0739 0.2217,0.123162 0.27853,0.09474 0.3638,0.138321 0.0853,0.04358 0.144,0.108004 0.0606,0.06253 0.0928,0.144005 0.0341,0.08148 0.0341,0.200849 z"
         id="path15122"
         style="fill:#ad8738;fill-opacity:1" />
      <path
         d="m 118.03927,50.9299 h 0.37328 l -0.11748,0.911401 h -0.14021 z"
         id="path15124"
         style="fill:#ad8738;fill-opacity:1" />
    </g>
    <g
       aria-label="s"
       id="text2714"
       style="font-size:3.88056px;line-height:1.25;font-family:'Times New Roman';-inkscape-font-specification:'Times New Roman, ';text-align:center;text-anchor:middle;stroke-width:0.264583;fill:#ad8738;fill-opacity:1">
      <path
         d="m 84.144031,52.499772 q 0,0.265272 -0.168637,0.401698 -0.166743,0.136426 -0.494544,0.136426 -0.132637,0 -0.293695,-0.02842 -0.159164,-0.02653 -0.250114,-0.06063 v -0.4377 h 0.08527 l 0.09284,0.24822 q 0.142111,0.128847 0.369487,0.128847 0.367592,0 0.367592,-0.314538 0,-0.231166 -0.289905,-0.329696 l -0.168637,-0.05495 q -0.191376,-0.06253 -0.278537,-0.126952 -0.08716,-0.06442 -0.134531,-0.157269 -0.04737,-0.09474 -0.04737,-0.227377 0,-0.234955 0.159164,-0.369487 0.161058,-0.136425 0.43391,-0.136425 0.195165,0 0.48886,0.05874 v 0.388435 h -0.08906 l -0.07958,-0.206533 q -0.100425,-0.08906 -0.316432,-0.08906 -0.15348,0 -0.234956,0.07579 -0.07958,0.07579 -0.07958,0.204639 0,0.108004 0.072,0.181901 0.0739,0.0739 0.221692,0.123163 0.278536,0.09474 0.363802,0.13832 0.08527,0.04358 0.144005,0.108004 0.06063,0.06253 0.09285,0.144005 0.03411,0.08148 0.03411,0.20085 z"
         id="path15119"
         style="fill:#ad8738;fill-opacity:1" />
    </g>
    <g
       aria-label="ε"
       id="text3480"
       style="font-size:3.88056px;line-height:1.25;font-family:'Times New Roman';-inkscape-font-specification:'Times New Roman, ';text-align:center;text-anchor:middle;stroke-width:0.264583">
      <path
         d="m 95.702973,48.867364 q -0.259589,0.170532 -0.651813,0.170532 -0.34675,0 -0.53244,-0.14211 -0.183796,-0.144005 -0.183796,-0.405488 0,-0.172428 0.113688,-0.289906 0.115583,-0.119372 0.310748,-0.159163 v -0.01326 q -0.348644,-0.115583 -0.348644,-0.401698 0,-0.212218 0.197059,-0.333486 0.19706,-0.121267 0.532441,-0.121267 0.269062,0 0.509702,0.06821 l -0.0019,0.371382 h -0.09095 l -0.108004,-0.214113 q -0.05116,-0.03032 -0.144005,-0.05305 -0.09095,-0.02463 -0.178112,-0.02463 -0.189481,0 -0.293695,0.08527 -0.102319,0.08337 -0.102319,0.234956 0,0.128847 0.06253,0.217903 0.06442,0.08716 0.170533,0.117478 0.07579,-0.0076 0.225481,-0.01326 0.151585,-0.0076 0.20085,-0.0076 h 0.06063 v 0.181901 h -0.06063 q -0.128847,0 -0.460438,-0.02463 -0.130741,0.0379 -0.198954,0.134531 -0.06821,0.09474 -0.06821,0.227376 0,0.170533 0.126952,0.269063 0.128846,0.09853 0.354328,0.09853 0.130742,0 0.257694,-0.01895 0.126951,-0.01895 0.301274,-0.07769 z"
         id="path15116" />
    </g>
    <g
       aria-label="ε'"
       id="text3484"
       style="font-size:3.88056px;line-height:1.25;font-family:'Times New Roman';-inkscape-font-specification:'Times New Roman, ';text-align:center;text-anchor:middle;stroke-width:0.264583">
      <path
         d="m 107.35338,54.867364 q -0.25959,0.170532 -0.65181,0.170532 -0.34675,0 -0.53244,-0.14211 -0.1838,-0.144005 -0.1838,-0.405488 0,-0.172428 0.11369,-0.289906 0.11558,-0.119372 0.31075,-0.159163 v -0.01326 q -0.34865,-0.115583 -0.34865,-0.401698 0,-0.212218 0.19706,-0.333486 0.19706,-0.121267 0.53244,-0.121267 0.26907,0 0.50971,0.06821 l -0.002,0.371382 h -0.0909 l -0.108,-0.214113 q -0.0512,-0.03032 -0.14401,-0.05305 -0.091,-0.02463 -0.17811,-0.02463 -0.18948,0 -0.29369,0.08527 -0.10232,0.08337 -0.10232,0.234956 0,0.128847 0.0625,0.217903 0.0644,0.08716 0.17054,0.117478 0.0758,-0.0076 0.22548,-0.01326 0.15158,-0.0076 0.20085,-0.0076 h 0.0606 v 0.181901 h -0.0606 q -0.12885,0 -0.46044,-0.02463 -0.13074,0.0379 -0.19895,0.134531 -0.0682,0.09474 -0.0682,0.227376 0,0.170533 0.12696,0.269063 0.12884,0.09853 0.35432,0.09853 0.13075,0 0.2577,-0.01895 0.12695,-0.01895 0.30127,-0.07769 z"
         id="path15127" />
      <path
         d="m 107.62813,52.459067 h 0.37327 l -0.11747,0.911401 h -0.14022 z"
         id="path15129" />
    </g>
    <g
       aria-label="n1"
       id="text3488"
       style="font-size:3.88056px;line-height:1.25;font-family:'Times New Roman';-inkscape-font-specification:'Times New Roman, ';text-align:center;text-anchor:middle;stroke-width:0.264583"
       transform="translate(1.0583333,1.5875)">
      <path
         d="m 103.54235,34.892056 q 0.1459,-0.08337 0.31075,-0.136426 0.16485,-0.05495 0.27475,-0.05495 0.23116,0 0.34864,0.134531 0.11748,0.134531 0.11748,0.39033 v 1.170989 l 0.21601,0.04737 v 0.08527 h -0.7674 V 36.4439 l 0.23685,-0.04737 v -1.136883 q 0,-0.157269 -0.0777,-0.246325 -0.0758,-0.09095 -0.23685,-0.09095 -0.17053,0 -0.41875,0.05495 v 1.419209 l 0.24064,0.04737 v 0.08527 h -0.76929 v -0.08527 l 0.21411,-0.04737 v -1.515844 l -0.21411,-0.04737 v -0.08527 h 0.50781 z"
         id="path14988" />
      <path
         d="m 105.64094,37.206749 0.33747,0.03325 v 0.06528 h -0.888 v -0.06528 l 0.33869,-0.03325 v -1.347395 l -0.33377,0.119467 v -0.06528 l 0.48157,-0.27342 h 0.064 z"
         style="font-size:65%;baseline-shift:sub"
         id="path14990" />
    </g>
    <g
       aria-label="n2"
       id="text3494"
       style="font-size:3.88056px;line-height:1.25;font-family:'Times New Roman';-inkscape-font-specification:'Times New Roman, ';text-align:center;text-anchor:middle;stroke-width:0.264583"
       transform="translate(0.52916663,-1.5875)">
      <path
         d="m 116.097,41.55431 q 0.1459,-0.08337 0.31075,-0.136426 0.16485,-0.05495 0.27475,-0.05495 0.23116,0 0.34864,0.134531 0.11748,0.134531 0.11748,0.39033 v 1.170989 l 0.21601,0.04737 v 0.08527 h -0.7674 v -0.08527 l 0.23685,-0.04737 v -1.136883 q 0,-0.157268 -0.0777,-0.246324 -0.0758,-0.09095 -0.23685,-0.09095 -0.17053,0 -0.41875,0.05495 v 1.419208 l 0.24064,0.04737 v 0.08527 h -0.76929 v -0.08527 l 0.21411,-0.04737 v -1.515844 l -0.21411,-0.04737 v -0.08527 h 0.50781 z"
         id="path14993" />
      <path
         d="m 118.54537,43.967533 h -1.01116 v -0.181048 l 0.22908,-0.208144 q 0.22046,-0.193365 0.32392,-0.312833 0.10346,-0.119467 0.1478,-0.246324 0.0456,-0.126857 0.0456,-0.290663 0,-0.160111 -0.0727,-0.243862 -0.0727,-0.08375 -0.2377,-0.08375 -0.0653,0 -0.13425,0.01847 -0.069,0.01724 -0.12193,0.0468 l -0.0431,0.201986 h -0.0813 v -0.317759 q 0.22416,-0.05296 0.38058,-0.05296 0.27095,0 0.40643,0.113309 0.13671,0.112078 0.13671,0.317759 0,0.137942 -0.0542,0.261104 -0.053,0.12193 -0.16381,0.243861 -0.11084,0.120699 -0.36702,0.338696 -0.10961,0.0936 -0.23278,0.205682 h 0.84982 z"
         style="font-size:65%;baseline-shift:sub"
         id="path14995" />
    </g>
  </g>
</svg>
