<?xml version="1.0" encoding="UTF-8" standalone="no"?>
<!-- Created with Inkscape (http://www.inkscape.org/) -->

<svg
   width="50mm"
   height="50mm"
   viewBox="0 0 49.999999 50"
   version="1.1"
   id="svg631"
   sodipodi:docname="ring.svg"
   inkscape:version="1.2.2 (b0a8486541, 2022-12-01)"
   xmlns:inkscape="http://www.inkscape.org/namespaces/inkscape"
   xmlns:sodipodi="http://sodipodi.sourceforge.net/DTD/sodipodi-0.dtd"
   xmlns="http://www.w3.org/2000/svg"
   xmlns:svg="http://www.w3.org/2000/svg"
   xmlns:ns1="http://www.iki.fi/pav/software/textext/">
  <sodipodi:namedview
     id="namedview633"
     pagecolor="#ffffff"
     bordercolor="#666666"
     borderopacity="1.0"
     inkscape:showpageshadow="2"
     inkscape:pageopacity="0.0"
     inkscape:pagecheckerboard="0"
     inkscape:deskcolor="#d1d1d1"
     inkscape:document-units="mm"
     showgrid="true"
     inkscape:zoom="6.7277216"
     inkscape:cx="76.251669"
     inkscape:cy="79.893318"
     inkscape:window-width="2560"
     inkscape:window-height="1366"
     inkscape:window-x="1920"
     inkscape:window-y="0"
     inkscape:window-maximized="1"
     inkscape:current-layer="layer1">
    <inkscape:grid
       type="xygrid"
       id="grid972"
       originx="-54.999998"
       originy="-30" />
  </sodipodi:namedview>
  <defs
     id="defs628">
    <inkscape:path-effect
       effect="spiro"
       id="path-effect16209"
       is_visible="true"
       lpeversion="1" />
    <inkscape:path-effect
       effect="spiro"
       id="path-effect3094"
       is_visible="true"
       lpeversion="1" />
    <marker
       style="overflow:visible"
       id="marker1556_Fnone_S-000000"
       refX="0"
       refY="0"
       orient="auto-start-reverse"
       inkscape:stockid="Arrow1L"
       markerWidth="8.75"
       markerHeight="5"
       viewBox="0 0 8.75 5"
       inkscape:isstock="true"
       inkscape:collect="always"
       preserveAspectRatio="xMidYMid">
      <path
         style="fill:#000000;fill-rule:evenodd;stroke:none"
         d="M 0,0 5,-5 -12.5,0 5,5 Z"
         id="path26149"
         transform="scale(-0.5)" />
    </marker>
    <inkscape:path-effect
       effect="spiro"
       id="path-effect1480"
       is_visible="true"
       lpeversion="1" />
    <marker
       style="overflow:visible"
       id="marker1512_Fnone_S-000000"
       refX="0"
       refY="0"
       orient="auto-start-reverse"
       inkscape:stockid="Arrow1L"
       markerWidth="8.75"
       markerHeight="5"
       viewBox="0 0 8.75 5"
       inkscape:isstock="true"
       inkscape:collect="always"
       preserveAspectRatio="xMidYMid">
      <path
         style="fill:#000000;fill-rule:evenodd;stroke:none"
         d="M 0,0 5,-5 -12.5,0 5,5 Z"
         id="path26152"
         transform="scale(-0.5)" />
    </marker>
    <inkscape:path-effect
       effect="spiro"
       id="path-effect1496"
       is_visible="true"
       lpeversion="1" />
    <inkscape:path-effect
       effect="spiro"
       id="path-effect4132"
       is_visible="true"
       lpeversion="1" />
    <inkscape:path-effect
       effect="spiro"
       id="path-effect4148"
       is_visible="true"
       lpeversion="1" />
    <inkscape:path-effect
       effect="spiro"
       id="path-effect4164"
       is_visible="true"
       lpeversion="1" />
    <inkscape:path-effect
       effect="spiro"
       id="path-effect4180"
       is_visible="true"
       lpeversion="1" />
    <inkscape:path-effect
       effect="spiro"
       id="path-effect4132-3"
       is_visible="true"
       lpeversion="1" />
    <inkscape:path-effect
       effect="spiro"
       id="path-effect4148-6"
       is_visible="true"
       lpeversion="1" />
    <inkscape:path-effect
       effect="spiro"
       id="path-effect4164-7"
       is_visible="true"
       lpeversion="1" />
    <inkscape:path-effect
       effect="spiro"
       id="path-effect4180-5"
       is_visible="true"
       lpeversion="1" />
    <inkscape:path-effect
       effect="fill_between_many"
       method="originald"
       linkedpaths="#path2188,0,1|#path13020,0,1"
       id="path-effect13605" />
    <inkscape:path-effect
       effect="fill_between_many"
       method="originald"
       linkedpaths="#path14568,0,1|#path13020,0,1"
       id="path-effect14594" />
  </defs>
  <g
     inkscape:label="Layer 1"
     inkscape:groupmode="layer"
     id="layer1"
     transform="translate(-50.7888, -24.8426)">
    <path
       style="fill:none;stroke:#000000;stroke-width:0.25;stroke-linecap:butt;stroke-linejoin:miter;stroke-dasharray:none;stroke-opacity:1;marker-end:url(#marker1556_Fnone_S-000000)"
       d="M 55.788787,69.842641 H 65.842474"
       id="path1478"
       inkscape:path-effect="#path-effect1480"
       inkscape:original-d="m 55.788787,69.842641 c 3.351496,2.67e-4 6.702723,2.67e-4 10.053687,0" />
    <path
       style="fill:none;stroke:#000000;stroke-width:0.25;stroke-linecap:butt;stroke-linejoin:miter;stroke-dasharray:none;stroke-opacity:1;marker-end:url(#marker1512_Fnone_S-000000)"
       d="M 55.788787,69.896325 V 59.842641"
       id="path1494"
       inkscape:path-effect="#path-effect1496"
       inkscape:original-d="m 55.788787,69.896325 c 2.66e-4,-3.350961 2.66e-4,-6.702191 0,-10.053684" />
    <circle
       style="fill:#ffffff;stroke:#000000;stroke-width:0.25;stroke-linecap:round;stroke-linejoin:bevel;stroke-dasharray:none;stroke-dashoffset:4.77492;paint-order:fill markers stroke"
       id="path2242"
       cx="55.788784"
       cy="69.842636"
       r="1" />
    <g
       fill="#000000"
       fill-opacity="1"
       id="id-5a6775ea-40b8-4c14-9bad-8db894b34461"
       transform="matrix(0.352778,0,0,0.352778,8.2736425,24.879288)">
      <g
         transform="translate(148.712,134.765)"
         id="g28333">
        <path
           d="M 3.328125,-3.015625 C 3.390625,-3.265625 3.625,-4.1875 4.3125,-4.1875 c 0.046875,0 0.296875,0 0.5,0.125 C 4.53125,-4 4.34375,-3.765625 4.34375,-3.515625 c 0,0.15625 0.109375,0.34375 0.375,0.34375 0.21875,0 0.53125,-0.171875 0.53125,-0.578125 0,-0.515625 -0.578125,-0.65625 -0.921875,-0.65625 -0.578125,0 -0.921875,0.53125 -1.046875,0.75 -0.25,-0.65625 -0.78125,-0.75 -1.078125,-0.75 -1.03125,0 -1.609375,1.28125 -1.609375,1.53125 0,0.109375 0.109375,0.109375 0.125,0.109375 0.078125,0 0.109375,-0.03125 0.125,-0.109375 0.34375,-1.0625 1,-1.3125 1.34375,-1.3125 0.1875,0 0.53125,0.09375 0.53125,0.671875 0,0.3125 -0.171875,0.96875 -0.53125,2.375 -0.15625,0.609375 -0.515625,1.03125 -0.953125,1.03125 -0.0625,0 -0.28125,0 -0.5,-0.125 0.25,-0.0625 0.46875,-0.265625 0.46875,-0.546875 0,-0.265625 -0.21875,-0.34375 -0.359375,-0.34375 -0.3125,0 -0.546875,0.25 -0.546875,0.578125 0,0.453125 0.484375,0.65625 0.921875,0.65625 0.671875,0 1.03125,-0.703125 1.046875,-0.75 0.125,0.359375 0.484375,0.75 1.078125,0.75 1.03125,0 1.59375,-1.28125 1.59375,-1.53125 0,-0.109375 -0.078125,-0.109375 -0.109375,-0.109375 -0.09375,0 -0.109375,0.046875 -0.140625,0.109375 -0.328125,1.078125 -1,1.3125 -1.3125,1.3125 -0.390625,0 -0.546875,-0.3125 -0.546875,-0.65625 0,-0.21875 0.046875,-0.4375 0.15625,-0.875 z m 0,0"
           id="id-f847d22a-c8e5-4ed7-a60a-38cc66542c7b" />
      </g>
    </g>
    <g
       fill="#000000"
       fill-opacity="1"
       id="id-3a6f90fa-ed2a-4e85-9734-a4cae4b6d0e8"
       transform="matrix(0.352778,0,0,0.352778,0.16339927,13.204318)">
      <g
         transform="translate(148.712,146.72)"
         id="g28337">
        <path
           d="m 4.84375,-3.796875 c 0.046875,-0.140625 0.046875,-0.15625 0.046875,-0.234375 0,-0.171875 -0.140625,-0.265625 -0.296875,-0.265625 -0.09375,0 -0.25,0.0625 -0.34375,0.203125 -0.015625,0.0625 -0.109375,0.359375 -0.140625,0.546875 -0.078125,0.25 -0.140625,0.53125 -0.203125,0.796875 l -0.453125,1.796875 c -0.03125,0.140625 -0.46875,0.84375 -1.125,0.84375 -0.5,0 -0.609375,-0.4375 -0.609375,-0.8125 C 1.71875,-1.375 1.890625,-2 2.21875,-2.875 2.375,-3.28125 2.421875,-3.390625 2.421875,-3.59375 c 0,-0.4375 -0.3125,-0.8125 -0.8125,-0.8125 -0.953125,0 -1.3125,1.453125 -1.3125,1.53125 0,0.109375 0.09375,0.109375 0.109375,0.109375 0.109375,0 0.109375,-0.03125 0.15625,-0.1875 0.28125,-0.9375 0.671875,-1.234375 1.015625,-1.234375 0.078125,0 0.25,0 0.25,0.3125 0,0.25 -0.109375,0.515625 -0.171875,0.703125 -0.40625,1.0625 -0.578125,1.625 -0.578125,2.09375 0,0.890625 0.625,1.1875 1.21875,1.1875 0.390625,0 0.71875,-0.171875 1,-0.453125 -0.125,0.515625 -0.25,1.015625 -0.640625,1.546875 -0.265625,0.328125 -0.640625,0.625 -1.09375,0.625 -0.140625,0 -0.59375,-0.03125 -0.765625,-0.421875 0.15625,0 0.296875,0 0.421875,-0.125 C 1.328125,1.203125 1.421875,1.0625 1.421875,0.875 1.421875,0.5625 1.15625,0.53125 1.0625,0.53125 0.828125,0.53125 0.5,0.6875 0.5,1.171875 c 0,0.5 0.4375,0.875 1.0625,0.875 1.015625,0 2.046875,-0.90625 2.328125,-2.03125 z m 0,0"
           id="id-d8266f87-0caf-46d5-9ef4-c1904213651f" />
      </g>
    </g>
    <g
       fill="#000000"
       fill-opacity="1"
       id="id-f52e7a67-9731-4955-a2c1-8a06f431c396"
       transform="matrix(0.352778,0,0,0.352778,-0.14953203,15.894924)">
      <g
         transform="translate(148.712,158.675)"
         id="g28341">
        <path
           d="m 1.328125,-0.828125 c 0.53125,-0.578125 0.828125,-0.828125 1.1875,-1.140625 0,0 0.609375,-0.53125 0.96875,-0.890625 C 4.4375,-3.78125 4.65625,-4.265625 4.65625,-4.3125 c 0,-0.09375 -0.09375,-0.09375 -0.109375,-0.09375 -0.078125,0 -0.09375,0.015625 -0.15625,0.109375 -0.296875,0.484375 -0.5,0.640625 -0.734375,0.640625 -0.25,0 -0.359375,-0.15625 -0.515625,-0.328125 -0.1875,-0.21875 -0.359375,-0.421875 -0.6875,-0.421875 -0.75,0 -1.203125,0.921875 -1.203125,1.140625 0,0.046875 0.03125,0.109375 0.109375,0.109375 0.09375,0 0.109375,-0.046875 0.140625,-0.109375 0.1875,-0.46875 0.765625,-0.46875 0.84375,-0.46875 0.203125,0 0.390625,0.0625 0.625,0.140625 0.40625,0.15625 0.515625,0.15625 0.765625,0.15625 -0.359375,0.421875 -1.1875,1.140625 -1.375,1.296875 l -0.90625,0.84375 C 0.78125,-0.625 0.421875,-0.0625 0.421875,0.015625 c 0,0.09375 0.109375,0.09375 0.125,0.09375 0.078125,0 0.09375,-0.015625 0.15625,-0.125 0.234375,-0.359375 0.53125,-0.625 0.859375,-0.625 0.21875,0 0.328125,0.09375 0.578125,0.375 0.15625,0.21875 0.34375,0.375 0.625,0.375 1,0 1.578125,-1.265625 1.578125,-1.53125 0,-0.046875 -0.046875,-0.109375 -0.125,-0.109375 -0.09375,0 -0.109375,0.0625 -0.140625,0.140625 C 3.84375,-0.75 3.203125,-0.5625 2.875,-0.5625 c -0.1875,0 -0.375,-0.0625 -0.578125,-0.125 -0.34375,-0.125 -0.5,-0.171875 -0.703125,-0.171875 -0.015625,0 -0.171875,0 -0.265625,0.03125 z m 0,0"
           id="id-4956c823-f601-48db-9f82-279e8e55da59" />
      </g>
    </g>
    <circle
       style="opacity:0.996714;fill:#000000;fill-opacity:1;stroke:#000000;stroke-width:0.25;stroke-linecap:round;stroke-linejoin:round;stroke-miterlimit:3.1;stroke-opacity:1"
       id="path1048"
       cx="55.788784"
       cy="69.842636"
       r="0.2" />
    <path
       inkscape:original-d="M 0,0"
       inkscape:path-effect="#path-effect13605"
       d="M 0,0"
       id="path13607"
       class="UnoptimicedTransforms" />
    <g
       transform="matrix(0.352778,0,0,0.352778,92.55411,39.407269)"
       ns1:version="1.8.1"
       ns1:texconverter="pdflatex"
       ns1:pdfconverter="inkscape"
       ns1:text="$r$"
       ns1:preamble="/usr/share/inkscape/extensions/textext/default_packages.tex"
       ns1:scale="1.0"
       ns1:alignment="middle center"
       ns1:stroke-to-path="0"
       ns1:jacobian_sqrt="0.352778"
       id="g7004"
       style="fill:#b91a1a;fill-opacity:1">
      <defs
         id="id-01c8adf1-eec9-46ed-8096-a30a7281d0ce">
        <g
           id="id-d78c9596-95cc-47e5-a533-0d60ca366b89">
          <g
             id="id-839f4a96-4a38-47b0-8920-c0586567c1f7" />
          <g
             id="id-7dad6e77-3927-446b-a012-3cc06da11619">
            <path
               d="m 0.875,-0.59375 c -0.03125,0.15625 -0.09375,0.390625 -0.09375,0.4375 0,0.171875 0.140625,0.265625 0.296875,0.265625 0.125,0 0.296875,-0.078125 0.375,-0.28125 C 1.46875,-0.203125 1.796875,-1.5625 1.84375,-1.75 c 0.078125,-0.328125 0.265625,-1.015625 0.3125,-1.296875 0.046875,-0.125 0.328125,-0.59375 0.5625,-0.8125 0.078125,-0.0625 0.375,-0.328125 0.796875,-0.328125 0.265625,0 0.40625,0.125 0.421875,0.125 -0.296875,0.046875 -0.515625,0.28125 -0.515625,0.546875 0,0.15625 0.109375,0.34375 0.375,0.34375 0.265625,0 0.546875,-0.234375 0.546875,-0.59375 0,-0.34375 -0.3125,-0.640625 -0.828125,-0.640625 C 2.875,-4.40625 2.4375,-3.921875 2.25,-3.640625 2.15625,-4.09375 1.796875,-4.40625 1.328125,-4.40625 0.875,-4.40625 0.6875,-4.015625 0.59375,-3.84375 0.421875,-3.5 0.296875,-2.90625 0.296875,-2.875 c 0,0.109375 0.09375,0.109375 0.109375,0.109375 0.109375,0 0.109375,-0.015625 0.171875,-0.234375 0.171875,-0.703125 0.375,-1.1875 0.734375,-1.1875 0.15625,0 0.296875,0.078125 0.296875,0.453125 0,0.21875 -0.03125,0.328125 -0.15625,0.84375 z m 0,0"
               id="id-94afbb30-0009-48f7-ae84-8ee26e8c325b" />
          </g>
        </g>
      </defs>
      <g
         fill="#000000"
         fill-opacity="1"
         id="id-fb38a9ce-a3e7-4246-b4a2-35d6dd9b7f84"
         transform="translate(-149.009,-130.359)"
         style="fill:#b91a1a;fill-opacity:1">
        <g
           transform="translate(148.712,134.765)"
           id="g7001"
           style="fill:#b91a1a;fill-opacity:1" />
      </g>
    </g>
    <path
       inkscape:original-d="M 0,0"
       inkscape:path-effect="#path-effect14594"
       d="M 0,0"
       id="path14596"
       class="UnoptimicedTransforms"
       style="fill:#40cdf5;fill-opacity:0.105882" />
    <path
       id="path14568"
       style="opacity:0.996714;fill:#88e5ff;fill-opacity:0.105882;stroke:#000000;stroke-width:0.25;stroke-linecap:round;stroke-linejoin:round;stroke-miterlimit:3.1"
       class="UnoptimicedTransforms"
       d="m 80.789023,26.842519 c -9.941115,0 -18.000452,8.05882 -18.000452,17.999935 0,9.941115 8.059337,17.999935 18.000452,17.999935 9.941115,0 17.999935,-8.05882 17.999935,-17.999935 0,-9.941115 -8.05882,-17.999935 -17.999935,-17.999935 z m 0,8.000028 c 5.522841,0 9.999906,4.477065 9.999906,9.999907 0,5.522841 -4.477065,10.000423 -9.999906,10.000423 -5.522841,0 -10.000423,-4.477582 -10.000423,-10.000423 0,-5.522842 4.477582,-9.999907 10.000423,-9.999907 z"
       transform="translate(-2.21e-4,5.3e-5)" />
    <path
       style="fill:none;stroke:#b91a1a;stroke-width:0.25;stroke-linecap:round;stroke-linejoin:miter;stroke-opacity:1;stroke-dasharray:none"
       d="m 80.79409,44.858551 8.38976,5.419962"
       id="path16207"
       inkscape:path-effect="#path-effect16209"
       inkscape:original-d="m 80.79409,44.858551 c 2.796849,1.806918 5.593437,3.613572 8.38976,5.419962" />
    <path
       style="fill:none;stroke:#b91a1a;stroke-width:0.25;stroke-linecap:round;stroke-linejoin:miter;stroke-opacity:1;stroke-dasharray:none"
       d="M 80.794089,44.858551 96.540792,36.138379"
       id="path3092"
       inkscape:path-effect="#path-effect3094"
       inkscape:original-d="M 80.794089,44.858551 C 85.543878,40.18052 91.791532,40.816942 96.540792,36.138379"
       sodipodi:nodetypes="cc" />
    <g
       id="g4198"
       transform="matrix(0.5000005,0,0,0.5,0.7887113,17.34264)"
       style="stroke-width:0.6;stroke-dasharray:none">
      <path
         style="fill:none;stroke:#000000;stroke-width:0.5;stroke-linecap:butt;stroke-linejoin:miter;stroke-dasharray:none;stroke-opacity:1"
         d="m 159.99999,55.000001 1.00001,-1"
         id="path4130"
         inkscape:path-effect="#path-effect4132-3"
         inkscape:original-d="m 159.99999,55.000001 c 0.3336,-0.333069 0.66694,-0.666402 1.00001,-1" />
      <path
         style="fill:none;stroke:#000000;stroke-width:0.5;stroke-linecap:butt;stroke-linejoin:miter;stroke-dasharray:none;stroke-opacity:1"
         d="m 159.99999,55.000001 1.00001,1"
         id="path4146"
         inkscape:path-effect="#path-effect4148-6"
         inkscape:original-d="m 159.99999,55.000001 c 0.3336,0.333598 0.66694,0.666931 1.00001,1" />
      <path
         style="fill:none;stroke:#000000;stroke-width:0.5;stroke-linecap:butt;stroke-linejoin:miter;stroke-dasharray:none;stroke-opacity:1"
         d="m 159.99999,55.000001 -1,1"
         id="path4162"
         inkscape:path-effect="#path-effect4164-7"
         inkscape:original-d="m 159.99999,55.000001 c -0.33306,0.333598 -0.6664,0.666931 -1,1" />
      <path
         style="fill:none;stroke:#000000;stroke-width:0.5;stroke-linecap:butt;stroke-linejoin:miter;stroke-dasharray:none;stroke-opacity:1"
         d="m 159.99999,55.000001 -1,-1"
         id="path4178"
         inkscape:path-effect="#path-effect4180-5"
         inkscape:original-d="m 159.99999,55.000001 c -0.33306,-0.333069 -0.6664,-0.666402 -1,-1" />
    </g>
    <g
       transform="matrix(0.352778,0,0,0.352778,81.800722,47.954135)"
       ns1:version="1.8.1"
       ns1:texconverter="pdflatex"
       ns1:pdfconverter="inkscape"
       ns1:text="$r_\\text{i}$"
       ns1:preamble="/usr/share/inkscape/extensions/textext/default_packages.tex"
       ns1:scale="1.0"
       ns1:alignment="middle center"
       ns1:stroke-to-path="0"
       ns1:inkscapeversion="1.2.2"
       ns1:jacobian_sqrt="0.352778"
       id="g16722"
       style="fill:#b91a1a;fill-opacity:1">
      <defs
         id="id-5ec06265-d40c-45eb-9d5d-10739c107cc9">
        <g
           id="id-94f659d2-ed28-4aca-92fd-cd5d2a68a483">
          <g
             id="id-30e53cfa-f7bb-4fdb-80b6-6e48ddd1ae2f" />
          <g
             id="id-b0bb5b73-4e6c-41ad-9e9f-02df515e4372">
            <path
               d="m 0.875,-0.59375 c -0.03125,0.15625 -0.09375,0.390625 -0.09375,0.4375 0,0.171875 0.140625,0.265625 0.296875,0.265625 0.125,0 0.296875,-0.078125 0.375,-0.28125 C 1.46875,-0.203125 1.796875,-1.5625 1.84375,-1.75 c 0.078125,-0.328125 0.265625,-1.015625 0.3125,-1.296875 0.046875,-0.125 0.328125,-0.59375 0.5625,-0.8125 0.078125,-0.0625 0.375,-0.328125 0.796875,-0.328125 0.265625,0 0.40625,0.125 0.421875,0.125 -0.296875,0.046875 -0.515625,0.28125 -0.515625,0.546875 0,0.15625 0.109375,0.34375 0.375,0.34375 0.265625,0 0.546875,-0.234375 0.546875,-0.59375 0,-0.34375 -0.3125,-0.640625 -0.828125,-0.640625 C 2.875,-4.40625 2.4375,-3.921875 2.25,-3.640625 2.15625,-4.09375 1.796875,-4.40625 1.328125,-4.40625 0.875,-4.40625 0.6875,-4.015625 0.59375,-3.84375 0.421875,-3.5 0.296875,-2.90625 0.296875,-2.875 c 0,0.109375 0.09375,0.109375 0.109375,0.109375 0.109375,0 0.109375,-0.015625 0.171875,-0.234375 0.171875,-0.703125 0.375,-1.1875 0.734375,-1.1875 0.15625,0 0.296875,0.078125 0.296875,0.453125 0,0.21875 -0.03125,0.328125 -0.15625,0.84375 z m 0,0"
               id="id-a397f247-cd91-4650-9a82-619359d28df9" />
          </g>
          <g
             id="id-23ee6f2d-095a-4bfb-8e74-b8033b33e06d" />
          <g
             id="id-70247ddd-8e16-401f-a355-5f512aadd62f">
            <path
               d="m 1.46875,-4.296875 c 0,-0.203125 -0.171875,-0.40625 -0.40625,-0.40625 -0.203125,0 -0.390625,0.171875 -0.390625,0.40625 0,0.25 0.203125,0.40625 0.390625,0.40625 0.234375,0 0.40625,-0.171875 0.40625,-0.40625 z M 0.40625,-3 v 0.25 c 0.4375,0 0.5,0.046875 0.5,0.390625 v 1.8125 C 0.90625,-0.25 0.84375,-0.25 0.390625,-0.25 V 0 c 0.015625,0 0.5,-0.03125 0.78125,-0.03125 0.25,0 0.5,0.015625 0.734375,0.03125 V -0.25 C 1.5,-0.25 1.4375,-0.25 1.4375,-0.546875 v -2.53125 z m 0,0"
               id="id-393b7664-0a48-48d1-97cd-23c79fc1d820" />
          </g>
        </g>
      </defs>
      <g
         fill="#000000"
         fill-opacity="1"
         id="id-a26d2ee8-9965-409c-a76b-9bc9bf471772"
         transform="translate(-149.009,-130.359)"
         style="fill:#b91a1a;fill-opacity:1">
        <g
           transform="translate(148.712,134.765)"
           id="g16715"
           style="fill:#b91a1a;fill-opacity:1">
          <path
             d="m 0.875,-0.59375 c -0.03125,0.15625 -0.09375,0.390625 -0.09375,0.4375 0,0.171875 0.140625,0.265625 0.296875,0.265625 0.125,0 0.296875,-0.078125 0.375,-0.28125 C 1.46875,-0.203125 1.796875,-1.5625 1.84375,-1.75 c 0.078125,-0.328125 0.265625,-1.015625 0.3125,-1.296875 0.046875,-0.125 0.328125,-0.59375 0.5625,-0.8125 0.078125,-0.0625 0.375,-0.328125 0.796875,-0.328125 0.265625,0 0.40625,0.125 0.421875,0.125 -0.296875,0.046875 -0.515625,0.28125 -0.515625,0.546875 0,0.15625 0.109375,0.34375 0.375,0.34375 0.265625,0 0.546875,-0.234375 0.546875,-0.59375 0,-0.34375 -0.3125,-0.640625 -0.828125,-0.640625 C 2.875,-4.40625 2.4375,-3.921875 2.25,-3.640625 2.15625,-4.09375 1.796875,-4.40625 1.328125,-4.40625 0.875,-4.40625 0.6875,-4.015625 0.59375,-3.84375 0.421875,-3.5 0.296875,-2.90625 0.296875,-2.875 c 0,0.109375 0.09375,0.109375 0.109375,0.109375 0.109375,0 0.109375,-0.015625 0.171875,-0.234375 0.171875,-0.703125 0.375,-1.1875 0.734375,-1.1875 0.15625,0 0.296875,0.078125 0.296875,0.453125 0,0.21875 -0.03125,0.328125 -0.15625,0.84375 z m 0,0"
             id="id-dd63b481-ccf5-48bf-8f11-0f96c4572b30"
             style="fill:#b91a1a;fill-opacity:1" />
        </g>
      </g>
      <g
         fill="#000000"
         fill-opacity="1"
         id="id-cdc98491-1b69-4391-9664-3222fde66200"
         transform="translate(-149.009,-130.359)"
         style="fill:#b91a1a;fill-opacity:1">
        <g
           transform="translate(153.207,136.259)"
           id="g16719"
           style="fill:#b91a1a;fill-opacity:1">
          <path
             d="m 1.46875,-4.296875 c 0,-0.203125 -0.171875,-0.40625 -0.40625,-0.40625 -0.203125,0 -0.390625,0.171875 -0.390625,0.40625 0,0.25 0.203125,0.40625 0.390625,0.40625 0.234375,0 0.40625,-0.171875 0.40625,-0.40625 z M 0.40625,-3 v 0.25 c 0.4375,0 0.5,0.046875 0.5,0.390625 v 1.8125 C 0.90625,-0.25 0.84375,-0.25 0.390625,-0.25 V 0 c 0.015625,0 0.5,-0.03125 0.78125,-0.03125 0.25,0 0.5,0.015625 0.734375,0.03125 V -0.25 C 1.5,-0.25 1.4375,-0.25 1.4375,-0.546875 v -2.53125 z m 0,0"
             id="id-1c3e190b-7ee5-4b2e-9563-0fa2b02798b7"
             style="fill:#b91a1a;fill-opacity:1" />
        </g>
      </g>
    </g>
    <path
       d="m 84.336802,40.708006 c -0.01102,0.05512 -0.03307,0.137804 -0.03307,0.154341 0,0.06063 0.04961,0.09371 0.104731,0.09371 0.0441,0 0.104731,-0.02756 0.132292,-0.09922 0.0055,-0.01102 0.121267,-0.490582 0.137804,-0.556728 0.02756,-0.115755 0.09371,-0.35829 0.110243,-0.457509 0.01654,-0.0441 0.115755,-0.209462 0.198438,-0.286632 0.02756,-0.02205 0.132291,-0.115755 0.28112,-0.115755 0.09371,0 0.143316,0.0441 0.148828,0.0441 -0.104731,0.01654 -0.181901,0.09922 -0.181901,0.192925 0,0.05512 0.03859,0.121268 0.132291,0.121268 0.09371,0 0.192926,-0.08268 0.192926,-0.209462 0,-0.121268 -0.110243,-0.225999 -0.292144,-0.225999 -0.225999,0 -0.380339,0.170877 -0.446485,0.270096 -0.03307,-0.159853 -0.159853,-0.270096 -0.325217,-0.270096 -0.159853,0 -0.225999,0.137804 -0.259072,0.198438 -0.06063,0.121267 -0.104731,0.330729 -0.104731,0.341754 0,0.03859 0.03307,0.03859 0.03858,0.03859 0.03859,0 0.03859,-0.0055 0.06063,-0.08268 0.06063,-0.248047 0.132292,-0.418923 0.259071,-0.418923 0.05512,0 0.104731,0.02756 0.104731,0.159852 0,0.07717 -0.01102,0.115755 -0.05512,0.297657 z m 0,0"
       id="id-a17871d7-ca67-49eb-8d6f-59020852f074"
       style="fill:#b91a1a;fill-opacity:1;stroke-width:0.352778" />
  </g>
</svg>
